M48
; DRILL file {KiCad (6.0.5-0)} date Friday, 30 September 2022 at 17:34:11
; FORMAT={-:-/ absolute / metric / decimal}
; #@! TF.CreationDate,2022-09-30T17:34:11+08:00
; #@! TF.GenerationSoftware,Kicad,Pcbnew,(6.0.5-0)
; #@! TF.FileFunction,Plated,1,2,PTH
FMAT,2
METRIC
; #@! TA.AperFunction,Plated,PTH,ViaDrill
T1C0.400
; #@! TA.AperFunction,Plated,PTH,ViaDrill
T2C0.500
; #@! TA.AperFunction,Plated,PTH,ComponentDrill
T3C0.650
; #@! TA.AperFunction,Plated,PTH,ComponentDrill
T4C0.762
; #@! TA.AperFunction,Plated,PTH,ComponentDrill
T5C0.800
%
G90
G05
T1
X8.8Y4.4
X12.743Y6.894
X14.5Y5.685
X20.0Y-2.278
T2
X4.0Y-6.0
X18.0Y6.8
T3
X27.2Y5.6
X27.2Y4.33
X27.2Y-1.3
X27.2Y-2.57
X27.2Y-3.84
X27.2Y-5.11
X27.2Y-6.38
X27.2Y-7.65
X27.2Y-8.92
X27.2Y-10.19
T4
X-5.874Y8.928
X-5.564Y-8.122
X-4.564Y-6.122
X-3.564Y-8.122
X-2.564Y-6.122
X-1.564Y-8.122
X-0.564Y-6.122
X0.436Y-8.122
X1.436Y-6.122
X1.746Y8.928
T5
X21.2Y11.6
X23.74Y11.6
T0
M30
