%TF.GenerationSoftware,KiCad,Pcbnew,(6.0.5-0)*%
%TF.CreationDate,2022-09-30T17:34:07+08:00*%
%TF.ProjectId,breakout,62726561-6b6f-4757-942e-6b696361645f,rev?*%
%TF.SameCoordinates,Original*%
%TF.FileFunction,Copper,L1,Top*%
%TF.FilePolarity,Positive*%
%FSLAX46Y46*%
G04 Gerber Fmt 4.6, Leading zero omitted, Abs format (unit mm)*
G04 Created by KiCad (PCBNEW (6.0.5-0)) date 2022-09-30 17:34:07*
%MOMM*%
%LPD*%
G01*
G04 APERTURE LIST*
G04 Aperture macros list*
%AMRoundRect*
0 Rectangle with rounded corners*
0 $1 Rounding radius*
0 $2 $3 $4 $5 $6 $7 $8 $9 X,Y pos of 4 corners*
0 Add a 4 corners polygon primitive as box body*
4,1,4,$2,$3,$4,$5,$6,$7,$8,$9,$2,$3,0*
0 Add four circle primitives for the rounded corners*
1,1,$1+$1,$2,$3*
1,1,$1+$1,$4,$5*
1,1,$1+$1,$6,$7*
1,1,$1+$1,$8,$9*
0 Add four rect primitives between the rounded corners*
20,1,$1+$1,$2,$3,$4,$5,0*
20,1,$1+$1,$4,$5,$6,$7,0*
20,1,$1+$1,$6,$7,$8,$9,0*
20,1,$1+$1,$8,$9,$2,$3,0*%
G04 Aperture macros list end*
%TA.AperFunction,EtchedComponent*%
%ADD10C,0.010000*%
%TD*%
%TA.AperFunction,ComponentPad*%
%ADD11R,1.000000X1.000000*%
%TD*%
%TA.AperFunction,ComponentPad*%
%ADD12O,1.000000X1.000000*%
%TD*%
%TA.AperFunction,SMDPad,CuDef*%
%ADD13RoundRect,0.250000X0.375000X1.075000X-0.375000X1.075000X-0.375000X-1.075000X0.375000X-1.075000X0*%
%TD*%
%TA.AperFunction,ComponentPad*%
%ADD14C,1.400000*%
%TD*%
%TA.AperFunction,SMDPad,CuDef*%
%ADD15RoundRect,0.225000X0.250000X-0.225000X0.250000X0.225000X-0.250000X0.225000X-0.250000X-0.225000X0*%
%TD*%
%TA.AperFunction,SMDPad,CuDef*%
%ADD16R,0.450000X0.600000*%
%TD*%
%TA.AperFunction,SMDPad,CuDef*%
%ADD17RoundRect,0.225000X0.225000X0.250000X-0.225000X0.250000X-0.225000X-0.250000X0.225000X-0.250000X0*%
%TD*%
%TA.AperFunction,SMDPad,CuDef*%
%ADD18RoundRect,0.250000X-0.262500X-0.450000X0.262500X-0.450000X0.262500X0.450000X-0.262500X0.450000X0*%
%TD*%
%TA.AperFunction,SMDPad,CuDef*%
%ADD19RoundRect,0.250000X0.262500X0.450000X-0.262500X0.450000X-0.262500X-0.450000X0.262500X-0.450000X0*%
%TD*%
%TA.AperFunction,SMDPad,CuDef*%
%ADD20RoundRect,0.200000X-0.275000X0.200000X-0.275000X-0.200000X0.275000X-0.200000X0.275000X0.200000X0*%
%TD*%
%TA.AperFunction,SMDPad,CuDef*%
%ADD21RoundRect,0.150000X-0.512500X-0.150000X0.512500X-0.150000X0.512500X0.150000X-0.512500X0.150000X0*%
%TD*%
%TA.AperFunction,SMDPad,CuDef*%
%ADD22RoundRect,0.225000X-0.225000X-0.250000X0.225000X-0.250000X0.225000X0.250000X-0.225000X0.250000X0*%
%TD*%
%TA.AperFunction,WasherPad*%
%ADD23C,1.250000*%
%TD*%
%TA.AperFunction,ComponentPad*%
%ADD24C,1.524000*%
%TD*%
%TA.AperFunction,ViaPad*%
%ADD25C,0.800000*%
%TD*%
%TA.AperFunction,ViaPad*%
%ADD26C,1.000000*%
%TD*%
%TA.AperFunction,Conductor*%
%ADD27C,0.250000*%
%TD*%
%TA.AperFunction,Conductor*%
%ADD28C,1.000000*%
%TD*%
%TA.AperFunction,Conductor*%
%ADD29C,0.300000*%
%TD*%
G04 APERTURE END LIST*
%TO.C,H1*%
G36*
X-4952166Y4309166D02*
G01*
X-4952166Y4732500D01*
X-6179833Y4732500D01*
X-6179833Y5600333D01*
X-4952166Y5600333D01*
X-4952166Y6383500D01*
X-4105500Y6383500D01*
X-4105500Y5600333D01*
X-2877833Y5600333D01*
X-2877833Y4732500D01*
X-4105500Y4732500D01*
X-4105500Y4309166D01*
X-2983666Y4309166D01*
X-2983666Y1303500D01*
X-4105500Y1303500D01*
X-4105500Y817270D01*
X-3444041Y811676D01*
X-2782583Y806083D01*
X-2771125Y-50563D01*
X-3433021Y-56156D01*
X-4094916Y-61750D01*
X-4106112Y-1363500D01*
X-4952166Y-1363500D01*
X-4952166Y-51167D01*
X-6264500Y-51167D01*
X-6264500Y816666D01*
X-4952166Y816666D01*
X-4952166Y1303500D01*
X-6010500Y1303500D01*
X-6010500Y2002000D01*
X-5312000Y2002000D01*
X-4846333Y2002000D01*
X-4211333Y2002000D01*
X-3703333Y2002000D01*
X-3703333Y2467666D01*
X-4211333Y2467666D01*
X-4211333Y2002000D01*
X-4846333Y2002000D01*
X-4846333Y2467666D01*
X-5312000Y2467666D01*
X-5312000Y2002000D01*
X-6010500Y2002000D01*
X-6010500Y3123833D01*
X-5312000Y3123833D01*
X-4846333Y3123833D01*
X-4211333Y3123833D01*
X-3703333Y3123833D01*
X-3703333Y3610666D01*
X-4211333Y3610666D01*
X-4211333Y3123833D01*
X-4846333Y3123833D01*
X-4846333Y3610666D01*
X-5312000Y3610666D01*
X-5312000Y3123833D01*
X-6010500Y3123833D01*
X-6010500Y4309166D01*
X-4952166Y4309166D01*
G37*
D10*
X-4952166Y4309166D02*
X-4952166Y4732500D01*
X-6179833Y4732500D01*
X-6179833Y5600333D01*
X-4952166Y5600333D01*
X-4952166Y6383500D01*
X-4105500Y6383500D01*
X-4105500Y5600333D01*
X-2877833Y5600333D01*
X-2877833Y4732500D01*
X-4105500Y4732500D01*
X-4105500Y4309166D01*
X-2983666Y4309166D01*
X-2983666Y1303500D01*
X-4105500Y1303500D01*
X-4105500Y817270D01*
X-3444041Y811676D01*
X-2782583Y806083D01*
X-2771125Y-50563D01*
X-3433021Y-56156D01*
X-4094916Y-61750D01*
X-4106112Y-1363500D01*
X-4952166Y-1363500D01*
X-4952166Y-51167D01*
X-6264500Y-51167D01*
X-6264500Y816666D01*
X-4952166Y816666D01*
X-4952166Y1303500D01*
X-6010500Y1303500D01*
X-6010500Y2002000D01*
X-5312000Y2002000D01*
X-4846333Y2002000D01*
X-4211333Y2002000D01*
X-3703333Y2002000D01*
X-3703333Y2467666D01*
X-4211333Y2467666D01*
X-4211333Y2002000D01*
X-4846333Y2002000D01*
X-4846333Y2467666D01*
X-5312000Y2467666D01*
X-5312000Y2002000D01*
X-6010500Y2002000D01*
X-6010500Y3123833D01*
X-5312000Y3123833D01*
X-4846333Y3123833D01*
X-4211333Y3123833D01*
X-3703333Y3123833D01*
X-3703333Y3610666D01*
X-4211333Y3610666D01*
X-4211333Y3123833D01*
X-4846333Y3123833D01*
X-4846333Y3610666D01*
X-5312000Y3610666D01*
X-5312000Y3123833D01*
X-6010500Y3123833D01*
X-6010500Y4309166D01*
X-4952166Y4309166D01*
G36*
X-8178435Y2868206D02*
G01*
X-8167105Y3063683D01*
X-8152154Y3238881D01*
X-8133860Y3383871D01*
X-8129614Y3409583D01*
X-8061982Y3750779D01*
X-7981440Y4064817D01*
X-7883902Y4365945D01*
X-7775871Y4643290D01*
X-7569100Y5084237D01*
X-7328679Y5499738D01*
X-7053596Y5891306D01*
X-6742839Y6260455D01*
X-6582700Y6428123D01*
X-6229270Y6754167D01*
X-5850657Y7047085D01*
X-5449438Y7305633D01*
X-5028190Y7528569D01*
X-4589489Y7714650D01*
X-4135912Y7862634D01*
X-3670036Y7971279D01*
X-3254376Y8033090D01*
X-3132884Y8042869D01*
X-2980030Y8049759D01*
X-2806687Y8053760D01*
X-2623727Y8054871D01*
X-2442023Y8053092D01*
X-2272447Y8048424D01*
X-2125872Y8040867D01*
X-2035624Y8033090D01*
X-1561563Y7960107D01*
X-1099463Y7847451D01*
X-651503Y7696617D01*
X-219864Y7509100D01*
X193273Y7286395D01*
X585729Y7029997D01*
X955322Y6741402D01*
X1299873Y6422104D01*
X1617200Y6073599D01*
X1905124Y5697382D01*
X2161464Y5294948D01*
X2284019Y5071065D01*
X2475152Y4666964D01*
X2628252Y4264599D01*
X2746341Y3855384D01*
X2802539Y3598406D01*
X2838730Y3398112D01*
X2865389Y3215469D01*
X2883694Y3037387D01*
X2894826Y2850773D01*
X2899966Y2642538D01*
X2900667Y2510000D01*
X2899405Y2365702D01*
X2895909Y2219438D01*
X2890614Y2082927D01*
X2883952Y1967888D01*
X2878090Y1900624D01*
X2805303Y1427397D01*
X2693264Y967139D01*
X2543594Y521797D01*
X2357914Y93320D01*
X2137846Y-316345D01*
X1885011Y-705249D01*
X1601030Y-1071444D01*
X1287525Y-1412982D01*
X946117Y-1727916D01*
X578428Y-2014296D01*
X186079Y-2270176D01*
X-229309Y-2493606D01*
X-666114Y-2682639D01*
X-1044323Y-2812186D01*
X-1244830Y-2867079D01*
X-1470416Y-2918964D01*
X-1703827Y-2964343D01*
X-1927813Y-2999720D01*
X-2035624Y-3013090D01*
X-2136340Y-3020985D01*
X-2269374Y-3026801D01*
X-2425112Y-3030546D01*
X-2593939Y-3032227D01*
X-2766241Y-3031851D01*
X-2932405Y-3029426D01*
X-3082817Y-3024959D01*
X-3207862Y-3018456D01*
X-3280000Y-3012159D01*
X-3750215Y-2938089D01*
X-4206597Y-2825221D01*
X-4647390Y-2675333D01*
X-5070835Y-2490200D01*
X-5475177Y-2271601D01*
X-5858658Y-2021312D01*
X-6219521Y-1741110D01*
X-6556010Y-1432772D01*
X-6866366Y-1098074D01*
X-7148833Y-738795D01*
X-7401655Y-356709D01*
X-7623073Y46404D01*
X-7811332Y468769D01*
X-7964673Y908609D01*
X-8081341Y1364147D01*
X-8159577Y1833605D01*
X-8171003Y1934209D01*
X-8181962Y2082123D01*
X-8187905Y2259410D01*
X-8189113Y2456140D01*
X-8188334Y2505575D01*
X-7552491Y2505575D01*
X-7530355Y2052569D01*
X-7466618Y1596299D01*
X-7458796Y1555031D01*
X-7354200Y1124713D01*
X-7210709Y707886D01*
X-7030288Y306973D01*
X-6814904Y-75606D01*
X-6566520Y-437431D01*
X-6287104Y-776081D01*
X-5978620Y-1089134D01*
X-5643032Y-1374169D01*
X-5282308Y-1628767D01*
X-4898412Y-1850506D01*
X-4567770Y-2006086D01*
X-4146117Y-2162550D01*
X-3711883Y-2279915D01*
X-3269213Y-2357530D01*
X-2822249Y-2394745D01*
X-2375137Y-2390908D01*
X-2200500Y-2378041D01*
X-1799406Y-2323472D01*
X-1397843Y-2235088D01*
X-1005064Y-2115657D01*
X-630323Y-1967949D01*
X-320215Y-1815354D01*
X-236463Y-1767584D01*
X-137694Y-1707921D01*
X-30960Y-1641008D01*
X76682Y-1571483D01*
X178178Y-1503987D01*
X266473Y-1443161D01*
X334512Y-1393645D01*
X375242Y-1360080D01*
X380630Y-1354367D01*
X390960Y-1336688D01*
X380339Y-1326662D01*
X341640Y-1322188D01*
X268009Y-1321167D01*
X127834Y-1321167D01*
X127834Y-897834D01*
X-1819500Y-897834D01*
X-1819500Y-1363500D01*
X-2645000Y-1363500D01*
X-2645000Y-8834D01*
X-1819500Y-8834D01*
X-1290333Y-8834D01*
X-464833Y-8834D01*
X127834Y-8834D01*
X127834Y1472833D01*
X-464833Y1472833D01*
X-464833Y-8834D01*
X-1290333Y-8834D01*
X-1290333Y1472833D01*
X-1819500Y1472833D01*
X-1819500Y-8834D01*
X-2645000Y-8834D01*
X-2645000Y2361833D01*
X-1819500Y2361833D01*
X-1290333Y2361833D01*
X-464833Y2361833D01*
X127834Y2361833D01*
X127834Y3716500D01*
X-464833Y3716500D01*
X-464833Y2361833D01*
X-1290333Y2361833D01*
X-1290333Y3716500D01*
X-1819500Y3716500D01*
X-1819500Y2361833D01*
X-2645000Y2361833D01*
X-2645000Y4584333D01*
X-1311500Y4584333D01*
X-1311500Y6383500D01*
X-443666Y6383500D01*
X-443666Y4584333D01*
X974339Y4584333D01*
X979711Y1891276D01*
X985084Y-801781D01*
X1142093Y-611682D01*
X1411976Y-252855D01*
X1644469Y123037D01*
X1839693Y513439D01*
X1997773Y915800D01*
X2118832Y1327566D01*
X2202991Y1746184D01*
X2250375Y2169101D01*
X2261107Y2593764D01*
X2235308Y3017620D01*
X2173103Y3438115D01*
X2074614Y3852697D01*
X1939964Y4258813D01*
X1769276Y4653908D01*
X1562674Y5035432D01*
X1320280Y5400830D01*
X1042217Y5747548D01*
X824594Y5979593D01*
X488166Y6286514D01*
X127940Y6558942D01*
X-254047Y6795916D01*
X-655759Y6996478D01*
X-1075157Y7159668D01*
X-1510203Y7284527D01*
X-1958860Y7370097D01*
X-2188301Y7397911D01*
X-2628955Y7420259D01*
X-3069179Y7401487D01*
X-3505701Y7342714D01*
X-3935248Y7245057D01*
X-4354549Y7109635D01*
X-4760331Y6937565D01*
X-5149321Y6729967D01*
X-5518248Y6487957D01*
X-5863839Y6212654D01*
X-5988428Y6099481D01*
X-6311037Y5767558D01*
X-6597978Y5414030D01*
X-6848593Y5040935D01*
X-7062221Y4650311D01*
X-7238203Y4244195D01*
X-7375881Y3824626D01*
X-7474594Y3393641D01*
X-7533684Y2953278D01*
X-7552491Y2505575D01*
X-8188334Y2505575D01*
X-8185863Y2662382D01*
X-8178435Y2868206D01*
G37*
X-8178435Y2868206D02*
X-8167105Y3063683D01*
X-8152154Y3238881D01*
X-8133860Y3383871D01*
X-8129614Y3409583D01*
X-8061982Y3750779D01*
X-7981440Y4064817D01*
X-7883902Y4365945D01*
X-7775871Y4643290D01*
X-7569100Y5084237D01*
X-7328679Y5499738D01*
X-7053596Y5891306D01*
X-6742839Y6260455D01*
X-6582700Y6428123D01*
X-6229270Y6754167D01*
X-5850657Y7047085D01*
X-5449438Y7305633D01*
X-5028190Y7528569D01*
X-4589489Y7714650D01*
X-4135912Y7862634D01*
X-3670036Y7971279D01*
X-3254376Y8033090D01*
X-3132884Y8042869D01*
X-2980030Y8049759D01*
X-2806687Y8053760D01*
X-2623727Y8054871D01*
X-2442023Y8053092D01*
X-2272447Y8048424D01*
X-2125872Y8040867D01*
X-2035624Y8033090D01*
X-1561563Y7960107D01*
X-1099463Y7847451D01*
X-651503Y7696617D01*
X-219864Y7509100D01*
X193273Y7286395D01*
X585729Y7029997D01*
X955322Y6741402D01*
X1299873Y6422104D01*
X1617200Y6073599D01*
X1905124Y5697382D01*
X2161464Y5294948D01*
X2284019Y5071065D01*
X2475152Y4666964D01*
X2628252Y4264599D01*
X2746341Y3855384D01*
X2802539Y3598406D01*
X2838730Y3398112D01*
X2865389Y3215469D01*
X2883694Y3037387D01*
X2894826Y2850773D01*
X2899966Y2642538D01*
X2900667Y2510000D01*
X2899405Y2365702D01*
X2895909Y2219438D01*
X2890614Y2082927D01*
X2883952Y1967888D01*
X2878090Y1900624D01*
X2805303Y1427397D01*
X2693264Y967139D01*
X2543594Y521797D01*
X2357914Y93320D01*
X2137846Y-316345D01*
X1885011Y-705249D01*
X1601030Y-1071444D01*
X1287525Y-1412982D01*
X946117Y-1727916D01*
X578428Y-2014296D01*
X186079Y-2270176D01*
X-229309Y-2493606D01*
X-666114Y-2682639D01*
X-1044323Y-2812186D01*
X-1244830Y-2867079D01*
X-1470416Y-2918964D01*
X-1703827Y-2964343D01*
X-1927813Y-2999720D01*
X-2035624Y-3013090D01*
X-2136340Y-3020985D01*
X-2269374Y-3026801D01*
X-2425112Y-3030546D01*
X-2593939Y-3032227D01*
X-2766241Y-3031851D01*
X-2932405Y-3029426D01*
X-3082817Y-3024959D01*
X-3207862Y-3018456D01*
X-3280000Y-3012159D01*
X-3750215Y-2938089D01*
X-4206597Y-2825221D01*
X-4647390Y-2675333D01*
X-5070835Y-2490200D01*
X-5475177Y-2271601D01*
X-5858658Y-2021312D01*
X-6219521Y-1741110D01*
X-6556010Y-1432772D01*
X-6866366Y-1098074D01*
X-7148833Y-738795D01*
X-7401655Y-356709D01*
X-7623073Y46404D01*
X-7811332Y468769D01*
X-7964673Y908609D01*
X-8081341Y1364147D01*
X-8159577Y1833605D01*
X-8171003Y1934209D01*
X-8181962Y2082123D01*
X-8187905Y2259410D01*
X-8189113Y2456140D01*
X-8188334Y2505575D01*
X-7552491Y2505575D01*
X-7530355Y2052569D01*
X-7466618Y1596299D01*
X-7458796Y1555031D01*
X-7354200Y1124713D01*
X-7210709Y707886D01*
X-7030288Y306973D01*
X-6814904Y-75606D01*
X-6566520Y-437431D01*
X-6287104Y-776081D01*
X-5978620Y-1089134D01*
X-5643032Y-1374169D01*
X-5282308Y-1628767D01*
X-4898412Y-1850506D01*
X-4567770Y-2006086D01*
X-4146117Y-2162550D01*
X-3711883Y-2279915D01*
X-3269213Y-2357530D01*
X-2822249Y-2394745D01*
X-2375137Y-2390908D01*
X-2200500Y-2378041D01*
X-1799406Y-2323472D01*
X-1397843Y-2235088D01*
X-1005064Y-2115657D01*
X-630323Y-1967949D01*
X-320215Y-1815354D01*
X-236463Y-1767584D01*
X-137694Y-1707921D01*
X-30960Y-1641008D01*
X76682Y-1571483D01*
X178178Y-1503987D01*
X266473Y-1443161D01*
X334512Y-1393645D01*
X375242Y-1360080D01*
X380630Y-1354367D01*
X390960Y-1336688D01*
X380339Y-1326662D01*
X341640Y-1322188D01*
X268009Y-1321167D01*
X127834Y-1321167D01*
X127834Y-897834D01*
X-1819500Y-897834D01*
X-1819500Y-1363500D01*
X-2645000Y-1363500D01*
X-2645000Y-8834D01*
X-1819500Y-8834D01*
X-1290333Y-8834D01*
X-464833Y-8834D01*
X127834Y-8834D01*
X127834Y1472833D01*
X-464833Y1472833D01*
X-464833Y-8834D01*
X-1290333Y-8834D01*
X-1290333Y1472833D01*
X-1819500Y1472833D01*
X-1819500Y-8834D01*
X-2645000Y-8834D01*
X-2645000Y2361833D01*
X-1819500Y2361833D01*
X-1290333Y2361833D01*
X-464833Y2361833D01*
X127834Y2361833D01*
X127834Y3716500D01*
X-464833Y3716500D01*
X-464833Y2361833D01*
X-1290333Y2361833D01*
X-1290333Y3716500D01*
X-1819500Y3716500D01*
X-1819500Y2361833D01*
X-2645000Y2361833D01*
X-2645000Y4584333D01*
X-1311500Y4584333D01*
X-1311500Y6383500D01*
X-443666Y6383500D01*
X-443666Y4584333D01*
X974339Y4584333D01*
X979711Y1891276D01*
X985084Y-801781D01*
X1142093Y-611682D01*
X1411976Y-252855D01*
X1644469Y123037D01*
X1839693Y513439D01*
X1997773Y915800D01*
X2118832Y1327566D01*
X2202991Y1746184D01*
X2250375Y2169101D01*
X2261107Y2593764D01*
X2235308Y3017620D01*
X2173103Y3438115D01*
X2074614Y3852697D01*
X1939964Y4258813D01*
X1769276Y4653908D01*
X1562674Y5035432D01*
X1320280Y5400830D01*
X1042217Y5747548D01*
X824594Y5979593D01*
X488166Y6286514D01*
X127940Y6558942D01*
X-254047Y6795916D01*
X-655759Y6996478D01*
X-1075157Y7159668D01*
X-1510203Y7284527D01*
X-1958860Y7370097D01*
X-2188301Y7397911D01*
X-2628955Y7420259D01*
X-3069179Y7401487D01*
X-3505701Y7342714D01*
X-3935248Y7245057D01*
X-4354549Y7109635D01*
X-4760331Y6937565D01*
X-5149321Y6729967D01*
X-5518248Y6487957D01*
X-5863839Y6212654D01*
X-5988428Y6099481D01*
X-6311037Y5767558D01*
X-6597978Y5414030D01*
X-6848593Y5040935D01*
X-7062221Y4650311D01*
X-7238203Y4244195D01*
X-7375881Y3824626D01*
X-7474594Y3393641D01*
X-7533684Y2953278D01*
X-7552491Y2505575D01*
X-8188334Y2505575D01*
X-8185863Y2662382D01*
X-8178435Y2868206D01*
%TD*%
D11*
%TO.P,J2,1,Pin_1*%
%TO.N,SW1*%
X27200000Y5600000D03*
D12*
%TO.P,J2,2,Pin_2*%
%TO.N,SW2*%
X27200000Y4330000D03*
%TD*%
D13*
%TO.P,L1,1*%
%TO.N,Net-(C1-Pad1)*%
X17000000Y-2000000D03*
%TO.P,L1,2*%
%TO.N,Net-(D1-Pad2)*%
X14200000Y-2000000D03*
%TD*%
D14*
%TO.P,TP1,1,1*%
%TO.N,VCC*%
X21200000Y11600000D03*
%TO.P,TP1,2,2*%
%TO.N,GND*%
X23740000Y11600000D03*
%TD*%
D15*
%TO.P,C1,1*%
%TO.N,Net-(C1-Pad1)*%
X17999999Y2425000D03*
%TO.P,C1,2*%
%TO.N,GND*%
X17999999Y3975000D03*
%TD*%
D16*
%TO.P,D1,1,K*%
%TO.N,VCC*%
X15600000Y5050000D03*
%TO.P,D1,2,A*%
%TO.N,Net-(D1-Pad2)*%
X15600000Y2950000D03*
%TD*%
D17*
%TO.P,C2,1*%
%TO.N,VCC*%
X17950000Y12800000D03*
%TO.P,C2,2*%
%TO.N,GND*%
X16400000Y12800000D03*
%TD*%
D18*
%TO.P,R1,1*%
%TO.N,Net-(C3-Pad2)*%
X12262500Y10400000D03*
%TO.P,R1,2*%
%TO.N,VCC*%
X14087500Y10400000D03*
%TD*%
D19*
%TO.P,R2,1*%
%TO.N,SCK*%
X21952321Y-6581220D03*
%TO.P,R2,2*%
%TO.N,Net-(O1-Pad7)*%
X20127321Y-6581220D03*
%TD*%
D17*
%TO.P,C3,1*%
%TO.N,VCC*%
X13715167Y8486610D03*
%TO.P,C3,2*%
%TO.N,Net-(C3-Pad2)*%
X12165167Y8486610D03*
%TD*%
D11*
%TO.P,J1,1,Pin_1*%
%TO.N,GND*%
X27200000Y-1300000D03*
D12*
%TO.P,J1,2,Pin_2*%
%TO.N,SlaveSelect*%
X27200000Y-2570000D03*
%TO.P,J1,3,Pin_3*%
%TO.N,SHDN*%
X27200000Y-3840000D03*
%TO.P,J1,4,Pin_4*%
%TO.N,Data*%
X27200000Y-5110000D03*
%TO.P,J1,5,Pin_5*%
%TO.N,SDI*%
X27200000Y-6380000D03*
%TO.P,J1,6,Pin_6*%
%TO.N,SCK*%
X27200000Y-7650000D03*
%TO.P,J1,7,Pin_7*%
%TO.N,REST*%
X27200000Y-8920000D03*
%TO.P,J1,8,Pin_8*%
%TO.N,VDD*%
X27200000Y-10190000D03*
%TD*%
D19*
%TO.P,R3,1*%
%TO.N,GND*%
X14087500Y12800000D03*
%TO.P,R3,2*%
%TO.N,Net-(C3-Pad2)*%
X12262500Y12800000D03*
%TD*%
D20*
%TO.P,R4,1*%
%TO.N,GND*%
X20000000Y4025000D03*
%TO.P,R4,2*%
%TO.N,SHDN*%
X20000000Y2375000D03*
%TD*%
D21*
%TO.P,U1,1,FB*%
%TO.N,Net-(C3-Pad2)*%
X10462500Y5350000D03*
%TO.P,U1,2,VSS*%
%TO.N,GND*%
X10462500Y4400000D03*
%TO.P,U1,3,SHDN*%
%TO.N,SHDN*%
X10462500Y3450000D03*
%TO.P,U1,4,LX*%
%TO.N,Net-(D1-Pad2)*%
X12737500Y3450000D03*
%TO.P,U1,5,SW*%
%TO.N,Net-(C1-Pad1)*%
X12737500Y4400000D03*
%TO.P,U1,6,VCC*%
%TO.N,VDD*%
X12737500Y5350000D03*
%TD*%
D22*
%TO.P,C4,1*%
%TO.N,VDD*%
X14995000Y6955000D03*
%TO.P,C4,2*%
%TO.N,GND*%
X16545000Y6955000D03*
%TD*%
D23*
%TO.P,O1,*%
%TO.N,*%
X-10064061Y9928148D03*
X5935939Y9928148D03*
X5935939Y-8071852D03*
X-10064061Y-8071852D03*
D24*
%TO.P,O1,1,SW1*%
%TO.N,SW1*%
X-5874061Y8928148D03*
%TO.P,O1,2,SW2*%
%TO.N,SW2*%
X1745939Y8928148D03*
%TO.P,O1,3,VDD*%
%TO.N,VDD*%
X-5564061Y-8121852D03*
%TO.P,O1,4,Slave_Select*%
%TO.N,SlaveSelect*%
X-4564061Y-6121852D03*
%TO.P,O1,5,Reset*%
%TO.N,REST*%
X-3564061Y-8121852D03*
%TO.P,O1,6,Data/Command*%
%TO.N,Data*%
X-2564061Y-6121852D03*
%TO.P,O1,7,SCK*%
%TO.N,Net-(O1-Pad7)*%
X-1564061Y-8121852D03*
%TO.P,O1,8,SDI*%
%TO.N,SDI*%
X-564061Y-6121852D03*
%TO.P,O1,9,VCC*%
%TO.N,VCC*%
X435939Y-8121852D03*
%TO.P,O1,10,VSS*%
%TO.N,GND*%
X1435939Y-6121852D03*
%TD*%
D25*
%TO.N,GND*%
X14500000Y5685000D03*
X8800000Y4400000D03*
D26*
%TO.N,VCC*%
X4000000Y-6000000D03*
X18000000Y6800000D03*
D25*
%TO.N,SHDN*%
X20000000Y-2277880D03*
%TO.N,VDD*%
X12742794Y6894052D03*
%TD*%
D27*
%TO.N,Net-(C3-Pad2)*%
X12425000Y8400000D02*
X12078557Y8400000D01*
X12078557Y8400000D02*
X10462500Y6783943D01*
X10462500Y6783943D02*
X10462500Y5350000D01*
D28*
%TO.N,VCC*%
X13715167Y8486610D02*
X14523150Y8486610D01*
X14523150Y8486610D02*
X15262020Y9225480D01*
D27*
%TO.N,VDD*%
X-5564061Y-8121852D02*
X-3285913Y-10400000D01*
X24590000Y-10190000D02*
X27200000Y-10190000D01*
X9535960Y-6899040D02*
X17788442Y-6899040D01*
X-3285913Y-10400000D02*
X6035000Y-10400000D01*
X17788442Y-6899040D02*
X19289403Y-8400000D01*
X6035000Y-10400000D02*
X9535960Y-6899040D01*
X19289403Y-8400000D02*
X22800000Y-8400000D01*
X22800000Y-8400000D02*
X24590000Y-10190000D01*
%TO.N,Net-(C1-Pad1)*%
X17999999Y2425000D02*
X17999999Y-1000001D01*
X17999999Y-1000001D02*
X17000000Y-2000000D01*
X12767061Y4370439D02*
X16054560Y4370439D01*
X16054560Y4370439D02*
X17999999Y2425000D01*
D29*
%TO.N,GND*%
X10462500Y4400000D02*
X8800000Y4400000D01*
X15275000Y5685000D02*
X14500000Y5685000D01*
X16545000Y6955000D02*
X15275000Y5685000D01*
D28*
%TO.N,VCC*%
X16556988Y9225480D02*
X17950000Y7832468D01*
X15262020Y9225480D02*
X16556988Y9225480D01*
X18825480Y9225480D02*
X21200000Y11600000D01*
X14087500Y10400000D02*
X15262020Y9225480D01*
X17950000Y6850000D02*
X18000000Y6800000D01*
X1878148Y-8121852D02*
X435939Y-8121852D01*
X21200000Y11600000D02*
X19150000Y11600000D01*
X19150000Y11600000D02*
X17950000Y12800000D01*
X16556988Y9225480D02*
X18825480Y9225480D01*
D29*
X15600000Y5050000D02*
X17040000Y5050000D01*
X18000000Y6010000D02*
X18000000Y6800000D01*
X17040000Y5050000D02*
X18000000Y6010000D01*
D28*
X4000000Y-6000000D02*
X1878148Y-8121852D01*
X17950000Y7832468D02*
X17950000Y6850000D01*
D27*
%TO.N,Net-(C3-Pad2)*%
X12262500Y12800000D02*
X12262500Y10400000D01*
X12262500Y10400000D02*
X12262500Y8562500D01*
D29*
%TO.N,Net-(D1-Pad2)*%
X15600000Y2950000D02*
X15600000Y-600000D01*
X15600000Y-600000D02*
X14200000Y-2000000D01*
X12737500Y3450000D02*
X14200000Y1987500D01*
X14200000Y1987500D02*
X14200000Y-2000000D01*
D27*
%TO.N,SHDN*%
X20000000Y2375000D02*
X20000000Y-2277880D01*
X12708717Y491283D02*
X10462500Y2737500D01*
X18454640Y-3823240D02*
X13423240Y-3823240D01*
X13423240Y-3823240D02*
X12708717Y-3108717D01*
X10462500Y2737500D02*
X10462500Y3450000D01*
X20000000Y-2277880D02*
X18454640Y-3823240D01*
X12708717Y-3108717D02*
X12708717Y491283D01*
%TO.N,Data*%
X-2564061Y-6121852D02*
X-902858Y-4460649D01*
X-902858Y-4460649D02*
X5096367Y-4460649D01*
X18837252Y-5100960D02*
X19938212Y-4000000D01*
X26090000Y-4000000D02*
X27200000Y-5110000D01*
X19938212Y-4000000D02*
X26090000Y-4000000D01*
X5736678Y-5100960D02*
X18837252Y-5100960D01*
X5096367Y-4460649D02*
X5736678Y-5100960D01*
%TO.N,SDI*%
X25620000Y-4800000D02*
X27200000Y-6380000D01*
X-564061Y-6121852D02*
X647622Y-4910169D01*
X19773930Y-4800000D02*
X25620000Y-4800000D01*
X647622Y-4910169D02*
X4910169Y-4910169D01*
X4910169Y-4910169D02*
X5550480Y-5550480D01*
X19023450Y-5550480D02*
X19773930Y-4800000D01*
X5550480Y-5550480D02*
X19023450Y-5550480D01*
%TO.N,SCK*%
X26131220Y-6581220D02*
X27200000Y-7650000D01*
X21952321Y-6581220D02*
X26131220Y-6581220D01*
%TO.N,SlaveSelect*%
X18651054Y-4651440D02*
X20732494Y-2570000D01*
X5922876Y-4651440D02*
X18651054Y-4651440D01*
X-4564061Y-6121852D02*
X-2453338Y-4011129D01*
X20732494Y-2570000D02*
X27200000Y-2570000D01*
X-2453338Y-4011129D02*
X5282565Y-4011129D01*
X5282565Y-4011129D02*
X5922876Y-4651440D01*
D29*
%TO.N,VDD*%
X12742794Y6894052D02*
X14934052Y6894052D01*
X12742794Y6894052D02*
X12737500Y6888758D01*
X12737500Y6888758D02*
X12737500Y5350000D01*
D27*
%TO.N,REST*%
X26230480Y-7950480D02*
X27200000Y-8920000D01*
X17974640Y-6449520D02*
X19475600Y-7950480D01*
X19475600Y-7950480D02*
X26230480Y-7950480D01*
X2285238Y-9950480D02*
X5786199Y-6449520D01*
X-1757843Y-9950480D02*
X2285238Y-9950480D01*
X5786199Y-6449520D02*
X17974640Y-6449520D01*
X-3564061Y-8144262D02*
X-1757843Y-9950480D01*
%TO.N,Net-(O1-Pad7)*%
X2099040Y-9500960D02*
X5600002Y-6000000D01*
X19546101Y-6000000D02*
X20127321Y-6581220D01*
X-344595Y-9500960D02*
X2099040Y-9500960D01*
X5600002Y-6000000D02*
X19546101Y-6000000D01*
X-1564061Y-8281494D02*
X-344595Y-9500960D01*
%TD*%
%TA.AperFunction,Conductor*%
%TO.N,GND*%
G36*
X29433621Y14471498D02*
G01*
X29480114Y14417842D01*
X29491500Y14365500D01*
X29491500Y-10950633D01*
X29490000Y-10970018D01*
X29487690Y-10984851D01*
X29487690Y-10984855D01*
X29486309Y-10993724D01*
X29487802Y-11005137D01*
X29488558Y-11010919D01*
X29489391Y-11034863D01*
X29473794Y-11292710D01*
X29471960Y-11307814D01*
X29420477Y-11588754D01*
X29416836Y-11603527D01*
X29331859Y-11876227D01*
X29326466Y-11890445D01*
X29209243Y-12150906D01*
X29202172Y-12164379D01*
X29054405Y-12408813D01*
X29045762Y-12421334D01*
X28869615Y-12646171D01*
X28859525Y-12657560D01*
X28657560Y-12859525D01*
X28646171Y-12869615D01*
X28421334Y-13045762D01*
X28408813Y-13054405D01*
X28164379Y-13202172D01*
X28150908Y-13209242D01*
X27890445Y-13326466D01*
X27876231Y-13331858D01*
X27603527Y-13416836D01*
X27588760Y-13420475D01*
X27379786Y-13458771D01*
X27307814Y-13471960D01*
X27292710Y-13473794D01*
X27042096Y-13488953D01*
X27015284Y-13487692D01*
X27015148Y-13487690D01*
X27006276Y-13486309D01*
X26997374Y-13487473D01*
X26997372Y-13487473D01*
X26982323Y-13489441D01*
X26974714Y-13490436D01*
X26958379Y-13491500D01*
X-13365500Y-13491500D01*
X-13433621Y-13471498D01*
X-13480114Y-13417842D01*
X-13491500Y-13365500D01*
X-13491500Y-8042053D01*
X-11202027Y-8042053D01*
X-11188402Y-8249930D01*
X-11137123Y-8451843D01*
X-11049906Y-8641030D01*
X-10929674Y-8811155D01*
X-10884667Y-8854999D01*
X-10800283Y-8937202D01*
X-10780452Y-8956521D01*
X-10775656Y-8959726D01*
X-10775653Y-8959728D01*
X-10693796Y-9014423D01*
X-10607238Y-9072259D01*
X-10601930Y-9074540D01*
X-10601929Y-9074540D01*
X-10421135Y-9152215D01*
X-10421132Y-9152216D01*
X-10415832Y-9154493D01*
X-10410203Y-9155767D01*
X-10410202Y-9155767D01*
X-10218283Y-9199194D01*
X-10218278Y-9199195D01*
X-10212646Y-9200469D01*
X-10206875Y-9200696D01*
X-10206873Y-9200696D01*
X-10144553Y-9203144D01*
X-10004484Y-9208648D01*
X-9901401Y-9193702D01*
X-9804031Y-9179584D01*
X-9804026Y-9179583D01*
X-9798317Y-9178755D01*
X-9792853Y-9176900D01*
X-9792848Y-9176899D01*
X-9606518Y-9113648D01*
X-9601050Y-9111792D01*
X-9419289Y-9010001D01*
X-9259122Y-8876791D01*
X-9125912Y-8716624D01*
X-9024121Y-8534863D01*
X-8996792Y-8454354D01*
X-8959014Y-8343065D01*
X-8959013Y-8343060D01*
X-8957158Y-8337596D01*
X-8956330Y-8331887D01*
X-8956329Y-8331882D01*
X-8933558Y-8174831D01*
X-8927265Y-8131429D01*
X-8925705Y-8071852D01*
X-8944767Y-7864403D01*
X-9001314Y-7663902D01*
X-9093453Y-7477063D01*
X-9106716Y-7459301D01*
X-9214645Y-7314767D01*
X-9214646Y-7314766D01*
X-9218098Y-7310143D01*
X-9371074Y-7168733D01*
X-9404015Y-7147949D01*
X-9542378Y-7060648D01*
X-9547258Y-7057569D01*
X-9740750Y-6980374D01*
X-9945070Y-6939732D01*
X-9950845Y-6939656D01*
X-9950849Y-6939656D01*
X-10055160Y-6938291D01*
X-10153375Y-6937005D01*
X-10159072Y-6937984D01*
X-10159073Y-6937984D01*
X-10175804Y-6940859D01*
X-10358689Y-6972285D01*
X-10554136Y-7044389D01*
X-10559097Y-7047341D01*
X-10559098Y-7047341D01*
X-10670052Y-7113352D01*
X-10733170Y-7150903D01*
X-10889795Y-7288259D01*
X-10893362Y-7292784D01*
X-10893367Y-7292789D01*
X-11015145Y-7447264D01*
X-11018767Y-7451859D01*
X-11021458Y-7456975D01*
X-11021460Y-7456977D01*
X-11080632Y-7569445D01*
X-11115765Y-7636222D01*
X-11177541Y-7835174D01*
X-11202027Y-8042053D01*
X-13491500Y-8042053D01*
X-13491500Y2427366D01*
X-8703130Y2427366D01*
X-8702568Y2422948D01*
X-8702381Y2416888D01*
X-8702181Y2384193D01*
X-8701639Y2295877D01*
X-8701757Y2289604D01*
X-8701870Y2287010D01*
X-8702457Y2282183D01*
X-8702294Y2277318D01*
X-8702294Y2277315D01*
X-8701411Y2250973D01*
X-8701342Y2247527D01*
X-8701197Y2223866D01*
X-8701196Y2223858D01*
X-8701169Y2219388D01*
X-8700507Y2214958D01*
X-8700185Y2210800D01*
X-8699880Y2205297D01*
X-8696408Y2101761D01*
X-8696609Y2093224D01*
X-8696623Y2088914D01*
X-8697014Y2084071D01*
X-8696655Y2079226D01*
X-8696655Y2079225D01*
X-8695012Y2057051D01*
X-8694739Y2051966D01*
X-8693938Y2028070D01*
X-8693153Y2023649D01*
X-8693054Y2022709D01*
X-8691622Y2011300D01*
X-8685853Y1933428D01*
X-8685727Y1925729D01*
X-8685710Y1925730D01*
X-8685536Y1920874D01*
X-8685737Y1916005D01*
X-8683836Y1899269D01*
X-8682636Y1888699D01*
X-8682176Y1883792D01*
X-8680707Y1863972D01*
X-8680706Y1863963D01*
X-8680375Y1859500D01*
X-8679416Y1855134D01*
X-8679120Y1853105D01*
X-8677456Y1843087D01*
X-8676549Y1835104D01*
X-8673541Y1808620D01*
X-8672743Y1795750D01*
X-8672667Y1788648D01*
X-8671869Y1783858D01*
X-8671868Y1783850D01*
X-8668825Y1765591D01*
X-8667916Y1759099D01*
X-8666600Y1747515D01*
X-8665636Y1739024D01*
X-8664504Y1734688D01*
X-8663644Y1731392D01*
X-8661274Y1720284D01*
X-8591574Y1302048D01*
X-8590443Y1293445D01*
X-8588710Y1275495D01*
X-8585579Y1263268D01*
X-8583355Y1252730D01*
X-8581795Y1243368D01*
X-8580442Y1239106D01*
X-8580440Y1239097D01*
X-8576077Y1225354D01*
X-8574114Y1218502D01*
X-8561195Y1168061D01*
X-8467800Y803395D01*
X-8465919Y794818D01*
X-8463597Y782131D01*
X-8463595Y782124D01*
X-8462719Y777336D01*
X-8461117Y772742D01*
X-8458473Y765158D01*
X-8455390Y754940D01*
X-8452970Y745492D01*
X-8451253Y741351D01*
X-8451252Y741347D01*
X-8445850Y728317D01*
X-8443271Y721555D01*
X-8397816Y591172D01*
X-8303836Y321602D01*
X-8301205Y313101D01*
X-8296635Y296249D01*
X-8294653Y291803D01*
X-8294653Y291802D01*
X-8291268Y284207D01*
X-8287384Y274409D01*
X-8284073Y264913D01*
X-8282017Y260942D01*
X-8282012Y260930D01*
X-8275656Y248653D01*
X-8272466Y242023D01*
X-8101629Y-141256D01*
X-8098261Y-149599D01*
X-8092405Y-165751D01*
X-8086357Y-176762D01*
X-8085931Y-177537D01*
X-8081287Y-186892D01*
X-8077082Y-196326D01*
X-8074690Y-200128D01*
X-8067480Y-211589D01*
X-8063696Y-218019D01*
X-8004098Y-326522D01*
X-7863118Y-583192D01*
X-7859031Y-591314D01*
X-7851967Y-606712D01*
X-7849281Y-610771D01*
X-7844420Y-618118D01*
X-7839064Y-626984D01*
X-7833981Y-636238D01*
X-7831291Y-639817D01*
X-7823285Y-650469D01*
X-7818929Y-656642D01*
X-7590215Y-1002294D01*
X-7585442Y-1010111D01*
X-7582927Y-1014587D01*
X-7577233Y-1024724D01*
X-7574219Y-1028557D01*
X-7568668Y-1035618D01*
X-7562644Y-1043960D01*
X-7556727Y-1052903D01*
X-7550615Y-1059777D01*
X-7545024Y-1066065D01*
X-7540135Y-1071910D01*
X-7302973Y-1373565D01*
X-7284823Y-1396651D01*
X-7279413Y-1404075D01*
X-7270096Y-1417893D01*
X-7266786Y-1421462D01*
X-7266785Y-1421464D01*
X-7260605Y-1428129D01*
X-7253951Y-1435918D01*
X-7250029Y-1440906D01*
X-7247257Y-1444432D01*
X-7234571Y-1456544D01*
X-7229222Y-1461973D01*
X-7030107Y-1676705D01*
X-6948818Y-1764370D01*
X-6942807Y-1771347D01*
X-6932417Y-1784339D01*
X-6922109Y-1793785D01*
X-6914860Y-1800992D01*
X-6907475Y-1808956D01*
X-6903995Y-1811775D01*
X-6893872Y-1819976D01*
X-6888063Y-1824983D01*
X-6584045Y-2103568D01*
X-6577507Y-2110013D01*
X-6569386Y-2118624D01*
X-6569376Y-2118633D01*
X-6566044Y-2122166D01*
X-6562207Y-2125145D01*
X-6562202Y-2125150D01*
X-6555051Y-2130703D01*
X-6547211Y-2137320D01*
X-6539256Y-2144609D01*
X-6524750Y-2154523D01*
X-6518578Y-2159022D01*
X-6397326Y-2253172D01*
X-6195655Y-2409765D01*
X-6192339Y-2412340D01*
X-6185355Y-2418180D01*
X-6172814Y-2429464D01*
X-6161274Y-2436996D01*
X-6152881Y-2442978D01*
X-6144466Y-2449512D01*
X-6140581Y-2451726D01*
X-6140578Y-2451728D01*
X-6135478Y-2454634D01*
X-6131215Y-2457063D01*
X-6129085Y-2458277D01*
X-6122610Y-2462230D01*
X-5775546Y-2688752D01*
X-5768161Y-2693959D01*
X-5754572Y-2704291D01*
X-5750294Y-2706604D01*
X-5750292Y-2706605D01*
X-5742652Y-2710735D01*
X-5733704Y-2716062D01*
X-5728713Y-2719319D01*
X-5724962Y-2721767D01*
X-5708705Y-2729341D01*
X-5702018Y-2732704D01*
X-5599009Y-2788393D01*
X-5335521Y-2930843D01*
X-5327813Y-2935371D01*
X-5317297Y-2942061D01*
X-5317292Y-2942063D01*
X-5313189Y-2944674D01*
X-5308733Y-2946622D01*
X-5301000Y-2950003D01*
X-5291561Y-2954608D01*
X-5282611Y-2959447D01*
X-5278401Y-2961000D01*
X-5278394Y-2961003D01*
X-5265536Y-2965746D01*
X-5258666Y-2968512D01*
X-4874166Y-3136618D01*
X-4866208Y-3140434D01*
X-4854880Y-3146364D01*
X-4854876Y-3146366D01*
X-4850575Y-3148617D01*
X-4838254Y-3152807D01*
X-4828361Y-3156644D01*
X-4819313Y-3160600D01*
X-4814989Y-3161796D01*
X-4814987Y-3161797D01*
X-4801481Y-3165534D01*
X-4794519Y-3167679D01*
X-4393406Y-3304074D01*
X-4385264Y-3307160D01*
X-4373192Y-3312220D01*
X-4373189Y-3312221D01*
X-4368706Y-3314100D01*
X-4356377Y-3317149D01*
X-4346072Y-3320170D01*
X-4341255Y-3321808D01*
X-4341244Y-3321811D01*
X-4337006Y-3323252D01*
X-4332611Y-3324077D01*
X-4332603Y-3324079D01*
X-4318518Y-3326722D01*
X-4311514Y-3328244D01*
X-3895253Y-3431191D01*
X-3886987Y-3433537D01*
X-3869630Y-3439110D01*
X-3857369Y-3441042D01*
X-3846733Y-3443190D01*
X-3837704Y-3445423D01*
X-3818685Y-3447335D01*
X-3811689Y-3448237D01*
X-3387329Y-3515084D01*
X-3376805Y-3517205D01*
X-3369229Y-3519071D01*
X-3369226Y-3519072D01*
X-3364502Y-3520235D01*
X-3359657Y-3520658D01*
X-3359656Y-3520658D01*
X-3346698Y-3521789D01*
X-3338049Y-3522847D01*
X-3327921Y-3524442D01*
X-3327919Y-3524442D01*
X-3323483Y-3525141D01*
X-3319001Y-3525204D01*
X-3318998Y-3525204D01*
X-3310006Y-3525330D01*
X-3300822Y-3525795D01*
X-3290919Y-3526659D01*
X-3284076Y-3527670D01*
X-3284062Y-3527562D01*
X-3279236Y-3528189D01*
X-3274476Y-3529186D01*
X-3269627Y-3529438D01*
X-3269621Y-3529439D01*
X-3251479Y-3530382D01*
X-3245726Y-3530682D01*
X-3241338Y-3530987D01*
X-3215787Y-3533217D01*
X-3211307Y-3532970D01*
X-3206835Y-3533041D01*
X-3206836Y-3533074D01*
X-3199918Y-3533064D01*
X-3170200Y-3534609D01*
X-3103210Y-3558121D01*
X-3059565Y-3614118D01*
X-3053124Y-3684822D01*
X-3087647Y-3749534D01*
X-3749889Y-4411775D01*
X-4181840Y-4843726D01*
X-4244152Y-4877752D01*
X-4303547Y-4876337D01*
X-4337278Y-4867299D01*
X-4337284Y-4867298D01*
X-4342598Y-4865874D01*
X-4564061Y-4846499D01*
X-4785524Y-4865874D01*
X-4894842Y-4895166D01*
X-4994947Y-4921989D01*
X-4994949Y-4921990D01*
X-5000257Y-4923412D01*
X-5005238Y-4925734D01*
X-5005239Y-4925735D01*
X-5196750Y-5015038D01*
X-5196755Y-5015041D01*
X-5201737Y-5017364D01*
X-5206244Y-5020520D01*
X-5206246Y-5020521D01*
X-5379331Y-5141716D01*
X-5379334Y-5141718D01*
X-5383842Y-5144875D01*
X-5541038Y-5302071D01*
X-5544195Y-5306579D01*
X-5544197Y-5306582D01*
X-5665392Y-5479667D01*
X-5668549Y-5484176D01*
X-5670872Y-5489158D01*
X-5670875Y-5489163D01*
X-5745255Y-5648671D01*
X-5762501Y-5685656D01*
X-5820039Y-5900389D01*
X-5839414Y-6121852D01*
X-5820039Y-6343315D01*
X-5762501Y-6558048D01*
X-5760179Y-6563029D01*
X-5760178Y-6563030D01*
X-5700801Y-6690363D01*
X-5690140Y-6760554D01*
X-5719120Y-6825367D01*
X-5778539Y-6864224D01*
X-5785421Y-6865865D01*
X-5785524Y-6865874D01*
X-5786046Y-6866014D01*
X-5994947Y-6921989D01*
X-5994949Y-6921990D01*
X-6000257Y-6923412D01*
X-6005238Y-6925734D01*
X-6005239Y-6925735D01*
X-6196750Y-7015038D01*
X-6196755Y-7015041D01*
X-6201737Y-7017364D01*
X-6206244Y-7020520D01*
X-6206246Y-7020521D01*
X-6379331Y-7141716D01*
X-6379334Y-7141718D01*
X-6383842Y-7144875D01*
X-6541038Y-7302071D01*
X-6544195Y-7306579D01*
X-6544197Y-7306582D01*
X-6665392Y-7479667D01*
X-6668549Y-7484176D01*
X-6670872Y-7489158D01*
X-6670875Y-7489163D01*
X-6760178Y-7680674D01*
X-6762501Y-7685656D01*
X-6820039Y-7900389D01*
X-6839414Y-8121852D01*
X-6820039Y-8343315D01*
X-6814323Y-8364647D01*
X-6768713Y-8534863D01*
X-6762501Y-8558048D01*
X-6760179Y-8563029D01*
X-6760178Y-8563030D01*
X-6670875Y-8754541D01*
X-6670872Y-8754546D01*
X-6668549Y-8759528D01*
X-6665393Y-8764035D01*
X-6665392Y-8764037D01*
X-6583856Y-8880482D01*
X-6541038Y-8941633D01*
X-6383842Y-9098829D01*
X-6379334Y-9101986D01*
X-6379331Y-9101988D01*
X-6327339Y-9138393D01*
X-6201738Y-9226340D01*
X-6196756Y-9228663D01*
X-6196751Y-9228666D01*
X-6058678Y-9293050D01*
X-6000257Y-9320292D01*
X-5994949Y-9321714D01*
X-5994947Y-9321715D01*
X-5935880Y-9337542D01*
X-5785524Y-9377830D01*
X-5564061Y-9397205D01*
X-5342598Y-9377830D01*
X-5324221Y-9372906D01*
X-5303545Y-9367366D01*
X-5232568Y-9369056D01*
X-5181839Y-9399978D01*
X-3789565Y-10792253D01*
X-3782025Y-10800539D01*
X-3777913Y-10807018D01*
X-3772136Y-10812443D01*
X-3728262Y-10853643D01*
X-3725420Y-10856398D01*
X-3705683Y-10876135D01*
X-3702486Y-10878615D01*
X-3693466Y-10886318D01*
X-3661234Y-10916586D01*
X-3654288Y-10920405D01*
X-3654285Y-10920407D01*
X-3643479Y-10926348D01*
X-3626960Y-10937199D01*
X-3610954Y-10949614D01*
X-3603685Y-10952759D01*
X-3603681Y-10952762D01*
X-3570376Y-10967174D01*
X-3559726Y-10972391D01*
X-3520973Y-10993695D01*
X-3513298Y-10995666D01*
X-3513297Y-10995666D01*
X-3501351Y-10998733D01*
X-3482646Y-11005137D01*
X-3464058Y-11013181D01*
X-3456235Y-11014420D01*
X-3456225Y-11014423D01*
X-3420389Y-11020099D01*
X-3408769Y-11022505D01*
X-3376954Y-11030673D01*
X-3365943Y-11033500D01*
X-3345689Y-11033500D01*
X-3325979Y-11035051D01*
X-3305970Y-11038220D01*
X-3298078Y-11037474D01*
X-3279333Y-11035702D01*
X-3261951Y-11034059D01*
X-3250094Y-11033500D01*
X5956233Y-11033500D01*
X5967416Y-11034027D01*
X5974909Y-11035702D01*
X5982835Y-11035453D01*
X5982836Y-11035453D01*
X6042986Y-11033562D01*
X6046945Y-11033500D01*
X6074856Y-11033500D01*
X6078791Y-11033003D01*
X6078856Y-11032995D01*
X6090693Y-11032062D01*
X6122951Y-11031048D01*
X6126970Y-11030922D01*
X6134889Y-11030673D01*
X6154343Y-11025021D01*
X6173700Y-11021013D01*
X6185930Y-11019468D01*
X6185931Y-11019468D01*
X6193797Y-11018474D01*
X6201168Y-11015555D01*
X6201170Y-11015555D01*
X6234912Y-11002196D01*
X6246142Y-10998351D01*
X6280983Y-10988229D01*
X6280984Y-10988229D01*
X6288593Y-10986018D01*
X6295412Y-10981985D01*
X6295417Y-10981983D01*
X6306028Y-10975707D01*
X6323776Y-10967012D01*
X6342617Y-10959552D01*
X6378387Y-10933564D01*
X6388307Y-10927048D01*
X6419535Y-10908580D01*
X6419538Y-10908578D01*
X6426362Y-10904542D01*
X6440683Y-10890221D01*
X6455717Y-10877380D01*
X6461290Y-10873331D01*
X6472107Y-10865472D01*
X6500298Y-10831395D01*
X6508288Y-10822616D01*
X9761460Y-7569445D01*
X9823772Y-7535419D01*
X9850555Y-7532540D01*
X17473846Y-7532540D01*
X17541967Y-7552542D01*
X17562941Y-7569444D01*
X18785753Y-8792254D01*
X18793291Y-8800538D01*
X18797403Y-8807018D01*
X18824504Y-8832467D01*
X18847070Y-8853658D01*
X18849912Y-8856413D01*
X18869634Y-8876135D01*
X18872758Y-8878558D01*
X18872762Y-8878562D01*
X18872827Y-8878612D01*
X18881848Y-8886317D01*
X18914082Y-8916586D01*
X18921030Y-8920405D01*
X18921032Y-8920407D01*
X18931835Y-8926346D01*
X18948362Y-8937202D01*
X18958101Y-8944757D01*
X18958103Y-8944758D01*
X18964363Y-8949614D01*
X19004943Y-8967174D01*
X19015591Y-8972391D01*
X19054343Y-8993695D01*
X19062019Y-8995666D01*
X19062022Y-8995667D01*
X19073965Y-8998733D01*
X19092670Y-9005137D01*
X19111258Y-9013181D01*
X19119081Y-9014420D01*
X19119091Y-9014423D01*
X19154927Y-9020099D01*
X19166547Y-9022505D01*
X19201692Y-9031528D01*
X19209373Y-9033500D01*
X19229627Y-9033500D01*
X19249337Y-9035051D01*
X19269346Y-9038220D01*
X19277238Y-9037474D01*
X19313364Y-9034059D01*
X19325222Y-9033500D01*
X22485406Y-9033500D01*
X22553527Y-9053502D01*
X22574501Y-9070405D01*
X24086343Y-10582247D01*
X24093887Y-10590537D01*
X24098000Y-10597018D01*
X24103777Y-10602443D01*
X24147667Y-10643658D01*
X24150509Y-10646413D01*
X24170230Y-10666134D01*
X24173425Y-10668612D01*
X24182447Y-10676318D01*
X24214679Y-10706586D01*
X24221628Y-10710406D01*
X24232432Y-10716346D01*
X24248956Y-10727199D01*
X24264959Y-10739613D01*
X24305543Y-10757176D01*
X24316173Y-10762383D01*
X24354940Y-10783695D01*
X24362617Y-10785666D01*
X24362622Y-10785668D01*
X24374558Y-10788732D01*
X24393266Y-10795137D01*
X24411855Y-10803181D01*
X24419683Y-10804421D01*
X24419690Y-10804423D01*
X24455524Y-10810099D01*
X24467144Y-10812505D01*
X24502289Y-10821528D01*
X24509970Y-10823500D01*
X24530224Y-10823500D01*
X24549934Y-10825051D01*
X24569943Y-10828220D01*
X24577835Y-10827474D01*
X24613961Y-10824059D01*
X24625819Y-10823500D01*
X26354284Y-10823500D01*
X26422405Y-10843502D01*
X26453029Y-10871235D01*
X26471035Y-10893953D01*
X26475728Y-10897947D01*
X26475729Y-10897948D01*
X26598725Y-11002625D01*
X26621650Y-11022136D01*
X26794294Y-11118624D01*
X26982392Y-11179740D01*
X27178777Y-11203158D01*
X27184912Y-11202686D01*
X27184914Y-11202686D01*
X27369830Y-11188457D01*
X27369834Y-11188456D01*
X27375972Y-11187984D01*
X27566463Y-11134798D01*
X27571967Y-11132018D01*
X27571969Y-11132017D01*
X27737495Y-11048404D01*
X27737497Y-11048403D01*
X27742996Y-11045625D01*
X27898847Y-10923861D01*
X28007057Y-10798498D01*
X28024049Y-10778813D01*
X28024050Y-10778811D01*
X28028078Y-10774145D01*
X28125769Y-10602179D01*
X28188197Y-10414513D01*
X28212985Y-10218295D01*
X28213380Y-10190000D01*
X28194080Y-9993167D01*
X28136916Y-9803831D01*
X28044066Y-9629204D01*
X28040167Y-9624424D01*
X28039715Y-9623743D01*
X28018676Y-9555935D01*
X28035105Y-9491775D01*
X28122723Y-9337542D01*
X28122725Y-9337537D01*
X28125769Y-9332179D01*
X28188197Y-9144513D01*
X28212985Y-8948295D01*
X28213225Y-8931122D01*
X28213331Y-8923523D01*
X28213331Y-8923520D01*
X28213380Y-8920000D01*
X28194080Y-8723167D01*
X28136916Y-8533831D01*
X28044066Y-8359204D01*
X28040167Y-8354424D01*
X28039715Y-8353743D01*
X28018676Y-8285935D01*
X28035105Y-8221775D01*
X28122723Y-8067542D01*
X28122725Y-8067537D01*
X28125769Y-8062179D01*
X28188197Y-7874513D01*
X28212985Y-7678295D01*
X28213380Y-7650000D01*
X28194080Y-7453167D01*
X28136916Y-7263831D01*
X28044066Y-7089204D01*
X28040167Y-7084424D01*
X28039715Y-7083743D01*
X28018676Y-7015935D01*
X28035105Y-6951775D01*
X28041947Y-6939732D01*
X28083904Y-6865874D01*
X28122723Y-6797542D01*
X28122725Y-6797537D01*
X28125769Y-6792179D01*
X28188197Y-6604513D01*
X28212985Y-6408295D01*
X28213380Y-6380000D01*
X28194080Y-6183167D01*
X28136916Y-5993831D01*
X28044066Y-5819204D01*
X28040167Y-5814424D01*
X28039715Y-5813743D01*
X28018676Y-5745935D01*
X28035105Y-5681775D01*
X28035731Y-5680674D01*
X28113561Y-5543669D01*
X28122723Y-5527542D01*
X28122725Y-5527537D01*
X28125769Y-5522179D01*
X28188197Y-5334513D01*
X28212985Y-5138295D01*
X28213380Y-5110000D01*
X28194080Y-4913167D01*
X28173115Y-4843726D01*
X28138697Y-4729731D01*
X28136916Y-4723831D01*
X28044066Y-4549204D01*
X28040167Y-4544424D01*
X28039715Y-4543743D01*
X28018676Y-4475935D01*
X28035105Y-4411775D01*
X28122723Y-4257542D01*
X28122725Y-4257537D01*
X28125769Y-4252179D01*
X28188197Y-4064513D01*
X28212985Y-3868295D01*
X28213380Y-3840000D01*
X28194080Y-3643167D01*
X28180650Y-3598683D01*
X28159177Y-3527562D01*
X28136916Y-3453831D01*
X28044066Y-3279204D01*
X28040167Y-3274424D01*
X28039715Y-3273743D01*
X28018676Y-3205935D01*
X28035105Y-3141775D01*
X28044408Y-3125400D01*
X28080231Y-3062340D01*
X28122723Y-2987542D01*
X28122725Y-2987537D01*
X28125769Y-2982179D01*
X28188197Y-2794513D01*
X28212985Y-2598295D01*
X28213380Y-2570000D01*
X28194080Y-2373167D01*
X28177675Y-2318829D01*
X28138699Y-2189736D01*
X28138698Y-2189734D01*
X28136916Y-2183831D01*
X28134022Y-2178387D01*
X28131973Y-2173417D01*
X28124509Y-2102814D01*
X28142145Y-2062429D01*
X28140479Y-2061517D01*
X28153323Y-2038058D01*
X28198478Y-1917606D01*
X28202105Y-1902351D01*
X28207631Y-1851486D01*
X28208000Y-1844672D01*
X28208000Y-1572115D01*
X28203525Y-1556876D01*
X28202135Y-1555671D01*
X28194452Y-1554000D01*
X26210116Y-1554000D01*
X26194877Y-1558475D01*
X26193672Y-1559865D01*
X26192001Y-1567548D01*
X26192001Y-1810500D01*
X26171999Y-1878621D01*
X26118343Y-1925114D01*
X26066001Y-1936500D01*
X20924695Y-1936500D01*
X20856574Y-1916498D01*
X20815576Y-1873500D01*
X20784674Y-1819976D01*
X20739040Y-1740936D01*
X20665863Y-1659665D01*
X20635147Y-1595659D01*
X20633500Y-1575356D01*
X20633500Y-1027885D01*
X26192000Y-1027885D01*
X26196475Y-1043124D01*
X26197865Y-1044329D01*
X26205548Y-1046000D01*
X26927885Y-1046000D01*
X26943124Y-1041525D01*
X26944329Y-1040135D01*
X26946000Y-1032452D01*
X26946000Y-1027885D01*
X27454000Y-1027885D01*
X27458475Y-1043124D01*
X27459865Y-1044329D01*
X27467548Y-1046000D01*
X28189884Y-1046000D01*
X28205123Y-1041525D01*
X28206328Y-1040135D01*
X28207999Y-1032452D01*
X28207999Y-755331D01*
X28207629Y-748510D01*
X28202105Y-697648D01*
X28198479Y-682396D01*
X28153324Y-561946D01*
X28144786Y-546351D01*
X28068285Y-444276D01*
X28055724Y-431715D01*
X27953649Y-355214D01*
X27938054Y-346676D01*
X27817606Y-301522D01*
X27802351Y-297895D01*
X27751486Y-292369D01*
X27744672Y-292000D01*
X27472115Y-292000D01*
X27456876Y-296475D01*
X27455671Y-297865D01*
X27454000Y-305548D01*
X27454000Y-1027885D01*
X26946000Y-1027885D01*
X26946000Y-310116D01*
X26941525Y-294877D01*
X26940135Y-293672D01*
X26932452Y-292001D01*
X26655331Y-292001D01*
X26648510Y-292371D01*
X26597648Y-297895D01*
X26582396Y-301521D01*
X26461946Y-346676D01*
X26446351Y-355214D01*
X26344276Y-431715D01*
X26331715Y-444276D01*
X26255214Y-546351D01*
X26246676Y-561946D01*
X26201522Y-682394D01*
X26197895Y-697649D01*
X26192369Y-748514D01*
X26192000Y-755328D01*
X26192000Y-1027885D01*
X20633500Y-1027885D01*
X20633500Y1492775D01*
X20653502Y1560896D01*
X20694229Y1600551D01*
X20708880Y1609424D01*
X20715381Y1613361D01*
X20836639Y1734619D01*
X20925472Y1881301D01*
X20927791Y1888699D01*
X20974752Y2038554D01*
X20976753Y2044938D01*
X20983500Y2118365D01*
X20983499Y2631634D01*
X20982925Y2637889D01*
X20979273Y2677631D01*
X20976753Y2705062D01*
X20954664Y2775547D01*
X20927744Y2861450D01*
X20927743Y2861452D01*
X20925472Y2868699D01*
X20836639Y3015381D01*
X20740761Y3111259D01*
X20706735Y3173571D01*
X20711800Y3244386D01*
X20740761Y3289449D01*
X20830869Y3379557D01*
X20840176Y3391426D01*
X20921079Y3525012D01*
X20927285Y3538757D01*
X20974256Y3688644D01*
X20976869Y3701694D01*
X20981913Y3756586D01*
X20978525Y3768124D01*
X20977135Y3769329D01*
X20969452Y3771000D01*
X19041114Y3771000D01*
X19025875Y3766526D01*
X19024110Y3764488D01*
X18964384Y3726104D01*
X18928885Y3721000D01*
X17871999Y3721000D01*
X17803878Y3741002D01*
X17757385Y3794658D01*
X17745999Y3847000D01*
X17745999Y4103000D01*
X17766001Y4171121D01*
X17819657Y4217614D01*
X17871999Y4229000D01*
X18958885Y4229000D01*
X18974124Y4233474D01*
X18975889Y4235512D01*
X19035615Y4273896D01*
X19071114Y4279000D01*
X19727885Y4279000D01*
X19743124Y4283475D01*
X19744329Y4284865D01*
X19746000Y4292548D01*
X19746000Y4297115D01*
X20254000Y4297115D01*
X20258475Y4281876D01*
X20259865Y4280671D01*
X20267548Y4279000D01*
X20964884Y4279000D01*
X20980123Y4283475D01*
X20981328Y4284865D01*
X20982291Y4289294D01*
X20977251Y4344149D01*
X26186719Y4344149D01*
X26187235Y4338005D01*
X26200760Y4176938D01*
X26203268Y4147066D01*
X26204967Y4141142D01*
X26255762Y3963999D01*
X26257783Y3956950D01*
X26260602Y3951465D01*
X26333806Y3809027D01*
X26348187Y3781044D01*
X26471035Y3626047D01*
X26475728Y3622053D01*
X26475729Y3622052D01*
X26613712Y3504620D01*
X26621650Y3497864D01*
X26794294Y3401376D01*
X26982392Y3340260D01*
X27178777Y3316842D01*
X27184912Y3317314D01*
X27184914Y3317314D01*
X27369830Y3331543D01*
X27369834Y3331544D01*
X27375972Y3332016D01*
X27566463Y3385202D01*
X27571967Y3387982D01*
X27571969Y3387983D01*
X27737495Y3471596D01*
X27737497Y3471597D01*
X27742996Y3474375D01*
X27898847Y3596139D01*
X28010934Y3725993D01*
X28024049Y3741187D01*
X28024050Y3741189D01*
X28028078Y3745855D01*
X28125769Y3917821D01*
X28188197Y4105487D01*
X28212985Y4301705D01*
X28213380Y4330000D01*
X28194080Y4526833D01*
X28191623Y4534973D01*
X28160984Y4636453D01*
X28136916Y4716169D01*
X28134024Y4721609D01*
X28132195Y4726046D01*
X28124731Y4796650D01*
X28142512Y4837369D01*
X28140921Y4838240D01*
X28145229Y4846109D01*
X28150615Y4853295D01*
X28201745Y4989684D01*
X28208500Y5051866D01*
X28208500Y6148134D01*
X28201745Y6210316D01*
X28150615Y6346705D01*
X28063261Y6463261D01*
X27946705Y6550615D01*
X27810316Y6601745D01*
X27748134Y6608500D01*
X26651866Y6608500D01*
X26589684Y6601745D01*
X26453295Y6550615D01*
X26336739Y6463261D01*
X26249385Y6346705D01*
X26198255Y6210316D01*
X26191500Y6148134D01*
X26191500Y5051866D01*
X26198255Y4989684D01*
X26249385Y4853295D01*
X26254771Y4846108D01*
X26259079Y4838240D01*
X26256858Y4837024D01*
X26277013Y4783090D01*
X26267993Y4729395D01*
X26268567Y4729213D01*
X26266706Y4723346D01*
X26266705Y4723344D01*
X26251543Y4675547D01*
X26208765Y4540694D01*
X26186719Y4344149D01*
X20977251Y4344149D01*
X20976868Y4348315D01*
X20974257Y4361351D01*
X20927285Y4511243D01*
X20921079Y4524988D01*
X20840176Y4658574D01*
X20830869Y4670443D01*
X20720443Y4780869D01*
X20708574Y4790176D01*
X20574988Y4871079D01*
X20561243Y4877285D01*
X20411356Y4924256D01*
X20398306Y4926869D01*
X20334479Y4932734D01*
X20328691Y4933000D01*
X20272115Y4933000D01*
X20256876Y4928525D01*
X20255671Y4927135D01*
X20254000Y4919452D01*
X20254000Y4297115D01*
X19746000Y4297115D01*
X19746000Y4914884D01*
X19741525Y4930123D01*
X19740135Y4931328D01*
X19732452Y4932999D01*
X19671295Y4932999D01*
X19665546Y4932736D01*
X19601685Y4926868D01*
X19588649Y4924257D01*
X19438757Y4877285D01*
X19425012Y4871079D01*
X19291426Y4790176D01*
X19279557Y4780869D01*
X19169131Y4670443D01*
X19159824Y4658574D01*
X19102441Y4563824D01*
X19050043Y4515918D01*
X18980064Y4503945D01*
X18914720Y4531706D01*
X18887521Y4562793D01*
X18832211Y4652173D01*
X18823175Y4663574D01*
X18712570Y4773986D01*
X18701159Y4782998D01*
X18568119Y4865004D01*
X18554938Y4871151D01*
X18406185Y4920491D01*
X18392809Y4923358D01*
X18301902Y4932672D01*
X18295485Y4933000D01*
X18158450Y4933000D01*
X18090329Y4953002D01*
X18043836Y5006658D01*
X18033732Y5076932D01*
X18063226Y5141512D01*
X18069355Y5148095D01*
X18407605Y5486345D01*
X18416385Y5494335D01*
X18416387Y5494337D01*
X18423080Y5498584D01*
X18471605Y5550258D01*
X18474359Y5553099D01*
X18494927Y5573667D01*
X18497647Y5577174D01*
X18505353Y5586196D01*
X18511222Y5592446D01*
X18536972Y5619867D01*
X18540794Y5626819D01*
X18547303Y5638658D01*
X18558157Y5655182D01*
X18566445Y5665868D01*
X18571304Y5672132D01*
X18574452Y5679406D01*
X18589654Y5714535D01*
X18594876Y5725195D01*
X18613305Y5758716D01*
X18613306Y5758718D01*
X18617124Y5765663D01*
X18622459Y5786441D01*
X18628858Y5805131D01*
X18637380Y5824824D01*
X18644606Y5870448D01*
X18647013Y5882071D01*
X18654804Y5912417D01*
X18658500Y5926812D01*
X18658500Y5948259D01*
X18660051Y5967969D01*
X18661618Y5977865D01*
X18663406Y5989152D01*
X18664491Y5988980D01*
X18684320Y6049414D01*
X18698069Y6065531D01*
X18698847Y6066139D01*
X18702873Y6070803D01*
X18703558Y6071455D01*
X18703966Y6071814D01*
X18704080Y6071926D01*
X18705627Y6073425D01*
X18705730Y6073523D01*
X18706083Y6073900D01*
X18706770Y6074578D01*
X18711548Y6078447D01*
X18722545Y6091645D01*
X18768511Y6146816D01*
X18769933Y6148493D01*
X18824052Y6211190D01*
X18824055Y6211194D01*
X18828078Y6215855D01*
X18831123Y6221216D01*
X18831656Y6221971D01*
X18831990Y6222406D01*
X18832064Y6222515D01*
X18833336Y6224352D01*
X18833388Y6224426D01*
X18833672Y6224882D01*
X18834199Y6225658D01*
X18838147Y6230396D01*
X18880772Y6308574D01*
X18881821Y6310459D01*
X18883318Y6313093D01*
X18918834Y6375613D01*
X18922724Y6382460D01*
X18922726Y6382464D01*
X18925769Y6387821D01*
X18927714Y6393667D01*
X18928091Y6394515D01*
X18928330Y6394999D01*
X18928387Y6395133D01*
X18929285Y6397199D01*
X18929323Y6397284D01*
X18929505Y6397766D01*
X18929871Y6398627D01*
X18932822Y6404040D01*
X18935130Y6411402D01*
X18959429Y6488943D01*
X18960104Y6491035D01*
X18986255Y6569648D01*
X18986256Y6569651D01*
X18988197Y6575487D01*
X18988968Y6581592D01*
X18989180Y6582523D01*
X18989317Y6583031D01*
X18989339Y6583137D01*
X18989811Y6585305D01*
X18989842Y6585442D01*
X18989930Y6585966D01*
X18990123Y6586888D01*
X18991965Y6592768D01*
X19001583Y6681304D01*
X19001835Y6683450D01*
X19007026Y6724533D01*
X19012484Y6767739D01*
X19012543Y6768205D01*
X19012543Y6768208D01*
X19012985Y6771705D01*
X19013218Y6788404D01*
X19013325Y6789388D01*
X19013245Y6790306D01*
X19013380Y6800000D01*
X19004307Y6892528D01*
X19004192Y6893769D01*
X19002549Y6912554D01*
X18996087Y6986413D01*
X18994600Y6991532D01*
X18994080Y6996833D01*
X18967191Y7085897D01*
X18966887Y7086920D01*
X18963503Y7098568D01*
X18958500Y7133720D01*
X18958500Y7770628D01*
X18959237Y7784236D01*
X18962659Y7815732D01*
X18962659Y7815736D01*
X18963324Y7821857D01*
X18958950Y7871859D01*
X18958621Y7876684D01*
X18958500Y7879155D01*
X18958500Y7882237D01*
X18956297Y7904705D01*
X18954309Y7924979D01*
X18954187Y7926294D01*
X18950018Y7973949D01*
X18946087Y8018881D01*
X18944600Y8024000D01*
X18944080Y8029301D01*
X18930906Y8072936D01*
X18930365Y8143928D01*
X18968292Y8203945D01*
X19022521Y8230714D01*
X19022313Y8231400D01*
X19111314Y8258271D01*
X19112447Y8258606D01*
X19195894Y8282850D01*
X19195898Y8282852D01*
X19201816Y8284571D01*
X19206548Y8287024D01*
X19211649Y8288564D01*
X19239921Y8303596D01*
X19293740Y8332211D01*
X19294906Y8332823D01*
X19371933Y8372751D01*
X19377406Y8375588D01*
X19381569Y8378911D01*
X19386276Y8381414D01*
X19458398Y8440235D01*
X19459254Y8440926D01*
X19498453Y8472218D01*
X19500957Y8474722D01*
X19501675Y8475364D01*
X19506008Y8479065D01*
X19539542Y8506415D01*
X19568768Y8541743D01*
X19576757Y8550522D01*
X21415322Y10389087D01*
X21471806Y10421699D01*
X21609596Y10458620D01*
X21609597Y10458620D01*
X21614910Y10460044D01*
X21738674Y10517756D01*
X21801577Y10547088D01*
X21801580Y10547090D01*
X21806558Y10549411D01*
X21858440Y10585739D01*
X23090294Y10585739D01*
X23099590Y10573724D01*
X23129189Y10552999D01*
X23138677Y10547521D01*
X23320277Y10462841D01*
X23330571Y10459093D01*
X23524122Y10407231D01*
X23534909Y10405329D01*
X23734525Y10387865D01*
X23745475Y10387865D01*
X23945091Y10405329D01*
X23955878Y10407231D01*
X24149429Y10459093D01*
X24159723Y10462841D01*
X24341323Y10547521D01*
X24350811Y10552999D01*
X24381248Y10574311D01*
X24389623Y10584788D01*
X24382554Y10598236D01*
X23752812Y11227978D01*
X23738868Y11235592D01*
X23737035Y11235461D01*
X23730420Y11231210D01*
X23096724Y10597514D01*
X23090294Y10585739D01*
X21858440Y10585739D01*
X21979776Y10670699D01*
X22129301Y10820224D01*
X22250589Y10993442D01*
X22253325Y10999308D01*
X22337633Y11180108D01*
X22337634Y11180109D01*
X22339956Y11185090D01*
X22341378Y11190397D01*
X22341382Y11190408D01*
X22348553Y11217171D01*
X22385504Y11277793D01*
X22449365Y11308815D01*
X22519860Y11300386D01*
X22574606Y11255182D01*
X22591966Y11217170D01*
X22599092Y11190574D01*
X22602841Y11180277D01*
X22687521Y10998677D01*
X22692999Y10989189D01*
X22714311Y10958752D01*
X22724788Y10950377D01*
X22738236Y10957446D01*
X23367978Y11587188D01*
X23374356Y11598868D01*
X24104408Y11598868D01*
X24104539Y11597035D01*
X24108790Y11590420D01*
X24742486Y10956724D01*
X24754261Y10950294D01*
X24766276Y10959590D01*
X24787001Y10989189D01*
X24792479Y10998677D01*
X24877159Y11180277D01*
X24880907Y11190571D01*
X24932769Y11384122D01*
X24934671Y11394909D01*
X24952135Y11594525D01*
X24952135Y11605475D01*
X24934671Y11805091D01*
X24932769Y11815878D01*
X24880907Y12009429D01*
X24877159Y12019723D01*
X24792479Y12201323D01*
X24787001Y12210811D01*
X24765689Y12241248D01*
X24755212Y12249623D01*
X24741764Y12242554D01*
X24112022Y11612812D01*
X24104408Y11598868D01*
X23374356Y11598868D01*
X23375592Y11601132D01*
X23375461Y11602965D01*
X23371210Y11609580D01*
X22737514Y12243276D01*
X22725739Y12249706D01*
X22713724Y12240410D01*
X22692999Y12210811D01*
X22687521Y12201323D01*
X22602841Y12019723D01*
X22599092Y12009426D01*
X22591966Y11982830D01*
X22555014Y11922207D01*
X22491154Y11891186D01*
X22420659Y11899614D01*
X22365912Y11944817D01*
X22348553Y11982829D01*
X22341382Y12009592D01*
X22341378Y12009603D01*
X22339956Y12014910D01*
X22336253Y12022851D01*
X22252912Y12201577D01*
X22252910Y12201580D01*
X22250589Y12206558D01*
X22129301Y12379776D01*
X21979776Y12529301D01*
X21857082Y12615212D01*
X23090377Y12615212D01*
X23097446Y12601764D01*
X23727188Y11972022D01*
X23741132Y11964408D01*
X23742965Y11964539D01*
X23749580Y11968790D01*
X24383276Y12602486D01*
X24389706Y12614261D01*
X24380410Y12626276D01*
X24350811Y12647001D01*
X24341323Y12652479D01*
X24159723Y12737159D01*
X24149429Y12740907D01*
X23955878Y12792769D01*
X23945091Y12794671D01*
X23745475Y12812135D01*
X23734525Y12812135D01*
X23534909Y12794671D01*
X23524122Y12792769D01*
X23330571Y12740907D01*
X23320277Y12737159D01*
X23138677Y12652479D01*
X23129189Y12647001D01*
X23098752Y12625689D01*
X23090377Y12615212D01*
X21857082Y12615212D01*
X21806558Y12650589D01*
X21801580Y12652910D01*
X21801577Y12652912D01*
X21619892Y12737633D01*
X21619891Y12737634D01*
X21614910Y12739956D01*
X21609602Y12741378D01*
X21609600Y12741379D01*
X21415970Y12793262D01*
X21415968Y12793262D01*
X21410655Y12794686D01*
X21200000Y12813116D01*
X20989345Y12794686D01*
X20984032Y12793262D01*
X20984030Y12793262D01*
X20790400Y12741379D01*
X20790398Y12741378D01*
X20785090Y12739956D01*
X20780109Y12737634D01*
X20780108Y12737633D01*
X20598427Y12652914D01*
X20598423Y12652912D01*
X20593442Y12650589D01*
X20588940Y12647437D01*
X20588937Y12647435D01*
X20565874Y12631286D01*
X20493604Y12608500D01*
X19619926Y12608500D01*
X19551805Y12628502D01*
X19530831Y12645404D01*
X18880192Y13296042D01*
X18849763Y13345263D01*
X18846075Y13356318D01*
X18846074Y13356320D01*
X18843756Y13363268D01*
X18753752Y13508713D01*
X18632702Y13629552D01*
X18589974Y13655890D01*
X18493331Y13715462D01*
X18493329Y13715463D01*
X18487101Y13719302D01*
X18324757Y13773149D01*
X18317920Y13773849D01*
X18317918Y13773850D01*
X18276599Y13778083D01*
X18223732Y13783500D01*
X18201471Y13783500D01*
X18164637Y13789004D01*
X18150302Y13793387D01*
X18092449Y13799264D01*
X17959666Y13812752D01*
X17959661Y13812752D01*
X17953538Y13813374D01*
X17829475Y13801646D01*
X17762771Y13795341D01*
X17762769Y13795341D01*
X17756638Y13794761D01*
X17750730Y13793000D01*
X17750731Y13793000D01*
X17736476Y13788751D01*
X17700481Y13783500D01*
X17676268Y13783500D01*
X17673022Y13783163D01*
X17673018Y13783163D01*
X17643730Y13780124D01*
X17573981Y13772887D01*
X17565963Y13770212D01*
X17418676Y13721073D01*
X17418674Y13721072D01*
X17411732Y13718756D01*
X17266287Y13628752D01*
X17261114Y13623570D01*
X17255377Y13619023D01*
X17253945Y13620830D01*
X17201425Y13592098D01*
X17130605Y13597108D01*
X17094147Y13620499D01*
X17093317Y13619448D01*
X17076160Y13632998D01*
X16943120Y13715004D01*
X16929939Y13721151D01*
X16781186Y13770491D01*
X16767810Y13773358D01*
X16676903Y13782672D01*
X16671874Y13782929D01*
X16656876Y13778525D01*
X16655671Y13777135D01*
X16654000Y13769452D01*
X16654000Y11835115D01*
X16658475Y11819876D01*
X16659865Y11818671D01*
X16667548Y11817000D01*
X16670438Y11817000D01*
X16676953Y11817337D01*
X16769057Y11826894D01*
X16782456Y11829788D01*
X16931107Y11879381D01*
X16944286Y11885555D01*
X17077173Y11967788D01*
X17094311Y11981371D01*
X17095841Y11979441D01*
X17147880Y12007903D01*
X17218699Y12002887D01*
X17255617Y11979201D01*
X17256372Y11980157D01*
X17262118Y11975619D01*
X17267298Y11970448D01*
X17273528Y11966608D01*
X17273529Y11966607D01*
X17406667Y11884539D01*
X17406670Y11884538D01*
X17412899Y11880698D01*
X17419846Y11878394D01*
X17419850Y11878392D01*
X17429718Y11875119D01*
X17479145Y11844621D01*
X18393145Y10930621D01*
X18402247Y10920478D01*
X18425968Y10890975D01*
X18464456Y10858680D01*
X18468075Y10855522D01*
X18469890Y10853876D01*
X18472075Y10851691D01*
X18474455Y10849736D01*
X18474465Y10849727D01*
X18505236Y10824451D01*
X18506251Y10823609D01*
X18577474Y10763846D01*
X18582148Y10761277D01*
X18586261Y10757898D01*
X18591696Y10754984D01*
X18661584Y10717510D01*
X18712167Y10667691D01*
X18727786Y10598434D01*
X18703482Y10531727D01*
X18691137Y10517371D01*
X18444651Y10270885D01*
X18382339Y10236859D01*
X18355556Y10233980D01*
X16614892Y10233980D01*
X16602159Y10234625D01*
X16566654Y10238232D01*
X16566649Y10238232D01*
X16560526Y10238854D01*
X16518247Y10234857D01*
X16514879Y10234539D01*
X16503021Y10233980D01*
X15731946Y10233980D01*
X15663825Y10253982D01*
X15642851Y10270884D01*
X15145405Y10768329D01*
X15111380Y10830642D01*
X15108500Y10857425D01*
X15108500Y10900400D01*
X15105866Y10925790D01*
X15098238Y10999308D01*
X15098237Y10999312D01*
X15097526Y11006166D01*
X15093036Y11019626D01*
X15043868Y11166998D01*
X15041550Y11173946D01*
X14948478Y11324348D01*
X14823303Y11449305D01*
X14752352Y11493040D01*
X14704860Y11545811D01*
X14693436Y11615883D01*
X14721710Y11681006D01*
X14752166Y11707443D01*
X14817807Y11748063D01*
X14829208Y11757099D01*
X14943739Y11871829D01*
X14952751Y11883240D01*
X15037816Y12021243D01*
X15043963Y12034424D01*
X15095138Y12188710D01*
X15098005Y12202086D01*
X15107672Y12296438D01*
X15108000Y12302855D01*
X15108000Y12504562D01*
X15442000Y12504562D01*
X15442337Y12498047D01*
X15451894Y12405943D01*
X15454788Y12392544D01*
X15504381Y12243893D01*
X15510555Y12230714D01*
X15592788Y12097827D01*
X15601824Y12086426D01*
X15712429Y11976014D01*
X15723840Y11967002D01*
X15856880Y11884996D01*
X15870061Y11878849D01*
X16018814Y11829509D01*
X16032190Y11826642D01*
X16123097Y11817328D01*
X16128126Y11817071D01*
X16143124Y11821475D01*
X16144329Y11822865D01*
X16146000Y11830548D01*
X16146000Y12527885D01*
X16141525Y12543124D01*
X16140135Y12544329D01*
X16132452Y12546000D01*
X15460115Y12546000D01*
X15444876Y12541525D01*
X15443671Y12540135D01*
X15442000Y12532452D01*
X15442000Y12504562D01*
X15108000Y12504562D01*
X15108000Y12527885D01*
X15103525Y12543124D01*
X15102135Y12544329D01*
X15094452Y12546000D01*
X13959500Y12546000D01*
X13891379Y12566002D01*
X13844886Y12619658D01*
X13833500Y12672000D01*
X13833500Y13072115D01*
X14341500Y13072115D01*
X14345975Y13056876D01*
X14347365Y13055671D01*
X14355048Y13054000D01*
X15089884Y13054000D01*
X15105123Y13058475D01*
X15106328Y13059865D01*
X15107999Y13067548D01*
X15107999Y13072115D01*
X15442000Y13072115D01*
X15446475Y13056876D01*
X15447865Y13055671D01*
X15455548Y13054000D01*
X16127885Y13054000D01*
X16143124Y13058475D01*
X16144329Y13059865D01*
X16146000Y13067548D01*
X16146000Y13764885D01*
X16141525Y13780124D01*
X16140135Y13781329D01*
X16132452Y13783000D01*
X16129562Y13783000D01*
X16123047Y13782663D01*
X16030943Y13773106D01*
X16017544Y13770212D01*
X15868893Y13720619D01*
X15855714Y13714445D01*
X15722827Y13632212D01*
X15711426Y13623176D01*
X15601014Y13512571D01*
X15592002Y13501160D01*
X15509996Y13368120D01*
X15503849Y13354939D01*
X15454509Y13206186D01*
X15451642Y13192810D01*
X15442328Y13101903D01*
X15442000Y13095487D01*
X15442000Y13072115D01*
X15107999Y13072115D01*
X15107999Y13297095D01*
X15107662Y13303614D01*
X15097743Y13399206D01*
X15094851Y13412600D01*
X15043412Y13566784D01*
X15037239Y13579962D01*
X14951937Y13717807D01*
X14942901Y13729208D01*
X14828171Y13843739D01*
X14816760Y13852751D01*
X14678757Y13937816D01*
X14665576Y13943963D01*
X14511290Y13995138D01*
X14497914Y13998005D01*
X14403562Y14007672D01*
X14397145Y14008000D01*
X14359615Y14008000D01*
X14344376Y14003525D01*
X14343171Y14002135D01*
X14341500Y13994452D01*
X14341500Y13072115D01*
X13833500Y13072115D01*
X13833500Y13989884D01*
X13829025Y14005123D01*
X13827635Y14006328D01*
X13819952Y14007999D01*
X13777905Y14007999D01*
X13771386Y14007662D01*
X13675794Y13997743D01*
X13662400Y13994851D01*
X13508216Y13943412D01*
X13495038Y13937239D01*
X13357193Y13851937D01*
X13345792Y13842901D01*
X13264570Y13761538D01*
X13202287Y13727459D01*
X13131467Y13732462D01*
X13086380Y13761383D01*
X13003488Y13844130D01*
X13003483Y13844134D01*
X12998303Y13849305D01*
X12992072Y13853146D01*
X12853968Y13938275D01*
X12853966Y13938276D01*
X12847738Y13942115D01*
X12767995Y13968564D01*
X12686389Y13995632D01*
X12686387Y13995632D01*
X12679861Y13997797D01*
X12673025Y13998497D01*
X12673022Y13998498D01*
X12629969Y14002909D01*
X12575400Y14008500D01*
X11949600Y14008500D01*
X11946354Y14008163D01*
X11946350Y14008163D01*
X11850692Y13998238D01*
X11850688Y13998237D01*
X11843834Y13997526D01*
X11837298Y13995345D01*
X11837296Y13995345D01*
X11820928Y13989884D01*
X11676054Y13941550D01*
X11525652Y13848478D01*
X11400695Y13723303D01*
X11396855Y13717073D01*
X11396854Y13717072D01*
X11319819Y13592098D01*
X11307885Y13572738D01*
X11252203Y13404861D01*
X11251503Y13398025D01*
X11251502Y13398022D01*
X11247941Y13363268D01*
X11241500Y13300400D01*
X11241500Y12299600D01*
X11241837Y12296354D01*
X11241837Y12296350D01*
X11251671Y12201577D01*
X11252474Y12193834D01*
X11254655Y12187298D01*
X11254655Y12187296D01*
X11286686Y12091287D01*
X11308450Y12026054D01*
X11401522Y11875652D01*
X11406704Y11870479D01*
X11454401Y11822865D01*
X11526697Y11750695D01*
X11532929Y11746853D01*
X11532931Y11746852D01*
X11569117Y11724546D01*
X11616610Y11671774D01*
X11629000Y11617287D01*
X11629000Y11582634D01*
X11608998Y11514513D01*
X11569304Y11475491D01*
X11525652Y11448478D01*
X11400695Y11323303D01*
X11396855Y11317073D01*
X11396854Y11317072D01*
X11341936Y11227978D01*
X11307885Y11172738D01*
X11305581Y11165791D01*
X11259120Y11025714D01*
X11252203Y11004861D01*
X11241500Y10900400D01*
X11241500Y9899600D01*
X11241837Y9896354D01*
X11241837Y9896350D01*
X11245101Y9864897D01*
X11252474Y9793834D01*
X11254655Y9787298D01*
X11254655Y9787296D01*
X11266489Y9751826D01*
X11308450Y9626054D01*
X11401522Y9475652D01*
X11406704Y9470479D01*
X11432530Y9444698D01*
X11466609Y9382416D01*
X11461606Y9311595D01*
X11432687Y9266509D01*
X11360615Y9194312D01*
X11356775Y9188082D01*
X11356774Y9188081D01*
X11329684Y9144132D01*
X11270865Y9048711D01*
X11217018Y8886367D01*
X11206667Y8785342D01*
X11206667Y8476204D01*
X11186665Y8408083D01*
X11169762Y8387109D01*
X10070247Y7287595D01*
X10061961Y7280055D01*
X10055482Y7275943D01*
X10050057Y7270166D01*
X10008857Y7226292D01*
X10006102Y7223450D01*
X9986365Y7203713D01*
X9983885Y7200516D01*
X9976182Y7191496D01*
X9945914Y7159264D01*
X9942095Y7152318D01*
X9942093Y7152315D01*
X9936152Y7141509D01*
X9925301Y7124990D01*
X9912886Y7108984D01*
X9909741Y7101715D01*
X9909738Y7101711D01*
X9895326Y7068406D01*
X9890109Y7057756D01*
X9868805Y7019003D01*
X9866834Y7011328D01*
X9866834Y7011327D01*
X9863767Y6999381D01*
X9857363Y6980677D01*
X9849319Y6962088D01*
X9848080Y6954265D01*
X9848077Y6954255D01*
X9842401Y6918419D01*
X9839995Y6906799D01*
X9836650Y6893769D01*
X9829000Y6863973D01*
X9829000Y6843719D01*
X9827449Y6824009D01*
X9824280Y6804000D01*
X9825026Y6796108D01*
X9828441Y6759982D01*
X9829000Y6748124D01*
X9829000Y6245178D01*
X9808998Y6177057D01*
X9755342Y6130564D01*
X9738153Y6124181D01*
X9694012Y6111357D01*
X9694010Y6111356D01*
X9686399Y6109145D01*
X9679572Y6105108D01*
X9679573Y6105108D01*
X9550020Y6028491D01*
X9550017Y6028489D01*
X9543193Y6024453D01*
X9425547Y5906807D01*
X9421511Y5899983D01*
X9421509Y5899980D01*
X9363672Y5802183D01*
X9340855Y5763601D01*
X9338644Y5755990D01*
X9338643Y5755988D01*
X9334351Y5741213D01*
X9294438Y5603831D01*
X9293934Y5597426D01*
X9293933Y5597421D01*
X9292064Y5573667D01*
X9291500Y5566502D01*
X9291500Y5133498D01*
X9291693Y5131050D01*
X9291693Y5131042D01*
X9293411Y5109219D01*
X9294438Y5096169D01*
X9340855Y4936399D01*
X9344889Y4929577D01*
X9347128Y4924404D01*
X9355824Y4853942D01*
X9347128Y4824326D01*
X9339107Y4805790D01*
X9300061Y4671395D01*
X9300101Y4657294D01*
X9307370Y4654000D01*
X9545158Y4654000D01*
X9609297Y4636453D01*
X9686399Y4590855D01*
X9694010Y4588644D01*
X9694012Y4588643D01*
X9738333Y4575767D01*
X9846169Y4544438D01*
X9852574Y4543934D01*
X9852579Y4543933D01*
X9881042Y4541693D01*
X9881050Y4541693D01*
X9883498Y4541500D01*
X10590500Y4541500D01*
X10658621Y4521498D01*
X10705114Y4467842D01*
X10716500Y4415500D01*
X10716500Y4384500D01*
X10696498Y4316379D01*
X10642842Y4269886D01*
X10590500Y4258500D01*
X9883498Y4258500D01*
X9881050Y4258307D01*
X9881042Y4258307D01*
X9852579Y4256067D01*
X9852574Y4256066D01*
X9846169Y4255562D01*
X9782553Y4237080D01*
X9694012Y4211357D01*
X9694010Y4211356D01*
X9686399Y4209145D01*
X9679572Y4205108D01*
X9679573Y4205108D01*
X9609297Y4163547D01*
X9545158Y4146000D01*
X9313122Y4146000D01*
X9299591Y4142027D01*
X9298456Y4134129D01*
X9339107Y3994210D01*
X9347128Y3975674D01*
X9355824Y3905212D01*
X9347128Y3875596D01*
X9344889Y3870423D01*
X9340855Y3863601D01*
X9294438Y3703831D01*
X9293934Y3697426D01*
X9293933Y3697421D01*
X9293110Y3686963D01*
X9291500Y3666502D01*
X9291500Y3233498D01*
X9291693Y3231050D01*
X9291693Y3231042D01*
X9293196Y3211955D01*
X9294438Y3196169D01*
X9340855Y3036399D01*
X9344892Y3029573D01*
X9421509Y2900020D01*
X9421511Y2900017D01*
X9425547Y2893193D01*
X9543193Y2775547D01*
X9550017Y2771511D01*
X9550020Y2771509D01*
X9640433Y2718039D01*
X9686399Y2690855D01*
X9694010Y2688644D01*
X9694012Y2688643D01*
X9757708Y2670138D01*
X9817543Y2631925D01*
X9843551Y2582465D01*
X9844026Y2578703D01*
X9846944Y2571333D01*
X9846945Y2571329D01*
X9860304Y2537588D01*
X9864149Y2526358D01*
X9872205Y2498629D01*
X9876482Y2483907D01*
X9880515Y2477088D01*
X9880517Y2477083D01*
X9886793Y2466472D01*
X9895488Y2448724D01*
X9902948Y2429883D01*
X9907610Y2423467D01*
X9907610Y2423466D01*
X9928936Y2394113D01*
X9935452Y2384193D01*
X9951318Y2357366D01*
X9957958Y2346138D01*
X9972279Y2331817D01*
X9985119Y2316784D01*
X9997028Y2300393D01*
X10031105Y2272202D01*
X10039884Y2264212D01*
X12038312Y265784D01*
X12072338Y203472D01*
X12075217Y176689D01*
X12075217Y-3029950D01*
X12074690Y-3041133D01*
X12073015Y-3048626D01*
X12073264Y-3056552D01*
X12073264Y-3056553D01*
X12075155Y-3116703D01*
X12075217Y-3120662D01*
X12075217Y-3148573D01*
X12075714Y-3152507D01*
X12075714Y-3152508D01*
X12075722Y-3152573D01*
X12076655Y-3164410D01*
X12078044Y-3208606D01*
X12083695Y-3228056D01*
X12087704Y-3247417D01*
X12090243Y-3267514D01*
X12093162Y-3274885D01*
X12093162Y-3274887D01*
X12106521Y-3308629D01*
X12110366Y-3319859D01*
X12110932Y-3321808D01*
X12122699Y-3362310D01*
X12126732Y-3369129D01*
X12126734Y-3369134D01*
X12133010Y-3379745D01*
X12141705Y-3397493D01*
X12149165Y-3416334D01*
X12153827Y-3422750D01*
X12153827Y-3422751D01*
X12175153Y-3452104D01*
X12181669Y-3462024D01*
X12195128Y-3484781D01*
X12204175Y-3500079D01*
X12218496Y-3514400D01*
X12231336Y-3529433D01*
X12243245Y-3545824D01*
X12258110Y-3558121D01*
X12277310Y-3574005D01*
X12286091Y-3581995D01*
X12506940Y-3802845D01*
X12540965Y-3865157D01*
X12535900Y-3935973D01*
X12493353Y-3992808D01*
X12426832Y-4017619D01*
X12417844Y-4017940D01*
X6237471Y-4017940D01*
X6169350Y-3997938D01*
X6148375Y-3981035D01*
X5970186Y-3802845D01*
X5786212Y-3618871D01*
X5778678Y-3610592D01*
X5774565Y-3604111D01*
X5724913Y-3557485D01*
X5722072Y-3554731D01*
X5702335Y-3534994D01*
X5699138Y-3532514D01*
X5690116Y-3524809D01*
X5679759Y-3515083D01*
X5657886Y-3494543D01*
X5650940Y-3490724D01*
X5650937Y-3490722D01*
X5640131Y-3484781D01*
X5623612Y-3473930D01*
X5623148Y-3473570D01*
X5607606Y-3461515D01*
X5600337Y-3458370D01*
X5600333Y-3458367D01*
X5567028Y-3443955D01*
X5556378Y-3438738D01*
X5517625Y-3417434D01*
X5498002Y-3412396D01*
X5479299Y-3405992D01*
X5467985Y-3401096D01*
X5467984Y-3401096D01*
X5460710Y-3397948D01*
X5452887Y-3396709D01*
X5452877Y-3396706D01*
X5417041Y-3391030D01*
X5405421Y-3388624D01*
X5370276Y-3379601D01*
X5370275Y-3379601D01*
X5362595Y-3377629D01*
X5342341Y-3377629D01*
X5322630Y-3376078D01*
X5310451Y-3374149D01*
X5302622Y-3372909D01*
X5294730Y-3373655D01*
X5258604Y-3377070D01*
X5246746Y-3377629D01*
X-370743Y-3377629D01*
X-438864Y-3357627D01*
X-485357Y-3303971D01*
X-495461Y-3233697D01*
X-465967Y-3169117D01*
X-420786Y-3135993D01*
X-203154Y-3041810D01*
X-46260Y-2973913D01*
X-38151Y-2970732D01*
X-21288Y-2964785D01*
X-10037Y-2958733D01*
X-399Y-2954066D01*
X4355Y-2952009D01*
X4366Y-2952003D01*
X8473Y-2950226D01*
X12297Y-2947878D01*
X24432Y-2940427D01*
X30675Y-2936835D01*
X284391Y-2800365D01*
X409089Y-2733292D01*
X416986Y-2729394D01*
X433084Y-2722139D01*
X443974Y-2715037D01*
X453118Y-2709610D01*
X457843Y-2707069D01*
X457851Y-2707064D01*
X461796Y-2704942D01*
X476681Y-2693957D01*
X482664Y-2689804D01*
X839534Y-2457063D01*
X847152Y-2452470D01*
X858149Y-2446358D01*
X858150Y-2446357D01*
X862404Y-2443993D01*
X872800Y-2435896D01*
X881396Y-2429762D01*
X886058Y-2426722D01*
X886070Y-2426713D01*
X889819Y-2424268D01*
X893184Y-2421316D01*
X893193Y-2421309D01*
X903586Y-2412191D01*
X909257Y-2407501D01*
X1243252Y-2147364D01*
X1250510Y-2142115D01*
X1260840Y-2135189D01*
X1260846Y-2135184D01*
X1264887Y-2132475D01*
X1274679Y-2123442D01*
X1282691Y-2116647D01*
X1287199Y-2113136D01*
X1287202Y-2113133D01*
X1290737Y-2110380D01*
X1298027Y-2102814D01*
X1303335Y-2097306D01*
X1308635Y-2092120D01*
X1618492Y-1806289D01*
X1625316Y-1800431D01*
X1634963Y-1792730D01*
X1634968Y-1792725D01*
X1638769Y-1789691D01*
X1647844Y-1779805D01*
X1655232Y-1772399D01*
X1659500Y-1768462D01*
X1659504Y-1768458D01*
X1662795Y-1765422D01*
X1674206Y-1751410D01*
X1679078Y-1745778D01*
X1888825Y-1517276D01*
X1963487Y-1435938D01*
X1969800Y-1429535D01*
X1978764Y-1421071D01*
X1982300Y-1417732D01*
X1990540Y-1407107D01*
X1997287Y-1399115D01*
X2001221Y-1394830D01*
X2001225Y-1394825D01*
X2004254Y-1391525D01*
X2011391Y-1381102D01*
X2014442Y-1376646D01*
X2018837Y-1370618D01*
X2276474Y-1038394D01*
X2282227Y-1031499D01*
X2290473Y-1022302D01*
X2290482Y-1022291D01*
X2293726Y-1018672D01*
X2301020Y-1007453D01*
X2307089Y-998915D01*
X2310643Y-994333D01*
X2310646Y-994328D01*
X2313387Y-990794D01*
X2322342Y-975059D01*
X2326203Y-968717D01*
X2555681Y-615740D01*
X2560813Y-608428D01*
X2568341Y-598472D01*
X2568344Y-598468D01*
X2571279Y-594586D01*
X2577566Y-582883D01*
X2582921Y-573842D01*
X2588459Y-565323D01*
X2596123Y-548796D01*
X2599432Y-542178D01*
X2658772Y-431715D01*
X2799348Y-170028D01*
X2803806Y-162387D01*
X2813172Y-147559D01*
X2818389Y-135520D01*
X2823000Y-125999D01*
X2825603Y-121154D01*
X2825605Y-121149D01*
X2827724Y-117205D01*
X2834045Y-99927D01*
X2836762Y-93121D01*
X2859566Y-40500D01*
X2984870Y248653D01*
X3005654Y296613D01*
X3009425Y304546D01*
X3015353Y315970D01*
X3015354Y315973D01*
X3017598Y320297D01*
X3019149Y324911D01*
X3019153Y324921D01*
X3021709Y332527D01*
X3025530Y342480D01*
X3027634Y347336D01*
X3029416Y351448D01*
X3034320Y369400D01*
X3036432Y376339D01*
X3172790Y782068D01*
X3175842Y790207D01*
X3180864Y802312D01*
X3180867Y802322D01*
X3182734Y806822D01*
X3185730Y819128D01*
X3188717Y829459D01*
X3190329Y834256D01*
X3190329Y834257D01*
X3191756Y838502D01*
X3192568Y842913D01*
X3195169Y857045D01*
X3196663Y864042D01*
X3298925Y1284138D01*
X3301243Y1292421D01*
X3301568Y1293445D01*
X3306754Y1309800D01*
X3308645Y1322097D01*
X3310756Y1332744D01*
X3312953Y1341767D01*
X3314792Y1360751D01*
X3315669Y1367755D01*
X3361166Y1663555D01*
X3381238Y1794054D01*
X3383425Y1805012D01*
X3384314Y1808620D01*
X3386178Y1816194D01*
X3387826Y1835104D01*
X3388811Y1843297D01*
X3391227Y1859001D01*
X3391308Y1866748D01*
X3391355Y1871344D01*
X3391824Y1880980D01*
X3392047Y1883538D01*
X3392719Y1889564D01*
X3393255Y1893510D01*
X3394281Y1898268D01*
X3394562Y1903121D01*
X3394563Y1903128D01*
X3395871Y1925729D01*
X3396059Y1928963D01*
X3396318Y1932545D01*
X3398714Y1960036D01*
X3398467Y1964506D01*
X3398538Y1968995D01*
X3398700Y1968992D01*
X3398709Y1974720D01*
X3401007Y2014401D01*
X3401425Y2019206D01*
X3402178Y2023055D01*
X3403493Y2056945D01*
X3403607Y2059317D01*
X3405128Y2085569D01*
X3405128Y2085573D01*
X3405387Y2090047D01*
X3405057Y2093945D01*
X3405121Y2098939D01*
X3405994Y2121445D01*
X3407516Y2160687D01*
X3407757Y2164132D01*
X3408307Y2167180D01*
X3409150Y2202463D01*
X3409209Y2204332D01*
X3409793Y2219388D01*
X3410452Y2236377D01*
X3410134Y2239442D01*
X3410119Y2242983D01*
X3411829Y2314560D01*
X3412024Y2318103D01*
X3412536Y2321214D01*
X3412629Y2331817D01*
X3412844Y2356401D01*
X3412875Y2358307D01*
X3413532Y2385801D01*
X3413532Y2385806D01*
X3413639Y2390291D01*
X3413269Y2393405D01*
X3413199Y2397036D01*
X3413737Y2458599D01*
X3413807Y2466629D01*
X3413936Y2469825D01*
X3414371Y2472717D01*
X3414234Y2498629D01*
X3414184Y2508190D01*
X3414187Y2509954D01*
X3414431Y2537896D01*
X3414431Y2537898D01*
X3414470Y2542377D01*
X3414082Y2545272D01*
X3413970Y2548572D01*
X3413665Y2606336D01*
X3413782Y2611274D01*
X3414297Y2615223D01*
X3413460Y2649123D01*
X3413425Y2651528D01*
X3413288Y2677631D01*
X3413288Y2677635D01*
X3413264Y2682122D01*
X3412680Y2686048D01*
X3412423Y2691136D01*
X3409123Y2824847D01*
X3409364Y2831707D01*
X3409251Y2831709D01*
X3409337Y2836582D01*
X3409797Y2841422D01*
X3408080Y2870210D01*
X3407895Y2874581D01*
X3407371Y2895824D01*
X3407370Y2895830D01*
X3407260Y2900302D01*
X3406516Y2904721D01*
X3406087Y2909178D01*
X3406125Y2909182D01*
X3405347Y2916022D01*
X3401500Y2980500D01*
X3398431Y3031946D01*
X3398388Y3043257D01*
X3398338Y3045233D01*
X3398592Y3050104D01*
X3395903Y3076264D01*
X3395467Y3081624D01*
X3394910Y3090973D01*
X3394087Y3104768D01*
X3393107Y3109558D01*
X3391208Y3121940D01*
X3384214Y3189992D01*
X3379898Y3231979D01*
X3379390Y3242918D01*
X3379236Y3245193D01*
X3379282Y3250056D01*
X3378581Y3254862D01*
X3378580Y3254870D01*
X3375470Y3276176D01*
X3374810Y3281488D01*
X3372888Y3300186D01*
X3372885Y3300200D01*
X3372428Y3304651D01*
X3371266Y3309305D01*
X3368836Y3321623D01*
X3352472Y3433736D01*
X3351910Y3440360D01*
X3351771Y3440346D01*
X3351278Y3445187D01*
X3351159Y3450056D01*
X3350292Y3454855D01*
X3345973Y3478760D01*
X3345286Y3482964D01*
X3344575Y3487837D01*
X3341521Y3508760D01*
X3340252Y3513055D01*
X3339290Y3517441D01*
X3339349Y3517454D01*
X3337808Y3523945D01*
X3334861Y3540259D01*
X3314630Y3652226D01*
X3313770Y3659363D01*
X3313695Y3659353D01*
X3313025Y3664173D01*
X3312729Y3669034D01*
X3306675Y3696719D01*
X3305788Y3701160D01*
X3301301Y3725993D01*
X3299887Y3730245D01*
X3298778Y3734590D01*
X3298782Y3734591D01*
X3296873Y3741539D01*
X3254154Y3936883D01*
X3252252Y3947902D01*
X3251799Y3951465D01*
X3250799Y3959327D01*
X3245529Y3977591D01*
X3243500Y3985601D01*
X3241068Y3996721D01*
X3241067Y3996724D01*
X3240109Y4001105D01*
X3235796Y4012650D01*
X3232770Y4021803D01*
X3198332Y4141142D01*
X3128139Y4384383D01*
X3125953Y4393129D01*
X3122408Y4409829D01*
X3117584Y4422507D01*
X3114291Y4432371D01*
X3112643Y4438081D01*
X3111398Y4442396D01*
X3104040Y4458733D01*
X3101162Y4465667D01*
X3075642Y4532736D01*
X2963944Y4826294D01*
X2960880Y4835371D01*
X2956450Y4850362D01*
X2950033Y4863929D01*
X2946188Y4872956D01*
X2941972Y4884037D01*
X2933998Y4898433D01*
X2930324Y4905598D01*
X2923772Y4919452D01*
X2761447Y5262643D01*
X2756834Y5273739D01*
X2753655Y5282547D01*
X2743501Y5301096D01*
X2740134Y5307704D01*
X2739284Y5309501D01*
X2732450Y5323950D01*
X2726844Y5332431D01*
X2721436Y5341403D01*
X2720837Y5342498D01*
X2625647Y5516391D01*
X2620759Y5526339D01*
X2618004Y5532631D01*
X2616054Y5537085D01*
X2613444Y5541183D01*
X2613441Y5541188D01*
X2605961Y5552930D01*
X2601715Y5560110D01*
X2594190Y5573856D01*
X2586668Y5583894D01*
X2581225Y5591763D01*
X2569604Y5610008D01*
X2354147Y5948259D01*
X2350293Y5954309D01*
X2345915Y5961729D01*
X2337216Y5977700D01*
X2329636Y5987605D01*
X2323433Y5996477D01*
X2320824Y6000573D01*
X2318417Y6004352D01*
X2306002Y6018813D01*
X2301544Y6024311D01*
X2038768Y6367670D01*
X2033723Y6374757D01*
X2026504Y6385675D01*
X2026502Y6385677D01*
X2023815Y6389742D01*
X2015270Y6399127D01*
X2008390Y6407363D01*
X2005299Y6411402D01*
X2002576Y6414960D01*
X1999381Y6418092D01*
X1999368Y6418106D01*
X1989126Y6428143D01*
X1984155Y6433299D01*
X1947401Y6473664D01*
X1694939Y6750931D01*
X1689280Y6757597D01*
X1678246Y6771555D01*
X1674284Y6775227D01*
X1668805Y6780305D01*
X1661293Y6787883D01*
X1657760Y6791763D01*
X1657753Y6791770D01*
X1654736Y6795083D01*
X1640373Y6806936D01*
X1634927Y6811699D01*
X1321218Y7102416D01*
X1314961Y7108635D01*
X1306208Y7117967D01*
X1306206Y7117968D01*
X1302880Y7121515D01*
X1292641Y7129510D01*
X1284560Y7136387D01*
X1277314Y7143102D01*
X1273628Y7145652D01*
X1273620Y7145658D01*
X1262095Y7153629D01*
X1256225Y7157945D01*
X1242132Y7168950D01*
X919912Y7420553D01*
X913134Y7426240D01*
X903690Y7434746D01*
X903689Y7434747D01*
X900068Y7438008D01*
X895988Y7440673D01*
X895985Y7440676D01*
X889154Y7445139D01*
X880537Y7451301D01*
X876245Y7454652D01*
X876234Y7454659D01*
X872701Y7457418D01*
X861547Y7463815D01*
X856698Y7466596D01*
X850471Y7470411D01*
X570570Y7653274D01*
X493392Y7703696D01*
X486189Y7708770D01*
X472142Y7719424D01*
X467855Y7721735D01*
X467852Y7721737D01*
X460667Y7725610D01*
X451547Y7731034D01*
X447013Y7733996D01*
X443260Y7736448D01*
X439204Y7738340D01*
X439193Y7738346D01*
X426530Y7744252D01*
X420004Y7747529D01*
X377154Y7770628D01*
X43962Y7950239D01*
X36402Y7954662D01*
X21429Y7964138D01*
X16972Y7966074D01*
X16965Y7966078D01*
X9561Y7969294D01*
X-17Y7973946D01*
X-8659Y7978604D01*
X-26083Y7985007D01*
X-32823Y7987707D01*
X-104581Y8018881D01*
X-426001Y8158515D01*
X-433898Y8162277D01*
X-445413Y8168261D01*
X-449733Y8170506D01*
X-454351Y8172061D01*
X-461855Y8174588D01*
X-471837Y8178428D01*
X-480713Y8182284D01*
X-498770Y8187234D01*
X-505646Y8189333D01*
X-914190Y8326895D01*
X-922292Y8329937D01*
X-938978Y8336866D01*
X-951217Y8339850D01*
X-961562Y8342845D01*
X-970542Y8345869D01*
X-980861Y8347774D01*
X-989126Y8349300D01*
X-996096Y8350791D01*
X-1040876Y8361708D01*
X-1418222Y8453702D01*
X-1426477Y8456015D01*
X-1439262Y8460071D01*
X-1439263Y8460071D01*
X-1443896Y8461541D01*
X-1448692Y8462279D01*
X-1448703Y8462282D01*
X-1456121Y8463424D01*
X-1466780Y8465540D01*
X-1471400Y8466666D01*
X-1471405Y8466667D01*
X-1475758Y8467728D01*
X-1490392Y8469150D01*
X-1494825Y8469581D01*
X-1501808Y8470457D01*
X-1929316Y8536274D01*
X-1940142Y8538430D01*
X-1940531Y8538525D01*
X-1951686Y8541260D01*
X-1967506Y8542623D01*
X-1970252Y8542860D01*
X-1978602Y8543862D01*
X-1989489Y8545538D01*
X-1989496Y8545539D01*
X-1993929Y8546221D01*
X-2006626Y8546354D01*
X-2016121Y8546812D01*
X-2020728Y8547209D01*
X-2043176Y8549143D01*
X-2049878Y8550129D01*
X-2049894Y8550005D01*
X-2054719Y8550630D01*
X-2059486Y8551626D01*
X-2064346Y8551877D01*
X-2064349Y8551877D01*
X-2079144Y8552640D01*
X-2088437Y8553119D01*
X-2092741Y8553415D01*
X-2118518Y8555636D01*
X-2122995Y8555384D01*
X-2127475Y8555450D01*
X-2127474Y8555497D01*
X-2134263Y8555481D01*
X-2134573Y8555497D01*
X-2174063Y8557533D01*
X-2206862Y8559224D01*
X-2213543Y8559747D01*
X-2218333Y8560629D01*
X-2250658Y8561519D01*
X-2253660Y8561638D01*
X-2282828Y8563141D01*
X-2287296Y8562734D01*
X-2288729Y8562706D01*
X-2294672Y8562730D01*
X-2389026Y8565328D01*
X-2393387Y8565578D01*
X-2396998Y8566176D01*
X-2401861Y8566224D01*
X-2401866Y8566224D01*
X-2419699Y8566398D01*
X-2431381Y8566512D01*
X-2433560Y8566553D01*
X-2464748Y8567412D01*
X-2468369Y8566995D01*
X-2472867Y8566919D01*
X-2536932Y8567545D01*
X-2579841Y8567965D01*
X-2583592Y8568117D01*
X-2586847Y8568604D01*
X-2618401Y8568413D01*
X-2621790Y8568392D01*
X-2623787Y8568396D01*
X-2629093Y8568448D01*
X-2655567Y8568707D01*
X-2658813Y8568274D01*
X-2662674Y8568144D01*
X-2704173Y8567892D01*
X-2770971Y8567486D01*
X-2775060Y8567585D01*
X-2778548Y8568046D01*
X-2783414Y8567934D01*
X-2783421Y8567934D01*
X-2813033Y8567250D01*
X-2815177Y8567218D01*
X-2835662Y8567094D01*
X-2846673Y8567027D01*
X-2850135Y8566510D01*
X-2854402Y8566296D01*
X-2952850Y8564024D01*
X-2958743Y8564050D01*
X-2963195Y8564539D01*
X-2968054Y8564320D01*
X-2968055Y8564320D01*
X-2996122Y8563055D01*
X-2998887Y8562961D01*
X-3024250Y8562376D01*
X-3024256Y8562375D01*
X-3028738Y8562272D01*
X-3033143Y8561537D01*
X-3039271Y8561110D01*
X-3117545Y8557582D01*
X-3124490Y8557682D01*
X-3124490Y8557578D01*
X-3129366Y8557563D01*
X-3134213Y8557923D01*
X-3162891Y8555615D01*
X-3167275Y8555340D01*
X-3179659Y8554782D01*
X-3188362Y8554390D01*
X-3188365Y8554390D01*
X-3192838Y8554188D01*
X-3197241Y8553354D01*
X-3201692Y8552834D01*
X-3201696Y8552864D01*
X-3208577Y8551937D01*
X-3224633Y8550645D01*
X-3267327Y8547209D01*
X-3278293Y8546806D01*
X-3285475Y8546855D01*
X-3285479Y8546855D01*
X-3290342Y8546888D01*
X-3295157Y8546172D01*
X-3308605Y8544173D01*
X-3317022Y8543210D01*
X-3327849Y8542338D01*
X-3327858Y8542337D01*
X-3332325Y8541977D01*
X-3344029Y8539329D01*
X-3344880Y8539136D01*
X-3354156Y8537399D01*
X-3721933Y8482709D01*
X-3731063Y8481690D01*
X-3740338Y8480996D01*
X-3747704Y8480445D01*
X-3752444Y8479340D01*
X-3752448Y8479339D01*
X-3761264Y8477283D01*
X-3771340Y8475362D01*
X-3777597Y8474431D01*
X-3777600Y8474430D01*
X-3782034Y8473771D01*
X-3798859Y8468753D01*
X-3806235Y8466796D01*
X-4057996Y8408083D01*
X-4230710Y8367805D01*
X-4239138Y8366140D01*
X-4252355Y8363995D01*
X-4252360Y8363994D01*
X-4257158Y8363215D01*
X-4268960Y8359365D01*
X-4279395Y8356451D01*
X-4288440Y8354342D01*
X-4306268Y8347399D01*
X-4312890Y8345032D01*
X-4408855Y8313723D01*
X-4545566Y8269120D01*
X-4616531Y8267007D01*
X-4677374Y8303596D01*
X-4708776Y8367270D01*
X-4698841Y8442157D01*
X-4677946Y8486965D01*
X-4677944Y8486970D01*
X-4675621Y8491952D01*
X-4671745Y8506415D01*
X-4655543Y8566884D01*
X-4618083Y8706685D01*
X-4598708Y8928148D01*
X470586Y8928148D01*
X489961Y8706685D01*
X527421Y8566884D01*
X543624Y8506415D01*
X547499Y8491952D01*
X549821Y8486971D01*
X549822Y8486970D01*
X639125Y8295459D01*
X639128Y8295454D01*
X641451Y8290472D01*
X644607Y8285965D01*
X644608Y8285963D01*
X761578Y8118913D01*
X768962Y8108367D01*
X926158Y7951171D01*
X930666Y7948014D01*
X930669Y7948012D01*
X957580Y7929169D01*
X1108262Y7823660D01*
X1113244Y7821337D01*
X1113249Y7821334D01*
X1295289Y7736448D01*
X1309743Y7729708D01*
X1315051Y7728286D01*
X1315053Y7728285D01*
X1339491Y7721737D01*
X1524476Y7672170D01*
X1745939Y7652795D01*
X1967402Y7672170D01*
X2152387Y7721737D01*
X2176825Y7728285D01*
X2176827Y7728286D01*
X2182135Y7729708D01*
X2196589Y7736448D01*
X2378629Y7821334D01*
X2378634Y7821337D01*
X2383616Y7823660D01*
X2534298Y7929169D01*
X2561209Y7948012D01*
X2561212Y7948014D01*
X2565720Y7951171D01*
X2722916Y8108367D01*
X2730301Y8118913D01*
X2847270Y8285963D01*
X2847271Y8285965D01*
X2850427Y8290472D01*
X2852750Y8295454D01*
X2852753Y8295459D01*
X2942056Y8486970D01*
X2942057Y8486971D01*
X2944379Y8491952D01*
X2948255Y8506415D01*
X2964457Y8566884D01*
X3001917Y8706685D01*
X3021292Y8928148D01*
X3001917Y9149611D01*
X2944379Y9364344D01*
X2899726Y9460102D01*
X2852753Y9560837D01*
X2852750Y9560842D01*
X2850427Y9565824D01*
X2722916Y9747929D01*
X2565720Y9905125D01*
X2561212Y9908282D01*
X2561209Y9908284D01*
X2490282Y9957947D01*
X4797973Y9957947D01*
X4811598Y9750070D01*
X4862877Y9548157D01*
X4950094Y9358970D01*
X5070326Y9188845D01*
X5219548Y9043479D01*
X5224344Y9040274D01*
X5224347Y9040272D01*
X5294062Y8993690D01*
X5392762Y8927741D01*
X5398070Y8925460D01*
X5398071Y8925460D01*
X5578865Y8847785D01*
X5578868Y8847784D01*
X5584168Y8845507D01*
X5589797Y8844233D01*
X5589798Y8844233D01*
X5781717Y8800806D01*
X5781722Y8800805D01*
X5787354Y8799531D01*
X5793125Y8799304D01*
X5793127Y8799304D01*
X5855447Y8796856D01*
X5995516Y8791352D01*
X6098600Y8806299D01*
X6195969Y8820416D01*
X6195974Y8820417D01*
X6201683Y8821245D01*
X6207147Y8823100D01*
X6207152Y8823101D01*
X6393482Y8886352D01*
X6398950Y8888208D01*
X6580711Y8989999D01*
X6740878Y9123209D01*
X6874088Y9283376D01*
X6975879Y9465137D01*
X7002280Y9542911D01*
X7040986Y9656935D01*
X7040987Y9656940D01*
X7042842Y9662404D01*
X7043670Y9668113D01*
X7043671Y9668118D01*
X7072202Y9864897D01*
X7072735Y9868571D01*
X7074295Y9928148D01*
X7055233Y10135597D01*
X7041547Y10184126D01*
X7000255Y10330534D01*
X6998686Y10336098D01*
X6906547Y10522937D01*
X6793300Y10674594D01*
X6785355Y10685233D01*
X6785354Y10685234D01*
X6781902Y10689857D01*
X6628926Y10831267D01*
X6519357Y10900400D01*
X6457622Y10939352D01*
X6452742Y10942431D01*
X6259250Y11019626D01*
X6054930Y11060268D01*
X6049155Y11060344D01*
X6049151Y11060344D01*
X5944840Y11061709D01*
X5846625Y11062995D01*
X5840928Y11062016D01*
X5840927Y11062016D01*
X5824196Y11059141D01*
X5641311Y11027715D01*
X5445864Y10955611D01*
X5440903Y10952659D01*
X5440902Y10952659D01*
X5282990Y10858711D01*
X5266830Y10849097D01*
X5110205Y10711741D01*
X5106638Y10707216D01*
X5106633Y10707211D01*
X4984811Y10552680D01*
X4981233Y10548141D01*
X4978542Y10543025D01*
X4978540Y10543023D01*
X4910111Y10412961D01*
X4884235Y10363778D01*
X4882522Y10358261D01*
X4828601Y10184605D01*
X4822459Y10164826D01*
X4797973Y9957947D01*
X2490282Y9957947D01*
X2482092Y9963682D01*
X2383616Y10032636D01*
X2378634Y10034959D01*
X2378629Y10034962D01*
X2187117Y10124265D01*
X2187116Y10124266D01*
X2182135Y10126588D01*
X2176827Y10128010D01*
X2176825Y10128011D01*
X2110990Y10145651D01*
X1967402Y10184126D01*
X1745939Y10203501D01*
X1524476Y10184126D01*
X1380888Y10145651D01*
X1315053Y10128011D01*
X1315051Y10128010D01*
X1309743Y10126588D01*
X1304762Y10124266D01*
X1304761Y10124265D01*
X1113250Y10034962D01*
X1113245Y10034959D01*
X1108263Y10032636D01*
X1103756Y10029480D01*
X1103754Y10029479D01*
X930669Y9908284D01*
X930666Y9908282D01*
X926158Y9905125D01*
X768962Y9747929D01*
X641451Y9565824D01*
X639128Y9560842D01*
X639125Y9560837D01*
X592152Y9460102D01*
X547499Y9364344D01*
X489961Y9149611D01*
X470586Y8928148D01*
X-4598708Y8928148D01*
X-4618083Y9149611D01*
X-4675621Y9364344D01*
X-4720274Y9460102D01*
X-4767247Y9560837D01*
X-4767250Y9560842D01*
X-4769573Y9565824D01*
X-4897084Y9747929D01*
X-5054280Y9905125D01*
X-5058788Y9908282D01*
X-5058791Y9908284D01*
X-5137908Y9963682D01*
X-5236384Y10032636D01*
X-5241366Y10034959D01*
X-5241371Y10034962D01*
X-5432883Y10124265D01*
X-5432884Y10124266D01*
X-5437865Y10126588D01*
X-5443173Y10128010D01*
X-5443175Y10128011D01*
X-5509010Y10145651D01*
X-5652598Y10184126D01*
X-5874061Y10203501D01*
X-6095524Y10184126D01*
X-6239112Y10145651D01*
X-6304947Y10128011D01*
X-6304949Y10128010D01*
X-6310257Y10126588D01*
X-6315238Y10124266D01*
X-6315239Y10124265D01*
X-6506750Y10034962D01*
X-6506755Y10034959D01*
X-6511737Y10032636D01*
X-6516244Y10029480D01*
X-6516246Y10029479D01*
X-6689331Y9908284D01*
X-6689334Y9908282D01*
X-6693842Y9905125D01*
X-6851038Y9747929D01*
X-6978549Y9565824D01*
X-6980872Y9560842D01*
X-6980875Y9560837D01*
X-7027848Y9460102D01*
X-7072501Y9364344D01*
X-7130039Y9149611D01*
X-7149414Y8928148D01*
X-7130039Y8706685D01*
X-7092579Y8566884D01*
X-7076376Y8506415D01*
X-7072501Y8491952D01*
X-7070179Y8486971D01*
X-7070178Y8486970D01*
X-6980875Y8295459D01*
X-6980872Y8295454D01*
X-6978549Y8290472D01*
X-6975393Y8285965D01*
X-6975392Y8285963D01*
X-6858422Y8118913D01*
X-6851038Y8108367D01*
X-6693842Y7951171D01*
X-6689334Y7948014D01*
X-6689331Y7948012D01*
X-6662420Y7929169D01*
X-6511738Y7823660D01*
X-6506756Y7821337D01*
X-6506751Y7821334D01*
X-6324711Y7736448D01*
X-6310257Y7729708D01*
X-6182400Y7695449D01*
X-6121779Y7658497D01*
X-6090757Y7594636D01*
X-6099186Y7524142D01*
X-6137909Y7474087D01*
X-6143097Y7470073D01*
X-6151938Y7463822D01*
X-6159801Y7458755D01*
X-6168392Y7451301D01*
X-6174190Y7446270D01*
X-6179665Y7441782D01*
X-6525861Y7173944D01*
X-6532790Y7168950D01*
X-6544005Y7161430D01*
X-6544009Y7161427D01*
X-6548052Y7158716D01*
X-6551626Y7155419D01*
X-6551636Y7155411D01*
X-6557074Y7150394D01*
X-6565408Y7143348D01*
X-6572646Y7137748D01*
X-6575767Y7134530D01*
X-6575768Y7134529D01*
X-6586052Y7123925D01*
X-6591066Y7119035D01*
X-6651857Y7062954D01*
X-6898276Y6835629D01*
X-6909098Y6825646D01*
X-6917890Y6818248D01*
X-6922554Y6814674D01*
X-6922560Y6814669D01*
X-6926414Y6811715D01*
X-6932377Y6805472D01*
X-6940070Y6797418D01*
X-6945746Y6791839D01*
X-6954690Y6783588D01*
X-6954696Y6783581D01*
X-6957981Y6780551D01*
X-6960803Y6777085D01*
X-6960812Y6777076D01*
X-6965270Y6771601D01*
X-6971856Y6764137D01*
X-7093600Y6636670D01*
X-7101954Y6628689D01*
X-7109916Y6621753D01*
X-7122761Y6606494D01*
X-7128028Y6600622D01*
X-7139645Y6588459D01*
X-7142246Y6584817D01*
X-7142251Y6584811D01*
X-7146256Y6579203D01*
X-7152398Y6571288D01*
X-7298879Y6397284D01*
X-7432215Y6238895D01*
X-7437873Y6232614D01*
X-7450781Y6219218D01*
X-7457724Y6209335D01*
X-7464418Y6200639D01*
X-7470177Y6193799D01*
X-7480487Y6177263D01*
X-7484289Y6171521D01*
X-7670372Y5906640D01*
X-7736260Y5812851D01*
X-7741310Y5806149D01*
X-7753104Y5791535D01*
X-7759065Y5781233D01*
X-7765010Y5771928D01*
X-7770051Y5764752D01*
X-7772084Y5760751D01*
X-7772089Y5760743D01*
X-7778954Y5747234D01*
X-7782222Y5741213D01*
X-8002315Y5360844D01*
X-8006877Y5353549D01*
X-8017040Y5338465D01*
X-8019106Y5334059D01*
X-8022325Y5327194D01*
X-8027349Y5317580D01*
X-8029775Y5313388D01*
X-8029782Y5313375D01*
X-8032023Y5309501D01*
X-8033694Y5305344D01*
X-8033696Y5305341D01*
X-8039133Y5291819D01*
X-8041956Y5285331D01*
X-8228717Y4887055D01*
X-8233823Y4877299D01*
X-8239836Y4866939D01*
X-8244898Y4853942D01*
X-8246570Y4849650D01*
X-8249898Y4841887D01*
X-8254542Y4831984D01*
X-8254546Y4831974D01*
X-8256446Y4827922D01*
X-8260173Y4815709D01*
X-8263277Y4806759D01*
X-8293411Y4729395D01*
X-8348236Y4588643D01*
X-8351048Y4581425D01*
X-8355989Y4570349D01*
X-8357892Y4566582D01*
X-8357895Y4566575D01*
X-8360089Y4562231D01*
X-8361591Y4557596D01*
X-8361592Y4557592D01*
X-8366682Y4541878D01*
X-8369136Y4534989D01*
X-8375766Y4517968D01*
X-8376782Y4513614D01*
X-8376786Y4513600D01*
X-8378012Y4508343D01*
X-8380848Y4498142D01*
X-8404153Y4426193D01*
X-8459422Y4255562D01*
X-8460726Y4251537D01*
X-8464806Y4240677D01*
X-8468904Y4231132D01*
X-8470114Y4226414D01*
X-8473897Y4211665D01*
X-8476074Y4204154D01*
X-8481314Y4187976D01*
X-8482077Y4183560D01*
X-8482077Y4183558D01*
X-8483220Y4176938D01*
X-8485332Y4167077D01*
X-8547758Y3923674D01*
X-8551404Y3909460D01*
X-8555098Y3897545D01*
X-8557905Y3889858D01*
X-8560732Y3875596D01*
X-8562241Y3867984D01*
X-8563786Y3861184D01*
X-8567424Y3847000D01*
X-8568543Y3842635D01*
X-8569518Y3833710D01*
X-8571175Y3822913D01*
X-8599689Y3679060D01*
X-8625629Y3548198D01*
X-8627227Y3542108D01*
X-8627050Y3542064D01*
X-8628209Y3537345D01*
X-8629735Y3532712D01*
X-8634377Y3504602D01*
X-8636026Y3497295D01*
X-8635987Y3497287D01*
X-8636965Y3492528D01*
X-8638314Y3487837D01*
X-8638925Y3482993D01*
X-8639022Y3482226D01*
X-8639097Y3481763D01*
X-8639612Y3477655D01*
X-8640483Y3473261D01*
X-8640722Y3468790D01*
X-8641281Y3464331D01*
X-8641283Y3464331D01*
X-8641292Y3464240D01*
X-8641794Y3460254D01*
X-8642482Y3455518D01*
X-8646505Y3431159D01*
X-8646601Y3426683D01*
X-8646881Y3423667D01*
X-8647539Y3414727D01*
X-8651976Y3379557D01*
X-8656999Y3339745D01*
X-8658528Y3331459D01*
X-8659238Y3327126D01*
X-8660393Y3322398D01*
X-8660806Y3317553D01*
X-8660807Y3317550D01*
X-8661510Y3309305D01*
X-8662403Y3298840D01*
X-8662696Y3295410D01*
X-8663229Y3290372D01*
X-8666230Y3266583D01*
X-8666155Y3262101D01*
X-8666207Y3261146D01*
X-8666600Y3249670D01*
X-8675378Y3146803D01*
X-8676070Y3140544D01*
X-8676404Y3138088D01*
X-8677430Y3133328D01*
X-8679217Y3102485D01*
X-8679240Y3102096D01*
X-8679484Y3098683D01*
X-8681880Y3070610D01*
X-8681624Y3066132D01*
X-8681680Y3062100D01*
X-8681879Y3056569D01*
X-8688817Y2936876D01*
X-8689315Y2931073D01*
X-8690158Y2926699D01*
X-8690333Y2921840D01*
X-8690334Y2921834D01*
X-8691348Y2893720D01*
X-8691477Y2890978D01*
X-8693208Y2861112D01*
X-8692834Y2856690D01*
X-8692903Y2850625D01*
X-8697625Y2719812D01*
X-8697964Y2714568D01*
X-8698669Y2710466D01*
X-8698746Y2705596D01*
X-8698746Y2705594D01*
X-8699197Y2676998D01*
X-8699263Y2674444D01*
X-8700359Y2644057D01*
X-8699919Y2639931D01*
X-8699866Y2634501D01*
X-8700093Y2620083D01*
X-8700624Y2586433D01*
X-8700797Y2584325D01*
X-8701416Y2582256D01*
X-8701868Y2508190D01*
X-8701872Y2507592D01*
X-8701885Y2506387D01*
X-8701934Y2503261D01*
X-8702189Y2497398D01*
X-8702849Y2492985D01*
X-8702702Y2469113D01*
X-8702646Y2459945D01*
X-8702660Y2457211D01*
X-8703130Y2427366D01*
X-13491500Y2427366D01*
X-13491500Y9957947D01*
X-11202027Y9957947D01*
X-11188402Y9750070D01*
X-11137123Y9548157D01*
X-11049906Y9358970D01*
X-10929674Y9188845D01*
X-10780452Y9043479D01*
X-10775656Y9040274D01*
X-10775653Y9040272D01*
X-10705938Y8993690D01*
X-10607238Y8927741D01*
X-10601930Y8925460D01*
X-10601929Y8925460D01*
X-10421135Y8847785D01*
X-10421132Y8847784D01*
X-10415832Y8845507D01*
X-10410203Y8844233D01*
X-10410202Y8844233D01*
X-10218283Y8800806D01*
X-10218278Y8800805D01*
X-10212646Y8799531D01*
X-10206875Y8799304D01*
X-10206873Y8799304D01*
X-10144553Y8796856D01*
X-10004484Y8791352D01*
X-9901401Y8806298D01*
X-9804031Y8820416D01*
X-9804026Y8820417D01*
X-9798317Y8821245D01*
X-9792853Y8823100D01*
X-9792848Y8823101D01*
X-9606518Y8886352D01*
X-9601050Y8888208D01*
X-9419289Y8989999D01*
X-9259122Y9123209D01*
X-9125912Y9283376D01*
X-9024121Y9465137D01*
X-8997720Y9542911D01*
X-8959014Y9656935D01*
X-8959013Y9656940D01*
X-8957158Y9662404D01*
X-8956330Y9668113D01*
X-8956329Y9668118D01*
X-8927798Y9864897D01*
X-8927265Y9868571D01*
X-8925705Y9928148D01*
X-8944767Y10135597D01*
X-8958453Y10184126D01*
X-8999745Y10330534D01*
X-9001314Y10336098D01*
X-9093453Y10522937D01*
X-9206700Y10674594D01*
X-9214645Y10685233D01*
X-9214646Y10685234D01*
X-9218098Y10689857D01*
X-9371074Y10831267D01*
X-9480643Y10900400D01*
X-9542378Y10939352D01*
X-9547258Y10942431D01*
X-9740750Y11019626D01*
X-9945070Y11060268D01*
X-9950845Y11060344D01*
X-9950849Y11060344D01*
X-10055160Y11061709D01*
X-10153375Y11062995D01*
X-10159072Y11062016D01*
X-10159073Y11062016D01*
X-10175804Y11059141D01*
X-10358689Y11027715D01*
X-10554136Y10955611D01*
X-10559097Y10952659D01*
X-10559098Y10952659D01*
X-10717010Y10858711D01*
X-10733170Y10849097D01*
X-10889795Y10711741D01*
X-10893362Y10707216D01*
X-10893367Y10707211D01*
X-11015189Y10552680D01*
X-11018767Y10548141D01*
X-11021458Y10543025D01*
X-11021460Y10543023D01*
X-11089889Y10412961D01*
X-11115765Y10363778D01*
X-11117478Y10358261D01*
X-11171399Y10184605D01*
X-11177541Y10164826D01*
X-11202027Y9957947D01*
X-13491500Y9957947D01*
X-13491500Y11950633D01*
X-13490000Y11970018D01*
X-13487690Y11984851D01*
X-13487690Y11984855D01*
X-13486309Y11993724D01*
X-13488558Y12010923D01*
X-13489391Y12034863D01*
X-13473794Y12292710D01*
X-13471960Y12307814D01*
X-13420475Y12588757D01*
X-13416834Y12603530D01*
X-13357712Y12793262D01*
X-13331858Y12876229D01*
X-13326464Y12890451D01*
X-13246758Y13067548D01*
X-13209241Y13150908D01*
X-13202171Y13164379D01*
X-13118010Y13303598D01*
X-13054407Y13408810D01*
X-13045765Y13421331D01*
X-12978097Y13507702D01*
X-12869610Y13646176D01*
X-12859520Y13657564D01*
X-12657564Y13859520D01*
X-12646176Y13869610D01*
X-12551393Y13943868D01*
X-12421330Y14045766D01*
X-12408809Y14054408D01*
X-12164379Y14202171D01*
X-12150906Y14209242D01*
X-12108221Y14228453D01*
X-11890447Y14326466D01*
X-11876229Y14331858D01*
X-11603530Y14416834D01*
X-11588757Y14420475D01*
X-11307814Y14471960D01*
X-11292710Y14473794D01*
X-11042096Y14488953D01*
X-11015284Y14487692D01*
X-11015148Y14487690D01*
X-11006276Y14486309D01*
X-10997374Y14487473D01*
X-10997372Y14487473D01*
X-10982323Y14489441D01*
X-10974714Y14490436D01*
X-10958379Y14491500D01*
X29365500Y14491500D01*
X29433621Y14471498D01*
G37*
%TD.AperFunction*%
%TA.AperFunction,Conductor*%
G36*
X14217996Y6215550D02*
G01*
X14238893Y6198725D01*
X14287128Y6150574D01*
X14312298Y6125448D01*
X14318528Y6121608D01*
X14318529Y6121607D01*
X14435648Y6049414D01*
X14457899Y6035698D01*
X14620243Y5981851D01*
X14627080Y5981151D01*
X14627082Y5981150D01*
X14660756Y5977700D01*
X14721268Y5971500D01*
X14978088Y5971500D01*
X15046209Y5951498D01*
X15092702Y5897842D01*
X15102806Y5827568D01*
X15073312Y5762988D01*
X15053653Y5744674D01*
X15032075Y5728502D01*
X15011739Y5713261D01*
X14924385Y5596705D01*
X14873255Y5460316D01*
X14866500Y5398134D01*
X14866500Y5129939D01*
X14846498Y5061818D01*
X14792842Y5015325D01*
X14740500Y5003939D01*
X14034360Y5003939D01*
X13966239Y5023941D01*
X13919746Y5077597D01*
X13908732Y5133498D01*
X13908500Y5133498D01*
X13908500Y5566502D01*
X13907936Y5573667D01*
X13906067Y5597421D01*
X13906066Y5597426D01*
X13905562Y5603831D01*
X13865649Y5741213D01*
X13861357Y5755988D01*
X13861356Y5755990D01*
X13859145Y5763601D01*
X13836328Y5802183D01*
X13778491Y5899980D01*
X13778489Y5899983D01*
X13774453Y5906807D01*
X13660803Y6020457D01*
X13626777Y6082769D01*
X13631842Y6153584D01*
X13674389Y6210420D01*
X13740909Y6235231D01*
X13749898Y6235552D01*
X14149875Y6235552D01*
X14217996Y6215550D01*
G37*
%TD.AperFunction*%
%TA.AperFunction,Conductor*%
G36*
X16741121Y7188998D02*
G01*
X16787614Y7135342D01*
X16799000Y7083000D01*
X16799000Y5990115D01*
X16803475Y5974875D01*
X16824497Y5956659D01*
X16862881Y5896933D01*
X16862881Y5825937D01*
X16831080Y5772340D01*
X16804145Y5745405D01*
X16741833Y5711379D01*
X16715050Y5708500D01*
X16236589Y5708500D01*
X16168468Y5728502D01*
X16161025Y5733673D01*
X16138773Y5750350D01*
X16096258Y5807208D01*
X16091232Y5878027D01*
X16125292Y5940320D01*
X16187623Y5974311D01*
X16227180Y5976520D01*
X16268097Y5972328D01*
X16273126Y5972071D01*
X16288124Y5976475D01*
X16289329Y5977865D01*
X16291000Y5985548D01*
X16291000Y7083000D01*
X16311002Y7151121D01*
X16364658Y7197614D01*
X16417000Y7209000D01*
X16673000Y7209000D01*
X16741121Y7188998D01*
G37*
%TD.AperFunction*%
%TD*%
M02*
