  0
SECTION
  2
HEADER
  9
$ACADVER
  1
AC1009
  9
$DWGCODEPAGE
  3
ANSI_1252
  9
$INSBASE
 10
0.0
 20
0.0
 30
0.0
  9
$EXTMIN
 10
1e+20
 20
1e+20
 30
1e+20
  9
$EXTMAX
 10
-1e+20
 20
-1e+20
 30
-1e+20
  9
$LIMMIN
 10
0.0
 20
0.0
  9
$LIMMAX
 10
420.0
 20
297.0
  9
$ORTHOMODE
 70
0
  9
$REGENMODE
 70
1
  9
$FILLMODE
 70
1
  9
$DRAGMODE
 70
2
  9
$QTEXTMODE
 70
0
  9
$MIRRTEXT
 70
1
  9
$OSMODE
 70
20583
  9
$LTSCALE
 40
1.0
  9
$ATTMODE
 70
1
  9
$TEXTSIZE
 40
2.5
  9
$TRACEWID
 40
1.0
  9
$TEXTSTYLE
  7
Standard
  9
$CLAYER
  8
0
  9
$CELTYPE
  6
ByLayer
  9
$CECOLOR
 62
256
  9
$DIMSCALE
 40
1.0
  9
$DIMASZ
 40
2.5
  9
$DIMEXO
 40
0.625
  9
$DIMDLI
 40
3.75
  9
$DIMRND
 40
0.0
  9
$DIMDLE
 40
0.0
  9
$DIMEXE
 40
1.25
  9
$DIMTP
 40
0.0
  9
$DIMTM
 40
0.0
  9
$DIMTXT
 40
2.5
  9
$DIMCEN
 40
2.5
  9
$DIMTSZ
 40
0.0
  9
$DIMTOL
 70
0
  9
$DIMLIM
 70
0
  9
$DIMTIH
 70
0
  9
$DIMTOH
 70
0
  9
$DIMSE1
 70
0
  9
$DIMSE2
 70
0
  9
$DIMTAD
 70
1
  9
$DIMZIN
 70
8
  9
$DIMBLK
  1

  9
$DIMASO
 70
1
  9
$DIMSHO
 70
1
  9
$DIMPOST
  1

  9
$DIMAPOST
  1

  9
$DIMALT
 70
0
  9
$DIMALTD
 70
3
  9
$DIMALTF
 40
0.03937007874
  9
$DIMLFAC
 40
1.0
  9
$DIMTOFL
 70
1
  9
$DIMTVP
 40
0.0
  9
$DIMTIX
 70
0
  9
$DIMSOXD
 70
0
  9
$DIMSAH
 70
0
  9
$DIMBLK1
  1

  9
$DIMBLK2
  1

  9
$DIMSTYLE
  2
ISO-25
  9
$DIMCLRD
 70
0
  9
$DIMCLRE
 70
0
  9
$DIMCLRT
 70
0
  9
$DIMTFAC
 40
1.0
  9
$DIMGAP
 40
0.625
  9
$COORDS
 70
1
  9
$ATTDIA
 70
0
  9
$ATTREQ
 70
1
  9
$HANDLING
 70
1
  9
$LUNITS
 70
2
  9
$LUPREC
 70
4
  9
$SKETCHINC
 40
1.0
  9
$FILLETRAD
 40
10.0
  9
$AUNITS
 70
0
  9
$AUPREC
 70
2
  9
$MENU
  1
.
  9
$ELEVATION
 40
0.0
  9
$PELEVATION
 40
0.0
  9
$THICKNESS
 40
0.0
  9
$LIMCHECK
 70
0
  9
$CHAMFERA
 40
0.0
  9
$CHAMFERB
 40
0.0
  9
$SKPOLY
 70
0
  9
$TDCREATE
 40
2459909.4106944446
  9
$TDUPDATE
 40
2459909.4106944446
  9
$TDINDWG
 40
0.0
  9
$TDUSRTIMER
 40
0.0
  9
$USRTIMER
 70
1
  9
$ANGBASE
 50
0.0
  9
$ANGDIR
 70
0
  9
$PDMODE
 70
0
  9
$PDSIZE
 40
0.0
  9
$PLINEWID
 40
0.0
  9
$SPLFRAME
 70
0
  9
$SPLINETYPE
 70
6
  9
$SPLINESEGS
 70
8
  9
$HANDSEED
  5
91
  9
$SURFTAB1
 70
6
  9
$SURFTAB2
 70
6
  9
$SURFTYPE
 70
6
  9
$SURFU
 70
6
  9
$SURFV
 70
6
  9
$UCSNAME
  2

  9
$UCSORG
 10
0.0
 20
0.0
 30
0.0
  9
$UCSXDIR
 10
1.0
 20
0.0
 30
0.0
  9
$UCSYDIR
 10
0.0
 20
1.0
 30
0.0
  9
$PUCSNAME
  2

  9
$PUCSORG
 10
0.0
 20
0.0
 30
0.0
  9
$PUCSXDIR
 10
1.0
 20
0.0
 30
0.0
  9
$PUCSYDIR
 10
0.0
 20
1.0
 30
0.0
  9
$USERI1
 70
0
  9
$USERI2
 70
0
  9
$USERI3
 70
0
  9
$USERI4
 70
0
  9
$USERI5
 70
0
  9
$USERR1
 40
0.0
  9
$USERR2
 40
0.0
  9
$USERR3
 40
0.0
  9
$USERR4
 40
0.0
  9
$USERR5
 40
0.0
  9
$WORLDVIEW
 70
1
  9
$SHADEDGE
 70
3
  9
$SHADEDIF
 70
70
  9
$TILEMODE
 70
1
  9
$MAXACTVP
 70
64
  9
$PLIMCHECK
 70
0
  9
$PEXTMIN
 10
1e+20
 20
1e+20
 30
1e+20
  9
$PEXTMAX
 10
-1e+20
 20
-1e+20
 30
-1e+20
  9
$PLIMMIN
 10
0.0
 20
0.0
  9
$PLIMMAX
 10
420.0
 20
297.0
  9
$UNITMODE
 70
0
  9
$VISRETAIN
 70
1
  9
$PLINEGEN
 70
0
  9
$PSLTSCALE
 70
1
  0
ENDSEC
  0
SECTION
  2
TABLES
  0
TABLE
  2
VPORT
 70
1
  0
VPORT
  5
23
  2
*Active
 70
0
 10
0.0
 20
0.0
 11
1.0
 21
1.0
 12
0.0
 22
0.0
 13
0.0
 23
0.0
 14
0.5
 24
0.5
 15
0.5
 25
0.5
 16
0.0
 26
0.0
 36
1.0
 17
0.0
 27
0.0
 37
0.0
 40
1000.0
 41
1.34
 42
50.0
 43
0.0
 44
0.0
 50
0.0
 51
0.0
 71
0
 72
1000
 73
1
 74
3
 75
0
 76
0
 77
0
 78
0
  0
ENDTAB
  0
TABLE
  2
LTYPE
 70
3
  0
LTYPE
  5
24
  2
ByBlock
 70
0
  3

 72
65
 73
0
 40
0.0
  0
LTYPE
  5
25
  2
ByLayer
 70
0
  3

 72
65
 73
0
 40
0.0
  0
LTYPE
  5
26
  2
Continuous
 70
0
  3

 72
65
 73
0
 40
0.0
  0
ENDTAB
  0
TABLE
  2
LAYER
 70
2
  0
LAYER
  5
27
  2
0
 70
0
 62
7
  6
Continuous
  0
LAYER
  5
28
  2
Defpoints
 70
0
 62
7
  6
Continuous
  0
ENDTAB
  0
TABLE
  2
STYLE
 70
1
  0
STYLE
  5
29
  2
Standard
 70
0
 40
0.0
 41
1.0
 50
0.0
 71
0
 42
2.5
  3
txt
  4

  0
ENDTAB
  0
TABLE
  2
VIEW
 70
0
  0
ENDTAB
  0
TABLE
  2
UCS
 70
0
  0
ENDTAB
  0
TABLE
  2
APPID
 70
3
  0
APPID
  5
2A
  2
ACAD
 70
0
  0
APPID
  5
8F
  2
HATCHBACKGROUNDCOLOR
 70
0
  0
APPID
  5
90
  2
EZDXF
 70
0
  0
ENDTAB
  0
TABLE
  2
DIMSTYLE
 70
1
  0
DIMSTYLE
105
2B
  2
Standard
 70
0
  3

  4

  5

  6

  7

 40
1.0
 41
2.5
 42
0.625
 43
3.75
 44
1.25
 45
0.0
 46
0.0
 47
0.0
 48
0.0
140
2.5
141
2.5
142
0.0
143
0.03937007874
144
1.0
145
0.0
146
1.0
147
0.625
 71
0
 72
0
 73
0
 74
0
 75
0
 76
0
 77
1
 78
8
170
0
171
3
172
1
173
0
174
0
175
0
176
0
177
0
178
0
  0
ENDTAB
  0
ENDSEC
  0
SECTION
  2
BLOCKS
  0
BLOCK
  5
18
  8
0
  2
$Model_Space
 70
0
 10
0.0
 20
0.0
 30
0.0
  3
$Model_Space
  1

1001
EZDXF
1000
CREATED_BY_EZDXF
1000
0.18.1 @ 2022-11-25T01:51:24.278134+00:00
1000
WRITTEN_BY_EZDXF
1000
0.18.1 @ 2022-11-25T01:51:24.288071+00:00
  0
ENDBLK
  5
19
  8
0
  0
BLOCK
  5
1C
  8
0
  2
$Paper_Space
 70
0
 10
0.0
 20
0.0
 30
0.0
  3
$Paper_Space
  1

  0
ENDBLK
  5
1D
  8
0
  0
ENDSEC
  0
SECTION
  2
ENTITIES
  0
LINE
  5
2D
  8
main-inner-binding
  6
ByLayer
 10
350.3750000000001
 20
-8.000000000000002
 30
0.0
 11
-21.525
 21
-8.000000000000002
 31
0.0
  0
LINE
  5
2E
  8
main-inner-binding
  6
ByLayer
 10
350.3750000000001
 20
-50.86250000000001
 30
0.0
 11
-21.525
 21
-50.86250000000001
 31
0.0
  0
LINE
  5
2F
  8
main-inner-binding
  6
ByLayer
 10
-6.240451555075939
 20
-88.96250000000002
 30
0.0
 11
-21.525
 21
-88.9625
 31
0.0
  0
ARC
  5
30
  8
main-inner-binding
  6
ByLayer
 10
-6.240451555075943
 20
-94.26250000000002
 30
0.0
 40
5.3
 50
39.09624896923858
 51
89.99999999999996
  0
ARC
  5
31
  8
main-inner-binding
  6
ByLayer
 10
6.176951555075469
 20
-94.26250000000002
 30
0.0
 40
5.3
 50
89.99999999999997
 51
140.9037510307593
  0
LINE
  5
32
  8
main-inner-binding
  6
ByLayer
 10
17.63554844492442
 20
-88.96250000000002
 30
0.0
 11
6.176951555075471
 21
-88.96250000000002
 31
0.0
  0
ARC
  5
33
  8
main-inner-binding
  6
ByLayer
 10
17.63554844492442
 20
-94.26250000000003
 30
0.0
 40
5.3
 50
39.09624896924031
 51
90.0
  0
ARC
  5
34
  8
main-inner-binding
  6
ByLayer
 10
30.05295155507537
 20
-94.26249999999999
 30
0.0
 40
5.3
 50
90.00000000000024
 51
140.903751030759
  0
ARC
  5
35
  8
main-inner-binding
  6
ByLayer
 10
231.8845484449233
 20
-94.26249999999989
 30
0.0
 40
5.3
 50
39.09624896923443
 51
89.9999999999987
  0
ARC
  5
36
  8
main-inner-binding
  6
ByLayer
 10
244.3019515550776
 20
-94.2625
 30
0.0
 40
5.3
 50
90.0
 51
140.9037510307689
  0
LINE
  5
37
  8
main-inner-binding
  6
ByLayer
 10
255.7605484449235
 20
-88.96250000000005
 30
0.0
 11
244.3019515550776
 21
-88.96250000000002
 31
0.0
  0
ARC
  5
38
  8
main-inner-binding
  6
ByLayer
 10
255.7605484449235
 20
-94.26249999999999
 30
0.0
 40
5.3
 50
39.09624896923599
 51
90.0
  0
LINE
  5
39
  8
main-inner-binding
  6
ByLayer
 10
350.3750000000001
 20
-88.9625
 30
0.0
 11
268.1779515550745
 21
-88.96250000000006
 31
0.0
  0
ARC
  5
3A
  8
main-inner-binding
  6
ByLayer
 10
268.1779515550745
 20
-94.26250000000003
 30
0.0
 40
5.3
 50
90.0
 51
140.9037510307546
  0
ARC
  5
3B
  8
main-inner-binding
  6
ByLayer
 10
249.0644515550768
 20
-75.21250000000002
 30
0.0
 40
5.3
 50
90.0
 51
140.9037510307653
  0
LINE
  5
3C
  8
main-inner-binding
  6
ByLayer
 10
236.647048444925
 20
-69.91250000000001
 30
0.0
 11
-21.525
 21
-69.91250000000001
 31
0.0
  0
ARC
  5
3D
  8
main-inner-binding
  6
ByLayer
 10
236.647048444925
 20
-75.2125
 30
0.0
 40
5.3
 50
39.09624896924296
 51
90.0
  0
LINE
  5
3E
  8
main-inner-binding
  6
ByLayer
 10
260.5230484449233
 20
-69.91250000000004
 30
0.0
 11
249.0644515550768
 21
-69.91250000000002
 31
0.0
  0
ARC
  5
3F
  8
main-inner-binding
  6
ByLayer
 10
260.5230484449233
 20
-75.21250000000002
 30
0.0
 40
5.3
 50
39.09624896923568
 51
90.0
  0
LINE
  5
40
  8
main-inner-binding
  6
ByLayer
 10
350.3750000000001
 20
-69.91250000000001
 30
0.0
 11
272.940451555076
 21
-69.91250000000002
 31
0.0
  0
ARC
  5
41
  8
main-inner-binding
  6
ByLayer
 10
272.940451555076
 20
-75.21250000000003
 30
0.0
 40
5.3
 50
90.0
 51
140.9037510307619
  0
LINE
  5
42
  8
main-inner-binding
  6
ByLayer
 10
239.0282984449222
 20
-31.81250000000001
 30
0.0
 11
-21.525
 21
-31.8125
 31
0.0
  0
LINE
  5
43
  8
main-inner-binding
  6
ByLayer
 10
262.9042984449218
 20
-31.81249999999997
 30
0.0
 11
251.4457015550765
 21
-31.81249999999997
 31
0.0
  0
LINE
  5
44
  8
main-inner-binding
  6
ByLayer
 10
350.3750000000001
 20
-31.8125
 30
0.0
 11
275.3217015550758
 21
-31.81249999999997
 31
0.0
  0
ARC
  5
45
  8
main-inner-binding
  6
ByLayer
 10
239.0282984449222
 20
-37.11249999999998
 30
0.0
 40
5.3
 50
39.09624896923013
 51
90.0
  0
ARC
  5
46
  8
main-inner-binding
  6
ByLayer
 10
251.4457015550765
 20
-37.11249999999997
 30
0.0
 40
5.3
 50
90.0
 51
140.9037510307644
  0
ARC
  5
47
  8
main-inner-binding
  6
ByLayer
 10
262.9042984449218
 20
-37.11249999999997
 30
0.0
 40
5.3
 50
39.09624896922802
 51
90.0
  0
ARC
  5
48
  8
main-inner-binding
  6
ByLayer
 10
275.3217015550758
 20
-37.11249999999998
 30
0.0
 40
5.3
 50
90.0
 51
140.903751030761
  0
ARC
  5
49
  8
main-inner-binding
  6
ByLayer
 10
245.237
 20
-32.06750000000001
 30
0.0
 40
2.7
 50
219.0962489692297
 51
320.9037510307645
  0
ARC
  5
4A
  8
main-inner-binding
  6
ByLayer
 10
269.113
 20
-32.06750000000001
 30
0.0
 40
2.7
 50
219.0962489692279
 51
320.9037510307614
  0
ARC
  5
4B
  8
main-inner-binding
  6
ByLayer
 10
242.85575
 20
-70.1675
 30
0.0
 40
2.7
 50
219.0962489692427
 51
320.9037510307652
  0
ARC
  5
4C
  8
main-inner-binding
  6
ByLayer
 10
266.73175
 20
-70.1675
 30
0.0
 40
2.7
 50
219.0962489692352
 51
320.9037510307617
  0
ARC
  5
4D
  8
main-inner-binding
  6
ByLayer
 10
238.09325
 20
-89.2175
 30
0.0
 40
2.7
 50
219.096248969234
 51
320.9037510307687
  0
ARC
  5
4E
  8
main-inner-binding
  6
ByLayer
 10
261.96925
 20
-89.2175
 30
0.0
 40
2.7
 50
219.0962489692363
 51
320.9037510307548
  0
ARC
  5
4F
  8
main-inner-binding
  6
ByLayer
 10
-0.03175000000000061
 20
-89.2175
 30
0.0
 40
2.7
 50
219.0962489692386
 51
320.9037510307593
  0
ARC
  5
50
  8
main-inner-binding
  6
ByLayer
 10
23.84425
 20
-89.2175
 30
0.0
 40
2.7
 50
219.0962489692404
 51
320.9037510307589
  0
LINE
  5
51
  8
main-inner-binding
  6
ByLayer
 10
73.6255146145302
 20
-88.96249999999974
 30
0.0
 11
30.05295155507535
 21
-88.9625
 31
0.0
  0
ARC
  5
52
  8
main-inner-binding
  6
ByLayer
 10
76.19999999999999
 20
-91.75750000000001
 30
0.0
 40
3.8
 50
47.35170782715308
 51
132.6482921728466
  0
LINE
  5
53
  8
main-inner-binding
  6
ByLayer
 10
187.9255146145326
 20
-88.96249999999898
 30
0.0
 11
78.77448538546983
 21
-88.96249999999971
 31
0.0
  0
LINE
  5
54
  8
main-inner-binding
  6
ByLayer
 10
231.8845484449234
 20
-88.96249999999992
 30
0.0
 11
193.0744853854683
 21
-88.96249999999911
 31
0.0
  0
ARC
  5
55
  8
main-inner-binding
  6
ByLayer
 10
190.5
 20
-91.75750000000001
 30
0.0
 40
3.8
 50
47.35170782717651
 51
132.6482921728127
  0
ARC
  5
56
  8
main-inner-binding
  6
ByLayer
 10
249.2830814376356
 20
-10.51249999999976
 30
0.0
 40
5.3
 50
237.3519212088672
 51
270.0000000000056
  0
LINE
  5
57
  8
main-inner-binding
  6
ByLayer
 10
-21.525
 20
-15.8125
 30
0.0
 11
241.190918562362
 21
-15.81249999999997
 31
0.0
  0
ARC
  5
58
  8
main-inner-binding
  6
ByLayer
 10
241.190918562362
 20
-10.51249999999995
 30
0.0
 40
5.3
 50
269.9999999999997
 51
302.6480787911489
  0
LINE
  5
59
  8
main-inner-binding
  6
ByLayer
 10
249.2830814376361
 20
-15.81249999999976
 30
0.0
 11
265.1524261970785
 21
-15.81249999999819
 31
0.0
  0
ARC
  5
5A
  8
main-inner-binding
  6
ByLayer
 10
265.1524261970779
 20
-10.51249999999816
 30
0.0
 40
5.3
 50
270.0000000000059
 51
302.4350480748381
  0
LINE
  5
5B
  8
main-inner-binding
  6
ByLayer
 10
273.1975738029248
 20
-15.81249999999816
 30
0.0
 11
350.3750000000001
 21
-15.8125
 31
0.0
  0
ARC
  5
5C
  8
main-inner-binding
  6
ByLayer
 10
273.1975738029249
 20
-10.51249999999814
 30
0.0
 40
5.3
 50
237.5649519251443
 51
269.9999999999987
  0
ARC
  5
5D
  8
main-inner-binding
  6
ByLayer
 10
245.237
 20
-16.82750000000001
 30
0.0
 40
2.2
 50
57.35192120886726
 51
122.648078791149
  0
ARC
  5
5E
  8
main-inner-binding
  6
ByLayer
 10
269.175
 20
-16.84250000000001
 30
0.0
 40
2.2
 50
57.56495192514381
 51
122.4350480748379
  0
LINE
  5
5F
  8
main-inner-binding
  6
ByLayer
 10
-21.525
 20
-34.8625
 30
0.0
 11
242.7796246821808
 21
-34.86249999999981
 31
0.0
  0
ARC
  5
60
  8
main-inner-binding
  6
ByLayer
 10
245.237
 20
-32.06750000000001
 30
0.0
 40
3.721655337698402
 50
228.6779343569233
 51
311.3220656430876
  0
LINE
  5
61
  8
main-inner-binding
  6
ByLayer
 10
247.6943753178202
 20
-34.86249999999997
 30
0.0
 11
266.6556246821804
 21
-34.8625
 31
0.0
  0
LINE
  5
62
  8
main-inner-binding
  6
ByLayer
 10
271.5703753178236
 20
-34.86249999999949
 30
0.0
 11
350.3750000000001
 21
-34.8625
 31
0.0
  0
ARC
  5
63
  8
main-inner-binding
  6
ByLayer
 10
269.113
 20
-32.06750000000001
 30
0.0
 40
3.721655337698402
 50
228.6779343569196
 51
311.3220656431309
  0
LINE
  5
64
  8
main-inner-binding
  6
ByLayer
 10
-21.525
 20
-53.91249999999999
 30
0.0
 11
238.809668562364
 21
-53.91249999999819
 31
0.0
  0
ARC
  5
65
  8
main-inner-binding
  6
ByLayer
 10
238.809668562364
 20
-48.61249999999821
 30
0.0
 40
5.3
 50
270.0000000000007
 51
302.6480787911293
  0
ARC
  5
66
  8
main-inner-binding
  6
ByLayer
 10
242.85575
 20
-54.92750000000001
 30
0.0
 40
2.2
 50
57.35192120886655
 51
122.6480787911295
  0
ARC
  5
67
  8
main-inner-binding
  6
ByLayer
 10
246.9018314376364
 20
-48.6124999999986
 30
0.0
 40
5.3
 50
237.351921208867
 51
269.9999999999954
  0
LINE
  5
68
  8
main-inner-binding
  6
ByLayer
 10
246.901831437636
 20
-53.91249999999861
 30
0.0
 11
262.771176197075
 21
-53.91249999999982
 31
0.0
  0
ARC
  5
69
  8
main-inner-binding
  6
ByLayer
 10
262.7711761970754
 20
-48.61249999999984
 30
0.0
 40
5.3
 50
269.9999999999954
 51
302.4350480748605
  0
LINE
  5
6A
  8
main-inner-binding
  6
ByLayer
 10
270.8163238029275
 20
-53.9125000000004
 30
0.0
 11
350.3750000000001
 21
-53.91249999999999
 31
0.0
  0
ARC
  5
6B
  8
main-inner-binding
  6
ByLayer
 10
270.8163238029275
 20
-48.61250000000041
 30
0.0
 40
5.3
 50
237.5649519251182
 51
270.0
  0
ARC
  5
6C
  8
main-inner-binding
  6
ByLayer
 10
266.79375
 20
-54.94250000000001
 30
0.0
 40
2.2
 50
57.5649519251176
 51
122.4350480748609
  0
LINE
  5
6D
  8
main-inner-binding
  6
ByLayer
 10
-21.525
 20
-72.96249999999999
 30
0.0
 11
-4.077831437637932
 21
-72.96249999999992
 31
0.0
  0
ARC
  5
6E
  8
main-inner-binding
  6
ByLayer
 10
-4.077831437637951
 20
-67.66249999999992
 30
0.0
 40
5.3
 50
270.0000000000002
 51
302.6480787911486
  0
ARC
  5
6F
  8
main-inner-binding
  6
ByLayer
 10
-0.03175000000000061
 20
-73.9775
 30
0.0
 40
2.2
 50
57.35192120884983
 51
122.6480787911487
  0
ARC
  5
70
  8
main-inner-binding
  6
ByLayer
 10
4.01433143763817
 20
-67.66249999999995
 30
0.0
 40
5.3
 50
237.3519212088498
 51
270.0
  0
LINE
  5
71
  8
main-inner-binding
  6
ByLayer
 10
4.01433143763817
 20
-72.96249999999995
 30
0.0
 11
19.88367619707254
 21
-72.96249999999995
 31
0.0
  0
ARC
  5
72
  8
main-inner-binding
  6
ByLayer
 10
19.88367619707254
 20
-67.66249999999995
 30
0.0
 40
5.3
 50
270.0
 51
302.4350480748798
  0
ARC
  5
73
  8
main-inner-binding
  6
ByLayer
 10
27.92882380292791
 20
-67.66250000000008
 30
0.0
 40
5.3
 50
237.5649519251169
 51
270.0
  0
LINE
  5
74
  8
main-inner-binding
  6
ByLayer
 10
27.92882380292791
 20
-72.96250000000006
 30
0.0
 11
234.0471685623606
 21
-72.96250000000006
 31
0.0
  0
ARC
  5
75
  8
main-inner-binding
  6
ByLayer
 10
23.90625
 20
-73.9925
 30
0.0
 40
2.2
 50
57.56495192511684
 51
122.4350480748797
  0
ARC
  5
76
  8
main-inner-binding
  6
ByLayer
 10
234.0471685623606
 20
-67.6625000000001
 30
0.0
 40
5.3
 50
270.0000000000003
 51
302.648078791159
  0
ARC
  5
77
  8
main-inner-binding
  6
ByLayer
 10
238.09325
 20
-73.9775
 30
0.0
 40
2.2
 50
37.95574747840283
 51
122.648078791159
  0
ARC
  5
78
  8
main-inner-binding
  6
ByLayer
 10
258.0086761970716
 20
-67.66249999999991
 30
0.0
 40
5.3
 50
269.9999999999974
 51
302.4350480748854
  0
ARC
  5
79
  8
main-inner-binding
  6
ByLayer
 10
262.03125
 20
-73.9925
 30
0.0
 40
2.2
 50
39.73710429722922
 51
122.4350480748853
  0
LINE
  5
7A
  8
main-inner-binding
  6
ByLayer
 10
245.5801902853664
 20
-72.9624999999993
 30
0.0
 11
258.0086761970714
 21
-72.96249999999992
 31
0.0
  0
ARC
  5
7B
  8
main-inner-binding
  6
ByLayer
 10
242.8557500000003
 20
-70.2125
 30
0.0
 40
3.871056040476868
 50
218.588900841762
 51
314.7324926281669
  0
ARC
  5
7C
  8
main-inner-binding
  6
ByLayer
 10
266.73175
 20
-70.1675
 30
0.0
 40
3.860375956531774
 50
218.7151827653822
 51
313.6123875913024
  0
LINE
  5
7D
  8
main-inner-binding
  6
ByLayer
 10
269.394545058916
 20
-72.96250000000111
 30
0.0
 11
350.3750000000001
 21
-72.96249999999999
 31
0.0
  0
ARC
  5
7E
  8
main-inner-binding
  6
ByLayer
 10
69.9912984449246
 20
-86.7125
 30
0.0
 40
5.3
 50
270.0
 51
320.9037510307589
  0
ARC
  5
7F
  8
main-inner-binding
  6
ByLayer
 10
76.19999999999999
 20
-91.75750000000001
 30
0.0
 40
2.7
 50
39.09624896923942
 51
140.903751030759
  0
ARC
  5
80
  8
main-inner-binding
  6
ByLayer
 10
82.4087015550758
 20
-86.71249999999996
 30
0.0
 40
5.3
 50
219.0962489692393
 51
270.0
  0
LINE
  5
81
  8
main-inner-binding
  6
ByLayer
 10
82.4087015550758
 20
-92.01249999999999
 30
0.0
 11
184.2912984449245
 21
-92.01249999999997
 31
0.0
  0
ARC
  5
82
  8
main-inner-binding
  6
ByLayer
 10
184.2912984449245
 20
-86.71249999999998
 30
0.0
 40
5.3
 50
270.0
 51
320.9037510307593
  0
ARC
  5
83
  8
main-inner-binding
  6
ByLayer
 10
196.7087015550753
 20
-86.71249999999995
 30
0.0
 40
5.3
 50
219.0962489692415
 51
270.0
  0
ARC
  5
84
  8
main-inner-binding
  6
ByLayer
 10
190.5
 20
-91.75750000000001
 30
0.0
 40
2.7
 50
39.09624896924176
 51
140.9037510307592
  0
LINE
  5
85
  8
main-inner-binding
  6
ByLayer
 10
-21.525
 20
-92.01249999999999
 30
0.0
 11
-2.606235385470335
 21
-92.01249999999982
 31
0.0
  0
ARC
  5
86
  8
main-inner-binding
  6
ByLayer
 10
-0.03175000000000061
 20
-89.2175
 30
0.0
 40
3.8
 50
227.3517078271427
 51
312.6482921728546
  0
LINE
  5
87
  8
main-inner-binding
  6
ByLayer
 10
2.542735385470024
 20
-92.01249999999975
 30
0.0
 11
21.26976461452966
 21
-92.0125
 31
0.0
  0
LINE
  5
88
  8
main-inner-binding
  6
ByLayer
 10
26.41873538547015
 20
-92.01250000000002
 30
0.0
 11
69.9912984449246
 21
-92.0125
 31
0.0
  0
ARC
  5
89
  8
main-inner-binding
  6
ByLayer
 10
23.84425
 20
-89.2175
 30
0.0
 40
3.8
 50
227.3517078271445
 51
312.6482921728532
  0
LINE
  5
8A
  8
main-inner-binding
  6
ByLayer
 10
196.7087015550753
 20
-92.01249999999995
 30
0.0
 11
235.5187646145262
 21
-92.01249999999995
 31
0.0
  0
ARC
  5
8B
  8
main-inner-binding
  6
ByLayer
 10
238.09325
 20
-89.2175
 30
0.0
 40
3.8
 50
227.3517078271057
 51
312.6482921728752
  0
LINE
  5
8C
  8
main-inner-binding
  6
ByLayer
 10
240.6677353854721
 20
-92.01249999999997
 30
0.0
 11
259.3947646145319
 21
-92.01249999999938
 31
0.0
  0
ARC
  5
8D
  8
main-inner-binding
  6
ByLayer
 10
261.96925
 20
-89.2175
 30
0.0
 40
3.8
 50
227.3517078271635
 51
312.6482921728351
  0
LINE
  5
8E
  8
main-inner-binding
  6
ByLayer
 10
264.5437353854679
 20
-92.01249999999933
 30
0.0
 11
350.3750000000001
 21
-92.01249999999999
 31
0.0
  0
ENDSEC
  0
EOF
