  0
SECTION
  2
HEADER
  9
$ACADVER
  1
AC1009
  9
$DWGCODEPAGE
  3
ANSI_1252
  9
$INSBASE
 10
0.0
 20
0.0
 30
0.0
  9
$EXTMIN
 10
1e+20
 20
1e+20
 30
1e+20
  9
$EXTMAX
 10
-1e+20
 20
-1e+20
 30
-1e+20
  9
$LIMMIN
 10
0.0
 20
0.0
  9
$LIMMAX
 10
420.0
 20
297.0
  9
$ORTHOMODE
 70
0
  9
$REGENMODE
 70
1
  9
$FILLMODE
 70
1
  9
$DRAGMODE
 70
2
  9
$QTEXTMODE
 70
0
  9
$MIRRTEXT
 70
1
  9
$OSMODE
 70
20583
  9
$LTSCALE
 40
1.0
  9
$ATTMODE
 70
1
  9
$TEXTSIZE
 40
2.5
  9
$TRACEWID
 40
1.0
  9
$TEXTSTYLE
  7
Standard
  9
$CLAYER
  8
0
  9
$CELTYPE
  6
ByLayer
  9
$CECOLOR
 62
256
  9
$DIMSCALE
 40
1.0
  9
$DIMASZ
 40
2.5
  9
$DIMEXO
 40
0.625
  9
$DIMDLI
 40
3.75
  9
$DIMRND
 40
0.0
  9
$DIMDLE
 40
0.0
  9
$DIMEXE
 40
1.25
  9
$DIMTP
 40
0.0
  9
$DIMTM
 40
0.0
  9
$DIMTXT
 40
2.5
  9
$DIMCEN
 40
2.5
  9
$DIMTSZ
 40
0.0
  9
$DIMTOL
 70
0
  9
$DIMLIM
 70
0
  9
$DIMTIH
 70
0
  9
$DIMTOH
 70
0
  9
$DIMSE1
 70
0
  9
$DIMSE2
 70
0
  9
$DIMTAD
 70
1
  9
$DIMZIN
 70
8
  9
$DIMBLK
  1

  9
$DIMASO
 70
1
  9
$DIMSHO
 70
1
  9
$DIMPOST
  1

  9
$DIMAPOST
  1

  9
$DIMALT
 70
0
  9
$DIMALTD
 70
3
  9
$DIMALTF
 40
0.03937007874
  9
$DIMLFAC
 40
1.0
  9
$DIMTOFL
 70
1
  9
$DIMTVP
 40
0.0
  9
$DIMTIX
 70
0
  9
$DIMSOXD
 70
0
  9
$DIMSAH
 70
0
  9
$DIMBLK1
  1

  9
$DIMBLK2
  1

  9
$DIMSTYLE
  2
ISO-25
  9
$DIMCLRD
 70
0
  9
$DIMCLRE
 70
0
  9
$DIMCLRT
 70
0
  9
$DIMTFAC
 40
1.0
  9
$DIMGAP
 40
0.625
  9
$COORDS
 70
1
  9
$ATTDIA
 70
0
  9
$ATTREQ
 70
1
  9
$HANDLING
 70
1
  9
$LUNITS
 70
2
  9
$LUPREC
 70
4
  9
$SKETCHINC
 40
1.0
  9
$FILLETRAD
 40
10.0
  9
$AUNITS
 70
0
  9
$AUPREC
 70
2
  9
$MENU
  1
.
  9
$ELEVATION
 40
0.0
  9
$PELEVATION
 40
0.0
  9
$THICKNESS
 40
0.0
  9
$LIMCHECK
 70
0
  9
$CHAMFERA
 40
0.0
  9
$CHAMFERB
 40
0.0
  9
$SKPOLY
 70
0
  9
$TDCREATE
 40
2459931.4605092593
  9
$TDUPDATE
 40
2459931.4605092593
  9
$TDINDWG
 40
0.0
  9
$TDUSRTIMER
 40
0.0
  9
$USRTIMER
 70
1
  9
$ANGBASE
 50
0.0
  9
$ANGDIR
 70
0
  9
$PDMODE
 70
0
  9
$PDSIZE
 40
0.0
  9
$PLINEWID
 40
0.0
  9
$SPLFRAME
 70
0
  9
$SPLINETYPE
 70
6
  9
$SPLINESEGS
 70
8
  9
$HANDSEED
  5
16A
  9
$SURFTAB1
 70
6
  9
$SURFTAB2
 70
6
  9
$SURFTYPE
 70
6
  9
$SURFU
 70
6
  9
$SURFV
 70
6
  9
$UCSNAME
  2

  9
$UCSORG
 10
0.0
 20
0.0
 30
0.0
  9
$UCSXDIR
 10
1.0
 20
0.0
 30
0.0
  9
$UCSYDIR
 10
0.0
 20
1.0
 30
0.0
  9
$PUCSNAME
  2

  9
$PUCSORG
 10
0.0
 20
0.0
 30
0.0
  9
$PUCSXDIR
 10
1.0
 20
0.0
 30
0.0
  9
$PUCSYDIR
 10
0.0
 20
1.0
 30
0.0
  9
$USERI1
 70
0
  9
$USERI2
 70
0
  9
$USERI3
 70
0
  9
$USERI4
 70
0
  9
$USERI5
 70
0
  9
$USERR1
 40
0.0
  9
$USERR2
 40
0.0
  9
$USERR3
 40
0.0
  9
$USERR4
 40
0.0
  9
$USERR5
 40
0.0
  9
$WORLDVIEW
 70
1
  9
$SHADEDGE
 70
3
  9
$SHADEDIF
 70
70
  9
$TILEMODE
 70
1
  9
$MAXACTVP
 70
64
  9
$PLIMCHECK
 70
0
  9
$PEXTMIN
 10
1e+20
 20
1e+20
 30
1e+20
  9
$PEXTMAX
 10
-1e+20
 20
-1e+20
 30
-1e+20
  9
$PLIMMIN
 10
0.0
 20
0.0
  9
$PLIMMAX
 10
420.0
 20
297.0
  9
$UNITMODE
 70
0
  9
$VISRETAIN
 70
1
  9
$PLINEGEN
 70
0
  9
$PSLTSCALE
 70
1
  0
ENDSEC
  0
SECTION
  2
TABLES
  0
TABLE
  2
VPORT
 70
1
  0
VPORT
  5
23
  2
*Active
 70
0
 10
0.0
 20
0.0
 11
1.0
 21
1.0
 12
0.0
 22
0.0
 13
0.0
 23
0.0
 14
0.5
 24
0.5
 15
0.5
 25
0.5
 16
0.0
 26
0.0
 36
1.0
 17
0.0
 27
0.0
 37
0.0
 40
1000.0
 41
1.34
 42
50.0
 43
0.0
 44
0.0
 50
0.0
 51
0.0
 71
0
 72
1000
 73
1
 74
3
 75
0
 76
0
 77
0
 78
0
  0
ENDTAB
  0
TABLE
  2
LTYPE
 70
3
  0
LTYPE
  5
24
  2
ByBlock
 70
0
  3

 72
65
 73
0
 40
0.0
  0
LTYPE
  5
25
  2
ByLayer
 70
0
  3

 72
65
 73
0
 40
0.0
  0
LTYPE
  5
26
  2
Continuous
 70
0
  3

 72
65
 73
0
 40
0.0
  0
ENDTAB
  0
TABLE
  2
LAYER
 70
2
  0
LAYER
  5
27
  2
0
 70
0
 62
7
  6
Continuous
  0
LAYER
  5
28
  2
Defpoints
 70
0
 62
7
  6
Continuous
  0
ENDTAB
  0
TABLE
  2
STYLE
 70
1
  0
STYLE
  5
29
  2
Standard
 70
0
 40
0.0
 41
1.0
 50
0.0
 71
0
 42
2.5
  3
txt
  4

  0
ENDTAB
  0
TABLE
  2
VIEW
 70
0
  0
ENDTAB
  0
TABLE
  2
UCS
 70
0
  0
ENDTAB
  0
TABLE
  2
APPID
 70
3
  0
APPID
  5
2A
  2
ACAD
 70
0
  0
APPID
  5
168
  2
HATCHBACKGROUNDCOLOR
 70
0
  0
APPID
  5
169
  2
EZDXF
 70
0
  0
ENDTAB
  0
TABLE
  2
DIMSTYLE
 70
1
  0
DIMSTYLE
105
2B
  2
Standard
 70
0
  3

  4

  5

  6

  7

 40
1.0
 41
2.5
 42
0.625
 43
3.75
 44
1.25
 45
0.0
 46
0.0
 47
0.0
 48
0.0
140
2.5
141
2.5
142
0.0
143
0.03937007874
144
1.0
145
0.0
146
1.0
147
0.625
 71
0
 72
0
 73
0
 74
0
 75
0
 76
0
 77
1
 78
8
170
0
171
3
172
1
173
0
174
0
175
0
176
0
177
0
178
0
  0
ENDTAB
  0
ENDSEC
  0
SECTION
  2
BLOCKS
  0
BLOCK
  5
18
  8
0
  2
$Model_Space
 70
0
 10
0.0
 20
0.0
 30
0.0
  3
$Model_Space
  1

1001
EZDXF
1000
CREATED_BY_EZDXF
1000
0.18.1 @ 2022-12-17T03:03:08.418746+00:00
1000
WRITTEN_BY_EZDXF
1000
0.18.1 @ 2022-12-17T03:03:08.446778+00:00
  0
ENDBLK
  5
19
  8
0
  0
BLOCK
  5
1C
  8
0
  2
$Paper_Space
 70
0
 10
0.0
 20
0.0
 30
0.0
  3
$Paper_Space
  1

  0
ENDBLK
  5
1D
  8
0
  0
ENDSEC
  0
SECTION
  2
ENTITIES
  0
ARC
  5
2D
  8
panel-edge-moved
  6
ByLayer
 10
-21.02499999999999
 20
27.62500000000001
 30
0.0
 40
2.5
 50
90.0
 51
179.9999999999999
  0
LINE
  5
2E
  8
panel-edge-moved
  6
ByLayer
 10
-21.02499999999999
 20
30.12500000000001
 30
0.0
 11
-4.024999999999999
 21
30.12500000000001
 31
0.0
  0
ARC
  5
2F
  8
panel-edge-moved
  6
ByLayer
 10
-4.024999999999999
 20
27.62500000000001
 30
0.0
 40
2.5
 50
0.0
 51
90.0
  0
LINE
  5
30
  8
panel-edge-moved
  6
ByLayer
 10
-1.524999999999998
 20
27.62500000000001
 30
0.0
 11
-1.524999999999999
 21
22.66900000000003
 31
0.0
  0
ARC
  5
31
  8
panel-edge-moved
  6
ByLayer
 10
-2.524999999999999
 20
22.66900009030869
 30
0.0
 40
1.000000000000004
 50
179.9999948256949
 51
359.9999948256949
  0
LINE
  5
32
  8
panel-edge-moved
  6
ByLayer
 10
-3.524999999999999
 20
22.66900018061735
 30
0.0
 11
-3.524999999999999
 21
26.12500000000001
 31
0.0
  0
ARC
  5
33
  8
panel-edge-moved
  6
ByLayer
 10
-5.524999999999999
 20
26.12500000000001
 30
0.0
 40
2.0
 50
0.0
 51
90.0
  0
LINE
  5
34
  8
panel-edge-moved
  6
ByLayer
 10
-5.524999999999999
 20
28.12500000000001
 30
0.0
 11
-19.525
 21
28.12500000000001
 31
0.0
  0
ARC
  5
35
  8
panel-edge-moved
  6
ByLayer
 10
-19.525
 20
26.12500000000001
 30
0.0
 40
2.0
 50
90.0
 51
180.0
  0
LINE
  5
36
  8
panel-edge-moved
  6
ByLayer
 10
-21.525
 20
26.12500000000001
 30
0.0
 11
-21.52499999999999
 21
22.66900000000003
 31
0.0
  0
ARC
  5
37
  8
panel-edge-moved
  6
ByLayer
 10
-22.52499999999999
 20
22.66900000000003
 30
0.0
 40
1.0
 50
180.0
 51
0.0
  0
LINE
  5
38
  8
panel-edge-moved
  6
ByLayer
 10
-23.52499999999999
 20
22.66900000000003
 30
0.0
 11
-23.52499999999999
 21
27.62500000000001
 31
0.0
  0
LINE
  5
39
  8
panel-edge-moved
  6
ByLayer
 10
-21.525
 20
-8.300000000000002
 30
0.0
 11
-21.525
 21
-2.793999999999987
 31
0.0
  0
ARC
  5
3A
  8
panel-edge-moved
  6
ByLayer
 10
-22.525
 20
-2.793999999837261
 30
0.0
 40
1.000000000000001
 50
359.9999999906765
 51
180.0000140714722
  0
LINE
  5
3B
  8
panel-edge-moved
  6
ByLayer
 10
-23.52499999999997
 20
-2.794000245430781
 30
0.0
 11
-23.5249999999942
 21
-16.99100050679078
 31
0.0
  0
ARC
  5
3C
  8
panel-edge-moved
  6
ByLayer
 10
-22.52499999999762
 20
-16.99099785766171
 30
0.0
 40
1.000000000000085
 50
180.0001517839148
 51
359.9998727683881
  0
LINE
  5
3D
  8
panel-edge-moved
  6
ByLayer
 10
-21.525
 20
-16.99100007827225
 30
0.0
 11
-21.525
 21
-11.48499999999941
 31
0.0
  0
LINE
  5
3E
  8
panel-edge-moved
  6
ByLayer
 10
350.3750000000001
 20
-11.48499999999941
 30
0.0
 11
350.375000000004
 21
-16.99100050679078
 31
0.0
  0
ARC
  5
3F
  8
panel-edge-moved
  6
ByLayer
 10
351.3750000000009
 20
-16.99099755738325
 30
0.0
 40
1.000000000001221
 50
180.0001689886036
 51
359.9998899730768
  0
LINE
  5
40
  8
panel-edge-moved
  6
ByLayer
 10
352.3750000000002
 20
-16.99099947771532
 30
0.0
 11
352.3750000000002
 21
-2.794000506791362
 31
0.0
  0
ARC
  5
41
  8
panel-edge-moved
  6
ByLayer
 10
351.3750000000002
 20
-2.794000506628636
 30
0.0
 40
0.9999999999999867
 50
359.9999999906765
 51
180.0000140714722
  0
LINE
  5
42
  8
panel-edge-moved
  6
ByLayer
 10
350.3750000000003
 20
-2.794000752222156
 30
0.0
 11
350.3750000000001
 21
-8.300000000000002
 31
0.0
  0
ARC
  5
43
  8
panel-edge-moved
  6
ByLayer
 10
265.1524261970755
 20
-6.484999999998278
 30
0.0
 40
4.999999999999291
 50
270.0000000000333
 51
302.4350480748653
  0
ARC
  5
44
  8
panel-edge-moved
  6
ByLayer
 10
269.1750000000001
 20
-12.81499999999945
 30
0.0
 40
2.500000000000056
 50
57.56495192514595
 51
122.43504807484
  0
ARC
  5
45
  8
panel-edge-moved
  6
ByLayer
 10
273.1975738029249
 20
-6.484999999997584
 30
0.0
 40
4.999999999999986
 50
237.5649519251443
 51
269.9999999999987
  0
ARC
  5
46
  8
panel-edge-moved
  6
ByLayer
 10
241.190918562362
 20
-6.48499999999933
 30
0.0
 40
5.000000000000027
 50
270.0
 51
302.6480787911491
  0
ARC
  5
47
  8
panel-edge-moved
  6
ByLayer
 10
245.2369999999989
 20
-12.79999999999943
 30
0.0
 40
2.49999999999942
 50
57.35192120884706
 51
122.6480787911289
  0
ARC
  5
48
  8
panel-edge-moved
  6
ByLayer
 10
249.2830814376356
 20
-6.484999999999142
 30
0.0
 40
5.000000000000027
 50
237.3519212088671
 51
270.0000000000056
  0
LINE
  5
49
  8
panel-edge-moved
  6
ByLayer
 10
249.2830814376361
 20
-11.48499999999917
 30
0.0
 11
265.1524261970784
 21
-11.48499999999757
 31
0.0
  0
ARC
  5
4A
  8
panel-edge-moved
  6
ByLayer
 10
245.236999999999
 20
-28.03999999999942
 30
0.0
 40
3.000000000000784
 50
219.0962489692419
 51
320.9037510307768
  0
ARC
  5
4B
  8
panel-edge-moved
  6
ByLayer
 10
239.0282984449222
 20
-33.0849999999994
 30
0.0
 40
4.999999999999975
 50
39.09624896923044
 51
90.00000000000033
  0
ARC
  5
4C
  8
panel-edge-moved
  6
ByLayer
 10
245.2370000000002
 20
-29.61834466230179
 30
0.0
 40
3.42165533769855
 50
226.8176299649869
 51
313.1823700350079
  0
LINE
  5
4D
  8
panel-edge-moved
  6
ByLayer
 10
247.5785166559309
 20
-32.11334466230179
 30
0.0
 11
266.7714833440689
 21
-32.11334466230126
 31
0.0
  0
ARC
  5
4E
  8
panel-edge-moved
  6
ByLayer
 10
269.113
 20
-29.61834466230177
 30
0.0
 40
3.421655337698453
 50
226.8176299649814
 51
313.1823700350185
  0
ARC
  5
4F
  8
panel-edge-moved
  6
ByLayer
 10
275.3217015550758
 20
-33.0849999999994
 30
0.0
 40
5.000000000000004
 50
90.00000000000065
 51
140.903751030761
  0
ARC
  5
50
  8
panel-edge-moved
  6
ByLayer
 10
269.1129999999988
 20
-28.03999999999942
 30
0.0
 40
3.00000000000096
 50
219.0962489692421
 51
320.9037510307756
  0
ARC
  5
51
  8
panel-edge-moved
  6
ByLayer
 10
262.9042984449218
 20
-33.08499999999936
 30
0.0
 40
4.999999999999988
 50
39.09624896922799
 51
90.0
  0
LINE
  5
52
  8
panel-edge-moved
  6
ByLayer
 10
262.9042984449218
 20
-28.08499999999938
 30
0.0
 11
251.4457015550765
 21
-28.08499999999938
 31
0.0
  0
ARC
  5
53
  8
panel-edge-moved
  6
ByLayer
 10
251.4457015550759
 20
-33.08499999999962
 30
0.0
 40
5.000000000000252
 50
89.99999999999284
 51
140.9037510307575
  0
ARC
  5
54
  8
panel-edge-moved
  6
ByLayer
 10
242.855750000002
 20
-69.88533169519083
 30
0.0
 40
3.571056040478181
 50
218.5889008417439
 51
316.6800621007822
  0
LINE
  5
55
  8
panel-edge-moved
  6
ByLayer
 10
245.4538149037794
 20
-72.33533169519004
 30
0.0
 11
258.0086761970714
 21
-72.33533169519066
 31
0.0
  0
ARC
  5
56
  8
panel-edge-moved
  6
ByLayer
 10
258.0086761970723
 20
-67.33533169519042
 30
0.0
 40
5.00000000000025
 50
269.9999999999895
 51
302.4350480748778
  0
ARC
  5
57
  8
panel-edge-moved
  6
ByLayer
 10
262.0312499999999
 20
-73.66533169519073
 30
0.0
 40
2.500000000000013
 50
39.73710429722841
 51
122.435048074884
  0
ARC
  5
58
  8
panel-edge-moved
  6
ByLayer
 10
266.7317500000005
 20
-69.84033169519076
 30
0.0
 40
3.560375956532204
 50
218.7151827653763
 51
315.511291199775
  0
ARC
  5
59
  8
panel-edge-moved
  6
ByLayer
 10
272.9404515550758
 20
-73.49834466230193
 30
0.0
 40
5.000000000000094
 50
89.99999999999804
 51
140.9037510307597
  0
ARC
  5
5A
  8
panel-edge-moved
  6
ByLayer
 10
266.7317499999995
 20
-68.45334466230182
 30
0.0
 40
3.000000000000403
 50
219.0962489692406
 51
320.9037510307677
  0
ARC
  5
5B
  8
panel-edge-moved
  6
ByLayer
 10
260.5230484449232
 20
-73.49834466230185
 30
0.0
 40
5.000000000000004
 50
39.09624896923545
 51
89.99999999999935
  0
LINE
  5
5C
  8
panel-edge-moved
  6
ByLayer
 10
260.5230484449233
 20
-68.49834466230183
 30
0.0
 11
249.0644515550768
 21
-68.49834466230183
 31
0.0
  0
ARC
  5
5D
  8
panel-edge-moved
  6
ByLayer
 10
249.0644515550759
 20
-73.49834466230226
 30
0.0
 40
5.000000000000425
 50
89.99999999999022
 51
140.9037510307555
  0
ARC
  5
5E
  8
panel-edge-moved
  6
ByLayer
 10
242.8557500000004
 20
-68.45334466230179
 30
0.0
 40
2.999999999999757
 50
219.0962489692378
 51
320.9037510307601
  0
ARC
  5
5F
  8
panel-edge-moved
  6
ByLayer
 10
236.647048444925
 20
-73.49834466230178
 30
0.0
 40
4.99999999999997
 50
39.0962489692427
 51
89.99999999999967
  0
ARC
  5
60
  8
panel-edge-moved
  6
ByLayer
 10
234.0471685623617
 20
-67.33533169519065
 30
0.0
 40
5.000000000000203
 50
269.9999999999879
 51
302.6480787911468
  0
ARC
  5
61
  8
panel-edge-moved
  6
ByLayer
 10
238.09325
 20
-73.65033169519072
 30
0.0
 40
2.499999999999978
 50
37.95574747840245
 51
122.6480787911602
  0
ARC
  5
62
  8
panel-edge-moved
  6
ByLayer
 10
262.7711761970728
 20
-46.89834466230241
 30
0.0
 40
4.99999999999922
 50
270.0000000000254
 51
302.4350480748904
  0
ARC
  5
63
  8
panel-edge-moved
  6
ByLayer
 10
266.7937499999996
 20
-53.22834466230184
 30
0.0
 40
2.499999999999797
 50
57.56495192510966
 51
122.4350480748529
  0
ARC
  5
64
  8
panel-edge-moved
  6
ByLayer
 10
270.8163238029274
 20
-46.89834466230227
 30
0.0
 40
4.999999999999935
 50
237.5649519251192
 51
270.0000000000013
  0
ARC
  5
65
  8
panel-edge-moved
  6
ByLayer
 10
238.8096685623646
 20
-46.89834466229994
 30
0.0
 40
5.000000000000076
 50
269.9999999999938
 51
302.6480787911225
  0
ARC
  5
66
  8
panel-edge-moved
  6
ByLayer
 10
242.8557500000002
 20
-53.2133446623018
 30
0.0
 40
2.50000000000011
 50
57.35192120886986
 51
122.6480787911328
  0
ARC
  5
67
  8
panel-edge-moved
  6
ByLayer
 10
246.9018314376364
 20
-46.89834466230039
 30
0.0
 40
5.000000000000023
 50
237.351921208867
 51
269.9999999999954
  0
LINE
  5
68
  8
panel-edge-moved
  6
ByLayer
 10
246.901831437636
 20
-51.89834466230041
 30
0.0
 11
262.771176197075
 21
-51.89834466230163
 31
0.0
  0
LINE
  5
69
  8
panel-edge-moved
  6
ByLayer
 10
2.422832449215937
 20
-92.88533169518935
 30
0.0
 11
21.38966755078319
 21
-92.88533169518944
 31
0.0
  0
ARC
  5
6A
  8
panel-edge-moved
  6
ByLayer
 10
23.84424999999931
 20
-90.3903316951896
 30
0.0
 40
3.499999999999851
 50
225.4678583762578
 51
314.5321416237381
  0
LINE
  5
6B
  8
panel-edge-moved
  6
ByLayer
 10
26.29883244921525
 20
-92.8853316951896
 30
0.0
 11
69.99129844492411
 21
-92.88533169518962
 31
0.0
  0
ARC
  5
6C
  8
panel-edge-moved
  6
ByLayer
 10
69.99129844492381
 20
-87.88533169518973
 30
0.0
 40
4.999999999999881
 50
270.0000000000034
 51
320.9037510307622
  0
ARC
  5
6D
  8
panel-edge-moved
  6
ByLayer
 10
76.19999999999956
 20
-92.93033169518961
 30
0.0
 40
3.000000000000033
 50
39.09624896924026
 51
140.9037510307597
  0
ARC
  5
6E
  8
panel-edge-moved
  6
ByLayer
 10
82.40870155507535
 20
-87.88533169518958
 30
0.0
 40
5.000000000000019
 50
219.0962489692388
 51
269.9999999999995
  0
ARC
  5
6F
  8
panel-edge-moved
  6
ByLayer
 10
76.20000000000019
 20
-91.43033169519074
 30
0.0
 40
3.499999999999854
 50
45.46785837627308
 51
134.5321416237324
  0
LINE
  5
70
  8
panel-edge-moved
  6
ByLayer
 10
73.7454175507845
 20
-88.93533169519048
 30
0.0
 11
30.05295155507535
 21
-88.93533169519073
 31
0.0
  0
ARC
  5
71
  8
panel-edge-moved
  6
ByLayer
 10
30.0529515550757
 20
-93.93533169519057
 30
0.0
 40
4.999999999999845
 50
90.000000000004
 51
140.9037510307629
  0
ARC
  5
72
  8
panel-edge-moved
  6
ByLayer
 10
23.84425000000007
 20
-88.89033169519077
 30
0.0
 40
2.999999999999938
 50
219.0962489692393
 51
320.9037510307583
  0
ARC
  5
73
  8
panel-edge-moved
  6
ByLayer
 10
17.6355484449244
 20
-93.93533169519078
 30
0.0
 40
5.000000000000015
 50
39.09624896924016
 51
89.9999999999998
  0
LINE
  5
74
  8
panel-edge-moved
  6
ByLayer
 10
17.63554844492442
 20
-88.93533169519077
 30
0.0
 11
6.176951555075472
 21
-88.93533169519077
 31
0.0
  0
ARC
  5
75
  8
panel-edge-moved
  6
ByLayer
 10
6.176951555075682
 20
-93.93533169519067
 30
0.0
 40
4.999999999999901
 50
90.00000000000242
 51
140.9037510307617
  0
ARC
  5
76
  8
panel-edge-moved
  6
ByLayer
 10
-0.03175000000010847
 20
-88.89033169519074
 30
0.0
 40
3.000000000000081
 50
219.0962489692401
 51
320.9037510307602
  0
ARC
  5
77
  8
panel-edge-moved
  6
ByLayer
 10
-6.240451555075946
 20
-93.93533169519077
 30
0.0
 40
4.999999999999999
 50
39.0962489692386
 51
89.99999999999993
  0
LINE
  5
78
  8
panel-edge-moved
  6
ByLayer
 10
-6.240451555075939
 20
-88.93533169519077
 30
0.0
 11
-21.525
 21
-88.93533169519075
 31
0.0
  0
LINE
  5
79
  8
panel-edge-moved
  6
ByLayer
 10
-21.525
 20
-88.93533169519075
 30
0.0
 11
-21.52499999999991
 21
-83.42933220198213
 31
0.0
  0
ARC
  5
7A
  8
panel-edge-moved
  6
ByLayer
 10
-22.52499999999046
 20
-83.42933194858645
 30
0.0
 40
0.9999999999905872
 50
359.9999854814968
 51
179.999985481496
  0
LINE
  5
7B
  8
panel-edge-moved
  6
ByLayer
 10
-23.52499999998102
 20
-83.42933169519075
 30
0.0
 11
-23.52499999998922
 21
-98.39134901713489
 31
0.0
  0
ARC
  5
7C
  8
panel-edge-moved
  6
ByLayer
 10
-22.52499999999793
 20
-98.39134440459097
 30
0.0
 40
1.000000000001923
 50
180.0002642792993
 51
0.0002642792993413213
  0
LINE
  5
7D
  8
panel-edge-moved
  6
ByLayer
 10
-21.52500000000665
 20
-98.39133979204705
 30
0.0
 11
-21.52500000000048
 21
-92.88533169518959
 31
0.0
  0
LINE
  5
7E
  8
panel-edge-moved
  6
ByLayer
 10
-21.52500000000048
 20
-92.88533169518959
 30
0.0
 11
-2.486332449216916
 21
-92.88533169518934
 31
0.0
  0
ARC
  5
7F
  8
panel-edge-moved
  6
ByLayer
 10
-0.0317500000004797
 20
-90.3903316951896
 30
0.0
 40
3.500000000000001
 50
225.4678583762529
 51
314.5321416237467
  0
ARC
  5
80
  8
panel-edge-moved
  6
ByLayer
 10
19.88367619707249
 20
-67.33533169519066
 30
0.0
 40
5.00000000000001
 50
270.0000000000005
 51
302.4350480748801
  0
ARC
  5
81
  8
panel-edge-moved
  6
ByLayer
 10
23.90625000000006
 20
-73.66533169519077
 30
0.0
 40
2.500000000000026
 50
57.56495192511824
 51
122.4350480748806
  0
ARC
  5
82
  8
panel-edge-moved
  6
ByLayer
 10
27.92882380292786
 20
-67.33533169519082
 30
0.0
 40
4.999999999999996
 50
237.5649519251174
 51
270.0000000000006
  0
LINE
  5
83
  8
panel-edge-moved
  6
ByLayer
 10
-21.525
 20
-68.4983446623018
 30
0.0
 11
-21.52500000000119
 21
-62.99233975162423
 31
0.0
  0
ARC
  5
84
  8
panel-edge-moved
  6
ByLayer
 10
-22.52499999999635
 20
-62.99234023735788
 30
0.0
 40
0.9999999999952773
 50
2.783048814885357e-05
 51
180.0000278304886
  0
LINE
  5
85
  8
panel-edge-moved
  6
ByLayer
 10
-23.52499999999151
 20
-62.99234072309154
 30
0.0
 11
-23.52499999997586
 21
-77.84133279254735
 31
0.0
  0
ARC
  5
86
  8
panel-edge-moved
  6
ByLayer
 10
-22.52500000000225
 20
-77.84132495278342
 30
0.0
 40
1.000000000004341
 50
180.0004491853852
 51
0.0004491853852393995
  0
LINE
  5
87
  8
panel-edge-moved
  6
ByLayer
 10
-21.52500000002864
 20
-77.8413171130195
 30
0.0
 11
-21.525
 21
-72.33533169519075
 31
0.0
  0
LINE
  5
88
  8
panel-edge-moved
  6
ByLayer
 10
-21.525
 20
-72.33533169519075
 30
0.0
 11
-4.077831437637931
 21
-72.33533169519067
 31
0.0
  0
ARC
  5
89
  8
panel-edge-moved
  6
ByLayer
 10
-4.077831437637984
 20
-67.33533169519067
 30
0.0
 40
4.999999999999994
 50
270.0000000000006
 51
302.6480787911489
  0
ARC
  5
8A
  8
panel-edge-moved
  6
ByLayer
 10
-0.0317499999999353
 20
-73.65033169519077
 30
0.0
 40
2.500000000000028
 50
57.35192120885129
 51
122.64807879115
  0
ARC
  5
8B
  8
panel-edge-moved
  6
ByLayer
 10
4.014331437638164
 20
-67.3353316951907
 30
0.0
 40
5.000000000000004
 50
237.3519212088499
 51
270.0000000000001
  0
LINE
  5
8C
  8
panel-edge-moved
  6
ByLayer
 10
4.01433143763817
 20
-72.3353316951907
 30
0.0
 11
19.88367619707253
 21
-72.33533169519067
 31
0.0
  0
ARC
  5
8D
  8
panel-edge-moved
  6
ByLayer
 10
238.0932499999996
 20
-88.89033169519075
 30
0.0
 40
3.000000000000326
 50
219.0962489692399
 51
320.903751030774
  0
ARC
  5
8E
  8
panel-edge-moved
  6
ByLayer
 10
231.8845484449233
 20
-93.93533169519067
 30
0.0
 40
4.999999999999999
 50
39.09624896923486
 51
89.99999999999902
  0
LINE
  5
8F
  8
panel-edge-moved
  6
ByLayer
 10
231.8845484449234
 20
-88.93533169519067
 30
0.0
 11
192.9545824492151
 21
-88.93533169518973
 31
0.0
  0
ARC
  5
90
  8
panel-edge-moved
  6
ByLayer
 10
190.5
 20
-91.43033169519074
 30
0.0
 40
3.499999999999976
 50
45.4678583762831
 51
134.5321416237172
  0
ARC
  5
91
  8
panel-edge-moved
  6
ByLayer
 10
184.2912984449238
 20
-87.88533169518963
 30
0.0
 40
4.999999999999925
 50
270.0000000000023
 51
320.9037510307613
  0
ARC
  5
92
  8
panel-edge-moved
  6
ByLayer
 10
190.4999999999993
 20
-92.9303316951896
 30
0.0
 40
2.999999999999835
 50
39.09624896923947
 51
140.903751030757
  0
ARC
  5
93
  8
panel-edge-moved
  6
ByLayer
 10
196.7087015550748
 20
-87.88533169518956
 30
0.0
 40
4.999999999999985
 50
219.0962489692415
 51
270.0
  0
LINE
  5
94
  8
panel-edge-moved
  6
ByLayer
 10
196.7087015550748
 20
-92.88533169518955
 30
0.0
 11
235.638667550781
 21
-92.8853316951873
 31
0.0
  0
ARC
  5
95
  8
panel-edge-moved
  6
ByLayer
 10
238.0932500000015
 20
-90.39033169518986
 30
0.0
 40
3.500000000001214
 50
225.4678583761795
 51
314.5321416237682
  0
LINE
  5
96
  8
panel-edge-moved
  6
ByLayer
 10
240.5478324492197
 20
-92.88533169518955
 30
0.0
 11
259.5146675507827
 21
-92.88533169518894
 31
0.0
  0
ARC
  5
97
  8
panel-edge-moved
  6
ByLayer
 10
261.9692499999995
 20
-90.39033169518957
 30
0.0
 40
3.499999999999983
 50
225.4678583762446
 51
314.5321416237554
  0
ARC
  5
98
  8
panel-edge-moved
  6
ByLayer
 10
268.1779515550756
 20
-93.93533169519033
 30
0.0
 40
4.999999999999543
 50
90.00000000001238
 51
140.9037510307668
  0
ARC
  5
99
  8
panel-edge-moved
  6
ByLayer
 10
261.9692499999997
 20
-88.89033169519072
 30
0.0
 40
3.000000000000325
 50
219.0962489692391
 51
320.9037510307579
  0
ARC
  5
9A
  8
panel-edge-moved
  6
ByLayer
 10
255.7605484449236
 20
-93.93533169519071
 30
0.0
 40
4.99999999999992
 50
39.09624896923718
 51
90.00000000000163
  0
LINE
  5
9B
  8
panel-edge-moved
  6
ByLayer
 10
255.7605484449235
 20
-88.9353316951908
 30
0.0
 11
244.3019515550776
 21
-88.93533169519075
 31
0.0
  0
ARC
  5
9C
  8
panel-edge-moved
  6
ByLayer
 10
244.3019515550761
 20
-93.93533169519151
 30
0.0
 40
5.000000000000752
 50
89.99999999998242
 51
140.9037510307514
  0
ARC
  5
9D
  8
panel-edge-moved
  6
ByLayer
 10
-22.52499999999868
 20
-22.57899336281094
 30
0.0
 40
1.00000000000441
 50
359.9997019490516
 51
179.9998568754489
  0
LINE
  5
9E
  8
panel-edge-moved
  6
ByLayer
 10
-23.52499999999997
 20
-22.57899086481628
 30
0.0
 11
-23.52499999999944
 21
-37.61934257838752
 31
0.0
  0
ARC
  5
9F
  8
panel-edge-moved
  6
ByLayer
 10
-22.52500000000215
 20
-37.61933930818896
 30
0.0
 40
1.000000000002639
 50
180.0001873685758
 51
5.647641555804947e-05
  0
LINE
  5
A0
  8
panel-edge-moved
  6
ByLayer
 10
-21.525
 20
-37.61933832248955
 30
0.0
 11
-21.525
 21
-32.11334466230181
 31
0.0
  0
ARC
  5
A1
  8
panel-edge-moved
  6
ByLayer
 10
-22.52499999999573
 20
-57.40435069992058
 30
0.0
 40
0.9999999999959164
 50
179.9999653205011
 51
359.9999653205011
  0
LINE
  5
A2
  8
panel-edge-moved
  6
ByLayer
 10
-21.525
 20
-57.40435130519202
 30
0.0
 11
-21.525
 21
-51.8983446623018
 31
0.0
  0
LINE
  5
A3
  8
panel-edge-moved
  6
ByLayer
 10
-21.525
 20
-48.71334466230181
 30
0.0
 11
-21.52499999999937
 21
-43.20733212045343
 31
0.0
  0
ARC
  5
A4
  8
panel-edge-moved
  6
ByLayer
 10
-22.52499999999793
 20
-43.20733635080337
 30
0.0
 40
1.000000000007514
 50
0.0002423811976616625
 51
180.0003394263847
  0
LINE
  5
A5
  8
panel-edge-moved
  6
ByLayer
 10
-23.5249999999879
 20
-43.20734227491135
 30
0.0
 11
-23.52499999999146
 21
-57.40435009464915
 31
0.0
  0
ARC
  5
A6
  8
panel-edge-moved
  6
ByLayer
 10
351.3749999999957
 20
-22.57899755370604
 30
0.0
 40
0.9999999999951455
 50
359.9999420696532
 51
180.0000969960506
  0
LINE
  5
A7
  8
panel-edge-moved
  6
ByLayer
 10
350.375000000002
 20
-22.57899924660649
 30
0.0
 11
350.3750000000001
 21
-28.0849999999994
 31
0.0
  0
LINE
  5
A8
  8
panel-edge-moved
  6
ByLayer
 10
350.3750000000001
 20
-32.11334466230181
 30
0.0
 11
350.3749999999986
 21
-37.61934257838752
 31
0.0
  0
ARC
  5
A9
  8
panel-edge-moved
  6
ByLayer
 10
351.3749999999981
 20
-37.61934029401495
 30
0.0
 40
1.0000000000021
 50
180.0001308849067
 51
359.9999999927465
  0
LINE
  5
AA
  8
panel-edge-moved
  6
ByLayer
 10
352.3750000000002
 20
-37.61934029414155
 30
0.0
 11
352.3749999999903
 21
-22.57899856478133
 31
0.0
  0
LINE
  5
AB
  8
panel-edge-moved
  6
ByLayer
 10
352.3749999999936
 20
-57.40435833488908
 30
0.0
 11
352.3749999999987
 21
-43.20733212045343
 31
0.0
  0
ARC
  5
AC
  8
panel-edge-moved
  6
ByLayer
 10
351.3749999999951
 20
-43.20733635080337
 30
0.0
 40
1.000000000012566
 50
0.0002423811976616625
 51
180.0003394263847
  0
LINE
  5
AD
  8
panel-edge-moved
  6
ByLayer
 10
350.3750000000001
 20
-43.20734227491135
 30
0.0
 11
350.3750000000001
 21
-48.71334466230181
 31
0.0
  0
LINE
  5
AE
  8
panel-edge-moved
  6
ByLayer
 10
350.3750000000001
 20
-51.8983446623018
 30
0.0
 11
350.3750000000067
 21
-57.40435009464915
 31
0.0
  0
ARC
  5
AF
  8
panel-edge-moved
  6
ByLayer
 10
351.3750000000002
 20
-57.40435421476911
 30
0.0
 40
1.000000000001951
 50
179.9997639345148
 51
359.9997639345148
  0
ARC
  5
B0
  8
panel-edge-moved
  6
ByLayer
 10
351.3750000000002
 20
-62.99233653723267
 30
0.0
 40
1.000000000001926
 50
359.9998158289302
 51
179.9998158289302
  0
LINE
  5
B1
  8
panel-edge-moved
  6
ByLayer
 10
350.3750000000035
 20
-62.99233332284112
 30
0.0
 11
350.3750000000001
 21
-68.4983446623018
 31
0.0
  0
LINE
  5
B2
  8
panel-edge-moved
  6
ByLayer
 10
350.3750000000001
 20
-72.33533169519075
 30
0.0
 11
350.3750000000223
 21
-77.84133279254735
 31
0.0
  0
ARC
  5
B3
  8
panel-edge-moved
  6
ByLayer
 10
351.3750000000102
 20
-77.84132387086031
 30
0.0
 40
1.000000000027691
 50
180.0005111750136
 51
0.0005111750135685095
  0
LINE
  5
B4
  8
panel-edge-moved
  6
ByLayer
 10
352.3749999999981
 20
-77.84131494917327
 30
0.0
 11
352.374999999997
 21
-62.99233975162423
 31
0.0
  0
ARC
  5
B5
  8
panel-edge-moved
  6
ByLayer
 10
351.3750000000002
 20
-83.42933194858642
 30
0.0
 40
1.000000000000089
 50
359.9999854814952
 51
179.9999854814952
  0
LINE
  5
B6
  8
panel-edge-moved
  6
ByLayer
 10
350.3750000000001
 20
-83.42933169519071
 30
0.0
 11
350.3750000000001
 21
-88.93533169519075
 31
0.0
  0
LINE
  5
B7
  8
panel-edge-moved
  6
ByLayer
 10
350.3749999999997
 20
-92.88533169518959
 30
0.0
 11
350.3750000000089
 21
-98.39134901713489
 31
0.0
  0
ARC
  5
B8
  8
panel-edge-moved
  6
ByLayer
 10
351.3750000000036
 20
-98.39134339757746
 30
0.0
 40
1.000000000010532
 50
180.0003219769233
 51
0.000321976924135309
  0
LINE
  5
B9
  8
panel-edge-moved
  6
ByLayer
 10
352.3749999999984
 20
-98.39133777802002
 30
0.0
 11
352.3750000000002
 21
-83.42933220198213
 31
0.0
  0
ARC
  5
BA
  8
panel-edge-moved
  6
ByLayer
 10
347.8750000000002
 20
32.92499999999997
 30
0.0
 40
2.5
 50
0.0
 51
90.0
  0
LINE
  5
BB
  8
panel-edge-moved
  6
ByLayer
 10
347.8750000000002
 20
35.42499999999997
 30
0.0
 11
231.1678426437237
 21
35.42499999999997
 31
0.0
  0
ARC
  5
BC
  8
panel-edge-moved
  6
ByLayer
 10
231.1678426437237
 20
32.92499999999995
 30
0.0
 40
2.500000000000024
 50
90.0000000000013
 51
179.9999999999995
  0
LINE
  5
BD
  8
panel-edge-moved
  6
ByLayer
 10
228.6678426437237
 20
32.92499999999997
 30
0.0
 11
228.6678426437237
 21
26.31899999999999
 31
0.0
  0
ARC
  5
BE
  8
panel-edge-moved
  6
ByLayer
 10
227.66784264372
 20
26.31900000005716
 30
0.0
 40
1.000000000003679
 50
180.0002197866504
 51
359.9999999967242
  0
LINE
  5
BF
  8
panel-edge-moved
  6
ByLayer
 10
226.6678426437237
 20
26.31899616405646
 30
0.0
 11
226.6678426437237
 21
32.92499999999997
 31
0.0
  0
ARC
  5
C0
  8
panel-edge-moved
  6
ByLayer
 10
224.1678426437237
 20
32.92499999999997
 30
0.0
 40
2.5
 50
0.0
 51
90.0
  0
LINE
  5
C1
  8
panel-edge-moved
  6
ByLayer
 10
224.1678426437237
 20
35.42499999999997
 30
0.0
 11
-26.02500000000001
 21
35.42499999999997
 31
0.0
  0
ARC
  5
C2
  8
panel-edge-moved
  6
ByLayer
 10
-26.02499999999999
 20
32.92499999999997
 30
0.0
 40
2.5
 50
90.00000000000033
 51
180.0
  0
LINE
  5
C3
  8
panel-edge-moved
  6
ByLayer
 10
-28.52499999999999
 20
32.92499999999997
 30
0.0
 11
-28.52499999999999
 21
-106.9853316951895
 31
0.0
  0
ARC
  5
C4
  8
panel-edge-moved
  6
ByLayer
 10
-26.02499999999998
 20
-106.9853316951896
 30
0.0
 40
2.500000000000014
 50
179.999999999999
 51
269.9999999999997
  0
LINE
  5
C5
  8
panel-edge-moved
  6
ByLayer
 10
-26.02499999999999
 20
-109.4853316951896
 30
0.0
 11
-23.525
 21
-109.4853316951896
 31
0.0
  0
LINE
  5
C6
  8
panel-edge-moved
  6
ByLayer
 10
-23.525
 20
-109.4853316951896
 30
0.0
 11
-23.52499999999537
 21
-103.9793366038502
 31
0.0
  0
ARC
  5
C7
  8
panel-edge-moved
  6
ByLayer
 10
-22.52499999999888
 20
-103.9793360894608
 30
0.0
 40
0.9999999999966221
 50
2.947234156785544e-05
 51
180.0000294723416
  0
LINE
  5
C8
  8
panel-edge-moved
  6
ByLayer
 10
-21.52500000000239
 20
-103.9793355750714
 30
0.0
 11
-21.52500000000048
 21
-106.4853316951896
 31
0.0
  0
ARC
  5
C9
  8
panel-edge-moved
  6
ByLayer
 10
-18.52500000000048
 20
-106.4853316951896
 30
0.0
 40
3.0
 50
180.0
 51
269.9999999999993
  0
LINE
  5
CA
  8
panel-edge-moved
  6
ByLayer
 10
-18.52500000000052
 20
-109.4853316951896
 30
0.0
 11
72.15391856236148
 21
-109.4853316951895
 31
0.0
  0
ARC
  5
CB
  8
panel-edge-moved
  6
ByLayer
 10
72.15391856236148
 20
-114.4853316951895
 30
0.0
 40
4.999999999999974
 50
57.35192120884981
 51
90.0
  0
ARC
  5
CC
  8
panel-edge-moved
  6
ByLayer
 10
76.19999999999965
 20
-108.1703316951896
 30
0.0
 40
2.499999999999928
 50
237.3519212088476
 51
302.6480787911439
  0
ARC
  5
CD
  8
panel-edge-moved
  6
ByLayer
 10
80.24608143763759
 20
-114.4853316951894
 30
0.0
 40
4.999999999999813
 50
90.00000000000489
 51
122.6480787911525
  0
LINE
  5
CE
  8
panel-edge-moved
  6
ByLayer
 10
80.24608143763716
 20
-109.4853316951896
 30
0.0
 11
186.4539185623641
 21
-109.4853316951907
 31
0.0
  0
ARC
  5
CF
  8
panel-edge-moved
  6
ByLayer
 10
186.453918562364
 20
-114.4853316951906
 30
0.0
 40
4.9999999999999
 50
57.35192120887118
 51
89.99999999999902
  0
ARC
  5
D0
  8
panel-edge-moved
  6
ByLayer
 10
190.5
 20
-108.1703316951895
 30
0.0
 40
2.499999999999795
 50
237.351921208862
 51
302.6480787911149
  0
ARC
  5
D1
  8
panel-edge-moved
  6
ByLayer
 10
194.5460814376358
 20
-114.4853316951903
 30
0.0
 40
4.999999999999585
 50
90.00000000001694
 51
122.6480787911412
  0
LINE
  5
D2
  8
panel-edge-moved
  6
ByLayer
 10
194.5460814376344
 20
-109.4853316951907
 30
0.0
 11
347.3749999999997
 21
-109.4853316951896
 31
0.0
  0
ARC
  5
D3
  8
panel-edge-moved
  6
ByLayer
 10
347.3749999999997
 20
-106.4853316951896
 30
0.0
 40
3.0
 50
270.0
 51
0.0
  0
LINE
  5
D4
  8
panel-edge-moved
  6
ByLayer
 10
350.3749999999997
 20
-106.4853316951896
 30
0.0
 11
350.3750000000028
 21
-103.9793366038502
 31
0.0
  0
ARC
  5
D5
  8
panel-edge-moved
  6
ByLayer
 10
351.3750000000002
 20
-103.9793388556706
 30
0.0
 40
0.9999999999999774
 50
359.9998709801937
 51
179.9998709801938
  0
LINE
  5
D6
  8
panel-edge-moved
  6
ByLayer
 10
352.3749999999977
 20
-103.979341107491
 30
0.0
 11
352.3750000000002
 21
-109.4853316951896
 31
0.0
  0
LINE
  5
D7
  8
panel-edge-moved
  6
ByLayer
 10
352.3750000000002
 20
-109.4853316951896
 30
0.0
 11
354.8750000000002
 21
-109.4853316951896
 31
0.0
  0
ARC
  5
D8
  8
panel-edge-moved
  6
ByLayer
 10
354.8750000000002
 20
-106.9853316951896
 30
0.0
 40
2.5
 50
270.0
 51
0.0
  0
LINE
  5
D9
  8
panel-edge-moved
  6
ByLayer
 10
357.3750000000002
 20
-106.9853316951896
 30
0.0
 11
357.3750000000002
 21
32.92499999999997
 31
0.0
  0
ARC
  5
DA
  8
panel-edge-moved
  6
ByLayer
 10
354.8750000000002
 20
32.92499999999997
 30
0.0
 40
2.5
 50
0.0
 51
90.0
  0
LINE
  5
DB
  8
panel-edge-moved
  6
ByLayer
 10
354.8750000000002
 20
35.42499999999997
 30
0.0
 11
352.3750000000002
 21
35.42499999999997
 31
0.0
  0
LINE
  5
DC
  8
panel-edge-moved
  6
ByLayer
 10
352.3750000000002
 20
35.42499999999997
 30
0.0
 11
352.3749999999964
 21
26.31899723697816
 31
0.0
  0
ARC
  5
DD
  8
panel-edge-moved
  6
ByLayer
 10
351.3750000000002
 20
26.31899999996415
 30
0.0
 40
1.000000000000004
 50
179.9999999979465
 51
359.9998416925641
  0
LINE
  5
DE
  8
panel-edge-moved
  6
ByLayer
 10
350.3750000000002
 20
26.31899999999999
 30
0.0
 11
350.3750000000002
 21
32.92499999999997
 31
0.0
  0
ARC
  5
DF
  8
panel-edge-moved
  6
ByLayer
 10
347.3750000000001
 20
5.299999999999997
 30
0.0
 40
3.000000000000003
 50
7.63333123551244e-14
 51
90.0
  0
ARC
  5
E0
  8
panel-edge-moved
  6
ByLayer
 10
347.8750000000002
 20
14.12500000000001
 30
0.0
 40
2.5
 50
270.0
 51
0.0
  0
LINE
  5
E1
  8
panel-edge-moved
  6
ByLayer
 10
350.3750000000002
 20
14.12500000000001
 30
0.0
 11
350.3750000000002
 21
20.731
 31
0.0
  0
ARC
  5
E2
  8
panel-edge-moved
  6
ByLayer
 10
351.3750000000002
 20
20.73099999999999
 30
0.0
 40
1.0
 50
359.9999999999998
 51
179.9999999999998
  0
LINE
  5
E3
  8
panel-edge-moved
  6
ByLayer
 10
352.3750000000002
 20
20.73099999999999
 30
0.0
 11
352.3750000000002
 21
2.79399949320864
 31
0.0
  0
ARC
  5
E4
  8
panel-edge-moved
  6
ByLayer
 10
351.3750000000002
 20
2.79400234672944
 30
0.0
 40
1.000000000004071
 50
179.9998365053014
 51
359.9998365053015
  0
LINE
  5
E5
  8
panel-edge-moved
  6
ByLayer
 10
350.3750000000002
 20
2.79400520025024
 30
0.0
 11
350.3750000000001
 21
5.300000000000002
 31
0.0
  0
LINE
  5
E6
  8
panel-edge-moved
  6
ByLayer
 10
226.6678426437237
 20
10.3
 30
0.0
 11
226.6678426437237
 21
20.73099999999999
 31
0.0
  0
ARC
  5
E7
  8
panel-edge-moved
  6
ByLayer
 10
227.6678426437237
 20
20.731
 30
0.0
 40
1.0
 50
4.071109992273301e-13
 51
180.0000000000006
  0
LINE
  5
E8
  8
panel-edge-moved
  6
ByLayer
 10
228.6678426437237
 20
20.73100000000001
 30
0.0
 11
228.6678426437237
 21
14.12500000000001
 31
0.0
  0
ARC
  5
E9
  8
panel-edge-moved
  6
ByLayer
 10
231.1678426437237
 20
14.12500000000001
 30
0.0
 40
2.5
 50
180.0
 51
270.0
  0
ARC
  5
EA
  8
panel-edge-moved
  6
ByLayer
 10
101.8654213216992
 20
9.299999746604316
 30
0.0
 40
1.000000253395686
 50
89.99999999067634
 51
270.000014071469
  0
LINE
  5
EB
  8
panel-edge-moved
  6
ByLayer
 10
101.8654213218619
 20
10.3
 30
0.0
 11
226.6678426437237
 21
10.3
 31
0.0
  0
ARC
  5
EC
  8
panel-edge-moved
  6
ByLayer
 10
-5.524999999999999
 20
13.62500000000001
 30
0.0
 40
2.0
 50
270.0
 51
0.0
  0
LINE
  5
ED
  8
panel-edge-moved
  6
ByLayer
 10
-3.524999999999999
 20
13.62500000000001
 30
0.0
 11
-3.524999999999961
 21
17.08099975456923
 31
0.0
  0
ARC
  5
EE
  8
panel-edge-moved
  6
ByLayer
 10
-2.524999999999995
 20
17.08100000016275
 30
0.0
 40
0.9999999999999962
 50
359.9999999906763
 51
180.0000140714723
  0
LINE
  5
EF
  8
panel-edge-moved
  6
ByLayer
 10
-1.524999999999999
 20
17.08100000000002
 30
0.0
 11
-1.524999999999998
 21
10.3
 31
0.0
  0
LINE
  5
F0
  8
panel-edge-moved
  6
ByLayer
 10
-1.524999999999998
 20
10.3
 30
0.0
 11
96.27742132186188
 21
10.29999949320861
 31
0.0
  0
ARC
  5
F1
  8
panel-edge-moved
  6
ByLayer
 10
96.27742132186188
 20
9.299999746604307
 30
0.0
 40
0.9999997466043062
 50
270.0000000000008
 51
90.0
  0
LINE
  5
F2
  8
panel-edge-moved
  6
ByLayer
 10
96.2774213218619
 20
8.3
 30
0.0
 11
-18.525
 21
8.3
 31
0.0
  0
ARC
  5
F3
  8
panel-edge-moved
  6
ByLayer
 10
-18.525
 20
5.300000000000001
 30
0.0
 40
3.0
 50
90.0
 51
180.0
  0
LINE
  5
F4
  8
panel-edge-moved
  6
ByLayer
 10
-21.525
 20
5.300000000000001
 30
0.0
 11
-21.52499999999793
 21
2.79399949320864
 31
0.0
  0
ARC
  5
F5
  8
panel-edge-moved
  6
ByLayer
 10
-22.52499999999895
 20
2.793999946640604
 30
0.0
 40
1.000000000001117
 50
179.9999740202621
 51
359.9999740202622
  0
LINE
  5
F6
  8
panel-edge-moved
  6
ByLayer
 10
-23.52499999999996
 20
2.794000400072569
 30
0.0
 11
-23.52499999999996
 21
17.08099975456923
 31
0.0
  0
ARC
  5
F7
  8
panel-edge-moved
  6
ByLayer
 10
-22.52499999999999
 20
17.08100000016275
 30
0.0
 40
0.9999999999999938
 50
359.9999999906763
 51
180.0000140714723
  0
LINE
  5
F8
  8
panel-edge-moved
  6
ByLayer
 10
-21.525
 20
17.08100000000002
 30
0.0
 11
-21.525
 21
13.62500000000001
 31
0.0
  0
ARC
  5
F9
  8
panel-edge-moved
  6
ByLayer
 10
-19.525
 20
13.62500000000001
 30
0.0
 40
2.0
 50
180.0
 51
270.0
  0
LINE
  5
FA
  8
panel-edge-moved
  6
ByLayer
 10
-19.525
 20
11.62500000000001
 30
0.0
 11
-5.524999999999999
 21
11.62500000000001
 31
0.0
  0
LINE
  5
FB
  8
panel-edge-moved
  6
ByLayer
 10
-21.525
 20
-28.0849999999994
 30
0.0
 11
-21.525
 21
-22.57898993825993
 31
0.0
  0
LINE
  5
FC
  8
panel-edge-moved
  6
ByLayer
 10
96.27742132186191
 20
-8.30000000000001
 30
0.0
 11
-21.525
 21
-8.300000000000002
 31
0.0
  0
ARC
  5
FD
  8
panel-edge-moved
  6
ByLayer
 10
96.27742132186191
 20
-9.30000000000001
 30
0.0
 40
1.0
 50
0.0
 51
90.0
  0
LINE
  5
FE
  8
panel-edge-moved
  6
ByLayer
 10
97.2774213218619
 20
-9.30000000000001
 30
0.0
 11
97.2774213218619
 21
-10.48499999999931
 31
0.0
  0
LINE
  5
FF
  8
panel-edge-moved
  6
ByLayer
 10
-21.525
 20
-11.48499999999941
 30
0.0
 11
96.27742132186188
 21
-11.4849999999993
 31
0.0
  0
ARC
  5
100
  8
panel-edge-moved
  6
ByLayer
 10
96.2774213218619
 20
-10.48499999999931
 30
0.0
 40
1.0
 50
269.9999999999992
 51
0.0
  0
ARC
  5
101
  8
panel-edge-moved
  6
ByLayer
 10
101.8654213218619
 20
-9.300000000000027
 30
0.0
 40
1.0
 50
90.0
 51
180.0
  0
LINE
  5
102
  8
panel-edge-moved
  6
ByLayer
 10
100.8654213218619
 20
-9.300000000000027
 30
0.0
 11
100.8654213218619
 21
-10.48499999999936
 31
0.0
  0
LINE
  5
103
  8
panel-edge-moved
  6
ByLayer
 10
101.8654213218619
 20
-11.48499999999936
 30
0.0
 11
241.190918562362
 21
-11.48499999999935
 31
0.0
  0
ARC
  5
104
  8
panel-edge-moved
  6
ByLayer
 10
101.8654213218619
 20
-10.48499999999936
 30
0.0
 40
1.0
 50
180.0
 51
270.0
  0
LINE
  5
105
  8
panel-edge-moved
  6
ByLayer
 10
96.2774213218619
 20
-28.0849999999994
 30
0.0
 11
-21.525
 21
-28.0849999999994
 31
0.0
  0
ARC
  5
106
  8
panel-edge-moved
  6
ByLayer
 10
96.2774213218619
 20
-29.0849999999994
 30
0.0
 40
1.0
 50
0.0
 51
90.0
  0
LINE
  5
107
  8
panel-edge-moved
  6
ByLayer
 10
97.2774213218619
 20
-29.0849999999994
 30
0.0
 11
97.2774213218619
 21
-31.11334466230171
 31
0.0
  0
LINE
  5
108
  8
panel-edge-moved
  6
ByLayer
 10
-21.525
 20
-32.11334466230181
 30
0.0
 11
96.27742132186188
 21
-32.11334466230171
 31
0.0
  0
ARC
  5
109
  8
panel-edge-moved
  6
ByLayer
 10
96.2774213218619
 20
-31.11334466230171
 30
0.0
 40
1.0
 50
269.9999999999992
 51
0.0
  0
LINE
  5
10A
  8
panel-edge-moved
  6
ByLayer
 10
239.0282984449222
 20
-28.08499999999942
 30
0.0
 11
101.8654213218619
 21
-28.08499999999941
 31
0.0
  0
ARC
  5
10B
  8
panel-edge-moved
  6
ByLayer
 10
101.8654213218619
 20
-29.08499999999941
 30
0.0
 40
1.0
 50
90.0
 51
180.0
  0
LINE
  5
10C
  8
panel-edge-moved
  6
ByLayer
 10
100.8654213218619
 20
-29.08499999999941
 30
0.0
 11
100.8654213218619
 21
-31.11334466230171
 31
0.0
  0
LINE
  5
10D
  8
panel-edge-moved
  6
ByLayer
 10
101.8654213218619
 20
-32.11334466230171
 30
0.0
 11
242.8954833440692
 21
-32.11334466230158
 31
0.0
  0
ARC
  5
10E
  8
panel-edge-moved
  6
ByLayer
 10
101.8654213218619
 20
-31.11334466230171
 30
0.0
 40
1.0
 50
180.0
 51
270.0
  0
LINE
  5
10F
  8
panel-edge-moved
  6
ByLayer
 10
96.2774213218619
 20
-48.71334466230205
 30
0.0
 11
-21.525
 21
-48.71334466230181
 31
0.0
  0
ARC
  5
110
  8
panel-edge-moved
  6
ByLayer
 10
96.2774213218619
 20
-49.71334466230205
 30
0.0
 40
1.0
 50
0.0
 51
90.0
  0
LINE
  5
111
  8
panel-edge-moved
  6
ByLayer
 10
97.2774213218619
 20
-49.71334466230205
 30
0.0
 11
97.2774213218619
 21
-50.89834466230099
 31
0.0
  0
LINE
  5
112
  8
panel-edge-moved
  6
ByLayer
 10
-21.525
 20
-51.8983446623018
 30
0.0
 11
96.27742132186188
 21
-51.89834466230099
 31
0.0
  0
ARC
  5
113
  8
panel-edge-moved
  6
ByLayer
 10
96.2774213218619
 20
-50.89834466230099
 30
0.0
 40
1.0
 50
269.9999999999992
 51
0.0
  0
ARC
  5
114
  8
panel-edge-moved
  6
ByLayer
 10
101.8654213218619
 20
-49.71334466230176
 30
0.0
 40
1.0
 50
89.99999999999837
 51
180.0
  0
LINE
  5
115
  8
panel-edge-moved
  6
ByLayer
 10
100.8654213218619
 20
-49.71334466230176
 30
0.0
 11
100.8654213218619
 21
-50.89834466230094
 31
0.0
  0
LINE
  5
116
  8
panel-edge-moved
  6
ByLayer
 10
101.8654213218619
 20
-51.89834466230094
 30
0.0
 11
238.8096685623641
 21
-51.89834466230001
 31
0.0
  0
ARC
  5
117
  8
panel-edge-moved
  6
ByLayer
 10
101.8654213218619
 20
-50.89834466230094
 30
0.0
 40
1.0
 50
180.0
 51
270.0
  0
LINE
  5
118
  8
panel-edge-moved
  6
ByLayer
 10
96.2774213218619
 20
-68.4983446623018
 30
0.0
 11
-21.525
 21
-68.4983446623018
 31
0.0
  0
ARC
  5
119
  8
panel-edge-moved
  6
ByLayer
 10
96.2774213218619
 20
-69.4983446623018
 30
0.0
 40
1.0
 50
0.0
 51
90.0
  0
LINE
  5
11A
  8
panel-edge-moved
  6
ByLayer
 10
97.2774213218619
 20
-69.4983446623018
 30
0.0
 11
97.2774213218619
 21
-71.33533169519032
 31
0.0
  0
LINE
  5
11B
  8
panel-edge-moved
  6
ByLayer
 10
27.92882380292791
 20
-72.33533169519082
 30
0.0
 11
96.27742132186191
 21
-72.33533169519032
 31
0.0
  0
ARC
  5
11C
  8
panel-edge-moved
  6
ByLayer
 10
96.2774213218619
 20
-71.33533169519032
 30
0.0
 40
1.0
 50
270.0000000000008
 51
0.0
  0
LINE
  5
11D
  8
panel-edge-moved
  6
ByLayer
 10
236.647048444925
 20
-68.4983446623018
 30
0.0
 11
101.8654213218619
 21
-68.4983446623018
 31
0.0
  0
ARC
  5
11E
  8
panel-edge-moved
  6
ByLayer
 10
101.8654213218619
 20
-69.4983446623018
 30
0.0
 40
1.0
 50
90.0
 51
180.0
  0
LINE
  5
11F
  8
panel-edge-moved
  6
ByLayer
 10
100.8654213218619
 20
-69.4983446623018
 30
0.0
 11
100.8654213218619
 21
-71.33533169519083
 31
0.0
  0
LINE
  5
120
  8
panel-edge-moved
  6
ByLayer
 10
101.8654213218619
 20
-72.33533169519083
 30
0.0
 11
234.0471685623606
 21
-72.33533169519085
 31
0.0
  0
ARC
  5
121
  8
panel-edge-moved
  6
ByLayer
 10
101.8654213218619
 20
-71.33533169519083
 30
0.0
 40
1.0
 50
180.0
 51
270.0
  0
LINE
  5
122
  8
panel-edge-moved
  6
ByLayer
 10
96.2774213218619
 20
-88.93533169519017
 30
0.0
 11
78.65458244921564
 21
-88.93533169519026
 31
0.0
  0
ARC
  5
123
  8
panel-edge-moved
  6
ByLayer
 10
96.2774213218619
 20
-89.93533169519017
 30
0.0
 40
1.0
 50
0.0
 51
90.0
  0
LINE
  5
124
  8
panel-edge-moved
  6
ByLayer
 10
97.2774213218619
 20
-89.93533169519017
 30
0.0
 11
97.2774213218619
 21
-91.88533169518959
 31
0.0
  0
LINE
  5
125
  8
panel-edge-moved
  6
ByLayer
 10
82.40870155507531
 20
-92.88533169518959
 30
0.0
 11
96.2774213218619
 21
-92.88533169518959
 31
0.0
  0
ARC
  5
126
  8
panel-edge-moved
  6
ByLayer
 10
96.2774213218619
 20
-91.88533169518959
 30
0.0
 40
1.0
 50
270.0
 51
0.0
  0
LINE
  5
127
  8
panel-edge-moved
  6
ByLayer
 10
188.0454175507849
 20
-88.93533169518976
 30
0.0
 11
101.8654213218619
 21
-88.93533169519014
 31
0.0
  0
ARC
  5
128
  8
panel-edge-moved
  6
ByLayer
 10
101.8654213218619
 20
-89.93533169519014
 30
0.0
 40
1.0
 50
90.0
 51
180.0
  0
LINE
  5
129
  8
panel-edge-moved
  6
ByLayer
 10
100.8654213218619
 20
-89.93533169519014
 30
0.0
 11
100.8654213218619
 21
-91.88533169518811
 31
0.0
  0
LINE
  5
12A
  8
panel-edge-moved
  6
ByLayer
 10
101.8654213218619
 20
-92.88533169518811
 30
0.0
 11
184.291298444924
 21
-92.88533169518956
 31
0.0
  0
ARC
  5
12B
  8
panel-edge-moved
  6
ByLayer
 10
101.8654213218619
 20
-91.88533169518811
 30
0.0
 40
1.0
 50
180.0
 51
269.9999999999992
  0
LINE
  5
12C
  8
panel-edge-moved
  6
ByLayer
 10
286.727421321862
 20
-8.300000000000203
 30
0.0
 11
101.8654213218619
 21
-8.300000000000027
 31
0.0
  0
ARC
  5
12D
  8
panel-edge-moved
  6
ByLayer
 10
286.727421321862
 20
-9.300000000000203
 30
0.0
 40
1.0
 50
0.0
 51
90.0
  0
LINE
  5
12E
  8
panel-edge-moved
  6
ByLayer
 10
350.3750000000001
 20
-8.300000000000002
 30
0.0
 11
292.3154213218619
 21
-8.300000000000882
 31
0.0
  0
ARC
  5
12F
  8
panel-edge-moved
  6
ByLayer
 10
292.3154213218619
 20
-9.300000000000882
 30
0.0
 40
1.0
 50
90.0
 51
180.0
  0
LINE
  5
130
  8
panel-edge-moved
  6
ByLayer
 10
291.3154213218619
 20
-9.300000000000882
 30
0.0
 11
291.3154213218619
 21
-10.48499999999821
 31
0.0
  0
LINE
  5
131
  8
panel-edge-moved
  6
ByLayer
 10
292.3154213218619
 20
-11.48499999999821
 30
0.0
 11
350.3750000000001
 21
-11.48499999999941
 31
0.0
  0
ARC
  5
132
  8
panel-edge-moved
  6
ByLayer
 10
292.3154213218619
 20
-10.48499999999821
 30
0.0
 40
1.0
 50
180.0
 51
270.0
  0
LINE
  5
133
  8
panel-edge-moved
  6
ByLayer
 10
287.727421321862
 20
-9.300000000000203
 30
0.0
 11
287.727421321862
 21
-10.48499999999057
 31
0.0
  0
LINE
  5
134
  8
panel-edge-moved
  6
ByLayer
 10
273.1975738029248
 20
-11.48499999999757
 30
0.0
 11
286.7274213218625
 21
-11.48499999999057
 31
0.0
  0
ARC
  5
135
  8
panel-edge-moved
  6
ByLayer
 10
286.727421321862
 20
-10.48499999999057
 30
0.0
 40
1.0
 50
270.0000000000293
 51
0.0
  0
LINE
  5
136
  8
panel-edge-moved
  6
ByLayer
 10
286.727421321862
 20
-28.08499999999956
 30
0.0
 11
275.3217015550758
 21
-28.0849999999994
 31
0.0
  0
ARC
  5
137
  8
panel-edge-moved
  6
ByLayer
 10
286.727421321862
 20
-29.08499999999956
 30
0.0
 40
1.0
 50
0.0
 51
90.0
  0
LINE
  5
138
  8
panel-edge-moved
  6
ByLayer
 10
287.727421321862
 20
-29.08499999999956
 30
0.0
 11
287.727421321862
 21
-31.11309690513245
 31
0.0
  0
LINE
  5
139
  8
panel-edge-moved
  6
ByLayer
 10
271.4545166559311
 20
-32.11334466230127
 30
0.0
 11
286.7274375438605
 21
-32.11309690500088
 31
0.0
  0
ARC
  5
13A
  8
panel-edge-moved
  6
ByLayer
 10
286.727421321862
 20
-31.11309690513245
 30
0.0
 40
1.0
 50
270.0009294520506
 51
0.0
  0
LINE
  5
13B
  8
panel-edge-moved
  6
ByLayer
 10
350.3750000000001
 20
-28.0849999999994
 30
0.0
 11
292.3154213218619
 21
-28.08500000000028
 31
0.0
  0
ARC
  5
13C
  8
panel-edge-moved
  6
ByLayer
 10
292.3154213218619
 20
-29.08500000000028
 30
0.0
 40
1.0
 50
90.0
 51
180.0
  0
LINE
  5
13D
  8
panel-edge-moved
  6
ByLayer
 10
291.3154213218619
 20
-31.11328809967487
 30
0.0
 11
291.3154213218619
 21
-29.08500000000028
 31
0.0
  0
LINE
  5
13E
  8
panel-edge-moved
  6
ByLayer
 10
292.3154203476449
 20
-32.11328809967439
 30
0.0
 11
350.3750000000001
 21
-32.11334466230181
 31
0.0
  0
ARC
  5
13F
  8
panel-edge-moved
  6
ByLayer
 10
292.3154213218619
 20
-31.11328809967487
 30
0.0
 40
1.0
 50
180.0
 51
269.9999441814799
  0
LINE
  5
140
  8
panel-edge-moved
  6
ByLayer
 10
286.727421321862
 20
-48.71334466230292
 30
0.0
 11
101.8654213218619
 21
-48.71334466230176
 31
0.0
  0
ARC
  5
141
  8
panel-edge-moved
  6
ByLayer
 10
286.727421321862
 20
-49.71334466230292
 30
0.0
 40
1.0
 50
0.0
 51
90.0
  0
LINE
  5
142
  8
panel-edge-moved
  6
ByLayer
 10
350.3750000000001
 20
-48.71334466230181
 30
0.0
 11
292.3154213218619
 21
-48.71334466230307
 31
0.0
  0
ARC
  5
143
  8
panel-edge-moved
  6
ByLayer
 10
292.3154213218619
 20
-49.71334466230306
 30
0.0
 40
1.0
 50
90.0
 51
180.0
  0
LINE
  5
144
  8
panel-edge-moved
  6
ByLayer
 10
287.727421321862
 20
-50.8983446623021
 30
0.0
 11
287.727421321862
 21
-49.71334466230292
 31
0.0
  0
LINE
  5
145
  8
panel-edge-moved
  6
ByLayer
 10
270.8163238029275
 20
-51.8983446623022
 30
0.0
 11
286.727421321862
 21
-51.8983446623021
 31
0.0
  0
ARC
  5
146
  8
panel-edge-moved
  6
ByLayer
 10
286.727421321862
 20
-50.8983446623021
 30
0.0
 40
1.0
 50
270.0
 51
0.0
  0
LINE
  5
147
  8
panel-edge-moved
  6
ByLayer
 10
291.3154213218619
 20
-49.71334466230306
 30
0.0
 11
291.3154213218619
 21
-50.89834466230214
 31
0.0
  0
LINE
  5
148
  8
panel-edge-moved
  6
ByLayer
 10
292.3154213218619
 20
-51.89834466230214
 30
0.0
 11
350.3750000000001
 21
-51.8983446623018
 31
0.0
  0
ARC
  5
149
  8
panel-edge-moved
  6
ByLayer
 10
292.3154213218619
 20
-50.89834466230214
 30
0.0
 40
1.0
 50
180.0
 51
270.0
  0
LINE
  5
14A
  8
panel-edge-moved
  6
ByLayer
 10
286.7274213218623
 20
-68.49834466230615
 30
0.0
 11
272.940451555076
 21
-68.49834466230185
 31
0.0
  0
ARC
  5
14B
  8
panel-edge-moved
  6
ByLayer
 10
286.727421321862
 20
-69.49834466230615
 30
0.0
 40
1.0
 50
0.0
 51
89.99999999998371
  0
LINE
  5
14C
  8
panel-edge-moved
  6
ByLayer
 10
287.727421321862
 20
-69.49834466230615
 30
0.0
 11
287.727421321862
 21
-71.33533169518925
 31
0.0
  0
LINE
  5
14D
  8
panel-edge-moved
  6
ByLayer
 10
269.2716814856605
 20
-72.3353316951919
 30
0.0
 11
286.7274213218622
 21
-72.33533169518924
 31
0.0
  0
ARC
  5
14E
  8
panel-edge-moved
  6
ByLayer
 10
286.727421321862
 20
-71.33533169518925
 30
0.0
 40
1.0
 50
270.0000000000098
 51
0.0
  0
LINE
  5
14F
  8
panel-edge-moved
  6
ByLayer
 10
350.3750000000001
 20
-68.4983446623018
 30
0.0
 11
292.3154213218619
 21
-68.49834466230364
 31
0.0
  0
ARC
  5
150
  8
panel-edge-moved
  6
ByLayer
 10
292.3154213218619
 20
-69.49834466230362
 30
0.0
 40
1.0
 50
90.0
 51
180.0
  0
LINE
  5
151
  8
panel-edge-moved
  6
ByLayer
 10
291.3154213218619
 20
-69.49834466230362
 30
0.0
 11
291.3154213218619
 21
-71.33533169519472
 31
0.0
  0
LINE
  5
152
  8
panel-edge-moved
  6
ByLayer
 10
292.3154213218619
 20
-72.33533169519471
 30
0.0
 11
350.3750000000001
 21
-72.33533169519075
 31
0.0
  0
ARC
  5
153
  8
panel-edge-moved
  6
ByLayer
 10
292.3154213218619
 20
-71.33533169519472
 30
0.0
 40
1.0
 50
180.0
 51
270.0000000000032
  0
LINE
  5
154
  8
panel-edge-moved
  6
ByLayer
 10
286.727421321862
 20
-88.93533169519074
 30
0.0
 11
268.1779515550745
 21
-88.93533169519078
 31
0.0
  0
ARC
  5
155
  8
panel-edge-moved
  6
ByLayer
 10
286.727421321862
 20
-89.93533169519074
 30
0.0
 40
1.0
 50
0.0
 51
90.0
  0
LINE
  5
156
  8
panel-edge-moved
  6
ByLayer
 10
287.727421321862
 20
-89.93533169519074
 30
0.0
 11
287.727421321862
 21
-91.88533169519049
 31
0.0
  0
LINE
  5
157
  8
panel-edge-moved
  6
ByLayer
 10
264.4238324492163
 20
-92.88533169518894
 30
0.0
 11
286.7274213218619
 21
-92.8853316951905
 31
0.0
  0
ARC
  5
158
  8
panel-edge-moved
  6
ByLayer
 10
286.727421321862
 20
-91.88533169519049
 30
0.0
 40
1.0
 50
269.9999999999968
 51
0.0
  0
LINE
  5
159
  8
panel-edge-moved
  6
ByLayer
 10
350.3750000000001
 20
-88.93533169519075
 30
0.0
 11
292.3154213218619
 21
-88.9353316951912
 31
0.0
  0
ARC
  5
15A
  8
panel-edge-moved
  6
ByLayer
 10
292.3154213218619
 20
-89.93533169519121
 30
0.0
 40
1.0
 50
90.0
 51
180.0
  0
LINE
  5
15B
  8
panel-edge-moved
  6
ByLayer
 10
291.3154213218619
 20
-91.88533169519063
 30
0.0
 11
291.3154213218619
 21
-89.93533169519121
 31
0.0
  0
LINE
  5
15C
  8
panel-edge-moved
  6
ByLayer
 10
292.3154213218619
 20
-92.88533169519062
 30
0.0
 11
350.3749999999997
 21
-92.88533169518959
 31
0.0
  0
ARC
  5
15D
  8
panel-edge-moved
  6
ByLayer
 10
292.3154213218619
 20
-91.88533169519063
 30
0.0
 40
1.0
 50
180.0
 51
270.0
  0
LINE
  5
15E
  8
panel-edge-moved
  6
ByLayer
 10
231.1678426437237
 20
11.62500000000001
 30
0.0
 11
286.7274213218621
 21
11.62499999999477
 31
0.0
  0
ARC
  5
15F
  8
panel-edge-moved
  6
ByLayer
 10
286.727421321862
 20
10.62499999999477
 30
0.0
 40
1.0
 50
0.0
 51
89.99999999999349
  0
LINE
  5
160
  8
panel-edge-moved
  6
ByLayer
 10
287.727421321862
 20
10.62499999999477
 30
0.0
 11
287.727421321862
 21
9.299999994549262
 31
0.0
  0
LINE
  5
161
  8
panel-edge-moved
  6
ByLayer
 10
286.727421324574
 20
8.299999994549262
 30
0.0
 11
101.8654215672927
 21
8.29999949320866
 31
0.0
  0
ARC
  5
162
  8
panel-edge-moved
  6
ByLayer
 10
286.727421321862
 20
9.299999994549262
 30
0.0
 40
1.0
 50
270.0000001553861
 51
0.0
  0
LINE
  5
163
  8
panel-edge-moved
  6
ByLayer
 10
292.3154213218618
 20
11.62499999999256
 30
0.0
 11
347.8750000000002
 21
11.62500000000001
 31
0.0
  0
ARC
  5
164
  8
panel-edge-moved
  6
ByLayer
 10
292.3154213218619
 20
10.62499999999256
 30
0.0
 40
1.0
 50
90.00000000000651
 51
180.0
  0
LINE
  5
165
  8
panel-edge-moved
  6
ByLayer
 10
291.3154213218619
 20
10.62499999999256
 30
0.0
 11
291.3154213218619
 21
9.300000000000011
 31
0.0
  0
LINE
  5
166
  8
panel-edge-moved
  6
ByLayer
 10
347.3750000000001
 20
8.3
 30
0.0
 11
292.3154213218619
 21
8.300000000000011
 31
0.0
  0
ARC
  5
167
  8
panel-edge-moved
  6
ByLayer
 10
292.3154213218619
 20
9.300000000000011
 30
0.0
 40
1.0
 50
180.0
 51
270.0
  0
ENDSEC
  0
EOF
