  0
SECTION
  2
HEADER
  9
$ACADVER
  1
AC1009
  9
$DWGCODEPAGE
  3
ANSI_1252
  9
$INSBASE
 10
0.0
 20
0.0
 30
0.0
  9
$EXTMIN
 10
1e+20
 20
1e+20
 30
1e+20
  9
$EXTMAX
 10
-1e+20
 20
-1e+20
 30
-1e+20
  9
$LIMMIN
 10
0.0
 20
0.0
  9
$LIMMAX
 10
420.0
 20
297.0
  9
$ORTHOMODE
 70
0
  9
$REGENMODE
 70
1
  9
$FILLMODE
 70
1
  9
$DRAGMODE
 70
2
  9
$QTEXTMODE
 70
0
  9
$MIRRTEXT
 70
1
  9
$OSMODE
 70
20583
  9
$LTSCALE
 40
1.0
  9
$ATTMODE
 70
1
  9
$TEXTSIZE
 40
2.5
  9
$TRACEWID
 40
1.0
  9
$TEXTSTYLE
  7
Standard
  9
$CLAYER
  8
0
  9
$CELTYPE
  6
ByLayer
  9
$CECOLOR
 62
256
  9
$DIMSCALE
 40
1.0
  9
$DIMASZ
 40
2.5
  9
$DIMEXO
 40
0.625
  9
$DIMDLI
 40
3.75
  9
$DIMRND
 40
0.0
  9
$DIMDLE
 40
0.0
  9
$DIMEXE
 40
1.25
  9
$DIMTP
 40
0.0
  9
$DIMTM
 40
0.0
  9
$DIMTXT
 40
2.5
  9
$DIMCEN
 40
2.5
  9
$DIMTSZ
 40
0.0
  9
$DIMTOL
 70
0
  9
$DIMLIM
 70
0
  9
$DIMTIH
 70
0
  9
$DIMTOH
 70
0
  9
$DIMSE1
 70
0
  9
$DIMSE2
 70
0
  9
$DIMTAD
 70
1
  9
$DIMZIN
 70
8
  9
$DIMBLK
  1

  9
$DIMASO
 70
1
  9
$DIMSHO
 70
1
  9
$DIMPOST
  1

  9
$DIMAPOST
  1

  9
$DIMALT
 70
0
  9
$DIMALTD
 70
3
  9
$DIMALTF
 40
0.03937007874
  9
$DIMLFAC
 40
1.0
  9
$DIMTOFL
 70
1
  9
$DIMTVP
 40
0.0
  9
$DIMTIX
 70
0
  9
$DIMSOXD
 70
0
  9
$DIMSAH
 70
0
  9
$DIMBLK1
  1

  9
$DIMBLK2
  1

  9
$DIMSTYLE
  2
ISO-25
  9
$DIMCLRD
 70
0
  9
$DIMCLRE
 70
0
  9
$DIMCLRT
 70
0
  9
$DIMTFAC
 40
1.0
  9
$DIMGAP
 40
0.625
  9
$COORDS
 70
1
  9
$ATTDIA
 70
0
  9
$ATTREQ
 70
1
  9
$HANDLING
 70
1
  9
$LUNITS
 70
2
  9
$LUPREC
 70
4
  9
$SKETCHINC
 40
1.0
  9
$FILLETRAD
 40
10.0
  9
$AUNITS
 70
0
  9
$AUPREC
 70
2
  9
$MENU
  1
.
  9
$ELEVATION
 40
0.0
  9
$PELEVATION
 40
0.0
  9
$THICKNESS
 40
0.0
  9
$LIMCHECK
 70
0
  9
$CHAMFERA
 40
0.0
  9
$CHAMFERB
 40
0.0
  9
$SKPOLY
 70
0
  9
$TDCREATE
 40
2459900.885462963
  9
$TDUPDATE
 40
2459900.885462963
  9
$TDINDWG
 40
0.0
  9
$TDUSRTIMER
 40
0.0
  9
$USRTIMER
 70
1
  9
$ANGBASE
 50
0.0
  9
$ANGDIR
 70
0
  9
$PDMODE
 70
0
  9
$PDSIZE
 40
0.0
  9
$PLINEWID
 40
0.0
  9
$SPLFRAME
 70
0
  9
$SPLINETYPE
 70
6
  9
$SPLINESEGS
 70
8
  9
$HANDSEED
  5
AB
  9
$SURFTAB1
 70
6
  9
$SURFTAB2
 70
6
  9
$SURFTYPE
 70
6
  9
$SURFU
 70
6
  9
$SURFV
 70
6
  9
$UCSNAME
  2

  9
$UCSORG
 10
0.0
 20
0.0
 30
0.0
  9
$UCSXDIR
 10
1.0
 20
0.0
 30
0.0
  9
$UCSYDIR
 10
0.0
 20
1.0
 30
0.0
  9
$PUCSNAME
  2

  9
$PUCSORG
 10
0.0
 20
0.0
 30
0.0
  9
$PUCSXDIR
 10
1.0
 20
0.0
 30
0.0
  9
$PUCSYDIR
 10
0.0
 20
1.0
 30
0.0
  9
$USERI1
 70
0
  9
$USERI2
 70
0
  9
$USERI3
 70
0
  9
$USERI4
 70
0
  9
$USERI5
 70
0
  9
$USERR1
 40
0.0
  9
$USERR2
 40
0.0
  9
$USERR3
 40
0.0
  9
$USERR4
 40
0.0
  9
$USERR5
 40
0.0
  9
$WORLDVIEW
 70
1
  9
$SHADEDGE
 70
3
  9
$SHADEDIF
 70
70
  9
$TILEMODE
 70
1
  9
$MAXACTVP
 70
64
  9
$PLIMCHECK
 70
0
  9
$PEXTMIN
 10
1e+20
 20
1e+20
 30
1e+20
  9
$PEXTMAX
 10
-1e+20
 20
-1e+20
 30
-1e+20
  9
$PLIMMIN
 10
0.0
 20
0.0
  9
$PLIMMAX
 10
420.0
 20
297.0
  9
$UNITMODE
 70
0
  9
$VISRETAIN
 70
1
  9
$PLINEGEN
 70
0
  9
$PSLTSCALE
 70
1
  0
ENDSEC
  0
SECTION
  2
TABLES
  0
TABLE
  2
VPORT
 70
1
  0
VPORT
  5
23
  2
*Active
 70
0
 10
0.0
 20
0.0
 11
1.0
 21
1.0
 12
0.0
 22
0.0
 13
0.0
 23
0.0
 14
0.5
 24
0.5
 15
0.5
 25
0.5
 16
0.0
 26
0.0
 36
1.0
 17
0.0
 27
0.0
 37
0.0
 40
1000.0
 41
1.34
 42
50.0
 43
0.0
 44
0.0
 50
0.0
 51
0.0
 71
0
 72
1000
 73
1
 74
3
 75
0
 76
0
 77
0
 78
0
  0
ENDTAB
  0
TABLE
  2
LTYPE
 70
3
  0
LTYPE
  5
24
  2
ByBlock
 70
0
  3

 72
65
 73
0
 40
0.0
  0
LTYPE
  5
25
  2
ByLayer
 70
0
  3

 72
65
 73
0
 40
0.0
  0
LTYPE
  5
26
  2
Continuous
 70
0
  3

 72
65
 73
0
 40
0.0
  0
ENDTAB
  0
TABLE
  2
LAYER
 70
2
  0
LAYER
  5
27
  2
0
 70
0
 62
7
  6
Continuous
  0
LAYER
  5
28
  2
Defpoints
 70
0
 62
7
  6
Continuous
  0
ENDTAB
  0
TABLE
  2
STYLE
 70
1
  0
STYLE
  5
29
  2
Standard
 70
0
 40
0.0
 41
1.0
 50
0.0
 71
0
 42
2.5
  3
txt
  4

  0
ENDTAB
  0
TABLE
  2
VIEW
 70
0
  0
ENDTAB
  0
TABLE
  2
UCS
 70
0
  0
ENDTAB
  0
TABLE
  2
APPID
 70
3
  0
APPID
  5
2A
  2
ACAD
 70
0
  0
APPID
  5
A9
  2
HATCHBACKGROUNDCOLOR
 70
0
  0
APPID
  5
AA
  2
EZDXF
 70
0
  0
ENDTAB
  0
TABLE
  2
DIMSTYLE
 70
1
  0
DIMSTYLE
105
2B
  2
Standard
 70
0
  3

  4

  5

  6

  7

 40
1.0
 41
2.5
 42
0.625
 43
3.75
 44
1.25
 45
0.0
 46
0.0
 47
0.0
 48
0.0
140
2.5
141
2.5
142
0.0
143
0.03937007874
144
1.0
145
0.0
146
1.0
147
0.625
 71
0
 72
0
 73
0
 74
0
 75
0
 76
0
 77
1
 78
8
170
0
171
3
172
1
173
0
174
0
175
0
176
0
177
0
178
0
  0
ENDTAB
  0
ENDSEC
  0
SECTION
  2
BLOCKS
  0
BLOCK
  5
18
  8
0
  2
$Model_Space
 70
0
 10
0.0
 20
0.0
 30
0.0
  3
$Model_Space
  1

1001
EZDXF
1000
CREATED_BY_EZDXF
1000
0.18.1 @ 2022-11-16T13:15:04.857656+00:00
1000
WRITTEN_BY_EZDXF
1000
0.18.1 @ 2022-11-16T13:15:04.867445+00:00
  0
ENDBLK
  5
19
  8
0
  0
BLOCK
  5
1C
  8
0
  2
$Paper_Space
 70
0
 10
0.0
 20
0.0
 30
0.0
  3
$Paper_Space
  1

  0
ENDBLK
  5
1D
  8
0
  0
ENDSEC
  0
SECTION
  2
ENTITIES
  0
LINE
  5
2D
  8
stab-merge-edge
  6
ByLayer
 10
350.3750000000001
 20
-8.300000000000002
 30
0.0
 11
-21.525
 21
-8.300000000000002
 31
0.0
  0
LINE
  5
2E
  8
stab-merge-edge
  6
ByLayer
 10
350.3750000000001
 20
-15.5125
 30
0.0
 11
350.3750000000001
 21
-32.1125
 31
0.0
  0
LINE
  5
2F
  8
stab-merge-edge
  6
ByLayer
 10
-21.525
 20
-32.1125
 30
0.0
 11
-21.525
 21
-15.5125
 31
0.0
  0
LINE
  5
30
  8
stab-merge-edge
  6
ByLayer
 10
350.3750000000001
 20
-34.56250000000001
 30
0.0
 11
350.3750000000001
 21
-51.16250000000001
 31
0.0
  0
LINE
  5
31
  8
stab-merge-edge
  6
ByLayer
 10
350.3750000000001
 20
-51.16250000000001
 30
0.0
 11
-21.525
 21
-51.16250000000001
 31
0.0
  0
LINE
  5
32
  8
stab-merge-edge
  6
ByLayer
 10
-21.525
 20
-51.16250000000001
 30
0.0
 11
-21.525
 21
-34.56250000000001
 31
0.0
  0
LINE
  5
33
  8
stab-merge-edge
  6
ByLayer
 10
350.3750000000001
 20
-53.6125
 30
0.0
 11
350.3750000000001
 21
-70.2125
 31
0.0
  0
LINE
  5
34
  8
stab-merge-edge
  6
ByLayer
 10
-21.525
 20
-70.2125
 30
0.0
 11
-21.525
 21
-53.6125
 31
0.0
  0
LINE
  5
35
  8
stab-merge-edge
  6
ByLayer
 10
350.3750000000001
 20
-72.6625
 30
0.0
 11
350.3750000000001
 21
-89.2625
 31
0.0
  0
LINE
  5
36
  8
stab-merge-edge
  6
ByLayer
 10
-21.525
 20
-89.2625
 30
0.0
 11
-21.525
 21
-72.6625
 31
0.0
  0
LINE
  5
37
  8
stab-merge-edge
  6
ByLayer
 10
-21.525
 20
-8.300000000000002
 30
0.0
 11
-21.525
 21
5.300000000000001
 31
0.0
  0
ARC
  5
38
  8
stab-merge-edge
  6
ByLayer
 10
-18.525
 20
5.300000000000001
 30
0.0
 40
3.0
 50
90.0
 51
180.0
  0
LINE
  5
39
  8
stab-merge-edge
  6
ByLayer
 10
350.3750000000001
 20
-91.71249999999999
 30
0.0
 11
350.3750000000001
 21
-105.3125
 31
0.0
  0
ARC
  5
3A
  8
stab-merge-edge
  6
ByLayer
 10
347.3750000000001
 20
-105.3125
 30
0.0
 40
3.0
 50
270.0
 51
0.0
  0
LINE
  5
3B
  8
stab-merge-edge
  6
ByLayer
 10
-21.525
 20
-105.3125
 30
0.0
 11
-21.525
 21
-91.71249999999999
 31
0.0
  0
ARC
  5
3C
  8
stab-merge-edge
  6
ByLayer
 10
-18.525
 20
-105.3125
 30
0.0
 40
3.0
 50
180.0
 51
269.9999999999993
  0
LINE
  5
3D
  8
stab-merge-edge
  6
ByLayer
 10
350.3750000000001
 20
5.300000000000001
 30
0.0
 11
350.3750000000001
 21
-8.300000000000002
 31
0.0
  0
LINE
  5
3E
  8
stab-merge-edge
  6
ByLayer
 10
-18.525
 20
8.3
 30
0.0
 11
347.3750000000001
 21
8.3
 31
0.0
  0
ARC
  5
3F
  8
stab-merge-edge
  6
ByLayer
 10
347.3750000000001
 20
5.300000000000001
 30
0.0
 40
3.0
 50
0.0
 51
89.99999999999892
  0
ARC
  5
40
  8
stab-merge-edge
  6
ByLayer
 10
238.09325
 20
-89.2175
 30
0.0
 40
3.5
 50
225.4678583762057
 51
314.5321416237943
  0
ARC
  5
41
  8
stab-merge-edge
  6
ByLayer
 10
261.96925
 20
-89.2175
 30
0.0
 40
3.5
 50
225.4678583762447
 51
314.5321416237562
  0
LINE
  5
42
  8
stab-merge-edge
  6
ByLayer
 10
240.5478324492202
 20
-91.71249999999995
 30
0.0
 11
259.5146675507832
 21
-91.71249999999938
 31
0.0
  0
LINE
  5
43
  8
stab-merge-edge
  6
ByLayer
 10
264.4238324492168
 20
-91.71249999999934
 30
0.0
 11
350.3750000000001
 21
-91.71249999999999
 31
0.0
  0
ARC
  5
44
  8
stab-merge-edge
  6
ByLayer
 10
190.5
 20
-91.75750000000001
 30
0.0
 40
3.5
 50
45.46785837628328
 51
134.5321416237174
  0
ARC
  5
45
  8
stab-merge-edge
  6
ByLayer
 10
76.19999999999999
 20
-91.75750000000001
 30
0.0
 40
3.5
 50
45.46785837627079
 51
134.5321416237299
  0
LINE
  5
46
  8
stab-merge-edge
  6
ByLayer
 10
188.0454175507849
 20
-89.26249999999901
 30
0.0
 11
78.65458244921547
 21
-89.2624999999997
 31
0.0
  0
ARC
  5
47
  8
stab-merge-edge
  6
ByLayer
 10
23.84425
 20
-89.2175
 30
0.0
 40
3.5
 50
225.4678583762554
 51
314.5321416237358
  0
ARC
  5
48
  8
stab-merge-edge
  6
ByLayer
 10
-0.03175000000000061
 20
-89.2175
 30
0.0
 40
3.5
 50
225.4678583762531
 51
314.5321416237468
  0
LINE
  5
49
  8
stab-merge-edge
  6
ByLayer
 10
2.42283244921642
 20
-91.71249999999975
 30
0.0
 11
21.38966755078437
 21
-91.7125
 31
0.0
  0
LINE
  5
4A
  8
stab-merge-edge
  6
ByLayer
 10
-21.525
 20
-91.71249999999999
 30
0.0
 11
-2.486332449215361
 21
-91.7124999999998
 31
0.0
  0
ARC
  5
4B
  8
stab-merge-edge
  6
ByLayer
 10
245.237
 20
-32.06750000000001
 30
0.0
 40
3.421655337698402
 50
226.8176299649894
 51
313.1823700350105
  0
LINE
  5
4C
  8
stab-merge-edge
  6
ByLayer
 10
-21.525
 20
-34.56250000000001
 30
0.0
 11
242.8954833440692
 21
-34.56249999999979
 31
0.0
  0
ARC
  5
4D
  8
stab-merge-edge
  6
ByLayer
 10
269.113
 20
-32.06750000000001
 30
0.0
 40
3.421655337698402
 50
226.8176299649813
 51
313.1823700350184
  0
LINE
  5
4E
  8
stab-merge-edge
  6
ByLayer
 10
247.5785166559309
 20
-34.56249999999999
 30
0.0
 11
266.7714833440684
 21
-34.56249999999997
 31
0.0
  0
LINE
  5
4F
  8
stab-merge-edge
  6
ByLayer
 10
271.4545166559311
 20
-34.56249999999947
 30
0.0
 11
350.3750000000001
 21
-34.56250000000001
 31
0.0
  0
LINE
  5
50
  8
stab-merge-edge
  6
ByLayer
 10
-21.525
 20
-72.6625
 30
0.0
 11
-4.077831437637933
 21
-72.66249999999992
 31
0.0
  0
ARC
  5
51
  8
stab-merge-edge
  6
ByLayer
 10
-4.077831437637951
 20
-67.66249999999992
 30
0.0
 40
5.0
 50
270.0000000000002
 51
302.6480787911486
  0
ARC
  5
52
  8
stab-merge-edge
  6
ByLayer
 10
-0.03175000000000061
 20
-73.9775
 30
0.0
 40
2.5
 50
57.35192120884983
 51
122.6480787911487
  0
ARC
  5
53
  8
stab-merge-edge
  6
ByLayer
 10
4.01433143763817
 20
-67.66249999999995
 30
0.0
 40
5.0
 50
237.3519212088498
 51
270.0
  0
LINE
  5
54
  8
stab-merge-edge
  6
ByLayer
 10
4.01433143763817
 20
-72.66249999999995
 30
0.0
 11
19.88367619707254
 21
-72.66249999999995
 31
0.0
  0
ARC
  5
55
  8
stab-merge-edge
  6
ByLayer
 10
19.88367619707254
 20
-67.66249999999995
 30
0.0
 40
5.0
 50
270.0
 51
302.4350480748798
  0
ARC
  5
56
  8
stab-merge-edge
  6
ByLayer
 10
23.90625
 20
-73.9925
 30
0.0
 40
2.5
 50
57.56495192511684
 51
122.4350480748797
  0
ARC
  5
57
  8
stab-merge-edge
  6
ByLayer
 10
27.92882380292791
 20
-67.66250000000008
 30
0.0
 40
5.0
 50
237.5649519251169
 51
270.0
  0
LINE
  5
58
  8
stab-merge-edge
  6
ByLayer
 10
-6.240451555075939
 20
-89.26250000000002
 30
0.0
 11
-21.525
 21
-89.2625
 31
0.0
  0
ARC
  5
59
  8
stab-merge-edge
  6
ByLayer
 10
-6.240451555075943
 20
-94.26250000000002
 30
0.0
 40
5.0
 50
39.09624896923858
 51
89.99999999999996
  0
ARC
  5
5A
  8
stab-merge-edge
  6
ByLayer
 10
-0.03175000000000061
 20
-89.2175
 30
0.0
 40
3.0
 50
219.0962489692386
 51
320.9037510307593
  0
ARC
  5
5B
  8
stab-merge-edge
  6
ByLayer
 10
6.176951555075469
 20
-94.26250000000002
 30
0.0
 40
5.0
 50
89.99999999999997
 51
140.9037510307593
  0
LINE
  5
5C
  8
stab-merge-edge
  6
ByLayer
 10
17.63554844492442
 20
-89.26250000000002
 30
0.0
 11
6.176951555075471
 21
-89.26250000000002
 31
0.0
  0
ARC
  5
5D
  8
stab-merge-edge
  6
ByLayer
 10
17.63554844492442
 20
-94.26250000000003
 30
0.0
 40
5.0
 50
39.09624896924031
 51
90.0
  0
ARC
  5
5E
  8
stab-merge-edge
  6
ByLayer
 10
23.84425
 20
-89.2175
 30
0.0
 40
3.0
 50
219.0962489692404
 51
320.9037510307589
  0
LINE
  5
5F
  8
stab-merge-edge
  6
ByLayer
 10
73.7454175507845
 20
-89.26249999999973
 30
0.0
 11
30.05295155507535
 21
-89.2625
 31
0.0
  0
ARC
  5
60
  8
stab-merge-edge
  6
ByLayer
 10
30.05295155507537
 20
-94.26249999999999
 30
0.0
 40
5.0
 50
90.00000000000024
 51
140.903751030759
  0
LINE
  5
61
  8
stab-merge-edge
  6
ByLayer
 10
26.29883244921573
 20
-91.7125
 30
0.0
 11
69.9912984449246
 21
-91.7125
 31
0.0
  0
ARC
  5
62
  8
stab-merge-edge
  6
ByLayer
 10
69.9912984449246
 20
-86.7125
 30
0.0
 40
5.0
 50
270.0
 51
320.9037510307589
  0
ARC
  5
63
  8
stab-merge-edge
  6
ByLayer
 10
76.19999999999999
 20
-91.75750000000001
 30
0.0
 40
3.0
 50
39.09624896923942
 51
140.903751030759
  0
ARC
  5
64
  8
stab-merge-edge
  6
ByLayer
 10
82.4087015550758
 20
-86.71249999999996
 30
0.0
 40
5.0
 50
219.0962489692393
 51
270.0
  0
LINE
  5
65
  8
stab-merge-edge
  6
ByLayer
 10
72.15391856236197
 20
-108.3124999999999
 30
0.0
 11
-18.52500000000003
 21
-108.3125
 31
0.0
  0
ARC
  5
66
  8
stab-merge-edge
  6
ByLayer
 10
72.15391856236197
 20
-113.3124999999999
 30
0.0
 40
5.0
 50
57.35192120885001
 51
90.0
  0
ARC
  5
67
  8
stab-merge-edge
  6
ByLayer
 10
76.19999999999999
 20
-106.9975
 30
0.0
 40
2.5
 50
237.3519212088501
 51
302.6480787911468
  0
ARC
  5
68
  8
stab-merge-edge
  6
ByLayer
 10
80.24608143763757
 20
-113.3125
 30
0.0
 40
5.0
 50
89.99999999999919
 51
122.6480787911468
  0
LINE
  5
69
  8
stab-merge-edge
  6
ByLayer
 10
82.4087015550758
 20
-91.71249999999999
 30
0.0
 11
184.2912984449245
 21
-91.71249999999998
 31
0.0
  0
ARC
  5
6A
  8
stab-merge-edge
  6
ByLayer
 10
184.2912984449245
 20
-86.71249999999998
 30
0.0
 40
5.0
 50
270.0
 51
320.9037510307593
  0
ARC
  5
6B
  8
stab-merge-edge
  6
ByLayer
 10
190.5
 20
-91.75750000000001
 30
0.0
 40
3.0
 50
39.09624896924176
 51
140.9037510307592
  0
LINE
  5
6C
  8
stab-merge-edge
  6
ByLayer
 10
196.7087015550753
 20
-91.71249999999995
 30
0.0
 11
235.6386675507793
 21
-91.71249999999996
 31
0.0
  0
ARC
  5
6D
  8
stab-merge-edge
  6
ByLayer
 10
196.7087015550753
 20
-86.71249999999995
 30
0.0
 40
5.0
 50
219.0962489692415
 51
270.0
  0
LINE
  5
6E
  8
stab-merge-edge
  6
ByLayer
 10
186.4539185623646
 20
-108.3125000000011
 30
0.0
 11
80.24608143763764
 21
-108.3124999999999
 31
0.0
  0
ARC
  5
6F
  8
stab-merge-edge
  6
ByLayer
 10
186.4539185623645
 20
-113.3125000000011
 30
0.0
 40
5.0
 50
57.35192120887154
 51
89.99999999999935
  0
ARC
  5
70
  8
stab-merge-edge
  6
ByLayer
 10
190.5
 20
-106.9975
 30
0.0
 40
2.5
 50
237.3519212088718
 51
302.6480787911249
  0
LINE
  5
71
  8
stab-merge-edge
  6
ByLayer
 10
347.3750000000001
 20
-108.3125
 30
0.0
 11
194.5460814376349
 21
-108.3125000000011
 31
0.0
  0
ARC
  5
72
  8
stab-merge-edge
  6
ByLayer
 10
194.5460814376349
 20
-113.3125000000011
 30
0.0
 40
5.0
 50
90.00000000000065
 51
122.6480787911249
  0
LINE
  5
73
  8
stab-merge-edge
  6
ByLayer
 10
231.8845484449234
 20
-89.26249999999992
 30
0.0
 11
192.9545824492141
 21
-89.26249999999911
 31
0.0
  0
ARC
  5
74
  8
stab-merge-edge
  6
ByLayer
 10
231.8845484449233
 20
-94.26249999999989
 30
0.0
 40
5.0
 50
39.09624896923443
 51
89.9999999999987
  0
ARC
  5
75
  8
stab-merge-edge
  6
ByLayer
 10
238.09325
 20
-89.2175
 30
0.0
 40
3.0
 50
219.096248969234
 51
320.9037510307687
  0
ARC
  5
76
  8
stab-merge-edge
  6
ByLayer
 10
244.3019515550776
 20
-94.2625
 30
0.0
 40
5.0
 50
90.0
 51
140.9037510307689
  0
LINE
  5
77
  8
stab-merge-edge
  6
ByLayer
 10
255.7605484449235
 20
-89.26250000000005
 30
0.0
 11
244.3019515550776
 21
-89.26250000000002
 31
0.0
  0
ARC
  5
78
  8
stab-merge-edge
  6
ByLayer
 10
255.7605484449235
 20
-94.26249999999999
 30
0.0
 40
5.0
 50
39.09624896923599
 51
90.0
  0
ARC
  5
79
  8
stab-merge-edge
  6
ByLayer
 10
261.96925
 20
-89.2175
 30
0.0
 40
3.0
 50
219.0962489692363
 51
320.9037510307548
  0
LINE
  5
7A
  8
stab-merge-edge
  6
ByLayer
 10
350.3750000000001
 20
-89.2625
 30
0.0
 11
268.1779515550745
 21
-89.26250000000006
 31
0.0
  0
ARC
  5
7B
  8
stab-merge-edge
  6
ByLayer
 10
268.1779515550745
 20
-94.26250000000003
 30
0.0
 40
5.0
 50
90.0
 51
140.9037510307546
  0
ARC
  5
7C
  8
stab-merge-edge
  6
ByLayer
 10
249.0644515550768
 20
-75.21250000000002
 30
0.0
 40
5.0
 50
90.0
 51
140.9037510307653
  0
LINE
  5
7D
  8
stab-merge-edge
  6
ByLayer
 10
236.647048444925
 20
-70.2125
 30
0.0
 11
-21.525
 21
-70.2125
 31
0.0
  0
ARC
  5
7E
  8
stab-merge-edge
  6
ByLayer
 10
242.85575
 20
-70.1675
 30
0.0
 40
3.0
 50
219.0962489692427
 51
320.9037510307652
  0
ARC
  5
7F
  8
stab-merge-edge
  6
ByLayer
 10
236.647048444925
 20
-75.2125
 30
0.0
 40
5.0
 50
39.09624896924296
 51
90.0
  0
LINE
  5
80
  8
stab-merge-edge
  6
ByLayer
 10
260.5230484449233
 20
-70.21250000000003
 30
0.0
 11
249.0644515550768
 21
-70.21250000000002
 31
0.0
  0
ARC
  5
81
  8
stab-merge-edge
  6
ByLayer
 10
260.5230484449233
 20
-75.21250000000002
 30
0.0
 40
5.0
 50
39.09624896923568
 51
90.0
  0
ARC
  5
82
  8
stab-merge-edge
  6
ByLayer
 10
266.73175
 20
-70.1675
 30
0.0
 40
3.0
 50
219.0962489692352
 51
320.9037510307617
  0
LINE
  5
83
  8
stab-merge-edge
  6
ByLayer
 10
350.3750000000001
 20
-70.2125
 30
0.0
 11
272.940451555076
 21
-70.21250000000002
 31
0.0
  0
ARC
  5
84
  8
stab-merge-edge
  6
ByLayer
 10
272.940451555076
 20
-75.21250000000003
 30
0.0
 40
5.0
 50
90.0
 51
140.9037510307619
  0
LINE
  5
85
  8
stab-merge-edge
  6
ByLayer
 10
-21.525
 20
-53.6125
 30
0.0
 11
238.809668562364
 21
-53.61249999999819
 31
0.0
  0
ARC
  5
86
  8
stab-merge-edge
  6
ByLayer
 10
238.809668562364
 20
-48.61249999999821
 30
0.0
 40
5.0
 50
270.0000000000007
 51
302.6480787911293
  0
ARC
  5
87
  8
stab-merge-edge
  6
ByLayer
 10
242.85575
 20
-54.92750000000001
 30
0.0
 40
2.5
 50
57.35192120886655
 51
122.6480787911295
  0
ARC
  5
88
  8
stab-merge-edge
  6
ByLayer
 10
246.9018314376364
 20
-48.6124999999986
 30
0.0
 40
5.0
 50
237.351921208867
 51
269.9999999999954
  0
LINE
  5
89
  8
stab-merge-edge
  6
ByLayer
 10
246.901831437636
 20
-53.61249999999861
 30
0.0
 11
262.771176197075
 21
-53.61249999999983
 31
0.0
  0
ARC
  5
8A
  8
stab-merge-edge
  6
ByLayer
 10
262.7711761970754
 20
-48.61249999999984
 30
0.0
 40
5.0
 50
269.9999999999954
 51
302.4350480748605
  0
ARC
  5
8B
  8
stab-merge-edge
  6
ByLayer
 10
266.79375
 20
-54.94250000000001
 30
0.0
 40
2.5
 50
57.5649519251176
 51
122.4350480748609
  0
LINE
  5
8C
  8
stab-merge-edge
  6
ByLayer
 10
270.8163238029275
 20
-53.6125000000004
 30
0.0
 11
350.3750000000001
 21
-53.6125
 31
0.0
  0
ARC
  5
8D
  8
stab-merge-edge
  6
ByLayer
 10
270.8163238029275
 20
-48.61250000000041
 30
0.0
 40
5.0
 50
237.5649519251182
 51
270.0
  0
LINE
  5
8E
  8
stab-merge-edge
  6
ByLayer
 10
239.0282984449222
 20
-32.11250000000001
 30
0.0
 11
-21.525
 21
-32.1125
 31
0.0
  0
ARC
  5
8F
  8
stab-merge-edge
  6
ByLayer
 10
239.0282984449222
 20
-37.11249999999998
 30
0.0
 40
5.0
 50
39.09624896923013
 51
90.0
  0
ARC
  5
90
  8
stab-merge-edge
  6
ByLayer
 10
245.237
 20
-32.06750000000001
 30
0.0
 40
3.0
 50
219.0962489692297
 51
320.9037510307645
  0
ARC
  5
91
  8
stab-merge-edge
  6
ByLayer
 10
251.4457015550765
 20
-37.11249999999997
 30
0.0
 40
5.0
 50
90.0
 51
140.9037510307644
  0
LINE
  5
92
  8
stab-merge-edge
  6
ByLayer
 10
262.9042984449218
 20
-32.11249999999997
 30
0.0
 11
251.4457015550765
 21
-32.11249999999997
 31
0.0
  0
ARC
  5
93
  8
stab-merge-edge
  6
ByLayer
 10
262.9042984449218
 20
-37.11249999999997
 30
0.0
 40
5.0
 50
39.09624896922802
 51
90.0
  0
ARC
  5
94
  8
stab-merge-edge
  6
ByLayer
 10
269.113
 20
-32.06750000000001
 30
0.0
 40
3.0
 50
219.0962489692279
 51
320.9037510307614
  0
LINE
  5
95
  8
stab-merge-edge
  6
ByLayer
 10
350.3750000000001
 20
-32.1125
 30
0.0
 11
275.3217015550758
 21
-32.11249999999997
 31
0.0
  0
ARC
  5
96
  8
stab-merge-edge
  6
ByLayer
 10
275.3217015550758
 20
-37.11249999999998
 30
0.0
 40
5.0
 50
90.0
 51
140.903751030761
  0
ARC
  5
97
  8
stab-merge-edge
  6
ByLayer
 10
249.2830814376356
 20
-10.51249999999976
 30
0.0
 40
5.0
 50
237.3519212088672
 51
270.0000000000056
  0
ARC
  5
98
  8
stab-merge-edge
  6
ByLayer
 10
245.237
 20
-16.82750000000001
 30
0.0
 40
2.5
 50
57.35192120886726
 51
122.648078791149
  0
LINE
  5
99
  8
stab-merge-edge
  6
ByLayer
 10
-21.525
 20
-15.5125
 30
0.0
 11
241.190918562362
 21
-15.51249999999997
 31
0.0
  0
ARC
  5
9A
  8
stab-merge-edge
  6
ByLayer
 10
241.190918562362
 20
-10.51249999999995
 30
0.0
 40
5.0
 50
269.9999999999997
 51
302.6480787911489
  0
LINE
  5
9B
  8
stab-merge-edge
  6
ByLayer
 10
249.2830814376361
 20
-15.51249999999976
 30
0.0
 11
265.1524261970784
 21
-15.51249999999819
 31
0.0
  0
ARC
  5
9C
  8
stab-merge-edge
  6
ByLayer
 10
265.1524261970779
 20
-10.51249999999816
 30
0.0
 40
5.0
 50
270.0000000000059
 51
302.4350480748381
  0
ARC
  5
9D
  8
stab-merge-edge
  6
ByLayer
 10
269.175
 20
-16.84250000000001
 30
0.0
 40
2.5
 50
57.56495192514381
 51
122.4350480748379
  0
LINE
  5
9E
  8
stab-merge-edge
  6
ByLayer
 10
273.1975738029248
 20
-15.51249999999816
 30
0.0
 11
350.3750000000001
 21
-15.5125
 31
0.0
  0
ARC
  5
9F
  8
stab-merge-edge
  6
ByLayer
 10
273.1975738029249
 20
-10.51249999999814
 30
0.0
 40
5.0
 50
237.5649519251443
 51
269.9999999999987
  0
ARC
  5
A0
  8
stab-merge-edge
  6
ByLayer
 10
242.8557500000003
 20
-70.2125
 30
0.0
 40
3.571056040476868
 50
218.588900841762
 51
316.6800621008004
  0
LINE
  5
A1
  8
stab-merge-edge
  6
ByLayer
 10
269.2716814856605
 20
-72.66250000000115
 30
0.0
 11
350.3750000000001
 21
-72.6625
 31
0.0
  0
ARC
  5
A2
  8
stab-merge-edge
  6
ByLayer
 10
266.73175
 20
-70.1675
 30
0.0
 40
3.560375956531774
 50
218.7151827653822
 51
315.5112911997808
  0
LINE
  5
A3
  8
stab-merge-edge
  6
ByLayer
 10
27.92882380292791
 20
-72.66250000000007
 30
0.0
 11
234.0471685623606
 21
-72.66250000000007
 31
0.0
  0
ARC
  5
A4
  8
stab-merge-edge
  6
ByLayer
 10
234.0471685623606
 20
-67.6625000000001
 30
0.0
 40
5.0
 50
270.0000000000003
 51
302.648078791159
  0
LINE
  5
A5
  8
stab-merge-edge
  6
ByLayer
 10
245.4538149037794
 20
-72.66249999999928
 30
0.0
 11
258.0086761970714
 21
-72.66249999999992
 31
0.0
  0
ARC
  5
A6
  8
stab-merge-edge
  6
ByLayer
 10
258.0086761970716
 20
-67.66249999999991
 30
0.0
 40
5.0
 50
269.9999999999974
 51
302.4350480748854
  0
ARC
  5
A7
  8
stab-merge-edge
  6
ByLayer
 10
262.03125
 20
-73.9925
 30
0.0
 40
2.5
 50
39.73710429722922
 51
122.4350480748853
  0
ARC
  5
A8
  8
stab-merge-edge
  6
ByLayer
 10
238.09325
 20
-73.9775
 30
0.0
 40
2.5
 50
37.95574747840283
 51
122.648078791159
  0
ENDSEC
  0
EOF
