  0
SECTION
  2
HEADER
  9
$ACADVER
  1
AC1009
  9
$DWGCODEPAGE
  3
ANSI_1252
  9
$INSBASE
 10
0.0
 20
0.0
 30
0.0
  9
$EXTMIN
 10
1e+20
 20
1e+20
 30
1e+20
  9
$EXTMAX
 10
-1e+20
 20
-1e+20
 30
-1e+20
  9
$LIMMIN
 10
0.0
 20
0.0
  9
$LIMMAX
 10
420.0
 20
297.0
  9
$ORTHOMODE
 70
0
  9
$REGENMODE
 70
1
  9
$FILLMODE
 70
1
  9
$DRAGMODE
 70
2
  9
$QTEXTMODE
 70
0
  9
$MIRRTEXT
 70
1
  9
$OSMODE
 70
20583
  9
$LTSCALE
 40
1.0
  9
$ATTMODE
 70
1
  9
$TEXTSIZE
 40
2.5
  9
$TRACEWID
 40
1.0
  9
$TEXTSTYLE
  7
Standard
  9
$CLAYER
  8
0
  9
$CELTYPE
  6
ByLayer
  9
$CECOLOR
 62
256
  9
$DIMSCALE
 40
1.0
  9
$DIMASZ
 40
2.5
  9
$DIMEXO
 40
0.625
  9
$DIMDLI
 40
3.75
  9
$DIMRND
 40
0.0
  9
$DIMDLE
 40
0.0
  9
$DIMEXE
 40
1.25
  9
$DIMTP
 40
0.0
  9
$DIMTM
 40
0.0
  9
$DIMTXT
 40
2.5
  9
$DIMCEN
 40
2.5
  9
$DIMTSZ
 40
0.0
  9
$DIMTOL
 70
0
  9
$DIMLIM
 70
0
  9
$DIMTIH
 70
0
  9
$DIMTOH
 70
0
  9
$DIMSE1
 70
0
  9
$DIMSE2
 70
0
  9
$DIMTAD
 70
1
  9
$DIMZIN
 70
8
  9
$DIMBLK
  1

  9
$DIMASO
 70
1
  9
$DIMSHO
 70
1
  9
$DIMPOST
  1

  9
$DIMAPOST
  1

  9
$DIMALT
 70
0
  9
$DIMALTD
 70
3
  9
$DIMALTF
 40
0.03937007874
  9
$DIMLFAC
 40
1.0
  9
$DIMTOFL
 70
1
  9
$DIMTVP
 40
0.0
  9
$DIMTIX
 70
0
  9
$DIMSOXD
 70
0
  9
$DIMSAH
 70
0
  9
$DIMBLK1
  1

  9
$DIMBLK2
  1

  9
$DIMSTYLE
  2
ISO-25
  9
$DIMCLRD
 70
0
  9
$DIMCLRE
 70
0
  9
$DIMCLRT
 70
0
  9
$DIMTFAC
 40
1.0
  9
$DIMGAP
 40
0.625
  9
$COORDS
 70
1
  9
$ATTDIA
 70
0
  9
$ATTREQ
 70
1
  9
$HANDLING
 70
1
  9
$LUNITS
 70
2
  9
$LUPREC
 70
4
  9
$SKETCHINC
 40
1.0
  9
$FILLETRAD
 40
10.0
  9
$AUNITS
 70
0
  9
$AUPREC
 70
2
  9
$MENU
  1
.
  9
$ELEVATION
 40
0.0
  9
$PELEVATION
 40
0.0
  9
$THICKNESS
 40
0.0
  9
$LIMCHECK
 70
0
  9
$CHAMFERA
 40
0.0
  9
$CHAMFERB
 40
0.0
  9
$SKPOLY
 70
0
  9
$TDCREATE
 40
2459927.9961458333
  9
$TDUPDATE
 40
2459927.9961458333
  9
$TDINDWG
 40
0.0
  9
$TDUSRTIMER
 40
0.0
  9
$USRTIMER
 70
1
  9
$ANGBASE
 50
0.0
  9
$ANGDIR
 70
0
  9
$PDMODE
 70
0
  9
$PDSIZE
 40
0.0
  9
$PLINEWID
 40
0.0
  9
$SPLFRAME
 70
0
  9
$SPLINETYPE
 70
6
  9
$SPLINESEGS
 70
8
  9
$HANDSEED
  5
AB
  9
$SURFTAB1
 70
6
  9
$SURFTAB2
 70
6
  9
$SURFTYPE
 70
6
  9
$SURFU
 70
6
  9
$SURFV
 70
6
  9
$UCSNAME
  2

  9
$UCSORG
 10
0.0
 20
0.0
 30
0.0
  9
$UCSXDIR
 10
1.0
 20
0.0
 30
0.0
  9
$UCSYDIR
 10
0.0
 20
1.0
 30
0.0
  9
$PUCSNAME
  2

  9
$PUCSORG
 10
0.0
 20
0.0
 30
0.0
  9
$PUCSXDIR
 10
1.0
 20
0.0
 30
0.0
  9
$PUCSYDIR
 10
0.0
 20
1.0
 30
0.0
  9
$USERI1
 70
0
  9
$USERI2
 70
0
  9
$USERI3
 70
0
  9
$USERI4
 70
0
  9
$USERI5
 70
0
  9
$USERR1
 40
0.0
  9
$USERR2
 40
0.0
  9
$USERR3
 40
0.0
  9
$USERR4
 40
0.0
  9
$USERR5
 40
0.0
  9
$WORLDVIEW
 70
1
  9
$SHADEDGE
 70
3
  9
$SHADEDIF
 70
70
  9
$TILEMODE
 70
1
  9
$MAXACTVP
 70
64
  9
$PLIMCHECK
 70
0
  9
$PEXTMIN
 10
1e+20
 20
1e+20
 30
1e+20
  9
$PEXTMAX
 10
-1e+20
 20
-1e+20
 30
-1e+20
  9
$PLIMMIN
 10
0.0
 20
0.0
  9
$PLIMMAX
 10
420.0
 20
297.0
  9
$UNITMODE
 70
0
  9
$VISRETAIN
 70
1
  9
$PLINEGEN
 70
0
  9
$PSLTSCALE
 70
1
  0
ENDSEC
  0
SECTION
  2
TABLES
  0
TABLE
  2
VPORT
 70
1
  0
VPORT
  5
23
  2
*Active
 70
0
 10
0.0
 20
0.0
 11
1.0
 21
1.0
 12
0.0
 22
0.0
 13
0.0
 23
0.0
 14
0.5
 24
0.5
 15
0.5
 25
0.5
 16
0.0
 26
0.0
 36
1.0
 17
0.0
 27
0.0
 37
0.0
 40
1000.0
 41
1.34
 42
50.0
 43
0.0
 44
0.0
 50
0.0
 51
0.0
 71
0
 72
1000
 73
1
 74
3
 75
0
 76
0
 77
0
 78
0
  0
ENDTAB
  0
TABLE
  2
LTYPE
 70
3
  0
LTYPE
  5
24
  2
ByBlock
 70
0
  3

 72
65
 73
0
 40
0.0
  0
LTYPE
  5
25
  2
ByLayer
 70
0
  3

 72
65
 73
0
 40
0.0
  0
LTYPE
  5
26
  2
Continuous
 70
0
  3

 72
65
 73
0
 40
0.0
  0
ENDTAB
  0
TABLE
  2
LAYER
 70
2
  0
LAYER
  5
27
  2
0
 70
0
 62
7
  6
Continuous
  0
LAYER
  5
28
  2
Defpoints
 70
0
 62
7
  6
Continuous
  0
ENDTAB
  0
TABLE
  2
STYLE
 70
1
  0
STYLE
  5
29
  2
Standard
 70
0
 40
0.0
 41
1.0
 50
0.0
 71
0
 42
2.5
  3
txt
  4

  0
ENDTAB
  0
TABLE
  2
VIEW
 70
0
  0
ENDTAB
  0
TABLE
  2
UCS
 70
0
  0
ENDTAB
  0
TABLE
  2
APPID
 70
3
  0
APPID
  5
2A
  2
ACAD
 70
0
  0
APPID
  5
A9
  2
HATCHBACKGROUNDCOLOR
 70
0
  0
APPID
  5
AA
  2
EZDXF
 70
0
  0
ENDTAB
  0
TABLE
  2
DIMSTYLE
 70
1
  0
DIMSTYLE
105
2B
  2
Standard
 70
0
  3

  4

  5

  6

  7

 40
1.0
 41
2.5
 42
0.625
 43
3.75
 44
1.25
 45
0.0
 46
0.0
 47
0.0
 48
0.0
140
2.5
141
2.5
142
0.0
143
0.03937007874
144
1.0
145
0.0
146
1.0
147
0.625
 71
0
 72
0
 73
0
 74
0
 75
0
 76
0
 77
1
 78
8
170
0
171
3
172
1
173
0
174
0
175
0
176
0
177
0
178
0
  0
ENDTAB
  0
ENDSEC
  0
SECTION
  2
BLOCKS
  0
BLOCK
  5
18
  8
0
  2
$Model_Space
 70
0
 10
0.0
 20
0.0
 30
0.0
  3
$Model_Space
  1

1001
EZDXF
1000
CREATED_BY_EZDXF
1000
0.18.1 @ 2022-12-13T15:54:27.715997+00:00
1000
WRITTEN_BY_EZDXF
1000
0.18.1 @ 2022-12-13T15:54:27.724735+00:00
  0
ENDBLK
  5
19
  8
0
  0
BLOCK
  5
1C
  8
0
  2
$Paper_Space
 70
0
 10
0.0
 20
0.0
 30
0.0
  3
$Paper_Space
  1

  0
ENDBLK
  5
1D
  8
0
  0
ENDSEC
  0
SECTION
  2
ENTITIES
  0
ARC
  5
2D
  8
stab-merge-edge-moved
  6
ByLayer
 10
-18.525
 20
5.300000000000001
 30
0.0
 40
3.0
 50
90.0
 51
180.0
  0
LINE
  5
2E
  8
stab-merge-edge-moved
  6
ByLayer
 10
-18.525
 20
8.3
 30
0.0
 11
347.3750000000002
 21
8.3
 31
0.0
  0
ARC
  5
2F
  8
stab-merge-edge-moved
  6
ByLayer
 10
347.3750000000001
 20
5.300000000000002
 30
0.0
 40
3.0
 50
360.0
 51
89.99999999999783
  0
LINE
  5
30
  8
stab-merge-edge-moved
  6
ByLayer
 10
350.3750000000001
 20
5.300000000000001
 30
0.0
 11
350.3750000000001
 21
-8.300000000000002
 31
0.0
  0
LINE
  5
31
  8
stab-merge-edge-moved
  6
ByLayer
 10
350.3750000000001
 20
-8.300000000000002
 30
0.0
 11
-21.525
 21
-8.300000000000002
 31
0.0
  0
LINE
  5
32
  8
stab-merge-edge-moved
  6
ByLayer
 10
-21.525
 20
-8.300000000000002
 30
0.0
 11
-21.525
 21
5.300000000000001
 31
0.0
  0
ARC
  5
33
  8
stab-merge-edge-moved
  6
ByLayer
 10
241.1909185623619
 20
-6.484999999999328
 30
0.0
 40
5.000000000000029
 50
270.0000000000003
 51
302.6480787911495
  0
ARC
  5
34
  8
stab-merge-edge-moved
  6
ByLayer
 10
245.2369999999989
 20
-12.79999999999942
 30
0.0
 40
2.499999999999421
 50
57.35192120884635
 51
122.6480787911281
  0
ARC
  5
35
  8
stab-merge-edge-moved
  6
ByLayer
 10
249.2830814376356
 20
-6.484999999999141
 30
0.0
 40
5.000000000000028
 50
237.3519212088671
 51
270.0000000000056
  0
LINE
  5
36
  8
stab-merge-edge-moved
  6
ByLayer
 10
249.2830814376361
 20
-11.48499999999917
 30
0.0
 11
265.1524261970784
 21
-11.48499999999757
 31
0.0
  0
ARC
  5
37
  8
stab-merge-edge-moved
  6
ByLayer
 10
265.1524261970754
 20
-6.484999999998278
 30
0.0
 40
4.999999999999291
 50
270.0000000000339
 51
302.4350480748661
  0
ARC
  5
38
  8
stab-merge-edge-moved
  6
ByLayer
 10
269.1750000000001
 20
-12.81499999999942
 30
0.0
 40
2.500000000000054
 50
57.5649519251459
 51
122.43504807484
  0
ARC
  5
39
  8
stab-merge-edge-moved
  6
ByLayer
 10
273.1975738029249
 20
-6.484999999997571
 30
0.0
 40
4.999999999999998
 50
237.5649519251443
 51
269.9999999999987
  0
LINE
  5
3A
  8
stab-merge-edge-moved
  6
ByLayer
 10
273.1975738029248
 20
-11.48499999999757
 30
0.0
 11
350.3750000000001
 21
-11.48499999999941
 31
0.0
  0
LINE
  5
3B
  8
stab-merge-edge-moved
  6
ByLayer
 10
350.3750000000001
 20
-11.48499999999941
 30
0.0
 11
350.3750000000001
 21
-28.0849999999994
 31
0.0
  0
LINE
  5
3C
  8
stab-merge-edge-moved
  6
ByLayer
 10
350.3750000000001
 20
-28.0849999999994
 30
0.0
 11
275.3217015550758
 21
-28.08499999999939
 31
0.0
  0
ARC
  5
3D
  8
stab-merge-edge-moved
  6
ByLayer
 10
275.3217015550758
 20
-33.08499999999934
 30
0.0
 40
4.999999999999953
 50
90.0
 51
140.903751030761
  0
ARC
  5
3E
  8
stab-merge-edge-moved
  6
ByLayer
 10
269.1129999999988
 20
-28.03999999999942
 30
0.0
 40
3.000000000000961
 50
219.0962489692422
 51
320.9037510307759
  0
ARC
  5
3F
  8
stab-merge-edge-moved
  6
ByLayer
 10
262.9042984449218
 20
-33.08499999999937
 30
0.0
 40
4.99999999999999
 50
39.09624896922802
 51
90.0
  0
LINE
  5
40
  8
stab-merge-edge-moved
  6
ByLayer
 10
262.9042984449218
 20
-28.08499999999938
 30
0.0
 11
251.4457015550765
 21
-28.08499999999938
 31
0.0
  0
ARC
  5
41
  8
stab-merge-edge-moved
  6
ByLayer
 10
251.4457015550759
 20
-33.08499999999965
 30
0.0
 40
5.000000000000271
 50
89.99999999999284
 51
140.9037510307573
  0
ARC
  5
42
  8
stab-merge-edge-moved
  6
ByLayer
 10
245.236999999999
 20
-28.03999999999942
 30
0.0
 40
3.000000000000787
 50
219.0962489692419
 51
320.9037510307768
  0
ARC
  5
43
  8
stab-merge-edge-moved
  6
ByLayer
 10
239.0282984449222
 20
-33.0849999999994
 30
0.0
 40
4.999999999999978
 50
39.09624896923044
 51
90.00000000000033
  0
LINE
  5
44
  8
stab-merge-edge-moved
  6
ByLayer
 10
239.0282984449222
 20
-28.08499999999942
 30
0.0
 11
-21.525
 21
-28.0849999999994
 31
0.0
  0
LINE
  5
45
  8
stab-merge-edge-moved
  6
ByLayer
 10
-21.525
 20
-28.0849999999994
 30
0.0
 11
-21.525
 21
-11.48499999999941
 31
0.0
  0
LINE
  5
46
  8
stab-merge-edge-moved
  6
ByLayer
 10
-21.525
 20
-11.48499999999941
 30
0.0
 11
241.190918562362
 21
-11.48499999999936
 31
0.0
  0
LINE
  5
47
  8
stab-merge-edge-moved
  6
ByLayer
 10
-21.525
 20
-32.11334466230181
 30
0.0
 11
242.8954833440692
 21
-32.11334466230159
 31
0.0
  0
ARC
  5
48
  8
stab-merge-edge-moved
  6
ByLayer
 10
245.2370000000002
 20
-29.6183446623018
 30
0.0
 40
3.421655337698546
 50
226.817629964987
 51
313.182370035008
  0
LINE
  5
49
  8
stab-merge-edge-moved
  6
ByLayer
 10
247.5785166559309
 20
-32.11334466230179
 30
0.0
 11
266.7714833440689
 21
-32.11334466230126
 31
0.0
  0
ARC
  5
4A
  8
stab-merge-edge-moved
  6
ByLayer
 10
269.113
 20
-29.61834466230177
 30
0.0
 40
3.421655337698453
 50
226.8176299649814
 51
313.1823700350185
  0
LINE
  5
4B
  8
stab-merge-edge-moved
  6
ByLayer
 10
271.4545166559311
 20
-32.11334466230127
 30
0.0
 11
350.3750000000001
 21
-32.11334466230181
 31
0.0
  0
LINE
  5
4C
  8
stab-merge-edge-moved
  6
ByLayer
 10
350.3750000000001
 20
-32.11334466230181
 30
0.0
 11
350.3750000000001
 21
-48.71334466230181
 31
0.0
  0
LINE
  5
4D
  8
stab-merge-edge-moved
  6
ByLayer
 10
350.3750000000001
 20
-48.71334466230181
 30
0.0
 11
-21.525
 21
-48.71334466230181
 31
0.0
  0
LINE
  5
4E
  8
stab-merge-edge-moved
  6
ByLayer
 10
-21.525
 20
-48.71334466230181
 30
0.0
 11
-21.525
 21
-32.11334466230181
 31
0.0
  0
ARC
  5
4F
  8
stab-merge-edge-moved
  6
ByLayer
 10
236.647048444925
 20
-73.49834466230179
 30
0.0
 40
4.999999999999985
 50
39.09624896924275
 51
89.99999999999967
  0
LINE
  5
50
  8
stab-merge-edge-moved
  6
ByLayer
 10
236.647048444925
 20
-68.4983446623018
 30
0.0
 11
-21.525
 21
-68.4983446623018
 31
0.0
  0
LINE
  5
51
  8
stab-merge-edge-moved
  6
ByLayer
 10
-21.525
 20
-68.4983446623018
 30
0.0
 11
-21.525
 21
-51.8983446623018
 31
0.0
  0
LINE
  5
52
  8
stab-merge-edge-moved
  6
ByLayer
 10
-21.525
 20
-51.8983446623018
 30
0.0
 11
238.8096685623641
 21
-51.8983446623
 31
0.0
  0
ARC
  5
53
  8
stab-merge-edge-moved
  6
ByLayer
 10
238.8096685623646
 20
-46.89834466229993
 30
0.0
 40
5.000000000000074
 50
269.9999999999935
 51
302.6480787911221
  0
ARC
  5
54
  8
stab-merge-edge-moved
  6
ByLayer
 10
242.8557500000002
 20
-53.2133446623018
 30
0.0
 40
2.500000000000113
 50
57.35192120887057
 51
122.6480787911336
  0
ARC
  5
55
  8
stab-merge-edge-moved
  6
ByLayer
 10
246.9018314376364
 20
-46.89834466230037
 30
0.0
 40
5.00000000000003
 50
237.351921208867
 51
269.9999999999954
  0
LINE
  5
56
  8
stab-merge-edge-moved
  6
ByLayer
 10
246.901831437636
 20
-51.89834466230041
 30
0.0
 11
262.771176197075
 21
-51.89834466230164
 31
0.0
  0
ARC
  5
57
  8
stab-merge-edge-moved
  6
ByLayer
 10
262.7711761970728
 20
-46.89834466230241
 30
0.0
 40
4.999999999999227
 50
270.0000000000254
 51
302.4350480748905
  0
ARC
  5
58
  8
stab-merge-edge-moved
  6
ByLayer
 10
266.7937499999996
 20
-53.22834466230182
 30
0.0
 40
2.499999999999795
 50
57.56495192510994
 51
122.4350480748532
  0
ARC
  5
59
  8
stab-merge-edge-moved
  6
ByLayer
 10
270.8163238029275
 20
-46.89834466230221
 30
0.0
 40
4.999999999999997
 50
237.5649519251188
 51
270.0000000000007
  0
LINE
  5
5A
  8
stab-merge-edge-moved
  6
ByLayer
 10
270.8163238029275
 20
-51.8983446623022
 30
0.0
 11
350.3750000000001
 21
-51.8983446623018
 31
0.0
  0
LINE
  5
5B
  8
stab-merge-edge-moved
  6
ByLayer
 10
350.3750000000001
 20
-51.8983446623018
 30
0.0
 11
350.3750000000001
 21
-68.4983446623018
 31
0.0
  0
LINE
  5
5C
  8
stab-merge-edge-moved
  6
ByLayer
 10
350.3750000000001
 20
-68.4983446623018
 30
0.0
 11
272.940451555076
 21
-68.49834466230183
 31
0.0
  0
ARC
  5
5D
  8
stab-merge-edge-moved
  6
ByLayer
 10
272.9404515550758
 20
-73.4983446623019
 30
0.0
 40
5.000000000000072
 50
89.99999999999739
 51
140.9037510307593
  0
ARC
  5
5E
  8
stab-merge-edge-moved
  6
ByLayer
 10
266.7317499999995
 20
-68.45334466230179
 30
0.0
 40
3.000000000000377
 50
219.0962489692403
 51
320.903751030767
  0
ARC
  5
5F
  8
stab-merge-edge-moved
  6
ByLayer
 10
260.5230484449233
 20
-73.49834466230183
 30
0.0
 40
5.000000000000007
 50
39.0962489692357
 51
90.0
  0
LINE
  5
60
  8
stab-merge-edge-moved
  6
ByLayer
 10
260.5230484449233
 20
-68.49834466230183
 30
0.0
 11
249.0644515550768
 21
-68.49834466230182
 31
0.0
  0
ARC
  5
61
  8
stab-merge-edge-moved
  6
ByLayer
 10
249.0644515550759
 20
-73.49834466230224
 30
0.0
 40
5.000000000000414
 50
89.9999999999899
 51
140.9037510307552
  0
ARC
  5
62
  8
stab-merge-edge-moved
  6
ByLayer
 10
242.8557500000004
 20
-68.45334466230179
 30
0.0
 40
2.99999999999973
 50
219.0962489692379
 51
320.9037510307605
  0
LINE
  5
63
  8
stab-merge-edge-moved
  6
ByLayer
 10
-6.240451555075939
 20
-88.93533169519077
 30
0.0
 11
-21.525
 21
-88.93533169519075
 31
0.0
  0
LINE
  5
64
  8
stab-merge-edge-moved
  6
ByLayer
 10
-21.525
 20
-88.93533169519075
 30
0.0
 11
-21.525
 21
-72.33533169519075
 31
0.0
  0
LINE
  5
65
  8
stab-merge-edge-moved
  6
ByLayer
 10
-21.525
 20
-72.33533169519075
 30
0.0
 11
-4.077831437637935
 21
-72.33533169519067
 31
0.0
  0
ARC
  5
66
  8
stab-merge-edge-moved
  6
ByLayer
 10
-4.077831437638012
 20
-67.33533169519069
 30
0.0
 40
4.999999999999991
 50
270.0000000000009
 51
302.6480787911493
  0
ARC
  5
67
  8
stab-merge-edge-moved
  6
ByLayer
 10
-0.0317499999999473
 20
-73.65033169519077
 30
0.0
 40
2.500000000000028
 50
57.35192120885098
 51
122.6480787911496
  0
ARC
  5
68
  8
stab-merge-edge-moved
  6
ByLayer
 10
4.014331437638164
 20
-67.3353316951907
 30
0.0
 40
4.999999999999999
 50
237.3519212088499
 51
270.0000000000001
  0
LINE
  5
69
  8
stab-merge-edge-moved
  6
ByLayer
 10
4.01433143763817
 20
-72.3353316951907
 30
0.0
 11
19.88367619707254
 21
-72.3353316951907
 31
0.0
  0
ARC
  5
6A
  8
stab-merge-edge-moved
  6
ByLayer
 10
19.88367619707242
 20
-67.33533169519072
 30
0.0
 40
4.999999999999972
 50
270.0000000000014
 51
302.435048074881
  0
ARC
  5
6B
  8
stab-merge-edge-moved
  6
ByLayer
 10
23.90625000000006
 20
-73.66533169519076
 30
0.0
 40
2.500000000000032
 50
57.56495192511801
 51
122.4350480748808
  0
ARC
  5
6C
  8
stab-merge-edge-moved
  6
ByLayer
 10
27.92882380292789
 20
-67.33533169519083
 30
0.0
 40
4.999999999999998
 50
237.564951925117
 51
270.0000000000002
  0
LINE
  5
6D
  8
stab-merge-edge-moved
  6
ByLayer
 10
27.92882380292791
 20
-72.33533169519082
 30
0.0
 11
234.0471685623606
 21
-72.33533169519085
 31
0.0
  0
ARC
  5
6E
  8
stab-merge-edge-moved
  6
ByLayer
 10
234.0471685623617
 20
-67.33533169519062
 30
0.0
 40
5.000000000000225
 50
269.9999999999879
 51
302.6480787911467
  0
ARC
  5
6F
  8
stab-merge-edge-moved
  6
ByLayer
 10
238.09325
 20
-73.65033169519076
 30
0.0
 40
2.500000000000005
 50
37.95574747840324
 51
122.6480787911596
  0
ARC
  5
70
  8
stab-merge-edge-moved
  6
ByLayer
 10
242.855750000002
 20
-69.88533169519083
 30
0.0
 40
3.57105604047818
 50
218.5889008417439
 51
316.6800621007822
  0
LINE
  5
71
  8
stab-merge-edge-moved
  6
ByLayer
 10
245.4538149037794
 20
-72.33533169519004
 30
0.0
 11
258.0086761970714
 21
-72.33533169519066
 31
0.0
  0
ARC
  5
72
  8
stab-merge-edge-moved
  6
ByLayer
 10
258.0086761970724
 20
-67.33533169519043
 30
0.0
 40
5.000000000000238
 50
269.9999999999889
 51
302.4350480748769
  0
ARC
  5
73
  8
stab-merge-edge-moved
  6
ByLayer
 10
262.0312499999999
 20
-73.66533169519076
 30
0.0
 40
2.500000000000001
 50
39.73710429722865
 51
122.4350480748844
  0
ARC
  5
74
  8
stab-merge-edge-moved
  6
ByLayer
 10
266.7317500000005
 20
-69.84033169519076
 30
0.0
 40
3.560375956532206
 50
218.7151827653765
 51
315.511291199775
  0
LINE
  5
75
  8
stab-merge-edge-moved
  6
ByLayer
 10
269.2716814856605
 20
-72.3353316951919
 30
0.0
 11
350.3750000000001
 21
-72.33533169519075
 31
0.0
  0
LINE
  5
76
  8
stab-merge-edge-moved
  6
ByLayer
 10
350.3750000000001
 20
-72.33533169519075
 30
0.0
 11
350.3750000000001
 21
-88.93533169519075
 31
0.0
  0
LINE
  5
77
  8
stab-merge-edge-moved
  6
ByLayer
 10
350.3750000000001
 20
-88.93533169519075
 30
0.0
 11
268.1779515550745
 21
-88.93533169519078
 31
0.0
  0
ARC
  5
78
  8
stab-merge-edge-moved
  6
ByLayer
 10
268.1779515550755
 20
-93.93533169519036
 30
0.0
 40
4.99999999999957
 50
90.00000000001172
 51
140.9037510307662
  0
ARC
  5
79
  8
stab-merge-edge-moved
  6
ByLayer
 10
261.9692499999996
 20
-88.89033169519074
 30
0.0
 40
3.000000000000293
 50
219.0962489692402
 51
320.9037510307587
  0
ARC
  5
7A
  8
stab-merge-edge-moved
  6
ByLayer
 10
255.7605484449236
 20
-93.93533169519077
 30
0.0
 40
4.99999999999997
 50
39.0962489692369
 51
90.00000000000098
  0
LINE
  5
7B
  8
stab-merge-edge-moved
  6
ByLayer
 10
255.7605484449235
 20
-88.9353316951908
 30
0.0
 11
244.3019515550776
 21
-88.93533169519075
 31
0.0
  0
ARC
  5
7C
  8
stab-merge-edge-moved
  6
ByLayer
 10
244.3019515550761
 20
-93.9353316951915
 30
0.0
 40
5.000000000000739
 50
89.99999999998273
 51
140.9037510307516
  0
ARC
  5
7D
  8
stab-merge-edge-moved
  6
ByLayer
 10
238.0932499999996
 20
-88.89033169519075
 30
0.0
 40
3.000000000000332
 50
219.0962489692399
 51
320.9037510307742
  0
ARC
  5
7E
  8
stab-merge-edge-moved
  6
ByLayer
 10
231.8845484449233
 20
-93.93533169519067
 30
0.0
 40
4.999999999999988
 50
39.09624896923486
 51
89.99999999999902
  0
LINE
  5
7F
  8
stab-merge-edge-moved
  6
ByLayer
 10
231.8845484449234
 20
-88.93533169519067
 30
0.0
 11
192.9545824492151
 21
-88.93533169518973
 31
0.0
  0
ARC
  5
80
  8
stab-merge-edge-moved
  6
ByLayer
 10
190.5
 20
-91.43033169519074
 30
0.0
 40
3.499999999999976
 50
45.4678583762831
 51
134.5321416237172
  0
LINE
  5
81
  8
stab-merge-edge-moved
  6
ByLayer
 10
188.0454175507849
 20
-88.93533169518976
 30
0.0
 11
78.65458244921564
 21
-88.93533169519026
 31
0.0
  0
ARC
  5
82
  8
stab-merge-edge-moved
  6
ByLayer
 10
76.20000000000019
 20
-91.43033169519074
 30
0.0
 40
3.499999999999859
 50
45.46785837627308
 51
134.5321416237324
  0
LINE
  5
83
  8
stab-merge-edge-moved
  6
ByLayer
 10
73.7454175507845
 20
-88.93533169519048
 30
0.0
 11
30.05295155507535
 21
-88.93533169519074
 31
0.0
  0
ARC
  5
84
  8
stab-merge-edge-moved
  6
ByLayer
 10
30.05295155507569
 20
-93.93533169519058
 30
0.0
 40
4.999999999999854
 50
90.00000000000387
 51
140.9037510307627
  0
ARC
  5
85
  8
stab-merge-edge-moved
  6
ByLayer
 10
23.84425000000007
 20
-88.89033169519075
 30
0.0
 40
2.999999999999944
 50
219.0962489692395
 51
320.903751030758
  0
ARC
  5
86
  8
stab-merge-edge-moved
  6
ByLayer
 10
17.63554844492441
 20
-93.93533169519078
 30
0.0
 40
5.00000000000001
 50
39.09624896924018
 51
89.99999999999983
  0
LINE
  5
87
  8
stab-merge-edge-moved
  6
ByLayer
 10
17.63554844492442
 20
-88.93533169519077
 30
0.0
 11
6.176951555075472
 21
-88.93533169519077
 31
0.0
  0
ARC
  5
88
  8
stab-merge-edge-moved
  6
ByLayer
 10
6.176951555075681
 20
-93.93533169519067
 30
0.0
 40
4.999999999999894
 50
90.0000000000024
 51
140.9037510307617
  0
ARC
  5
89
  8
stab-merge-edge-moved
  6
ByLayer
 10
-0.03175000000010447
 20
-88.89033169519075
 30
0.0
 40
3.000000000000079
 50
219.0962489692399
 51
320.9037510307605
  0
ARC
  5
8A
  8
stab-merge-edge-moved
  6
ByLayer
 10
-6.24045155507594
 20
-93.93533169519077
 30
0.0
 40
4.999999999999998
 50
39.0962489692386
 51
89.99999999999999
  0
LINE
  5
8B
  8
stab-merge-edge-moved
  6
ByLayer
 10
2.422832449215937
 20
-92.88533169518935
 30
0.0
 11
21.38966755078319
 21
-92.88533169518944
 31
0.0
  0
ARC
  5
8C
  8
stab-merge-edge-moved
  6
ByLayer
 10
23.84424999999931
 20
-90.3903316951896
 30
0.0
 40
3.49999999999985
 50
225.4678583762578
 51
314.5321416237381
  0
LINE
  5
8D
  8
stab-merge-edge-moved
  6
ByLayer
 10
26.29883244921525
 20
-92.8853316951896
 30
0.0
 11
69.99129844492411
 21
-92.8853316951896
 31
0.0
  0
ARC
  5
8E
  8
stab-merge-edge-moved
  6
ByLayer
 10
69.9912984449238
 20
-87.88533169518973
 30
0.0
 40
4.999999999999866
 50
270.0000000000036
 51
320.9037510307624
  0
ARC
  5
8F
  8
stab-merge-edge-moved
  6
ByLayer
 10
76.19999999999956
 20
-92.9303316951896
 30
0.0
 40
3.00000000000004
 50
39.09624896924006
 51
140.9037510307599
  0
ARC
  5
90
  8
stab-merge-edge-moved
  6
ByLayer
 10
82.40870155507535
 20
-87.88533169518958
 30
0.0
 40
5.000000000000016
 50
219.0962489692388
 51
269.9999999999995
  0
LINE
  5
91
  8
stab-merge-edge-moved
  6
ByLayer
 10
82.40870155507531
 20
-92.88533169518959
 30
0.0
 11
184.291298444924
 21
-92.88533169518958
 31
0.0
  0
ARC
  5
92
  8
stab-merge-edge-moved
  6
ByLayer
 10
184.2912984449239
 20
-87.88533169518966
 30
0.0
 40
4.999999999999917
 50
270.0000000000019
 51
320.9037510307613
  0
ARC
  5
93
  8
stab-merge-edge-moved
  6
ByLayer
 10
190.4999999999993
 20
-92.9303316951896
 30
0.0
 40
2.999999999999838
 50
39.09624896923947
 51
140.903751030757
  0
ARC
  5
94
  8
stab-merge-edge-moved
  6
ByLayer
 10
196.7087015550748
 20
-87.88533169518956
 30
0.0
 40
4.999999999999988
 50
219.0962489692415
 51
270.0
  0
LINE
  5
95
  8
stab-merge-edge-moved
  6
ByLayer
 10
196.7087015550748
 20
-92.88533169518955
 30
0.0
 11
235.638667550781
 21
-92.8853316951873
 31
0.0
  0
ARC
  5
96
  8
stab-merge-edge-moved
  6
ByLayer
 10
238.0932500000015
 20
-90.39033169518986
 30
0.0
 40
3.500000000001218
 50
225.4678583761795
 51
314.5321416237682
  0
LINE
  5
97
  8
stab-merge-edge-moved
  6
ByLayer
 10
240.5478324492197
 20
-92.88533169518955
 30
0.0
 11
259.5146675507827
 21
-92.88533169518898
 31
0.0
  0
ARC
  5
98
  8
stab-merge-edge-moved
  6
ByLayer
 10
261.9692499999995
 20
-90.39033169518962
 30
0.0
 40
3.499999999999964
 50
225.4678583762446
 51
314.5321416237559
  0
LINE
  5
99
  8
stab-merge-edge-moved
  6
ByLayer
 10
264.4238324492163
 20
-92.88533169518894
 30
0.0
 11
350.3749999999997
 21
-92.88533169518959
 31
0.0
  0
LINE
  5
9A
  8
stab-merge-edge-moved
  6
ByLayer
 10
350.3749999999997
 20
-92.88533169518959
 30
0.0
 11
350.3749999999997
 21
-106.4853316951896
 31
0.0
  0
ARC
  5
9B
  8
stab-merge-edge-moved
  6
ByLayer
 10
347.3749999999997
 20
-106.4853316951896
 30
0.0
 40
3.0
 50
270.0
 51
0.0
  0
LINE
  5
9C
  8
stab-merge-edge-moved
  6
ByLayer
 10
347.3749999999997
 20
-109.4853316951896
 30
0.0
 11
194.5460814376344
 21
-109.4853316951907
 31
0.0
  0
ARC
  5
9D
  8
stab-merge-edge-moved
  6
ByLayer
 10
194.5460814376358
 20
-114.4853316951903
 30
0.0
 40
4.999999999999593
 50
90.00000000001694
 51
122.6480787911412
  0
ARC
  5
9E
  8
stab-merge-edge-moved
  6
ByLayer
 10
190.5
 20
-108.1703316951895
 30
0.0
 40
2.49999999999979
 50
237.351921208862
 51
302.6480787911149
  0
ARC
  5
9F
  8
stab-merge-edge-moved
  6
ByLayer
 10
186.4539185623641
 20
-114.4853316951906
 30
0.0
 40
4.999999999999906
 50
57.35192120887149
 51
89.99999999999935
  0
LINE
  5
A0
  8
stab-merge-edge-moved
  6
ByLayer
 10
186.4539185623641
 20
-109.4853316951907
 30
0.0
 11
80.24608143763716
 21
-109.4853316951896
 31
0.0
  0
ARC
  5
A1
  8
stab-merge-edge-moved
  6
ByLayer
 10
80.24608143763759
 20
-114.4853316951894
 30
0.0
 40
4.999999999999813
 50
90.00000000000489
 51
122.6480787911525
  0
ARC
  5
A2
  8
stab-merge-edge-moved
  6
ByLayer
 10
76.19999999999963
 20
-108.1703316951896
 30
0.0
 40
2.49999999999991
 50
237.3519212088477
 51
302.6480787911445
  0
ARC
  5
A3
  8
stab-merge-edge-moved
  6
ByLayer
 10
72.15391856236148
 20
-114.4853316951895
 30
0.0
 40
5.000000000000001
 50
57.35192120884999
 51
90.0
  0
LINE
  5
A4
  8
stab-merge-edge-moved
  6
ByLayer
 10
72.15391856236148
 20
-109.4853316951895
 30
0.0
 11
-18.52500000000052
 21
-109.4853316951896
 31
0.0
  0
ARC
  5
A5
  8
stab-merge-edge-moved
  6
ByLayer
 10
-18.52500000000048
 20
-106.4853316951896
 30
0.0
 40
3.0
 50
180.0
 51
269.9999999999993
  0
LINE
  5
A6
  8
stab-merge-edge-moved
  6
ByLayer
 10
-21.52500000000048
 20
-106.4853316951896
 30
0.0
 11
-21.52500000000048
 21
-92.88533169518959
 31
0.0
  0
LINE
  5
A7
  8
stab-merge-edge-moved
  6
ByLayer
 10
-21.52500000000048
 20
-92.88533169518959
 30
0.0
 11
-2.48633244921691
 21
-92.88533169518934
 31
0.0
  0
ARC
  5
A8
  8
stab-merge-edge-moved
  6
ByLayer
 10
-0.03175000000047681
 20
-90.39033169518962
 30
0.0
 40
3.5
 50
225.4678583762528
 51
314.5321416237468
  0
ENDSEC
  0
EOF
