  0
SECTION
  2
HEADER
  9
$ANGBASE
  50
0.0
  9
$ANGDIR
  70
1
  9
$MEASUREMENT
  70
1
  0
ENDSEC
  0
SECTION
  2
TABLES
  0
TABLE
  2
LTYPE
  70
4
  0
LTYPE
  5
40F
  2
CONTINUOUS
  70
0
  3
Solid line
  72
65
  73
0
  40
0.0
  0
LTYPE
  5
410
  2
DASHDOT
 70
0
  3
Dash Dot ____ _ ____ _
 72
65
 73
4
 40
2.0
 49
1.25
 49
-0.25
 49
0.25
 49
-0.25
  0
LTYPE
  5
411
  2
DASHED
 70
0
  3
Dashed __ __ __ __ __
 72
65
 73
2
 40
0.75
 49
0.5
 49
-0.25
  0
LTYPE
  5
43B
  2
DOTTED
 70
0
  3
Dotted .  .  .  .
 72
65
 73
2
 40
0.2
 49
0.0
 49
-0.2
  0
ENDTAB
  0
TABLE
  2
STYLE
  70
4
  0
STYLE
  2
KICAD
  70
0
  40
0
  41
1
  42
1
  50
0
  71
0
  3
isocp.shx
  0
STYLE
  2
KICADB
  70
0
  40
0
  41
1
  42
1
  50
0
  71
0
  3
isocp.shx
  0
STYLE
  2
KICADI
  70
0
  40
0
  41
1
  42
1
  50
15
  71
0
  3
isocp.shx
  0
STYLE
  2
KICADBI
  70
0
  40
0
  41
1
  42
1
  50
15
  71
0
  3
isocp.shx
  0
ENDTAB
  0
TABLE
  2
LAYER
  70
1
  0
LAYER
  2
BLACK
  70
0
  62
7
  6
CONTINUOUS
  0
ENDTAB
  0
ENDSEC
  0
SECTION
  2
ENTITIES
0
LINE
8
BLACK
6
CONTINUOUS
10
228.225
20
14.5596
11
228.294
21
14.895
0
LINE
8
BLACK
6
CONTINUOUS
10
228.294
20
14.895
11
228.402
21
15.2202
0
LINE
8
BLACK
6
CONTINUOUS
10
228.402
20
15.2202
11
228.546
21
15.5308
0
LINE
8
BLACK
6
CONTINUOUS
10
228.546
20
15.5308
11
228.725
21
15.8229
0
LINE
8
BLACK
6
CONTINUOUS
10
228.725
20
15.8229
11
228.936
21
16.0924
0
LINE
8
BLACK
6
CONTINUOUS
10
228.936
20
16.0924
11
229.177
21
16.3359
0
LINE
8
BLACK
6
CONTINUOUS
10
229.177
20
16.3359
11
229.444
21
16.55
0
LINE
8
BLACK
6
CONTINUOUS
10
229.444
20
16.55
11
229.735
21
16.732
0
LINE
8
BLACK
6
CONTINUOUS
10
229.735
20
16.732
11
230.044
21
16.8795
0
LINE
8
BLACK
6
CONTINUOUS
10
230.044
20
16.8795
11
230.368
21
16.9904
0
LINE
8
BLACK
6
CONTINUOUS
10
230.368
20
16.9904
11
230.702
21
17.0634
0
LINE
8
BLACK
6
CONTINUOUS
10
230.702
20
17.0634
11
231.043
21
17.0974
0
LINE
8
BLACK
6
CONTINUOUS
10
231.043
20
17.0974
11
231.386
21
17.092
0
LINE
8
BLACK
6
CONTINUOUS
10
231.386
20
17.092
11
231.725
21
17.0473
0
LINE
8
BLACK
6
CONTINUOUS
10
231.725
20
17.0473
11
232.057
21
16.9639
0
LINE
8
BLACK
6
CONTINUOUS
10
232.057
20
16.9639
11
232.378
21
16.8428
0
LINE
8
BLACK
6
CONTINUOUS
10
232.378
20
16.8428
11
232.682
21
16.6857
0
LINE
8
BLACK
6
CONTINUOUS
10
232.682
20
16.6857
11
232.966
21
16.4947
0
LINE
8
BLACK
6
CONTINUOUS
10
232.966
20
16.4947
11
233.227
21
16.2722
0
LINE
8
BLACK
6
CONTINUOUS
10
233.227
20
16.2722
11
233.46
21
16.0213
0
LINE
8
BLACK
6
CONTINUOUS
10
233.46
20
16.0213
11
233.663
21
15.7453
0
LINE
8
BLACK
6
CONTINUOUS
10
233.663
20
15.7453
11
233.833
21
15.4478
0
LINE
8
BLACK
6
CONTINUOUS
10
233.833
20
15.4478
11
233.967
21
15.1327
0
LINE
8
BLACK
6
CONTINUOUS
10
233.967
20
15.1327
11
234.064
21
14.8043
0
LINE
8
BLACK
6
CONTINUOUS
10
234.064
20
14.8043
11
234.123
21
14.4669
0
LINE
8
BLACK
6
CONTINUOUS
10
234.123
20
14.4669
11
234.143
21
14.125
0
LINE
8
BLACK
6
CONTINUOUS
10
234.143
20
14.125
11
234.137
21
13.9382
0
LINE
8
BLACK
6
CONTINUOUS
10
234.137
20
13.9382
11
234.096
21
13.5982
0
LINE
8
BLACK
6
CONTINUOUS
10
234.096
20
13.5982
11
234.016
21
13.2651
0
LINE
8
BLACK
6
CONTINUOUS
10
234.016
20
13.2651
11
233.898
21
12.9435
0
LINE
8
BLACK
6
CONTINUOUS
10
233.898
20
12.9435
11
233.744
21
12.6375
0
LINE
8
BLACK
6
CONTINUOUS
10
233.744
20
12.6375
11
233.556
21
12.3512
0
LINE
8
BLACK
6
CONTINUOUS
10
233.556
20
12.3512
11
233.336
21
12.0885
0
LINE
8
BLACK
6
CONTINUOUS
10
233.336
20
12.0885
11
233.088
21
11.8527
0
LINE
8
BLACK
6
CONTINUOUS
10
233.088
20
11.8527
11
232.814
21
11.6471
0
LINE
8
BLACK
6
CONTINUOUS
10
232.814
20
11.6471
11
232.518
21
11.4743
0
LINE
8
BLACK
6
CONTINUOUS
10
232.518
20
11.4743
11
232.205
21
11.3366
0
LINE
8
BLACK
6
CONTINUOUS
10
232.205
20
11.3366
11
231.877
21
11.2359
0
LINE
8
BLACK
6
CONTINUOUS
10
231.877
20
11.2359
11
231.541
21
11.1735
0
LINE
8
BLACK
6
CONTINUOUS
10
231.541
20
11.1735
11
231.199
21
11.1502
0
LINE
8
BLACK
6
CONTINUOUS
10
231.199
20
11.1502
11
230.857
21
11.1663
0
LINE
8
BLACK
6
CONTINUOUS
10
230.857
20
11.1663
11
230.519
21
11.2216
0
LINE
8
BLACK
6
CONTINUOUS
10
230.519
20
11.2216
11
230.189
21
11.3155
0
LINE
8
BLACK
6
CONTINUOUS
10
230.189
20
11.3155
11
229.873
21
11.4466
0
LINE
8
BLACK
6
CONTINUOUS
10
229.873
20
11.4466
11
229.574
21
11.6131
0
LINE
8
BLACK
6
CONTINUOUS
10
229.574
20
11.6131
11
229.296
21
11.813
0
LINE
8
BLACK
6
CONTINUOUS
10
229.296
20
11.813
11
229.042
21
12.0435
0
LINE
8
BLACK
6
CONTINUOUS
10
229.042
20
12.0435
11
228.817
21
12.3016
0
LINE
8
BLACK
6
CONTINUOUS
10
228.817
20
12.3016
11
228.623
21
12.5839
0
LINE
8
BLACK
6
CONTINUOUS
10
228.623
20
12.5839
11
228.463
21
12.8866
0
LINE
8
BLACK
6
CONTINUOUS
10
228.463
20
12.8866
11
228.338
21
13.2057
0
LINE
8
BLACK
6
CONTINUOUS
10
228.338
20
13.2057
11
228.251
21
13.537
0
LINE
8
BLACK
6
CONTINUOUS
10
228.251
20
13.537
11
228.203
21
13.8761
0
LINE
8
BLACK
6
CONTINUOUS
10
228.203
20
13.8761
11
228.194
21
14.217
0
LINE
8
BLACK
6
CONTINUOUS
10
228.194
20
14.217
11
228.194
21
14.2184
0
LINE
8
BLACK
6
CONTINUOUS
10
228.194
20
14.2184
11
228.225
21
14.5596
0
LINE
8
BLACK
6
CONTINUOUS
10
228.296
20
13.5459
11
228.381
21
13.2196
0
LINE
8
BLACK
6
CONTINUOUS
10
228.381
20
13.2196
11
228.504
21
12.9053
0
LINE
8
BLACK
6
CONTINUOUS
10
228.504
20
12.9053
11
228.662
21
12.6072
0
LINE
8
BLACK
6
CONTINUOUS
10
228.662
20
12.6072
11
228.853
21
12.3292
0
LINE
8
BLACK
6
CONTINUOUS
10
228.853
20
12.3292
11
229.074
21
12.075
0
LINE
8
BLACK
6
CONTINUOUS
10
229.074
20
12.075
11
229.324
21
11.848
0
LINE
8
BLACK
6
CONTINUOUS
10
229.324
20
11.848
11
229.598
21
11.6512
0
LINE
8
BLACK
6
CONTINUOUS
10
229.598
20
11.6512
11
229.893
21
11.4871
0
LINE
8
BLACK
6
CONTINUOUS
10
229.893
20
11.4871
11
230.204
21
11.358
0
LINE
8
BLACK
6
CONTINUOUS
10
230.204
20
11.358
11
230.529
21
11.2656
0
LINE
8
BLACK
6
CONTINUOUS
10
230.529
20
11.2656
11
230.862
21
11.2111
0
LINE
8
BLACK
6
CONTINUOUS
10
230.862
20
11.2111
11
231.198
21
11.1952
0
LINE
8
BLACK
6
CONTINUOUS
10
231.198
20
11.1952
11
231.535
21
11.2181
0
LINE
8
BLACK
6
CONTINUOUS
10
231.535
20
11.2181
11
231.867
21
11.2796
0
LINE
8
BLACK
6
CONTINUOUS
10
231.867
20
11.2796
11
232.189
21
11.3788
0
LINE
8
BLACK
6
CONTINUOUS
10
232.189
20
11.3788
11
232.498
21
11.5144
0
LINE
8
BLACK
6
CONTINUOUS
10
232.498
20
11.5144
11
232.789
21
11.6846
0
LINE
8
BLACK
6
CONTINUOUS
10
232.789
20
11.6846
11
233.059
21
11.8871
0
LINE
8
BLACK
6
CONTINUOUS
10
233.059
20
11.8871
11
233.304
21
12.1193
0
LINE
8
BLACK
6
CONTINUOUS
10
233.304
20
12.1193
11
233.52
21
12.3781
0
LINE
8
BLACK
6
CONTINUOUS
10
233.52
20
12.3781
11
233.705
21
12.66
0
LINE
8
BLACK
6
CONTINUOUS
10
233.705
20
12.66
11
233.857
21
12.9614
0
LINE
8
BLACK
6
CONTINUOUS
10
233.857
20
12.9614
11
233.973
21
13.2781
0
LINE
8
BLACK
6
CONTINUOUS
10
233.973
20
13.2781
11
234.051
21
13.6061
0
LINE
8
BLACK
6
CONTINUOUS
10
234.051
20
13.6061
11
234.092
21
13.941
0
LINE
8
BLACK
6
CONTINUOUS
10
234.092
20
13.941
11
234.098
21
14.125
0
LINE
8
BLACK
6
CONTINUOUS
10
234.098
20
14.125
11
234.078
21
14.4618
0
LINE
8
BLACK
6
CONTINUOUS
10
234.078
20
14.4618
11
234.02
21
14.7941
0
LINE
8
BLACK
6
CONTINUOUS
10
234.02
20
14.7941
11
233.925
21
15.1175
0
LINE
8
BLACK
6
CONTINUOUS
10
233.925
20
15.1175
11
233.792
21
15.4278
0
LINE
8
BLACK
6
CONTINUOUS
10
233.792
20
15.4278
11
233.625
21
15.7208
0
LINE
8
BLACK
6
CONTINUOUS
10
233.625
20
15.7208
11
233.425
21
15.9926
0
LINE
8
BLACK
6
CONTINUOUS
10
233.425
20
15.9926
11
233.196
21
16.2397
0
LINE
8
BLACK
6
CONTINUOUS
10
233.196
20
16.2397
11
232.939
21
16.4588
0
LINE
8
BLACK
6
CONTINUOUS
10
232.939
20
16.4588
11
232.659
21
16.6469
0
LINE
8
BLACK
6
CONTINUOUS
10
232.659
20
16.6469
11
232.36
21
16.8016
0
LINE
8
BLACK
6
CONTINUOUS
10
232.36
20
16.8016
11
232.044
21
16.9209
0
LINE
8
BLACK
6
CONTINUOUS
10
232.044
20
16.9209
11
231.717
21
17.0031
0
LINE
8
BLACK
6
CONTINUOUS
10
231.717
20
17.0031
11
231.382
21
17.0471
0
LINE
8
BLACK
6
CONTINUOUS
10
231.382
20
17.0471
11
231.045
21
17.0524
0
LINE
8
BLACK
6
CONTINUOUS
10
231.045
20
17.0524
11
230.709
21
17.0189
0
LINE
8
BLACK
6
CONTINUOUS
10
230.709
20
17.0189
11
230.38
21
16.947
0
LINE
8
BLACK
6
CONTINUOUS
10
230.38
20
16.947
11
230.061
21
16.8378
0
LINE
8
BLACK
6
CONTINUOUS
10
230.061
20
16.8378
11
229.756
21
16.6925
0
LINE
8
BLACK
6
CONTINUOUS
10
229.756
20
16.6925
11
229.471
21
16.5133
0
LINE
8
BLACK
6
CONTINUOUS
10
229.471
20
16.5133
11
229.207
21
16.3024
0
LINE
8
BLACK
6
CONTINUOUS
10
229.207
20
16.3024
11
228.97
21
16.0626
0
LINE
8
BLACK
6
CONTINUOUS
10
228.97
20
16.0626
11
228.762
21
15.7972
0
LINE
8
BLACK
6
CONTINUOUS
10
228.762
20
15.7972
11
228.586
21
15.5096
0
LINE
8
BLACK
6
CONTINUOUS
10
228.586
20
15.5096
11
228.444
21
15.2036
0
LINE
8
BLACK
6
CONTINUOUS
10
228.444
20
15.2036
11
228.338
21
14.8833
0
LINE
8
BLACK
6
CONTINUOUS
10
228.338
20
14.8833
11
228.269
21
14.553
0
LINE
8
BLACK
6
CONTINUOUS
10
228.269
20
14.553
11
228.239
21
14.217
0
LINE
8
BLACK
6
CONTINUOUS
10
228.239
20
14.217
11
228.248
21
13.8798
0
LINE
8
BLACK
6
CONTINUOUS
10
228.248
20
13.8798
11
228.296
21
13.5459
0
LINE
8
BLACK
6
CONTINUOUS
10
344.932
20
14.5596
11
345.001
21
14.895
0
LINE
8
BLACK
6
CONTINUOUS
10
345.001
20
14.895
11
345.109
21
15.2202
0
LINE
8
BLACK
6
CONTINUOUS
10
345.109
20
15.2202
11
345.253
21
15.5308
0
LINE
8
BLACK
6
CONTINUOUS
10
345.253
20
15.5308
11
345.432
21
15.8229
0
LINE
8
BLACK
6
CONTINUOUS
10
345.432
20
15.8229
11
345.643
21
16.0924
0
LINE
8
BLACK
6
CONTINUOUS
10
345.643
20
16.0924
11
345.884
21
16.3359
0
LINE
8
BLACK
6
CONTINUOUS
10
345.884
20
16.3359
11
346.152
21
16.55
0
LINE
8
BLACK
6
CONTINUOUS
10
346.152
20
16.55
11
346.442
21
16.732
0
LINE
8
BLACK
6
CONTINUOUS
10
346.442
20
16.732
11
346.751
21
16.8795
0
LINE
8
BLACK
6
CONTINUOUS
10
346.751
20
16.8795
11
347.075
21
16.9904
0
LINE
8
BLACK
6
CONTINUOUS
10
347.075
20
16.9904
11
347.41
21
17.0634
0
LINE
8
BLACK
6
CONTINUOUS
10
347.41
20
17.0634
11
347.75
21
17.0974
0
LINE
8
BLACK
6
CONTINUOUS
10
347.75
20
17.0974
11
348.093
21
17.092
0
LINE
8
BLACK
6
CONTINUOUS
10
348.093
20
17.092
11
348.432
21
17.0473
0
LINE
8
BLACK
6
CONTINUOUS
10
348.432
20
17.0473
11
348.765
21
16.9639
0
LINE
8
BLACK
6
CONTINUOUS
10
348.765
20
16.9639
11
349.085
21
16.8428
0
LINE
8
BLACK
6
CONTINUOUS
10
349.085
20
16.8428
11
349.389
21
16.6857
0
LINE
8
BLACK
6
CONTINUOUS
10
349.389
20
16.6857
11
349.674
21
16.4947
0
LINE
8
BLACK
6
CONTINUOUS
10
349.674
20
16.4947
11
349.934
21
16.2722
0
LINE
8
BLACK
6
CONTINUOUS
10
349.934
20
16.2722
11
350.167
21
16.0213
0
LINE
8
BLACK
6
CONTINUOUS
10
350.167
20
16.0213
11
350.37
21
15.7453
0
LINE
8
BLACK
6
CONTINUOUS
10
350.37
20
15.7453
11
350.54
21
15.4478
0
LINE
8
BLACK
6
CONTINUOUS
10
350.54
20
15.4478
11
350.674
21
15.1327
0
LINE
8
BLACK
6
CONTINUOUS
10
350.674
20
15.1327
11
350.771
21
14.8043
0
LINE
8
BLACK
6
CONTINUOUS
10
350.771
20
14.8043
11
350.83
21
14.4669
0
LINE
8
BLACK
6
CONTINUOUS
10
350.83
20
14.4669
11
350.85
21
14.125
0
LINE
8
BLACK
6
CONTINUOUS
10
350.85
20
14.125
11
350.844
21
13.9382
0
LINE
8
BLACK
6
CONTINUOUS
10
350.844
20
13.9382
11
350.803
21
13.5982
0
LINE
8
BLACK
6
CONTINUOUS
10
350.803
20
13.5982
11
350.723
21
13.2651
0
LINE
8
BLACK
6
CONTINUOUS
10
350.723
20
13.2651
11
350.605
21
12.9435
0
LINE
8
BLACK
6
CONTINUOUS
10
350.605
20
12.9435
11
350.451
21
12.6375
0
LINE
8
BLACK
6
CONTINUOUS
10
350.451
20
12.6375
11
350.263
21
12.3512
0
LINE
8
BLACK
6
CONTINUOUS
10
350.263
20
12.3512
11
350.044
21
12.0885
0
LINE
8
BLACK
6
CONTINUOUS
10
350.044
20
12.0885
11
349.795
21
11.8527
0
LINE
8
BLACK
6
CONTINUOUS
10
349.795
20
11.8527
11
349.521
21
11.6471
0
LINE
8
BLACK
6
CONTINUOUS
10
349.521
20
11.6471
11
349.226
21
11.4743
0
LINE
8
BLACK
6
CONTINUOUS
10
349.226
20
11.4743
11
348.912
21
11.3366
0
LINE
8
BLACK
6
CONTINUOUS
10
348.912
20
11.3366
11
348.585
21
11.2359
0
LINE
8
BLACK
6
CONTINUOUS
10
348.585
20
11.2359
11
348.248
21
11.1735
0
LINE
8
BLACK
6
CONTINUOUS
10
348.248
20
11.1735
11
347.906
21
11.1502
0
LINE
8
BLACK
6
CONTINUOUS
10
347.906
20
11.1502
11
347.564
21
11.1663
0
LINE
8
BLACK
6
CONTINUOUS
10
347.564
20
11.1663
11
347.226
21
11.2216
0
LINE
8
BLACK
6
CONTINUOUS
10
347.226
20
11.2216
11
346.897
21
11.3155
0
LINE
8
BLACK
6
CONTINUOUS
10
346.897
20
11.3155
11
346.58
21
11.4466
0
LINE
8
BLACK
6
CONTINUOUS
10
346.58
20
11.4466
11
346.281
21
11.6131
0
LINE
8
BLACK
6
CONTINUOUS
10
346.281
20
11.6131
11
346.003
21
11.813
0
LINE
8
BLACK
6
CONTINUOUS
10
346.003
20
11.813
11
345.749
21
12.0435
0
LINE
8
BLACK
6
CONTINUOUS
10
345.749
20
12.0435
11
345.524
21
12.3016
0
LINE
8
BLACK
6
CONTINUOUS
10
345.524
20
12.3016
11
345.33
21
12.5839
0
LINE
8
BLACK
6
CONTINUOUS
10
345.33
20
12.5839
11
345.17
21
12.8866
0
LINE
8
BLACK
6
CONTINUOUS
10
345.17
20
12.8866
11
345.046
21
13.2057
0
LINE
8
BLACK
6
CONTINUOUS
10
345.046
20
13.2057
11
344.959
21
13.537
0
LINE
8
BLACK
6
CONTINUOUS
10
344.959
20
13.537
11
344.91
21
13.8761
0
LINE
8
BLACK
6
CONTINUOUS
10
344.91
20
13.8761
11
344.902
21
14.217
0
LINE
8
BLACK
6
CONTINUOUS
10
344.902
20
14.217
11
344.901
21
14.2184
0
LINE
8
BLACK
6
CONTINUOUS
10
344.901
20
14.2184
11
344.932
21
14.5596
0
LINE
8
BLACK
6
CONTINUOUS
10
345.003
20
13.5459
11
345.088
21
13.2196
0
LINE
8
BLACK
6
CONTINUOUS
10
345.088
20
13.2196
11
345.211
21
12.9053
0
LINE
8
BLACK
6
CONTINUOUS
10
345.211
20
12.9053
11
345.369
21
12.6072
0
LINE
8
BLACK
6
CONTINUOUS
10
345.369
20
12.6072
11
345.56
21
12.3292
0
LINE
8
BLACK
6
CONTINUOUS
10
345.56
20
12.3292
11
345.782
21
12.075
0
LINE
8
BLACK
6
CONTINUOUS
10
345.782
20
12.075
11
346.031
21
11.848
0
LINE
8
BLACK
6
CONTINUOUS
10
346.031
20
11.848
11
346.305
21
11.6512
0
LINE
8
BLACK
6
CONTINUOUS
10
346.305
20
11.6512
11
346.6
21
11.4871
0
LINE
8
BLACK
6
CONTINUOUS
10
346.6
20
11.4871
11
346.911
21
11.358
0
LINE
8
BLACK
6
CONTINUOUS
10
346.911
20
11.358
11
347.236
21
11.2656
0
LINE
8
BLACK
6
CONTINUOUS
10
347.236
20
11.2656
11
347.569
21
11.2111
0
LINE
8
BLACK
6
CONTINUOUS
10
347.569
20
11.2111
11
347.906
21
11.1952
0
LINE
8
BLACK
6
CONTINUOUS
10
347.906
20
11.1952
11
348.242
21
11.2181
0
LINE
8
BLACK
6
CONTINUOUS
10
348.242
20
11.2181
11
348.574
21
11.2796
0
LINE
8
BLACK
6
CONTINUOUS
10
348.574
20
11.2796
11
348.896
21
11.3788
0
LINE
8
BLACK
6
CONTINUOUS
10
348.896
20
11.3788
11
349.205
21
11.5144
0
LINE
8
BLACK
6
CONTINUOUS
10
349.205
20
11.5144
11
349.496
21
11.6846
0
LINE
8
BLACK
6
CONTINUOUS
10
349.496
20
11.6846
11
349.766
21
11.8871
0
LINE
8
BLACK
6
CONTINUOUS
10
349.766
20
11.8871
11
350.011
21
12.1193
0
LINE
8
BLACK
6
CONTINUOUS
10
350.011
20
12.1193
11
350.227
21
12.3781
0
LINE
8
BLACK
6
CONTINUOUS
10
350.227
20
12.3781
11
350.412
21
12.66
0
LINE
8
BLACK
6
CONTINUOUS
10
350.412
20
12.66
11
350.564
21
12.9614
0
LINE
8
BLACK
6
CONTINUOUS
10
350.564
20
12.9614
11
350.68
21
13.2781
0
LINE
8
BLACK
6
CONTINUOUS
10
350.68
20
13.2781
11
350.759
21
13.6061
0
LINE
8
BLACK
6
CONTINUOUS
10
350.759
20
13.6061
11
350.799
21
13.941
0
LINE
8
BLACK
6
CONTINUOUS
10
350.799
20
13.941
11
350.805
21
14.125
0
LINE
8
BLACK
6
CONTINUOUS
10
350.805
20
14.125
11
350.786
21
14.4618
0
LINE
8
BLACK
6
CONTINUOUS
10
350.786
20
14.4618
11
350.728
21
14.7941
0
LINE
8
BLACK
6
CONTINUOUS
10
350.728
20
14.7941
11
350.632
21
15.1175
0
LINE
8
BLACK
6
CONTINUOUS
10
350.632
20
15.1175
11
350.499
21
15.4278
0
LINE
8
BLACK
6
CONTINUOUS
10
350.499
20
15.4278
11
350.332
21
15.7208
0
LINE
8
BLACK
6
CONTINUOUS
10
350.332
20
15.7208
11
350.133
21
15.9926
0
LINE
8
BLACK
6
CONTINUOUS
10
350.133
20
15.9926
11
349.903
21
16.2397
0
LINE
8
BLACK
6
CONTINUOUS
10
349.903
20
16.2397
11
349.646
21
16.4588
0
LINE
8
BLACK
6
CONTINUOUS
10
349.646
20
16.4588
11
349.366
21
16.6469
0
LINE
8
BLACK
6
CONTINUOUS
10
349.366
20
16.6469
11
349.067
21
16.8016
0
LINE
8
BLACK
6
CONTINUOUS
10
349.067
20
16.8016
11
348.751
21
16.9209
0
LINE
8
BLACK
6
CONTINUOUS
10
348.751
20
16.9209
11
348.424
21
17.0031
0
LINE
8
BLACK
6
CONTINUOUS
10
348.424
20
17.0031
11
348.09
21
17.0471
0
LINE
8
BLACK
6
CONTINUOUS
10
348.09
20
17.0471
11
347.752
21
17.0524
0
LINE
8
BLACK
6
CONTINUOUS
10
347.752
20
17.0524
11
347.417
21
17.0189
0
LINE
8
BLACK
6
CONTINUOUS
10
347.417
20
17.0189
11
347.087
21
16.947
0
LINE
8
BLACK
6
CONTINUOUS
10
347.087
20
16.947
11
346.768
21
16.8378
0
LINE
8
BLACK
6
CONTINUOUS
10
346.768
20
16.8378
11
346.463
21
16.6925
0
LINE
8
BLACK
6
CONTINUOUS
10
346.463
20
16.6925
11
346.178
21
16.5133
0
LINE
8
BLACK
6
CONTINUOUS
10
346.178
20
16.5133
11
345.914
21
16.3024
0
LINE
8
BLACK
6
CONTINUOUS
10
345.914
20
16.3024
11
345.677
21
16.0626
0
LINE
8
BLACK
6
CONTINUOUS
10
345.677
20
16.0626
11
345.469
21
15.7972
0
LINE
8
BLACK
6
CONTINUOUS
10
345.469
20
15.7972
11
345.293
21
15.5096
0
LINE
8
BLACK
6
CONTINUOUS
10
345.293
20
15.5096
11
345.151
21
15.2036
0
LINE
8
BLACK
6
CONTINUOUS
10
345.151
20
15.2036
11
345.045
21
14.8833
0
LINE
8
BLACK
6
CONTINUOUS
10
345.045
20
14.8833
11
344.976
21
14.553
0
LINE
8
BLACK
6
CONTINUOUS
10
344.976
20
14.553
11
344.946
21
14.217
0
LINE
8
BLACK
6
CONTINUOUS
10
344.946
20
14.217
11
344.955
21
13.8798
0
LINE
8
BLACK
6
CONTINUOUS
10
344.955
20
13.8798
11
345.003
21
13.5459
0
LINE
8
BLACK
6
CONTINUOUS
10
315.297
20
14.5596
11
315.366
21
14.895
0
LINE
8
BLACK
6
CONTINUOUS
10
315.366
20
14.895
11
315.474
21
15.2202
0
LINE
8
BLACK
6
CONTINUOUS
10
315.474
20
15.2202
11
315.618
21
15.5308
0
LINE
8
BLACK
6
CONTINUOUS
10
315.618
20
15.5308
11
315.797
21
15.8229
0
LINE
8
BLACK
6
CONTINUOUS
10
315.797
20
15.8229
11
316.008
21
16.0924
0
LINE
8
BLACK
6
CONTINUOUS
10
316.008
20
16.0924
11
316.249
21
16.3359
0
LINE
8
BLACK
6
CONTINUOUS
10
316.249
20
16.3359
11
316.517
21
16.55
0
LINE
8
BLACK
6
CONTINUOUS
10
316.517
20
16.55
11
316.807
21
16.732
0
LINE
8
BLACK
6
CONTINUOUS
10
316.807
20
16.732
11
317.116
21
16.8795
0
LINE
8
BLACK
6
CONTINUOUS
10
317.116
20
16.8795
11
317.44
21
16.9904
0
LINE
8
BLACK
6
CONTINUOUS
10
317.44
20
16.9904
11
317.775
21
17.0634
0
LINE
8
BLACK
6
CONTINUOUS
10
317.775
20
17.0634
11
318.115
21
17.0974
0
LINE
8
BLACK
6
CONTINUOUS
10
318.115
20
17.0974
11
318.458
21
17.092
0
LINE
8
BLACK
6
CONTINUOUS
10
318.458
20
17.092
11
318.797
21
17.0473
0
LINE
8
BLACK
6
CONTINUOUS
10
318.797
20
17.0473
11
319.13
21
16.9639
0
LINE
8
BLACK
6
CONTINUOUS
10
319.13
20
16.9639
11
319.45
21
16.8428
0
LINE
8
BLACK
6
CONTINUOUS
10
319.45
20
16.8428
11
319.754
21
16.6857
0
LINE
8
BLACK
6
CONTINUOUS
10
319.754
20
16.6857
11
320.039
21
16.4947
0
LINE
8
BLACK
6
CONTINUOUS
10
320.039
20
16.4947
11
320.299
21
16.2722
0
LINE
8
BLACK
6
CONTINUOUS
10
320.299
20
16.2722
11
320.532
21
16.0213
0
LINE
8
BLACK
6
CONTINUOUS
10
320.532
20
16.0213
11
320.735
21
15.7453
0
LINE
8
BLACK
6
CONTINUOUS
10
320.735
20
15.7453
11
320.905
21
15.4478
0
LINE
8
BLACK
6
CONTINUOUS
10
320.905
20
15.4478
11
321.039
21
15.1327
0
LINE
8
BLACK
6
CONTINUOUS
10
321.039
20
15.1327
11
321.136
21
14.8043
0
LINE
8
BLACK
6
CONTINUOUS
10
321.136
20
14.8043
11
321.195
21
14.4669
0
LINE
8
BLACK
6
CONTINUOUS
10
321.195
20
14.4669
11
321.215
21
14.125
0
LINE
8
BLACK
6
CONTINUOUS
10
321.215
20
14.125
11
321.209
21
13.9382
0
LINE
8
BLACK
6
CONTINUOUS
10
321.209
20
13.9382
11
321.168
21
13.5982
0
LINE
8
BLACK
6
CONTINUOUS
10
321.168
20
13.5982
11
321.088
21
13.2651
0
LINE
8
BLACK
6
CONTINUOUS
10
321.088
20
13.2651
11
320.97
21
12.9435
0
LINE
8
BLACK
6
CONTINUOUS
10
320.97
20
12.9435
11
320.816
21
12.6375
0
LINE
8
BLACK
6
CONTINUOUS
10
320.816
20
12.6375
11
320.628
21
12.3512
0
LINE
8
BLACK
6
CONTINUOUS
10
320.628
20
12.3512
11
320.409
21
12.0885
0
LINE
8
BLACK
6
CONTINUOUS
10
320.409
20
12.0885
11
320.16
21
11.8527
0
LINE
8
BLACK
6
CONTINUOUS
10
320.16
20
11.8527
11
319.886
21
11.6471
0
LINE
8
BLACK
6
CONTINUOUS
10
319.886
20
11.6471
11
319.591
21
11.4743
0
LINE
8
BLACK
6
CONTINUOUS
10
319.591
20
11.4743
11
319.277
21
11.3366
0
LINE
8
BLACK
6
CONTINUOUS
10
319.277
20
11.3366
11
318.95
21
11.2359
0
LINE
8
BLACK
6
CONTINUOUS
10
318.95
20
11.2359
11
318.613
21
11.1735
0
LINE
8
BLACK
6
CONTINUOUS
10
318.613
20
11.1735
11
318.271
21
11.1502
0
LINE
8
BLACK
6
CONTINUOUS
10
318.271
20
11.1502
11
317.929
21
11.1663
0
LINE
8
BLACK
6
CONTINUOUS
10
317.929
20
11.1663
11
317.591
21
11.2216
0
LINE
8
BLACK
6
CONTINUOUS
10
317.591
20
11.2216
11
317.262
21
11.3155
0
LINE
8
BLACK
6
CONTINUOUS
10
317.262
20
11.3155
11
316.945
21
11.4466
0
LINE
8
BLACK
6
CONTINUOUS
10
316.945
20
11.4466
11
316.646
21
11.6131
0
LINE
8
BLACK
6
CONTINUOUS
10
316.646
20
11.6131
11
316.368
21
11.813
0
LINE
8
BLACK
6
CONTINUOUS
10
316.368
20
11.813
11
316.114
21
12.0435
0
LINE
8
BLACK
6
CONTINUOUS
10
316.114
20
12.0435
11
315.889
21
12.3016
0
LINE
8
BLACK
6
CONTINUOUS
10
315.889
20
12.3016
11
315.695
21
12.5839
0
LINE
8
BLACK
6
CONTINUOUS
10
315.695
20
12.5839
11
315.535
21
12.8866
0
LINE
8
BLACK
6
CONTINUOUS
10
315.535
20
12.8866
11
315.411
21
13.2057
0
LINE
8
BLACK
6
CONTINUOUS
10
315.411
20
13.2057
11
315.324
21
13.537
0
LINE
8
BLACK
6
CONTINUOUS
10
315.324
20
13.537
11
315.275
21
13.8761
0
LINE
8
BLACK
6
CONTINUOUS
10
315.275
20
13.8761
11
315.267
21
14.217
0
LINE
8
BLACK
6
CONTINUOUS
10
315.267
20
14.217
11
315.266
21
14.2184
0
LINE
8
BLACK
6
CONTINUOUS
10
315.266
20
14.2184
11
315.297
21
14.5596
0
LINE
8
BLACK
6
CONTINUOUS
10
315.368
20
13.5459
11
315.453
21
13.2196
0
LINE
8
BLACK
6
CONTINUOUS
10
315.453
20
13.2196
11
315.576
21
12.9053
0
LINE
8
BLACK
6
CONTINUOUS
10
315.576
20
12.9053
11
315.734
21
12.6072
0
LINE
8
BLACK
6
CONTINUOUS
10
315.734
20
12.6072
11
315.925
21
12.3292
0
LINE
8
BLACK
6
CONTINUOUS
10
315.925
20
12.3292
11
316.147
21
12.075
0
LINE
8
BLACK
6
CONTINUOUS
10
316.147
20
12.075
11
316.396
21
11.848
0
LINE
8
BLACK
6
CONTINUOUS
10
316.396
20
11.848
11
316.67
21
11.6512
0
LINE
8
BLACK
6
CONTINUOUS
10
316.67
20
11.6512
11
316.965
21
11.4871
0
LINE
8
BLACK
6
CONTINUOUS
10
316.965
20
11.4871
11
317.276
21
11.358
0
LINE
8
BLACK
6
CONTINUOUS
10
317.276
20
11.358
11
317.601
21
11.2656
0
LINE
8
BLACK
6
CONTINUOUS
10
317.601
20
11.2656
11
317.934
21
11.2111
0
LINE
8
BLACK
6
CONTINUOUS
10
317.934
20
11.2111
11
318.271
21
11.1952
0
LINE
8
BLACK
6
CONTINUOUS
10
318.271
20
11.1952
11
318.607
21
11.2181
0
LINE
8
BLACK
6
CONTINUOUS
10
318.607
20
11.2181
11
318.939
21
11.2796
0
LINE
8
BLACK
6
CONTINUOUS
10
318.939
20
11.2796
11
319.261
21
11.3788
0
LINE
8
BLACK
6
CONTINUOUS
10
319.261
20
11.3788
11
319.57
21
11.5144
0
LINE
8
BLACK
6
CONTINUOUS
10
319.57
20
11.5144
11
319.861
21
11.6846
0
LINE
8
BLACK
6
CONTINUOUS
10
319.861
20
11.6846
11
320.131
21
11.8871
0
LINE
8
BLACK
6
CONTINUOUS
10
320.131
20
11.8871
11
320.376
21
12.1193
0
LINE
8
BLACK
6
CONTINUOUS
10
320.376
20
12.1193
11
320.592
21
12.3781
0
LINE
8
BLACK
6
CONTINUOUS
10
320.592
20
12.3781
11
320.777
21
12.66
0
LINE
8
BLACK
6
CONTINUOUS
10
320.777
20
12.66
11
320.929
21
12.9614
0
LINE
8
BLACK
6
CONTINUOUS
10
320.929
20
12.9614
11
321.045
21
13.2781
0
LINE
8
BLACK
6
CONTINUOUS
10
321.045
20
13.2781
11
321.124
21
13.6061
0
LINE
8
BLACK
6
CONTINUOUS
10
321.124
20
13.6061
11
321.164
21
13.941
0
LINE
8
BLACK
6
CONTINUOUS
10
321.164
20
13.941
11
321.17
21
14.125
0
LINE
8
BLACK
6
CONTINUOUS
10
321.17
20
14.125
11
321.151
21
14.4618
0
LINE
8
BLACK
6
CONTINUOUS
10
321.151
20
14.4618
11
321.093
21
14.7941
0
LINE
8
BLACK
6
CONTINUOUS
10
321.093
20
14.7941
11
320.997
21
15.1175
0
LINE
8
BLACK
6
CONTINUOUS
10
320.997
20
15.1175
11
320.864
21
15.4278
0
LINE
8
BLACK
6
CONTINUOUS
10
320.864
20
15.4278
11
320.697
21
15.7208
0
LINE
8
BLACK
6
CONTINUOUS
10
320.697
20
15.7208
11
320.498
21
15.9926
0
LINE
8
BLACK
6
CONTINUOUS
10
320.498
20
15.9926
11
320.268
21
16.2397
0
LINE
8
BLACK
6
CONTINUOUS
10
320.268
20
16.2397
11
320.011
21
16.4588
0
LINE
8
BLACK
6
CONTINUOUS
10
320.011
20
16.4588
11
319.731
21
16.6469
0
LINE
8
BLACK
6
CONTINUOUS
10
319.731
20
16.6469
11
319.432
21
16.8016
0
LINE
8
BLACK
6
CONTINUOUS
10
319.432
20
16.8016
11
319.116
21
16.9209
0
LINE
8
BLACK
6
CONTINUOUS
10
319.116
20
16.9209
11
318.789
21
17.0031
0
LINE
8
BLACK
6
CONTINUOUS
10
318.789
20
17.0031
11
318.455
21
17.0471
0
LINE
8
BLACK
6
CONTINUOUS
10
318.455
20
17.0471
11
318.117
21
17.0524
0
LINE
8
BLACK
6
CONTINUOUS
10
318.117
20
17.0524
11
317.782
21
17.0189
0
LINE
8
BLACK
6
CONTINUOUS
10
317.782
20
17.0189
11
317.452
21
16.947
0
LINE
8
BLACK
6
CONTINUOUS
10
317.452
20
16.947
11
317.133
21
16.8378
0
LINE
8
BLACK
6
CONTINUOUS
10
317.133
20
16.8378
11
316.828
21
16.6925
0
LINE
8
BLACK
6
CONTINUOUS
10
316.828
20
16.6925
11
316.543
21
16.5133
0
LINE
8
BLACK
6
CONTINUOUS
10
316.543
20
16.5133
11
316.279
21
16.3024
0
LINE
8
BLACK
6
CONTINUOUS
10
316.279
20
16.3024
11
316.042
21
16.0626
0
LINE
8
BLACK
6
CONTINUOUS
10
316.042
20
16.0626
11
315.834
21
15.7972
0
LINE
8
BLACK
6
CONTINUOUS
10
315.834
20
15.7972
11
315.658
21
15.5096
0
LINE
8
BLACK
6
CONTINUOUS
10
315.658
20
15.5096
11
315.516
21
15.2036
0
LINE
8
BLACK
6
CONTINUOUS
10
315.516
20
15.2036
11
315.41
21
14.8833
0
LINE
8
BLACK
6
CONTINUOUS
10
315.41
20
14.8833
11
315.341
21
14.553
0
LINE
8
BLACK
6
CONTINUOUS
10
315.341
20
14.553
11
315.311
21
14.217
0
LINE
8
BLACK
6
CONTINUOUS
10
315.311
20
14.217
11
315.32
21
13.8798
0
LINE
8
BLACK
6
CONTINUOUS
10
315.32
20
13.8798
11
315.368
21
13.5459
0
LINE
8
BLACK
6
CONTINUOUS
10
228.225
20
33.3596
11
228.294
21
33.695
0
LINE
8
BLACK
6
CONTINUOUS
10
228.294
20
33.695
11
228.402
21
34.0202
0
LINE
8
BLACK
6
CONTINUOUS
10
228.402
20
34.0202
11
228.546
21
34.3308
0
LINE
8
BLACK
6
CONTINUOUS
10
228.546
20
34.3308
11
228.725
21
34.6229
0
LINE
8
BLACK
6
CONTINUOUS
10
228.725
20
34.6229
11
228.936
21
34.8924
0
LINE
8
BLACK
6
CONTINUOUS
10
228.936
20
34.8924
11
229.177
21
35.1359
0
LINE
8
BLACK
6
CONTINUOUS
10
229.177
20
35.1359
11
229.444
21
35.35
0
LINE
8
BLACK
6
CONTINUOUS
10
229.444
20
35.35
11
229.735
21
35.532
0
LINE
8
BLACK
6
CONTINUOUS
10
229.735
20
35.532
11
230.044
21
35.6795
0
LINE
8
BLACK
6
CONTINUOUS
10
230.044
20
35.6795
11
230.368
21
35.7904
0
LINE
8
BLACK
6
CONTINUOUS
10
230.368
20
35.7904
11
230.702
21
35.8634
0
LINE
8
BLACK
6
CONTINUOUS
10
230.702
20
35.8634
11
231.043
21
35.8974
0
LINE
8
BLACK
6
CONTINUOUS
10
231.043
20
35.8974
11
231.386
21
35.892
0
LINE
8
BLACK
6
CONTINUOUS
10
231.386
20
35.892
11
231.725
21
35.8473
0
LINE
8
BLACK
6
CONTINUOUS
10
231.725
20
35.8473
11
232.057
21
35.7639
0
LINE
8
BLACK
6
CONTINUOUS
10
232.057
20
35.7639
11
232.378
21
35.6428
0
LINE
8
BLACK
6
CONTINUOUS
10
232.378
20
35.6428
11
232.682
21
35.4857
0
LINE
8
BLACK
6
CONTINUOUS
10
232.682
20
35.4857
11
232.966
21
35.2947
0
LINE
8
BLACK
6
CONTINUOUS
10
232.966
20
35.2947
11
233.227
21
35.0722
0
LINE
8
BLACK
6
CONTINUOUS
10
233.227
20
35.0722
11
233.46
21
34.8213
0
LINE
8
BLACK
6
CONTINUOUS
10
233.46
20
34.8213
11
233.663
21
34.5453
0
LINE
8
BLACK
6
CONTINUOUS
10
233.663
20
34.5453
11
233.833
21
34.2478
0
LINE
8
BLACK
6
CONTINUOUS
10
233.833
20
34.2478
11
233.967
21
33.9327
0
LINE
8
BLACK
6
CONTINUOUS
10
233.967
20
33.9327
11
234.064
21
33.6043
0
LINE
8
BLACK
6
CONTINUOUS
10
234.064
20
33.6043
11
234.123
21
33.2669
0
LINE
8
BLACK
6
CONTINUOUS
10
234.123
20
33.2669
11
234.143
21
32.925
0
LINE
8
BLACK
6
CONTINUOUS
10
234.143
20
32.925
11
234.137
21
32.7382
0
LINE
8
BLACK
6
CONTINUOUS
10
234.137
20
32.7382
11
234.096
21
32.3982
0
LINE
8
BLACK
6
CONTINUOUS
10
234.096
20
32.3982
11
234.016
21
32.0651
0
LINE
8
BLACK
6
CONTINUOUS
10
234.016
20
32.0651
11
233.898
21
31.7435
0
LINE
8
BLACK
6
CONTINUOUS
10
233.898
20
31.7435
11
233.744
21
31.4375
0
LINE
8
BLACK
6
CONTINUOUS
10
233.744
20
31.4375
11
233.556
21
31.1512
0
LINE
8
BLACK
6
CONTINUOUS
10
233.556
20
31.1512
11
233.336
21
30.8885
0
LINE
8
BLACK
6
CONTINUOUS
10
233.336
20
30.8885
11
233.088
21
30.6527
0
LINE
8
BLACK
6
CONTINUOUS
10
233.088
20
30.6527
11
232.814
21
30.4471
0
LINE
8
BLACK
6
CONTINUOUS
10
232.814
20
30.4471
11
232.518
21
30.2743
0
LINE
8
BLACK
6
CONTINUOUS
10
232.518
20
30.2743
11
232.205
21
30.1366
0
LINE
8
BLACK
6
CONTINUOUS
10
232.205
20
30.1366
11
231.877
21
30.0359
0
LINE
8
BLACK
6
CONTINUOUS
10
231.877
20
30.0359
11
231.541
21
29.9735
0
LINE
8
BLACK
6
CONTINUOUS
10
231.541
20
29.9735
11
231.199
21
29.9502
0
LINE
8
BLACK
6
CONTINUOUS
10
231.199
20
29.9502
11
230.857
21
29.9663
0
LINE
8
BLACK
6
CONTINUOUS
10
230.857
20
29.9663
11
230.519
21
30.0216
0
LINE
8
BLACK
6
CONTINUOUS
10
230.519
20
30.0216
11
230.189
21
30.1155
0
LINE
8
BLACK
6
CONTINUOUS
10
230.189
20
30.1155
11
229.873
21
30.2466
0
LINE
8
BLACK
6
CONTINUOUS
10
229.873
20
30.2466
11
229.574
21
30.4131
0
LINE
8
BLACK
6
CONTINUOUS
10
229.574
20
30.4131
11
229.296
21
30.613
0
LINE
8
BLACK
6
CONTINUOUS
10
229.296
20
30.613
11
229.042
21
30.8435
0
LINE
8
BLACK
6
CONTINUOUS
10
229.042
20
30.8435
11
228.817
21
31.1016
0
LINE
8
BLACK
6
CONTINUOUS
10
228.817
20
31.1016
11
228.623
21
31.3839
0
LINE
8
BLACK
6
CONTINUOUS
10
228.623
20
31.3839
11
228.463
21
31.6866
0
LINE
8
BLACK
6
CONTINUOUS
10
228.463
20
31.6866
11
228.338
21
32.0057
0
LINE
8
BLACK
6
CONTINUOUS
10
228.338
20
32.0057
11
228.251
21
32.337
0
LINE
8
BLACK
6
CONTINUOUS
10
228.251
20
32.337
11
228.203
21
32.6761
0
LINE
8
BLACK
6
CONTINUOUS
10
228.203
20
32.6761
11
228.194
21
33.017
0
LINE
8
BLACK
6
CONTINUOUS
10
228.194
20
33.017
11
228.194
21
33.0184
0
LINE
8
BLACK
6
CONTINUOUS
10
228.194
20
33.0184
11
228.225
21
33.3596
0
LINE
8
BLACK
6
CONTINUOUS
10
228.296
20
32.3459
11
228.381
21
32.0196
0
LINE
8
BLACK
6
CONTINUOUS
10
228.381
20
32.0196
11
228.504
21
31.7053
0
LINE
8
BLACK
6
CONTINUOUS
10
228.504
20
31.7053
11
228.662
21
31.4072
0
LINE
8
BLACK
6
CONTINUOUS
10
228.662
20
31.4072
11
228.853
21
31.1292
0
LINE
8
BLACK
6
CONTINUOUS
10
228.853
20
31.1292
11
229.074
21
30.875
0
LINE
8
BLACK
6
CONTINUOUS
10
229.074
20
30.875
11
229.324
21
30.648
0
LINE
8
BLACK
6
CONTINUOUS
10
229.324
20
30.648
11
229.598
21
30.4512
0
LINE
8
BLACK
6
CONTINUOUS
10
229.598
20
30.4512
11
229.893
21
30.2871
0
LINE
8
BLACK
6
CONTINUOUS
10
229.893
20
30.2871
11
230.204
21
30.158
0
LINE
8
BLACK
6
CONTINUOUS
10
230.204
20
30.158
11
230.529
21
30.0656
0
LINE
8
BLACK
6
CONTINUOUS
10
230.529
20
30.0656
11
230.862
21
30.0111
0
LINE
8
BLACK
6
CONTINUOUS
10
230.862
20
30.0111
11
231.198
21
29.9952
0
LINE
8
BLACK
6
CONTINUOUS
10
231.198
20
29.9952
11
231.535
21
30.0181
0
LINE
8
BLACK
6
CONTINUOUS
10
231.535
20
30.0181
11
231.867
21
30.0796
0
LINE
8
BLACK
6
CONTINUOUS
10
231.867
20
30.0796
11
232.189
21
30.1788
0
LINE
8
BLACK
6
CONTINUOUS
10
232.189
20
30.1788
11
232.498
21
30.3144
0
LINE
8
BLACK
6
CONTINUOUS
10
232.498
20
30.3144
11
232.789
21
30.4846
0
LINE
8
BLACK
6
CONTINUOUS
10
232.789
20
30.4846
11
233.059
21
30.6871
0
LINE
8
BLACK
6
CONTINUOUS
10
233.059
20
30.6871
11
233.304
21
30.9193
0
LINE
8
BLACK
6
CONTINUOUS
10
233.304
20
30.9193
11
233.52
21
31.1781
0
LINE
8
BLACK
6
CONTINUOUS
10
233.52
20
31.1781
11
233.705
21
31.46
0
LINE
8
BLACK
6
CONTINUOUS
10
233.705
20
31.46
11
233.857
21
31.7614
0
LINE
8
BLACK
6
CONTINUOUS
10
233.857
20
31.7614
11
233.973
21
32.0781
0
LINE
8
BLACK
6
CONTINUOUS
10
233.973
20
32.0781
11
234.051
21
32.4061
0
LINE
8
BLACK
6
CONTINUOUS
10
234.051
20
32.4061
11
234.092
21
32.741
0
LINE
8
BLACK
6
CONTINUOUS
10
234.092
20
32.741
11
234.098
21
32.925
0
LINE
8
BLACK
6
CONTINUOUS
10
234.098
20
32.925
11
234.078
21
33.2618
0
LINE
8
BLACK
6
CONTINUOUS
10
234.078
20
33.2618
11
234.02
21
33.5941
0
LINE
8
BLACK
6
CONTINUOUS
10
234.02
20
33.5941
11
233.925
21
33.9175
0
LINE
8
BLACK
6
CONTINUOUS
10
233.925
20
33.9175
11
233.792
21
34.2278
0
LINE
8
BLACK
6
CONTINUOUS
10
233.792
20
34.2278
11
233.625
21
34.5208
0
LINE
8
BLACK
6
CONTINUOUS
10
233.625
20
34.5208
11
233.425
21
34.7926
0
LINE
8
BLACK
6
CONTINUOUS
10
233.425
20
34.7926
11
233.196
21
35.0397
0
LINE
8
BLACK
6
CONTINUOUS
10
233.196
20
35.0397
11
232.939
21
35.2588
0
LINE
8
BLACK
6
CONTINUOUS
10
232.939
20
35.2588
11
232.659
21
35.4469
0
LINE
8
BLACK
6
CONTINUOUS
10
232.659
20
35.4469
11
232.36
21
35.6016
0
LINE
8
BLACK
6
CONTINUOUS
10
232.36
20
35.6016
11
232.044
21
35.7209
0
LINE
8
BLACK
6
CONTINUOUS
10
232.044
20
35.7209
11
231.717
21
35.8031
0
LINE
8
BLACK
6
CONTINUOUS
10
231.717
20
35.8031
11
231.382
21
35.8471
0
LINE
8
BLACK
6
CONTINUOUS
10
231.382
20
35.8471
11
231.045
21
35.8524
0
LINE
8
BLACK
6
CONTINUOUS
10
231.045
20
35.8524
11
230.709
21
35.8189
0
LINE
8
BLACK
6
CONTINUOUS
10
230.709
20
35.8189
11
230.38
21
35.747
0
LINE
8
BLACK
6
CONTINUOUS
10
230.38
20
35.747
11
230.061
21
35.6378
0
LINE
8
BLACK
6
CONTINUOUS
10
230.061
20
35.6378
11
229.756
21
35.4925
0
LINE
8
BLACK
6
CONTINUOUS
10
229.756
20
35.4925
11
229.471
21
35.3133
0
LINE
8
BLACK
6
CONTINUOUS
10
229.471
20
35.3133
11
229.207
21
35.1024
0
LINE
8
BLACK
6
CONTINUOUS
10
229.207
20
35.1024
11
228.97
21
34.8626
0
LINE
8
BLACK
6
CONTINUOUS
10
228.97
20
34.8626
11
228.762
21
34.5972
0
LINE
8
BLACK
6
CONTINUOUS
10
228.762
20
34.5972
11
228.586
21
34.3096
0
LINE
8
BLACK
6
CONTINUOUS
10
228.586
20
34.3096
11
228.444
21
34.0036
0
LINE
8
BLACK
6
CONTINUOUS
10
228.444
20
34.0036
11
228.338
21
33.6833
0
LINE
8
BLACK
6
CONTINUOUS
10
228.338
20
33.6833
11
228.269
21
33.353
0
LINE
8
BLACK
6
CONTINUOUS
10
228.269
20
33.353
11
228.239
21
33.017
0
LINE
8
BLACK
6
CONTINUOUS
10
228.239
20
33.017
11
228.248
21
32.6798
0
LINE
8
BLACK
6
CONTINUOUS
10
228.248
20
32.6798
11
228.296
21
32.3459
0
LINE
8
BLACK
6
CONTINUOUS
10
315.297
20
33.3596
11
315.366
21
33.695
0
LINE
8
BLACK
6
CONTINUOUS
10
315.366
20
33.695
11
315.474
21
34.0202
0
LINE
8
BLACK
6
CONTINUOUS
10
315.474
20
34.0202
11
315.618
21
34.3308
0
LINE
8
BLACK
6
CONTINUOUS
10
315.618
20
34.3308
11
315.797
21
34.6229
0
LINE
8
BLACK
6
CONTINUOUS
10
315.797
20
34.6229
11
316.008
21
34.8924
0
LINE
8
BLACK
6
CONTINUOUS
10
316.008
20
34.8924
11
316.249
21
35.1359
0
LINE
8
BLACK
6
CONTINUOUS
10
316.249
20
35.1359
11
316.517
21
35.35
0
LINE
8
BLACK
6
CONTINUOUS
10
316.517
20
35.35
11
316.807
21
35.532
0
LINE
8
BLACK
6
CONTINUOUS
10
316.807
20
35.532
11
317.116
21
35.6795
0
LINE
8
BLACK
6
CONTINUOUS
10
317.116
20
35.6795
11
317.44
21
35.7904
0
LINE
8
BLACK
6
CONTINUOUS
10
317.44
20
35.7904
11
317.775
21
35.8634
0
LINE
8
BLACK
6
CONTINUOUS
10
317.775
20
35.8634
11
318.115
21
35.8974
0
LINE
8
BLACK
6
CONTINUOUS
10
318.115
20
35.8974
11
318.458
21
35.892
0
LINE
8
BLACK
6
CONTINUOUS
10
318.458
20
35.892
11
318.797
21
35.8473
0
LINE
8
BLACK
6
CONTINUOUS
10
318.797
20
35.8473
11
319.13
21
35.7639
0
LINE
8
BLACK
6
CONTINUOUS
10
319.13
20
35.7639
11
319.45
21
35.6428
0
LINE
8
BLACK
6
CONTINUOUS
10
319.45
20
35.6428
11
319.754
21
35.4857
0
LINE
8
BLACK
6
CONTINUOUS
10
319.754
20
35.4857
11
320.039
21
35.2947
0
LINE
8
BLACK
6
CONTINUOUS
10
320.039
20
35.2947
11
320.299
21
35.0722
0
LINE
8
BLACK
6
CONTINUOUS
10
320.299
20
35.0722
11
320.532
21
34.8213
0
LINE
8
BLACK
6
CONTINUOUS
10
320.532
20
34.8213
11
320.735
21
34.5453
0
LINE
8
BLACK
6
CONTINUOUS
10
320.735
20
34.5453
11
320.905
21
34.2478
0
LINE
8
BLACK
6
CONTINUOUS
10
320.905
20
34.2478
11
321.039
21
33.9327
0
LINE
8
BLACK
6
CONTINUOUS
10
321.039
20
33.9327
11
321.136
21
33.6043
0
LINE
8
BLACK
6
CONTINUOUS
10
321.136
20
33.6043
11
321.195
21
33.2669
0
LINE
8
BLACK
6
CONTINUOUS
10
321.195
20
33.2669
11
321.215
21
32.925
0
LINE
8
BLACK
6
CONTINUOUS
10
321.215
20
32.925
11
321.209
21
32.7382
0
LINE
8
BLACK
6
CONTINUOUS
10
321.209
20
32.7382
11
321.168
21
32.3982
0
LINE
8
BLACK
6
CONTINUOUS
10
321.168
20
32.3982
11
321.088
21
32.0651
0
LINE
8
BLACK
6
CONTINUOUS
10
321.088
20
32.0651
11
320.97
21
31.7435
0
LINE
8
BLACK
6
CONTINUOUS
10
320.97
20
31.7435
11
320.816
21
31.4375
0
LINE
8
BLACK
6
CONTINUOUS
10
320.816
20
31.4375
11
320.628
21
31.1512
0
LINE
8
BLACK
6
CONTINUOUS
10
320.628
20
31.1512
11
320.409
21
30.8885
0
LINE
8
BLACK
6
CONTINUOUS
10
320.409
20
30.8885
11
320.16
21
30.6527
0
LINE
8
BLACK
6
CONTINUOUS
10
320.16
20
30.6527
11
319.886
21
30.4471
0
LINE
8
BLACK
6
CONTINUOUS
10
319.886
20
30.4471
11
319.591
21
30.2743
0
LINE
8
BLACK
6
CONTINUOUS
10
319.591
20
30.2743
11
319.277
21
30.1366
0
LINE
8
BLACK
6
CONTINUOUS
10
319.277
20
30.1366
11
318.95
21
30.0359
0
LINE
8
BLACK
6
CONTINUOUS
10
318.95
20
30.0359
11
318.613
21
29.9735
0
LINE
8
BLACK
6
CONTINUOUS
10
318.613
20
29.9735
11
318.271
21
29.9502
0
LINE
8
BLACK
6
CONTINUOUS
10
318.271
20
29.9502
11
317.929
21
29.9663
0
LINE
8
BLACK
6
CONTINUOUS
10
317.929
20
29.9663
11
317.591
21
30.0216
0
LINE
8
BLACK
6
CONTINUOUS
10
317.591
20
30.0216
11
317.262
21
30.1155
0
LINE
8
BLACK
6
CONTINUOUS
10
317.262
20
30.1155
11
316.945
21
30.2466
0
LINE
8
BLACK
6
CONTINUOUS
10
316.945
20
30.2466
11
316.646
21
30.4131
0
LINE
8
BLACK
6
CONTINUOUS
10
316.646
20
30.4131
11
316.368
21
30.613
0
LINE
8
BLACK
6
CONTINUOUS
10
316.368
20
30.613
11
316.114
21
30.8435
0
LINE
8
BLACK
6
CONTINUOUS
10
316.114
20
30.8435
11
315.889
21
31.1016
0
LINE
8
BLACK
6
CONTINUOUS
10
315.889
20
31.1016
11
315.695
21
31.3839
0
LINE
8
BLACK
6
CONTINUOUS
10
315.695
20
31.3839
11
315.535
21
31.6866
0
LINE
8
BLACK
6
CONTINUOUS
10
315.535
20
31.6866
11
315.411
21
32.0057
0
LINE
8
BLACK
6
CONTINUOUS
10
315.411
20
32.0057
11
315.324
21
32.337
0
LINE
8
BLACK
6
CONTINUOUS
10
315.324
20
32.337
11
315.275
21
32.6761
0
LINE
8
BLACK
6
CONTINUOUS
10
315.275
20
32.6761
11
315.267
21
33.017
0
LINE
8
BLACK
6
CONTINUOUS
10
315.267
20
33.017
11
315.266
21
33.0184
0
LINE
8
BLACK
6
CONTINUOUS
10
315.266
20
33.0184
11
315.297
21
33.3596
0
LINE
8
BLACK
6
CONTINUOUS
10
315.368
20
32.3459
11
315.453
21
32.0196
0
LINE
8
BLACK
6
CONTINUOUS
10
315.453
20
32.0196
11
315.576
21
31.7053
0
LINE
8
BLACK
6
CONTINUOUS
10
315.576
20
31.7053
11
315.734
21
31.4072
0
LINE
8
BLACK
6
CONTINUOUS
10
315.734
20
31.4072
11
315.925
21
31.1292
0
LINE
8
BLACK
6
CONTINUOUS
10
315.925
20
31.1292
11
316.147
21
30.875
0
LINE
8
BLACK
6
CONTINUOUS
10
316.147
20
30.875
11
316.396
21
30.648
0
LINE
8
BLACK
6
CONTINUOUS
10
316.396
20
30.648
11
316.67
21
30.4512
0
LINE
8
BLACK
6
CONTINUOUS
10
316.67
20
30.4512
11
316.965
21
30.2871
0
LINE
8
BLACK
6
CONTINUOUS
10
316.965
20
30.2871
11
317.276
21
30.158
0
LINE
8
BLACK
6
CONTINUOUS
10
317.276
20
30.158
11
317.601
21
30.0656
0
LINE
8
BLACK
6
CONTINUOUS
10
317.601
20
30.0656
11
317.934
21
30.0111
0
LINE
8
BLACK
6
CONTINUOUS
10
317.934
20
30.0111
11
318.271
21
29.9952
0
LINE
8
BLACK
6
CONTINUOUS
10
318.271
20
29.9952
11
318.607
21
30.0181
0
LINE
8
BLACK
6
CONTINUOUS
10
318.607
20
30.0181
11
318.939
21
30.0796
0
LINE
8
BLACK
6
CONTINUOUS
10
318.939
20
30.0796
11
319.261
21
30.1788
0
LINE
8
BLACK
6
CONTINUOUS
10
319.261
20
30.1788
11
319.57
21
30.3144
0
LINE
8
BLACK
6
CONTINUOUS
10
319.57
20
30.3144
11
319.861
21
30.4846
0
LINE
8
BLACK
6
CONTINUOUS
10
319.861
20
30.4846
11
320.131
21
30.6871
0
LINE
8
BLACK
6
CONTINUOUS
10
320.131
20
30.6871
11
320.376
21
30.9193
0
LINE
8
BLACK
6
CONTINUOUS
10
320.376
20
30.9193
11
320.592
21
31.1781
0
LINE
8
BLACK
6
CONTINUOUS
10
320.592
20
31.1781
11
320.777
21
31.46
0
LINE
8
BLACK
6
CONTINUOUS
10
320.777
20
31.46
11
320.929
21
31.7614
0
LINE
8
BLACK
6
CONTINUOUS
10
320.929
20
31.7614
11
321.045
21
32.0781
0
LINE
8
BLACK
6
CONTINUOUS
10
321.045
20
32.0781
11
321.124
21
32.4061
0
LINE
8
BLACK
6
CONTINUOUS
10
321.124
20
32.4061
11
321.164
21
32.741
0
LINE
8
BLACK
6
CONTINUOUS
10
321.164
20
32.741
11
321.17
21
32.925
0
LINE
8
BLACK
6
CONTINUOUS
10
321.17
20
32.925
11
321.151
21
33.2618
0
LINE
8
BLACK
6
CONTINUOUS
10
321.151
20
33.2618
11
321.093
21
33.5941
0
LINE
8
BLACK
6
CONTINUOUS
10
321.093
20
33.5941
11
320.997
21
33.9175
0
LINE
8
BLACK
6
CONTINUOUS
10
320.997
20
33.9175
11
320.864
21
34.2278
0
LINE
8
BLACK
6
CONTINUOUS
10
320.864
20
34.2278
11
320.697
21
34.5208
0
LINE
8
BLACK
6
CONTINUOUS
10
320.697
20
34.5208
11
320.498
21
34.7926
0
LINE
8
BLACK
6
CONTINUOUS
10
320.498
20
34.7926
11
320.268
21
35.0397
0
LINE
8
BLACK
6
CONTINUOUS
10
320.268
20
35.0397
11
320.011
21
35.2588
0
LINE
8
BLACK
6
CONTINUOUS
10
320.011
20
35.2588
11
319.731
21
35.4469
0
LINE
8
BLACK
6
CONTINUOUS
10
319.731
20
35.4469
11
319.432
21
35.6016
0
LINE
8
BLACK
6
CONTINUOUS
10
319.432
20
35.6016
11
319.116
21
35.7209
0
LINE
8
BLACK
6
CONTINUOUS
10
319.116
20
35.7209
11
318.789
21
35.8031
0
LINE
8
BLACK
6
CONTINUOUS
10
318.789
20
35.8031
11
318.455
21
35.8471
0
LINE
8
BLACK
6
CONTINUOUS
10
318.455
20
35.8471
11
318.117
21
35.8524
0
LINE
8
BLACK
6
CONTINUOUS
10
318.117
20
35.8524
11
317.782
21
35.8189
0
LINE
8
BLACK
6
CONTINUOUS
10
317.782
20
35.8189
11
317.452
21
35.747
0
LINE
8
BLACK
6
CONTINUOUS
10
317.452
20
35.747
11
317.133
21
35.6378
0
LINE
8
BLACK
6
CONTINUOUS
10
317.133
20
35.6378
11
316.828
21
35.4925
0
LINE
8
BLACK
6
CONTINUOUS
10
316.828
20
35.4925
11
316.543
21
35.3133
0
LINE
8
BLACK
6
CONTINUOUS
10
316.543
20
35.3133
11
316.279
21
35.1024
0
LINE
8
BLACK
6
CONTINUOUS
10
316.279
20
35.1024
11
316.042
21
34.8626
0
LINE
8
BLACK
6
CONTINUOUS
10
316.042
20
34.8626
11
315.834
21
34.5972
0
LINE
8
BLACK
6
CONTINUOUS
10
315.834
20
34.5972
11
315.658
21
34.3096
0
LINE
8
BLACK
6
CONTINUOUS
10
315.658
20
34.3096
11
315.516
21
34.0036
0
LINE
8
BLACK
6
CONTINUOUS
10
315.516
20
34.0036
11
315.41
21
33.6833
0
LINE
8
BLACK
6
CONTINUOUS
10
315.41
20
33.6833
11
315.341
21
33.353
0
LINE
8
BLACK
6
CONTINUOUS
10
315.341
20
33.353
11
315.311
21
33.017
0
LINE
8
BLACK
6
CONTINUOUS
10
315.311
20
33.017
11
315.32
21
32.6798
0
LINE
8
BLACK
6
CONTINUOUS
10
315.32
20
32.6798
11
315.368
21
32.3459
0
LINE
8
BLACK
6
CONTINUOUS
10
344.932
20
33.3596
11
345.001
21
33.695
0
LINE
8
BLACK
6
CONTINUOUS
10
345.001
20
33.695
11
345.109
21
34.0202
0
LINE
8
BLACK
6
CONTINUOUS
10
345.109
20
34.0202
11
345.253
21
34.3308
0
LINE
8
BLACK
6
CONTINUOUS
10
345.253
20
34.3308
11
345.432
21
34.6229
0
LINE
8
BLACK
6
CONTINUOUS
10
345.432
20
34.6229
11
345.643
21
34.8924
0
LINE
8
BLACK
6
CONTINUOUS
10
345.643
20
34.8924
11
345.884
21
35.1359
0
LINE
8
BLACK
6
CONTINUOUS
10
345.884
20
35.1359
11
346.152
21
35.35
0
LINE
8
BLACK
6
CONTINUOUS
10
346.152
20
35.35
11
346.442
21
35.532
0
LINE
8
BLACK
6
CONTINUOUS
10
346.442
20
35.532
11
346.751
21
35.6795
0
LINE
8
BLACK
6
CONTINUOUS
10
346.751
20
35.6795
11
347.075
21
35.7904
0
LINE
8
BLACK
6
CONTINUOUS
10
347.075
20
35.7904
11
347.41
21
35.8634
0
LINE
8
BLACK
6
CONTINUOUS
10
347.41
20
35.8634
11
347.75
21
35.8974
0
LINE
8
BLACK
6
CONTINUOUS
10
347.75
20
35.8974
11
348.093
21
35.892
0
LINE
8
BLACK
6
CONTINUOUS
10
348.093
20
35.892
11
348.432
21
35.8473
0
LINE
8
BLACK
6
CONTINUOUS
10
348.432
20
35.8473
11
348.765
21
35.7639
0
LINE
8
BLACK
6
CONTINUOUS
10
348.765
20
35.7639
11
349.085
21
35.6428
0
LINE
8
BLACK
6
CONTINUOUS
10
349.085
20
35.6428
11
349.389
21
35.4857
0
LINE
8
BLACK
6
CONTINUOUS
10
349.389
20
35.4857
11
349.674
21
35.2947
0
LINE
8
BLACK
6
CONTINUOUS
10
349.674
20
35.2947
11
349.934
21
35.0722
0
LINE
8
BLACK
6
CONTINUOUS
10
349.934
20
35.0722
11
350.167
21
34.8213
0
LINE
8
BLACK
6
CONTINUOUS
10
350.167
20
34.8213
11
350.37
21
34.5453
0
LINE
8
BLACK
6
CONTINUOUS
10
350.37
20
34.5453
11
350.54
21
34.2478
0
LINE
8
BLACK
6
CONTINUOUS
10
350.54
20
34.2478
11
350.674
21
33.9327
0
LINE
8
BLACK
6
CONTINUOUS
10
350.674
20
33.9327
11
350.771
21
33.6043
0
LINE
8
BLACK
6
CONTINUOUS
10
350.771
20
33.6043
11
350.83
21
33.2669
0
LINE
8
BLACK
6
CONTINUOUS
10
350.83
20
33.2669
11
350.85
21
32.925
0
LINE
8
BLACK
6
CONTINUOUS
10
350.85
20
32.925
11
350.844
21
32.7382
0
LINE
8
BLACK
6
CONTINUOUS
10
350.844
20
32.7382
11
350.803
21
32.3982
0
LINE
8
BLACK
6
CONTINUOUS
10
350.803
20
32.3982
11
350.723
21
32.0651
0
LINE
8
BLACK
6
CONTINUOUS
10
350.723
20
32.0651
11
350.605
21
31.7435
0
LINE
8
BLACK
6
CONTINUOUS
10
350.605
20
31.7435
11
350.451
21
31.4375
0
LINE
8
BLACK
6
CONTINUOUS
10
350.451
20
31.4375
11
350.263
21
31.1512
0
LINE
8
BLACK
6
CONTINUOUS
10
350.263
20
31.1512
11
350.044
21
30.8885
0
LINE
8
BLACK
6
CONTINUOUS
10
350.044
20
30.8885
11
349.795
21
30.6527
0
LINE
8
BLACK
6
CONTINUOUS
10
349.795
20
30.6527
11
349.521
21
30.4471
0
LINE
8
BLACK
6
CONTINUOUS
10
349.521
20
30.4471
11
349.226
21
30.2743
0
LINE
8
BLACK
6
CONTINUOUS
10
349.226
20
30.2743
11
348.912
21
30.1366
0
LINE
8
BLACK
6
CONTINUOUS
10
348.912
20
30.1366
11
348.585
21
30.0359
0
LINE
8
BLACK
6
CONTINUOUS
10
348.585
20
30.0359
11
348.248
21
29.9735
0
LINE
8
BLACK
6
CONTINUOUS
10
348.248
20
29.9735
11
347.906
21
29.9502
0
LINE
8
BLACK
6
CONTINUOUS
10
347.906
20
29.9502
11
347.564
21
29.9663
0
LINE
8
BLACK
6
CONTINUOUS
10
347.564
20
29.9663
11
347.226
21
30.0216
0
LINE
8
BLACK
6
CONTINUOUS
10
347.226
20
30.0216
11
346.897
21
30.1155
0
LINE
8
BLACK
6
CONTINUOUS
10
346.897
20
30.1155
11
346.58
21
30.2466
0
LINE
8
BLACK
6
CONTINUOUS
10
346.58
20
30.2466
11
346.281
21
30.4131
0
LINE
8
BLACK
6
CONTINUOUS
10
346.281
20
30.4131
11
346.003
21
30.613
0
LINE
8
BLACK
6
CONTINUOUS
10
346.003
20
30.613
11
345.749
21
30.8435
0
LINE
8
BLACK
6
CONTINUOUS
10
345.749
20
30.8435
11
345.524
21
31.1016
0
LINE
8
BLACK
6
CONTINUOUS
10
345.524
20
31.1016
11
345.33
21
31.3839
0
LINE
8
BLACK
6
CONTINUOUS
10
345.33
20
31.3839
11
345.17
21
31.6866
0
LINE
8
BLACK
6
CONTINUOUS
10
345.17
20
31.6866
11
345.046
21
32.0057
0
LINE
8
BLACK
6
CONTINUOUS
10
345.046
20
32.0057
11
344.959
21
32.337
0
LINE
8
BLACK
6
CONTINUOUS
10
344.959
20
32.337
11
344.91
21
32.6761
0
LINE
8
BLACK
6
CONTINUOUS
10
344.91
20
32.6761
11
344.902
21
33.017
0
LINE
8
BLACK
6
CONTINUOUS
10
344.902
20
33.017
11
344.901
21
33.0184
0
LINE
8
BLACK
6
CONTINUOUS
10
344.901
20
33.0184
11
344.932
21
33.3596
0
LINE
8
BLACK
6
CONTINUOUS
10
345.003
20
32.3459
11
345.088
21
32.0196
0
LINE
8
BLACK
6
CONTINUOUS
10
345.088
20
32.0196
11
345.211
21
31.7053
0
LINE
8
BLACK
6
CONTINUOUS
10
345.211
20
31.7053
11
345.369
21
31.4072
0
LINE
8
BLACK
6
CONTINUOUS
10
345.369
20
31.4072
11
345.56
21
31.1292
0
LINE
8
BLACK
6
CONTINUOUS
10
345.56
20
31.1292
11
345.782
21
30.875
0
LINE
8
BLACK
6
CONTINUOUS
10
345.782
20
30.875
11
346.031
21
30.648
0
LINE
8
BLACK
6
CONTINUOUS
10
346.031
20
30.648
11
346.305
21
30.4512
0
LINE
8
BLACK
6
CONTINUOUS
10
346.305
20
30.4512
11
346.6
21
30.2871
0
LINE
8
BLACK
6
CONTINUOUS
10
346.6
20
30.2871
11
346.911
21
30.158
0
LINE
8
BLACK
6
CONTINUOUS
10
346.911
20
30.158
11
347.236
21
30.0656
0
LINE
8
BLACK
6
CONTINUOUS
10
347.236
20
30.0656
11
347.569
21
30.0111
0
LINE
8
BLACK
6
CONTINUOUS
10
347.569
20
30.0111
11
347.906
21
29.9952
0
LINE
8
BLACK
6
CONTINUOUS
10
347.906
20
29.9952
11
348.242
21
30.0181
0
LINE
8
BLACK
6
CONTINUOUS
10
348.242
20
30.0181
11
348.574
21
30.0796
0
LINE
8
BLACK
6
CONTINUOUS
10
348.574
20
30.0796
11
348.896
21
30.1788
0
LINE
8
BLACK
6
CONTINUOUS
10
348.896
20
30.1788
11
349.205
21
30.3144
0
LINE
8
BLACK
6
CONTINUOUS
10
349.205
20
30.3144
11
349.496
21
30.4846
0
LINE
8
BLACK
6
CONTINUOUS
10
349.496
20
30.4846
11
349.766
21
30.6871
0
LINE
8
BLACK
6
CONTINUOUS
10
349.766
20
30.6871
11
350.011
21
30.9193
0
LINE
8
BLACK
6
CONTINUOUS
10
350.011
20
30.9193
11
350.227
21
31.1781
0
LINE
8
BLACK
6
CONTINUOUS
10
350.227
20
31.1781
11
350.412
21
31.46
0
LINE
8
BLACK
6
CONTINUOUS
10
350.412
20
31.46
11
350.564
21
31.7614
0
LINE
8
BLACK
6
CONTINUOUS
10
350.564
20
31.7614
11
350.68
21
32.0781
0
LINE
8
BLACK
6
CONTINUOUS
10
350.68
20
32.0781
11
350.759
21
32.4061
0
LINE
8
BLACK
6
CONTINUOUS
10
350.759
20
32.4061
11
350.799
21
32.741
0
LINE
8
BLACK
6
CONTINUOUS
10
350.799
20
32.741
11
350.805
21
32.925
0
LINE
8
BLACK
6
CONTINUOUS
10
350.805
20
32.925
11
350.786
21
33.2618
0
LINE
8
BLACK
6
CONTINUOUS
10
350.786
20
33.2618
11
350.728
21
33.5941
0
LINE
8
BLACK
6
CONTINUOUS
10
350.728
20
33.5941
11
350.632
21
33.9175
0
LINE
8
BLACK
6
CONTINUOUS
10
350.632
20
33.9175
11
350.499
21
34.2278
0
LINE
8
BLACK
6
CONTINUOUS
10
350.499
20
34.2278
11
350.332
21
34.5208
0
LINE
8
BLACK
6
CONTINUOUS
10
350.332
20
34.5208
11
350.133
21
34.7926
0
LINE
8
BLACK
6
CONTINUOUS
10
350.133
20
34.7926
11
349.903
21
35.0397
0
LINE
8
BLACK
6
CONTINUOUS
10
349.903
20
35.0397
11
349.646
21
35.2588
0
LINE
8
BLACK
6
CONTINUOUS
10
349.646
20
35.2588
11
349.366
21
35.4469
0
LINE
8
BLACK
6
CONTINUOUS
10
349.366
20
35.4469
11
349.067
21
35.6016
0
LINE
8
BLACK
6
CONTINUOUS
10
349.067
20
35.6016
11
348.751
21
35.7209
0
LINE
8
BLACK
6
CONTINUOUS
10
348.751
20
35.7209
11
348.424
21
35.8031
0
LINE
8
BLACK
6
CONTINUOUS
10
348.424
20
35.8031
11
348.09
21
35.8471
0
LINE
8
BLACK
6
CONTINUOUS
10
348.09
20
35.8471
11
347.752
21
35.8524
0
LINE
8
BLACK
6
CONTINUOUS
10
347.752
20
35.8524
11
347.417
21
35.8189
0
LINE
8
BLACK
6
CONTINUOUS
10
347.417
20
35.8189
11
347.087
21
35.747
0
LINE
8
BLACK
6
CONTINUOUS
10
347.087
20
35.747
11
346.768
21
35.6378
0
LINE
8
BLACK
6
CONTINUOUS
10
346.768
20
35.6378
11
346.463
21
35.4925
0
LINE
8
BLACK
6
CONTINUOUS
10
346.463
20
35.4925
11
346.178
21
35.3133
0
LINE
8
BLACK
6
CONTINUOUS
10
346.178
20
35.3133
11
345.914
21
35.1024
0
LINE
8
BLACK
6
CONTINUOUS
10
345.914
20
35.1024
11
345.677
21
34.8626
0
LINE
8
BLACK
6
CONTINUOUS
10
345.677
20
34.8626
11
345.469
21
34.5972
0
LINE
8
BLACK
6
CONTINUOUS
10
345.469
20
34.5972
11
345.293
21
34.3096
0
LINE
8
BLACK
6
CONTINUOUS
10
345.293
20
34.3096
11
345.151
21
34.0036
0
LINE
8
BLACK
6
CONTINUOUS
10
345.151
20
34.0036
11
345.045
21
33.6833
0
LINE
8
BLACK
6
CONTINUOUS
10
345.045
20
33.6833
11
344.976
21
33.353
0
LINE
8
BLACK
6
CONTINUOUS
10
344.976
20
33.353
11
344.946
21
33.017
0
LINE
8
BLACK
6
CONTINUOUS
10
344.946
20
33.017
11
344.955
21
32.6798
0
LINE
8
BLACK
6
CONTINUOUS
10
344.955
20
32.6798
11
345.003
21
32.3459
  0
ENDSEC
  0
EOF
