  0
SECTION
  2
HEADER
  9
$ANGBASE
  50
0.0
  9
$ANGDIR
  70
1
  9
$MEASUREMENT
  70
1
  0
ENDSEC
  0
SECTION
  2
TABLES
  0
TABLE
  2
LTYPE
  70
4
  0
LTYPE
  5
40F
  2
CONTINUOUS
  70
0
  3
Solid line
  72
65
  73
0
  40
0.0
  0
LTYPE
  5
410
  2
DASHDOT
 70
0
  3
Dash Dot ____ _ ____ _
 72
65
 73
4
 40
2.0
 49
1.25
 49
-0.25
 49
0.25
 49
-0.25
  0
LTYPE
  5
411
  2
DASHED
 70
0
  3
Dashed __ __ __ __ __
 72
65
 73
2
 40
0.75
 49
0.5
 49
-0.25
  0
LTYPE
  5
43B
  2
DOTTED
 70
0
  3
Dotted .  .  .  .
 72
65
 73
2
 40
0.2
 49
0.0
 49
-0.2
  0
ENDTAB
  0
TABLE
  2
STYLE
  70
4
  0
STYLE
  2
KICAD
  70
0
  40
0
  41
1
  42
1
  50
0
  71
0
  3
isocp.shx
  0
STYLE
  2
KICADB
  70
0
  40
0
  41
1
  42
1
  50
0
  71
0
  3
isocp.shx
  0
STYLE
  2
KICADI
  70
0
  40
0
  41
1
  42
1
  50
15
  71
0
  3
isocp.shx
  0
STYLE
  2
KICADBI
  70
0
  40
0
  41
1
  42
1
  50
15
  71
0
  3
isocp.shx
  0
ENDTAB
  0
TABLE
  2
LAYER
  70
1
  0
LAYER
  2
BLACK
  70
0
  62
7
  6
CONTINUOUS
  0
ENDTAB
  0
ENDSEC
  0
SECTION
  2
ENTITIES
0
ARC
8
BLACK
10
262.771
20
-48.6123
40
5.00021
50
-89.9991
51
-57.5654
0
LINE
8
BLACK
6
CONTINUOUS
10
-21.525
20
13.625
11
-21.525
21
26.125
0
ARC
8
BLACK
10
234.047
20
-67.6623
40
5.0002
50
-89.9992
51
-57.3525
0
ARC
8
BLACK
10
231.168
20
14.1249
40
2.4999
50
-180.002
51
-89.999
0
ARC
8
BLACK
10
23.8442
20
-89.2175
40
3
50
-140.904
51
-39.0962
0
LINE
8
BLACK
6
CONTINUOUS
10
-21.525
20
-105.312
11
-21.525
21
-91.7125
0
ARC
8
BLACK
10
269.113
20
-32.0675
40
3
50
-140.904
51
-39.0962
0
ARC
8
BLACK
10
231.168
20
32.925
40
2.50006
50
90.0013
51
180
0
ARC
8
BLACK
10
190.5
20
-91.7575
40
3
50
39.0962
51
140.904
0
LINE
8
BLACK
6
CONTINUOUS
10
231.885
20
-89.2625
11
192.955
21
-89.2625
0
ARC
8
BLACK
10
-18.525
20
5.3
40
3
50
90
51
180
0
LINE
8
BLACK
6
CONTINUOUS
10
270.816
20
-53.6125
11
350.375
21
-53.6125
0
LINE
8
BLACK
6
CONTINUOUS
10
-21.525
20
-70.2125
11
-21.525
21
-53.6125
0
LINE
8
BLACK
6
CONTINUOUS
10
-21.525
20
-91.7125
11
-2.48633
21
-91.7125
0
LINE
8
BLACK
6
CONTINUOUS
10
350.375
20
-51.1625
11
-21.525
21
-51.1625
0
LINE
8
BLACK
6
CONTINUOUS
10
350.375
20
-8.3
11
-21.525
21
-8.3
0
LINE
8
BLACK
6
CONTINUOUS
10
350.375
20
-15.5125
11
350.375
21
-32.1125
0
ARC
8
BLACK
10
194.546
20
-113.312
40
4.99987
50
89.9991
51
122.648
0
LINE
8
BLACK
6
CONTINUOUS
10
271.455
20
-34.5625
11
350.375
21
-34.5625
0
ARC
8
BLACK
10
238.093
20
-89.2175
40
3.5
50
-134.532
51
-45.4679
0
ARC
8
BLACK
10
-4.07783
20
-67.6625
40
5
50
-90
51
-57.3519
0
ARC
8
BLACK
10
347.375
20
5.3
40
3
50
-0
51
90
0
ARC
8
BLACK
10
76.2
20
-106.997
40
2.5
50
-122.648
51
-57.3519
0
ARC
8
BLACK
10
-19.525
20
13.625
40
2
50
-180
51
-90
0
ARC
8
BLACK
10
196.709
20
-86.7125
40
5
50
-140.904
51
-90
0
LINE
8
BLACK
6
CONTINUOUS
10
350.375
20
14.125
11
350.375
21
32.925
0
LINE
8
BLACK
6
CONTINUOUS
10
-21.525
20
-89.2625
11
-21.525
21
-72.6625
0
LINE
8
BLACK
6
CONTINUOUS
10
350.375
20
-34.5625
11
350.375
21
-51.1625
0
ARC
8
BLACK
10
266.794
20
-54.9425
40
2.5
50
57.565
51
122.435
0
ARC
8
BLACK
10
347.875
20
14.125
40
2.5
50
-90
51
-0
0
LINE
8
BLACK
6
CONTINUOUS
10
186.454
20
-108.312
11
80.2461
21
-108.312
0
LINE
8
BLACK
6
CONTINUOUS
10
260.523
20
-70.2125
11
249.064
21
-70.2125
0
LINE
8
BLACK
6
CONTINUOUS
10
273.198
20
-15.5125
11
350.375
21
-15.5125
0
ARC
8
BLACK
10
258.009
20
-67.6623
40
5.00021
50
-89.9991
51
-57.5654
0
ARC
8
BLACK
10
266.732
20
-70.1676
40
3.56034
50
-141.286
51
-44.487
0
ARC
8
BLACK
10
242.856
20
-54.9275
40
2.5
50
57.3519
51
122.648
0
ARC
8
BLACK
10
-0.03175
20
-73.9775
40
2.5
50
57.3519
51
122.648
0
ARC
8
BLACK
10
23.9062
20
-73.9925
40
2.5
50
57.565
51
122.435
0
LINE
8
BLACK
6
CONTINUOUS
10
196.709
20
-91.7125
11
235.639
21
-91.7125
0
ARC
8
BLACK
10
269.113
20
-32.0675
40
3.42166
50
-133.182
51
-46.8176
0
ARC
8
BLACK
10
184.291
20
-86.7125
40
5
50
-90
51
-39.0963
0
ARC
8
BLACK
10
268.178
20
-94.2623
40
4.99983
50
89.9994
51
140.905
0
ARC
8
BLACK
10
238.093
20
-89.2175
40
3
50
-140.904
51
-39.0962
0
ARC
8
BLACK
10
190.5
20
-106.997
40
2.5
50
-122.648
51
-57.3519
0
LINE
8
BLACK
6
CONTINUOUS
10
4.01433
20
-72.6625
11
19.8837
21
-72.6625
0
LINE
8
BLACK
6
CONTINUOUS
10
-5.525
20
11.625
11
-19.525
21
11.625
0
LINE
8
BLACK
6
CONTINUOUS
10
27.9288
20
-72.6625
11
234.047
21
-72.6625
0
ARC
8
BLACK
10
238.093
20
-73.9774
40
2.49994
50
37.9547
51
122.65
0
LINE
8
BLACK
6
CONTINUOUS
10
249.283
20
-15.5125
11
265.152
21
-15.5125
0
LINE
8
BLACK
6
CONTINUOUS
10
-3.525
20
26.125
11
-3.525
21
13.625
0
ARC
8
BLACK
10
72.1539
20
-113.313
40
5.0001
50
57.3524
51
89.9998
0
ARC
8
BLACK
10
69.9913
20
-86.7125
40
5
50
-90
51
-39.0963
0
LINE
8
BLACK
6
CONTINUOUS
10
228.668
20
32.925
11
228.668
21
14.125
0
ARC
8
BLACK
10
347.875
20
32.925
40
2.5
50
-0
51
90
0
ARC
8
BLACK
10
273.198
20
-10.5123
40
5.0002
50
-122.434
51
-90.0003
0
LINE
8
BLACK
6
CONTINUOUS
10
2.42283
20
-91.7125
11
21.3897
21
-91.7125
0
LINE
8
BLACK
6
CONTINUOUS
10
-21.525
20
-8.3
11
-21.525
21
5.3
0
LINE
8
BLACK
6
CONTINUOUS
10
350.375
20
-32.1125
11
275.322
21
-32.1125
0
ARC
8
BLACK
10
265.152
20
-10.5127
40
4.99979
50
-90.0008
51
-57.5644
0
LINE
8
BLACK
6
CONTINUOUS
10
262.904
20
-32.1125
11
251.446
21
-32.1125
0
ARC
8
BLACK
10
-0.03175
20
-89.2175
40
3.5
50
-134.532
51
-45.4679
0
LINE
8
BLACK
6
CONTINUOUS
10
-21.525
20
-15.5125
11
241.191
21
-15.5125
0
LINE
8
BLACK
6
CONTINUOUS
10
-19.525
20
28.125
11
-5.525
21
28.125
0
ARC
8
BLACK
10
249.064
20
-75.2123
40
4.99983
50
89.9994
51
140.905
0
ARC
8
BLACK
10
231.885
20
-94.2627
40
5.0002
50
39.0977
51
89.9994
0
ARC
8
BLACK
10
262.031
20
-73.9924
40
2.49994
50
39.7361
51
122.437
0
ARC
8
BLACK
10
261.969
20
-89.2175
40
3.5
50
-134.532
51
-45.4679
0
LINE
8
BLACK
6
CONTINUOUS
10
-21.525
20
-72.6625
11
-4.07783
21
-72.6625
0
LINE
8
BLACK
6
CONTINUOUS
10
347.875
20
35.425
11
231.168
21
35.425
0
ARC
8
BLACK
10
245.237
20
-32.0675
40
3.42166
50
-133.182
51
-46.8176
0
ARC
8
BLACK
10
19.8836
20
-67.6623
40
5.00021
50
-89.9991
51
-57.5654
0
LINE
8
BLACK
6
CONTINUOUS
10
350.375
20
-53.6125
11
350.375
21
-70.2125
0
ARC
8
BLACK
10
260.523
20
-75.2127
40
5.0002
50
39.0977
51
89.9994
0
ARC
8
BLACK
10
242.856
20
-70.2124
40
3.57109
50
-141.41
51
-43.3217
0
ARC
8
BLACK
10
242.856
20
-70.1675
40
3
50
-140.904
51
-39.0962
0
LINE
8
BLACK
6
CONTINUOUS
10
255.761
20
-89.2625
11
244.302
21
-89.2625
0
ARC
8
BLACK
10
-0.03175
20
-89.2175
40
3
50
-140.904
51
-39.0962
0
LINE
8
BLACK
6
CONTINUOUS
10
17.6355
20
-89.2625
11
6.17695
21
-89.2625
0
LINE
8
BLACK
6
CONTINUOUS
10
-21.525
20
-34.5625
11
242.895
21
-34.5625
0
ARC
8
BLACK
10
80.246
20
-113.312
40
4.99987
50
89.9991
51
122.648
0
LINE
8
BLACK
6
CONTINUOUS
10
247.579
20
-34.5625
11
266.771
21
-34.5625
0
ARC
8
BLACK
10
239.028
20
-37.1125
40
5
50
39.0963
51
90
0
ARC
8
BLACK
10
347.375
20
-105.312
40
3
50
-90
51
-0
0
LINE
8
BLACK
6
CONTINUOUS
10
72.1539
20
-108.312
11
-18.525
21
-108.312
0
ARC
8
BLACK
10
190.5
20
-91.7575
40
3.5
50
45.4679
51
134.532
0
ARC
8
BLACK
10
-6.24045
20
-94.2625
40
5
50
39.0962
51
90
0
LINE
8
BLACK
6
CONTINUOUS
10
350.375
20
5.3
11
350.375
21
-8.3
0
ARC
8
BLACK
10
246.902
20
-48.6127
40
4.9998
50
-122.649
51
-89.9996
0
LINE
8
BLACK
6
CONTINUOUS
10
239.028
20
-32.1125
11
-21.525
21
-32.1125
0
ARC
8
BLACK
10
255.76
20
-94.2627
40
5.0002
50
39.0977
51
89.9994
0
LINE
8
BLACK
6
CONTINUOUS
10
350.375
20
-70.2125
11
272.94
21
-70.2125
0
ARC
8
BLACK
10
17.6355
20
-94.2625
40
5
50
39.0963
51
90
0
LINE
8
BLACK
6
CONTINUOUS
10
-21.525
20
-53.6125
11
238.81
21
-53.6125
0
LINE
8
BLACK
6
CONTINUOUS
10
73.7454
20
-89.2625
11
30.053
21
-89.2625
0
ARC
8
BLACK
10
-5.525
20
13.625
40
2
50
-90
51
2.86479e-05
0
LINE
8
BLACK
6
CONTINUOUS
10
264.424
20
-91.7125
11
350.375
21
-91.7125
0
ARC
8
BLACK
10
266.732
20
-70.1675
40
3
50
-140.904
51
-39.0962
0
ARC
8
BLACK
10
269.175
20
-16.8425
40
2.5
50
57.565
51
122.435
0
LINE
8
BLACK
6
CONTINUOUS
10
269.272
20
-72.6625
11
350.375
21
-72.6625
0
LINE
8
BLACK
6
CONTINUOUS
10
240.548
20
-91.7125
11
259.515
21
-91.7125
0
LINE
8
BLACK
6
CONTINUOUS
10
-21.525
20
-51.1625
11
-21.525
21
-34.5625
0
LINE
8
BLACK
6
CONTINUOUS
10
-21.525
20
-32.1125
11
-21.525
21
-15.5125
0
ARC
8
BLACK
10
82.4087
20
-86.7125
40
5
50
-140.904
51
-90
0
ARC
8
BLACK
10
236.647
20
-75.2127
40
5.0002
50
39.0977
51
89.9994
0
ARC
8
BLACK
10
249.283
20
-10.5124
40
5.0001
50
-122.648
51
-90.0002
0
ARC
8
BLACK
10
76.2
20
-91.7575
40
3.5
50
45.4679
51
134.532
0
ARC
8
BLACK
10
245.237
20
-32.0675
40
3
50
-140.904
51
-39.0962
0
ARC
8
BLACK
10
261.969
20
-89.2175
40
3
50
-140.904
51
-39.0962
0
ARC
8
BLACK
10
23.8442
20
-89.2175
40
3.5
50
-134.532
51
-45.4679
0
ARC
8
BLACK
10
-19.525
20
26.125
40
2
50
-270
51
-180
0
ARC
8
BLACK
10
245.237
20
-16.8275
40
2.5
50
57.3519
51
122.648
0
LINE
8
BLACK
6
CONTINUOUS
10
188.045
20
-89.2625
11
78.6546
21
-89.2625
0
LINE
8
BLACK
6
CONTINUOUS
10
82.4087
20
-91.7125
11
184.291
21
-91.7125
0
LINE
8
BLACK
6
CONTINUOUS
10
231.168
20
11.625
11
347.875
21
11.625
0
LINE
8
BLACK
6
CONTINUOUS
10
350.375
20
-89.2625
11
268.178
21
-89.2625
0
ARC
8
BLACK
10
6.17696
20
-94.2625
40
5.00001
50
90.0001
51
140.904
0
ARC
8
BLACK
10
186.454
20
-113.313
40
5.0001
50
57.3524
51
89.9998
0
LINE
8
BLACK
6
CONTINUOUS
10
350.375
20
-91.7125
11
350.375
21
-105.312
0
LINE
8
BLACK
6
CONTINUOUS
10
236.647
20
-70.2125
11
-21.525
21
-70.2125
0
LINE
8
BLACK
6
CONTINUOUS
10
246.902
20
-53.6125
11
262.771
21
-53.6125
0
LINE
8
BLACK
6
CONTINUOUS
10
350.375
20
-72.6625
11
350.375
21
-89.2625
0
ARC
8
BLACK
10
30.053
20
-94.2625
40
5.00001
50
90.0001
51
140.904
0
ARC
8
BLACK
10
275.322
20
-37.1125
40
5
50
90
51
140.904
0
ARC
8
BLACK
10
244.302
20
-94.2623
40
4.99983
50
89.9994
51
140.905
0
ARC
8
BLACK
10
27.9288
20
-67.6627
40
4.9998
50
-122.436
51
-89.9997
0
ARC
8
BLACK
10
262.904
20
-37.1125
40
5
50
39.0963
51
90
0
ARC
8
BLACK
10
272.94
20
-75.2123
40
4.99983
50
89.9994
51
140.905
0
ARC
8
BLACK
10
241.191
20
-10.5126
40
4.99987
50
-90.0009
51
-57.3521
0
LINE
8
BLACK
6
CONTINUOUS
10
-18.525
20
8.3
11
347.375
21
8.3
0
ARC
8
BLACK
10
251.446
20
-37.1125
40
5
50
90
51
140.904
0
ARC
8
BLACK
10
4.01433
20
-67.6625
40
4.99998
50
-122.648
51
-90
0
LINE
8
BLACK
6
CONTINUOUS
10
245.454
20
-72.6625
11
258.009
21
-72.6625
0
LINE
8
BLACK
6
CONTINUOUS
10
347.375
20
-108.312
11
194.546
21
-108.312
0
ARC
8
BLACK
10
270.816
20
-48.6127
40
4.9998
50
-122.436
51
-89.9997
0
ARC
8
BLACK
10
238.81
20
-48.6123
40
5.0002
50
-89.9992
51
-57.3525
0
ARC
8
BLACK
10
-18.525
20
-105.312
40
3
50
-180
51
-90
0
ARC
8
BLACK
10
76.2
20
-91.7575
40
3
50
39.0962
51
140.904
0
ARC
8
BLACK
10
-5.525
20
26.125
40
2
50
-2.86479e-05
51
90
0
LINE
8
BLACK
6
CONTINUOUS
10
-6.24045
20
-89.2625
11
-21.525
21
-89.2625
0
LINE
8
BLACK
6
CONTINUOUS
10
26.2988
20
-91.7125
11
69.9913
21
-91.7125
  0
ENDSEC
  0
EOF
