  0
SECTION
  2
HEADER
  9
$ANGBASE
  50
0.0
  9
$ANGDIR
  70
1
  9
$MEASUREMENT
  70
1
  0
ENDSEC
  0
SECTION
  2
TABLES
  0
TABLE
  2
LTYPE
  70
4
  0
LTYPE
  5
40F
  2
CONTINUOUS
  70
0
  3
Solid line
  72
65
  73
0
  40
0.0
  0
LTYPE
  5
410
  2
DASHDOT
 70
0
  3
Dash Dot ____ _ ____ _
 72
65
 73
4
 40
2.0
 49
1.25
 49
-0.25
 49
0.25
 49
-0.25
  0
LTYPE
  5
411
  2
DASHED
 70
0
  3
Dashed __ __ __ __ __
 72
65
 73
2
 40
0.75
 49
0.5
 49
-0.25
  0
LTYPE
  5
43B
  2
DOTTED
 70
0
  3
Dotted .  .  .  .
 72
65
 73
2
 40
0.2
 49
0.0
 49
-0.2
  0
ENDTAB
  0
TABLE
  2
STYLE
  70
4
  0
STYLE
  2
KICAD
  70
0
  40
0
  41
1
  42
1
  50
0
  71
0
  3
isocp.shx
  0
STYLE
  2
KICADB
  70
0
  40
0
  41
1
  42
1
  50
0
  71
0
  3
isocp.shx
  0
STYLE
  2
KICADI
  70
0
  40
0
  41
1
  42
1
  50
15
  71
0
  3
isocp.shx
  0
STYLE
  2
KICADBI
  70
0
  40
0
  41
1
  42
1
  50
15
  71
0
  3
isocp.shx
  0
ENDTAB
  0
TABLE
  2
LAYER
  70
1
  0
LAYER
  2
BLACK
  70
0
  62
7
  6
CONTINUOUS
  0
ENDTAB
  0
ENDSEC
  0
SECTION
  2
ENTITIES
0
LINE
8
BLACK
6
CONTINUOUS
10
-14.525
20
17.625
11
-10.525
21
17.625
0
LINE
8
BLACK
6
CONTINUOUS
10
-9.525
20
16.125
11
-9.525
21
12.125
0
LINE
8
BLACK
6
CONTINUOUS
10
-10.525
20
17.625
11
-10.525
21
16.125
0
LINE
8
BLACK
6
CONTINUOUS
10
-9.525
20
12.125
11
-15.525
21
12.125
0
LINE
8
BLACK
6
CONTINUOUS
10
-15.525
20
12.125
11
-15.525
21
16.125
0
LINE
8
BLACK
6
CONTINUOUS
10
-14.525
20
16.125
11
-14.525
21
17.625
0
LINE
8
BLACK
6
CONTINUOUS
10
-15.525
20
16.125
11
-9.525
21
16.125
0
LINE
8
BLACK
6
CONTINUOUS
10
-16.144
20
18.789
11
-14.744
21
18.789
0
LINE
8
BLACK
6
CONTINUOUS
10
-16.144
20
18.789
11
-16.144
21
16.289
0
LINE
8
BLACK
6
CONTINUOUS
10
-14.744
20
16.289
11
-16.144
21
16.289
0
LINE
8
BLACK
6
CONTINUOUS
10
-14.744
20
16.289
11
-14.744
21
18.789
0
LINE
8
BLACK
6
CONTINUOUS
10
-8.775
20
16.289
11
-8.775
21
18.789
0
LINE
8
BLACK
6
CONTINUOUS
10
-10.175
20
18.789
11
-10.175
21
16.289
0
LINE
8
BLACK
6
CONTINUOUS
10
-10.175
20
18.789
11
-8.775
21
18.789
0
LINE
8
BLACK
6
CONTINUOUS
10
-8.775
20
16.289
11
-10.175
21
16.289
0
CIRCLE
8
BLACK
10
253.365
20
-21.2725
40
1.524
0
CIRCLE
8
BLACK
10
259.715
20
-18.7325
40
1.524
0
ARC
8
BLACK
10
256.775
20
-23.2125
40
2
50
-270
51
-180
0
ARC
8
BLACK
10
253.175
20
-19.3125
40
2.5
50
90
51
180
0
LINE
8
BLACK
6
CONTINUOUS
10
261.747
20
-17.4625
11
264.287
21
-17.4625
0
LINE
8
BLACK
6
CONTINUOUS
10
251.333
20
-20.0025
11
251.333
21
-22.5425
0
LINE
8
BLACK
6
CONTINUOUS
10
256.775
20
-21.2125
11
262.475
21
-21.2125
0
LINE
8
BLACK
6
CONTINUOUS
10
248.793
20
-22.5425
11
248.793
21
-20.0025
0
LINE
8
BLACK
6
CONTINUOUS
10
262.475
20
-16.8125
11
253.175
21
-16.8125
0
LINE
8
BLACK
6
CONTINUOUS
10
264.287
20
-20.0025
11
261.747
21
-20.0025
0
LINE
8
BLACK
6
CONTINUOUS
10
250.675
20
-23.2125
11
254.775
21
-23.2125
0
LINE
8
BLACK
6
CONTINUOUS
10
264.287
20
-17.4625
11
264.287
21
-20.0025
0
LINE
8
BLACK
6
CONTINUOUS
10
250.675
20
-19.3125
11
250.675
21
-23.2125
0
LINE
8
BLACK
6
CONTINUOUS
10
248.793
20
-20.0025
11
251.333
21
-20.0025
0
LINE
8
BLACK
6
CONTINUOUS
10
251.333
20
-22.5425
11
248.793
21
-22.5425
0
LINE
8
BLACK
6
CONTINUOUS
10
261.747
20
-20.0025
11
261.747
21
-17.4625
0
LINE
8
BLACK
6
CONTINUOUS
10
262.475
20
-16.8125
11
262.475
21
-21.2125
0
CIRCLE
8
BLACK
10
221.615
20
-37.7825
40
1.524
0
CIRCLE
8
BLACK
10
215.265
20
-40.3225
40
1.524
0
ARC
8
BLACK
10
215.075
20
-38.3625
40
2.5
50
90
51
180
0
ARC
8
BLACK
10
218.675
20
-42.2625
40
2
50
-270
51
-180
0
LINE
8
BLACK
6
CONTINUOUS
10
226.187
20
-39.0525
11
223.647
21
-39.0525
0
LINE
8
BLACK
6
CONTINUOUS
10
224.375
20
-35.8625
11
224.375
21
-40.2625
0
LINE
8
BLACK
6
CONTINUOUS
10
213.233
20
-41.5925
11
213.233
21
-39.0525
0
LINE
8
BLACK
6
CONTINUOUS
10
218.675
20
-40.2625
11
224.375
21
-40.2625
0
LINE
8
BLACK
6
CONTINUOUS
10
210.693
20
-39.0525
11
210.693
21
-41.5925
0
LINE
8
BLACK
6
CONTINUOUS
10
213.233
20
-39.0525
11
210.693
21
-39.0525
0
LINE
8
BLACK
6
CONTINUOUS
10
223.647
20
-39.0525
11
223.647
21
-36.5125
0
LINE
8
BLACK
6
CONTINUOUS
10
223.647
20
-36.5125
11
226.187
21
-36.5125
0
LINE
8
BLACK
6
CONTINUOUS
10
212.575
20
-38.3625
11
212.575
21
-42.2625
0
LINE
8
BLACK
6
CONTINUOUS
10
212.575
20
-42.2625
11
216.675
21
-42.2625
0
LINE
8
BLACK
6
CONTINUOUS
10
224.375
20
-35.8625
11
215.075
21
-35.8625
0
LINE
8
BLACK
6
CONTINUOUS
10
226.187
20
-36.5125
11
226.187
21
-39.0525
0
LINE
8
BLACK
6
CONTINUOUS
10
210.693
20
-41.5925
11
213.233
21
-41.5925
0
CIRCLE
8
BLACK
10
39.0525
20
-78.4225
40
1.524
0
CIRCLE
8
BLACK
10
45.4025
20
-75.8825
40
1.524
0
ARC
8
BLACK
10
38.8625
20
-76.4625
40
2.5
50
90
51
180
0
ARC
8
BLACK
10
42.4625
20
-80.3625
40
2
50
-270
51
-180
0
LINE
8
BLACK
6
CONTINUOUS
10
34.4805
20
-77.1525
11
34.4805
21
-79.6925
0
LINE
8
BLACK
6
CONTINUOUS
10
47.4345
20
-74.6125
11
49.9745
21
-74.6125
0
LINE
8
BLACK
6
CONTINUOUS
10
34.4805
20
-79.6925
11
37.0205
21
-79.6925
0
LINE
8
BLACK
6
CONTINUOUS
10
49.9745
20
-77.1525
11
47.4345
21
-77.1525
0
LINE
8
BLACK
6
CONTINUOUS
10
36.3625
20
-76.4625
11
36.3625
21
-80.3625
0
LINE
8
BLACK
6
CONTINUOUS
10
42.4625
20
-78.3625
11
48.1625
21
-78.3625
0
LINE
8
BLACK
6
CONTINUOUS
10
37.0205
20
-77.1525
11
34.4805
21
-77.1525
0
LINE
8
BLACK
6
CONTINUOUS
10
47.4345
20
-77.1525
11
47.4345
21
-74.6125
0
LINE
8
BLACK
6
CONTINUOUS
10
48.1625
20
-73.9625
11
48.1625
21
-78.3625
0
LINE
8
BLACK
6
CONTINUOUS
10
49.9745
20
-74.6125
11
49.9745
21
-77.1525
0
LINE
8
BLACK
6
CONTINUOUS
10
36.3625
20
-80.3625
11
40.4625
21
-80.3625
0
LINE
8
BLACK
6
CONTINUOUS
10
37.0205
20
-79.6925
11
37.0205
21
-77.1525
0
LINE
8
BLACK
6
CONTINUOUS
10
48.1625
20
-73.9625
11
38.8625
21
-73.9625
0
CIRCLE
8
BLACK
10
7.3025
20
-37.7825
40
1.524
0
CIRCLE
8
BLACK
10
0.9525
20
-40.3225
40
1.524
0
ARC
8
BLACK
10
4.3625
20
-42.2625
40
2
50
-270
51
-180
0
ARC
8
BLACK
10
0.7625
20
-38.3625
40
2.5
50
90
51
180
0
LINE
8
BLACK
6
CONTINUOUS
10
-1.0795
20
-41.5925
11
-3.6195
21
-41.5925
0
LINE
8
BLACK
6
CONTINUOUS
10
4.3625
20
-40.2625
11
10.0625
21
-40.2625
0
LINE
8
BLACK
6
CONTINUOUS
10
-3.6195
20
-41.5925
11
-3.6195
21
-39.0525
0
LINE
8
BLACK
6
CONTINUOUS
10
11.8745
20
-39.0525
11
9.3345
21
-39.0525
0
LINE
8
BLACK
6
CONTINUOUS
10
10.0625
20
-35.8625
11
10.0625
21
-40.2625
0
LINE
8
BLACK
6
CONTINUOUS
10
10.0625
20
-35.8625
11
0.7625
21
-35.8625
0
LINE
8
BLACK
6
CONTINUOUS
10
9.3345
20
-39.0525
11
9.3345
21
-36.5125
0
LINE
8
BLACK
6
CONTINUOUS
10
-1.0795
20
-39.0525
11
-1.0795
21
-41.5925
0
LINE
8
BLACK
6
CONTINUOUS
10
9.3345
20
-36.5125
11
11.8745
21
-36.5125
0
LINE
8
BLACK
6
CONTINUOUS
10
11.8745
20
-36.5125
11
11.8745
21
-39.0525
0
LINE
8
BLACK
6
CONTINUOUS
10
-1.7375
20
-38.3625
11
-1.7375
21
-42.2625
0
LINE
8
BLACK
6
CONTINUOUS
10
-3.6195
20
-39.0525
11
-1.0795
21
-39.0525
0
LINE
8
BLACK
6
CONTINUOUS
10
-1.7375
20
-42.2625
11
2.3625
21
-42.2625
0
CIRCLE
8
BLACK
10
24.765
20
-40.3225
40
1.524
0
CIRCLE
8
BLACK
10
31.115
20
-37.7825
40
1.524
0
ARC
8
BLACK
10
24.575
20
-38.3625
40
2.5
50
90
51
180
0
ARC
8
BLACK
10
28.175
20
-42.2625
40
2
50
-270
51
-180
0
LINE
8
BLACK
6
CONTINUOUS
10
33.875
20
-35.8625
11
33.875
21
-40.2625
0
LINE
8
BLACK
6
CONTINUOUS
10
33.147
20
-36.5125
11
35.687
21
-36.5125
0
LINE
8
BLACK
6
CONTINUOUS
10
22.733
20
-39.0525
11
20.193
21
-39.0525
0
LINE
8
BLACK
6
CONTINUOUS
10
33.875
20
-35.8625
11
24.575
21
-35.8625
0
LINE
8
BLACK
6
CONTINUOUS
10
35.687
20
-39.0525
11
33.147
21
-39.0525
0
LINE
8
BLACK
6
CONTINUOUS
10
22.075
20
-42.2625
11
26.175
21
-42.2625
0
LINE
8
BLACK
6
CONTINUOUS
10
20.193
20
-41.5925
11
22.733
21
-41.5925
0
LINE
8
BLACK
6
CONTINUOUS
10
28.175
20
-40.2625
11
33.875
21
-40.2625
0
LINE
8
BLACK
6
CONTINUOUS
10
20.193
20
-39.0525
11
20.193
21
-41.5925
0
LINE
8
BLACK
6
CONTINUOUS
10
22.075
20
-38.3625
11
22.075
21
-42.2625
0
LINE
8
BLACK
6
CONTINUOUS
10
33.147
20
-39.0525
11
33.147
21
-36.5125
0
LINE
8
BLACK
6
CONTINUOUS
10
35.687
20
-36.5125
11
35.687
21
-39.0525
0
LINE
8
BLACK
6
CONTINUOUS
10
22.733
20
-41.5925
11
22.733
21
-39.0525
0
CIRCLE
8
BLACK
10
258.127
20
-97.4725
40
1.524
0
CIRCLE
8
BLACK
10
264.477
20
-94.9325
40
1.524
0
ARC
8
BLACK
10
257.938
20
-95.5125
40
2.5
50
90
51
180
0
ARC
8
BLACK
10
261.537
20
-99.4125
40
2
50
-270
51
-180
0
LINE
8
BLACK
6
CONTINUOUS
10
256.096
20
-98.7425
11
253.555
21
-98.7425
0
LINE
8
BLACK
6
CONTINUOUS
10
267.238
20
-93.0125
11
257.938
21
-93.0125
0
LINE
8
BLACK
6
CONTINUOUS
10
255.438
20
-95.5125
11
255.438
21
-99.4125
0
LINE
8
BLACK
6
CONTINUOUS
10
269.049
20
-96.2025
11
266.51
21
-96.2025
0
LINE
8
BLACK
6
CONTINUOUS
10
269.049
20
-93.6625
11
269.049
21
-96.2025
0
LINE
8
BLACK
6
CONTINUOUS
10
253.555
20
-98.7425
11
253.555
21
-96.2025
0
LINE
8
BLACK
6
CONTINUOUS
10
266.51
20
-96.2025
11
266.51
21
-93.6625
0
LINE
8
BLACK
6
CONTINUOUS
10
256.096
20
-96.2025
11
256.096
21
-98.7425
0
LINE
8
BLACK
6
CONTINUOUS
10
261.537
20
-97.4125
11
267.238
21
-97.4125
0
LINE
8
BLACK
6
CONTINUOUS
10
253.555
20
-96.2025
11
256.096
21
-96.2025
0
LINE
8
BLACK
6
CONTINUOUS
10
266.51
20
-93.6625
11
269.049
21
-93.6625
0
LINE
8
BLACK
6
CONTINUOUS
10
255.438
20
-99.4125
11
259.537
21
-99.4125
0
LINE
8
BLACK
6
CONTINUOUS
10
267.238
20
-93.0125
11
267.238
21
-97.4125
0
CIRCLE
8
BLACK
10
72.39
20
-21.2725
40
1.524
0
CIRCLE
8
BLACK
10
78.74
20
-18.7325
40
1.524
0
ARC
8
BLACK
10
72.2
20
-19.3125
40
2.5
50
90
51
180
0
ARC
8
BLACK
10
75.8
20
-23.2125
40
2
50
-270
51
-180
0
LINE
8
BLACK
6
CONTINUOUS
10
67.818
20
-20.0025
11
67.818
21
-22.5425
0
LINE
8
BLACK
6
CONTINUOUS
10
81.5
20
-16.8125
11
72.2
21
-16.8125
0
LINE
8
BLACK
6
CONTINUOUS
10
80.772
20
-17.4625
11
83.312
21
-17.4625
0
LINE
8
BLACK
6
CONTINUOUS
10
67.818
20
-22.5425
11
70.358
21
-22.5425
0
LINE
8
BLACK
6
CONTINUOUS
10
70.358
20
-20.0025
11
67.818
21
-20.0025
0
LINE
8
BLACK
6
CONTINUOUS
10
75.8
20
-21.2125
11
81.5
21
-21.2125
0
LINE
8
BLACK
6
CONTINUOUS
10
80.772
20
-20.0025
11
80.772
21
-17.4625
0
LINE
8
BLACK
6
CONTINUOUS
10
69.7
20
-19.3125
11
69.7
21
-23.2125
0
LINE
8
BLACK
6
CONTINUOUS
10
70.358
20
-22.5425
11
70.358
21
-20.0025
0
LINE
8
BLACK
6
CONTINUOUS
10
83.312
20
-17.4625
11
83.312
21
-20.0025
0
LINE
8
BLACK
6
CONTINUOUS
10
81.5
20
-16.8125
11
81.5
21
-21.2125
0
LINE
8
BLACK
6
CONTINUOUS
10
69.7
20
-23.2125
11
73.8
21
-23.2125
0
LINE
8
BLACK
6
CONTINUOUS
10
83.312
20
-20.0025
11
80.772
21
-20.0025
0
CIRCLE
8
BLACK
10
143.827
20
-59.3725
40
1.524
0
CIRCLE
8
BLACK
10
150.177
20
-56.8325
40
1.524
0
ARC
8
BLACK
10
143.637
20
-57.4125
40
2.5
50
90
51
180
0
ARC
8
BLACK
10
147.237
20
-61.3125
40
2
50
-270
51
-180
0
LINE
8
BLACK
6
CONTINUOUS
10
147.237
20
-59.3125
11
152.938
21
-59.3125
0
LINE
8
BLACK
6
CONTINUOUS
10
141.796
20
-58.1025
11
139.255
21
-58.1025
0
LINE
8
BLACK
6
CONTINUOUS
10
152.938
20
-54.9125
11
143.637
21
-54.9125
0
LINE
8
BLACK
6
CONTINUOUS
10
152.938
20
-54.9125
11
152.938
21
-59.3125
0
LINE
8
BLACK
6
CONTINUOUS
10
141.796
20
-60.6425
11
141.796
21
-58.1025
0
LINE
8
BLACK
6
CONTINUOUS
10
152.209
20
-58.1025
11
152.209
21
-55.5625
0
LINE
8
BLACK
6
CONTINUOUS
10
154.749
20
-58.1025
11
152.209
21
-58.1025
0
LINE
8
BLACK
6
CONTINUOUS
10
154.749
20
-55.5625
11
154.749
21
-58.1025
0
LINE
8
BLACK
6
CONTINUOUS
10
139.255
20
-60.6425
11
141.796
21
-60.6425
0
LINE
8
BLACK
6
CONTINUOUS
10
141.137
20
-57.4125
11
141.137
21
-61.3125
0
LINE
8
BLACK
6
CONTINUOUS
10
139.255
20
-58.1025
11
139.255
21
-60.6425
0
LINE
8
BLACK
6
CONTINUOUS
10
141.137
20
-61.3125
11
145.237
21
-61.3125
0
LINE
8
BLACK
6
CONTINUOUS
10
152.209
20
-55.5625
11
154.749
21
-55.5625
0
CIRCLE
8
BLACK
10
220.028
20
-59.3725
40
1.524
0
CIRCLE
8
BLACK
10
226.377
20
-56.8325
40
1.524
0
ARC
8
BLACK
10
219.837
20
-57.4125
40
2.5
50
90
51
180
0
ARC
8
BLACK
10
223.437
20
-61.3125
40
2
50
-270
51
-180
0
LINE
8
BLACK
6
CONTINUOUS
10
230.95
20
-55.5625
11
230.95
21
-58.1025
0
LINE
8
BLACK
6
CONTINUOUS
10
228.409
20
-58.1025
11
228.409
21
-55.5625
0
LINE
8
BLACK
6
CONTINUOUS
10
217.995
20
-60.6425
11
217.995
21
-58.1025
0
LINE
8
BLACK
6
CONTINUOUS
10
217.337
20
-57.4125
11
217.337
21
-61.3125
0
LINE
8
BLACK
6
CONTINUOUS
10
223.438
20
-59.3125
11
229.137
21
-59.3125
0
LINE
8
BLACK
6
CONTINUOUS
10
229.137
20
-54.9125
11
229.137
21
-59.3125
0
LINE
8
BLACK
6
CONTINUOUS
10
215.456
20
-60.6425
11
217.995
21
-60.6425
0
LINE
8
BLACK
6
CONTINUOUS
10
228.409
20
-55.5625
11
230.95
21
-55.5625
0
LINE
8
BLACK
6
CONTINUOUS
10
230.95
20
-58.1025
11
228.409
21
-58.1025
0
LINE
8
BLACK
6
CONTINUOUS
10
217.995
20
-58.1025
11
215.456
21
-58.1025
0
LINE
8
BLACK
6
CONTINUOUS
10
215.456
20
-58.1025
11
215.456
21
-60.6425
0
LINE
8
BLACK
6
CONTINUOUS
10
229.137
20
-54.9125
11
219.837
21
-54.9125
0
LINE
8
BLACK
6
CONTINUOUS
10
217.337
20
-61.3125
11
221.438
21
-61.3125
0
CIRCLE
8
BLACK
10
264.477
20
-37.7825
40
1.524
0
CIRCLE
8
BLACK
10
258.127
20
-40.3225
40
1.524
0
ARC
8
BLACK
10
261.537
20
-42.2625
40
2
50
-270
51
-180
0
ARC
8
BLACK
10
257.938
20
-38.3625
40
2.5
50
90
51
180
0
LINE
8
BLACK
6
CONTINUOUS
10
256.096
20
-41.5925
11
253.555
21
-41.5925
0
LINE
8
BLACK
6
CONTINUOUS
10
266.51
20
-36.5125
11
269.049
21
-36.5125
0
LINE
8
BLACK
6
CONTINUOUS
10
253.555
20
-39.0525
11
256.096
21
-39.0525
0
LINE
8
BLACK
6
CONTINUOUS
10
269.049
20
-36.5125
11
269.049
21
-39.0525
0
LINE
8
BLACK
6
CONTINUOUS
10
255.438
20
-38.3625
11
255.438
21
-42.2625
0
LINE
8
BLACK
6
CONTINUOUS
10
267.238
20
-35.8625
11
267.238
21
-40.2625
0
LINE
8
BLACK
6
CONTINUOUS
10
256.096
20
-39.0525
11
256.096
21
-41.5925
0
LINE
8
BLACK
6
CONTINUOUS
10
253.555
20
-41.5925
11
253.555
21
-39.0525
0
LINE
8
BLACK
6
CONTINUOUS
10
261.537
20
-40.2625
11
267.238
21
-40.2625
0
LINE
8
BLACK
6
CONTINUOUS
10
267.238
20
-35.8625
11
257.938
21
-35.8625
0
LINE
8
BLACK
6
CONTINUOUS
10
255.438
20
-42.2625
11
259.537
21
-42.2625
0
LINE
8
BLACK
6
CONTINUOUS
10
266.51
20
-39.0525
11
266.51
21
-36.5125
0
LINE
8
BLACK
6
CONTINUOUS
10
269.049
20
-39.0525
11
266.51
21
-39.0525
0
CIRCLE
8
BLACK
10
331.39
20
5.08
40
1.524
0
CIRCLE
8
BLACK
10
325.04
20
2.54
40
1.524
0
ARC
8
BLACK
10
328.45
20
0.600001
40
2
50
-270
51
-180
0
ARC
8
BLACK
10
324.85
20
4.5
40
2.5
50
90
51
180
0
LINE
8
BLACK
6
CONTINUOUS
10
320.468
20
1.27
11
323.008
21
1.27
0
LINE
8
BLACK
6
CONTINUOUS
10
333.422
20
6.35
11
335.962
21
6.35
0
LINE
8
BLACK
6
CONTINUOUS
10
328.45
20
2.6
11
334.15
21
2.6
0
LINE
8
BLACK
6
CONTINUOUS
10
323.008
20
3.81
11
320.468
21
3.81
0
LINE
8
BLACK
6
CONTINUOUS
10
320.468
20
3.81
11
320.468
21
1.27
0
LINE
8
BLACK
6
CONTINUOUS
10
322.35
20
0.6
11
326.45
21
0.6
0
LINE
8
BLACK
6
CONTINUOUS
10
323.008
20
1.27
11
323.008
21
3.81
0
LINE
8
BLACK
6
CONTINUOUS
10
334.15
20
7
11
334.15
21
2.6
0
LINE
8
BLACK
6
CONTINUOUS
10
335.962
20
3.81
11
333.422
21
3.81
0
LINE
8
BLACK
6
CONTINUOUS
10
334.15
20
7
11
324.85
21
7
0
LINE
8
BLACK
6
CONTINUOUS
10
335.962
20
6.35
11
335.962
21
3.81
0
LINE
8
BLACK
6
CONTINUOUS
10
322.35
20
4.5
11
322.35
21
0.6
0
LINE
8
BLACK
6
CONTINUOUS
10
333.422
20
3.81
11
333.422
21
6.35
0
CIRCLE
8
BLACK
10
7.3025
20
-94.9325
40
1.524
0
CIRCLE
8
BLACK
10
0.9525
20
-97.4725
40
1.524
0
ARC
8
BLACK
10
4.3625
20
-99.4125
40
2
50
-270
51
-180
0
ARC
8
BLACK
10
0.7625
20
-95.5125
40
2.5
50
90
51
180
0
LINE
8
BLACK
6
CONTINUOUS
10
10.0625
20
-93.0125
11
0.7625
21
-93.0125
0
LINE
8
BLACK
6
CONTINUOUS
10
-3.6195
20
-98.7425
11
-3.6195
21
-96.2025
0
LINE
8
BLACK
6
CONTINUOUS
10
9.3345
20
-93.6625
11
11.8745
21
-93.6625
0
LINE
8
BLACK
6
CONTINUOUS
10
-1.7375
20
-95.5125
11
-1.7375
21
-99.4125
0
LINE
8
BLACK
6
CONTINUOUS
10
11.8745
20
-96.2025
11
9.3345
21
-96.2025
0
LINE
8
BLACK
6
CONTINUOUS
10
10.0625
20
-93.0125
11
10.0625
21
-97.4125
0
LINE
8
BLACK
6
CONTINUOUS
10
11.8745
20
-93.6625
11
11.8745
21
-96.2025
0
LINE
8
BLACK
6
CONTINUOUS
10
9.3345
20
-96.2025
11
9.3345
21
-93.6625
0
LINE
8
BLACK
6
CONTINUOUS
10
-3.6195
20
-96.2025
11
-1.0795
21
-96.2025
0
LINE
8
BLACK
6
CONTINUOUS
10
4.3625
20
-97.4125
11
10.0625
21
-97.4125
0
LINE
8
BLACK
6
CONTINUOUS
10
-1.7375
20
-99.4125
11
2.3625
21
-99.4125
0
LINE
8
BLACK
6
CONTINUOUS
10
-1.0795
20
-96.2025
11
-1.0795
21
-98.7425
0
LINE
8
BLACK
6
CONTINUOUS
10
-1.0795
20
-98.7425
11
-3.6195
21
-98.7425
0
CIRCLE
8
BLACK
10
83.5025
20
-75.8825
40
1.524
0
CIRCLE
8
BLACK
10
77.1525
20
-78.4225
40
1.524
0
ARC
8
BLACK
10
80.5625
20
-80.3625
40
2
50
-270
51
-180
0
ARC
8
BLACK
10
76.9625
20
-76.4625
40
2.5
50
90
51
180
0
LINE
8
BLACK
6
CONTINUOUS
10
74.4625
20
-80.3625
11
78.5625
21
-80.3625
0
LINE
8
BLACK
6
CONTINUOUS
10
75.1205
20
-77.1525
11
72.5805
21
-77.1525
0
LINE
8
BLACK
6
CONTINUOUS
10
75.1205
20
-79.6925
11
75.1205
21
-77.1525
0
LINE
8
BLACK
6
CONTINUOUS
10
80.5625
20
-78.3625
11
86.2625
21
-78.3625
0
LINE
8
BLACK
6
CONTINUOUS
10
85.5345
20
-74.6125
11
88.0745
21
-74.6125
0
LINE
8
BLACK
6
CONTINUOUS
10
86.2625
20
-73.9625
11
86.2625
21
-78.3625
0
LINE
8
BLACK
6
CONTINUOUS
10
72.5805
20
-77.1525
11
72.5805
21
-79.6925
0
LINE
8
BLACK
6
CONTINUOUS
10
88.0745
20
-77.1525
11
85.5345
21
-77.1525
0
LINE
8
BLACK
6
CONTINUOUS
10
72.5805
20
-79.6925
11
75.1205
21
-79.6925
0
LINE
8
BLACK
6
CONTINUOUS
10
74.4625
20
-76.4625
11
74.4625
21
-80.3625
0
LINE
8
BLACK
6
CONTINUOUS
10
88.0745
20
-74.6125
11
88.0745
21
-77.1525
0
LINE
8
BLACK
6
CONTINUOUS
10
85.5345
20
-77.1525
11
85.5345
21
-74.6125
0
LINE
8
BLACK
6
CONTINUOUS
10
86.2625
20
-73.9625
11
76.9625
21
-73.9625
0
CIRCLE
8
BLACK
10
10.9537
20
-64.4525
40
1.524
0
CIRCLE
8
BLACK
10
4.60375
20
-66.9925
40
1.524
0
ARC
8
BLACK
10
11.1437
20
-66.4125
40
2.5
50
-90
51
-0
0
ARC
8
BLACK
10
7.54375
20
-62.5125
40
2
50
-90
51
2.86479e-05
0
LINE
8
BLACK
6
CONTINUOUS
10
2.57175
20
-68.2625
11
0.03175
21
-68.2625
0
LINE
8
BLACK
6
CONTINUOUS
10
13.6437
20
-62.5125
11
9.54375
21
-62.5125
0
LINE
8
BLACK
6
CONTINUOUS
10
15.5257
20
-63.1825
11
15.5257
21
-65.7225
0
LINE
8
BLACK
6
CONTINUOUS
10
13.6437
20
-66.4125
11
13.6437
21
-62.5125
0
LINE
8
BLACK
6
CONTINUOUS
10
2.57175
20
-65.7225
11
2.57175
21
-68.2625
0
LINE
8
BLACK
6
CONTINUOUS
10
15.5257
20
-65.7225
11
12.9857
21
-65.7225
0
LINE
8
BLACK
6
CONTINUOUS
10
0.03175
20
-65.7225
11
2.57175
21
-65.7225
0
LINE
8
BLACK
6
CONTINUOUS
10
1.84375
20
-68.9125
11
11.1437
21
-68.9125
0
LINE
8
BLACK
6
CONTINUOUS
10
12.9857
20
-65.7225
11
12.9857
21
-63.1825
0
LINE
8
BLACK
6
CONTINUOUS
10
1.84375
20
-68.9125
11
1.84375
21
-64.5125
0
LINE
8
BLACK
6
CONTINUOUS
10
12.9857
20
-63.1825
11
15.5257
21
-63.1825
0
LINE
8
BLACK
6
CONTINUOUS
10
7.54375
20
-64.5125
11
1.84375
21
-64.5125
0
LINE
8
BLACK
6
CONTINUOUS
10
0.03175
20
-68.2625
11
0.03175
21
-65.7225
0
CIRCLE
8
BLACK
10
312.34
20
-37.7825
40
1.524
0
CIRCLE
8
BLACK
10
305.99
20
-40.3225
40
1.524
0
ARC
8
BLACK
10
309.4
20
-42.2625
40
2
50
-270
51
-180
0
ARC
8
BLACK
10
305.8
20
-38.3625
40
2.5
50
90
51
180
0
LINE
8
BLACK
6
CONTINUOUS
10
303.3
20
-38.3625
11
303.3
21
-42.2625
0
LINE
8
BLACK
6
CONTINUOUS
10
303.3
20
-42.2625
11
307.4
21
-42.2625
0
LINE
8
BLACK
6
CONTINUOUS
10
314.372
20
-36.5125
11
316.912
21
-36.5125
0
LINE
8
BLACK
6
CONTINUOUS
10
303.958
20
-41.5925
11
303.958
21
-39.0525
0
LINE
8
BLACK
6
CONTINUOUS
10
315.1
20
-35.8625
11
315.1
21
-40.2625
0
LINE
8
BLACK
6
CONTINUOUS
10
315.1
20
-35.8625
11
305.8
21
-35.8625
0
LINE
8
BLACK
6
CONTINUOUS
10
301.418
20
-41.5925
11
303.958
21
-41.5925
0
LINE
8
BLACK
6
CONTINUOUS
10
314.372
20
-39.0525
11
314.372
21
-36.5125
0
LINE
8
BLACK
6
CONTINUOUS
10
303.958
20
-39.0525
11
301.418
21
-39.0525
0
LINE
8
BLACK
6
CONTINUOUS
10
301.418
20
-39.0525
11
301.418
21
-41.5925
0
LINE
8
BLACK
6
CONTINUOUS
10
316.912
20
-36.5125
11
316.912
21
-39.0525
0
LINE
8
BLACK
6
CONTINUOUS
10
309.4
20
-40.2625
11
315.1
21
-40.2625
0
LINE
8
BLACK
6
CONTINUOUS
10
316.912
20
-39.0525
11
314.372
21
-39.0525
0
CIRCLE
8
BLACK
10
293.29
20
5.08
40
1.524
0
CIRCLE
8
BLACK
10
286.94
20
2.54
40
1.524
0
ARC
8
BLACK
10
286.75
20
4.5
40
2.5
50
90
51
180
0
ARC
8
BLACK
10
290.35
20
0.600001
40
2
50
-270
51
-180
0
LINE
8
BLACK
6
CONTINUOUS
10
296.05
20
7
11
286.75
21
7
0
LINE
8
BLACK
6
CONTINUOUS
10
282.368
20
3.81
11
282.368
21
1.27
0
LINE
8
BLACK
6
CONTINUOUS
10
295.322
20
3.81
11
295.322
21
6.35
0
LINE
8
BLACK
6
CONTINUOUS
10
284.25
20
0.6
11
288.35
21
0.6
0
LINE
8
BLACK
6
CONTINUOUS
10
290.35
20
2.6
11
296.05
21
2.6
0
LINE
8
BLACK
6
CONTINUOUS
10
295.322
20
6.35
11
297.862
21
6.35
0
LINE
8
BLACK
6
CONTINUOUS
10
297.862
20
6.35
11
297.862
21
3.81
0
LINE
8
BLACK
6
CONTINUOUS
10
296.05
20
7
11
296.05
21
2.6
0
LINE
8
BLACK
6
CONTINUOUS
10
284.908
20
1.27
11
284.908
21
3.81
0
LINE
8
BLACK
6
CONTINUOUS
10
282.368
20
1.27
11
284.908
21
1.27
0
LINE
8
BLACK
6
CONTINUOUS
10
297.862
20
3.81
11
295.322
21
3.81
0
LINE
8
BLACK
6
CONTINUOUS
10
284.25
20
4.5
11
284.25
21
0.6
0
LINE
8
BLACK
6
CONTINUOUS
10
284.908
20
3.81
11
282.368
21
3.81
0
CIRCLE
8
BLACK
10
196.215
20
-40.3225
40
1.524
0
CIRCLE
8
BLACK
10
202.565
20
-37.7825
40
1.524
0
ARC
8
BLACK
10
199.625
20
-42.2625
40
2
50
-270
51
-180
0
ARC
8
BLACK
10
196.025
20
-38.3625
40
2.5
50
90
51
180
0
LINE
8
BLACK
6
CONTINUOUS
10
204.597
20
-39.0525
11
204.597
21
-36.5125
0
LINE
8
BLACK
6
CONTINUOUS
10
205.325
20
-35.8625
11
196.025
21
-35.8625
0
LINE
8
BLACK
6
CONTINUOUS
10
193.525
20
-38.3625
11
193.525
21
-42.2625
0
LINE
8
BLACK
6
CONTINUOUS
10
204.597
20
-36.5125
11
207.137
21
-36.5125
0
LINE
8
BLACK
6
CONTINUOUS
10
199.625
20
-40.2625
11
205.325
21
-40.2625
0
LINE
8
BLACK
6
CONTINUOUS
10
191.643
20
-39.0525
11
191.643
21
-41.5925
0
LINE
8
BLACK
6
CONTINUOUS
10
207.137
20
-39.0525
11
204.597
21
-39.0525
0
LINE
8
BLACK
6
CONTINUOUS
10
193.525
20
-42.2625
11
197.625
21
-42.2625
0
LINE
8
BLACK
6
CONTINUOUS
10
194.183
20
-41.5925
11
194.183
21
-39.0525
0
LINE
8
BLACK
6
CONTINUOUS
10
205.325
20
-35.8625
11
205.325
21
-40.2625
0
LINE
8
BLACK
6
CONTINUOUS
10
191.643
20
-41.5925
11
194.183
21
-41.5925
0
LINE
8
BLACK
6
CONTINUOUS
10
207.137
20
-36.5125
11
207.137
21
-39.0525
0
LINE
8
BLACK
6
CONTINUOUS
10
194.183
20
-39.0525
11
191.643
21
-39.0525
0
CIRCLE
8
BLACK
10
224.79
20
2.54
40
1.524
0
CIRCLE
8
BLACK
10
231.14
20
5.08
40
1.524
0
ARC
8
BLACK
10
224.6
20
4.5
40
2.5
50
90
51
180
0
ARC
8
BLACK
10
228.2
20
0.600001
40
2
50
-270
51
-180
0
LINE
8
BLACK
6
CONTINUOUS
10
222.758
20
1.27
11
222.758
21
3.81
0
LINE
8
BLACK
6
CONTINUOUS
10
222.758
20
3.81
11
220.218
21
3.81
0
LINE
8
BLACK
6
CONTINUOUS
10
233.172
20
3.81
11
233.172
21
6.35
0
LINE
8
BLACK
6
CONTINUOUS
10
233.172
20
6.35
11
235.712
21
6.35
0
LINE
8
BLACK
6
CONTINUOUS
10
233.9
20
7
11
224.6
21
7
0
LINE
8
BLACK
6
CONTINUOUS
10
222.1
20
4.5
11
222.1
21
0.6
0
LINE
8
BLACK
6
CONTINUOUS
10
233.9
20
7
11
233.9
21
2.6
0
LINE
8
BLACK
6
CONTINUOUS
10
220.218
20
1.27
11
222.758
21
1.27
0
LINE
8
BLACK
6
CONTINUOUS
10
220.218
20
3.81
11
220.218
21
1.27
0
LINE
8
BLACK
6
CONTINUOUS
10
235.712
20
6.35
11
235.712
21
3.81
0
LINE
8
BLACK
6
CONTINUOUS
10
235.712
20
3.81
11
233.172
21
3.81
0
LINE
8
BLACK
6
CONTINUOUS
10
228.2
20
2.6
11
233.9
21
2.6
0
LINE
8
BLACK
6
CONTINUOUS
10
222.1
20
0.6
11
226.2
21
0.6
0
CIRCLE
8
BLACK
10
78.74
20
5.08
40
1.524
0
CIRCLE
8
BLACK
10
72.39
20
2.54
40
1.524
0
ARC
8
BLACK
10
72.2
20
4.5
40
2.5
50
90
51
180
0
ARC
8
BLACK
10
75.8
20
0.600001
40
2
50
-270
51
-180
0
LINE
8
BLACK
6
CONTINUOUS
10
67.818
20
1.27
11
70.358
21
1.27
0
LINE
8
BLACK
6
CONTINUOUS
10
80.772
20
6.35
11
83.312
21
6.35
0
LINE
8
BLACK
6
CONTINUOUS
10
83.312
20
3.81
11
80.772
21
3.81
0
LINE
8
BLACK
6
CONTINUOUS
10
81.5
20
7
11
72.2
21
7
0
LINE
8
BLACK
6
CONTINUOUS
10
67.818
20
3.81
11
67.818
21
1.27
0
LINE
8
BLACK
6
CONTINUOUS
10
69.7
20
0.6
11
73.8
21
0.6
0
LINE
8
BLACK
6
CONTINUOUS
10
70.358
20
3.81
11
67.818
21
3.81
0
LINE
8
BLACK
6
CONTINUOUS
10
80.772
20
3.81
11
80.772
21
6.35
0
LINE
8
BLACK
6
CONTINUOUS
10
81.5
20
7
11
81.5
21
2.6
0
LINE
8
BLACK
6
CONTINUOUS
10
69.7
20
4.5
11
69.7
21
0.6
0
LINE
8
BLACK
6
CONTINUOUS
10
83.312
20
6.35
11
83.312
21
3.81
0
LINE
8
BLACK
6
CONTINUOUS
10
75.8
20
2.6
11
81.5
21
2.6
0
LINE
8
BLACK
6
CONTINUOUS
10
70.358
20
1.27
11
70.358
21
3.81
0
CIRCLE
8
BLACK
10
312.34
20
5.08
40
1.524
0
CIRCLE
8
BLACK
10
305.99
20
2.54
40
1.524
0
ARC
8
BLACK
10
309.4
20
0.600001
40
2
50
-270
51
-180
0
ARC
8
BLACK
10
305.8
20
4.5
40
2.5
50
90
51
180
0
LINE
8
BLACK
6
CONTINUOUS
10
301.418
20
1.27
11
303.958
21
1.27
0
LINE
8
BLACK
6
CONTINUOUS
10
314.372
20
6.35
11
316.912
21
6.35
0
LINE
8
BLACK
6
CONTINUOUS
10
314.372
20
3.81
11
314.372
21
6.35
0
LINE
8
BLACK
6
CONTINUOUS
10
315.1
20
7
11
305.8
21
7
0
LINE
8
BLACK
6
CONTINUOUS
10
303.3
20
0.6
11
307.4
21
0.6
0
LINE
8
BLACK
6
CONTINUOUS
10
303.3
20
4.5
11
303.3
21
0.6
0
LINE
8
BLACK
6
CONTINUOUS
10
316.912
20
3.81
11
314.372
21
3.81
0
LINE
8
BLACK
6
CONTINUOUS
10
315.1
20
7
11
315.1
21
2.6
0
LINE
8
BLACK
6
CONTINUOUS
10
303.958
20
1.27
11
303.958
21
3.81
0
LINE
8
BLACK
6
CONTINUOUS
10
309.4
20
2.6
11
315.1
21
2.6
0
LINE
8
BLACK
6
CONTINUOUS
10
316.912
20
6.35
11
316.912
21
3.81
0
LINE
8
BLACK
6
CONTINUOUS
10
303.958
20
3.81
11
301.418
21
3.81
0
LINE
8
BLACK
6
CONTINUOUS
10
301.418
20
3.81
11
301.418
21
1.27
0
CIRCLE
8
BLACK
10
153.352
20
-78.4225
40
1.524
0
CIRCLE
8
BLACK
10
159.702
20
-75.8825
40
1.524
0
ARC
8
BLACK
10
153.162
20
-76.4625
40
2.5
50
90
51
180
0
ARC
8
BLACK
10
156.762
20
-80.3625
40
2
50
-270
51
-180
0
LINE
8
BLACK
6
CONTINUOUS
10
164.274
20
-74.6125
11
164.274
21
-77.1525
0
LINE
8
BLACK
6
CONTINUOUS
10
150.662
20
-80.3625
11
154.762
21
-80.3625
0
LINE
8
BLACK
6
CONTINUOUS
10
156.762
20
-78.3625
11
162.463
21
-78.3625
0
LINE
8
BLACK
6
CONTINUOUS
10
151.32
20
-77.1525
11
148.78
21
-77.1525
0
LINE
8
BLACK
6
CONTINUOUS
10
151.32
20
-79.6925
11
151.32
21
-77.1525
0
LINE
8
BLACK
6
CONTINUOUS
10
162.463
20
-73.9625
11
162.463
21
-78.3625
0
LINE
8
BLACK
6
CONTINUOUS
10
148.78
20
-79.6925
11
151.32
21
-79.6925
0
LINE
8
BLACK
6
CONTINUOUS
10
150.662
20
-76.4625
11
150.662
21
-80.3625
0
LINE
8
BLACK
6
CONTINUOUS
10
161.734
20
-74.6125
11
164.274
21
-74.6125
0
LINE
8
BLACK
6
CONTINUOUS
10
162.463
20
-73.9625
11
153.162
21
-73.9625
0
LINE
8
BLACK
6
CONTINUOUS
10
161.734
20
-77.1525
11
161.734
21
-74.6125
0
LINE
8
BLACK
6
CONTINUOUS
10
148.78
20
-77.1525
11
148.78
21
-79.6925
0
LINE
8
BLACK
6
CONTINUOUS
10
164.274
20
-77.1525
11
161.734
21
-77.1525
0
CIRCLE
8
BLACK
10
250.19
20
5.08
40
1.524
0
CIRCLE
8
BLACK
10
243.84
20
2.54
40
1.524
0
ARC
8
BLACK
10
247.25
20
0.600001
40
2
50
-270
51
-180
0
ARC
8
BLACK
10
243.65
20
4.5
40
2.5
50
90
51
180
0
LINE
8
BLACK
6
CONTINUOUS
10
252.95
20
7
11
252.95
21
2.6
0
LINE
8
BLACK
6
CONTINUOUS
10
252.222
20
6.35
11
254.762
21
6.35
0
LINE
8
BLACK
6
CONTINUOUS
10
254.762
20
3.81
11
252.222
21
3.81
0
LINE
8
BLACK
6
CONTINUOUS
10
241.808
20
1.27
11
241.808
21
3.81
0
LINE
8
BLACK
6
CONTINUOUS
10
241.808
20
3.81
11
239.268
21
3.81
0
LINE
8
BLACK
6
CONTINUOUS
10
252.222
20
3.81
11
252.222
21
6.35
0
LINE
8
BLACK
6
CONTINUOUS
10
254.762
20
6.35
11
254.762
21
3.81
0
LINE
8
BLACK
6
CONTINUOUS
10
239.268
20
1.27
11
241.808
21
1.27
0
LINE
8
BLACK
6
CONTINUOUS
10
241.15
20
4.5
11
241.15
21
0.6
0
LINE
8
BLACK
6
CONTINUOUS
10
239.268
20
3.81
11
239.268
21
1.27
0
LINE
8
BLACK
6
CONTINUOUS
10
241.15
20
0.6
11
245.25
21
0.6
0
LINE
8
BLACK
6
CONTINUOUS
10
252.95
20
7
11
243.65
21
7
0
LINE
8
BLACK
6
CONTINUOUS
10
247.25
20
2.6
11
252.95
21
2.6
0
CIRCLE
8
BLACK
10
205.74
20
2.54
40
1.524
0
CIRCLE
8
BLACK
10
212.09
20
5.08
40
1.524
0
ARC
8
BLACK
10
209.15
20
0.600001
40
2
50
-270
51
-180
0
ARC
8
BLACK
10
205.55
20
4.5
40
2.5
50
90
51
180
0
LINE
8
BLACK
6
CONTINUOUS
10
201.168
20
1.27
11
203.708
21
1.27
0
LINE
8
BLACK
6
CONTINUOUS
10
214.122
20
3.81
11
214.122
21
6.35
0
LINE
8
BLACK
6
CONTINUOUS
10
216.662
20
6.35
11
216.662
21
3.81
0
LINE
8
BLACK
6
CONTINUOUS
10
214.85
20
7
11
214.85
21
2.6
0
LINE
8
BLACK
6
CONTINUOUS
10
209.15
20
2.6
11
214.85
21
2.6
0
LINE
8
BLACK
6
CONTINUOUS
10
203.708
20
3.81
11
201.168
21
3.81
0
LINE
8
BLACK
6
CONTINUOUS
10
214.122
20
6.35
11
216.662
21
6.35
0
LINE
8
BLACK
6
CONTINUOUS
10
203.05
20
4.5
11
203.05
21
0.6
0
LINE
8
BLACK
6
CONTINUOUS
10
203.708
20
1.27
11
203.708
21
3.81
0
LINE
8
BLACK
6
CONTINUOUS
10
216.662
20
3.81
11
214.122
21
3.81
0
LINE
8
BLACK
6
CONTINUOUS
10
201.168
20
3.81
11
201.168
21
1.27
0
LINE
8
BLACK
6
CONTINUOUS
10
214.85
20
7
11
205.55
21
7
0
LINE
8
BLACK
6
CONTINUOUS
10
203.05
20
0.6
11
207.15
21
0.6
0
CIRCLE
8
BLACK
10
2.54
20
5.08
40
1.524
0
CIRCLE
8
BLACK
10
-3.81
20
2.54
40
1.524
0
ARC
8
BLACK
10
-4
20
4.5
40
2.5
50
90
51
180
0
ARC
8
BLACK
10
-0.400001
20
0.600001
40
2
50
-270
51
-180
0
LINE
8
BLACK
6
CONTINUOUS
10
4.572
20
3.81
11
4.572
21
6.35
0
LINE
8
BLACK
6
CONTINUOUS
10
-6.5
20
0.6
11
-2.4
21
0.6
0
LINE
8
BLACK
6
CONTINUOUS
10
5.3
20
7
11
-4
21
7
0
LINE
8
BLACK
6
CONTINUOUS
10
4.572
20
6.35
11
7.112
21
6.35
0
LINE
8
BLACK
6
CONTINUOUS
10
-8.382
20
3.81
11
-8.382
21
1.27
0
LINE
8
BLACK
6
CONTINUOUS
10
-8.382
20
1.27
11
-5.842
21
1.27
0
LINE
8
BLACK
6
CONTINUOUS
10
5.3
20
7
11
5.3
21
2.6
0
LINE
8
BLACK
6
CONTINUOUS
10
-5.842
20
1.27
11
-5.842
21
3.81
0
LINE
8
BLACK
6
CONTINUOUS
10
7.112
20
6.35
11
7.112
21
3.81
0
LINE
8
BLACK
6
CONTINUOUS
10
-5.842
20
3.81
11
-8.382
21
3.81
0
LINE
8
BLACK
6
CONTINUOUS
10
-0.4
20
2.6
11
5.3
21
2.6
0
LINE
8
BLACK
6
CONTINUOUS
10
7.112
20
3.81
11
4.572
21
3.81
0
LINE
8
BLACK
6
CONTINUOUS
10
-6.5
20
4.5
11
-6.5
21
0.6
0
CIRCLE
8
BLACK
10
164.465
20
5.08
40
1.524
0
CIRCLE
8
BLACK
10
158.115
20
2.54
40
1.524
0
ARC
8
BLACK
10
161.525
20
0.600001
40
2
50
-270
51
-180
0
ARC
8
BLACK
10
157.925
20
4.5
40
2.5
50
90
51
180
0
LINE
8
BLACK
6
CONTINUOUS
10
153.543
20
1.27
11
156.083
21
1.27
0
LINE
8
BLACK
6
CONTINUOUS
10
167.225
20
7
11
167.225
21
2.6
0
LINE
8
BLACK
6
CONTINUOUS
10
166.497
20
6.35
11
169.037
21
6.35
0
LINE
8
BLACK
6
CONTINUOUS
10
153.543
20
3.81
11
153.543
21
1.27
0
LINE
8
BLACK
6
CONTINUOUS
10
155.425
20
4.5
11
155.425
21
0.6
0
LINE
8
BLACK
6
CONTINUOUS
10
166.497
20
3.81
11
166.497
21
6.35
0
LINE
8
BLACK
6
CONTINUOUS
10
161.525
20
2.6
11
167.225
21
2.6
0
LINE
8
BLACK
6
CONTINUOUS
10
167.225
20
7
11
157.925
21
7
0
LINE
8
BLACK
6
CONTINUOUS
10
156.083
20
1.27
11
156.083
21
3.81
0
LINE
8
BLACK
6
CONTINUOUS
10
156.083
20
3.81
11
153.543
21
3.81
0
LINE
8
BLACK
6
CONTINUOUS
10
169.037
20
6.35
11
169.037
21
3.81
0
LINE
8
BLACK
6
CONTINUOUS
10
169.037
20
3.81
11
166.497
21
3.81
0
LINE
8
BLACK
6
CONTINUOUS
10
155.425
20
0.6
11
159.525
21
0.6
0
CIRCLE
8
BLACK
10
148.59
20
-21.2725
40
1.524
0
CIRCLE
8
BLACK
10
154.94
20
-18.7325
40
1.524
0
ARC
8
BLACK
10
152
20
-23.2125
40
2
50
-270
51
-180
0
ARC
8
BLACK
10
148.4
20
-19.3125
40
2.5
50
90
51
180
0
LINE
8
BLACK
6
CONTINUOUS
10
159.512
20
-17.4625
11
159.512
21
-20.0025
0
LINE
8
BLACK
6
CONTINUOUS
10
145.9
20
-23.2125
11
150
21
-23.2125
0
LINE
8
BLACK
6
CONTINUOUS
10
145.9
20
-19.3125
11
145.9
21
-23.2125
0
LINE
8
BLACK
6
CONTINUOUS
10
144.018
20
-22.5425
11
146.558
21
-22.5425
0
LINE
8
BLACK
6
CONTINUOUS
10
156.972
20
-17.4625
11
159.512
21
-17.4625
0
LINE
8
BLACK
6
CONTINUOUS
10
144.018
20
-20.0025
11
144.018
21
-22.5425
0
LINE
8
BLACK
6
CONTINUOUS
10
157.7
20
-16.8125
11
148.4
21
-16.8125
0
LINE
8
BLACK
6
CONTINUOUS
10
146.558
20
-20.0025
11
144.018
21
-20.0025
0
LINE
8
BLACK
6
CONTINUOUS
10
146.558
20
-22.5425
11
146.558
21
-20.0025
0
LINE
8
BLACK
6
CONTINUOUS
10
157.7
20
-16.8125
11
157.7
21
-21.2125
0
LINE
8
BLACK
6
CONTINUOUS
10
152
20
-21.2125
11
157.7
21
-21.2125
0
LINE
8
BLACK
6
CONTINUOUS
10
156.972
20
-20.0025
11
156.972
21
-17.4625
0
LINE
8
BLACK
6
CONTINUOUS
10
159.512
20
-20.0025
11
156.972
21
-20.0025
0
CIRCLE
8
BLACK
10
116.84
20
-18.7325
40
1.524
0
CIRCLE
8
BLACK
10
110.49
20
-21.2725
40
1.524
0
ARC
8
BLACK
10
113.9
20
-23.2125
40
2
50
-270
51
-180
0
ARC
8
BLACK
10
110.3
20
-19.3125
40
2.5
50
90
51
180
0
LINE
8
BLACK
6
CONTINUOUS
10
118.872
20
-20.0025
11
118.872
21
-17.4625
0
LINE
8
BLACK
6
CONTINUOUS
10
107.8
20
-19.3125
11
107.8
21
-23.2125
0
LINE
8
BLACK
6
CONTINUOUS
10
113.9
20
-21.2125
11
119.6
21
-21.2125
0
LINE
8
BLACK
6
CONTINUOUS
10
119.6
20
-16.8125
11
110.3
21
-16.8125
0
LINE
8
BLACK
6
CONTINUOUS
10
108.458
20
-20.0025
11
105.918
21
-20.0025
0
LINE
8
BLACK
6
CONTINUOUS
10
121.412
20
-20.0025
11
118.872
21
-20.0025
0
LINE
8
BLACK
6
CONTINUOUS
10
121.412
20
-17.4625
11
121.412
21
-20.0025
0
LINE
8
BLACK
6
CONTINUOUS
10
108.458
20
-22.5425
11
108.458
21
-20.0025
0
LINE
8
BLACK
6
CONTINUOUS
10
105.918
20
-20.0025
11
105.918
21
-22.5425
0
LINE
8
BLACK
6
CONTINUOUS
10
105.918
20
-22.5425
11
108.458
21
-22.5425
0
LINE
8
BLACK
6
CONTINUOUS
10
107.8
20
-23.2125
11
111.9
21
-23.2125
0
LINE
8
BLACK
6
CONTINUOUS
10
119.6
20
-16.8125
11
119.6
21
-21.2125
0
LINE
8
BLACK
6
CONTINUOUS
10
118.872
20
-17.4625
11
121.412
21
-17.4625
0
CIRCLE
8
BLACK
10
325.04
20
-97.4725
40
1.524
0
CIRCLE
8
BLACK
10
331.39
20
-94.9325
40
1.524
0
ARC
8
BLACK
10
324.85
20
-95.5125
40
2.5
50
90
51
180
0
ARC
8
BLACK
10
328.45
20
-99.4125
40
2
50
-270
51
-180
0
LINE
8
BLACK
6
CONTINUOUS
10
323.008
20
-98.7425
11
323.008
21
-96.2025
0
LINE
8
BLACK
6
CONTINUOUS
10
333.422
20
-93.6625
11
335.962
21
-93.6625
0
LINE
8
BLACK
6
CONTINUOUS
10
334.15
20
-93.0125
11
324.85
21
-93.0125
0
LINE
8
BLACK
6
CONTINUOUS
10
333.422
20
-96.2025
11
333.422
21
-93.6625
0
LINE
8
BLACK
6
CONTINUOUS
10
322.35
20
-99.4125
11
326.45
21
-99.4125
0
LINE
8
BLACK
6
CONTINUOUS
10
334.15
20
-93.0125
11
334.15
21
-97.4125
0
LINE
8
BLACK
6
CONTINUOUS
10
335.962
20
-96.2025
11
333.422
21
-96.2025
0
LINE
8
BLACK
6
CONTINUOUS
10
320.468
20
-96.2025
11
320.468
21
-98.7425
0
LINE
8
BLACK
6
CONTINUOUS
10
323.008
20
-96.2025
11
320.468
21
-96.2025
0
LINE
8
BLACK
6
CONTINUOUS
10
320.468
20
-98.7425
11
323.008
21
-98.7425
0
LINE
8
BLACK
6
CONTINUOUS
10
322.35
20
-95.5125
11
322.35
21
-99.4125
0
LINE
8
BLACK
6
CONTINUOUS
10
328.45
20
-97.4125
11
334.15
21
-97.4125
0
LINE
8
BLACK
6
CONTINUOUS
10
335.962
20
-93.6625
11
335.962
21
-96.2025
0
CIRCLE
8
BLACK
10
173.99
20
-18.7325
40
1.524
0
CIRCLE
8
BLACK
10
167.64
20
-21.2725
40
1.524
0
ARC
8
BLACK
10
171.05
20
-23.2125
40
2
50
-270
51
-180
0
ARC
8
BLACK
10
167.45
20
-19.3125
40
2.5
50
90
51
180
0
LINE
8
BLACK
6
CONTINUOUS
10
178.562
20
-17.4625
11
178.562
21
-20.0025
0
LINE
8
BLACK
6
CONTINUOUS
10
165.608
20
-22.5425
11
165.608
21
-20.0025
0
LINE
8
BLACK
6
CONTINUOUS
10
163.068
20
-20.0025
11
163.068
21
-22.5425
0
LINE
8
BLACK
6
CONTINUOUS
10
176.75
20
-16.8125
11
176.75
21
-21.2125
0
LINE
8
BLACK
6
CONTINUOUS
10
176.022
20
-17.4625
11
178.562
21
-17.4625
0
LINE
8
BLACK
6
CONTINUOUS
10
164.95
20
-23.2125
11
169.05
21
-23.2125
0
LINE
8
BLACK
6
CONTINUOUS
10
164.95
20
-19.3125
11
164.95
21
-23.2125
0
LINE
8
BLACK
6
CONTINUOUS
10
163.068
20
-22.5425
11
165.608
21
-22.5425
0
LINE
8
BLACK
6
CONTINUOUS
10
165.608
20
-20.0025
11
163.068
21
-20.0025
0
LINE
8
BLACK
6
CONTINUOUS
10
176.75
20
-16.8125
11
167.45
21
-16.8125
0
LINE
8
BLACK
6
CONTINUOUS
10
171.05
20
-21.2125
11
176.75
21
-21.2125
0
LINE
8
BLACK
6
CONTINUOUS
10
176.022
20
-20.0025
11
176.022
21
-17.4625
0
LINE
8
BLACK
6
CONTINUOUS
10
178.562
20
-20.0025
11
176.022
21
-20.0025
0
CIRCLE
8
BLACK
10
14.4462
20
-75.8825
40
1.524
0
CIRCLE
8
BLACK
10
8.09625
20
-78.4225
40
1.524
0
ARC
8
BLACK
10
7.90625
20
-76.4625
40
2.5
50
90
51
180
0
ARC
8
BLACK
10
11.5062
20
-80.3625
40
2
50
-270
51
-180
0
LINE
8
BLACK
6
CONTINUOUS
10
6.06425
20
-79.6925
11
3.52425
21
-79.6925
0
LINE
8
BLACK
6
CONTINUOUS
10
16.4782
20
-74.6125
11
19.0182
21
-74.6125
0
LINE
8
BLACK
6
CONTINUOUS
10
3.52425
20
-79.6925
11
3.52425
21
-77.1525
0
LINE
8
BLACK
6
CONTINUOUS
10
3.52425
20
-77.1525
11
6.06425
21
-77.1525
0
LINE
8
BLACK
6
CONTINUOUS
10
17.2063
20
-73.9625
11
17.2063
21
-78.3625
0
LINE
8
BLACK
6
CONTINUOUS
10
16.4782
20
-77.1525
11
16.4782
21
-74.6125
0
LINE
8
BLACK
6
CONTINUOUS
10
19.0182
20
-77.1525
11
16.4782
21
-77.1525
0
LINE
8
BLACK
6
CONTINUOUS
10
5.40625
20
-76.4625
11
5.40625
21
-80.3625
0
LINE
8
BLACK
6
CONTINUOUS
10
11.5062
20
-78.3625
11
17.2063
21
-78.3625
0
LINE
8
BLACK
6
CONTINUOUS
10
5.40625
20
-80.3625
11
9.50625
21
-80.3625
0
LINE
8
BLACK
6
CONTINUOUS
10
17.2063
20
-73.9625
11
7.90625
21
-73.9625
0
LINE
8
BLACK
6
CONTINUOUS
10
6.06425
20
-77.1525
11
6.06425
21
-79.6925
0
LINE
8
BLACK
6
CONTINUOUS
10
19.0182
20
-74.6125
11
19.0182
21
-77.1525
0
CIRCLE
8
BLACK
10
257.334
20
-56.8325
40
1.524
0
CIRCLE
8
BLACK
10
250.984
20
-59.3725
40
1.524
0
ARC
8
BLACK
10
250.794
20
-57.4125
40
2.5
50
90
51
180
0
ARC
8
BLACK
10
254.394
20
-61.3125
40
2
50
-270
51
-180
0
LINE
8
BLACK
6
CONTINUOUS
10
248.294
20
-57.4125
11
248.294
21
-61.3125
0
LINE
8
BLACK
6
CONTINUOUS
10
246.412
20
-58.1025
11
248.952
21
-58.1025
0
LINE
8
BLACK
6
CONTINUOUS
10
248.952
20
-60.6425
11
246.412
21
-60.6425
0
LINE
8
BLACK
6
CONTINUOUS
10
248.952
20
-58.1025
11
248.952
21
-60.6425
0
LINE
8
BLACK
6
CONTINUOUS
10
261.906
20
-58.1025
11
259.366
21
-58.1025
0
LINE
8
BLACK
6
CONTINUOUS
10
260.094
20
-54.9125
11
260.094
21
-59.3125
0
LINE
8
BLACK
6
CONTINUOUS
10
259.366
20
-55.5625
11
261.906
21
-55.5625
0
LINE
8
BLACK
6
CONTINUOUS
10
246.412
20
-60.6425
11
246.412
21
-58.1025
0
LINE
8
BLACK
6
CONTINUOUS
10
261.906
20
-55.5625
11
261.906
21
-58.1025
0
LINE
8
BLACK
6
CONTINUOUS
10
259.366
20
-58.1025
11
259.366
21
-55.5625
0
LINE
8
BLACK
6
CONTINUOUS
10
260.094
20
-54.9125
11
250.794
21
-54.9125
0
LINE
8
BLACK
6
CONTINUOUS
10
248.294
20
-61.3125
11
252.394
21
-61.3125
0
LINE
8
BLACK
6
CONTINUOUS
10
254.394
20
-59.3125
11
260.094
21
-59.3125
0
CIRCLE
8
BLACK
10
331.39
20
-37.7825
40
1.524
0
CIRCLE
8
BLACK
10
325.04
20
-40.3225
40
1.524
0
ARC
8
BLACK
10
328.45
20
-42.2625
40
2
50
-270
51
-180
0
ARC
8
BLACK
10
324.85
20
-38.3625
40
2.5
50
90
51
180
0
LINE
8
BLACK
6
CONTINUOUS
10
320.468
20
-39.0525
11
320.468
21
-41.5925
0
LINE
8
BLACK
6
CONTINUOUS
10
328.45
20
-40.2625
11
334.15
21
-40.2625
0
LINE
8
BLACK
6
CONTINUOUS
10
320.468
20
-41.5925
11
323.008
21
-41.5925
0
LINE
8
BLACK
6
CONTINUOUS
10
335.962
20
-39.0525
11
333.422
21
-39.0525
0
LINE
8
BLACK
6
CONTINUOUS
10
335.962
20
-36.5125
11
335.962
21
-39.0525
0
LINE
8
BLACK
6
CONTINUOUS
10
323.008
20
-41.5925
11
323.008
21
-39.0525
0
LINE
8
BLACK
6
CONTINUOUS
10
333.422
20
-36.5125
11
335.962
21
-36.5125
0
LINE
8
BLACK
6
CONTINUOUS
10
333.422
20
-39.0525
11
333.422
21
-36.5125
0
LINE
8
BLACK
6
CONTINUOUS
10
334.15
20
-35.8625
11
324.85
21
-35.8625
0
LINE
8
BLACK
6
CONTINUOUS
10
323.008
20
-39.0525
11
320.468
21
-39.0525
0
LINE
8
BLACK
6
CONTINUOUS
10
322.35
20
-42.2625
11
326.45
21
-42.2625
0
LINE
8
BLACK
6
CONTINUOUS
10
322.35
20
-38.3625
11
322.35
21
-42.2625
0
LINE
8
BLACK
6
CONTINUOUS
10
334.15
20
-35.8625
11
334.15
21
-40.2625
0
CIRCLE
8
BLACK
10
178.752
20
-75.8825
40
1.524
0
CIRCLE
8
BLACK
10
172.403
20
-78.4225
40
1.524
0
ARC
8
BLACK
10
172.213
20
-76.4625
40
2.5
50
90
51
180
0
ARC
8
BLACK
10
175.812
20
-80.3625
40
2
50
-270
51
-180
0
LINE
8
BLACK
6
CONTINUOUS
10
167.831
20
-79.6925
11
170.37
21
-79.6925
0
LINE
8
BLACK
6
CONTINUOUS
10
169.713
20
-76.4625
11
169.713
21
-80.3625
0
LINE
8
BLACK
6
CONTINUOUS
10
181.512
20
-73.9625
11
172.213
21
-73.9625
0
LINE
8
BLACK
6
CONTINUOUS
10
170.37
20
-77.1525
11
167.831
21
-77.1525
0
LINE
8
BLACK
6
CONTINUOUS
10
180.784
20
-77.1525
11
180.784
21
-74.6125
0
LINE
8
BLACK
6
CONTINUOUS
10
183.325
20
-77.1525
11
180.784
21
-77.1525
0
LINE
8
BLACK
6
CONTINUOUS
10
181.512
20
-73.9625
11
181.512
21
-78.3625
0
LINE
8
BLACK
6
CONTINUOUS
10
180.784
20
-74.6125
11
183.325
21
-74.6125
0
LINE
8
BLACK
6
CONTINUOUS
10
169.713
20
-80.3625
11
173.812
21
-80.3625
0
LINE
8
BLACK
6
CONTINUOUS
10
175.812
20
-78.3625
11
181.512
21
-78.3625
0
LINE
8
BLACK
6
CONTINUOUS
10
167.831
20
-77.1525
11
167.831
21
-79.6925
0
LINE
8
BLACK
6
CONTINUOUS
10
170.37
20
-79.6925
11
170.37
21
-77.1525
0
LINE
8
BLACK
6
CONTINUOUS
10
183.325
20
-74.6125
11
183.325
21
-77.1525
0
CIRCLE
8
BLACK
10
48.5775
20
-59.3725
40
1.524
0
CIRCLE
8
BLACK
10
54.9275
20
-56.8325
40
1.524
0
ARC
8
BLACK
10
48.3875
20
-57.4125
40
2.5
50
90
51
180
0
ARC
8
BLACK
10
51.9875
20
-61.3125
40
2
50
-270
51
-180
0
LINE
8
BLACK
6
CONTINUOUS
10
46.5455
20
-58.1025
11
44.0055
21
-58.1025
0
LINE
8
BLACK
6
CONTINUOUS
10
56.9595
20
-58.1025
11
56.9595
21
-55.5625
0
LINE
8
BLACK
6
CONTINUOUS
10
45.8875
20
-57.4125
11
45.8875
21
-61.3125
0
LINE
8
BLACK
6
CONTINUOUS
10
59.4995
20
-58.1025
11
56.9595
21
-58.1025
0
LINE
8
BLACK
6
CONTINUOUS
10
44.0055
20
-58.1025
11
44.0055
21
-60.6425
0
LINE
8
BLACK
6
CONTINUOUS
10
44.0055
20
-60.6425
11
46.5455
21
-60.6425
0
LINE
8
BLACK
6
CONTINUOUS
10
45.8875
20
-61.3125
11
49.9875
21
-61.3125
0
LINE
8
BLACK
6
CONTINUOUS
10
56.9595
20
-55.5625
11
59.4995
21
-55.5625
0
LINE
8
BLACK
6
CONTINUOUS
10
57.6875
20
-54.9125
11
48.3875
21
-54.9125
0
LINE
8
BLACK
6
CONTINUOUS
10
46.5455
20
-60.6425
11
46.5455
21
-58.1025
0
LINE
8
BLACK
6
CONTINUOUS
10
57.6875
20
-54.9125
11
57.6875
21
-59.3125
0
LINE
8
BLACK
6
CONTINUOUS
10
51.9875
20
-59.3125
11
57.6875
21
-59.3125
0
LINE
8
BLACK
6
CONTINUOUS
10
59.4995
20
-55.5625
11
59.4995
21
-58.1025
0
CIRCLE
8
BLACK
10
-1.41
20
-59.36
40
1.524
0
CIRCLE
8
BLACK
10
4.94
20
-56.82
40
1.524
0
ARC
8
BLACK
10
2
20
-61.3
40
2
50
-270
51
-180
0
ARC
8
BLACK
10
-1.6
20
-57.4
40
2.5
50
90
51
180
0
LINE
8
BLACK
6
CONTINUOUS
10
9.512
20
-58.09
11
6.972
21
-58.09
0
LINE
8
BLACK
6
CONTINUOUS
10
7.7
20
-54.9
11
7.7
21
-59.3
0
LINE
8
BLACK
6
CONTINUOUS
10
-4.1
20
-61.3
11
0
21
-61.3
0
LINE
8
BLACK
6
CONTINUOUS
10
6.972
20
-55.55
11
9.512
21
-55.55
0
LINE
8
BLACK
6
CONTINUOUS
10
6.972
20
-58.09
11
6.972
21
-55.55
0
LINE
8
BLACK
6
CONTINUOUS
10
9.512
20
-55.55
11
9.512
21
-58.09
0
LINE
8
BLACK
6
CONTINUOUS
10
-5.982
20
-60.63
11
-5.982
21
-58.09
0
LINE
8
BLACK
6
CONTINUOUS
10
2
20
-59.3
11
7.7
21
-59.3
0
LINE
8
BLACK
6
CONTINUOUS
10
-5.982
20
-58.09
11
-3.442
21
-58.09
0
LINE
8
BLACK
6
CONTINUOUS
10
-3.442
20
-58.09
11
-3.442
21
-60.63
0
LINE
8
BLACK
6
CONTINUOUS
10
7.7
20
-54.9
11
-1.6
21
-54.9
0
LINE
8
BLACK
6
CONTINUOUS
10
-3.442
20
-60.63
11
-5.982
21
-60.63
0
LINE
8
BLACK
6
CONTINUOUS
10
-4.1
20
-57.4
11
-4.1
21
-61.3
0
CIRCLE
8
BLACK
10
112.078
20
-56.8325
40
1.524
0
CIRCLE
8
BLACK
10
105.727
20
-59.3725
40
1.524
0
ARC
8
BLACK
10
109.137
20
-61.3125
40
2
50
-270
51
-180
0
ARC
8
BLACK
10
105.537
20
-57.4125
40
2.5
50
90
51
180
0
LINE
8
BLACK
6
CONTINUOUS
10
109.137
20
-59.3125
11
114.837
21
-59.3125
0
LINE
8
BLACK
6
CONTINUOUS
10
101.155
20
-58.1025
11
101.155
21
-60.6425
0
LINE
8
BLACK
6
CONTINUOUS
10
101.155
20
-60.6425
11
103.695
21
-60.6425
0
LINE
8
BLACK
6
CONTINUOUS
10
103.695
20
-60.6425
11
103.695
21
-58.1025
0
LINE
8
BLACK
6
CONTINUOUS
10
114.837
20
-54.9125
11
105.537
21
-54.9125
0
LINE
8
BLACK
6
CONTINUOUS
10
116.649
20
-58.1025
11
114.109
21
-58.1025
0
LINE
8
BLACK
6
CONTINUOUS
10
114.109
20
-55.5625
11
116.649
21
-55.5625
0
LINE
8
BLACK
6
CONTINUOUS
10
114.837
20
-54.9125
11
114.837
21
-59.3125
0
LINE
8
BLACK
6
CONTINUOUS
10
114.109
20
-58.1025
11
114.109
21
-55.5625
0
LINE
8
BLACK
6
CONTINUOUS
10
116.649
20
-55.5625
11
116.649
21
-58.1025
0
LINE
8
BLACK
6
CONTINUOUS
10
103.037
20
-57.4125
11
103.037
21
-61.3125
0
LINE
8
BLACK
6
CONTINUOUS
10
103.695
20
-58.1025
11
101.155
21
-58.1025
0
LINE
8
BLACK
6
CONTINUOUS
10
103.037
20
-61.3125
11
107.137
21
-61.3125
0
CIRCLE
8
BLACK
10
158.115
20
-40.3225
40
1.524
0
CIRCLE
8
BLACK
10
164.465
20
-37.7825
40
1.524
0
ARC
8
BLACK
10
161.525
20
-42.2625
40
2
50
-270
51
-180
0
ARC
8
BLACK
10
157.925
20
-38.3625
40
2.5
50
90
51
180
0
LINE
8
BLACK
6
CONTINUOUS
10
169.037
20
-36.5125
11
169.037
21
-39.0525
0
LINE
8
BLACK
6
CONTINUOUS
10
161.525
20
-40.2625
11
167.225
21
-40.2625
0
LINE
8
BLACK
6
CONTINUOUS
10
167.225
20
-35.8625
11
167.225
21
-40.2625
0
LINE
8
BLACK
6
CONTINUOUS
10
155.425
20
-42.2625
11
159.525
21
-42.2625
0
LINE
8
BLACK
6
CONTINUOUS
10
153.543
20
-41.5925
11
156.083
21
-41.5925
0
LINE
8
BLACK
6
CONTINUOUS
10
153.543
20
-39.0525
11
153.543
21
-41.5925
0
LINE
8
BLACK
6
CONTINUOUS
10
167.225
20
-35.8625
11
157.925
21
-35.8625
0
LINE
8
BLACK
6
CONTINUOUS
10
156.083
20
-39.0525
11
153.543
21
-39.0525
0
LINE
8
BLACK
6
CONTINUOUS
10
166.497
20
-36.5125
11
169.037
21
-36.5125
0
LINE
8
BLACK
6
CONTINUOUS
10
169.037
20
-39.0525
11
166.497
21
-39.0525
0
LINE
8
BLACK
6
CONTINUOUS
10
156.083
20
-41.5925
11
156.083
21
-39.0525
0
LINE
8
BLACK
6
CONTINUOUS
10
166.497
20
-39.0525
11
166.497
21
-36.5125
0
LINE
8
BLACK
6
CONTINUOUS
10
155.425
20
-38.3625
11
155.425
21
-42.2625
0
CIRCLE
8
BLACK
10
97.79
20
5.08
40
1.524
0
CIRCLE
8
BLACK
10
91.44
20
2.54
40
1.524
0
ARC
8
BLACK
10
91.25
20
4.5
40
2.5
50
90
51
180
0
ARC
8
BLACK
10
94.85
20
0.600001
40
2
50
-270
51
-180
0
LINE
8
BLACK
6
CONTINUOUS
10
102.362
20
3.81
11
99.822
21
3.81
0
LINE
8
BLACK
6
CONTINUOUS
10
100.55
20
7
11
100.55
21
2.6
0
LINE
8
BLACK
6
CONTINUOUS
10
89.408
20
1.27
11
89.408
21
3.81
0
LINE
8
BLACK
6
CONTINUOUS
10
86.868
20
3.81
11
86.868
21
1.27
0
LINE
8
BLACK
6
CONTINUOUS
10
99.822
20
6.35
11
102.362
21
6.35
0
LINE
8
BLACK
6
CONTINUOUS
10
86.868
20
1.27
11
89.408
21
1.27
0
LINE
8
BLACK
6
CONTINUOUS
10
88.75
20
0.6
11
92.85
21
0.6
0
LINE
8
BLACK
6
CONTINUOUS
10
102.362
20
6.35
11
102.362
21
3.81
0
LINE
8
BLACK
6
CONTINUOUS
10
89.408
20
3.81
11
86.868
21
3.81
0
LINE
8
BLACK
6
CONTINUOUS
10
88.75
20
4.5
11
88.75
21
0.6
0
LINE
8
BLACK
6
CONTINUOUS
10
99.822
20
3.81
11
99.822
21
6.35
0
LINE
8
BLACK
6
CONTINUOUS
10
100.55
20
7
11
91.25
21
7
0
LINE
8
BLACK
6
CONTINUOUS
10
94.85
20
2.6
11
100.55
21
2.6
0
CIRCLE
8
BLACK
10
129.54
20
-21.2725
40
1.524
0
CIRCLE
8
BLACK
10
135.89
20
-18.7325
40
1.524
0
ARC
8
BLACK
10
132.95
20
-23.2125
40
2
50
-270
51
-180
0
ARC
8
BLACK
10
129.35
20
-19.3125
40
2.5
50
90
51
180
0
LINE
8
BLACK
6
CONTINUOUS
10
138.65
20
-16.8125
11
138.65
21
-21.2125
0
LINE
8
BLACK
6
CONTINUOUS
10
140.462
20
-20.0025
11
137.922
21
-20.0025
0
LINE
8
BLACK
6
CONTINUOUS
10
132.95
20
-21.2125
11
138.65
21
-21.2125
0
LINE
8
BLACK
6
CONTINUOUS
10
126.85
20
-19.3125
11
126.85
21
-23.2125
0
LINE
8
BLACK
6
CONTINUOUS
10
127.508
20
-20.0025
11
124.968
21
-20.0025
0
LINE
8
BLACK
6
CONTINUOUS
10
140.462
20
-17.4625
11
140.462
21
-20.0025
0
LINE
8
BLACK
6
CONTINUOUS
10
137.922
20
-20.0025
11
137.922
21
-17.4625
0
LINE
8
BLACK
6
CONTINUOUS
10
138.65
20
-16.8125
11
129.35
21
-16.8125
0
LINE
8
BLACK
6
CONTINUOUS
10
124.968
20
-22.5425
11
127.508
21
-22.5425
0
LINE
8
BLACK
6
CONTINUOUS
10
124.968
20
-20.0025
11
124.968
21
-22.5425
0
LINE
8
BLACK
6
CONTINUOUS
10
126.85
20
-23.2125
11
130.95
21
-23.2125
0
LINE
8
BLACK
6
CONTINUOUS
10
137.922
20
-17.4625
11
140.462
21
-17.4625
0
LINE
8
BLACK
6
CONTINUOUS
10
127.508
20
-22.5425
11
127.508
21
-20.0025
0
CIRCLE
8
BLACK
10
59.69
20
-18.7325
40
1.524
0
CIRCLE
8
BLACK
10
53.34
20
-21.2725
40
1.524
0
ARC
8
BLACK
10
53.15
20
-19.3125
40
2.5
50
90
51
180
0
ARC
8
BLACK
10
56.75
20
-23.2125
40
2
50
-270
51
-180
0
LINE
8
BLACK
6
CONTINUOUS
10
61.722
20
-20.0025
11
61.722
21
-17.4625
0
LINE
8
BLACK
6
CONTINUOUS
10
64.262
20
-20.0025
11
61.722
21
-20.0025
0
LINE
8
BLACK
6
CONTINUOUS
10
50.65
20
-23.2125
11
54.75
21
-23.2125
0
LINE
8
BLACK
6
CONTINUOUS
10
56.75
20
-21.2125
11
62.45
21
-21.2125
0
LINE
8
BLACK
6
CONTINUOUS
10
50.65
20
-19.3125
11
50.65
21
-23.2125
0
LINE
8
BLACK
6
CONTINUOUS
10
62.45
20
-16.8125
11
53.15
21
-16.8125
0
LINE
8
BLACK
6
CONTINUOUS
10
48.768
20
-22.5425
11
51.308
21
-22.5425
0
LINE
8
BLACK
6
CONTINUOUS
10
62.45
20
-16.8125
11
62.45
21
-21.2125
0
LINE
8
BLACK
6
CONTINUOUS
10
61.722
20
-17.4625
11
64.262
21
-17.4625
0
LINE
8
BLACK
6
CONTINUOUS
10
48.768
20
-20.0025
11
48.768
21
-22.5425
0
LINE
8
BLACK
6
CONTINUOUS
10
64.262
20
-17.4625
11
64.262
21
-20.0025
0
LINE
8
BLACK
6
CONTINUOUS
10
51.308
20
-22.5425
11
51.308
21
-20.0025
0
LINE
8
BLACK
6
CONTINUOUS
10
51.308
20
-20.0025
11
48.768
21
-20.0025
0
CIRCLE
8
BLACK
10
293.29
20
-18.7325
40
1.524
0
CIRCLE
8
BLACK
10
286.94
20
-21.2725
40
1.524
0
ARC
8
BLACK
10
286.75
20
-19.3125
40
2.5
50
90
51
180
0
ARC
8
BLACK
10
290.35
20
-23.2125
40
2
50
-270
51
-180
0
LINE
8
BLACK
6
CONTINUOUS
10
284.25
20
-19.3125
11
284.25
21
-23.2125
0
LINE
8
BLACK
6
CONTINUOUS
10
284.908
20
-20.0025
11
282.368
21
-20.0025
0
LINE
8
BLACK
6
CONTINUOUS
10
296.05
20
-16.8125
11
286.75
21
-16.8125
0
LINE
8
BLACK
6
CONTINUOUS
10
282.368
20
-22.5425
11
284.908
21
-22.5425
0
LINE
8
BLACK
6
CONTINUOUS
10
282.368
20
-20.0025
11
282.368
21
-22.5425
0
LINE
8
BLACK
6
CONTINUOUS
10
284.25
20
-23.2125
11
288.35
21
-23.2125
0
LINE
8
BLACK
6
CONTINUOUS
10
297.862
20
-20.0025
11
295.322
21
-20.0025
0
LINE
8
BLACK
6
CONTINUOUS
10
295.322
20
-17.4625
11
297.862
21
-17.4625
0
LINE
8
BLACK
6
CONTINUOUS
10
295.322
20
-20.0025
11
295.322
21
-17.4625
0
LINE
8
BLACK
6
CONTINUOUS
10
297.862
20
-17.4625
11
297.862
21
-20.0025
0
LINE
8
BLACK
6
CONTINUOUS
10
296.05
20
-16.8125
11
296.05
21
-21.2125
0
LINE
8
BLACK
6
CONTINUOUS
10
290.35
20
-21.2125
11
296.05
21
-21.2125
0
LINE
8
BLACK
6
CONTINUOUS
10
284.908
20
-22.5425
11
284.908
21
-20.0025
0
CIRCLE
8
BLACK
10
54.9275
20
-94.9325
40
1.524
0
CIRCLE
8
BLACK
10
48.5775
20
-97.4725
40
1.524
0
ARC
8
BLACK
10
51.9875
20
-99.4125
40
2
50
-270
51
-180
0
ARC
8
BLACK
10
48.3875
20
-95.5125
40
2.5
50
90
51
180
0
LINE
8
BLACK
6
CONTINUOUS
10
59.4995
20
-93.6625
11
59.4995
21
-96.2025
0
LINE
8
BLACK
6
CONTINUOUS
10
56.9595
20
-93.6625
11
59.4995
21
-93.6625
0
LINE
8
BLACK
6
CONTINUOUS
10
44.0055
20
-96.2025
11
46.5455
21
-96.2025
0
LINE
8
BLACK
6
CONTINUOUS
10
46.5455
20
-98.7425
11
44.0055
21
-98.7425
0
LINE
8
BLACK
6
CONTINUOUS
10
45.8875
20
-95.5125
11
45.8875
21
-99.4125
0
LINE
8
BLACK
6
CONTINUOUS
10
57.6875
20
-93.0125
11
48.3875
21
-93.0125
0
LINE
8
BLACK
6
CONTINUOUS
10
56.9595
20
-96.2025
11
56.9595
21
-93.6625
0
LINE
8
BLACK
6
CONTINUOUS
10
44.0055
20
-98.7425
11
44.0055
21
-96.2025
0
LINE
8
BLACK
6
CONTINUOUS
10
57.6875
20
-93.0125
11
57.6875
21
-97.4125
0
LINE
8
BLACK
6
CONTINUOUS
10
51.9875
20
-97.4125
11
57.6875
21
-97.4125
0
LINE
8
BLACK
6
CONTINUOUS
10
59.4995
20
-96.2025
11
56.9595
21
-96.2025
0
LINE
8
BLACK
6
CONTINUOUS
10
46.5455
20
-96.2025
11
46.5455
21
-98.7425
0
LINE
8
BLACK
6
CONTINUOUS
10
45.8875
20
-99.4125
11
49.9875
21
-99.4125
0
CIRCLE
8
BLACK
10
325.04
20
-21.2725
40
1.524
0
CIRCLE
8
BLACK
10
331.39
20
-18.7325
40
1.524
0
ARC
8
BLACK
10
328.45
20
-23.2125
40
2
50
-270
51
-180
0
ARC
8
BLACK
10
324.85
20
-19.3125
40
2.5
50
90
51
180
0
LINE
8
BLACK
6
CONTINUOUS
10
322.35
20
-23.2125
11
326.45
21
-23.2125
0
LINE
8
BLACK
6
CONTINUOUS
10
322.35
20
-19.3125
11
322.35
21
-23.2125
0
LINE
8
BLACK
6
CONTINUOUS
10
320.468
20
-22.5425
11
323.008
21
-22.5425
0
LINE
8
BLACK
6
CONTINUOUS
10
334.15
20
-16.8125
11
334.15
21
-21.2125
0
LINE
8
BLACK
6
CONTINUOUS
10
333.422
20
-20.0025
11
333.422
21
-17.4625
0
LINE
8
BLACK
6
CONTINUOUS
10
320.468
20
-20.0025
11
320.468
21
-22.5425
0
LINE
8
BLACK
6
CONTINUOUS
10
333.422
20
-17.4625
11
335.962
21
-17.4625
0
LINE
8
BLACK
6
CONTINUOUS
10
328.45
20
-21.2125
11
334.15
21
-21.2125
0
LINE
8
BLACK
6
CONTINUOUS
10
335.962
20
-20.0025
11
333.422
21
-20.0025
0
LINE
8
BLACK
6
CONTINUOUS
10
323.008
20
-22.5425
11
323.008
21
-20.0025
0
LINE
8
BLACK
6
CONTINUOUS
10
334.15
20
-16.8125
11
324.85
21
-16.8125
0
LINE
8
BLACK
6
CONTINUOUS
10
335.962
20
-17.4625
11
335.962
21
-20.0025
0
LINE
8
BLACK
6
CONTINUOUS
10
323.008
20
-20.0025
11
320.468
21
-20.0025
0
CIRCLE
8
BLACK
10
188.278
20
-56.8325
40
1.524
0
CIRCLE
8
BLACK
10
181.927
20
-59.3725
40
1.524
0
ARC
8
BLACK
10
181.737
20
-57.4125
40
2.5
50
90
51
180
0
ARC
8
BLACK
10
185.337
20
-61.3125
40
2
50
-270
51
-180
0
LINE
8
BLACK
6
CONTINUOUS
10
177.355
20
-60.6425
11
179.895
21
-60.6425
0
LINE
8
BLACK
6
CONTINUOUS
10
179.895
20
-58.1025
11
177.355
21
-58.1025
0
LINE
8
BLACK
6
CONTINUOUS
10
192.849
20
-58.1025
11
190.309
21
-58.1025
0
LINE
8
BLACK
6
CONTINUOUS
10
185.338
20
-59.3125
11
191.037
21
-59.3125
0
LINE
8
BLACK
6
CONTINUOUS
10
179.895
20
-60.6425
11
179.895
21
-58.1025
0
LINE
8
BLACK
6
CONTINUOUS
10
191.037
20
-54.9125
11
191.037
21
-59.3125
0
LINE
8
BLACK
6
CONTINUOUS
10
191.037
20
-54.9125
11
181.737
21
-54.9125
0
LINE
8
BLACK
6
CONTINUOUS
10
177.355
20
-58.1025
11
177.355
21
-60.6425
0
LINE
8
BLACK
6
CONTINUOUS
10
190.309
20
-55.5625
11
192.849
21
-55.5625
0
LINE
8
BLACK
6
CONTINUOUS
10
179.237
20
-61.3125
11
183.338
21
-61.3125
0
LINE
8
BLACK
6
CONTINUOUS
10
190.309
20
-58.1025
11
190.309
21
-55.5625
0
LINE
8
BLACK
6
CONTINUOUS
10
192.849
20
-55.5625
11
192.849
21
-58.1025
0
LINE
8
BLACK
6
CONTINUOUS
10
179.237
20
-57.4125
11
179.237
21
-61.3125
0
CIRCLE
8
BLACK
10
186.69
20
-21.2725
40
1.524
0
CIRCLE
8
BLACK
10
193.04
20
-18.7325
40
1.524
0
ARC
8
BLACK
10
186.5
20
-19.3125
40
2.5
50
90
51
180
0
ARC
8
BLACK
10
190.1
20
-23.2125
40
2
50
-270
51
-180
0
LINE
8
BLACK
6
CONTINUOUS
10
195.072
20
-17.4625
11
197.612
21
-17.4625
0
LINE
8
BLACK
6
CONTINUOUS
10
182.118
20
-20.0025
11
182.118
21
-22.5425
0
LINE
8
BLACK
6
CONTINUOUS
10
184
20
-23.2125
11
188.1
21
-23.2125
0
LINE
8
BLACK
6
CONTINUOUS
10
197.612
20
-17.4625
11
197.612
21
-20.0025
0
LINE
8
BLACK
6
CONTINUOUS
10
195.072
20
-20.0025
11
195.072
21
-17.4625
0
LINE
8
BLACK
6
CONTINUOUS
10
184
20
-19.3125
11
184
21
-23.2125
0
LINE
8
BLACK
6
CONTINUOUS
10
195.8
20
-16.8125
11
186.5
21
-16.8125
0
LINE
8
BLACK
6
CONTINUOUS
10
195.8
20
-16.8125
11
195.8
21
-21.2125
0
LINE
8
BLACK
6
CONTINUOUS
10
197.612
20
-20.0025
11
195.072
21
-20.0025
0
LINE
8
BLACK
6
CONTINUOUS
10
190.1
20
-21.2125
11
195.8
21
-21.2125
0
LINE
8
BLACK
6
CONTINUOUS
10
184.658
20
-22.5425
11
184.658
21
-20.0025
0
LINE
8
BLACK
6
CONTINUOUS
10
184.658
20
-20.0025
11
182.118
21
-20.0025
0
LINE
8
BLACK
6
CONTINUOUS
10
182.118
20
-22.5425
11
184.658
21
-22.5425
0
CIRCLE
8
BLACK
10
-3.81
20
-21.2725
40
1.524
0
CIRCLE
8
BLACK
10
2.54
20
-18.7325
40
1.524
0
ARC
8
BLACK
10
-0.400001
20
-23.2125
40
2
50
-270
51
-180
0
ARC
8
BLACK
10
-4
20
-19.3125
40
2.5
50
90
51
180
0
LINE
8
BLACK
6
CONTINUOUS
10
7.112
20
-20.0025
11
4.572
21
-20.0025
0
LINE
8
BLACK
6
CONTINUOUS
10
-0.4
20
-21.2125
11
5.3
21
-21.2125
0
LINE
8
BLACK
6
CONTINUOUS
10
-6.5
20
-19.3125
11
-6.5
21
-23.2125
0
LINE
8
BLACK
6
CONTINUOUS
10
-8.382
20
-22.5425
11
-5.842
21
-22.5425
0
LINE
8
BLACK
6
CONTINUOUS
10
5.3
20
-16.8125
11
-4
21
-16.8125
0
LINE
8
BLACK
6
CONTINUOUS
10
-5.842
20
-22.5425
11
-5.842
21
-20.0025
0
LINE
8
BLACK
6
CONTINUOUS
10
4.572
20
-20.0025
11
4.572
21
-17.4625
0
LINE
8
BLACK
6
CONTINUOUS
10
5.3
20
-16.8125
11
5.3
21
-21.2125
0
LINE
8
BLACK
6
CONTINUOUS
10
-5.842
20
-20.0025
11
-8.382
21
-20.0025
0
LINE
8
BLACK
6
CONTINUOUS
10
-6.5
20
-23.2125
11
-2.4
21
-23.2125
0
LINE
8
BLACK
6
CONTINUOUS
10
7.112
20
-17.4625
11
7.112
21
-20.0025
0
LINE
8
BLACK
6
CONTINUOUS
10
4.572
20
-17.4625
11
7.112
21
-17.4625
0
LINE
8
BLACK
6
CONTINUOUS
10
-8.382
20
-20.0025
11
-8.382
21
-22.5425
0
CIRCLE
8
BLACK
10
91.44
20
-21.2725
40
1.524
0
CIRCLE
8
BLACK
10
97.79
20
-18.7325
40
1.524
0
ARC
8
BLACK
10
91.25
20
-19.3125
40
2.5
50
90
51
180
0
ARC
8
BLACK
10
94.85
20
-23.2125
40
2
50
-270
51
-180
0
LINE
8
BLACK
6
CONTINUOUS
10
88.75
20
-23.2125
11
92.85
21
-23.2125
0
LINE
8
BLACK
6
CONTINUOUS
10
99.822
20
-17.4625
11
102.362
21
-17.4625
0
LINE
8
BLACK
6
CONTINUOUS
10
102.362
20
-20.0025
11
99.822
21
-20.0025
0
LINE
8
BLACK
6
CONTINUOUS
10
89.408
20
-22.5425
11
89.408
21
-20.0025
0
LINE
8
BLACK
6
CONTINUOUS
10
100.55
20
-16.8125
11
91.25
21
-16.8125
0
LINE
8
BLACK
6
CONTINUOUS
10
89.408
20
-20.0025
11
86.868
21
-20.0025
0
LINE
8
BLACK
6
CONTINUOUS
10
99.822
20
-20.0025
11
99.822
21
-17.4625
0
LINE
8
BLACK
6
CONTINUOUS
10
88.75
20
-19.3125
11
88.75
21
-23.2125
0
LINE
8
BLACK
6
CONTINUOUS
10
86.868
20
-20.0025
11
86.868
21
-22.5425
0
LINE
8
BLACK
6
CONTINUOUS
10
100.55
20
-16.8125
11
100.55
21
-21.2125
0
LINE
8
BLACK
6
CONTINUOUS
10
102.362
20
-17.4625
11
102.362
21
-20.0025
0
LINE
8
BLACK
6
CONTINUOUS
10
86.868
20
-22.5425
11
89.408
21
-22.5425
0
LINE
8
BLACK
6
CONTINUOUS
10
94.85
20
-21.2125
11
100.55
21
-21.2125
0
CIRCLE
8
BLACK
10
286.94
20
-97.4725
40
1.524
0
CIRCLE
8
BLACK
10
293.29
20
-94.9325
40
1.524
0
ARC
8
BLACK
10
286.75
20
-95.5125
40
2.5
50
90
51
180
0
ARC
8
BLACK
10
290.35
20
-99.4125
40
2
50
-270
51
-180
0
LINE
8
BLACK
6
CONTINUOUS
10
284.908
20
-96.2025
11
282.368
21
-96.2025
0
LINE
8
BLACK
6
CONTINUOUS
10
295.322
20
-93.6625
11
297.862
21
-93.6625
0
LINE
8
BLACK
6
CONTINUOUS
10
282.368
20
-96.2025
11
282.368
21
-98.7425
0
LINE
8
BLACK
6
CONTINUOUS
10
282.368
20
-98.7425
11
284.908
21
-98.7425
0
LINE
8
BLACK
6
CONTINUOUS
10
290.35
20
-97.4125
11
296.05
21
-97.4125
0
LINE
8
BLACK
6
CONTINUOUS
10
284.25
20
-95.5125
11
284.25
21
-99.4125
0
LINE
8
BLACK
6
CONTINUOUS
10
284.25
20
-99.4125
11
288.35
21
-99.4125
0
LINE
8
BLACK
6
CONTINUOUS
10
296.05
20
-93.0125
11
286.75
21
-93.0125
0
LINE
8
BLACK
6
CONTINUOUS
10
295.322
20
-96.2025
11
295.322
21
-93.6625
0
LINE
8
BLACK
6
CONTINUOUS
10
297.862
20
-93.6625
11
297.862
21
-96.2025
0
LINE
8
BLACK
6
CONTINUOUS
10
297.862
20
-96.2025
11
295.322
21
-96.2025
0
LINE
8
BLACK
6
CONTINUOUS
10
296.05
20
-93.0125
11
296.05
21
-97.4125
0
LINE
8
BLACK
6
CONTINUOUS
10
284.908
20
-98.7425
11
284.908
21
-96.2025
0
CIRCLE
8
BLACK
10
126.365
20
-37.7825
40
1.524
0
CIRCLE
8
BLACK
10
120.015
20
-40.3225
40
1.524
0
ARC
8
BLACK
10
119.825
20
-38.3625
40
2.5
50
90
51
180
0
ARC
8
BLACK
10
123.425
20
-42.2625
40
2
50
-270
51
-180
0
LINE
8
BLACK
6
CONTINUOUS
10
128.397
20
-39.0525
11
128.397
21
-36.5125
0
LINE
8
BLACK
6
CONTINUOUS
10
117.325
20
-42.2625
11
121.425
21
-42.2625
0
LINE
8
BLACK
6
CONTINUOUS
10
115.443
20
-39.0525
11
115.443
21
-41.5925
0
LINE
8
BLACK
6
CONTINUOUS
10
115.443
20
-41.5925
11
117.983
21
-41.5925
0
LINE
8
BLACK
6
CONTINUOUS
10
117.325
20
-38.3625
11
117.325
21
-42.2625
0
LINE
8
BLACK
6
CONTINUOUS
10
130.937
20
-39.0525
11
128.397
21
-39.0525
0
LINE
8
BLACK
6
CONTINUOUS
10
129.125
20
-35.8625
11
129.125
21
-40.2625
0
LINE
8
BLACK
6
CONTINUOUS
10
123.425
20
-40.2625
11
129.125
21
-40.2625
0
LINE
8
BLACK
6
CONTINUOUS
10
117.983
20
-39.0525
11
115.443
21
-39.0525
0
LINE
8
BLACK
6
CONTINUOUS
10
117.983
20
-41.5925
11
117.983
21
-39.0525
0
LINE
8
BLACK
6
CONTINUOUS
10
130.937
20
-36.5125
11
130.937
21
-39.0525
0
LINE
8
BLACK
6
CONTINUOUS
10
128.397
20
-36.5125
11
130.937
21
-36.5125
0
LINE
8
BLACK
6
CONTINUOUS
10
129.125
20
-35.8625
11
119.825
21
-35.8625
0
CIRCLE
8
BLACK
10
62.865
20
-40.3225
40
1.524
0
CIRCLE
8
BLACK
10
69.215
20
-37.7825
40
1.524
0
ARC
8
BLACK
10
66.275
20
-42.2625
40
2
50
-270
51
-180
0
ARC
8
BLACK
10
62.675
20
-38.3625
40
2.5
50
90
51
180
0
LINE
8
BLACK
6
CONTINUOUS
10
71.975
20
-35.8625
11
62.675
21
-35.8625
0
LINE
8
BLACK
6
CONTINUOUS
10
71.247
20
-36.5125
11
73.787
21
-36.5125
0
LINE
8
BLACK
6
CONTINUOUS
10
60.175
20
-38.3625
11
60.175
21
-42.2625
0
LINE
8
BLACK
6
CONTINUOUS
10
73.787
20
-36.5125
11
73.787
21
-39.0525
0
LINE
8
BLACK
6
CONTINUOUS
10
60.833
20
-41.5925
11
60.833
21
-39.0525
0
LINE
8
BLACK
6
CONTINUOUS
10
58.293
20
-41.5925
11
60.833
21
-41.5925
0
LINE
8
BLACK
6
CONTINUOUS
10
58.293
20
-39.0525
11
58.293
21
-41.5925
0
LINE
8
BLACK
6
CONTINUOUS
10
73.787
20
-39.0525
11
71.247
21
-39.0525
0
LINE
8
BLACK
6
CONTINUOUS
10
60.175
20
-42.2625
11
64.275
21
-42.2625
0
LINE
8
BLACK
6
CONTINUOUS
10
71.247
20
-39.0525
11
71.247
21
-36.5125
0
LINE
8
BLACK
6
CONTINUOUS
10
66.275
20
-40.2625
11
71.975
21
-40.2625
0
LINE
8
BLACK
6
CONTINUOUS
10
60.833
20
-39.0525
11
58.293
21
-39.0525
0
LINE
8
BLACK
6
CONTINUOUS
10
71.975
20
-35.8625
11
71.975
21
-40.2625
0
CIRCLE
8
BLACK
10
145.415
20
5.08
40
1.524
0
CIRCLE
8
BLACK
10
139.065
20
2.54
40
1.524
0
ARC
8
BLACK
10
142.475
20
0.600001
40
2
50
-270
51
-180
0
ARC
8
BLACK
10
138.875
20
4.5
40
2.5
50
90
51
180
0
LINE
8
BLACK
6
CONTINUOUS
10
149.987
20
3.81
11
147.447
21
3.81
0
LINE
8
BLACK
6
CONTINUOUS
10
148.175
20
7
11
138.875
21
7
0
LINE
8
BLACK
6
CONTINUOUS
10
142.475
20
2.6
11
148.175
21
2.6
0
LINE
8
BLACK
6
CONTINUOUS
10
147.447
20
6.35
11
149.987
21
6.35
0
LINE
8
BLACK
6
CONTINUOUS
10
147.447
20
3.81
11
147.447
21
6.35
0
LINE
8
BLACK
6
CONTINUOUS
10
134.493
20
3.81
11
134.493
21
1.27
0
LINE
8
BLACK
6
CONTINUOUS
10
136.375
20
0.6
11
140.475
21
0.6
0
LINE
8
BLACK
6
CONTINUOUS
10
149.987
20
6.35
11
149.987
21
3.81
0
LINE
8
BLACK
6
CONTINUOUS
10
137.033
20
3.81
11
134.493
21
3.81
0
LINE
8
BLACK
6
CONTINUOUS
10
134.493
20
1.27
11
137.033
21
1.27
0
LINE
8
BLACK
6
CONTINUOUS
10
148.175
20
7
11
148.175
21
2.6
0
LINE
8
BLACK
6
CONTINUOUS
10
137.033
20
1.27
11
137.033
21
3.81
0
LINE
8
BLACK
6
CONTINUOUS
10
136.375
20
4.5
11
136.375
21
0.6
0
CIRCLE
8
BLACK
10
312.34
20
-18.7325
40
1.524
0
CIRCLE
8
BLACK
10
305.99
20
-21.2725
40
1.524
0
ARC
8
BLACK
10
305.8
20
-19.3125
40
2.5
50
90
51
180
0
ARC
8
BLACK
10
309.4
20
-23.2125
40
2
50
-270
51
-180
0
LINE
8
BLACK
6
CONTINUOUS
10
315.1
20
-16.8125
11
315.1
21
-21.2125
0
LINE
8
BLACK
6
CONTINUOUS
10
315.1
20
-16.8125
11
305.8
21
-16.8125
0
LINE
8
BLACK
6
CONTINUOUS
10
314.372
20
-20.0025
11
314.372
21
-17.4625
0
LINE
8
BLACK
6
CONTINUOUS
10
303.3
20
-23.2125
11
307.4
21
-23.2125
0
LINE
8
BLACK
6
CONTINUOUS
10
316.912
20
-17.4625
11
316.912
21
-20.0025
0
LINE
8
BLACK
6
CONTINUOUS
10
303.958
20
-20.0025
11
301.418
21
-20.0025
0
LINE
8
BLACK
6
CONTINUOUS
10
316.912
20
-20.0025
11
314.372
21
-20.0025
0
LINE
8
BLACK
6
CONTINUOUS
10
309.4
20
-21.2125
11
315.1
21
-21.2125
0
LINE
8
BLACK
6
CONTINUOUS
10
301.418
20
-20.0025
11
301.418
21
-22.5425
0
LINE
8
BLACK
6
CONTINUOUS
10
314.372
20
-17.4625
11
316.912
21
-17.4625
0
LINE
8
BLACK
6
CONTINUOUS
10
303.3
20
-19.3125
11
303.3
21
-23.2125
0
LINE
8
BLACK
6
CONTINUOUS
10
303.958
20
-22.5425
11
303.958
21
-20.0025
0
LINE
8
BLACK
6
CONTINUOUS
10
301.418
20
-22.5425
11
303.958
21
-22.5425
0
CIRCLE
8
BLACK
10
269.24
20
5.08
40
1.524
0
CIRCLE
8
BLACK
10
262.89
20
2.54
40
1.524
0
ARC
8
BLACK
10
262.7
20
4.5
40
2.5
50
90
51
180
0
ARC
8
BLACK
10
266.3
20
0.600001
40
2
50
-270
51
-180
0
LINE
8
BLACK
6
CONTINUOUS
10
260.858
20
3.81
11
258.318
21
3.81
0
LINE
8
BLACK
6
CONTINUOUS
10
271.272
20
3.81
11
271.272
21
6.35
0
LINE
8
BLACK
6
CONTINUOUS
10
272
20
7
11
272
21
2.6
0
LINE
8
BLACK
6
CONTINUOUS
10
260.2
20
0.6
11
264.3
21
0.6
0
LINE
8
BLACK
6
CONTINUOUS
10
271.272
20
6.35
11
273.812
21
6.35
0
LINE
8
BLACK
6
CONTINUOUS
10
272
20
7
11
262.7
21
7
0
LINE
8
BLACK
6
CONTINUOUS
10
258.318
20
3.81
11
258.318
21
1.27
0
LINE
8
BLACK
6
CONTINUOUS
10
260.2
20
4.5
11
260.2
21
0.6
0
LINE
8
BLACK
6
CONTINUOUS
10
273.812
20
3.81
11
271.272
21
3.81
0
LINE
8
BLACK
6
CONTINUOUS
10
258.318
20
1.27
11
260.858
21
1.27
0
LINE
8
BLACK
6
CONTINUOUS
10
273.812
20
6.35
11
273.812
21
3.81
0
LINE
8
BLACK
6
CONTINUOUS
10
260.858
20
1.27
11
260.858
21
3.81
0
LINE
8
BLACK
6
CONTINUOUS
10
266.3
20
2.6
11
272
21
2.6
0
CIRCLE
8
BLACK
10
207.327
20
-56.8325
40
1.524
0
CIRCLE
8
BLACK
10
200.977
20
-59.3725
40
1.524
0
ARC
8
BLACK
10
200.787
20
-57.4125
40
2.5
50
90
51
180
0
ARC
8
BLACK
10
204.387
20
-61.3125
40
2
50
-270
51
-180
0
LINE
8
BLACK
6
CONTINUOUS
10
210.087
20
-54.9125
11
210.087
21
-59.3125
0
LINE
8
BLACK
6
CONTINUOUS
10
196.405
20
-58.1025
11
196.405
21
-60.6425
0
LINE
8
BLACK
6
CONTINUOUS
10
198.945
20
-58.1025
11
196.405
21
-58.1025
0
LINE
8
BLACK
6
CONTINUOUS
10
210.087
20
-54.9125
11
200.787
21
-54.9125
0
LINE
8
BLACK
6
CONTINUOUS
10
211.899
20
-55.5625
11
211.899
21
-58.1025
0
LINE
8
BLACK
6
CONTINUOUS
10
204.387
20
-59.3125
11
210.087
21
-59.3125
0
LINE
8
BLACK
6
CONTINUOUS
10
198.287
20
-57.4125
11
198.287
21
-61.3125
0
LINE
8
BLACK
6
CONTINUOUS
10
211.899
20
-58.1025
11
209.359
21
-58.1025
0
LINE
8
BLACK
6
CONTINUOUS
10
209.359
20
-55.5625
11
211.899
21
-55.5625
0
LINE
8
BLACK
6
CONTINUOUS
10
198.945
20
-60.6425
11
198.945
21
-58.1025
0
LINE
8
BLACK
6
CONTINUOUS
10
198.287
20
-61.3125
11
202.387
21
-61.3125
0
LINE
8
BLACK
6
CONTINUOUS
10
209.359
20
-58.1025
11
209.359
21
-55.5625
0
LINE
8
BLACK
6
CONTINUOUS
10
196.405
20
-60.6425
11
198.945
21
-60.6425
0
CIRCLE
8
BLACK
10
43.815
20
-40.3225
40
1.524
0
CIRCLE
8
BLACK
10
50.165
20
-37.7825
40
1.524
0
ARC
8
BLACK
10
43.625
20
-38.3625
40
2.5
50
90
51
180
0
ARC
8
BLACK
10
47.225
20
-42.2625
40
2
50
-270
51
-180
0
LINE
8
BLACK
6
CONTINUOUS
10
47.225
20
-40.2625
11
52.925
21
-40.2625
0
LINE
8
BLACK
6
CONTINUOUS
10
41.783
20
-41.5925
11
41.783
21
-39.0525
0
LINE
8
BLACK
6
CONTINUOUS
10
52.197
20
-39.0525
11
52.197
21
-36.5125
0
LINE
8
BLACK
6
CONTINUOUS
10
52.925
20
-35.8625
11
43.625
21
-35.8625
0
LINE
8
BLACK
6
CONTINUOUS
10
54.737
20
-36.5125
11
54.737
21
-39.0525
0
LINE
8
BLACK
6
CONTINUOUS
10
39.243
20
-39.0525
11
39.243
21
-41.5925
0
LINE
8
BLACK
6
CONTINUOUS
10
52.925
20
-35.8625
11
52.925
21
-40.2625
0
LINE
8
BLACK
6
CONTINUOUS
10
41.125
20
-38.3625
11
41.125
21
-42.2625
0
LINE
8
BLACK
6
CONTINUOUS
10
41.783
20
-39.0525
11
39.243
21
-39.0525
0
LINE
8
BLACK
6
CONTINUOUS
10
39.243
20
-41.5925
11
41.783
21
-41.5925
0
LINE
8
BLACK
6
CONTINUOUS
10
54.737
20
-39.0525
11
52.197
21
-39.0525
0
LINE
8
BLACK
6
CONTINUOUS
10
41.125
20
-42.2625
11
45.225
21
-42.2625
0
LINE
8
BLACK
6
CONTINUOUS
10
52.197
20
-36.5125
11
54.737
21
-36.5125
0
CIRCLE
8
BLACK
10
64.4525
20
-75.8825
40
1.524
0
CIRCLE
8
BLACK
10
58.1025
20
-78.4225
40
1.524
0
ARC
8
BLACK
10
61.5125
20
-80.3625
40
2
50
-270
51
-180
0
ARC
8
BLACK
10
57.9125
20
-76.4625
40
2.5
50
90
51
180
0
LINE
8
BLACK
6
CONTINUOUS
10
56.0705
20
-77.1525
11
53.5305
21
-77.1525
0
LINE
8
BLACK
6
CONTINUOUS
10
53.5305
20
-77.1525
11
53.5305
21
-79.6925
0
LINE
8
BLACK
6
CONTINUOUS
10
61.5125
20
-78.3625
11
67.2125
21
-78.3625
0
LINE
8
BLACK
6
CONTINUOUS
10
66.4845
20
-74.6125
11
69.0245
21
-74.6125
0
LINE
8
BLACK
6
CONTINUOUS
10
53.5305
20
-79.6925
11
56.0705
21
-79.6925
0
LINE
8
BLACK
6
CONTINUOUS
10
69.0245
20
-74.6125
11
69.0245
21
-77.1525
0
LINE
8
BLACK
6
CONTINUOUS
10
67.2125
20
-73.9625
11
57.9125
21
-73.9625
0
LINE
8
BLACK
6
CONTINUOUS
10
55.4125
20
-80.3625
11
59.5125
21
-80.3625
0
LINE
8
BLACK
6
CONTINUOUS
10
66.4845
20
-77.1525
11
66.4845
21
-74.6125
0
LINE
8
BLACK
6
CONTINUOUS
10
56.0705
20
-79.6925
11
56.0705
21
-77.1525
0
LINE
8
BLACK
6
CONTINUOUS
10
69.0245
20
-77.1525
11
66.4845
21
-77.1525
0
LINE
8
BLACK
6
CONTINUOUS
10
55.4125
20
-76.4625
11
55.4125
21
-80.3625
0
LINE
8
BLACK
6
CONTINUOUS
10
67.2125
20
-73.9625
11
67.2125
21
-78.3625
0
CIRCLE
8
BLACK
10
246.221
20
-78.4225
40
1.524
0
CIRCLE
8
BLACK
10
252.571
20
-75.8825
40
1.524
0
ARC
8
BLACK
10
249.631
20
-80.3625
40
2
50
-270
51
-180
0
ARC
8
BLACK
10
246.031
20
-76.4625
40
2.5
50
90
51
180
0
LINE
8
BLACK
6
CONTINUOUS
10
254.603
20
-74.6125
11
257.143
21
-74.6125
0
LINE
8
BLACK
6
CONTINUOUS
10
249.631
20
-78.3625
11
255.331
21
-78.3625
0
LINE
8
BLACK
6
CONTINUOUS
10
244.189
20
-77.1525
11
244.189
21
-79.6925
0
LINE
8
BLACK
6
CONTINUOUS
10
241.649
20
-79.6925
11
241.649
21
-77.1525
0
LINE
8
BLACK
6
CONTINUOUS
10
243.531
20
-80.3625
11
247.631
21
-80.3625
0
LINE
8
BLACK
6
CONTINUOUS
10
243.531
20
-76.4625
11
243.531
21
-80.3625
0
LINE
8
BLACK
6
CONTINUOUS
10
244.189
20
-79.6925
11
241.649
21
-79.6925
0
LINE
8
BLACK
6
CONTINUOUS
10
257.143
20
-74.6125
11
257.143
21
-77.1525
0
LINE
8
BLACK
6
CONTINUOUS
10
257.143
20
-77.1525
11
254.603
21
-77.1525
0
LINE
8
BLACK
6
CONTINUOUS
10
255.331
20
-73.9625
11
246.031
21
-73.9625
0
LINE
8
BLACK
6
CONTINUOUS
10
241.649
20
-77.1525
11
244.189
21
-77.1525
0
LINE
8
BLACK
6
CONTINUOUS
10
254.603
20
-77.1525
11
254.603
21
-74.6125
0
LINE
8
BLACK
6
CONTINUOUS
10
255.331
20
-73.9625
11
255.331
21
-78.3625
0
CIRCLE
8
BLACK
10
205.74
20
-21.2725
40
1.524
0
CIRCLE
8
BLACK
10
212.09
20
-18.7325
40
1.524
0
ARC
8
BLACK
10
209.15
20
-23.2125
40
2
50
-270
51
-180
0
ARC
8
BLACK
10
205.55
20
-19.3125
40
2.5
50
90
51
180
0
LINE
8
BLACK
6
CONTINUOUS
10
203.708
20
-20.0025
11
201.168
21
-20.0025
0
LINE
8
BLACK
6
CONTINUOUS
10
209.15
20
-21.2125
11
214.85
21
-21.2125
0
LINE
8
BLACK
6
CONTINUOUS
10
216.662
20
-17.4625
11
216.662
21
-20.0025
0
LINE
8
BLACK
6
CONTINUOUS
10
201.168
20
-22.5425
11
203.708
21
-22.5425
0
LINE
8
BLACK
6
CONTINUOUS
10
216.662
20
-20.0025
11
214.122
21
-20.0025
0
LINE
8
BLACK
6
CONTINUOUS
10
214.122
20
-17.4625
11
216.662
21
-17.4625
0
LINE
8
BLACK
6
CONTINUOUS
10
203.708
20
-22.5425
11
203.708
21
-20.0025
0
LINE
8
BLACK
6
CONTINUOUS
10
203.05
20
-19.3125
11
203.05
21
-23.2125
0
LINE
8
BLACK
6
CONTINUOUS
10
214.122
20
-20.0025
11
214.122
21
-17.4625
0
LINE
8
BLACK
6
CONTINUOUS
10
201.168
20
-20.0025
11
201.168
21
-22.5425
0
LINE
8
BLACK
6
CONTINUOUS
10
214.85
20
-16.8125
11
214.85
21
-21.2125
0
LINE
8
BLACK
6
CONTINUOUS
10
203.05
20
-23.2125
11
207.15
21
-23.2125
0
LINE
8
BLACK
6
CONTINUOUS
10
214.85
20
-16.8125
11
205.55
21
-16.8125
0
CIRCLE
8
BLACK
10
29.5275
20
-59.3725
40
1.524
0
CIRCLE
8
BLACK
10
35.8775
20
-56.8325
40
1.524
0
ARC
8
BLACK
10
32.9375
20
-61.3125
40
2
50
-270
51
-180
0
ARC
8
BLACK
10
29.3375
20
-57.4125
40
2.5
50
90
51
180
0
LINE
8
BLACK
6
CONTINUOUS
10
27.4955
20
-58.1025
11
24.9555
21
-58.1025
0
LINE
8
BLACK
6
CONTINUOUS
10
26.8375
20
-61.3125
11
30.9375
21
-61.3125
0
LINE
8
BLACK
6
CONTINUOUS
10
40.4495
20
-55.5625
11
40.4495
21
-58.1025
0
LINE
8
BLACK
6
CONTINUOUS
10
27.4955
20
-60.6425
11
27.4955
21
-58.1025
0
LINE
8
BLACK
6
CONTINUOUS
10
37.9095
20
-58.1025
11
37.9095
21
-55.5625
0
LINE
8
BLACK
6
CONTINUOUS
10
38.6375
20
-54.9125
11
38.6375
21
-59.3125
0
LINE
8
BLACK
6
CONTINUOUS
10
24.9555
20
-58.1025
11
24.9555
21
-60.6425
0
LINE
8
BLACK
6
CONTINUOUS
10
32.9375
20
-59.3125
11
38.6375
21
-59.3125
0
LINE
8
BLACK
6
CONTINUOUS
10
37.9095
20
-55.5625
11
40.4495
21
-55.5625
0
LINE
8
BLACK
6
CONTINUOUS
10
40.4495
20
-58.1025
11
37.9095
21
-58.1025
0
LINE
8
BLACK
6
CONTINUOUS
10
24.9555
20
-60.6425
11
27.4955
21
-60.6425
0
LINE
8
BLACK
6
CONTINUOUS
10
38.6375
20
-54.9125
11
29.3375
21
-54.9125
0
LINE
8
BLACK
6
CONTINUOUS
10
26.8375
20
-57.4125
11
26.8375
21
-61.3125
0
CIRCLE
8
BLACK
10
73.9775
20
-56.8325
40
1.524
0
CIRCLE
8
BLACK
10
67.6275
20
-59.3725
40
1.524
0
ARC
8
BLACK
10
67.4375
20
-57.4125
40
2.5
50
90
51
180
0
ARC
8
BLACK
10
71.0375
20
-61.3125
40
2
50
-270
51
-180
0
LINE
8
BLACK
6
CONTINUOUS
10
63.0555
20
-58.1025
11
63.0555
21
-60.6425
0
LINE
8
BLACK
6
CONTINUOUS
10
64.9375
20
-61.3125
11
69.0375
21
-61.3125
0
LINE
8
BLACK
6
CONTINUOUS
10
64.9375
20
-57.4125
11
64.9375
21
-61.3125
0
LINE
8
BLACK
6
CONTINUOUS
10
76.0095
20
-58.1025
11
76.0095
21
-55.5625
0
LINE
8
BLACK
6
CONTINUOUS
10
65.5955
20
-60.6425
11
65.5955
21
-58.1025
0
LINE
8
BLACK
6
CONTINUOUS
10
78.5495
20
-55.5625
11
78.5495
21
-58.1025
0
LINE
8
BLACK
6
CONTINUOUS
10
63.0555
20
-60.6425
11
65.5955
21
-60.6425
0
LINE
8
BLACK
6
CONTINUOUS
10
71.0375
20
-59.3125
11
76.7375
21
-59.3125
0
LINE
8
BLACK
6
CONTINUOUS
10
76.0095
20
-55.5625
11
78.5495
21
-55.5625
0
LINE
8
BLACK
6
CONTINUOUS
10
76.7375
20
-54.9125
11
67.4375
21
-54.9125
0
LINE
8
BLACK
6
CONTINUOUS
10
65.5955
20
-58.1025
11
63.0555
21
-58.1025
0
LINE
8
BLACK
6
CONTINUOUS
10
76.7375
20
-54.9125
11
76.7375
21
-59.3125
0
LINE
8
BLACK
6
CONTINUOUS
10
78.5495
20
-58.1025
11
76.0095
21
-58.1025
0
CIRCLE
8
BLACK
10
177.165
20
2.54
40
1.524
0
CIRCLE
8
BLACK
10
183.515
20
5.08
40
1.524
0
ARC
8
BLACK
10
180.575
20
0.600001
40
2
50
-270
51
-180
0
ARC
8
BLACK
10
176.975
20
4.5
40
2.5
50
90
51
180
0
LINE
8
BLACK
6
CONTINUOUS
10
180.575
20
2.6
11
186.275
21
2.6
0
LINE
8
BLACK
6
CONTINUOUS
10
172.593
20
3.81
11
172.593
21
1.27
0
LINE
8
BLACK
6
CONTINUOUS
10
186.275
20
7
11
186.275
21
2.6
0
LINE
8
BLACK
6
CONTINUOUS
10
172.593
20
1.27
11
175.133
21
1.27
0
LINE
8
BLACK
6
CONTINUOUS
10
188.087
20
3.81
11
185.547
21
3.81
0
LINE
8
BLACK
6
CONTINUOUS
10
185.547
20
6.35
11
188.087
21
6.35
0
LINE
8
BLACK
6
CONTINUOUS
10
185.547
20
3.81
11
185.547
21
6.35
0
LINE
8
BLACK
6
CONTINUOUS
10
174.475
20
0.6
11
178.575
21
0.6
0
LINE
8
BLACK
6
CONTINUOUS
10
175.133
20
3.81
11
172.593
21
3.81
0
LINE
8
BLACK
6
CONTINUOUS
10
188.087
20
6.35
11
188.087
21
3.81
0
LINE
8
BLACK
6
CONTINUOUS
10
186.275
20
7
11
176.975
21
7
0
LINE
8
BLACK
6
CONTINUOUS
10
174.475
20
4.5
11
174.475
21
0.6
0
LINE
8
BLACK
6
CONTINUOUS
10
175.133
20
1.27
11
175.133
21
3.81
0
CIRCLE
8
BLACK
10
40.64
20
5.08
40
1.524
0
CIRCLE
8
BLACK
10
34.29
20
2.54
40
1.524
0
ARC
8
BLACK
10
37.7
20
0.600001
40
2
50
-270
51
-180
0
ARC
8
BLACK
10
34.1
20
4.5
40
2.5
50
90
51
180
0
LINE
8
BLACK
6
CONTINUOUS
10
31.6
20
4.5
11
31.6
21
0.6
0
LINE
8
BLACK
6
CONTINUOUS
10
43.4
20
7
11
34.1
21
7
0
LINE
8
BLACK
6
CONTINUOUS
10
29.718
20
1.27
11
32.258
21
1.27
0
LINE
8
BLACK
6
CONTINUOUS
10
37.7
20
2.6
11
43.4
21
2.6
0
LINE
8
BLACK
6
CONTINUOUS
10
42.672
20
3.81
11
42.672
21
6.35
0
LINE
8
BLACK
6
CONTINUOUS
10
42.672
20
6.35
11
45.212
21
6.35
0
LINE
8
BLACK
6
CONTINUOUS
10
32.258
20
3.81
11
29.718
21
3.81
0
LINE
8
BLACK
6
CONTINUOUS
10
31.6
20
0.6
11
35.7
21
0.6
0
LINE
8
BLACK
6
CONTINUOUS
10
45.212
20
6.35
11
45.212
21
3.81
0
LINE
8
BLACK
6
CONTINUOUS
10
45.212
20
3.81
11
42.672
21
3.81
0
LINE
8
BLACK
6
CONTINUOUS
10
43.4
20
7
11
43.4
21
2.6
0
LINE
8
BLACK
6
CONTINUOUS
10
32.258
20
1.27
11
32.258
21
3.81
0
LINE
8
BLACK
6
CONTINUOUS
10
29.718
20
3.81
11
29.718
21
1.27
0
CIRCLE
8
BLACK
10
216.852
20
-75.8825
40
1.524
0
CIRCLE
8
BLACK
10
210.502
20
-78.4225
40
1.524
0
ARC
8
BLACK
10
210.312
20
-76.4625
40
2.5
50
90
51
180
0
ARC
8
BLACK
10
213.912
20
-80.3625
40
2
50
-270
51
-180
0
LINE
8
BLACK
6
CONTINUOUS
10
208.47
20
-79.6925
11
208.47
21
-77.1525
0
LINE
8
BLACK
6
CONTINUOUS
10
221.424
20
-74.6125
11
221.424
21
-77.1525
0
LINE
8
BLACK
6
CONTINUOUS
10
218.885
20
-74.6125
11
221.424
21
-74.6125
0
LINE
8
BLACK
6
CONTINUOUS
10
219.612
20
-73.9625
11
210.312
21
-73.9625
0
LINE
8
BLACK
6
CONTINUOUS
10
208.47
20
-77.1525
11
205.93
21
-77.1525
0
LINE
8
BLACK
6
CONTINUOUS
10
207.812
20
-76.4625
11
207.812
21
-80.3625
0
LINE
8
BLACK
6
CONTINUOUS
10
205.93
20
-79.6925
11
208.47
21
-79.6925
0
LINE
8
BLACK
6
CONTINUOUS
10
213.912
20
-78.3625
11
219.612
21
-78.3625
0
LINE
8
BLACK
6
CONTINUOUS
10
207.812
20
-80.3625
11
211.912
21
-80.3625
0
LINE
8
BLACK
6
CONTINUOUS
10
218.885
20
-77.1525
11
218.885
21
-74.6125
0
LINE
8
BLACK
6
CONTINUOUS
10
221.424
20
-77.1525
11
218.885
21
-77.1525
0
LINE
8
BLACK
6
CONTINUOUS
10
219.612
20
-73.9625
11
219.612
21
-78.3625
0
LINE
8
BLACK
6
CONTINUOUS
10
205.93
20
-77.1525
11
205.93
21
-79.6925
0
CIRCLE
8
BLACK
10
120.015
20
2.54
40
1.524
0
CIRCLE
8
BLACK
10
126.365
20
5.08
40
1.524
0
ARC
8
BLACK
10
123.425
20
0.600001
40
2
50
-270
51
-180
0
ARC
8
BLACK
10
119.825
20
4.5
40
2.5
50
90
51
180
0
LINE
8
BLACK
6
CONTINUOUS
10
130.937
20
3.81
11
128.397
21
3.81
0
LINE
8
BLACK
6
CONTINUOUS
10
129.125
20
7
11
129.125
21
2.6
0
LINE
8
BLACK
6
CONTINUOUS
10
117.325
20
4.5
11
117.325
21
0.6
0
LINE
8
BLACK
6
CONTINUOUS
10
128.397
20
3.81
11
128.397
21
6.35
0
LINE
8
BLACK
6
CONTINUOUS
10
117.983
20
3.81
11
115.443
21
3.81
0
LINE
8
BLACK
6
CONTINUOUS
10
123.425
20
2.6
11
129.125
21
2.6
0
LINE
8
BLACK
6
CONTINUOUS
10
117.983
20
1.27
11
117.983
21
3.81
0
LINE
8
BLACK
6
CONTINUOUS
10
115.443
20
1.27
11
117.983
21
1.27
0
LINE
8
BLACK
6
CONTINUOUS
10
130.937
20
6.35
11
130.937
21
3.81
0
LINE
8
BLACK
6
CONTINUOUS
10
129.125
20
7
11
119.825
21
7
0
LINE
8
BLACK
6
CONTINUOUS
10
117.325
20
0.6
11
121.425
21
0.6
0
LINE
8
BLACK
6
CONTINUOUS
10
115.443
20
3.81
11
115.443
21
1.27
0
LINE
8
BLACK
6
CONTINUOUS
10
128.397
20
6.35
11
130.937
21
6.35
0
CIRCLE
8
BLACK
10
86.6775
20
-59.3725
40
1.524
0
CIRCLE
8
BLACK
10
93.0275
20
-56.8325
40
1.524
0
ARC
8
BLACK
10
86.4875
20
-57.4125
40
2.5
50
90
51
180
0
ARC
8
BLACK
10
90.0875
20
-61.3125
40
2
50
-270
51
-180
0
LINE
8
BLACK
6
CONTINUOUS
10
84.6455
20
-60.6425
11
84.6455
21
-58.1025
0
LINE
8
BLACK
6
CONTINUOUS
10
95.0595
20
-55.5625
11
97.5995
21
-55.5625
0
LINE
8
BLACK
6
CONTINUOUS
10
82.1055
20
-60.6425
11
84.6455
21
-60.6425
0
LINE
8
BLACK
6
CONTINUOUS
10
83.9875
20
-61.3125
11
88.0875
21
-61.3125
0
LINE
8
BLACK
6
CONTINUOUS
10
83.9875
20
-57.4125
11
83.9875
21
-61.3125
0
LINE
8
BLACK
6
CONTINUOUS
10
97.5995
20
-58.1025
11
95.0595
21
-58.1025
0
LINE
8
BLACK
6
CONTINUOUS
10
95.0595
20
-58.1025
11
95.0595
21
-55.5625
0
LINE
8
BLACK
6
CONTINUOUS
10
82.1055
20
-58.1025
11
82.1055
21
-60.6425
0
LINE
8
BLACK
6
CONTINUOUS
10
97.5995
20
-55.5625
11
97.5995
21
-58.1025
0
LINE
8
BLACK
6
CONTINUOUS
10
95.7875
20
-54.9125
11
95.7875
21
-59.3125
0
LINE
8
BLACK
6
CONTINUOUS
10
95.7875
20
-54.9125
11
86.4875
21
-54.9125
0
LINE
8
BLACK
6
CONTINUOUS
10
84.6455
20
-58.1025
11
82.1055
21
-58.1025
0
LINE
8
BLACK
6
CONTINUOUS
10
90.0875
20
-59.3125
11
95.7875
21
-59.3125
0
CIRCLE
8
BLACK
10
145.415
20
-37.7825
40
1.524
0
CIRCLE
8
BLACK
10
139.065
20
-40.3225
40
1.524
0
ARC
8
BLACK
10
138.875
20
-38.3625
40
2.5
50
90
51
180
0
ARC
8
BLACK
10
142.475
20
-42.2625
40
2
50
-270
51
-180
0
LINE
8
BLACK
6
CONTINUOUS
10
137.033
20
-41.5925
11
137.033
21
-39.0525
0
LINE
8
BLACK
6
CONTINUOUS
10
136.375
20
-38.3625
11
136.375
21
-42.2625
0
LINE
8
BLACK
6
CONTINUOUS
10
148.175
20
-35.8625
11
148.175
21
-40.2625
0
LINE
8
BLACK
6
CONTINUOUS
10
149.987
20
-39.0525
11
147.447
21
-39.0525
0
LINE
8
BLACK
6
CONTINUOUS
10
149.987
20
-36.5125
11
149.987
21
-39.0525
0
LINE
8
BLACK
6
CONTINUOUS
10
148.175
20
-35.8625
11
138.875
21
-35.8625
0
LINE
8
BLACK
6
CONTINUOUS
10
134.493
20
-41.5925
11
137.033
21
-41.5925
0
LINE
8
BLACK
6
CONTINUOUS
10
142.475
20
-40.2625
11
148.175
21
-40.2625
0
LINE
8
BLACK
6
CONTINUOUS
10
136.375
20
-42.2625
11
140.475
21
-42.2625
0
LINE
8
BLACK
6
CONTINUOUS
10
147.447
20
-36.5125
11
149.987
21
-36.5125
0
LINE
8
BLACK
6
CONTINUOUS
10
134.493
20
-39.0525
11
134.493
21
-41.5925
0
LINE
8
BLACK
6
CONTINUOUS
10
147.447
20
-39.0525
11
147.447
21
-36.5125
0
LINE
8
BLACK
6
CONTINUOUS
10
137.033
20
-39.0525
11
134.493
21
-39.0525
0
CIRCLE
8
BLACK
10
135.89
20
-94.9325
40
1.524
0
CIRCLE
8
BLACK
10
129.54
20
-97.4725
40
1.524
0
ARC
8
BLACK
10
132.95
20
-99.4125
40
2
50
-270
51
-180
0
ARC
8
BLACK
10
129.35
20
-95.5125
40
2.5
50
90
51
180
0
LINE
8
BLACK
6
CONTINUOUS
10
137.922
20
-93.6625
11
140.462
21
-93.6625
0
LINE
8
BLACK
6
CONTINUOUS
10
126.85
20
-95.5125
11
126.85
21
-99.4125
0
LINE
8
BLACK
6
CONTINUOUS
10
126.85
20
-99.4125
11
130.95
21
-99.4125
0
LINE
8
BLACK
6
CONTINUOUS
10
138.65
20
-93.0125
11
138.65
21
-97.4125
0
LINE
8
BLACK
6
CONTINUOUS
10
137.922
20
-96.2025
11
137.922
21
-93.6625
0
LINE
8
BLACK
6
CONTINUOUS
10
140.462
20
-96.2025
11
137.922
21
-96.2025
0
LINE
8
BLACK
6
CONTINUOUS
10
140.462
20
-93.6625
11
140.462
21
-96.2025
0
LINE
8
BLACK
6
CONTINUOUS
10
124.968
20
-98.7425
11
124.968
21
-96.2025
0
LINE
8
BLACK
6
CONTINUOUS
10
138.65
20
-93.0125
11
129.35
21
-93.0125
0
LINE
8
BLACK
6
CONTINUOUS
10
132.95
20
-97.4125
11
138.65
21
-97.4125
0
LINE
8
BLACK
6
CONTINUOUS
10
127.508
20
-98.7425
11
124.968
21
-98.7425
0
LINE
8
BLACK
6
CONTINUOUS
10
127.508
20
-96.2025
11
127.508
21
-98.7425
0
LINE
8
BLACK
6
CONTINUOUS
10
124.968
20
-96.2025
11
127.508
21
-96.2025
0
CIRCLE
8
BLACK
10
231.14
20
-18.7325
40
1.524
0
CIRCLE
8
BLACK
10
224.79
20
-21.2725
40
1.524
0
ARC
8
BLACK
10
224.6
20
-19.3125
40
2.5
50
90
51
180
0
ARC
8
BLACK
10
228.2
20
-23.2125
40
2
50
-270
51
-180
0
LINE
8
BLACK
6
CONTINUOUS
10
222.1
20
-19.3125
11
222.1
21
-23.2125
0
LINE
8
BLACK
6
CONTINUOUS
10
233.9
20
-16.8125
11
233.9
21
-21.2125
0
LINE
8
BLACK
6
CONTINUOUS
10
233.172
20
-20.0025
11
233.172
21
-17.4625
0
LINE
8
BLACK
6
CONTINUOUS
10
222.1
20
-23.2125
11
226.2
21
-23.2125
0
LINE
8
BLACK
6
CONTINUOUS
10
235.712
20
-17.4625
11
235.712
21
-20.0025
0
LINE
8
BLACK
6
CONTINUOUS
10
233.172
20
-17.4625
11
235.712
21
-17.4625
0
LINE
8
BLACK
6
CONTINUOUS
10
222.758
20
-22.5425
11
222.758
21
-20.0025
0
LINE
8
BLACK
6
CONTINUOUS
10
222.758
20
-20.0025
11
220.218
21
-20.0025
0
LINE
8
BLACK
6
CONTINUOUS
10
228.2
20
-21.2125
11
233.9
21
-21.2125
0
LINE
8
BLACK
6
CONTINUOUS
10
235.712
20
-20.0025
11
233.172
21
-20.0025
0
LINE
8
BLACK
6
CONTINUOUS
10
233.9
20
-16.8125
11
224.6
21
-16.8125
0
LINE
8
BLACK
6
CONTINUOUS
10
220.218
20
-20.0025
11
220.218
21
-22.5425
0
LINE
8
BLACK
6
CONTINUOUS
10
220.218
20
-22.5425
11
222.758
21
-22.5425
0
CIRCLE
8
BLACK
10
216.852
20
-94.9325
40
1.524
0
CIRCLE
8
BLACK
10
210.502
20
-97.4725
40
1.524
0
ARC
8
BLACK
10
210.312
20
-95.5125
40
2.5
50
90
51
180
0
ARC
8
BLACK
10
213.912
20
-99.4125
40
2
50
-270
51
-180
0
LINE
8
BLACK
6
CONTINUOUS
10
218.885
20
-93.6625
11
221.424
21
-93.6625
0
LINE
8
BLACK
6
CONTINUOUS
10
221.424
20
-93.6625
11
221.424
21
-96.2025
0
LINE
8
BLACK
6
CONTINUOUS
10
205.93
20
-96.2025
11
208.47
21
-96.2025
0
LINE
8
BLACK
6
CONTINUOUS
10
219.612
20
-93.0125
11
219.612
21
-97.4125
0
LINE
8
BLACK
6
CONTINUOUS
10
213.912
20
-97.4125
11
219.612
21
-97.4125
0
LINE
8
BLACK
6
CONTINUOUS
10
207.812
20
-99.4125
11
211.912
21
-99.4125
0
LINE
8
BLACK
6
CONTINUOUS
10
207.812
20
-95.5125
11
207.812
21
-99.4125
0
LINE
8
BLACK
6
CONTINUOUS
10
205.93
20
-98.7425
11
205.93
21
-96.2025
0
LINE
8
BLACK
6
CONTINUOUS
10
208.47
20
-96.2025
11
208.47
21
-98.7425
0
LINE
8
BLACK
6
CONTINUOUS
10
208.47
20
-98.7425
11
205.93
21
-98.7425
0
LINE
8
BLACK
6
CONTINUOUS
10
218.885
20
-96.2025
11
218.885
21
-93.6625
0
LINE
8
BLACK
6
CONTINUOUS
10
219.612
20
-93.0125
11
210.312
21
-93.0125
0
LINE
8
BLACK
6
CONTINUOUS
10
221.424
20
-96.2025
11
218.885
21
-96.2025
0
CIRCLE
8
BLACK
10
115.252
20
-78.4225
40
1.524
0
CIRCLE
8
BLACK
10
121.602
20
-75.8825
40
1.524
0
ARC
8
BLACK
10
115.062
20
-76.4625
40
2.5
50
90
51
180
0
ARC
8
BLACK
10
118.662
20
-80.3625
40
2
50
-270
51
-180
0
LINE
8
BLACK
6
CONTINUOUS
10
112.562
20
-80.3625
11
116.662
21
-80.3625
0
LINE
8
BLACK
6
CONTINUOUS
10
123.634
20
-74.6125
11
126.174
21
-74.6125
0
LINE
8
BLACK
6
CONTINUOUS
10
126.174
20
-77.1525
11
123.634
21
-77.1525
0
LINE
8
BLACK
6
CONTINUOUS
10
112.562
20
-76.4625
11
112.562
21
-80.3625
0
LINE
8
BLACK
6
CONTINUOUS
10
110.68
20
-79.6925
11
113.221
21
-79.6925
0
LINE
8
BLACK
6
CONTINUOUS
10
126.174
20
-74.6125
11
126.174
21
-77.1525
0
LINE
8
BLACK
6
CONTINUOUS
10
110.68
20
-77.1525
11
110.68
21
-79.6925
0
LINE
8
BLACK
6
CONTINUOUS
10
118.662
20
-78.3625
11
124.362
21
-78.3625
0
LINE
8
BLACK
6
CONTINUOUS
10
124.362
20
-73.9625
11
124.362
21
-78.3625
0
LINE
8
BLACK
6
CONTINUOUS
10
124.362
20
-73.9625
11
115.062
21
-73.9625
0
LINE
8
BLACK
6
CONTINUOUS
10
123.634
20
-77.1525
11
123.634
21
-74.6125
0
LINE
8
BLACK
6
CONTINUOUS
10
113.221
20
-77.1525
11
110.68
21
-77.1525
0
LINE
8
BLACK
6
CONTINUOUS
10
113.221
20
-79.6925
11
113.221
21
-77.1525
0
CIRCLE
8
BLACK
10
21.59
20
-18.7325
40
1.524
0
CIRCLE
8
BLACK
10
15.24
20
-21.2725
40
1.524
0
ARC
8
BLACK
10
18.65
20
-23.2125
40
2
50
-270
51
-180
0
ARC
8
BLACK
10
15.05
20
-19.3125
40
2.5
50
90
51
180
0
LINE
8
BLACK
6
CONTINUOUS
10
12.55
20
-23.2125
11
16.65
21
-23.2125
0
LINE
8
BLACK
6
CONTINUOUS
10
26.162
20
-20.0025
11
23.622
21
-20.0025
0
LINE
8
BLACK
6
CONTINUOUS
10
23.622
20
-17.4625
11
26.162
21
-17.4625
0
LINE
8
BLACK
6
CONTINUOUS
10
10.668
20
-20.0025
11
10.668
21
-22.5425
0
LINE
8
BLACK
6
CONTINUOUS
10
23.622
20
-20.0025
11
23.622
21
-17.4625
0
LINE
8
BLACK
6
CONTINUOUS
10
18.65
20
-21.2125
11
24.35
21
-21.2125
0
LINE
8
BLACK
6
CONTINUOUS
10
24.35
20
-16.8125
11
24.35
21
-21.2125
0
LINE
8
BLACK
6
CONTINUOUS
10
24.35
20
-16.8125
11
15.05
21
-16.8125
0
LINE
8
BLACK
6
CONTINUOUS
10
26.162
20
-17.4625
11
26.162
21
-20.0025
0
LINE
8
BLACK
6
CONTINUOUS
10
10.668
20
-22.5425
11
13.208
21
-22.5425
0
LINE
8
BLACK
6
CONTINUOUS
10
13.208
20
-22.5425
11
13.208
21
-20.0025
0
LINE
8
BLACK
6
CONTINUOUS
10
13.208
20
-20.0025
11
10.668
21
-20.0025
0
LINE
8
BLACK
6
CONTINUOUS
10
12.55
20
-19.3125
11
12.55
21
-23.2125
0
CIRCLE
8
BLACK
10
131.127
20
-56.8325
40
1.524
0
CIRCLE
8
BLACK
10
124.777
20
-59.3725
40
1.524
0
ARC
8
BLACK
10
124.587
20
-57.4125
40
2.5
50
90
51
180
0
ARC
8
BLACK
10
128.187
20
-61.3125
40
2
50
-270
51
-180
0
LINE
8
BLACK
6
CONTINUOUS
10
133.159
20
-58.1025
11
133.159
21
-55.5625
0
LINE
8
BLACK
6
CONTINUOUS
10
135.7
20
-58.1025
11
133.159
21
-58.1025
0
LINE
8
BLACK
6
CONTINUOUS
10
133.159
20
-55.5625
11
135.7
21
-55.5625
0
LINE
8
BLACK
6
CONTINUOUS
10
120.206
20
-60.6425
11
122.745
21
-60.6425
0
LINE
8
BLACK
6
CONTINUOUS
10
122.745
20
-58.1025
11
120.206
21
-58.1025
0
LINE
8
BLACK
6
CONTINUOUS
10
133.887
20
-54.9125
11
124.587
21
-54.9125
0
LINE
8
BLACK
6
CONTINUOUS
10
122.087
20
-57.4125
11
122.087
21
-61.3125
0
LINE
8
BLACK
6
CONTINUOUS
10
133.887
20
-54.9125
11
133.887
21
-59.3125
0
LINE
8
BLACK
6
CONTINUOUS
10
128.188
20
-59.3125
11
133.887
21
-59.3125
0
LINE
8
BLACK
6
CONTINUOUS
10
122.087
20
-61.3125
11
126.188
21
-61.3125
0
LINE
8
BLACK
6
CONTINUOUS
10
120.206
20
-58.1025
11
120.206
21
-60.6425
0
LINE
8
BLACK
6
CONTINUOUS
10
135.7
20
-55.5625
11
135.7
21
-58.1025
0
LINE
8
BLACK
6
CONTINUOUS
10
122.745
20
-60.6425
11
122.745
21
-58.1025
0
CIRCLE
8
BLACK
10
34.29
20
-21.2725
40
1.524
0
CIRCLE
8
BLACK
10
40.64
20
-18.7325
40
1.524
0
ARC
8
BLACK
10
34.1
20
-19.3125
40
2.5
50
90
51
180
0
ARC
8
BLACK
10
37.7
20
-23.2125
40
2
50
-270
51
-180
0
LINE
8
BLACK
6
CONTINUOUS
10
45.212
20
-17.4625
11
45.212
21
-20.0025
0
LINE
8
BLACK
6
CONTINUOUS
10
31.6
20
-23.2125
11
35.7
21
-23.2125
0
LINE
8
BLACK
6
CONTINUOUS
10
32.258
20
-22.5425
11
32.258
21
-20.0025
0
LINE
8
BLACK
6
CONTINUOUS
10
45.212
20
-20.0025
11
42.672
21
-20.0025
0
LINE
8
BLACK
6
CONTINUOUS
10
37.7
20
-21.2125
11
43.4
21
-21.2125
0
LINE
8
BLACK
6
CONTINUOUS
10
29.718
20
-20.0025
11
29.718
21
-22.5425
0
LINE
8
BLACK
6
CONTINUOUS
10
32.258
20
-20.0025
11
29.718
21
-20.0025
0
LINE
8
BLACK
6
CONTINUOUS
10
31.6
20
-19.3125
11
31.6
21
-23.2125
0
LINE
8
BLACK
6
CONTINUOUS
10
43.4
20
-16.8125
11
34.1
21
-16.8125
0
LINE
8
BLACK
6
CONTINUOUS
10
43.4
20
-16.8125
11
43.4
21
-21.2125
0
LINE
8
BLACK
6
CONTINUOUS
10
29.718
20
-22.5425
11
32.258
21
-22.5425
0
LINE
8
BLACK
6
CONTINUOUS
10
42.672
20
-20.0025
11
42.672
21
-17.4625
0
LINE
8
BLACK
6
CONTINUOUS
10
42.672
20
-17.4625
11
45.212
21
-17.4625
0
CIRCLE
8
BLACK
10
140.653
20
-75.8825
40
1.524
0
CIRCLE
8
BLACK
10
134.302
20
-78.4225
40
1.524
0
ARC
8
BLACK
10
137.712
20
-80.3625
40
2
50
-270
51
-180
0
ARC
8
BLACK
10
134.112
20
-76.4625
40
2.5
50
90
51
180
0
LINE
8
BLACK
6
CONTINUOUS
10
129.731
20
-77.1525
11
129.731
21
-79.6925
0
LINE
8
BLACK
6
CONTINUOUS
10
132.27
20
-77.1525
11
129.731
21
-77.1525
0
LINE
8
BLACK
6
CONTINUOUS
10
145.225
20
-77.1525
11
142.684
21
-77.1525
0
LINE
8
BLACK
6
CONTINUOUS
10
131.612
20
-76.4625
11
131.612
21
-80.3625
0
LINE
8
BLACK
6
CONTINUOUS
10
132.27
20
-79.6925
11
132.27
21
-77.1525
0
LINE
8
BLACK
6
CONTINUOUS
10
143.412
20
-73.9625
11
134.112
21
-73.9625
0
LINE
8
BLACK
6
CONTINUOUS
10
142.684
20
-74.6125
11
145.225
21
-74.6125
0
LINE
8
BLACK
6
CONTINUOUS
10
129.731
20
-79.6925
11
132.27
21
-79.6925
0
LINE
8
BLACK
6
CONTINUOUS
10
145.225
20
-74.6125
11
145.225
21
-77.1525
0
LINE
8
BLACK
6
CONTINUOUS
10
131.612
20
-80.3625
11
135.713
21
-80.3625
0
LINE
8
BLACK
6
CONTINUOUS
10
137.713
20
-78.3625
11
143.412
21
-78.3625
0
LINE
8
BLACK
6
CONTINUOUS
10
142.684
20
-77.1525
11
142.684
21
-74.6125
0
LINE
8
BLACK
6
CONTINUOUS
10
143.412
20
-73.9625
11
143.412
21
-78.3625
0
CIRCLE
8
BLACK
10
197.802
20
-75.8825
40
1.524
0
CIRCLE
8
BLACK
10
191.452
20
-78.4225
40
1.524
0
ARC
8
BLACK
10
194.862
20
-80.3625
40
2
50
-270
51
-180
0
ARC
8
BLACK
10
191.262
20
-76.4625
40
2.5
50
90
51
180
0
LINE
8
BLACK
6
CONTINUOUS
10
189.421
20
-77.1525
11
186.88
21
-77.1525
0
LINE
8
BLACK
6
CONTINUOUS
10
186.88
20
-77.1525
11
186.88
21
-79.6925
0
LINE
8
BLACK
6
CONTINUOUS
10
189.421
20
-79.6925
11
189.421
21
-77.1525
0
LINE
8
BLACK
6
CONTINUOUS
10
188.762
20
-76.4625
11
188.762
21
-80.3625
0
LINE
8
BLACK
6
CONTINUOUS
10
199.834
20
-74.6125
11
202.374
21
-74.6125
0
LINE
8
BLACK
6
CONTINUOUS
10
199.834
20
-77.1525
11
199.834
21
-74.6125
0
LINE
8
BLACK
6
CONTINUOUS
10
188.762
20
-80.3625
11
192.862
21
-80.3625
0
LINE
8
BLACK
6
CONTINUOUS
10
202.374
20
-77.1525
11
199.834
21
-77.1525
0
LINE
8
BLACK
6
CONTINUOUS
10
186.88
20
-79.6925
11
189.421
21
-79.6925
0
LINE
8
BLACK
6
CONTINUOUS
10
194.862
20
-78.3625
11
200.562
21
-78.3625
0
LINE
8
BLACK
6
CONTINUOUS
10
200.562
20
-73.9625
11
191.262
21
-73.9625
0
LINE
8
BLACK
6
CONTINUOUS
10
202.374
20
-74.6125
11
202.374
21
-77.1525
0
LINE
8
BLACK
6
CONTINUOUS
10
200.562
20
-73.9625
11
200.562
21
-78.3625
0
CIRCLE
8
BLACK
10
81.915
20
-40.3225
40
1.524
0
CIRCLE
8
BLACK
10
88.265
20
-37.7825
40
1.524
0
ARC
8
BLACK
10
85.325
20
-42.2625
40
2
50
-270
51
-180
0
ARC
8
BLACK
10
81.725
20
-38.3625
40
2.5
50
90
51
180
0
LINE
8
BLACK
6
CONTINUOUS
10
91.025
20
-35.8625
11
91.025
21
-40.2625
0
LINE
8
BLACK
6
CONTINUOUS
10
79.225
20
-42.2625
11
83.325
21
-42.2625
0
LINE
8
BLACK
6
CONTINUOUS
10
90.297
20
-36.5125
11
92.837
21
-36.5125
0
LINE
8
BLACK
6
CONTINUOUS
10
92.837
20
-39.0525
11
90.297
21
-39.0525
0
LINE
8
BLACK
6
CONTINUOUS
10
79.883
20
-41.5925
11
79.883
21
-39.0525
0
LINE
8
BLACK
6
CONTINUOUS
10
91.025
20
-35.8625
11
81.725
21
-35.8625
0
LINE
8
BLACK
6
CONTINUOUS
10
79.883
20
-39.0525
11
77.343
21
-39.0525
0
LINE
8
BLACK
6
CONTINUOUS
10
77.343
20
-39.0525
11
77.343
21
-41.5925
0
LINE
8
BLACK
6
CONTINUOUS
10
85.325
20
-40.2625
11
91.025
21
-40.2625
0
LINE
8
BLACK
6
CONTINUOUS
10
92.837
20
-36.5125
11
92.837
21
-39.0525
0
LINE
8
BLACK
6
CONTINUOUS
10
90.297
20
-39.0525
11
90.297
21
-36.5125
0
LINE
8
BLACK
6
CONTINUOUS
10
79.225
20
-38.3625
11
79.225
21
-42.2625
0
LINE
8
BLACK
6
CONTINUOUS
10
77.343
20
-41.5925
11
79.883
21
-41.5925
0
CIRCLE
8
BLACK
10
183.515
20
-37.7825
40
1.524
0
CIRCLE
8
BLACK
10
177.165
20
-40.3225
40
1.524
0
ARC
8
BLACK
10
176.975
20
-38.3625
40
2.5
50
90
51
180
0
ARC
8
BLACK
10
180.575
20
-42.2625
40
2
50
-270
51
-180
0
LINE
8
BLACK
6
CONTINUOUS
10
186.275
20
-35.8625
11
186.275
21
-40.2625
0
LINE
8
BLACK
6
CONTINUOUS
10
172.593
20
-41.5925
11
175.133
21
-41.5925
0
LINE
8
BLACK
6
CONTINUOUS
10
180.575
20
-40.2625
11
186.275
21
-40.2625
0
LINE
8
BLACK
6
CONTINUOUS
10
172.593
20
-39.0525
11
172.593
21
-41.5925
0
LINE
8
BLACK
6
CONTINUOUS
10
188.087
20
-39.0525
11
185.547
21
-39.0525
0
LINE
8
BLACK
6
CONTINUOUS
10
174.475
20
-42.2625
11
178.575
21
-42.2625
0
LINE
8
BLACK
6
CONTINUOUS
10
186.275
20
-35.8625
11
176.975
21
-35.8625
0
LINE
8
BLACK
6
CONTINUOUS
10
188.087
20
-36.5125
11
188.087
21
-39.0525
0
LINE
8
BLACK
6
CONTINUOUS
10
175.133
20
-41.5925
11
175.133
21
-39.0525
0
LINE
8
BLACK
6
CONTINUOUS
10
185.547
20
-39.0525
11
185.547
21
-36.5125
0
LINE
8
BLACK
6
CONTINUOUS
10
185.547
20
-36.5125
11
188.087
21
-36.5125
0
LINE
8
BLACK
6
CONTINUOUS
10
174.475
20
-38.3625
11
174.475
21
-42.2625
0
LINE
8
BLACK
6
CONTINUOUS
10
175.133
20
-39.0525
11
172.593
21
-39.0525
0
CIRCLE
8
BLACK
10
59.69
20
5.08
40
1.524
0
CIRCLE
8
BLACK
10
53.34
20
2.54
40
1.524
0
ARC
8
BLACK
10
53.15
20
4.5
40
2.5
50
90
51
180
0
ARC
8
BLACK
10
56.75
20
0.600001
40
2
50
-270
51
-180
0
LINE
8
BLACK
6
CONTINUOUS
10
51.308
20
1.27
11
51.308
21
3.81
0
LINE
8
BLACK
6
CONTINUOUS
10
62.45
20
7
11
53.15
21
7
0
LINE
8
BLACK
6
CONTINUOUS
10
61.722
20
3.81
11
61.722
21
6.35
0
LINE
8
BLACK
6
CONTINUOUS
10
48.768
20
1.27
11
51.308
21
1.27
0
LINE
8
BLACK
6
CONTINUOUS
10
50.65
20
4.5
11
50.65
21
0.6
0
LINE
8
BLACK
6
CONTINUOUS
10
51.308
20
3.81
11
48.768
21
3.81
0
LINE
8
BLACK
6
CONTINUOUS
10
56.75
20
2.6
11
62.45
21
2.6
0
LINE
8
BLACK
6
CONTINUOUS
10
61.722
20
6.35
11
64.262
21
6.35
0
LINE
8
BLACK
6
CONTINUOUS
10
48.768
20
3.81
11
48.768
21
1.27
0
LINE
8
BLACK
6
CONTINUOUS
10
62.45
20
7
11
62.45
21
2.6
0
LINE
8
BLACK
6
CONTINUOUS
10
50.65
20
0.6
11
54.75
21
0.6
0
LINE
8
BLACK
6
CONTINUOUS
10
64.262
20
6.35
11
64.262
21
3.81
0
LINE
8
BLACK
6
CONTINUOUS
10
64.262
20
3.81
11
61.722
21
3.81
0
CIRCLE
8
BLACK
10
169.227
20
-56.8325
40
1.524
0
CIRCLE
8
BLACK
10
162.877
20
-59.3725
40
1.524
0
ARC
8
BLACK
10
166.287
20
-61.3125
40
2
50
-270
51
-180
0
ARC
8
BLACK
10
162.688
20
-57.4125
40
2.5
50
90
51
180
0
LINE
8
BLACK
6
CONTINUOUS
10
160.845
20
-60.6425
11
160.845
21
-58.1025
0
LINE
8
BLACK
6
CONTINUOUS
10
166.287
20
-59.3125
11
171.987
21
-59.3125
0
LINE
8
BLACK
6
CONTINUOUS
10
160.845
20
-58.1025
11
158.305
21
-58.1025
0
LINE
8
BLACK
6
CONTINUOUS
10
171.987
20
-54.9125
11
171.987
21
-59.3125
0
LINE
8
BLACK
6
CONTINUOUS
10
158.305
20
-58.1025
11
158.305
21
-60.6425
0
LINE
8
BLACK
6
CONTINUOUS
10
171.26
20
-58.1025
11
171.26
21
-55.5625
0
LINE
8
BLACK
6
CONTINUOUS
10
160.188
20
-57.4125
11
160.188
21
-61.3125
0
LINE
8
BLACK
6
CONTINUOUS
10
173.799
20
-55.5625
11
173.799
21
-58.1025
0
LINE
8
BLACK
6
CONTINUOUS
10
160.188
20
-61.3125
11
164.287
21
-61.3125
0
LINE
8
BLACK
6
CONTINUOUS
10
158.305
20
-60.6425
11
160.845
21
-60.6425
0
LINE
8
BLACK
6
CONTINUOUS
10
171.987
20
-54.9125
11
162.688
21
-54.9125
0
LINE
8
BLACK
6
CONTINUOUS
10
173.799
20
-58.1025
11
171.26
21
-58.1025
0
LINE
8
BLACK
6
CONTINUOUS
10
171.26
20
-55.5625
11
173.799
21
-55.5625
0
CIRCLE
8
BLACK
10
312.34
20
-94.9325
40
1.524
0
CIRCLE
8
BLACK
10
305.99
20
-97.4725
40
1.524
0
ARC
8
BLACK
10
305.8
20
-95.5125
40
2.5
50
90
51
180
0
ARC
8
BLACK
10
309.4
20
-99.4125
40
2
50
-270
51
-180
0
LINE
8
BLACK
6
CONTINUOUS
10
316.912
20
-96.2025
11
314.372
21
-96.2025
0
LINE
8
BLACK
6
CONTINUOUS
10
303.958
20
-96.2025
11
301.418
21
-96.2025
0
LINE
8
BLACK
6
CONTINUOUS
10
316.912
20
-93.6625
11
316.912
21
-96.2025
0
LINE
8
BLACK
6
CONTINUOUS
10
303.3
20
-95.5125
11
303.3
21
-99.4125
0
LINE
8
BLACK
6
CONTINUOUS
10
303.3
20
-99.4125
11
307.4
21
-99.4125
0
LINE
8
BLACK
6
CONTINUOUS
10
314.372
20
-93.6625
11
316.912
21
-93.6625
0
LINE
8
BLACK
6
CONTINUOUS
10
301.418
20
-98.7425
11
303.958
21
-98.7425
0
LINE
8
BLACK
6
CONTINUOUS
10
301.418
20
-96.2025
11
301.418
21
-98.7425
0
LINE
8
BLACK
6
CONTINUOUS
10
309.4
20
-97.4125
11
315.1
21
-97.4125
0
LINE
8
BLACK
6
CONTINUOUS
10
315.1
20
-93.0125
11
315.1
21
-97.4125
0
LINE
8
BLACK
6
CONTINUOUS
10
315.1
20
-93.0125
11
305.8
21
-93.0125
0
LINE
8
BLACK
6
CONTINUOUS
10
314.372
20
-96.2025
11
314.372
21
-93.6625
0
LINE
8
BLACK
6
CONTINUOUS
10
303.958
20
-98.7425
11
303.958
21
-96.2025
0
CIRCLE
8
BLACK
10
102.552
20
-75.8825
40
1.524
0
CIRCLE
8
BLACK
10
96.2025
20
-78.4225
40
1.524
0
ARC
8
BLACK
10
96.0125
20
-76.4625
40
2.5
50
90
51
180
0
ARC
8
BLACK
10
99.6125
20
-80.3625
40
2
50
-270
51
-180
0
LINE
8
BLACK
6
CONTINUOUS
10
99.6125
20
-78.3625
11
105.312
21
-78.3625
0
LINE
8
BLACK
6
CONTINUOUS
10
107.124
20
-77.1525
11
104.584
21
-77.1525
0
LINE
8
BLACK
6
CONTINUOUS
10
107.124
20
-74.6125
11
107.124
21
-77.1525
0
LINE
8
BLACK
6
CONTINUOUS
10
104.584
20
-77.1525
11
104.584
21
-74.6125
0
LINE
8
BLACK
6
CONTINUOUS
10
93.5125
20
-76.4625
11
93.5125
21
-80.3625
0
LINE
8
BLACK
6
CONTINUOUS
10
104.584
20
-74.6125
11
107.124
21
-74.6125
0
LINE
8
BLACK
6
CONTINUOUS
10
94.1705
20
-77.1525
11
91.6305
21
-77.1525
0
LINE
8
BLACK
6
CONTINUOUS
10
91.6305
20
-79.6925
11
94.1705
21
-79.6925
0
LINE
8
BLACK
6
CONTINUOUS
10
93.5125
20
-80.3625
11
97.6125
21
-80.3625
0
LINE
8
BLACK
6
CONTINUOUS
10
105.312
20
-73.9625
11
96.0125
21
-73.9625
0
LINE
8
BLACK
6
CONTINUOUS
10
91.6305
20
-77.1525
11
91.6305
21
-79.6925
0
LINE
8
BLACK
6
CONTINUOUS
10
105.312
20
-73.9625
11
105.312
21
-78.3625
0
LINE
8
BLACK
6
CONTINUOUS
10
94.1705
20
-79.6925
11
94.1705
21
-77.1525
0
CIRCLE
8
BLACK
10
240.665
20
-37.7825
40
1.524
0
CIRCLE
8
BLACK
10
234.315
20
-40.3225
40
1.524
0
ARC
8
BLACK
10
234.125
20
-38.3625
40
2.5
50
90
51
180
0
ARC
8
BLACK
10
237.725
20
-42.2625
40
2
50
-270
51
-180
0
LINE
8
BLACK
6
CONTINUOUS
10
231.625
20
-42.2625
11
235.725
21
-42.2625
0
LINE
8
BLACK
6
CONTINUOUS
10
243.425
20
-35.8625
11
234.125
21
-35.8625
0
LINE
8
BLACK
6
CONTINUOUS
10
229.743
20
-39.0525
11
229.743
21
-41.5925
0
LINE
8
BLACK
6
CONTINUOUS
10
242.697
20
-36.5125
11
245.237
21
-36.5125
0
LINE
8
BLACK
6
CONTINUOUS
10
245.237
20
-36.5125
11
245.237
21
-39.0525
0
LINE
8
BLACK
6
CONTINUOUS
10
232.283
20
-39.0525
11
229.743
21
-39.0525
0
LINE
8
BLACK
6
CONTINUOUS
10
243.425
20
-35.8625
11
243.425
21
-40.2625
0
LINE
8
BLACK
6
CONTINUOUS
10
245.237
20
-39.0525
11
242.697
21
-39.0525
0
LINE
8
BLACK
6
CONTINUOUS
10
232.283
20
-41.5925
11
232.283
21
-39.0525
0
LINE
8
BLACK
6
CONTINUOUS
10
229.743
20
-41.5925
11
232.283
21
-41.5925
0
LINE
8
BLACK
6
CONTINUOUS
10
237.725
20
-40.2625
11
243.425
21
-40.2625
0
LINE
8
BLACK
6
CONTINUOUS
10
242.697
20
-39.0525
11
242.697
21
-36.5125
0
LINE
8
BLACK
6
CONTINUOUS
10
231.625
20
-38.3625
11
231.625
21
-42.2625
0
CIRCLE
8
BLACK
10
286.94
20
-40.3225
40
1.524
0
CIRCLE
8
BLACK
10
293.29
20
-37.7825
40
1.524
0
ARC
8
BLACK
10
290.35
20
-42.2625
40
2
50
-270
51
-180
0
ARC
8
BLACK
10
286.75
20
-38.3625
40
2.5
50
90
51
180
0
LINE
8
BLACK
6
CONTINUOUS
10
284.908
20
-39.0525
11
282.368
21
-39.0525
0
LINE
8
BLACK
6
CONTINUOUS
10
296.05
20
-35.8625
11
286.75
21
-35.8625
0
LINE
8
BLACK
6
CONTINUOUS
10
284.908
20
-41.5925
11
284.908
21
-39.0525
0
LINE
8
BLACK
6
CONTINUOUS
10
297.862
20
-36.5125
11
297.862
21
-39.0525
0
LINE
8
BLACK
6
CONTINUOUS
10
282.368
20
-41.5925
11
284.908
21
-41.5925
0
LINE
8
BLACK
6
CONTINUOUS
10
295.322
20
-39.0525
11
295.322
21
-36.5125
0
LINE
8
BLACK
6
CONTINUOUS
10
284.25
20
-38.3625
11
284.25
21
-42.2625
0
LINE
8
BLACK
6
CONTINUOUS
10
297.862
20
-39.0525
11
295.322
21
-39.0525
0
LINE
8
BLACK
6
CONTINUOUS
10
282.368
20
-39.0525
11
282.368
21
-41.5925
0
LINE
8
BLACK
6
CONTINUOUS
10
284.25
20
-42.2625
11
288.35
21
-42.2625
0
LINE
8
BLACK
6
CONTINUOUS
10
295.322
20
-36.5125
11
297.862
21
-36.5125
0
LINE
8
BLACK
6
CONTINUOUS
10
290.35
20
-40.2625
11
296.05
21
-40.2625
0
LINE
8
BLACK
6
CONTINUOUS
10
296.05
20
-35.8625
11
296.05
21
-40.2625
0
LINE
8
BLACK
6
CONTINUOUS
10
321.857
20
13.975
11
344.757
21
13.975
0
LINE
8
BLACK
6
CONTINUOUS
10
321.857
20
34.275
11
321.857
21
13.975
0
LINE
8
BLACK
6
CONTINUOUS
10
344.757
20
13.975
11
344.757
21
34.275
0
LINE
8
BLACK
6
CONTINUOUS
10
344.757
20
34.275
11
321.857
21
34.275
0
CIRCLE
8
BLACK
10
305.99
20
-78.4225
40
1.524
0
CIRCLE
8
BLACK
10
312.34
20
-75.8825
40
1.524
0
ARC
8
BLACK
10
309.4
20
-80.3625
40
2
50
-270
51
-180
0
ARC
8
BLACK
10
305.8
20
-76.4625
40
2.5
50
90
51
180
0
LINE
8
BLACK
6
CONTINUOUS
10
303.958
20
-77.1525
11
301.418
21
-77.1525
0
LINE
8
BLACK
6
CONTINUOUS
10
301.418
20
-79.6925
11
303.958
21
-79.6925
0
LINE
8
BLACK
6
CONTINUOUS
10
315.1
20
-73.9625
11
305.8
21
-73.9625
0
LINE
8
BLACK
6
CONTINUOUS
10
314.372
20
-77.1525
11
314.372
21
-74.6125
0
LINE
8
BLACK
6
CONTINUOUS
10
315.1
20
-73.9625
11
315.1
21
-78.3625
0
LINE
8
BLACK
6
CONTINUOUS
10
303.958
20
-79.6925
11
303.958
21
-77.1525
0
LINE
8
BLACK
6
CONTINUOUS
10
303.3
20
-80.3625
11
307.4
21
-80.3625
0
LINE
8
BLACK
6
CONTINUOUS
10
301.418
20
-77.1525
11
301.418
21
-79.6925
0
LINE
8
BLACK
6
CONTINUOUS
10
303.3
20
-76.4625
11
303.3
21
-80.3625
0
LINE
8
BLACK
6
CONTINUOUS
10
316.912
20
-74.6125
11
316.912
21
-77.1525
0
LINE
8
BLACK
6
CONTINUOUS
10
309.4
20
-78.3625
11
315.1
21
-78.3625
0
LINE
8
BLACK
6
CONTINUOUS
10
314.372
20
-74.6125
11
316.912
21
-74.6125
0
LINE
8
BLACK
6
CONTINUOUS
10
316.912
20
-77.1525
11
314.372
21
-77.1525
0
CIRCLE
8
BLACK
10
100.965
20
-40.3225
40
1.524
0
CIRCLE
8
BLACK
10
107.315
20
-37.7825
40
1.524
0
ARC
8
BLACK
10
104.375
20
-42.2625
40
2
50
-270
51
-180
0
ARC
8
BLACK
10
100.775
20
-38.3625
40
2.5
50
90
51
180
0
LINE
8
BLACK
6
CONTINUOUS
10
98.275
20
-42.2625
11
102.375
21
-42.2625
0
LINE
8
BLACK
6
CONTINUOUS
10
110.075
20
-35.8625
11
110.075
21
-40.2625
0
LINE
8
BLACK
6
CONTINUOUS
10
104.375
20
-40.2625
11
110.075
21
-40.2625
0
LINE
8
BLACK
6
CONTINUOUS
10
109.347
20
-36.5125
11
111.887
21
-36.5125
0
LINE
8
BLACK
6
CONTINUOUS
10
98.275
20
-38.3625
11
98.275
21
-42.2625
0
LINE
8
BLACK
6
CONTINUOUS
10
96.393
20
-39.0525
11
96.393
21
-41.5925
0
LINE
8
BLACK
6
CONTINUOUS
10
111.887
20
-36.5125
11
111.887
21
-39.0525
0
LINE
8
BLACK
6
CONTINUOUS
10
109.347
20
-39.0525
11
109.347
21
-36.5125
0
LINE
8
BLACK
6
CONTINUOUS
10
98.933
20
-41.5925
11
98.933
21
-39.0525
0
LINE
8
BLACK
6
CONTINUOUS
10
111.887
20
-39.0525
11
109.347
21
-39.0525
0
LINE
8
BLACK
6
CONTINUOUS
10
110.075
20
-35.8625
11
100.775
21
-35.8625
0
LINE
8
BLACK
6
CONTINUOUS
10
98.933
20
-39.0525
11
96.393
21
-39.0525
0
LINE
8
BLACK
6
CONTINUOUS
10
96.393
20
-41.5925
11
98.933
21
-41.5925
0
LINE
8
BLACK
6
CONTINUOUS
10
14.4125
20
-45.2125
11
14.4125
21
-40.5125
0
LINE
8
BLACK
6
CONTINUOUS
10
14.4125
20
-40.5125
11
12.1125
21
-40.5125
0
LINE
8
BLACK
6
CONTINUOUS
10
14.4125
20
-45.2125
11
12.1125
21
-45.2125
0
LINE
8
BLACK
6
CONTINUOUS
10
12.1125
20
-40.5125
11
12.1125
21
-45.2125
0
LINE
8
BLACK
6
CONTINUOUS
10
85.85
20
-2.35
11
83.55
21
-2.35
0
LINE
8
BLACK
6
CONTINUOUS
10
85.85
20
-2.35
11
85.85
21
2.35
0
LINE
8
BLACK
6
CONTINUOUS
10
83.55
20
2.35
11
83.55
21
-2.35
0
LINE
8
BLACK
6
CONTINUOUS
10
85.85
20
2.35
11
83.55
21
2.35
0
LINE
8
BLACK
6
CONTINUOUS
10
338.275
20
-72.6625
11
350.375
21
-72.6625
0
LINE
8
BLACK
6
CONTINUOUS
10
338.275
20
-80.5625
11
338.275
21
-72.6625
0
LINE
8
BLACK
6
CONTINUOUS
10
350.375
20
-72.6625
11
350.375
21
-80.5625
0
LINE
8
BLACK
6
CONTINUOUS
10
350.375
20
-80.5625
11
338.275
21
-80.5625
0
LINE
8
BLACK
6
CONTINUOUS
10
234.85
20
33.15
11
234.85
21
28.45
0
LINE
8
BLACK
6
CONTINUOUS
10
234.85
20
28.45
11
237.15
21
28.45
0
LINE
8
BLACK
6
CONTINUOUS
10
234.85
20
33.15
11
237.15
21
33.15
0
LINE
8
BLACK
6
CONTINUOUS
10
237.15
20
28.45
11
237.15
21
33.15
0
LINE
8
BLACK
6
CONTINUOUS
10
-9.425
20
-0.4
11
-9.425
21
-8.3
0
LINE
8
BLACK
6
CONTINUOUS
10
-21.525
20
-8.3
11
-21.525
21
-0.4
0
LINE
8
BLACK
6
CONTINUOUS
10
-21.525
20
-0.4
11
-9.425
21
-0.4
0
LINE
8
BLACK
6
CONTINUOUS
10
-9.425
20
-8.3
11
-21.525
21
-8.3
0
LINE
8
BLACK
6
CONTINUOUS
10
-9.425
20
-43.2625
11
-9.425
21
-51.1625
0
LINE
8
BLACK
6
CONTINUOUS
10
-21.525
20
-43.2625
11
-9.425
21
-43.2625
0
LINE
8
BLACK
6
CONTINUOUS
10
-9.425
20
-51.1625
11
-21.525
21
-51.1625
0
LINE
8
BLACK
6
CONTINUOUS
10
-21.525
20
-51.1625
11
-21.525
21
-43.2625
0
LINE
8
BLACK
6
CONTINUOUS
10
-20.628
20
21.074
11
-20.628
21
16.514
0
LINE
8
BLACK
6
CONTINUOUS
10
-18.388
20
21.074
11
-20.628
21
21.074
0
LINE
8
BLACK
6
CONTINUOUS
10
-18.388
20
16.514
11
-18.388
21
21.074
0
LINE
8
BLACK
6
CONTINUOUS
10
-20.628
20
16.514
11
-18.388
21
16.514
0
LINE
8
BLACK
6
CONTINUOUS
10
200.15
20
-26.1625
11
197.85
21
-26.1625
0
LINE
8
BLACK
6
CONTINUOUS
10
200.15
20
-21.4625
11
197.85
21
-21.4625
0
LINE
8
BLACK
6
CONTINUOUS
10
197.85
20
-21.4625
11
197.85
21
-26.1625
0
LINE
8
BLACK
6
CONTINUOUS
10
200.15
20
-26.1625
11
200.15
21
-21.4625
0
LINE
8
BLACK
6
CONTINUOUS
10
47.75
20
-21.4625
11
45.45
21
-21.4625
0
LINE
8
BLACK
6
CONTINUOUS
10
47.75
20
-26.1625
11
45.45
21
-26.1625
0
LINE
8
BLACK
6
CONTINUOUS
10
45.45
20
-21.4625
11
45.45
21
-26.1625
0
LINE
8
BLACK
6
CONTINUOUS
10
47.75
20
-26.1625
11
47.75
21
-21.4625
0
LINE
8
BLACK
6
CONTINUOUS
10
306.64
20
24.53
11
306.64
21
22.71
0
LINE
8
BLACK
6
CONTINUOUS
10
306.64
20
22.71
11
307.56
21
22.71
0
LINE
8
BLACK
6
CONTINUOUS
10
307.56
20
22.71
11
307.56
21
24.53
0
LINE
8
BLACK
6
CONTINUOUS
10
307.56
20
24.53
11
306.64
21
24.53
0
LINE
8
BLACK
6
CONTINUOUS
10
259.52
20
18.4561
11
253.694
21
24.2827
0
LINE
8
BLACK
6
CONTINUOUS
10
265.347
20
24.2827
11
259.52
21
18.4561
0
LINE
8
BLACK
6
CONTINUOUS
10
253.694
20
24.2827
11
259.52
21
30.1093
0
LINE
8
BLACK
6
CONTINUOUS
10
259.52
20
30.1093
11
265.347
21
24.2827
0
LINE
8
BLACK
6
CONTINUOUS
10
337.5
20
-29.15
11
337.5
21
-24.45
0
LINE
8
BLACK
6
CONTINUOUS
10
337.5
20
-29.15
11
335.2
21
-29.15
0
LINE
8
BLACK
6
CONTINUOUS
10
337.5
20
-24.45
11
335.2
21
-24.45
0
LINE
8
BLACK
6
CONTINUOUS
10
335.2
20
-24.45
11
335.2
21
-29.15
0
LINE
8
BLACK
6
CONTINUOUS
10
14.4125
20
-97.6625
11
12.1125
21
-97.6625
0
LINE
8
BLACK
6
CONTINUOUS
10
14.4125
20
-102.362
11
14.4125
21
-97.6625
0
LINE
8
BLACK
6
CONTINUOUS
10
12.1125
20
-97.6625
11
12.1125
21
-102.362
0
LINE
8
BLACK
6
CONTINUOUS
10
14.4125
20
-102.362
11
12.1125
21
-102.362
0
LINE
8
BLACK
6
CONTINUOUS
10
329.582
20
21.9205
11
329.582
21
20.4605
0
LINE
8
BLACK
6
CONTINUOUS
10
332.542
20
21.9205
11
329.582
21
21.9205
0
LINE
8
BLACK
6
CONTINUOUS
10
329.582
20
20.4605
11
332.542
21
20.4605
0
LINE
8
BLACK
6
CONTINUOUS
10
332.542
20
20.4605
11
332.542
21
21.9205
0
LINE
8
BLACK
6
CONTINUOUS
10
-9.425
20
-81.3625
11
-9.425
21
-89.2625
0
LINE
8
BLACK
6
CONTINUOUS
10
-21.525
20
-89.2625
11
-21.525
21
-81.3625
0
LINE
8
BLACK
6
CONTINUOUS
10
-9.425
20
-89.2625
11
-21.525
21
-89.2625
0
LINE
8
BLACK
6
CONTINUOUS
10
-21.525
20
-81.3625
11
-9.425
21
-81.3625
0
LINE
8
BLACK
6
CONTINUOUS
10
143
20
-26.1625
11
140.7
21
-26.1625
0
LINE
8
BLACK
6
CONTINUOUS
10
143
20
-21.4625
11
140.7
21
-21.4625
0
LINE
8
BLACK
6
CONTINUOUS
10
143
20
-26.1625
11
143
21
-21.4625
0
LINE
8
BLACK
6
CONTINUOUS
10
140.7
20
-21.4625
11
140.7
21
-26.1625
0
LINE
8
BLACK
6
CONTINUOUS
10
348.08
20
21.9
11
348.08
21
26.6
0
LINE
8
BLACK
6
CONTINUOUS
10
345.78
20
21.9
11
348.08
21
21.9
0
LINE
8
BLACK
6
CONTINUOUS
10
345.78
20
26.6
11
345.78
21
21.9
0
LINE
8
BLACK
6
CONTINUOUS
10
345.78
20
26.6
11
348.08
21
26.6
0
LINE
8
BLACK
6
CONTINUOUS
10
257.3
20
2.35
11
255
21
2.35
0
LINE
8
BLACK
6
CONTINUOUS
10
257.3
20
-2.35
11
257.3
21
2.35
0
LINE
8
BLACK
6
CONTINUOUS
10
257.3
20
-2.35
11
255
21
-2.35
0
LINE
8
BLACK
6
CONTINUOUS
10
255
20
2.35
11
255
21
-2.35
0
LINE
8
BLACK
6
CONTINUOUS
10
321.59
20
22.31
11
321.59
21
24.21
0
LINE
8
BLACK
6
CONTINUOUS
10
318.23
20
22.31
11
321.59
21
22.31
0
LINE
8
BLACK
6
CONTINUOUS
10
321.59
20
24.21
11
318.23
21
24.21
0
LINE
8
BLACK
6
CONTINUOUS
10
318.23
20
24.21
11
318.23
21
22.31
0
LINE
8
BLACK
6
CONTINUOUS
10
159.75
20
-21.4625
11
159.75
21
-26.1625
0
LINE
8
BLACK
6
CONTINUOUS
10
162.05
20
-26.1625
11
159.75
21
-26.1625
0
LINE
8
BLACK
6
CONTINUOUS
10
162.05
20
-26.1625
11
162.05
21
-21.4625
0
LINE
8
BLACK
6
CONTINUOUS
10
162.05
20
-21.4625
11
159.75
21
-21.4625
0
LINE
8
BLACK
6
CONTINUOUS
10
16.58
20
-61.78
11
14.28
21
-61.78
0
LINE
8
BLACK
6
CONTINUOUS
10
14.28
20
-57.08
11
14.28
21
-61.78
0
LINE
8
BLACK
6
CONTINUOUS
10
16.58
20
-57.08
11
14.28
21
-57.08
0
LINE
8
BLACK
6
CONTINUOUS
10
16.58
20
-61.78
11
16.58
21
-57.08
0
LINE
8
BLACK
6
CONTINUOUS
10
300.4
20
-2.35
11
298.1
21
-2.35
0
LINE
8
BLACK
6
CONTINUOUS
10
300.4
20
-2.35
11
300.4
21
2.35
0
LINE
8
BLACK
6
CONTINUOUS
10
298.1
20
2.35
11
298.1
21
-2.35
0
LINE
8
BLACK
6
CONTINUOUS
10
300.4
20
2.35
11
298.1
21
2.35
0
LINE
8
BLACK
6
CONTINUOUS
10
264.568
20
34.4414
11
263.281
21
33.1544
0
LINE
8
BLACK
6
CONTINUOUS
10
263.932
20
32.5039
11
265.219
21
33.7908
0
LINE
8
BLACK
6
CONTINUOUS
10
265.219
20
33.7908
11
264.568
21
34.4414
0
LINE
8
BLACK
6
CONTINUOUS
10
263.281
20
33.1544
11
263.932
21
32.5039
0
LINE
8
BLACK
6
CONTINUOUS
10
333.31
20
13.56
11
338.01
21
13.56
0
LINE
8
BLACK
6
CONTINUOUS
10
338.01
20
15.86
11
333.31
21
15.86
0
LINE
8
BLACK
6
CONTINUOUS
10
333.31
20
13.56
11
333.31
21
15.86
0
LINE
8
BLACK
6
CONTINUOUS
10
338.01
20
13.56
11
338.01
21
15.86
0
LINE
8
BLACK
6
CONTINUOUS
10
83.55
20
-21.4625
11
83.55
21
-26.1625
0
LINE
8
BLACK
6
CONTINUOUS
10
85.85
20
-26.1625
11
83.55
21
-26.1625
0
LINE
8
BLACK
6
CONTINUOUS
10
85.85
20
-26.1625
11
85.85
21
-21.4625
0
LINE
8
BLACK
6
CONTINUOUS
10
85.85
20
-21.4625
11
83.55
21
-21.4625
0
LINE
8
BLACK
6
CONTINUOUS
10
329.33
20
29.63
11
332.53
21
29.63
0
LINE
8
BLACK
6
CONTINUOUS
10
332.53
20
27.73
11
332.53
21
29.63
0
LINE
8
BLACK
6
CONTINUOUS
10
329.33
20
27.73
11
332.53
21
27.73
0
LINE
8
BLACK
6
CONTINUOUS
10
329.33
20
27.73
11
329.33
21
29.63
0
LINE
8
BLACK
6
CONTINUOUS
10
45.45
20
2.35
11
45.45
21
-2.35
0
LINE
8
BLACK
6
CONTINUOUS
10
47.75
20
-2.35
11
47.75
21
2.35
0
LINE
8
BLACK
6
CONTINUOUS
10
47.75
20
2.35
11
45.45
21
2.35
0
LINE
8
BLACK
6
CONTINUOUS
10
47.75
20
-2.35
11
45.45
21
-2.35
0
LINE
8
BLACK
6
CONTINUOUS
10
78.7875
20
-59.5625
11
78.7875
21
-64.2625
0
LINE
8
BLACK
6
CONTINUOUS
10
81.0875
20
-64.2625
11
81.0875
21
-59.5625
0
LINE
8
BLACK
6
CONTINUOUS
10
81.0875
20
-64.2625
11
78.7875
21
-64.2625
0
LINE
8
BLACK
6
CONTINUOUS
10
81.0875
20
-59.5625
11
78.7875
21
-59.5625
0
LINE
8
BLACK
6
CONTINUOUS
10
114.425
20
-40.5125
11
112.125
21
-40.5125
0
LINE
8
BLACK
6
CONTINUOUS
10
112.125
20
-40.5125
11
112.125
21
-45.2125
0
LINE
8
BLACK
6
CONTINUOUS
10
114.425
20
-45.2125
11
114.425
21
-40.5125
0
LINE
8
BLACK
6
CONTINUOUS
10
114.425
20
-45.2125
11
112.125
21
-45.2125
0
LINE
8
BLACK
6
CONTINUOUS
10
190.625
20
2.35
11
188.325
21
2.35
0
LINE
8
BLACK
6
CONTINUOUS
10
190.625
20
-2.35
11
190.625
21
2.35
0
LINE
8
BLACK
6
CONTINUOUS
10
190.625
20
-2.35
11
188.325
21
-2.35
0
LINE
8
BLACK
6
CONTINUOUS
10
188.325
20
2.35
11
188.325
21
-2.35
0
LINE
8
BLACK
6
CONTINUOUS
10
335.87
20
26.43
11
335.87
21
27.89
0
LINE
8
BLACK
6
CONTINUOUS
10
335.87
20
27.89
11
332.91
21
27.89
0
LINE
8
BLACK
6
CONTINUOUS
10
332.91
20
27.89
11
332.91
21
26.43
0
LINE
8
BLACK
6
CONTINUOUS
10
332.91
20
26.43
11
335.87
21
26.43
0
LINE
8
BLACK
6
CONTINUOUS
10
305.99
20
22.7
11
305.99
21
24.56
0
LINE
8
BLACK
6
CONTINUOUS
10
305.05
20
22.7
11
305.99
21
22.7
0
LINE
8
BLACK
6
CONTINUOUS
10
305.99
20
24.56
11
305.05
21
24.56
0
LINE
8
BLACK
6
CONTINUOUS
10
305.05
20
24.56
11
305.05
21
22.7
0
LINE
8
BLACK
6
CONTINUOUS
10
195.387
20
-59.5625
11
193.087
21
-59.5625
0
LINE
8
BLACK
6
CONTINUOUS
10
195.387
20
-64.2625
11
193.087
21
-64.2625
0
LINE
8
BLACK
6
CONTINUOUS
10
195.387
20
-64.2625
11
195.387
21
-59.5625
0
LINE
8
BLACK
6
CONTINUOUS
10
193.087
20
-59.5625
11
193.087
21
-64.2625
0
LINE
8
BLACK
6
CONTINUOUS
10
266.088
20
34.1364
11
269.058
21
31.1666
0
LINE
8
BLACK
6
CONTINUOUS
10
269.058
20
31.1666
11
266.654
21
28.7624
0
LINE
8
BLACK
6
CONTINUOUS
10
263.684
20
31.7323
11
266.088
21
34.1364
0
LINE
8
BLACK
6
CONTINUOUS
10
266.654
20
28.7624
11
263.684
21
31.7323
0
LINE
8
BLACK
6
CONTINUOUS
10
102.6
20
2.35
11
102.6
21
-2.35
0
LINE
8
BLACK
6
CONTINUOUS
10
104.9
20
-2.35
11
104.9
21
2.35
0
LINE
8
BLACK
6
CONTINUOUS
10
104.9
20
2.35
11
102.6
21
2.35
0
LINE
8
BLACK
6
CONTINUOUS
10
104.9
20
-2.35
11
102.6
21
-2.35
0
LINE
8
BLACK
6
CONTINUOUS
10
350.375
20
-53.6125
11
350.375
21
-61.5125
0
LINE
8
BLACK
6
CONTINUOUS
10
338.275
20
-53.6125
11
350.375
21
-53.6125
0
LINE
8
BLACK
6
CONTINUOUS
10
350.375
20
-61.5125
11
338.275
21
-61.5125
0
LINE
8
BLACK
6
CONTINUOUS
10
338.275
20
-61.5125
11
338.275
21
-53.6125
0
LINE
8
BLACK
6
CONTINUOUS
10
305.3
20
25.01
11
307.16
21
25.01
0
LINE
8
BLACK
6
CONTINUOUS
10
305.3
20
25.95
11
305.3
21
25.01
0
LINE
8
BLACK
6
CONTINUOUS
10
307.16
20
25.95
11
305.3
21
25.95
0
LINE
8
BLACK
6
CONTINUOUS
10
307.16
20
25.01
11
307.16
21
25.95
0
LINE
8
BLACK
6
CONTINUOUS
10
338.275
20
-91.7125
11
350.375
21
-91.7125
0
LINE
8
BLACK
6
CONTINUOUS
10
350.375
20
-91.7125
11
350.375
21
-99.6125
0
LINE
8
BLACK
6
CONTINUOUS
10
350.375
20
-99.6125
11
338.275
21
-99.6125
0
LINE
8
BLACK
6
CONTINUOUS
10
338.275
20
-99.6125
11
338.275
21
-91.7125
0
LINE
8
BLACK
6
CONTINUOUS
10
147.762
20
-83.3125
11
147.762
21
-78.6125
0
LINE
8
BLACK
6
CONTINUOUS
10
145.463
20
-78.6125
11
145.463
21
-83.3125
0
LINE
8
BLACK
6
CONTINUOUS
10
147.762
20
-83.3125
11
145.463
21
-83.3125
0
LINE
8
BLACK
6
CONTINUOUS
10
147.762
20
-78.6125
11
145.463
21
-78.6125
0
LINE
8
BLACK
6
CONTINUOUS
10
346.5
20
19.1
11
346.5
21
20.96
0
LINE
8
BLACK
6
CONTINUOUS
10
346.5
20
20.96
11
345.56
21
20.96
0
LINE
8
BLACK
6
CONTINUOUS
10
345.56
20
20.96
11
345.56
21
19.1
0
LINE
8
BLACK
6
CONTINUOUS
10
345.56
20
19.1
11
346.5
21
19.1
0
LINE
8
BLACK
6
CONTINUOUS
10
239.07
20
21.27
11
239.07
21
20.33
0
LINE
8
BLACK
6
CONTINUOUS
10
239.07
20
20.33
11
240.93
21
20.33
0
LINE
8
BLACK
6
CONTINUOUS
10
240.93
20
21.27
11
239.07
21
21.27
0
LINE
8
BLACK
6
CONTINUOUS
10
240.93
20
20.33
11
240.93
21
21.27
0
LINE
8
BLACK
6
CONTINUOUS
10
306.68
20
20.27
11
307.62
21
20.27
0
LINE
8
BLACK
6
CONTINUOUS
10
307.62
20
20.27
11
307.62
21
22.13
0
LINE
8
BLACK
6
CONTINUOUS
10
306.68
20
22.13
11
306.68
21
20.27
0
LINE
8
BLACK
6
CONTINUOUS
10
307.62
20
22.13
11
306.68
21
22.13
0
LINE
8
BLACK
6
CONTINUOUS
10
-21.525
20
-24.2125
11
-9.425
21
-24.2125
0
LINE
8
BLACK
6
CONTINUOUS
10
-9.425
20
-32.1125
11
-21.525
21
-32.1125
0
LINE
8
BLACK
6
CONTINUOUS
10
-21.525
20
-32.1125
11
-21.525
21
-24.2125
0
LINE
8
BLACK
6
CONTINUOUS
10
-9.425
20
-24.2125
11
-9.425
21
-32.1125
0
LINE
8
BLACK
6
CONTINUOUS
10
347.83
20
20.93
11
346.91
21
20.93
0
LINE
8
BLACK
6
CONTINUOUS
10
346.91
20
20.93
11
346.91
21
19.11
0
LINE
8
BLACK
6
CONTINUOUS
10
346.91
20
19.11
11
347.83
21
19.11
0
LINE
8
BLACK
6
CONTINUOUS
10
347.83
20
19.11
11
347.83
21
20.93
0
LINE
8
BLACK
6
CONTINUOUS
10
233.64
20
-62.82
11
233.64
21
-58.12
0
LINE
8
BLACK
6
CONTINUOUS
10
233.64
20
-62.82
11
231.34
21
-62.82
0
LINE
8
BLACK
6
CONTINUOUS
10
231.34
20
-58.12
11
231.34
21
-62.82
0
LINE
8
BLACK
6
CONTINUOUS
10
233.64
20
-58.12
11
231.34
21
-58.12
0
LINE
8
BLACK
6
CONTINUOUS
10
71.5625
20
-83.3125
11
69.2625
21
-83.3125
0
LINE
8
BLACK
6
CONTINUOUS
10
69.2625
20
-78.6125
11
69.2625
21
-83.3125
0
LINE
8
BLACK
6
CONTINUOUS
10
71.5625
20
-78.6125
11
69.2625
21
-78.6125
0
LINE
8
BLACK
6
CONTINUOUS
10
71.5625
20
-83.3125
11
71.5625
21
-78.6125
0
LINE
8
BLACK
6
CONTINUOUS
10
300.4
20
-40.5125
11
298.1
21
-40.5125
0
LINE
8
BLACK
6
CONTINUOUS
10
300.4
20
-45.2125
11
300.4
21
-40.5125
0
LINE
8
BLACK
6
CONTINUOUS
10
300.4
20
-45.2125
11
298.1
21
-45.2125
0
LINE
8
BLACK
6
CONTINUOUS
10
298.1
20
-40.5125
11
298.1
21
-45.2125
0
LINE
8
BLACK
6
CONTINUOUS
10
214.33
20
-63.18
11
212.03
21
-63.18
0
LINE
8
BLACK
6
CONTINUOUS
10
214.33
20
-58.48
11
212.03
21
-58.48
0
LINE
8
BLACK
6
CONTINUOUS
10
214.33
20
-63.18
11
214.33
21
-58.48
0
LINE
8
BLACK
6
CONTINUOUS
10
212.03
20
-58.48
11
212.03
21
-63.18
0
LINE
8
BLACK
6
CONTINUOUS
10
223.962
20
-83.3125
11
223.962
21
-78.6125
0
LINE
8
BLACK
6
CONTINUOUS
10
223.962
20
-78.6125
11
221.662
21
-78.6125
0
LINE
8
BLACK
6
CONTINUOUS
10
221.662
20
-78.6125
11
221.662
21
-83.3125
0
LINE
8
BLACK
6
CONTINUOUS
10
223.962
20
-83.3125
11
221.662
21
-83.3125
0
LINE
8
BLACK
6
CONTINUOUS
10
338.275
20
-42.4625
11
338.275
21
-34.5625
0
LINE
8
BLACK
6
CONTINUOUS
10
350.375
20
-34.5625
11
350.375
21
-42.4625
0
LINE
8
BLACK
6
CONTINUOUS
10
338.275
20
-34.5625
11
350.375
21
-34.5625
0
LINE
8
BLACK
6
CONTINUOUS
10
350.375
20
-42.4625
11
338.275
21
-42.4625
0
LINE
8
BLACK
6
CONTINUOUS
10
266.44
20
18.2627
11
268.3
21
18.2627
0
LINE
8
BLACK
6
CONTINUOUS
10
266.44
20
19.2027
11
266.44
21
18.2627
0
LINE
8
BLACK
6
CONTINUOUS
10
268.3
20
18.2627
11
268.3
21
19.2027
0
LINE
8
BLACK
6
CONTINUOUS
10
268.3
20
19.2027
11
266.44
21
19.2027
0
LINE
8
BLACK
6
CONTINUOUS
10
319.45
20
2.35
11
317.15
21
2.35
0
LINE
8
BLACK
6
CONTINUOUS
10
317.15
20
2.35
11
317.15
21
-2.35
0
LINE
8
BLACK
6
CONTINUOUS
10
319.45
20
-2.35
11
317.15
21
-2.35
0
LINE
8
BLACK
6
CONTINUOUS
10
319.45
20
-2.35
11
319.45
21
2.35
0
LINE
8
BLACK
6
CONTINUOUS
10
334.8
20
22.95
11
330.7
21
22.95
0
LINE
8
BLACK
6
CONTINUOUS
10
330.7
20
22.95
11
330.7
21
26.35
0
LINE
8
BLACK
6
CONTINUOUS
10
330.7
20
26.35
11
334.8
21
26.35
0
LINE
8
BLACK
6
CONTINUOUS
10
334.8
20
26.35
11
334.8
21
22.95
0
LINE
8
BLACK
6
CONTINUOUS
10
350.375
20
-51.1625
11
338.275
21
-51.1625
0
LINE
8
BLACK
6
CONTINUOUS
10
350.375
20
-43.2625
11
350.375
21
-51.1625
0
LINE
8
BLACK
6
CONTINUOUS
10
338.275
20
-43.2625
11
350.375
21
-43.2625
0
LINE
8
BLACK
6
CONTINUOUS
10
338.275
20
-51.1625
11
338.275
21
-43.2625
0
LINE
8
BLACK
6
CONTINUOUS
10
311.83
20
17.32
11
304.83
21
17.32
0
LINE
8
BLACK
6
CONTINUOUS
10
311.83
20
13.32
11
311.83
21
17.32
0
LINE
8
BLACK
6
CONTINUOUS
10
304.83
20
13.32
11
311.83
21
13.32
0
LINE
8
BLACK
6
CONTINUOUS
10
304.83
20
17.32
11
304.83
21
13.32
0
LINE
8
BLACK
6
CONTINUOUS
10
337.76
20
31.86
11
333.2
21
31.86
0
LINE
8
BLACK
6
CONTINUOUS
10
333.2
20
28.7
11
337.76
21
28.7
0
LINE
8
BLACK
6
CONTINUOUS
10
333.2
20
31.86
11
333.2
21
28.7
0
LINE
8
BLACK
6
CONTINUOUS
10
337.76
20
28.7
11
337.76
21
31.86
0
LINE
8
BLACK
6
CONTINUOUS
10
-4.291
20
23.741
11
-6.531
21
23.741
0
LINE
8
BLACK
6
CONTINUOUS
10
-6.531
20
19.181
11
-4.291
21
19.181
0
LINE
8
BLACK
6
CONTINUOUS
10
-4.291
20
19.181
11
-4.291
21
23.741
0
LINE
8
BLACK
6
CONTINUOUS
10
-6.531
20
23.741
11
-6.531
21
19.181
0
LINE
8
BLACK
6
CONTINUOUS
10
9.65
20
2.35
11
7.35
21
2.35
0
LINE
8
BLACK
6
CONTINUOUS
10
7.35
20
2.35
11
7.35
21
-2.35
0
LINE
8
BLACK
6
CONTINUOUS
10
9.65
20
-2.35
11
9.65
21
2.35
0
LINE
8
BLACK
6
CONTINUOUS
10
9.65
20
-2.35
11
7.35
21
-2.35
0
LINE
8
BLACK
6
CONTINUOUS
10
306.03
20
20.32
11
306.03
21
22.14
0
LINE
8
BLACK
6
CONTINUOUS
10
306.03
20
22.14
11
305.11
21
22.14
0
LINE
8
BLACK
6
CONTINUOUS
10
305.11
20
22.14
11
305.11
21
20.32
0
LINE
8
BLACK
6
CONTINUOUS
10
305.11
20
20.32
11
306.03
21
20.32
0
LINE
8
BLACK
6
CONTINUOUS
10
-9.425
20
-61.5125
11
-21.525
21
-61.5125
0
LINE
8
BLACK
6
CONTINUOUS
10
-21.525
20
-61.5125
11
-21.525
21
-53.6125
0
LINE
8
BLACK
6
CONTINUOUS
10
-21.525
20
-53.6125
11
-9.425
21
-53.6125
0
LINE
8
BLACK
6
CONTINUOUS
10
-9.425
20
-53.6125
11
-9.425
21
-61.5125
0
LINE
8
BLACK
6
CONTINUOUS
10
253.027
20
26.3115
11
252.377
21
25.6609
0
LINE
8
BLACK
6
CONTINUOUS
10
252.377
20
25.6609
11
253.664
21
24.374
0
LINE
8
BLACK
6
CONTINUOUS
10
253.664
20
24.374
11
254.314
21
25.0245
0
LINE
8
BLACK
6
CONTINUOUS
10
254.314
20
25.0245
11
253.027
21
26.3115
0
LINE
8
BLACK
6
CONTINUOUS
10
7.35
20
-21.4625
11
7.35
21
-26.1625
0
LINE
8
BLACK
6
CONTINUOUS
10
9.65
20
-26.1625
11
9.65
21
-21.4625
0
LINE
8
BLACK
6
CONTINUOUS
10
9.65
20
-26.1625
11
7.35
21
-26.1625
0
LINE
8
BLACK
6
CONTINUOUS
10
9.65
20
-21.4625
11
7.35
21
-21.4625
0
LINE
8
BLACK
6
CONTINUOUS
10
228.725
20
-45.2125
11
226.425
21
-45.2125
0
LINE
8
BLACK
6
CONTINUOUS
10
226.425
20
-40.5125
11
226.425
21
-45.2125
0
LINE
8
BLACK
6
CONTINUOUS
10
228.725
20
-45.2125
11
228.725
21
-40.5125
0
LINE
8
BLACK
6
CONTINUOUS
10
228.725
20
-40.5125
11
226.425
21
-40.5125
0
LINE
8
BLACK
6
CONTINUOUS
10
54.975
20
-40.5125
11
54.975
21
-45.2125
0
LINE
8
BLACK
6
CONTINUOUS
10
57.275
20
-45.2125
11
57.275
21
-40.5125
0
LINE
8
BLACK
6
CONTINUOUS
10
57.275
20
-40.5125
11
54.975
21
-40.5125
0
LINE
8
BLACK
6
CONTINUOUS
10
57.275
20
-45.2125
11
54.975
21
-45.2125
0
LINE
8
BLACK
6
CONTINUOUS
10
317.15
20
-21.4625
11
317.15
21
-26.1625
0
LINE
8
BLACK
6
CONTINUOUS
10
319.45
20
-26.1625
11
319.45
21
-21.4625
0
LINE
8
BLACK
6
CONTINUOUS
10
319.45
20
-26.1625
11
317.15
21
-26.1625
0
LINE
8
BLACK
6
CONTINUOUS
10
319.45
20
-21.4625
11
317.15
21
-21.4625
0
LINE
8
BLACK
6
CONTINUOUS
10
236.34
20
13.49
11
237.26
21
13.49
0
LINE
8
BLACK
6
CONTINUOUS
10
237.26
20
13.49
11
237.26
21
15.31
0
LINE
8
BLACK
6
CONTINUOUS
10
236.34
20
15.31
11
236.34
21
13.49
0
LINE
8
BLACK
6
CONTINUOUS
10
237.26
20
15.31
11
236.34
21
15.31
0
LINE
8
BLACK
6
CONTINUOUS
10
266.169
20
27.6044
11
264.882
21
28.8914
0
LINE
8
BLACK
6
CONTINUOUS
10
264.882
20
28.8914
11
264.231
21
28.2408
0
LINE
8
BLACK
6
CONTINUOUS
10
265.518
20
26.9539
11
266.169
21
27.6044
0
LINE
8
BLACK
6
CONTINUOUS
10
264.231
20
28.2408
11
265.518
21
26.9539
0
LINE
8
BLACK
6
CONTINUOUS
10
319.45
20
-78.6125
11
317.15
21
-78.6125
0
LINE
8
BLACK
6
CONTINUOUS
10
319.45
20
-83.3125
11
317.15
21
-83.3125
0
LINE
8
BLACK
6
CONTINUOUS
10
317.15
20
-78.6125
11
317.15
21
-83.3125
0
LINE
8
BLACK
6
CONTINUOUS
10
319.45
20
-83.3125
11
319.45
21
-78.6125
0
LINE
8
BLACK
6
CONTINUOUS
10
62.0375
20
-64.2625
11
62.0375
21
-59.5625
0
LINE
8
BLACK
6
CONTINUOUS
10
59.7375
20
-59.5625
11
59.7375
21
-64.2625
0
LINE
8
BLACK
6
CONTINUOUS
10
62.0375
20
-59.5625
11
59.7375
21
-59.5625
0
LINE
8
BLACK
6
CONTINUOUS
10
62.0375
20
-64.2625
11
59.7375
21
-64.2625
0
LINE
8
BLACK
6
CONTINUOUS
10
235.14
20
13.49
11
236.06
21
13.49
0
LINE
8
BLACK
6
CONTINUOUS
10
235.14
20
15.31
11
235.14
21
13.49
0
LINE
8
BLACK
6
CONTINUOUS
10
236.06
20
13.49
11
236.06
21
15.31
0
LINE
8
BLACK
6
CONTINUOUS
10
236.06
20
15.31
11
235.14
21
15.31
0
LINE
8
BLACK
6
CONTINUOUS
10
329.57
20
31.05
11
332.53
21
31.05
0
LINE
8
BLACK
6
CONTINUOUS
10
332.53
20
32.51
11
329.57
21
32.51
0
LINE
8
BLACK
6
CONTINUOUS
10
332.53
20
31.05
11
332.53
21
32.51
0
LINE
8
BLACK
6
CONTINUOUS
10
329.57
20
32.51
11
329.57
21
31.05
0
LINE
8
BLACK
6
CONTINUOUS
10
319.45
20
-45.2125
11
317.15
21
-45.2125
0
LINE
8
BLACK
6
CONTINUOUS
10
317.15
20
-40.5125
11
317.15
21
-45.2125
0
LINE
8
BLACK
6
CONTINUOUS
10
319.45
20
-45.2125
11
319.45
21
-40.5125
0
LINE
8
BLACK
6
CONTINUOUS
10
319.45
20
-40.5125
11
317.15
21
-40.5125
0
LINE
8
BLACK
6
CONTINUOUS
10
253.664
20
22.824
11
254.314
21
23.4746
0
LINE
8
BLACK
6
CONTINUOUS
10
253.027
20
24.7615
11
252.377
21
24.1109
0
LINE
8
BLACK
6
CONTINUOUS
10
254.314
20
23.4746
11
253.027
21
24.7615
0
LINE
8
BLACK
6
CONTINUOUS
10
252.377
20
24.1109
11
253.664
21
22.824
0
LINE
8
BLACK
6
CONTINUOUS
10
238.25
20
-21.4625
11
235.95
21
-21.4625
0
LINE
8
BLACK
6
CONTINUOUS
10
238.25
20
-26.1625
11
235.95
21
-26.1625
0
LINE
8
BLACK
6
CONTINUOUS
10
235.95
20
-21.4625
11
235.95
21
-26.1625
0
LINE
8
BLACK
6
CONTINUOUS
10
238.25
20
-26.1625
11
238.25
21
-21.4625
0
LINE
8
BLACK
6
CONTINUOUS
10
137.97
20
-66.48
11
135.67
21
-66.48
0
LINE
8
BLACK
6
CONTINUOUS
10
135.67
20
-61.78
11
135.67
21
-66.48
0
LINE
8
BLACK
6
CONTINUOUS
10
137.97
20
-61.78
11
135.67
21
-61.78
0
LINE
8
BLACK
6
CONTINUOUS
10
137.97
20
-66.48
11
137.97
21
-61.78
0
LINE
8
BLACK
6
CONTINUOUS
10
259.681
20
-83.3125
11
259.681
21
-78.6125
0
LINE
8
BLACK
6
CONTINUOUS
10
257.381
20
-78.6125
11
257.381
21
-83.3125
0
LINE
8
BLACK
6
CONTINUOUS
10
259.681
20
-78.6125
11
257.381
21
-78.6125
0
LINE
8
BLACK
6
CONTINUOUS
10
259.681
20
-83.3125
11
257.381
21
-83.3125
0
LINE
8
BLACK
6
CONTINUOUS
10
338.325
20
-46.05
11
333.625
21
-46.05
0
LINE
8
BLACK
6
CONTINUOUS
10
333.625
20
-48.35
11
333.625
21
-46.05
0
LINE
8
BLACK
6
CONTINUOUS
10
338.325
20
-48.35
11
338.325
21
-46.05
0
LINE
8
BLACK
6
CONTINUOUS
10
333.625
20
-48.35
11
338.325
21
-48.35
0
LINE
8
BLACK
6
CONTINUOUS
10
336.13
20
23.66
11
336.13
21
21.76
0
LINE
8
BLACK
6
CONTINUOUS
10
339.49
20
21.76
11
339.49
21
23.66
0
LINE
8
BLACK
6
CONTINUOUS
10
339.49
20
23.66
11
336.13
21
23.66
0
LINE
8
BLACK
6
CONTINUOUS
10
336.13
20
21.76
11
339.49
21
21.76
0
LINE
8
BLACK
6
CONTINUOUS
10
276.35
20
-2.35
11
276.35
21
2.35
0
LINE
8
BLACK
6
CONTINUOUS
10
274.05
20
2.35
11
274.05
21
-2.35
0
LINE
8
BLACK
6
CONTINUOUS
10
276.35
20
2.35
11
274.05
21
2.35
0
LINE
8
BLACK
6
CONTINUOUS
10
276.35
20
-2.35
11
274.05
21
-2.35
0
LINE
8
BLACK
6
CONTINUOUS
10
299.11
20
31.16
11
302.95
21
31.16
0
LINE
8
BLACK
6
CONTINUOUS
10
302.95
20
27.76
11
299.11
21
27.76
0
LINE
8
BLACK
6
CONTINUOUS
10
299.11
20
27.76
11
299.11
21
31.16
0
LINE
8
BLACK
6
CONTINUOUS
10
302.95
20
31.16
11
302.95
21
27.76
0
LINE
8
BLACK
6
CONTINUOUS
10
52.5125
20
-78.6125
11
50.2125
21
-78.6125
0
LINE
8
BLACK
6
CONTINUOUS
10
52.5125
20
-83.3125
11
50.2125
21
-83.3125
0
LINE
8
BLACK
6
CONTINUOUS
10
50.2125
20
-78.6125
11
50.2125
21
-83.3125
0
LINE
8
BLACK
6
CONTINUOUS
10
52.5125
20
-83.3125
11
52.5125
21
-78.6125
0
LINE
8
BLACK
6
CONTINUOUS
10
338.5
20
-102.362
11
336.2
21
-102.362
0
LINE
8
BLACK
6
CONTINUOUS
10
338.5
20
-102.362
11
338.5
21
-97.6625
0
LINE
8
BLACK
6
CONTINUOUS
10
338.5
20
-97.6625
11
336.2
21
-97.6625
0
LINE
8
BLACK
6
CONTINUOUS
10
336.2
20
-97.6625
11
336.2
21
-102.362
0
LINE
8
BLACK
6
CONTINUOUS
10
228.668
20
19.625
11
228.668
21
27.425
0
LINE
8
BLACK
6
CONTINUOUS
10
235.228
20
19.625
11
228.668
21
19.625
0
LINE
8
BLACK
6
CONTINUOUS
10
228.668
20
27.425
11
235.228
21
27.425
0
LINE
8
BLACK
6
CONTINUOUS
10
235.228
20
27.425
11
235.228
21
19.625
0
LINE
8
BLACK
6
CONTINUOUS
10
242.3
20
19.75
11
235.3
21
19.75
0
LINE
8
BLACK
6
CONTINUOUS
10
242.3
20
16.25
11
242.3
21
19.75
0
LINE
8
BLACK
6
CONTINUOUS
10
235.3
20
19.75
11
235.3
21
16.25
0
LINE
8
BLACK
6
CONTINUOUS
10
235.3
20
16.25
11
242.3
21
16.25
0
LINE
8
BLACK
6
CONTINUOUS
10
133.475
20
-2.35
11
131.175
21
-2.35
0
LINE
8
BLACK
6
CONTINUOUS
10
131.175
20
2.35
11
131.175
21
-2.35
0
LINE
8
BLACK
6
CONTINUOUS
10
133.475
20
-2.35
11
133.475
21
2.35
0
LINE
8
BLACK
6
CONTINUOUS
10
133.475
20
2.35
11
131.175
21
2.35
0
LINE
8
BLACK
6
CONTINUOUS
10
258.027
20
18.5109
11
259.314
21
17.224
0
LINE
8
BLACK
6
CONTINUOUS
10
259.964
20
17.8745
11
258.677
21
19.1615
0
LINE
8
BLACK
6
CONTINUOUS
10
258.677
20
19.1615
11
258.027
21
18.5109
0
LINE
8
BLACK
6
CONTINUOUS
10
259.314
20
17.224
11
259.964
21
17.8745
0
LINE
8
BLACK
6
CONTINUOUS
10
190.625
20
-45.2125
11
188.325
21
-45.2125
0
LINE
8
BLACK
6
CONTINUOUS
10
188.325
20
-40.5125
11
188.325
21
-45.2125
0
LINE
8
BLACK
6
CONTINUOUS
10
190.625
20
-40.5125
11
188.325
21
-40.5125
0
LINE
8
BLACK
6
CONTINUOUS
10
190.625
20
-45.2125
11
190.625
21
-40.5125
0
LINE
8
BLACK
6
CONTINUOUS
10
-21.525
20
-99.6125
11
-21.525
21
-91.7125
0
LINE
8
BLACK
6
CONTINUOUS
10
-9.425
20
-99.6125
11
-21.525
21
-99.6125
0
LINE
8
BLACK
6
CONTINUOUS
10
-21.525
20
-91.7125
11
-9.425
21
-91.7125
0
LINE
8
BLACK
6
CONTINUOUS
10
-9.425
20
-91.7125
11
-9.425
21
-99.6125
0
LINE
8
BLACK
6
CONTINUOUS
10
209.675
20
-45.2125
11
209.675
21
-40.5125
0
LINE
8
BLACK
6
CONTINUOUS
10
207.375
20
-40.5125
11
207.375
21
-45.2125
0
LINE
8
BLACK
6
CONTINUOUS
10
209.675
20
-40.5125
11
207.375
21
-40.5125
0
LINE
8
BLACK
6
CONTINUOUS
10
209.675
20
-45.2125
11
207.375
21
-45.2125
0
LINE
8
BLACK
6
CONTINUOUS
10
97.8375
20
-59.5625
11
97.8375
21
-64.2625
0
LINE
8
BLACK
6
CONTINUOUS
10
100.137
20
-64.2625
11
100.137
21
-59.5625
0
LINE
8
BLACK
6
CONTINUOUS
10
100.137
20
-59.5625
11
97.8375
21
-59.5625
0
LINE
8
BLACK
6
CONTINUOUS
10
100.137
20
-64.2625
11
97.8375
21
-64.2625
0
LINE
8
BLACK
6
CONTINUOUS
10
181.1
20
-21.4625
11
178.8
21
-21.4625
0
LINE
8
BLACK
6
CONTINUOUS
10
181.1
20
-26.1625
11
181.1
21
-21.4625
0
LINE
8
BLACK
6
CONTINUOUS
10
178.8
20
-21.4625
11
178.8
21
-26.1625
0
LINE
8
BLACK
6
CONTINUOUS
10
181.1
20
-26.1625
11
178.8
21
-26.1625
0
LINE
8
BLACK
6
CONTINUOUS
10
156.78
20
-66.32
11
154.48
21
-66.32
0
LINE
8
BLACK
6
CONTINUOUS
10
156.78
20
-66.32
11
156.78
21
-61.62
0
LINE
8
BLACK
6
CONTINUOUS
10
156.78
20
-61.62
11
154.48
21
-61.62
0
LINE
8
BLACK
6
CONTINUOUS
10
154.48
20
-61.62
11
154.48
21
-66.32
0
LINE
8
BLACK
6
CONTINUOUS
10
235.95
20
2.35
11
235.95
21
-2.35
0
LINE
8
BLACK
6
CONTINUOUS
10
238.25
20
-2.35
11
238.25
21
2.35
0
LINE
8
BLACK
6
CONTINUOUS
10
238.25
20
2.35
11
235.95
21
2.35
0
LINE
8
BLACK
6
CONTINUOUS
10
238.25
20
-2.35
11
235.95
21
-2.35
0
LINE
8
BLACK
6
CONTINUOUS
10
333.2
20
21.29
11
333.2
21
19.83
0
LINE
8
BLACK
6
CONTINUOUS
10
336.16
20
21.29
11
333.2
21
21.29
0
LINE
8
BLACK
6
CONTINUOUS
10
333.2
20
19.83
11
336.16
21
19.83
0
LINE
8
BLACK
6
CONTINUOUS
10
336.16
20
19.83
11
336.16
21
21.29
0
LINE
8
BLACK
6
CONTINUOUS
10
261.514
20
19.0109
11
260.864
21
19.6615
0
LINE
8
BLACK
6
CONTINUOUS
10
260.864
20
19.6615
11
259.577
21
18.3745
0
LINE
8
BLACK
6
CONTINUOUS
10
259.577
20
18.3745
11
260.227
21
17.724
0
LINE
8
BLACK
6
CONTINUOUS
10
260.227
20
17.724
11
261.514
21
19.0109
0
LINE
8
BLACK
6
CONTINUOUS
10
239.49
20
28.82
11
241.31
21
28.82
0
LINE
8
BLACK
6
CONTINUOUS
10
241.31
20
29.74
11
239.49
21
29.74
0
LINE
8
BLACK
6
CONTINUOUS
10
239.49
20
29.74
11
239.49
21
28.82
0
LINE
8
BLACK
6
CONTINUOUS
10
241.31
20
28.82
11
241.31
21
29.74
0
LINE
8
BLACK
6
CONTINUOUS
10
237.68
20
24.4679
11
237.68
21
27.8679
0
LINE
8
BLACK
6
CONTINUOUS
10
241.52
20
27.8679
11
241.52
21
24.4679
0
LINE
8
BLACK
6
CONTINUOUS
10
237.68
20
27.8679
11
241.52
21
27.8679
0
LINE
8
BLACK
6
CONTINUOUS
10
241.52
20
24.4679
11
237.68
21
24.4679
0
LINE
8
BLACK
6
CONTINUOUS
10
216.9
20
2.35
11
216.9
21
-2.35
0
LINE
8
BLACK
6
CONTINUOUS
10
219.2
20
-2.35
11
219.2
21
2.35
0
LINE
8
BLACK
6
CONTINUOUS
10
219.2
20
2.35
11
216.9
21
2.35
0
LINE
8
BLACK
6
CONTINUOUS
10
219.2
20
-2.35
11
216.9
21
-2.35
0
LINE
8
BLACK
6
CONTINUOUS
10
238.15
20
34.175
11
238.15
21
30.625
0
LINE
8
BLACK
6
CONTINUOUS
10
244.25
20
34.175
11
238.15
21
34.175
0
LINE
8
BLACK
6
CONTINUOUS
10
238.15
20
30.625
11
244.25
21
30.625
0
LINE
8
BLACK
6
CONTINUOUS
10
244.25
20
30.625
11
244.25
21
34.175
0
LINE
8
BLACK
6
CONTINUOUS
10
294.114
20
-57.9625
11
294.114
21
-65.8625
0
LINE
8
BLACK
6
CONTINUOUS
10
276.014
20
-57.9625
11
294.114
21
-57.9625
0
LINE
8
BLACK
6
CONTINUOUS
10
276.014
20
-65.8625
11
276.014
21
-57.9625
0
LINE
8
BLACK
6
CONTINUOUS
10
294.114
20
-65.8625
11
276.014
21
-65.8625
0
LINE
8
BLACK
6
CONTINUOUS
10
241.93
20
26.67
11
242.87
21
26.67
0
LINE
8
BLACK
6
CONTINUOUS
10
241.93
20
28.53
11
241.93
21
26.67
0
LINE
8
BLACK
6
CONTINUOUS
10
242.87
20
26.67
11
242.87
21
28.53
0
LINE
8
BLACK
6
CONTINUOUS
10
242.87
20
28.53
11
241.93
21
28.53
0
LINE
8
BLACK
6
CONTINUOUS
10
333.19
20
18
11
336.15
21
18
0
LINE
8
BLACK
6
CONTINUOUS
10
333.19
20
19.46
11
333.19
21
18
0
LINE
8
BLACK
6
CONTINUOUS
10
336.15
20
19.46
11
333.19
21
19.46
0
LINE
8
BLACK
6
CONTINUOUS
10
336.15
20
18
11
336.15
21
19.46
0
LINE
8
BLACK
6
CONTINUOUS
10
-9.425
20
-62.3125
11
-9.425
21
-70.2125
0
LINE
8
BLACK
6
CONTINUOUS
10
-21.525
20
-62.3125
11
-9.425
21
-62.3125
0
LINE
8
BLACK
6
CONTINUOUS
10
-9.425
20
-70.2125
11
-21.525
21
-70.2125
0
LINE
8
BLACK
6
CONTINUOUS
10
-21.525
20
-70.2125
11
-21.525
21
-62.3125
0
LINE
8
BLACK
6
CONTINUOUS
10
304.52
20
18.89
11
298.82
21
18.89
0
LINE
8
BLACK
6
CONTINUOUS
10
304.52
20
27.39
11
304.52
21
18.89
0
LINE
8
BLACK
6
CONTINUOUS
10
298.82
20
27.39
11
304.52
21
27.39
0
LINE
8
BLACK
6
CONTINUOUS
10
298.82
20
18.89
11
298.82
21
27.39
0
LINE
8
BLACK
6
CONTINUOUS
10
166.812
20
-83.3125
11
164.512
21
-83.3125
0
LINE
8
BLACK
6
CONTINUOUS
10
166.812
20
-83.3125
11
166.812
21
-78.6125
0
LINE
8
BLACK
6
CONTINUOUS
10
164.512
20
-78.6125
11
164.512
21
-83.3125
0
LINE
8
BLACK
6
CONTINUOUS
10
166.812
20
-78.6125
11
164.512
21
-78.6125
0
LINE
8
BLACK
6
CONTINUOUS
10
245.475
20
-40.5125
11
245.475
21
-45.2125
0
LINE
8
BLACK
6
CONTINUOUS
10
247.775
20
-45.2125
11
245.475
21
-45.2125
0
LINE
8
BLACK
6
CONTINUOUS
10
247.775
20
-40.5125
11
245.475
21
-40.5125
0
LINE
8
BLACK
6
CONTINUOUS
10
247.775
20
-45.2125
11
247.775
21
-40.5125
0
LINE
8
BLACK
6
CONTINUOUS
10
242.32
20
12.7
11
238.48
21
12.7
0
LINE
8
BLACK
6
CONTINUOUS
10
242.32
20
16.1
11
242.32
21
12.7
0
LINE
8
BLACK
6
CONTINUOUS
10
238.48
20
16.1
11
242.32
21
16.1
0
LINE
8
BLACK
6
CONTINUOUS
10
238.48
20
12.7
11
238.48
21
16.1
0
LINE
8
BLACK
6
CONTINUOUS
10
298.1
20
-21.4625
11
298.1
21
-26.1625
0
LINE
8
BLACK
6
CONTINUOUS
10
300.4
20
-26.1625
11
298.1
21
-26.1625
0
LINE
8
BLACK
6
CONTINUOUS
10
300.4
20
-21.4625
11
298.1
21
-21.4625
0
LINE
8
BLACK
6
CONTINUOUS
10
300.4
20
-26.1625
11
300.4
21
-21.4625
0
LINE
8
BLACK
6
CONTINUOUS
10
40.6875
20
-59.5625
11
40.6875
21
-64.2625
0
LINE
8
BLACK
6
CONTINUOUS
10
42.9875
20
-59.5625
11
40.6875
21
-59.5625
0
LINE
8
BLACK
6
CONTINUOUS
10
42.9875
20
-64.2625
11
40.6875
21
-64.2625
0
LINE
8
BLACK
6
CONTINUOUS
10
42.9875
20
-64.2625
11
42.9875
21
-59.5625
0
LINE
8
BLACK
6
CONTINUOUS
10
123.95
20
-26.1625
11
123.95
21
-21.4625
0
LINE
8
BLACK
6
CONTINUOUS
10
121.65
20
-21.4625
11
121.65
21
-26.1625
0
LINE
8
BLACK
6
CONTINUOUS
10
123.95
20
-26.1625
11
121.65
21
-26.1625
0
LINE
8
BLACK
6
CONTINUOUS
10
123.95
20
-21.4625
11
121.65
21
-21.4625
0
LINE
8
BLACK
6
CONTINUOUS
10
62.0375
20
-97.6625
11
59.7375
21
-97.6625
0
LINE
8
BLACK
6
CONTINUOUS
10
62.0375
20
-102.362
11
62.0375
21
-97.6625
0
LINE
8
BLACK
6
CONTINUOUS
10
59.7375
20
-97.6625
11
59.7375
21
-102.362
0
LINE
8
BLACK
6
CONTINUOUS
10
62.0375
20
-102.362
11
59.7375
21
-102.362
0
LINE
8
BLACK
6
CONTINUOUS
10
242.74
20
15.31
11
242.74
21
13.49
0
LINE
8
BLACK
6
CONTINUOUS
10
243.66
20
15.31
11
242.74
21
15.31
0
LINE
8
BLACK
6
CONTINUOUS
10
243.66
20
13.49
11
243.66
21
15.31
0
LINE
8
BLACK
6
CONTINUOUS
10
242.74
20
13.49
11
243.66
21
13.49
0
LINE
8
BLACK
6
CONTINUOUS
10
266.819
20
28.3044
11
265.532
21
29.5914
0
LINE
8
BLACK
6
CONTINUOUS
10
266.168
20
27.6539
11
266.819
21
28.3044
0
LINE
8
BLACK
6
CONTINUOUS
10
264.881
20
28.9408
11
266.168
21
27.6539
0
LINE
8
BLACK
6
CONTINUOUS
10
265.532
20
29.5914
11
264.881
21
28.9408
0
LINE
8
BLACK
6
CONTINUOUS
10
332.905
20
19.95
11
329.545
21
19.95
0
LINE
8
BLACK
6
CONTINUOUS
10
332.905
20
18.05
11
332.905
21
19.95
0
LINE
8
BLACK
6
CONTINUOUS
10
329.545
20
19.95
11
329.545
21
18.05
0
LINE
8
BLACK
6
CONTINUOUS
10
329.545
20
18.05
11
332.905
21
18.05
0
LINE
8
BLACK
6
CONTINUOUS
10
171.575
20
-2.35
11
171.575
21
2.35
0
LINE
8
BLACK
6
CONTINUOUS
10
171.575
20
2.35
11
169.275
21
2.35
0
LINE
8
BLACK
6
CONTINUOUS
10
169.275
20
2.35
11
169.275
21
-2.35
0
LINE
8
BLACK
6
CONTINUOUS
10
171.575
20
-2.35
11
169.275
21
-2.35
0
LINE
8
BLACK
6
CONTINUOUS
10
271.587
20
-45.2125
11
269.287
21
-45.2125
0
LINE
8
BLACK
6
CONTINUOUS
10
271.587
20
-45.2125
11
271.587
21
-40.5125
0
LINE
8
BLACK
6
CONTINUOUS
10
269.287
20
-40.5125
11
269.287
21
-45.2125
0
LINE
8
BLACK
6
CONTINUOUS
10
271.587
20
-40.5125
11
269.287
21
-40.5125
0
LINE
8
BLACK
6
CONTINUOUS
10
-3.823
20
18.928
11
-8.523
21
18.928
0
LINE
8
BLACK
6
CONTINUOUS
10
-3.823
20
16.628
11
-3.823
21
18.928
0
LINE
8
BLACK
6
CONTINUOUS
10
-8.523
20
16.628
11
-8.523
21
18.928
0
LINE
8
BLACK
6
CONTINUOUS
10
-8.523
20
16.628
11
-3.823
21
16.628
0
LINE
8
BLACK
6
CONTINUOUS
10
240.91
20
21.39
11
240.91
21
22.31
0
LINE
8
BLACK
6
CONTINUOUS
10
240.91
20
22.31
11
239.09
21
22.31
0
LINE
8
BLACK
6
CONTINUOUS
10
239.09
20
21.39
11
240.91
21
21.39
0
LINE
8
BLACK
6
CONTINUOUS
10
239.09
20
22.31
11
239.09
21
21.39
0
LINE
8
BLACK
6
CONTINUOUS
10
338.275
20
-0.4
11
350.375
21
-0.4
0
LINE
8
BLACK
6
CONTINUOUS
10
350.375
20
-0.4
11
350.375
21
-8.3
0
LINE
8
BLACK
6
CONTINUOUS
10
338.275
20
-8.3
11
338.275
21
-0.4
0
LINE
8
BLACK
6
CONTINUOUS
10
350.375
20
-8.3
11
338.275
21
-8.3
0
LINE
8
BLACK
6
CONTINUOUS
10
241.96
20
24.4221
11
242.9
21
24.4221
0
LINE
8
BLACK
6
CONTINUOUS
10
242.9
20
26.2821
11
241.96
21
26.2821
0
LINE
8
BLACK
6
CONTINUOUS
10
241.96
20
26.2821
11
241.96
21
24.4221
0
LINE
8
BLACK
6
CONTINUOUS
10
242.9
20
24.4221
11
242.9
21
26.2821
0
LINE
8
BLACK
6
CONTINUOUS
10
338.275
20
-15.5125
11
350.375
21
-15.5125
0
LINE
8
BLACK
6
CONTINUOUS
10
338.275
20
-23.4125
11
338.275
21
-15.5125
0
LINE
8
BLACK
6
CONTINUOUS
10
350.375
20
-15.5125
11
350.375
21
-23.4125
0
LINE
8
BLACK
6
CONTINUOUS
10
350.375
20
-23.4125
11
338.275
21
-23.4125
0
LINE
8
BLACK
6
CONTINUOUS
10
171.575
20
-45.2125
11
171.575
21
-40.5125
0
LINE
8
BLACK
6
CONTINUOUS
10
169.275
20
-40.5125
11
169.275
21
-45.2125
0
LINE
8
BLACK
6
CONTINUOUS
10
171.575
20
-40.5125
11
169.275
21
-40.5125
0
LINE
8
BLACK
6
CONTINUOUS
10
171.575
20
-45.2125
11
169.275
21
-45.2125
0
LINE
8
BLACK
6
CONTINUOUS
10
126.412
20
-78.6125
11
126.412
21
-83.3125
0
LINE
8
BLACK
6
CONTINUOUS
10
128.713
20
-83.3125
11
128.713
21
-78.6125
0
LINE
8
BLACK
6
CONTINUOUS
10
128.713
20
-78.6125
11
126.412
21
-78.6125
0
LINE
8
BLACK
6
CONTINUOUS
10
128.713
20
-83.3125
11
126.412
21
-83.3125
0
LINE
8
BLACK
6
CONTINUOUS
10
28.7
20
-26.1625
11
28.7
21
-21.4625
0
LINE
8
BLACK
6
CONTINUOUS
10
26.4
20
-21.4625
11
26.4
21
-26.1625
0
LINE
8
BLACK
6
CONTINUOUS
10
28.7
20
-21.4625
11
26.4
21
-21.4625
0
LINE
8
BLACK
6
CONTINUOUS
10
28.7
20
-26.1625
11
26.4
21
-26.1625
0
LINE
8
BLACK
6
CONTINUOUS
10
280.471
20
11.625
11
280.471
21
19.525
0
LINE
8
BLACK
6
CONTINUOUS
10
298.571
20
11.625
11
280.471
21
11.625
0
LINE
8
BLACK
6
CONTINUOUS
10
280.471
20
19.525
11
298.571
21
19.525
0
LINE
8
BLACK
6
CONTINUOUS
10
298.571
20
19.525
11
298.571
21
11.625
0
LINE
8
BLACK
6
CONTINUOUS
10
223.962
20
-97.6625
11
221.662
21
-97.6625
0
LINE
8
BLACK
6
CONTINUOUS
10
221.662
20
-97.6625
11
221.662
21
-102.362
0
LINE
8
BLACK
6
CONTINUOUS
10
223.962
20
-102.362
11
221.662
21
-102.362
0
LINE
8
BLACK
6
CONTINUOUS
10
223.962
20
-102.362
11
223.962
21
-97.6625
0
LINE
8
BLACK
6
CONTINUOUS
10
-14.023
20
19.5516
11
-14.023
21
17.7316
0
LINE
8
BLACK
6
CONTINUOUS
10
-11.023
20
19.5516
11
-14.023
21
19.5516
0
LINE
8
BLACK
6
CONTINUOUS
10
-11.023
20
17.7316
11
-11.023
21
19.5516
0
LINE
8
BLACK
6
CONTINUOUS
10
-14.023
20
17.7316
11
-11.023
21
17.7316
0
LINE
8
BLACK
6
CONTINUOUS
10
268.908
20
30.4808
11
267.621
21
29.1939
0
LINE
8
BLACK
6
CONTINUOUS
10
269.558
20
29.8303
11
268.908
21
30.4808
0
LINE
8
BLACK
6
CONTINUOUS
10
268.271
20
28.5433
11
269.558
21
29.8303
0
LINE
8
BLACK
6
CONTINUOUS
10
267.621
20
29.1939
11
268.271
21
28.5433
0
LINE
8
BLACK
6
CONTINUOUS
10
257.932
20
30.2289
11
259.219
21
31.5158
0
LINE
8
BLACK
6
CONTINUOUS
10
257.281
20
30.8794
11
257.932
21
30.2289
0
LINE
8
BLACK
6
CONTINUOUS
10
258.568
20
32.1664
11
257.281
21
30.8794
0
LINE
8
BLACK
6
CONTINUOUS
10
259.219
20
31.5158
11
258.568
21
32.1664
0
LINE
8
BLACK
6
CONTINUOUS
10
271.587
20
-102.362
11
271.587
21
-97.6625
0
LINE
8
BLACK
6
CONTINUOUS
10
271.587
20
-97.6625
11
269.287
21
-97.6625
0
LINE
8
BLACK
6
CONTINUOUS
10
269.287
20
-97.6625
11
269.287
21
-102.362
0
LINE
8
BLACK
6
CONTINUOUS
10
271.587
20
-102.362
11
269.287
21
-102.362
0
LINE
8
BLACK
6
CONTINUOUS
10
119.04
20
-65.56
11
119.04
21
-60.86
0
LINE
8
BLACK
6
CONTINUOUS
10
119.04
20
-60.86
11
116.74
21
-60.86
0
LINE
8
BLACK
6
CONTINUOUS
10
119.04
20
-65.56
11
116.74
21
-65.56
0
LINE
8
BLACK
6
CONTINUOUS
10
116.74
20
-60.86
11
116.74
21
-65.56
0
LINE
8
BLACK
6
CONTINUOUS
10
109.662
20
-78.6125
11
107.362
21
-78.6125
0
LINE
8
BLACK
6
CONTINUOUS
10
109.662
20
-83.3125
11
109.662
21
-78.6125
0
LINE
8
BLACK
6
CONTINUOUS
10
107.362
20
-78.6125
11
107.362
21
-83.3125
0
LINE
8
BLACK
6
CONTINUOUS
10
109.662
20
-83.3125
11
107.362
21
-83.3125
0
LINE
8
BLACK
6
CONTINUOUS
10
185.862
20
-83.3125
11
183.562
21
-83.3125
0
LINE
8
BLACK
6
CONTINUOUS
10
183.562
20
-78.6125
11
183.562
21
-83.3125
0
LINE
8
BLACK
6
CONTINUOUS
10
185.862
20
-78.6125
11
183.562
21
-78.6125
0
LINE
8
BLACK
6
CONTINUOUS
10
185.862
20
-83.3125
11
185.862
21
-78.6125
0
LINE
8
BLACK
6
CONTINUOUS
10
216.9
20
-21.4625
11
216.9
21
-26.1625
0
LINE
8
BLACK
6
CONTINUOUS
10
219.2
20
-21.4625
11
216.9
21
-21.4625
0
LINE
8
BLACK
6
CONTINUOUS
10
219.2
20
-26.1625
11
216.9
21
-26.1625
0
LINE
8
BLACK
6
CONTINUOUS
10
219.2
20
-26.1625
11
219.2
21
-21.4625
0
LINE
8
BLACK
6
CONTINUOUS
10
319.45
20
-102.362
11
319.45
21
-97.6625
0
LINE
8
BLACK
6
CONTINUOUS
10
319.45
20
-102.362
11
317.15
21
-102.362
0
LINE
8
BLACK
6
CONTINUOUS
10
319.45
20
-97.6625
11
317.15
21
-97.6625
0
LINE
8
BLACK
6
CONTINUOUS
10
317.15
20
-97.6625
11
317.15
21
-102.362
0
LINE
8
BLACK
6
CONTINUOUS
10
-21.525
20
-42.4625
11
-21.525
21
-34.5625
0
LINE
8
BLACK
6
CONTINUOUS
10
-21.525
20
-34.5625
11
-9.425
21
-34.5625
0
LINE
8
BLACK
6
CONTINUOUS
10
-9.425
20
-42.4625
11
-21.525
21
-42.4625
0
LINE
8
BLACK
6
CONTINUOUS
10
-9.425
20
-34.5625
11
-9.425
21
-42.4625
0
LINE
8
BLACK
6
CONTINUOUS
10
350.375
20
-81.3625
11
350.375
21
-89.2625
0
LINE
8
BLACK
6
CONTINUOUS
10
350.375
20
-89.2625
11
338.275
21
-89.2625
0
LINE
8
BLACK
6
CONTINUOUS
10
338.275
20
-89.2625
11
338.275
21
-81.3625
0
LINE
8
BLACK
6
CONTINUOUS
10
338.275
20
-81.3625
11
350.375
21
-81.3625
0
LINE
8
BLACK
6
CONTINUOUS
10
66.8
20
2.35
11
64.5
21
2.35
0
LINE
8
BLACK
6
CONTINUOUS
10
66.8
20
-2.35
11
64.5
21
-2.35
0
LINE
8
BLACK
6
CONTINUOUS
10
64.5
20
2.35
11
64.5
21
-2.35
0
LINE
8
BLACK
6
CONTINUOUS
10
66.8
20
-2.35
11
66.8
21
2.35
0
LINE
8
BLACK
6
CONTINUOUS
10
204.912
20
-83.3125
11
204.912
21
-78.6125
0
LINE
8
BLACK
6
CONTINUOUS
10
204.912
20
-83.3125
11
202.612
21
-83.3125
0
LINE
8
BLACK
6
CONTINUOUS
10
202.612
20
-78.6125
11
202.612
21
-83.3125
0
LINE
8
BLACK
6
CONTINUOUS
10
204.912
20
-78.6125
11
202.612
21
-78.6125
0
LINE
8
BLACK
6
CONTINUOUS
10
338.275
20
-32.1125
11
338.275
21
-24.2125
0
LINE
8
BLACK
6
CONTINUOUS
10
350.375
20
-24.2125
11
350.375
21
-32.1125
0
LINE
8
BLACK
6
CONTINUOUS
10
350.375
20
-32.1125
11
338.275
21
-32.1125
0
LINE
8
BLACK
6
CONTINUOUS
10
338.275
20
-24.2125
11
350.375
21
-24.2125
0
LINE
8
BLACK
6
CONTINUOUS
10
-21.525
20
-72.6625
11
-9.425
21
-72.6625
0
LINE
8
BLACK
6
CONTINUOUS
10
-9.425
20
-80.5625
11
-21.525
21
-80.5625
0
LINE
8
BLACK
6
CONTINUOUS
10
-21.525
20
-80.5625
11
-21.525
21
-72.6625
0
LINE
8
BLACK
6
CONTINUOUS
10
-9.425
20
-72.6625
11
-9.425
21
-80.5625
0
LINE
8
BLACK
6
CONTINUOUS
10
21.5562
20
-83.3125
11
21.5562
21
-78.6125
0
LINE
8
BLACK
6
CONTINUOUS
10
19.2562
20
-78.6125
11
19.2562
21
-83.3125
0
LINE
8
BLACK
6
CONTINUOUS
10
21.5562
20
-78.6125
11
19.2562
21
-78.6125
0
LINE
8
BLACK
6
CONTINUOUS
10
21.5562
20
-83.3125
11
19.2562
21
-83.3125
0
LINE
8
BLACK
6
CONTINUOUS
10
263.57
20
-60.85
11
268.27
21
-60.85
0
LINE
8
BLACK
6
CONTINUOUS
10
263.57
20
-58.55
11
263.57
21
-60.85
0
LINE
8
BLACK
6
CONTINUOUS
10
268.27
20
-58.55
11
263.57
21
-58.55
0
LINE
8
BLACK
6
CONTINUOUS
10
268.27
20
-58.55
11
268.27
21
-60.85
0
LINE
8
BLACK
6
CONTINUOUS
10
264.525
20
-21.4625
11
264.525
21
-26.1625
0
LINE
8
BLACK
6
CONTINUOUS
10
266.825
20
-26.1625
11
264.525
21
-26.1625
0
LINE
8
BLACK
6
CONTINUOUS
10
266.825
20
-21.4625
11
264.525
21
-21.4625
0
LINE
8
BLACK
6
CONTINUOUS
10
266.825
20
-26.1625
11
266.825
21
-21.4625
0
LINE
8
BLACK
6
CONTINUOUS
10
170.1
20
-66.21
11
174.8
21
-66.21
0
LINE
8
BLACK
6
CONTINUOUS
10
174.8
20
-66.21
11
174.8
21
-63.91
0
LINE
8
BLACK
6
CONTINUOUS
10
170.1
20
-66.21
11
170.1
21
-63.91
0
LINE
8
BLACK
6
CONTINUOUS
10
174.8
20
-63.91
11
170.1
21
-63.91
0
LINE
8
BLACK
6
CONTINUOUS
10
104.9
20
-21.4625
11
102.6
21
-21.4625
0
LINE
8
BLACK
6
CONTINUOUS
10
104.9
20
-26.1625
11
104.9
21
-21.4625
0
LINE
8
BLACK
6
CONTINUOUS
10
104.9
20
-26.1625
11
102.6
21
-26.1625
0
LINE
8
BLACK
6
CONTINUOUS
10
102.6
20
-21.4625
11
102.6
21
-26.1625
0
LINE
8
BLACK
6
CONTINUOUS
10
133.475
20
-40.5125
11
131.175
21
-40.5125
0
LINE
8
BLACK
6
CONTINUOUS
10
131.175
20
-40.5125
11
131.175
21
-45.2125
0
LINE
8
BLACK
6
CONTINUOUS
10
133.475
20
-45.2125
11
133.475
21
-40.5125
0
LINE
8
BLACK
6
CONTINUOUS
10
133.475
20
-45.2125
11
131.175
21
-45.2125
0
LINE
8
BLACK
6
CONTINUOUS
10
66.8
20
-26.1625
11
64.5
21
-26.1625
0
LINE
8
BLACK
6
CONTINUOUS
10
66.8
20
-21.4625
11
64.5
21
-21.4625
0
LINE
8
BLACK
6
CONTINUOUS
10
64.5
20
-21.4625
11
64.5
21
-26.1625
0
LINE
8
BLACK
6
CONTINUOUS
10
66.8
20
-26.1625
11
66.8
21
-21.4625
0
LINE
8
BLACK
6
CONTINUOUS
10
339.05
20
1.48
11
336.75
21
1.48
0
LINE
8
BLACK
6
CONTINUOUS
10
336.75
20
6.18
11
336.75
21
1.48
0
LINE
8
BLACK
6
CONTINUOUS
10
339.05
20
1.48
11
339.05
21
6.18
0
LINE
8
BLACK
6
CONTINUOUS
10
339.05
20
6.18
11
336.75
21
6.18
0
LINE
8
BLACK
6
CONTINUOUS
10
-21.525
20
-23.4125
11
-21.525
21
-15.5125
0
LINE
8
BLACK
6
CONTINUOUS
10
-9.425
20
-15.5125
11
-9.425
21
-23.4125
0
LINE
8
BLACK
6
CONTINUOUS
10
-21.525
20
-15.5125
11
-9.425
21
-15.5125
0
LINE
8
BLACK
6
CONTINUOUS
10
-9.425
20
-23.4125
11
-21.525
21
-23.4125
0
LINE
8
BLACK
6
CONTINUOUS
10
152.525
20
2.35
11
150.225
21
2.35
0
LINE
8
BLACK
6
CONTINUOUS
10
152.525
20
-2.35
11
152.525
21
2.35
0
LINE
8
BLACK
6
CONTINUOUS
10
150.225
20
2.35
11
150.225
21
-2.35
0
LINE
8
BLACK
6
CONTINUOUS
10
152.525
20
-2.35
11
150.225
21
-2.35
0
LINE
8
BLACK
6
CONTINUOUS
10
93.075
20
-40.5125
11
93.075
21
-45.2125
0
LINE
8
BLACK
6
CONTINUOUS
10
95.375
20
-40.5125
11
93.075
21
-40.5125
0
LINE
8
BLACK
6
CONTINUOUS
10
95.375
20
-45.2125
11
95.375
21
-40.5125
0
LINE
8
BLACK
6
CONTINUOUS
10
95.375
20
-45.2125
11
93.075
21
-45.2125
0
LINE
8
BLACK
6
CONTINUOUS
10
76.325
20
-45.2125
11
76.325
21
-40.5125
0
LINE
8
BLACK
6
CONTINUOUS
10
76.325
20
-45.2125
11
74.025
21
-45.2125
0
LINE
8
BLACK
6
CONTINUOUS
10
76.325
20
-40.5125
11
74.025
21
-40.5125
0
LINE
8
BLACK
6
CONTINUOUS
10
74.025
20
-40.5125
11
74.025
21
-45.2125
0
LINE
8
BLACK
6
CONTINUOUS
10
298.1
20
-97.6625
11
298.1
21
-102.362
0
LINE
8
BLACK
6
CONTINUOUS
10
300.4
20
-102.362
11
298.1
21
-102.362
0
LINE
8
BLACK
6
CONTINUOUS
10
300.4
20
-97.6625
11
298.1
21
-97.6625
0
LINE
8
BLACK
6
CONTINUOUS
10
300.4
20
-102.362
11
300.4
21
-97.6625
0
LINE
8
BLACK
6
CONTINUOUS
10
350.375
20
-62.3125
11
350.375
21
-70.2125
0
LINE
8
BLACK
6
CONTINUOUS
10
338.275
20
-70.2125
11
338.275
21
-62.3125
0
LINE
8
BLACK
6
CONTINUOUS
10
350.375
20
-70.2125
11
338.275
21
-70.2125
0
LINE
8
BLACK
6
CONTINUOUS
10
338.275
20
-62.3125
11
350.375
21
-62.3125
0
LINE
8
BLACK
6
CONTINUOUS
10
257.806
20
30.0294
11
258.457
21
29.3789
0
LINE
8
BLACK
6
CONTINUOUS
10
259.093
20
31.3164
11
257.806
21
30.0294
0
LINE
8
BLACK
6
CONTINUOUS
10
259.744
20
30.6658
11
259.093
21
31.3164
0
LINE
8
BLACK
6
CONTINUOUS
10
258.457
20
29.3789
11
259.744
21
30.6658
0
LINE
8
BLACK
6
CONTINUOUS
10
38.225
20
-40.5125
11
35.925
21
-40.5125
0
LINE
8
BLACK
6
CONTINUOUS
10
38.225
20
-45.2125
11
38.225
21
-40.5125
0
LINE
8
BLACK
6
CONTINUOUS
10
35.925
20
-40.5125
11
35.925
21
-45.2125
0
LINE
8
BLACK
6
CONTINUOUS
10
38.225
20
-45.2125
11
35.925
21
-45.2125
0
LINE
8
BLACK
6
CONTINUOUS
10
238.875
20
21.263
11
237.055
21
21.263
0
LINE
8
BLACK
6
CONTINUOUS
10
237.055
20
21.263
11
237.055
21
20.343
0
LINE
8
BLACK
6
CONTINUOUS
10
238.875
20
20.343
11
238.875
21
21.263
0
LINE
8
BLACK
6
CONTINUOUS
10
237.055
20
20.343
11
238.875
21
20.343
0
LINE
8
BLACK
6
CONTINUOUS
10
143
20
-97.6625
11
140.7
21
-97.6625
0
LINE
8
BLACK
6
CONTINUOUS
10
143
20
-102.362
11
140.7
21
-102.362
0
LINE
8
BLACK
6
CONTINUOUS
10
140.7
20
-97.6625
11
140.7
21
-102.362
0
LINE
8
BLACK
6
CONTINUOUS
10
143
20
-102.362
11
143
21
-97.6625
0
LINE
8
BLACK
6
CONTINUOUS
10
90.6125
20
-83.3125
11
88.3125
21
-83.3125
0
LINE
8
BLACK
6
CONTINUOUS
10
90.6125
20
-78.6125
11
88.3125
21
-78.6125
0
LINE
8
BLACK
6
CONTINUOUS
10
88.3125
20
-78.6125
11
88.3125
21
-83.3125
0
LINE
8
BLACK
6
CONTINUOUS
10
90.6125
20
-83.3125
11
90.6125
21
-78.6125
0
LINE
8
BLACK
6
CONTINUOUS
10
152.525
20
-40.5125
11
150.225
21
-40.5125
0
LINE
8
BLACK
6
CONTINUOUS
10
152.525
20
-45.2125
11
150.225
21
-45.2125
0
LINE
8
BLACK
6
CONTINUOUS
10
150.225
20
-40.5125
11
150.225
21
-45.2125
0
LINE
8
BLACK
6
CONTINUOUS
10
152.525
20
-45.2125
11
152.525
21
-40.5125
  0
ENDSEC
  0
EOF
