999
dxfrw 0.6.3
  0
SECTION
  2
HEADER
  9
$ACADVER
  1
AC1021
  9
$DWGCODEPAGE
  3
ANSI_950
  9
$INSBASE
 10
0
 20
0
 30
0
  9
$EXTMIN
 10
118.7978127844464
 20
-258.7130875788967
 30
0
  9
$EXTMAX
 10
521.4252952066022
 20
-172.3130324072247
 30
0
  9
$LIMMIN
 10
0
 20
0
  9
$LIMMAX
 10
420
 20
297
  9
$ORTHOMODE
 70
    1
  9
$REGENMODE
 70
    1
  9
$FILLMODE
 70
    1
  9
$QTEXTMODE
 70
    0
  9
$MIRRTEXT
 70
    1
  9
$LTSCALE
 40
1
  9
$ATTMODE
 70
    1
  9
$TEXTSIZE
 40
2.5
  9
$TRACEWID
 40
1
  9
$TEXTSTYLE
  7
Standard
  9
$CLAYER
  8
B_Courtyard
  9
$CELTYPE
  6
HIDDEN
  9
$CECOLOR
 62
    3
  9
$CELTSCALE
 40
1
  9
$DISPSILH
 70
    0
  9
$DIMSCALE
 40
1
  9
$DIMASZ
 40
1
  9
$DIMEXO
 40
0.625
  9
$DIMDLI
 40
1.58
  9
$DIMRND
 40
0
  9
$DIMDLE
 40
0
  9
$DIMEXE
 40
1.25
  9
$DIMTP
 40
0
  9
$DIMTM
 40
0
  9
$DIMTXT
 40
1
  9
$DIMCEN
 40
2.5
  9
$DIMTSZ
 40
0
  9
$DIMTOL
 70
    0
  9
$DIMLIM
 70
    0
  9
$DIMTIH
 70
    0
  9
$DIMTOH
 70
    0
  9
$DIMSE1
 70
    0
  9
$DIMSE2
 70
    0
  9
$DIMTAD
 70
    1
  9
$DIMZIN
 70
    1
  9
$DIMBLK
  1

  9
$DIMASO
 70
    1
  9
$DIMSHO
 70
    1
  9
$DIMPOST
  1

  9
$DIMAPOST
  1

  9
$DIMALT
 70
    0
  9
$DIMALTD
 70
    3
  9
$DIMALTF
 40
0.03937007874016
  9
$DIMLFAC
 40
1
  9
$DIMTOFL
 70
    1
  9
$DIMTVP
 40
0
  9
$DIMTIX
 70
    0
  9
$DIMSOXD
 70
    0
  9
$DIMSAH
 70
    0
  9
$DIMBLK1
  1

  9
$DIMBLK2
  1

  9
$DIMSTYLE
  2
ISO-25
  9
$DIMCLRD
 70
    0
  9
$DIMCLRE
 70
    0
  9
$DIMCLRT
 70
    0
  9
$DIMTFAC
 40
1
  9
$DIMGAP
 40
0.325
  9
$DIMJUST
 70
    0
  9
$DIMSD1
 70
    0
  9
$DIMSD2
 70
    0
  9
$DIMTOLJ
 70
    0
  9
$DIMTZIN
 70
    8
  9
$DIMALTZ
 70
    0
  9
$DIMALTTZ
 70
    0
  9
$DIMUPT
 70
    0
  9
$DIMDEC
 70
    2
  9
$DIMTDEC
 70
    2
  9
$DIMALTU
 70
    2
  9
$DIMALTTD
 70
    3
  9
$DIMTXSTY
  7
Standard
  9
$DIMAUNIT
 70
    0
  9
$DIMADEC
 70
    0
  9
$DIMALTRND
 40
0
  9
$DIMAZIN
 70
    0
  9
$DIMDSEP
 70
   44
  9
$DIMATFIT
 70
    3
  9
$DIMFRAC
 70
    0
  9
$DIMLDRBLK
  1

  9
$DIMLUNIT
 70
    2
  9
$DIMLWD
 70
   -2
  9
$DIMLWE
 70
   -2
  9
$DIMTMOVE
 70
    0
  9
$DIMFXL
 40
1
  9
$DIMFXLON
 70
    0
  9
$DIMJOGANG
 40
0.7854
  9
$DIMTFILL
 70
    0
  9
$DIMTFILLCLR
 70
    0
  9
$DIMARCSYM
 70
    0
  9
$DIMLTYPE
  6

  9
$DIMLTEX1
  6

  9
$DIMLTEX2
  6

  9
$LUNITS
 70
    2
  9
$LUPREC
 70
    4
  9
$SKETCHINC
 40
1
  9
$FILLETRAD
 40
0
  9
$AUNITS
 70
    0
  9
$AUPREC
 70
    2
  9
$MENU
  1
.
  9
$ELEVATION
 40
0
  9
$PELEVATION
 40
0
  9
$THICKNESS
 40
0
  9
$LIMCHECK
 70
    0
  9
$CHAMFERA
 40
0
  9
$CHAMFERB
 40
0
  9
$CHAMFERC
 40
0
  9
$CHAMFERD
 40
0
  9
$SKPOLY
 70
    0
  9
$USRTIMER
 70
    1
  9
$ANGBASE
 50
0
  9
$ANGDIR
 70
    0
  9
$PDMODE
 70
    0
  9
$PDSIZE
 40
0
  9
$PLINEWID
 40
0
  9
$SPLFRAME
 70
    0
  9
$SPLINETYPE
 70
    6
  9
$SPLINESEGS
 70
    8
  9
$HANDSEED
  5
20000
  9
$SURFTAB1
 70
    6
  9
$SURFTAB2
 70
    6
  9
$SURFTYPE
 70
    6
  9
$SURFU
 70
    6
  9
$SURFV
 70
    6
  9
$UCSBASE
  2

  9
$UCSNAME
  2

  9
$UCSORG
 10
0
 20
0
 30
0
  9
$UCSXDIR
 10
1
 20
0
 30
0
  9
$UCSYDIR
 10
0
 20
1
 30
0
  9
$UCSORTHOREF
  2

  9
$UCSORTHOVIEW
 70
    0
  9
$UCSORGTOP
 10
0
 20
0
 30
0
  9
$UCSORGBOTTOM
 10
0
 20
0
 30
0
  9
$UCSORGLEFT
 10
0
 20
0
 30
0
  9
$UCSORGRIGHT
 10
0
 20
0
 30
0
  9
$UCSORGFRONT
 10
0
 20
0
 30
0
  9
$UCSORGBACK
 10
0
 20
0
 30
0
  9
$PUCSBASE
  2

  9
$PUCSNAME
  2

  9
$PUCSORG
 10
0
 20
0
 30
0
  9
$PUCSXDIR
 10
1
 20
0
 30
0
  9
$PUCSYDIR
 10
0
 20
1
 30
0
  9
$PUCSORTHOREF
  2

  9
$PUCSORTHOVIEW
 70
    0
  9
$PUCSORGTOP
 10
0
 20
0
 30
0
  9
$PUCSORGBOTTOM
 10
0
 20
0
 30
0
  9
$PUCSORGLEFT
 10
0
 20
0
 30
0
  9
$PUCSORGRIGHT
 10
0
 20
0
 30
0
  9
$PUCSORGFRONT
 10
0
 20
0
 30
0
  9
$PUCSORGBACK
 10
0
 20
0
 30
0
  9
$USERI1
 70
    0
  9
$USERI2
 70
    0
  9
$USERI3
 70
    0
  9
$USERI4
 70
    0
  9
$USERI5
 70
    0
  9
$USERR1
 40
0
  9
$USERR2
 40
0
  9
$USERR3
 40
0
  9
$USERR4
 40
0
  9
$USERR5
 40
0
  9
$WORLDVIEW
 70
    1
  9
$SHADEDGE
 70
    3
  9
$SHADEDIF
 70
   70
  9
$TILEMODE
 70
    1
  9
$MAXACTVP
 70
   64
  9
$PINSBASE
 10
0
 20
0
 30
0
  9
$PLIMCHECK
 70
    0
  9
$PEXTMIN
 10
1e+20
 20
1e+20
 30
1e+20
  9
$PEXTMAX
 10
-1e+20
 20
-1e+20
 30
-1e+20
  9
$GRIDMODE
 70
    0
  9
$SNAPSTYLE
 70
    0
  9
$PLIMMIN
 10
0
 20
0
  9
$PLIMMAX
 10
420
 20
297
  9
$UNITMODE
 70
    0
  9
$VISRETAIN
 70
    1
  9
$PLINEGEN
 70
    0
  9
$PSLTSCALE
 70
    1
  9
$TREEDEPTH
 70
 3020
  9
$CMLSTYLE
  2
Standard
  9
$CMLJUST
 70
    0
  9
$CMLSCALE
 40
20
  9
$PROXYGRAPHICS
 70
    1
  9
$MEASUREMENT
 70
    1
  9
$CELWEIGHT
370
   -1
  9
$ENDCAPS
280
    0
  9
$JOINSTYLE
280
    0
  9
$LWDISPLAY
290
    0
  9
$INSUNITS
 70
    4
  9
$HYPERLINKBASE
  1

  9
$STYLESHEET
  1

  9
$XEDIT
290
    1
  9
$CEPSNTYPE
380
    0
  9
$PSTYLEMODE
290
    1
  9
$EXTNAMES
290
    1
  9
$PSVPSCALE
 40
0
  9
$OLESTARTUP
290
    0
  9
$SORTENTS
280
  127
  9
$INDEXCTL
280
    0
  9
$HIDETEXT
280
    1
  9
$XCLIPFRAME
290
    0
  9
$HALOGAP
280
    0
  9
$OBSCOLOR
 70
  257
  9
$OBSLTYPE
280
    0
  9
$INTERSECTIONDISPLAY
280
    0
  9
$INTERSECTIONCOLOR
 70
  257
  9
$DIMASSOC
280
    1
  9
$PROJECTNAME
  1

  9
$CAMERADISPLAY
290
    0
  9
$LENSLENGTH
 40
50
  9
$CAMERAHEIGHT
 40
0
  9
$STEPSPERSEC
 40
2
  9
$STEPSIZE
 40
50
  9
$3DDWFPREC
 40
2
  9
$PSOLWIDTH
 40
5
  9
$PSOLHEIGHT
 40
80
  9
$LOFTANG1
 40
1.570796326794897
  9
$LOFTANG2
 40
1.570796326794897
  9
$LOFTMAG1
 40
0
  9
$LOFTMAG2
 40
0
  9
$LOFTPARAM
 70
    7
  9
$LOFTNORMALS
280
    1
  9
$LATITUDE
 40
1
  9
$LONGITUDE
 40
1
  9
$NORTHDIRECTION
 40
0
  9
$TIMEZONE
 70
-8000
  9
$LIGHTGLYPHDISPLAY
280
    1
  9
$TILEMODELIGHTSYNCH
280
    1
  9
$SOLIDHIST
280
    1
  9
$SHOWHIST
280
    1
  9
$DWFFRAME
280
    2
  9
$DGNFRAME
280
    0
  9
$REALWORLDSCALE
290
    1
  9
$INTERFERECOLOR
 62
    1
  9
$CSHADOW
280
    0
  9
$SHADOWPLANELOCATION
 40
0
  0
ENDSEC
  0
SECTION
  2
CLASSES
  0
ENDSEC
  0
SECTION
  2
TABLES
  0
TABLE
  2
VPORT
  5
8
330
0
100
AcDbSymbolTable
 70
    1
  0
VPORT
  5
31
330
2
100
AcDbSymbolTableRecord
100
AcDbViewportTableRecord
  2
*ACTIVE
 70
    0
 10
0
 20
0
 11
1
 21
1
 12
131.8155972902656
 22
-102.9232146582681
 13
0
 23
0
 14
10
 24
10
 15
10
 25
10
 16
0
 26
0
 36
1
 17
0
 27
0
 37
0
 40
17.63473470959061
 41
1.379204892966361
 42
50
 43
0
 44
0
 50
0
 51
0
 71
    0
 72
  100
 73
    1
 74
    3
 75
    0
 76
    0
 77
    0
 78
    0
281
    0
 65
    1
110
0
120
0
130
0
111
1
121
0
131
0
112
0
122
1
132
0
 79
    0
146
0
348
10020
 60
    7
 61
    5
292
1
282
    1
141
0
142
0
 63
  250
421
3358443
  0
ENDTAB
  0
TABLE
  2
LTYPE
  5
5
330
0
100
AcDbSymbolTable
 70
    4
  0
LTYPE
  5
14
330
5
100
AcDbSymbolTableRecord
100
AcDbLinetypeTableRecord
  2
ByBlock
 70
    0
  3

 72
   65
 73
    0
 40
0
  0
LTYPE
  5
15
330
5
100
AcDbSymbolTableRecord
100
AcDbLinetypeTableRecord
  2
ByLayer
 70
    0
  3

 72
   65
 73
    0
 40
0
  0
LTYPE
  5
16
330
5
100
AcDbSymbolTableRecord
100
AcDbLinetypeTableRecord
  2
Continuous
 70
    0
  3
Solid line
 72
   65
 73
    0
 40
0
  0
LTYPE
  5
32
330
5
100
AcDbSymbolTableRecord
100
AcDbLinetypeTableRecord
  2
DOT
 70
    0
  3
Dot . . . . . . . . . . . . . . . . . . . . . .
 72
   65
 73
    2
 40
6.35
 49
0
 74
    0
 49
-6.35
 74
    0
  0
LTYPE
  5
33
330
5
100
AcDbSymbolTableRecord
100
AcDbLinetypeTableRecord
  2
DOTTINY
 70
    0
  3
Dot (.15x) .....................................
 72
   65
 73
    2
 40
0.9525
 49
0
 74
    0
 49
-0.9525
 74
    0
  0
LTYPE
  5
34
330
5
100
AcDbSymbolTableRecord
100
AcDbLinetypeTableRecord
  2
DOT2
 70
    0
  3
Dot (.5x) .....................................
 72
   65
 73
    2
 40
3.175
 49
0
 74
    0
 49
-3.175
 74
    0
  0
LTYPE
  5
35
330
5
100
AcDbSymbolTableRecord
100
AcDbLinetypeTableRecord
  2
DOTX2
 70
    0
  3
Dot (2x) .  .  .  .  .  .  .  .  .  .  .  .  .
 72
   65
 73
    2
 40
12.7
 49
0
 74
    0
 49
-12.7
 74
    0
  0
LTYPE
  5
36
330
5
100
AcDbSymbolTableRecord
100
AcDbLinetypeTableRecord
  2
DASHED
 70
    0
  3
Dashed _ _ _ _ _ _ _ _ _ _ _ _ _ _ _ _ _
 72
   65
 73
    2
 40
19.05
 49
12.7
 74
    0
 49
-6.35
 74
    0
  0
LTYPE
  5
37
330
5
100
AcDbSymbolTableRecord
100
AcDbLinetypeTableRecord
  2
DASHEDTINY
 70
    0
  3
Dashed (.15x) _ _ _ _ _ _ _ _ _ _ _ _ _ _ _ _ _
 72
   65
 73
    2
 40
2.8575
 49
1.905
 74
    0
 49
-0.9525
 74
    0
  0
LTYPE
  5
38
330
5
100
AcDbSymbolTableRecord
100
AcDbLinetypeTableRecord
  2
DASHED2
 70
    0
  3
Dashed (.5x) _ _ _ _ _ _ _ _ _ _ _ _ _ _ _ _ _
 72
   65
 73
    2
 40
9.524999999999999
 49
6.35
 74
    0
 49
-3.175
 74
    0
  0
LTYPE
  5
39
330
5
100
AcDbSymbolTableRecord
100
AcDbLinetypeTableRecord
  2
DASHEDX2
 70
    0
  3
Dashed (2x) ____  ____  ____  ____  ____  ___
 72
   65
 73
    2
 40
38.09999999999999
 49
25.4
 74
    0
 49
-12.7
 74
    0
  0
LTYPE
  5
3A
330
5
100
AcDbSymbolTableRecord
100
AcDbLinetypeTableRecord
  2
DASHDOT
 70
    0
  3
Dash dot __ . __ . __ . __ . __ . __ . __ . __
 72
   65
 73
    4
 40
25.4
 49
12.7
 74
    0
 49
-6.35
 74
    0
 49
0
 74
    0
 49
-6.35
 74
    0
  0
LTYPE
  5
3B
330
5
100
AcDbSymbolTableRecord
100
AcDbLinetypeTableRecord
  2
DASHDOTTINY
 70
    0
  3
Dash dot (.15x) _._._._._._._._._._._._._._._.
 72
   65
 73
    4
 40
3.81
 49
1.905
 74
    0
 49
-0.9525
 74
    0
 49
0
 74
    0
 49
-0.9525
 74
    0
  0
LTYPE
  5
3C
330
5
100
AcDbSymbolTableRecord
100
AcDbLinetypeTableRecord
  2
DASHDOT2
 70
    0
  3
Dash dot (.5x) _._._._._._._._._._._._._._._.
 72
   65
 73
    4
 40
12.7
 49
6.35
 74
    0
 49
-3.175
 74
    0
 49
0
 74
    0
 49
-3.175
 74
    0
  0
LTYPE
  5
3D
330
5
100
AcDbSymbolTableRecord
100
AcDbLinetypeTableRecord
  2
DASHDOTX2
 70
    0
  3
Dash dot (2x) ____  .  ____  .  ____  .  ___
 72
   65
 73
    4
 40
50.8
 49
25.4
 74
    0
 49
-12.7
 74
    0
 49
0
 74
    0
 49
-12.7
 74
    0
  0
LTYPE
  5
3E
330
5
100
AcDbSymbolTableRecord
100
AcDbLinetypeTableRecord
  2
DIVIDE
 70
    0
  3
Divide ____ . . ____ . . ____ . . ____ . . ____
 72
   65
 73
    6
 40
31.75
 49
12.7
 74
    0
 49
-6.35
 74
    0
 49
0
 74
    0
 49
-6.35
 74
    0
 49
0
 74
    0
 49
-6.35
 74
    0
  0
LTYPE
  5
3F
330
5
100
AcDbSymbolTableRecord
100
AcDbLinetypeTableRecord
  2
DIVIDETINY
 70
    0
  3
Divide (.15x) __..__..__..__..__..__..__..__.._
 72
   65
 73
    6
 40
4.7625
 49
1.905
 74
    0
 49
-0.9525
 74
    0
 49
0
 74
    0
 49
-0.9525
 74
    0
 49
0
 74
    0
 49
-0.9525
 74
    0
  0
LTYPE
  5
40
330
5
100
AcDbSymbolTableRecord
100
AcDbLinetypeTableRecord
  2
DIVIDE2
 70
    0
  3
Divide (.5x) __..__..__..__..__..__..__..__.._
 72
   65
 73
    6
 40
15.875
 49
6.35
 74
    0
 49
-3.175
 74
    0
 49
0
 74
    0
 49
-3.175
 74
    0
 49
0
 74
    0
 49
-3.175
 74
    0
  0
LTYPE
  5
41
330
5
100
AcDbSymbolTableRecord
100
AcDbLinetypeTableRecord
  2
DIVIDEX2
 70
    0
  3
Divide (2x) ________  .  .  ________  .  .  _
 72
   65
 73
    6
 40
63.5
 49
25.4
 74
    0
 49
-12.7
 74
    0
 49
0
 74
    0
 49
-12.7
 74
    0
 49
0
 74
    0
 49
-12.7
 74
    0
  0
LTYPE
  5
42
330
5
100
AcDbSymbolTableRecord
100
AcDbLinetypeTableRecord
  2
BORDER
 70
    0
  3
Border __ __ . __ __ . __ __ . __ __ . __ __ .
 72
   65
 73
    6
 40
44.45
 49
12.7
 74
    0
 49
-6.35
 74
    0
 49
12.7
 74
    0
 49
-6.35
 74
    0
 49
0
 74
    0
 49
-6.35
 74
    0
  0
LTYPE
  5
43
330
5
100
AcDbSymbolTableRecord
100
AcDbLinetypeTableRecord
  2
BORDERTINY
 70
    0
  3
Border (.15x) __.__.__.__.__.__.__.__.__.__.__.
 72
   65
 73
    6
 40
6.6675
 49
1.905
 74
    0
 49
-0.9525
 74
    0
 49
1.905
 74
    0
 49
-0.9525
 74
    0
 49
0
 74
    0
 49
-0.9525
 74
    0
  0
LTYPE
  5
44
330
5
100
AcDbSymbolTableRecord
100
AcDbLinetypeTableRecord
  2
BORDER2
 70
    0
  3
Border (.5x) __.__.__.__.__.__.__.__.__.__.__.
 72
   65
 73
    6
 40
22.225
 49
6.35
 74
    0
 49
-3.175
 74
    0
 49
6.35
 74
    0
 49
-3.175
 74
    0
 49
0
 74
    0
 49
-3.175
 74
    0
  0
LTYPE
  5
45
330
5
100
AcDbSymbolTableRecord
100
AcDbLinetypeTableRecord
  2
BORDERX2
 70
    0
  3
Border (2x) ____  ____  .  ____  ____  .  ___
 72
   65
 73
    6
 40
88.89999999999999
 49
25.4
 74
    0
 49
-12.7
 74
    0
 49
25.4
 74
    0
 49
-12.7
 74
    0
 49
0
 74
    0
 49
-12.7
 74
    0
  0
LTYPE
  5
46
330
5
100
AcDbSymbolTableRecord
100
AcDbLinetypeTableRecord
  2
CENTER
 70
    0
  3
Center ____ _ ____ _ ____ _ ____ _ ____ _ ____
 72
   65
 73
    4
 40
50.8
 49
31.75
 74
    0
 49
-6.35
 74
    0
 49
6.35
 74
    0
 49
-6.35
 74
    0
  0
LTYPE
  5
47
330
5
100
AcDbSymbolTableRecord
100
AcDbLinetypeTableRecord
  2
CENTERTINY
 70
    0
  3
Center (.15x) ___ _ ___ _ ___ _ ___ _ ___ _ ___
 72
   65
 73
    4
 40
7.619999999999999
 49
4.7625
 74
    0
 49
-0.9525
 74
    0
 49
0.9525
 74
    0
 49
-0.9525
 74
    0
  0
LTYPE
  5
48
330
5
100
AcDbSymbolTableRecord
100
AcDbLinetypeTableRecord
  2
CENTER2
 70
    0
  3
Center (.5x) ___ _ ___ _ ___ _ ___ _ ___ _ ___
 72
   65
 73
    4
 40
28.575
 49
19.05
 74
    0
 49
-3.175
 74
    0
 49
3.175
 74
    0
 49
-3.175
 74
    0
  0
LTYPE
  5
49
330
5
100
AcDbSymbolTableRecord
100
AcDbLinetypeTableRecord
  2
CENTERX2
 70
    0
  3
Center (2x) ________  __  ________  __  _____
 72
   65
 73
    4
 40
101.6
 49
63.5
 74
    0
 49
-12.7
 74
    0
 49
12.7
 74
    0
 49
-12.7
 74
    0
  0
ENDTAB
  0
TABLE
  2
LAYER
  5
2
330
0
100
AcDbSymbolTable
 70
    1
  0
LAYER
  5
10
330
2
100
AcDbSymbolTableRecord
100
AcDbLayerTableRecord
  2
0
 70
    0
 62
    7
  6
CONTINUOUS
370
   -3
390
F
  0
LAYER
  5
4A
330
2
100
AcDbSymbolTableRecord
100
AcDbLayerTableRecord
  2
B_Courtyard
 70
    0
 62
    1
  6
CONTINUOUS
370
   -3
390
F
  0
LAYER
  5
4B
330
2
100
AcDbSymbolTableRecord
100
AcDbLayerTableRecord
  2
Defpoints
 70
    0
 62
    7
  6
CONTINUOUS
290
0
370
   -3
390
F
  0
LAYER
  5
4C
330
2
100
AcDbSymbolTableRecord
100
AcDbLayerTableRecord
  2
F_Mask
 70
    0
 62
   12
  6
CONTINUOUS
370
   -3
390
F
  0
ENDTAB
  0
TABLE
  2
STYLE
  5
3
330
0
100
AcDbSymbolTable
 70
    3
  0
STYLE
  5
4D
330
2
100
AcDbSymbolTableRecord
100
AcDbTextStyleTableRecord
  2
Standard
 70
    0
 40
0
 41
1
 50
0
 71
    0
 42
1
  3
txt
  4

  0
ENDTAB
  0
TABLE
  2
VIEW
  5
6
330
0
100
AcDbSymbolTable
 70
    0
  0
ENDTAB
  0
TABLE
  2
UCS
  5
7
330
0
100
AcDbSymbolTable
 70
    0
  0
ENDTAB
  0
TABLE
  2
APPID
  5
9
330
0
100
AcDbSymbolTable
 70
    1
  0
APPID
  5
12
330
9
100
AcDbSymbolTableRecord
100
AcDbRegAppTableRecord
  2
ACAD
 70
    0
  0
APPID
  5
4E
330
9
100
AcDbSymbolTableRecord
100
AcDbRegAppTableRecord
  2
LibreCad
 70
    0
  0
ENDTAB
  0
TABLE
  2
DIMSTYLE
  5
A
330
0
100
AcDbSymbolTable
 70
    1
100
AcDbDimStyleTable
 71
    1
  0
DIMSTYLE
105
4F
330
A
100
AcDbSymbolTableRecord
100
AcDbDimStyleTableRecord
  2
Standard
 70
    0
 40
1
 41
1
 42
0.625
 43
0.38
 44
1.25
 45
0
 46
0
 47
0
 48
0
 49
1
140
1
141
0.09
142
0
143
25.4
144
1
145
0
146
1
147
0.325
148
0
 71
    0
 72
    0
 73
    0
 74
    1
 75
    0
 76
    0
 77
    0
 78
    1
 79
    0
170
    0
171
    2
172
    0
173
    0
174
    0
175
    0
176
    0
177
    0
178
    0
179
    0
271
    2
272
    4
273
    2
274
    2
275
    0
276
    0
277
    2
278
   44
279
    0
280
    0
281
    0
282
    0
283
    1
284
    0
285
    0
286
    0
288
    0
289
    3
340
Standard
341

371
   -2
372
   -2
  0
ENDTAB
  0
TABLE
  2
BLOCK_RECORD
  5
1
330
0
100
AcDbSymbolTable
 70
    2
  0
BLOCK_RECORD
  5
1F
330
1
100
AcDbSymbolTableRecord
100
AcDbBlockTableRecord
  2
*Model_Space
 70
    0
280
    1
281
    0
  0
BLOCK_RECORD
  5
1E
330
1
100
AcDbSymbolTableRecord
100
AcDbBlockTableRecord
  2
*Paper_Space
 70
    0
280
    1
281
    0
  0
BLOCK_RECORD
  5
50
330
1
100
AcDbSymbolTableRecord
100
AcDbBlockTableRecord
  2
*D7
 70
    0
280
    1
281
    0
  0
BLOCK_RECORD
  5
53
330
1
100
AcDbSymbolTableRecord
100
AcDbBlockTableRecord
  2
*D3
 70
    0
280
    1
281
    0
  0
BLOCK_RECORD
  5
56
330
1
100
AcDbSymbolTableRecord
100
AcDbBlockTableRecord
  2
*D4
 70
    0
280
    1
281
    0
  0
BLOCK_RECORD
  5
59
330
1
100
AcDbSymbolTableRecord
100
AcDbBlockTableRecord
  2
*D12
 70
    0
280
    1
281
    0
  0
BLOCK_RECORD
  5
5C
330
1
100
AcDbSymbolTableRecord
100
AcDbBlockTableRecord
  2
*D9
 70
    0
280
    1
281
    0
  0
BLOCK_RECORD
  5
5F
330
1
100
AcDbSymbolTableRecord
100
AcDbBlockTableRecord
  2
*D5
 70
    0
280
    1
281
    0
  0
BLOCK_RECORD
  5
62
330
1
100
AcDbSymbolTableRecord
100
AcDbBlockTableRecord
  2
*D2
 70
    0
280
    1
281
    0
  0
BLOCK_RECORD
  5
65
330
1
100
AcDbSymbolTableRecord
100
AcDbBlockTableRecord
  2
*D10
 70
    0
280
    1
281
    0
  0
BLOCK_RECORD
  5
68
330
1
100
AcDbSymbolTableRecord
100
AcDbBlockTableRecord
  2
*D1
 70
    0
280
    1
281
    0
  0
BLOCK_RECORD
  5
6B
330
1
100
AcDbSymbolTableRecord
100
AcDbBlockTableRecord
  2
*D11
 70
    0
280
    1
281
    0
  0
BLOCK_RECORD
  5
6E
330
1
100
AcDbSymbolTableRecord
100
AcDbBlockTableRecord
  2
*D8
 70
    0
280
    1
281
    0
  0
BLOCK_RECORD
  5
71
330
1
100
AcDbSymbolTableRecord
100
AcDbBlockTableRecord
  2
*D6
 70
    0
280
    1
281
    0
  0
BLOCK_RECORD
  5
74
330
1
100
AcDbSymbolTableRecord
100
AcDbBlockTableRecord
  2
_ARCHTICK
 70
    0
280
    1
281
    0
  0
ENDTAB
  0
ENDSEC
  0
SECTION
  2
BLOCKS
  0
BLOCK
  5
20
330
1F
100
AcDbEntity
  8
0
100
AcDbBlockBegin
  2
*Model_Space
 70
    0
 10
0
 20
0
 30
0
  3
*Model_Space
  1

  0
ENDBLK
  5
21
330
1F
100
AcDbEntity
  8
0
100
AcDbBlockEnd
  0
BLOCK
  5
1C
330
1B
100
AcDbEntity
  8
0
100
AcDbBlockBegin
  2
*Paper_Space
 70
    0
 10
0
 20
0
 30
0
  3
*Paper_Space
  1

  0
ENDBLK
  5
1D
330
1F
100
AcDbEntity
  8
0
100
AcDbBlockEnd
  0
BLOCK
  5
51
330
50
100
AcDbEntity
  8
0
100
AcDbBlockBegin
  2
*D7
 70
    1
 10
0
 20
0
  3
*D7
  1

  0
LINE
  5
77
100
AcDbEntity
  8
B_Courtyard
  6
ByBlock
 62
    0
370
   -2
100
AcDbLine
 10
119.3280424207455
 20
-257.4630875788967
 11
491.2230427592999
 21
-257.4630875788967
  0
SOLID
  5
78
100
AcDbEntity
  8
B_Courtyard
  6
ByBlock
 62
    0
370
   -2
100
AcDbTrace
 10
119.3280424207455
 20
-257.4630875788967
 30
0
 11
120.3280424207455
 21
-257.2965737157876
 31
0
 12
120.3280424207455
 22
-257.6296014420058
 32
0
 13
120.3280424207455
 23
-257.6296014420058
 33
0
  0
SOLID
  5
79
100
AcDbEntity
  8
B_Courtyard
  6
ByBlock
 62
    0
370
   -2
100
AcDbTrace
 10
491.2230427592999
 20
-257.4630875788967
 30
0
 11
490.2230427592999
 21
-257.6296014420058
 31
0
 12
490.2230427592999
 22
-257.2965737157876
 32
0
 13
490.2230427592999
 23
-257.2965737157876
 33
0
  0
MTEXT
  5
7A
100
AcDbEntity
  8
B_Courtyard
  6
CONTINUOUS
 62
    0
370
   -2
100
AcDbMText
 10
305.2755425900227
 20
-254.8380875788966
 30
0
 40
1
 41
3.722222222222284
 71
    5
 72
    1
  1
371,90
  7
Standard
210
0
220
0
230
1
 50
0
 73
    2
 44
1
  0
LINE
  5
7B
100
AcDbEntity
  8
B_Courtyard
  6
ByBlock
 62
    0
370
   -2
100
AcDbLine
 10
119.3280424207455
 20
-234.5321973942623
 11
119.3280424207455
 21
-258.7130875788967
  0
LINE
  5
7C
100
AcDbEntity
  8
B_Courtyard
  6
ByBlock
 62
    0
370
   -2
100
AcDbLine
 10
491.2230427592999
 20
-234.5321973942623
 11
491.2230427592999
 21
-258.7130875788967
  0
ENDBLK
  5
52
330
50
100
AcDbEntity
  8
0
100
AcDbBlockEnd
  0
BLOCK
  5
54
330
53
100
AcDbEntity
  8
0
100
AcDbBlockBegin
  2
*D3
 70
    1
 10
0
 20
0
  3
*D3
  1

  0
LINE
  5
7D
100
AcDbEntity
  8
B_Courtyard
  6
ByBlock
 62
    0
370
   -2
100
AcDbLine
 10
419.4653185345555
 20
-195.094717388547
 11
481.9230385345304
 21
-195.094717388547
  0
SOLID
  5
7E
100
AcDbEntity
  8
B_Courtyard
  6
ByBlock
 62
    0
370
   -2
100
AcDbTrace
 10
419.4653185345555
 20
-195.094717388547
 30
0
 11
420.4653185345555
 21
-194.9282035254379
 31
0
 12
420.4653185345555
 22
-195.2612312516561
 32
0
 13
420.4653185345555
 23
-195.2612312516561
 33
0
  0
SOLID
  5
7F
100
AcDbEntity
  8
B_Courtyard
  6
ByBlock
 62
    0
370
   -2
100
AcDbTrace
 10
481.9230385345304
 20
-195.094717388547
 30
0
 11
480.9230385345304
 21
-195.2612312516561
 31
0
 12
480.9230385345304
 22
-194.9282035254379
 32
0
 13
480.9230385345304
 23
-194.9282035254379
 33
0
  0
MTEXT
  5
80
100
AcDbEntity
  8
B_Courtyard
  6
CONTINUOUS
 62
    0
370
   -2
100
AcDbMText
 10
450.6941785345429
 20
-192.469717388547
 30
0
 40
1
 41
3.277777777777902
 71
    5
 72
    1
  1
62,46
  7
Standard
210
0
220
0
230
1
 50
0
 73
    2
 44
1
  0
LINE
  5
81
100
AcDbEntity
  8
B_Courtyard
  6
ByBlock
 62
    0
370
   -2
100
AcDbLine
 10
419.4653185345555
 20
-216.536501545911
 11
419.4653185345555
 21
-193.844717388547
  0
LINE
  5
82
100
AcDbEntity
  8
B_Courtyard
  6
ByBlock
 62
    0
370
   -2
100
AcDbLine
 10
481.9230385345304
 20
-216.5364552421602
 11
481.9230385345304
 21
-193.844717388547
  0
ENDBLK
  5
55
330
53
100
AcDbEntity
  8
0
100
AcDbBlockEnd
  0
BLOCK
  5
57
330
56
100
AcDbEntity
  8
0
100
AcDbBlockBegin
  2
*D4
 70
    1
 10
0
 20
0
  3
*D4
  1

  0
LINE
  5
83
100
AcDbEntity
  8
B_Courtyard
  6
ByBlock
 62
    0
370
   -2
100
AcDbLine
 10
318.292878362729
 20
-195.7623751797148
 11
250.2853185344134
 21
-195.7623751797148
  0
SOLID
  5
84
100
AcDbEntity
  8
B_Courtyard
  6
ByBlock
 62
    0
370
   -2
100
AcDbTrace
 10
318.292878362729
 20
-195.7623751797148
 30
0
 11
317.292878362729
 21
-195.928889042824
 31
0
 12
317.292878362729
 22
-195.5958613166057
 32
0
 13
317.292878362729
 23
-195.5958613166057
 33
0
  0
SOLID
  5
85
100
AcDbEntity
  8
B_Courtyard
  6
ByBlock
 62
    0
370
   -2
100
AcDbTrace
 10
250.2853185344134
 20
-195.7623751797148
 30
0
 11
251.2853185344134
 21
-195.5958613166057
 31
0
 12
251.2853185344134
 22
-195.928889042824
 32
0
 13
251.2853185344134
 23
-195.928889042824
 33
0
  0
MTEXT
  5
86
100
AcDbEntity
  8
B_Courtyard
  6
CONTINUOUS
 62
    0
370
   -2
100
AcDbMText
 10
284.2890984485712
 20
-193.1373751797148
 30
0
 40
1
 41
2.944444444444506
 71
    5
 72
    1
  1
68,01
  7
Standard
210
0
220
0
230
1
 50
360
 73
    2
 44
1
  0
LINE
  5
87
100
AcDbEntity
  8
B_Courtyard
  6
ByBlock
 62
    0
370
   -2
100
AcDbLine
 10
318.292878362729
 20
-205.6658585879511
 11
318.292878362729
 21
-194.5123751797148
  0
LINE
  5
88
100
AcDbEntity
  8
B_Courtyard
  6
ByBlock
 62
    0
370
   -2
100
AcDbLine
 10
250.2853185344134
 20
-216.5286917637097
 11
250.2853185344134
 21
-194.5123751797148
  0
ENDBLK
  5
58
330
56
100
AcDbEntity
  8
0
100
AcDbBlockEnd
  0
BLOCK
  5
5A
330
59
100
AcDbEntity
  8
0
100
AcDbBlockBegin
  2
*D12
 70
    1
 10
0
 20
0
  3
*D12
  1

  0
LINE
  5
89
100
AcDbEntity
  8
B_Courtyard
  6
ByBlock
 62
    0
370
   -2
100
AcDbLine
 10
434.553201205897
 20
-219.3071988885282
 11
434.553201205897
 21
-215.161501545911
  0
SOLID
  5
8A
100
AcDbEntity
  8
B_Courtyard
  6
ByBlock
 62
    0
370
   -2
100
AcDbTrace
 10
434.553201205897
 20
-217.3071988885282
 30
0
 11
434.7197150690061
 21
-218.3071988885282
 31
0
 12
434.3866873427879
 22
-218.3071988885282
 32
0
 13
434.3866873427879
 23
-218.3071988885282
 33
0
  0
SOLID
  5
8B
100
AcDbEntity
  8
B_Courtyard
  6
ByBlock
 62
    0
370
   -2
100
AcDbTrace
 10
434.553201205897
 20
-217.161501545911
 30
0
 11
434.3866873427879
 21
-216.161501545911
 31
0
 12
434.7197150690061
 22
-216.161501545911
 32
0
 13
434.7197150690061
 23
-216.161501545911
 33
0
  0
MTEXT
  5
8C
100
AcDbEntity
  8
B_Courtyard
  6
CONTINUOUS
 62
    0
370
   -2
100
AcDbMText
 10
433.6448678725637
 20
-212.0219862079357
 30
0
 40
1
 41
2.166666666666729
 71
    5
 72
    1
  1
0,15
  7
Standard
210
0
220
0
230
1
 50
90
 73
    2
 44
1
  0
LINE
  5
8D
100
AcDbEntity
  8
B_Courtyard
  6
ByBlock
 62
    0
370
   -2
100
AcDbLine
 10
422.5860693803641
 20
-217.3071988885282
 11
435.803201205897
 21
-217.3071988885282
  0
LINE
  5
8E
100
AcDbEntity
  8
B_Courtyard
  6
ByBlock
 62
    0
370
   -2
100
AcDbLine
 10
424.4083930366901
 20
-217.161501545911
 11
435.803201205897
 21
-217.161501545911
  0
ENDBLK
  5
5B
330
59
100
AcDbEntity
  8
0
100
AcDbBlockEnd
  0
BLOCK
  5
5D
330
5C
100
AcDbEntity
  8
0
100
AcDbBlockBegin
  2
*D9
 70
    1
 10
0
 20
0
  3
*D9
  1

  0
LINE
  5
8F
100
AcDbEntity
  8
B_Courtyard
  6
ByBlock
 62
    0
370
   -2
100
AcDbLine
 10
138.2863102230881
 20
-219.3071988886302
 11
138.2863102230881
 21
-215.1536917637097
  0
SOLID
  5
90
100
AcDbEntity
  8
B_Courtyard
  6
ByBlock
 62
    0
370
   -2
100
AcDbTrace
 10
138.2863102230881
 20
-217.3071988886302
 30
0
 11
138.4528240861972
 21
-218.3071988886302
 31
0
 12
138.1197963599789
 22
-218.3071988886302
 32
0
 13
138.1197963599789
 23
-218.3071988886302
 33
0
  0
SOLID
  5
91
100
AcDbEntity
  8
B_Courtyard
  6
ByBlock
 62
    0
370
   -2
100
AcDbTrace
 10
138.2863102230881
 20
-217.1536917637097
 30
0
 11
138.1197963599789
 21
-216.1536917637097
 31
0
 12
138.4528240861972
 22
-216.1536917637097
 32
0
 13
138.4528240861972
 23
-216.1536917637097
 33
0
  0
MTEXT
  5
92
100
AcDbEntity
  8
B_Courtyard
  6
CONTINUOUS
 62
    0
370
   -2
100
AcDbMText
 10
137.3779768897548
 20
-212.0102715345828
 30
0
 40
1
 41
2.166666666666729
 71
    5
 72
    1
  1
0,15
  7
Standard
210
0
220
0
230
1
 50
90
 73
    2
 44
1
  0
LINE
  5
93
100
AcDbEntity
  8
B_Courtyard
  6
ByBlock
 62
    0
370
   -2
100
AcDbLine
 10
131.7136115204605
 20
-217.3071988886302
 11
139.5363102230881
 21
-217.3071988886302
  0
LINE
  5
94
100
AcDbEntity
  8
B_Courtyard
  6
ByBlock
 62
    0
370
   -2
100
AcDbLine
 10
133.5661130365838
 20
-217.1536917637097
 11
139.5363102230881
 21
-217.1536917637097
  0
ENDBLK
  5
5E
330
5C
100
AcDbEntity
  8
0
100
AcDbBlockEnd
  0
BLOCK
  5
60
330
5F
100
AcDbEntity
  8
0
100
AcDbBlockBegin
  2
*D5
 70
    1
 10
0
 20
0
  3
*D5
  1

  0
LINE
  5
95
100
AcDbEntity
  8
B_Courtyard
  6
ByBlock
 62
    0
370
   -2
100
AcDbLine
 10
250.2853185344134
 20
-196.3167773660284
 11
128.6230385344492
 21
-196.3167773660284
  0
SOLID
  5
96
100
AcDbEntity
  8
B_Courtyard
  6
ByBlock
 62
    0
370
   -2
100
AcDbTrace
 10
250.2853185344134
 20
-196.3167773660284
 30
0
 11
249.2853185344134
 21
-196.4832912291375
 31
0
 12
249.2853185344134
 22
-196.1502635029192
 32
0
 13
249.2853185344134
 23
-196.1502635029192
 33
0
  0
SOLID
  5
97
100
AcDbEntity
  8
B_Courtyard
  6
ByBlock
 62
    0
370
   -2
100
AcDbTrace
 10
128.6230385344492
 20
-196.3167773660284
 30
0
 11
129.6230385344492
 21
-196.1502635029192
 31
0
 12
129.6230385344492
 22
-196.4832912291375
 32
0
 13
129.6230385344492
 23
-196.4832912291375
 33
0
  0
MTEXT
  5
98
100
AcDbEntity
  8
B_Courtyard
  6
CONTINUOUS
 62
    0
370
   -2
100
AcDbMText
 10
189.4541785344313
 20
-193.6917773660284
 30
0
 40
1
 41
3.500000000000124
 71
    5
 72
    1
  1
121,66
  7
Standard
210
0
220
0
230
1
 50
360
 73
    2
 44
1
  0
LINE
  5
99
100
AcDbEntity
  8
B_Courtyard
  6
ByBlock
 62
    0
370
   -2
100
AcDbLine
 10
250.2853185344134
 20
-216.5286917637097
 11
250.2853185344134
 21
-195.0667773660284
  0
LINE
  5
9A
100
AcDbEntity
  8
B_Courtyard
  6
ByBlock
 62
    0
370
   -2
100
AcDbLine
 10
128.6230385344492
 20
-216.5286917637097
 11
128.6230385344492
 21
-195.0667773660284
  0
ENDBLK
  5
61
330
5F
100
AcDbEntity
  8
0
100
AcDbBlockEnd
  0
BLOCK
  5
63
330
62
100
AcDbEntity
  8
0
100
AcDbBlockBegin
  2
*D2
 70
    1
 10
0
 20
0
  3
*D2
  1

  0
LINE
  5
9B
100
AcDbEntity
  8
B_Courtyard
  6
ByBlock
 62
    0
370
   -2
100
AcDbLine
 10
336.0153185344711
 20
-195.138160622186
 11
419.4653185345555
 21
-195.138160622186
  0
SOLID
  5
9C
100
AcDbEntity
  8
B_Courtyard
  6
ByBlock
 62
    0
370
   -2
100
AcDbTrace
 10
336.0153185344711
 20
-195.138160622186
 30
0
 11
337.0153185344711
 21
-194.9716467590769
 31
0
 12
337.0153185344711
 22
-195.3046744852952
 32
0
 13
337.0153185344711
 23
-195.3046744852952
 33
0
  0
SOLID
  5
9D
100
AcDbEntity
  8
B_Courtyard
  6
ByBlock
 62
    0
370
   -2
100
AcDbTrace
 10
419.4653185345555
 20
-195.138160622186
 30
0
 11
418.4653185345555
 21
-195.3046744852952
 31
0
 12
418.4653185345555
 22
-194.9716467590769
 32
0
 13
418.4653185345555
 23
-194.9716467590769
 33
0
  0
MTEXT
  5
9E
100
AcDbEntity
  8
B_Courtyard
  6
CONTINUOUS
 62
    0
370
   -2
100
AcDbMText
 10
377.7403185345133
 20
-192.5131606221859
 30
0
 40
1
 41
3.277777777777902
 71
    5
 72
    1
  1
83,45
  7
Standard
210
0
220
0
230
1
 50
0
 73
    2
 44
1
  0
LINE
  5
9F
100
AcDbEntity
  8
B_Courtyard
  6
ByBlock
 62
    0
370
   -2
100
AcDbLine
 10
336.0153185344711
 20
-216.5286917637097
 11
336.0153185344711
 21
-193.888160622186
  0
LINE
  5
A0
100
AcDbEntity
  8
B_Courtyard
  6
ByBlock
 62
    0
370
   -2
100
AcDbLine
 10
419.4653185345555
 20
-216.536501545911
 11
419.4653185345555
 21
-193.888160622186
  0
ENDBLK
  5
64
330
62
100
AcDbEntity
  8
0
100
AcDbBlockEnd
  0
BLOCK
  5
66
330
65
100
AcDbEntity
  8
0
100
AcDbBlockBegin
  2
*D10
 70
    1
 10
0
 20
0
  3
*D10
  1

  0
LINE
  5
A1
100
AcDbEntity
  8
B_Courtyard
  6
ByBlock
 62
    0
370
   -2
100
AcDbLine
 10
260.481564382007
 20
-219.3071988886302
 11
260.481564382007
 21
-215.1536917637097
  0
SOLID
  5
A2
100
AcDbEntity
  8
B_Courtyard
  6
ByBlock
 62
    0
370
   -2
100
AcDbTrace
 10
260.481564382007
 20
-217.3071988886302
 30
0
 11
260.6480782451161
 21
-218.3071988886302
 31
0
 12
260.3150505188979
 22
-218.3071988886302
 32
0
 13
260.3150505188979
 23
-218.3071988886302
 33
0
  0
SOLID
  5
A3
100
AcDbEntity
  8
B_Courtyard
  6
ByBlock
 62
    0
370
   -2
100
AcDbTrace
 10
260.481564382007
 20
-217.1536917637097
 30
0
 11
260.3150505188979
 21
-216.1536917637097
 31
0
 12
260.6480782451161
 22
-216.1536917637097
 32
0
 13
260.6480782451161
 23
-216.1536917637097
 33
0
  0
MTEXT
  5
A4
100
AcDbEntity
  8
B_Courtyard
  6
CONTINUOUS
 62
    0
370
   -2
100
AcDbMText
 10
259.5732310486738
 20
-212.0102715345828
 30
0
 40
1
 41
2.166666666666729
 71
    5
 72
    1
  1
0,15
  7
Standard
210
0
220
0
230
1
 50
90
 73
    2
 44
1
  0
LINE
  5
A5
100
AcDbEntity
  8
B_Courtyard
  6
ByBlock
 62
    0
370
   -2
100
AcDbLine
 10
253.3758915204246
 20
-217.3071988886302
 11
261.731564382007
 21
-217.3071988886302
  0
LINE
  5
A6
100
AcDbEntity
  8
B_Courtyard
  6
ByBlock
 62
    0
370
   -2
100
AcDbLine
 10
255.2283930365479
 20
-217.1536917637097
 11
261.731564382007
 21
-217.1536917637097
  0
ENDBLK
  5
67
330
65
100
AcDbEntity
  8
0
100
AcDbBlockEnd
  0
BLOCK
  5
69
330
68
100
AcDbEntity
  8
0
100
AcDbBlockBegin
  2
*D1
 70
    1
 10
0
 20
0
  3
*D1
  1

  0
LINE
  5
A7
100
AcDbEntity
  8
B_Courtyard
  6
ByBlock
 62
    0
370
   -2
100
AcDbLine
 10
318.292878362729
 20
-175.4380324072247
 11
336.0153185344711
 21
-175.4380324072247
  0
SOLID
  5
A8
100
AcDbEntity
  8
B_Courtyard
  6
ByBlock
 62
    0
370
   -2
100
AcDbTrace
 10
318.292878362729
 20
-175.4380324072247
 30
0
 11
319.292878362729
 21
-175.2715185441156
 31
0
 12
319.292878362729
 22
-175.6045462703339
 32
0
 13
319.292878362729
 23
-175.6045462703339
 33
0
  0
SOLID
  5
A9
100
AcDbEntity
  8
B_Courtyard
  6
ByBlock
 62
    0
370
   -2
100
AcDbTrace
 10
336.0153185344711
 20
-175.4380324072247
 30
0
 11
335.0153185344711
 21
-175.6045462703339
 31
0
 12
335.0153185344711
 22
-175.2715185441156
 32
0
 13
335.0153185344711
 23
-175.2715185441156
 33
0
  0
MTEXT
  5
AA
100
AcDbEntity
  8
B_Courtyard
  6
CONTINUOUS
 62
    0
370
   -2
100
AcDbMText
 10
327.1540984486001
 20
-172.8130324072247
 30
0
 40
1
 41
2.944444444444444
 71
    5
 72
    1
  1
17,72
  7
Standard
210
0
220
0
230
1
 50
0
 73
    2
 44
1
  0
LINE
  5
AB
100
AcDbEntity
  8
B_Courtyard
  6
ByBlock
 62
    0
370
   -2
100
AcDbLine
 10
318.292878362729
 20
-205.4058585879511
 11
318.292878362729
 21
-174.1880324072247
  0
LINE
  5
AC
100
AcDbEntity
  8
B_Courtyard
  6
ByBlock
 62
    0
370
   -2
100
AcDbLine
 10
336.0153185344711
 20
-216.5287380674493
 11
336.0153185344711
 21
-174.1880324072247
  0
ENDBLK
  5
6A
330
68
100
AcDbEntity
  8
0
100
AcDbBlockEnd
  0
BLOCK
  5
6C
330
6B
100
AcDbEntity
  8
0
100
AcDbBlockBegin
  2
*D11
 70
    1
 10
0
 20
0
  3
*D11
  1

  0
LINE
  5
AD
100
AcDbEntity
  8
B_Courtyard
  6
ByBlock
 62
    0
370
   -2
100
AcDbLine
 10
347.5252974350437
 20
-219.3071970790261
 11
347.5252974350437
 21
-215.1537380674493
  0
SOLID
  5
AE
100
AcDbEntity
  8
B_Courtyard
  6
ByBlock
 62
    0
370
   -2
100
AcDbTrace
 10
347.5252974350437
 20
-217.3071970790261
 30
0
 11
347.6918112981528
 21
-218.3071970790261
 31
0
 12
347.3587835719346
 22
-218.3071970790261
 32
0
 13
347.3587835719346
 23
-218.3071970790261
 33
0
  0
SOLID
  5
AF
100
AcDbEntity
  8
B_Courtyard
  6
ByBlock
 62
    0
370
   -2
100
AcDbTrace
 10
347.5252974350437
 20
-217.1537380674493
 30
0
 11
347.3587835719346
 21
-216.1537380674493
 31
0
 12
347.6918112981528
 22
-216.1537380674493
 32
0
 13
347.6918112981528
 23
-216.1537380674493
 33
0
  0
MTEXT
  5
B0
100
AcDbEntity
  8
B_Courtyard
  6
CONTINUOUS
 62
    0
370
   -2
100
AcDbMText
 10
346.6169641017105
 20
-212.0103418949941
 30
0
 40
1
 41
2.166666666666729
 71
    5
 72
    1
  1
0,15
  7
Standard
210
0
220
0
230
1
 50
90
 73
    2
 44
1
  0
LINE
  5
B1
100
AcDbEntity
  8
B_Courtyard
  6
ByBlock
 62
    0
370
   -2
100
AcDbLine
 10
339.1356041557511
 20
-217.3071970790261
 11
348.7752974350437
 21
-217.3071970790261
  0
LINE
  5
B2
100
AcDbEntity
  8
B_Courtyard
  6
ByBlock
 62
    0
370
   -2
100
AcDbLine
 10
340.9583930366057
 20
-217.1537380674493
 11
348.7752974350437
 21
-217.1537380674493
  0
ENDBLK
  5
6D
330
6B
100
AcDbEntity
  8
0
100
AcDbBlockEnd
  0
BLOCK
  5
6F
330
6E
100
AcDbEntity
  8
0
100
AcDbBlockBegin
  2
*D8
 70
    1
 10
0
 20
0
  3
*D8
  1

  0
SOLID
  5
B3
100
AcDbEntity
  8
B_Courtyard
  6
ByBlock
 62
    0
370
   -2
100
AcDbTrace
 10
127.046778966252
 20
-219.0941571134819
 30
0
 11
126.5455208916211
 21
-219.9753308813761
 31
0
 12
126.2870293863251
 22
-219.7653556254055
 32
0
 13
126.2870293863251
 23
-219.7653556254055
 33
0
  0
LINE
  5
B4
100
AcDbEntity
  8
B_Courtyard
  6
ByBlock
 62
    0
370
   -2
100
AcDbLine
 10
128.6230385344491
 20
-217.1536917637097
 11
124.2795677243058
 21
-222.5007518386378
  0
MTEXT
  5
B5
100
AcDbEntity
  8
B_Courtyard
  6
CONTINUOUS
 62
    0
370
   -2
100
AcDbMText
 10
119.8486320221228
 20
-227.9554861797521
 30
0
 40
1
 41
2.388888888888951
 71
    5
 72
    1
  1
2,50
  7
Standard
210
0
220
0
230
1
 50
50.91269621213986
 73
    2
 44
1
  0
ENDBLK
  5
70
330
6E
100
AcDbEntity
  8
0
100
AcDbBlockEnd
  0
BLOCK
  5
72
330
71
100
AcDbEntity
  8
0
100
AcDbBlockBegin
  2
*D6
 70
    1
 10
0
 20
0
  3
*D6
  1

  0
LINE
  5
B6
100
AcDbEntity
  8
B_Courtyard
  6
ByBlock
 62
    0
370
   -2
100
AcDbLine
 10
520.1752952066022
 20
-219.3071552550482
 11
520.1752952066022
 21
-215.1614552421602
  0
SOLID
  5
B7
100
AcDbEntity
  8
B_Courtyard
  6
ByBlock
 62
    0
370
   -2
100
AcDbTrace
 10
520.1752952066022
 20
-217.3071552550482
 30
0
 11
520.3418090697113
 21
-218.3071552550482
 31
0
 12
520.0087813434931
 22
-218.3071552550482
 32
0
 13
520.0087813434931
 23
-218.3071552550482
 33
0
  0
SOLID
  5
B8
100
AcDbEntity
  8
B_Courtyard
  6
ByBlock
 62
    0
370
   -2
100
AcDbTrace
 10
520.1752952066022
 20
-217.1614552421602
 30
0
 11
520.0087813434931
 21
-216.1614552421602
 31
0
 12
520.3418090697113
 22
-216.1614552421602
 32
0
 13
520.3418090697113
 23
-216.1614552421602
 33
0
  0
MTEXT
  5
B9
100
AcDbEntity
  8
B_Courtyard
  6
CONTINUOUS
 62
    0
370
   -2
100
AcDbMText
 10
517.5502952066022
 20
-204.9200219023827
 30
0
 40
1
 41
2.166666666666729
 71
    5
 72
    1
  1
0,15
  7
Standard
210
0
220
0
230
1
 50
90
 73
    2
 44
1
  0
LINE
  5
BA
100
AcDbEntity
  8
B_Courtyard
  6
ByBlock
 62
    0
370
   -2
100
AcDbLine
 10
491.8480427592999
 20
-217.3071552550482
 11
521.4252952066022
 21
-217.3071552550482
  0
LINE
  5
BB
100
AcDbEntity
  8
B_Courtyard
  6
ByBlock
 62
    0
370
   -2
100
AcDbLine
 10
486.8661130366649
 20
-217.1614552421602
 11
521.4252952066022
 21
-217.1614552421602
  0
ENDBLK
  5
73
330
71
100
AcDbEntity
  8
0
100
AcDbBlockEnd
  0
BLOCK
  5
75
330
74
100
AcDbEntity
  8
0
100
AcDbBlockBegin
  2
_ARCHTICK
 70
    0
 10
0
 20
0
  3
_ARCHTICK
  1

  0
LWPOLYLINE
  5
BC
100
AcDbEntity
  8
0
  6
ByBlock
 62
    0
370
   -1
100
AcDbPolyline
 90
    2
 70
    0
 43
0
 10
-0.5
 20
-0.5000000000000001
 10
0.5000000000000001
 20
0.5
  0
ENDBLK
  5
76
330
74
100
AcDbEntity
  8
0
100
AcDbBlockEnd
  0
ENDSEC
  0
SECTION
  2
ENTITIES
  0
ARC
  5
BD
100
AcDbEntity
  8
0
  6
CONTINUOUS
 62
    7
370
   25
100
AcDbCircle
 10
136.9885385344856
 20
-223.0671968860633
 40
1.500000000000129
100
AcDbArc
 50
270
 51
90
  0
ARC
  5
BE
100
AcDbEntity
  8
0
  6
CONTINUOUS
 62
    7
370
   25
100
AcDbCircle
 10
136.9885385344856
 20
-223.0671968860633
 40
1.500000000000129
100
AcDbArc
 50
90
 51
270
  0
ARC
  5
BF
100
AcDbEntity
  8
0
  6
CONTINUOUS
 62
    7
370
   25
100
AcDbCircle
 10
279.8635385344892
 20
-223.0671968860633
 40
1.500000000000129
100
AcDbArc
 50
270
 51
90
  0
ARC
  5
C0
100
AcDbEntity
  8
0
  6
CONTINUOUS
 62
    7
370
   25
100
AcDbCircle
 10
279.8635385344892
 20
-223.0671968860633
 40
1.500000000000129
100
AcDbArc
 50
90
 51
270
  0
ARC
  5
C1
100
AcDbEntity
  8
0
  6
CONTINUOUS
 62
    7
370
   25
100
AcDbCircle
 10
283.7335385344955
 20
-225.6071988849839
 40
2.100000000000044
100
AcDbArc
 50
270
 51
90
  0
ARC
  5
C2
100
AcDbEntity
  8
0
  6
CONTINUOUS
 62
    7
370
   25
100
AcDbCircle
 10
283.7335385344955
 20
-225.6071988849839
 40
2.100000000000044
100
AcDbArc
 50
90
 51
270
  0
ARC
  5
C3
100
AcDbEntity
  8
0
  6
CONTINUOUS
 62
    7
370
   25
100
AcDbCircle
 10
286.2135385344641
 20
-220.5271968871215
 40
1.500000000000129
100
AcDbArc
 50
270
 51
90
  0
ARC
  5
C4
100
AcDbEntity
  8
0
  6
CONTINUOUS
 62
    7
370
   25
100
AcDbCircle
 10
286.2135385344641
 20
-220.5271968871215
 40
1.500000000000129
100
AcDbArc
 50
90
 51
270
  0
ARC
  5
C5
100
AcDbEntity
  8
0
  6
CONTINUOUS
 62
    7
370
   25
100
AcDbCircle
 10
264.6835385345253
 20
-225.6071988849839
 40
2.100000000000044
100
AcDbArc
 50
270
 51
90
  0
ARC
  5
C6
100
AcDbEntity
  8
0
  6
CONTINUOUS
 62
    7
370
   25
100
AcDbCircle
 10
264.6835385345253
 20
-225.6071988849839
 40
2.100000000000044
100
AcDbArc
 50
90
 51
270
  0
ARC
  5
C7
100
AcDbEntity
  8
0
  6
CONTINUOUS
 62
    7
370
   25
100
AcDbCircle
 10
302.7835385345111
 20
-225.6071988849839
 40
2.100000000000044
100
AcDbArc
 50
270
 51
90
  0
ARC
  5
C8
100
AcDbEntity
  8
0
  6
CONTINUOUS
 62
    7
370
   25
100
AcDbCircle
 10
302.7835385345111
 20
-225.6071988849839
 40
2.100000000000044
100
AcDbArc
 50
90
 51
270
  0
ARC
  5
C9
100
AcDbEntity
  8
0
  6
CONTINUOUS
 62
    7
370
   25
100
AcDbCircle
 10
305.2635385344797
 20
-220.5271968871215
 40
1.500000000000129
100
AcDbArc
 50
270
 51
90
  0
ARC
  5
CA
100
AcDbEntity
  8
0
  6
CONTINUOUS
 62
    7
370
   25
100
AcDbCircle
 10
305.2635385344797
 20
-220.5271968871215
 40
1.500000000000129
100
AcDbArc
 50
90
 51
270
  0
ARC
  5
CB
100
AcDbEntity
  8
0
  6
CONTINUOUS
 62
    7
370
   25
100
AcDbCircle
 10
298.9135385345048
 20
-223.0671968860633
 40
1.500000000000129
100
AcDbArc
 50
270
 51
90
  0
ARC
  5
CC
100
AcDbEntity
  8
0
  6
CONTINUOUS
 62
    7
370
   25
100
AcDbCircle
 10
298.9135385345048
 20
-223.0671968860633
 40
1.500000000000129
100
AcDbArc
 50
90
 51
270
  0
ARC
  5
CD
100
AcDbEntity
  8
0
  6
CONTINUOUS
 62
    7
370
   25
100
AcDbCircle
 10
317.9635385345205
 20
-223.0671968860633
 40
1.500000000000129
100
AcDbArc
 50
270
 51
90
  0
ARC
  5
CE
100
AcDbEntity
  8
0
  6
CONTINUOUS
 62
    7
370
   25
100
AcDbCircle
 10
317.9635385345205
 20
-223.0671968860633
 40
1.500000000000129
100
AcDbArc
 50
90
 51
270
  0
ARC
  5
CF
100
AcDbEntity
  8
0
  6
CONTINUOUS
 62
    7
370
   25
100
AcDbCircle
 10
324.3135385345409
 20
-220.5271968871215
 40
1.500000000000129
100
AcDbArc
 50
270
 51
90
  0
ARC
  5
D0
100
AcDbEntity
  8
0
  6
CONTINUOUS
 62
    7
370
   25
100
AcDbCircle
 10
324.3135385345409
 20
-220.5271968871215
 40
1.500000000000129
100
AcDbArc
 50
90
 51
270
  0
ARC
  5
D1
100
AcDbEntity
  8
0
  6
CONTINUOUS
 62
    7
370
   25
100
AcDbCircle
 10
321.8335385345267
 20
-225.6071988849839
 40
2.100000000000044
100
AcDbArc
 50
270
 51
90
  0
ARC
  5
D2
100
AcDbEntity
  8
0
  6
CONTINUOUS
 62
    7
370
   25
100
AcDbCircle
 10
321.8335385345267
 20
-225.6071988849839
 40
2.100000000000044
100
AcDbArc
 50
90
 51
270
  0
ARC
  5
D3
100
AcDbEntity
  8
0
  6
CONTINUOUS
 62
    7
370
   25
100
AcDbCircle
 10
352.8885385344506
 20
-220.5271968871216
 40
1.500000000000129
100
AcDbArc
 50
270
 51
90
  0
ARC
  5
D4
100
AcDbEntity
  8
0
  6
CONTINUOUS
 62
    7
370
   25
100
AcDbCircle
 10
352.8885385344506
 20
-220.5271968871216
 40
1.500000000000129
100
AcDbArc
 50
90
 51
270
  0
ARC
  5
D5
100
AcDbEntity
  8
0
  6
CONTINUOUS
 62
    7
370
   25
100
AcDbCircle
 10
350.4085385344365
 20
-225.607198884984
 40
2.100000000000044
100
AcDbArc
 50
270
 51
90
  0
ARC
  5
D6
100
AcDbEntity
  8
0
  6
CONTINUOUS
 62
    7
370
   25
100
AcDbCircle
 10
350.4085385344365
 20
-225.607198884984
 40
2.100000000000044
100
AcDbArc
 50
90
 51
270
  0
ARC
  5
D7
100
AcDbEntity
  8
0
  6
CONTINUOUS
 62
    7
370
   25
100
AcDbCircle
 10
365.5885385344004
 20
-223.0671968860634
 40
1.500000000000129
100
AcDbArc
 50
270
 51
90
  0
ARC
  5
D8
100
AcDbEntity
  8
0
  6
CONTINUOUS
 62
    7
370
   25
100
AcDbCircle
 10
365.5885385344004
 20
-223.0671968860634
 40
1.500000000000129
100
AcDbArc
 50
90
 51
270
  0
ARC
  5
D9
100
AcDbEntity
  8
0
  6
CONTINUOUS
 62
    7
370
   25
100
AcDbCircle
 10
369.4585385344067
 20
-225.607198884984
 40
2.100000000000044
100
AcDbArc
 50
270
 51
90
  0
ARC
  5
DA
100
AcDbEntity
  8
0
  6
CONTINUOUS
 62
    7
370
   25
100
AcDbCircle
 10
369.4585385344067
 20
-225.607198884984
 40
2.100000000000044
100
AcDbArc
 50
90
 51
270
  0
ARC
  5
DB
100
AcDbEntity
  8
0
  6
CONTINUOUS
 62
    7
370
   25
100
AcDbCircle
 10
371.9385385343753
 20
-220.5271968871216
 40
1.500000000000129
100
AcDbArc
 50
270
 51
90
  0
ARC
  5
DC
100
AcDbEntity
  8
0
  6
CONTINUOUS
 62
    7
370
   25
100
AcDbCircle
 10
371.9385385343753
 20
-220.5271968871216
 40
1.500000000000129
100
AcDbArc
 50
90
 51
270
  0
ARC
  5
DD
100
AcDbEntity
  8
0
  6
CONTINUOUS
 62
    7
370
   25
100
AcDbCircle
 10
346.5385385344303
 20
-223.0671968860634
 40
1.500000000000129
100
AcDbArc
 50
270
 51
90
  0
ARC
  5
DE
100
AcDbEntity
  8
0
  6
CONTINUOUS
 62
    7
370
   25
100
AcDbCircle
 10
346.5385385344303
 20
-223.0671968860634
 40
1.500000000000129
100
AcDbArc
 50
90
 51
270
  0
ARC
  5
DF
100
AcDbEntity
  8
0
  6
CONTINUOUS
 62
    7
370
   25
100
AcDbCircle
 10
236.1085385344791
 20
-225.6071988849839
 40
2.100000000000044
100
AcDbArc
 50
270
 51
90
  0
ARC
  5
E0
100
AcDbEntity
  8
0
  6
CONTINUOUS
 62
    7
370
   25
100
AcDbCircle
 10
236.1085385344791
 20
-225.6071988849839
 40
2.100000000000044
100
AcDbArc
 50
90
 51
270
  0
ARC
  5
E1
100
AcDbEntity
  8
0
  6
CONTINUOUS
 62
    7
370
   25
100
AcDbCircle
 10
217.0585385344634
 20
-225.6071988849839
 40
2.100000000000044
100
AcDbArc
 50
270
 51
90
  0
ARC
  5
E2
100
AcDbEntity
  8
0
  6
CONTINUOUS
 62
    7
370
   25
100
AcDbCircle
 10
217.0585385344634
 20
-225.6071988849839
 40
2.100000000000044
100
AcDbArc
 50
90
 51
270
  0
ARC
  5
E3
100
AcDbEntity
  8
0
  6
CONTINUOUS
 62
    7
370
   25
100
AcDbCircle
 10
213.1885385344572
 20
-223.0671968860633
 40
1.500000000000129
100
AcDbArc
 50
270
 51
90
  0
ARC
  5
E4
100
AcDbEntity
  8
0
  6
CONTINUOUS
 62
    7
370
   25
100
AcDbCircle
 10
213.1885385344572
 20
-223.0671968860633
 40
1.500000000000129
100
AcDbArc
 50
90
 51
270
  0
ARC
  5
E5
100
AcDbEntity
  8
0
  6
CONTINUOUS
 62
    7
370
   25
100
AcDbCircle
 10
219.5385385344321
 20
-220.5271968871215
 40
1.500000000000129
100
AcDbArc
 50
270
 51
90
  0
ARC
  5
E6
100
AcDbEntity
  8
0
  6
CONTINUOUS
 62
    7
370
   25
100
AcDbCircle
 10
219.5385385344321
 20
-220.5271968871215
 40
1.500000000000129
100
AcDbArc
 50
90
 51
270
  0
ARC
  5
E7
100
AcDbEntity
  8
0
  6
CONTINUOUS
 62
    7
370
   25
100
AcDbCircle
 10
232.2385385344728
 20
-223.0671968860633
 40
1.500000000000129
100
AcDbArc
 50
270
 51
90
  0
ARC
  5
E8
100
AcDbEntity
  8
0
  6
CONTINUOUS
 62
    7
370
   25
100
AcDbCircle
 10
232.2385385344728
 20
-223.0671968860633
 40
1.500000000000129
100
AcDbArc
 50
90
 51
270
  0
ARC
  5
E9
100
AcDbEntity
  8
0
  6
CONTINUOUS
 62
    7
370
   25
100
AcDbCircle
 10
238.5885385344477
 20
-220.5271968871215
 40
1.500000000000129
100
AcDbArc
 50
270
 51
90
  0
ARC
  5
EA
100
AcDbEntity
  8
0
  6
CONTINUOUS
 62
    7
370
   25
100
AcDbCircle
 10
238.5885385344477
 20
-220.5271968871215
 40
1.500000000000129
100
AcDbArc
 50
90
 51
270
  0
ARC
  5
EB
100
AcDbEntity
  8
0
  6
CONTINUOUS
 62
    7
370
   25
100
AcDbCircle
 10
267.1635385345394
 20
-220.5271968871215
 40
1.500000000000129
100
AcDbArc
 50
270
 51
90
  0
ARC
  5
EC
100
AcDbEntity
  8
0
  6
CONTINUOUS
 62
    7
370
   25
100
AcDbCircle
 10
267.1635385345394
 20
-220.5271968871215
 40
1.500000000000129
100
AcDbArc
 50
90
 51
270
  0
ARC
  5
ED
100
AcDbEntity
  8
0
  6
CONTINUOUS
 62
    7
370
   25
100
AcDbCircle
 10
260.813538534519
 20
-223.0671968860633
 40
1.500000000000129
100
AcDbArc
 50
270
 51
90
  0
ARC
  5
EE
100
AcDbEntity
  8
0
  6
CONTINUOUS
 62
    7
370
   25
100
AcDbCircle
 10
260.813538534519
 20
-223.0671968860633
 40
1.500000000000129
100
AcDbArc
 50
90
 51
270
  0
ARC
  5
EF
100
AcDbEntity
  8
0
  6
CONTINUOUS
 62
    7
370
   25
100
AcDbCircle
 10
143.3385385344605
 20
-220.5271968871215
 40
1.500000000000129
100
AcDbArc
 50
270
 51
90
  0
ARC
  5
F0
100
AcDbEntity
  8
0
  6
CONTINUOUS
 62
    7
370
   25
100
AcDbCircle
 10
143.3385385344605
 20
-220.5271968871215
 40
1.500000000000129
100
AcDbArc
 50
90
 51
270
  0
ARC
  5
F1
100
AcDbEntity
  8
0
  6
CONTINUOUS
 62
    7
370
   25
100
AcDbCircle
 10
140.8585385344918
 20
-225.6071988849839
 40
2.100000000000044
100
AcDbArc
 50
270
 51
90
  0
ARC
  5
F2
100
AcDbEntity
  8
0
  6
CONTINUOUS
 62
    7
370
   25
100
AcDbCircle
 10
140.8585385344918
 20
-225.6071988849839
 40
2.100000000000044
100
AcDbArc
 50
90
 51
270
  0
ARC
  5
F3
100
AcDbEntity
  8
0
  6
CONTINUOUS
 62
    7
370
   25
100
AcDbCircle
 10
175.0885385345168
 20
-223.0671042785388
 40
1.500000000000129
100
AcDbArc
 50
270
 51
90
  0
ARC
  5
F4
100
AcDbEntity
  8
0
  6
CONTINUOUS
 62
    7
370
   25
100
AcDbCircle
 10
175.0885385345168
 20
-223.0671042785388
 40
1.500000000000129
100
AcDbArc
 50
90
 51
270
  0
ARC
  5
F5
100
AcDbEntity
  8
0
  6
CONTINUOUS
 62
    7
370
   25
100
AcDbCircle
 10
178.9585385345231
 20
-225.6071062774594
 40
2.100000000000044
100
AcDbArc
 50
270
 51
90
  0
ARC
  5
F6
100
AcDbEntity
  8
0
  6
CONTINUOUS
 62
    7
370
   25
100
AcDbCircle
 10
178.9585385345231
 20
-225.6071062774594
 40
2.100000000000044
100
AcDbArc
 50
90
 51
270
  0
ARC
  5
F7
100
AcDbEntity
  8
0
  6
CONTINUOUS
 62
    7
370
   25
100
AcDbCircle
 10
194.138538534487
 20
-223.0671968860633
 40
1.500000000000129
100
AcDbArc
 50
270
 51
90
  0
ARC
  5
F8
100
AcDbEntity
  8
0
  6
CONTINUOUS
 62
    7
370
   25
100
AcDbCircle
 10
194.138538534487
 20
-223.0671968860633
 40
1.500000000000129
100
AcDbArc
 50
90
 51
270
  0
ARC
  5
F9
100
AcDbEntity
  8
0
  6
CONTINUOUS
 62
    7
370
   25
100
AcDbCircle
 10
198.0085385344933
 20
-225.6071988849839
 40
2.100000000000044
100
AcDbArc
 50
270
 51
90
  0
ARC
  5
FA
100
AcDbEntity
  8
0
  6
CONTINUOUS
 62
    7
370
   25
100
AcDbCircle
 10
198.0085385344933
 20
-225.6071988849839
 40
2.100000000000044
100
AcDbArc
 50
90
 51
270
  0
ARC
  5
FB
100
AcDbEntity
  8
0
  6
CONTINUOUS
 62
    7
370
   25
100
AcDbCircle
 10
200.4885385345074
 20
-220.5271968871215
 40
1.500000000000129
100
AcDbArc
 50
270
 51
90
  0
ARC
  5
FC
100
AcDbEntity
  8
0
  6
CONTINUOUS
 62
    7
370
   25
100
AcDbCircle
 10
200.4885385345074
 20
-220.5271968871215
 40
1.500000000000129
100
AcDbArc
 50
90
 51
270
  0
ARC
  5
FD
100
AcDbEntity
  8
0
  6
CONTINUOUS
 62
    7
370
   25
100
AcDbCircle
 10
181.4385385345372
 20
-220.527104279597
 40
1.500000000000129
100
AcDbArc
 50
270
 51
90
  0
ARC
  5
FE
100
AcDbEntity
  8
0
  6
CONTINUOUS
 62
    7
370
   25
100
AcDbCircle
 10
181.4385385345372
 20
-220.527104279597
 40
1.500000000000129
100
AcDbArc
 50
90
 51
270
  0
ARC
  5
FF
100
AcDbEntity
  8
0
  6
CONTINUOUS
 62
    7
370
   25
100
AcDbCircle
 10
403.6885385345226
 20
-223.0671042785389
 40
1.500000000000129
100
AcDbArc
 50
270
 51
90
  0
ARC
  5
100
100
AcDbEntity
  8
0
  6
CONTINUOUS
 62
    7
370
   25
100
AcDbCircle
 10
403.6885385345226
 20
-223.0671042785389
 40
1.500000000000129
100
AcDbArc
 50
90
 51
270
  0
ARC
  5
101
100
AcDbEntity
  8
0
  6
CONTINUOUS
 62
    7
370
   25
100
AcDbCircle
 10
410.038538534543
 20
-220.5271042795971
 40
1.500000000000129
100
AcDbArc
 50
270
 51
90
  0
ARC
  5
102
100
AcDbEntity
  8
0
  6
CONTINUOUS
 62
    7
370
   25
100
AcDbCircle
 10
410.038538534543
 20
-220.5271042795971
 40
1.500000000000129
100
AcDbArc
 50
90
 51
270
  0
ARC
  5
103
100
AcDbEntity
  8
0
  6
CONTINUOUS
 62
    7
370
   25
100
AcDbCircle
 10
407.5585385345289
 20
-225.6071062774595
 40
2.100000000000044
100
AcDbArc
 50
270
 51
90
  0
ARC
  5
104
100
AcDbEntity
  8
0
  6
CONTINUOUS
 62
    7
370
   25
100
AcDbCircle
 10
407.5585385345289
 20
-225.6071062774595
 40
2.100000000000044
100
AcDbArc
 50
90
 51
270
  0
ARC
  5
105
100
AcDbEntity
  8
0
  6
CONTINUOUS
 62
    7
370
   25
100
AcDbCircle
 10
384.6385385346889
 20
-223.0671042785389
 40
1.500000000000129
100
AcDbArc
 50
270
 51
90
  0
ARC
  5
106
100
AcDbEntity
  8
0
  6
CONTINUOUS
 62
    7
370
   25
100
AcDbCircle
 10
384.6385385346889
 20
-223.0671042785389
 40
1.500000000000129
100
AcDbArc
 50
90
 51
270
  0
ARC
  5
107
100
AcDbEntity
  8
0
  6
CONTINUOUS
 62
    7
370
   25
100
AcDbCircle
 10
390.9885385346638
 20
-220.5271042795971
 40
1.500000000000129
100
AcDbArc
 50
270
 51
90
  0
ARC
  5
108
100
AcDbEntity
  8
0
  6
CONTINUOUS
 62
    7
370
   25
100
AcDbCircle
 10
390.9885385346638
 20
-220.5271042795971
 40
1.500000000000129
100
AcDbArc
 50
90
 51
270
  0
ARC
  5
109
100
AcDbEntity
  8
0
  6
CONTINUOUS
 62
    7
370
   25
100
AcDbCircle
 10
388.5085385345588
 20
-225.6071062774595
 40
2.100000000000044
100
AcDbArc
 50
270
 51
90
  0
ARC
  5
10A
100
AcDbEntity
  8
0
  6
CONTINUOUS
 62
    7
370
   25
100
AcDbCircle
 10
388.5085385345588
 20
-225.6071062774595
 40
2.100000000000044
100
AcDbArc
 50
90
 51
270
  0
ARC
  5
10B
100
AcDbEntity
  8
0
  6
CONTINUOUS
 62
    7
370
   25
100
AcDbCircle
 10
431.6085385345172
 20
-225.607198884984
 40
2.100000000000044
100
AcDbArc
 50
270
 51
90
  0
ARC
  5
10C
100
AcDbEntity
  8
0
  6
CONTINUOUS
 62
    7
370
   25
100
AcDbCircle
 10
431.6085385345172
 20
-225.607198884984
 40
2.100000000000044
100
AcDbArc
 50
90
 51
270
  0
ARC
  5
10D
100
AcDbEntity
  8
0
  6
CONTINUOUS
 62
    7
370
   25
100
AcDbCircle
 10
427.738538534511
 20
-223.0671968860634
 40
1.500000000000129
100
AcDbArc
 50
270
 51
90
  0
ARC
  5
10E
100
AcDbEntity
  8
0
  6
CONTINUOUS
 62
    7
370
   25
100
AcDbCircle
 10
427.738538534511
 20
-223.0671968860634
 40
1.500000000000129
100
AcDbArc
 50
90
 51
270
  0
ARC
  5
10F
100
AcDbEntity
  8
0
  6
CONTINUOUS
 62
    7
370
   25
100
AcDbCircle
 10
434.0885385345313
 20
-220.5271968871216
 40
1.500000000000129
100
AcDbArc
 50
270
 51
90
  0
ARC
  5
110
100
AcDbEntity
  8
0
  6
CONTINUOUS
 62
    7
370
   25
100
AcDbCircle
 10
434.0885385345313
 20
-220.5271968871216
 40
1.500000000000129
100
AcDbArc
 50
90
 51
270
  0
ARC
  5
111
100
AcDbEntity
  8
0
  6
CONTINUOUS
 62
    7
370
   25
100
AcDbCircle
 10
450.6585385344874
 20
-225.607198884984
 40
2.100000000000044
100
AcDbArc
 50
270
 51
90
  0
ARC
  5
112
100
AcDbEntity
  8
0
  6
CONTINUOUS
 62
    7
370
   25
100
AcDbCircle
 10
450.6585385344874
 20
-225.607198884984
 40
2.100000000000044
100
AcDbArc
 50
90
 51
270
  0
ARC
  5
113
100
AcDbEntity
  8
0
  6
CONTINUOUS
 62
    7
370
   25
100
AcDbCircle
 10
453.138538534456
 20
-220.5271968871216
 40
1.500000000000129
100
AcDbArc
 50
270
 51
90
  0
ARC
  5
114
100
AcDbEntity
  8
0
  6
CONTINUOUS
 62
    7
370
   25
100
AcDbCircle
 10
453.138538534456
 20
-220.5271968871216
 40
1.500000000000129
100
AcDbArc
 50
90
 51
270
  0
ARC
  5
115
100
AcDbEntity
  8
0
  6
CONTINUOUS
 62
    7
370
   25
100
AcDbCircle
 10
465.8385385344968
 20
-223.0671042785389
 40
1.500000000000129
100
AcDbArc
 50
270
 51
90
  0
ARC
  5
116
100
AcDbEntity
  8
0
  6
CONTINUOUS
 62
    7
370
   25
100
AcDbCircle
 10
465.8385385344968
 20
-223.0671042785389
 40
1.500000000000129
100
AcDbArc
 50
90
 51
270
  0
ARC
  5
117
100
AcDbEntity
  8
0
  6
CONTINUOUS
 62
    7
370
   25
100
AcDbCircle
 10
469.708538534503
 20
-225.6071062774595
 40
2.100000000000044
100
AcDbArc
 50
270
 51
90
  0
ARC
  5
118
100
AcDbEntity
  8
0
  6
CONTINUOUS
 62
    7
370
   25
100
AcDbCircle
 10
469.708538534503
 20
-225.6071062774595
 40
2.100000000000044
100
AcDbArc
 50
90
 51
270
  0
ARC
  5
119
100
AcDbEntity
  8
0
  6
CONTINUOUS
 62
    7
370
   25
100
AcDbCircle
 10
472.1885385344717
 20
-220.5271042795971
 40
1.500000000000129
100
AcDbArc
 50
270
 51
90
  0
ARC
  5
11A
100
AcDbEntity
  8
0
  6
CONTINUOUS
 62
    7
370
   25
100
AcDbCircle
 10
472.1885385344717
 20
-220.5271042795971
 40
1.500000000000129
100
AcDbArc
 50
90
 51
270
  0
ARC
  5
11B
100
AcDbEntity
  8
0
  6
CONTINUOUS
 62
    7
370
   25
100
AcDbCircle
 10
446.7885385344811
 20
-223.0671968860634
 40
1.500000000000129
100
AcDbArc
 50
270
 51
90
  0
ARC
  5
11C
100
AcDbEntity
  8
0
  6
CONTINUOUS
 62
    7
370
   25
100
AcDbCircle
 10
446.7885385344811
 20
-223.0671968860634
 40
1.500000000000129
100
AcDbArc
 50
90
 51
270
  0
LINE
  5
11D
100
AcDbEntity
  8
0
  6
CONTINUOUS
 62
    7
370
   25
100
AcDbLine
 10
131.0886050790554
 20
-217.3071970790261
 11
247.819745841623
 21
-217.3071970790261
  0
ARC
  5
11E
100
AcDbEntity
  8
0
  6
CONTINUOUS
 62
    3
370
   25
100
AcDbCircle
 10
250.2853185344134
 20
-216.8937380674492
 40
2.500000000000002
100
AcDbArc
 50
189.5195616117749
 51
350.4804383882251
  0
LINE
  5
11F
100
AcDbEntity
  8
0
  6
CONTINUOUS
 62
    7
370
   25
100
AcDbLine
 10
252.7508902579552
 20
-217.3071970790261
 11
333.5200329131912
 21
-217.3071970790261
  0
ARC
  5
120
100
AcDbEntity
  8
0
  6
CONTINUOUS
 62
    3
370
   25
100
AcDbCircle
 10
336.0153185344711
 20
-217.1537380674493
 40
2.500000000000114
100
AcDbArc
 50
183.5182735429371
 51
356.4817264570623
  0
LINE
  5
121
100
AcDbEntity
  8
0
  6
CONTINUOUS
 62
    7
370
   25
100
AcDbLine
 10
338.5106041557511
 20
-217.307197079026
 11
416.9695656031376
 21
-217.3071970790261
  0
ARC
  5
122
100
AcDbEntity
  8
0
  6
CONTINUOUS
 62
    3
370
   25
100
AcDbCircle
 10
419.4653185345555
 20
-217.161501545911
 40
2.499999999999967
100
AcDbArc
 50
183.3410302155367
 51
356.6589697844633
  0
LINE
  5
123
100
AcDbEntity
  8
0
  6
CONTINUOUS
 62
    7
370
   25
100
AcDbLine
 10
421.9610671728855
 20
-217.3071970790261
 11
479.4272835582501
 21
-217.3071970790261
  0
ARC
  5
124
100
AcDbEntity
  8
0
  6
CONTINUOUS
 62
    3
370
   25
100
AcDbCircle
 10
481.9230385345304
 20
-217.161501545911
 40
2.500000000000061
100
AcDbArc
 50
183.3410302155367
 51
356.6589697844633
  0
LINE
  5
125
100
AcDbEntity
  8
0
  6
CONTINUOUS
 62
    7
370
   25
100
AcDbLine
 10
484.418785127998
 20
-217.3071970790261
 11
491.2230427592999
 21
-217.3071970790261
  0
LINE
  5
126
100
AcDbEntity
  8
0
  6
CONTINUOUS
 62
    7
370
   25
100
AcDbLine
 10
491.2230427592999
 20
-217.3071970790261
 11
491.2230427592999
 21
-233.9071973942623
  0
LINE
  5
127
100
AcDbEntity
  8
0
  6
CONTINUOUS
 62
    7
370
   25
100
AcDbLine
 10
119.3280424207455
 20
-233.9071973942623
 11
491.2230427592999
 21
-233.9071973942623
  0
LINE
  5
128
100
AcDbEntity
  8
0
  6
CONTINUOUS
 62
    7
370
   25
100
AcDbLine
 10
119.3280424207455
 20
-217.3071970790261
 11
119.3280424207455
 21
-233.9071973942623
  0
LINE
  5
129
100
AcDbEntity
  8
0
  6
CONTINUOUS
 62
    7
370
   25
100
AcDbLine
 10
119.3280424207455
 20
-217.3071970790261
 11
126.1574681133038
 21
-217.3071970790261
  0
ARC
  5
12A
100
AcDbEntity
  8
0
  6
CONTINUOUS
 62
    3
370
   25
100
AcDbCircle
 10
128.6230385344492
 20
-216.8937380674492
 40
2.500000000000002
100
AcDbArc
 50
189.5195616117749
 51
350.4804383882251
  0
LINE
  5
12B
100
AcDbEntity
  8
0
  6
CONTINUOUS
 62
    7
370
   25
100
AcDbLine
 10
140.8585405543431
 20
-223.5072465256621
 11
140.8585405543431
 21
-223.5071977790425
  0
ARC
  5
12C
100
AcDbEntity
  8
0
  6
CONTINUOUS
 62
    7
370
   25
100
AcDbCircle
 10
140.8585385344918
 20
-225.6072451887462
 40
2.100000000000044
100
AcDbArc
 50
0
 51
90
  0
ARC
  5
12D
100
AcDbEntity
  8
0
  6
CONTINUOUS
 62
    7
370
   25
100
AcDbCircle
 10
140.8585385344918
 20
-225.6072451887462
 40
2.100000000000044
100
AcDbArc
 50
90
 51
180
  0
LINE
  5
12E
100
AcDbEntity
  8
0
  6
CONTINUOUS
 62
    7
370
   25
100
AcDbLine
 10
178.9585363582387
 20
-223.5071539181376
 11
178.9585363582387
 21
-223.5071051715181
  0
ARC
  5
12F
100
AcDbEntity
  8
0
  6
CONTINUOUS
 62
    7
370
   25
100
AcDbCircle
 10
178.9585385345231
 20
-225.6071525812217
 40
2.100000000000044
100
AcDbArc
 50
0
 51
90
  0
ARC
  5
130
100
AcDbEntity
  8
0
  6
CONTINUOUS
 62
    7
370
   25
100
AcDbCircle
 10
178.9585385345231
 20
-225.6071525812217
 40
2.100000000000044
100
AcDbArc
 50
90
 51
180
  0
LINE
  5
131
100
AcDbEntity
  8
0
  6
CONTINUOUS
 62
    7
370
   25
100
AcDbLine
 10
198.0085417106761
 20
-223.5072465256621
 11
198.0085417106761
 21
-223.5071977790425
  0
ARC
  5
132
100
AcDbEntity
  8
0
  6
CONTINUOUS
 62
    7
370
   25
100
AcDbCircle
 10
198.0085385344933
 20
-225.6072451887462
 40
2.100000000000044
100
AcDbArc
 50
0
 51
90
  0
ARC
  5
133
100
AcDbEntity
  8
0
  6
CONTINUOUS
 62
    7
370
   25
100
AcDbCircle
 10
198.0085385344933
 20
-225.6072451887462
 40
2.100000000000044
100
AcDbArc
 50
90
 51
180
  0
LINE
  5
134
100
AcDbEntity
  8
0
  6
CONTINUOUS
 62
    7
370
   25
100
AcDbLine
 10
217.058539612533
 20
-223.5072465256621
 11
217.058539612533
 21
-223.5071977790425
  0
ARC
  5
135
100
AcDbEntity
  8
0
  6
CONTINUOUS
 62
    7
370
   25
100
AcDbCircle
 10
217.0585385344634
 20
-225.6072451887462
 40
2.100000000000044
100
AcDbArc
 50
0
 51
90
  0
ARC
  5
136
100
AcDbEntity
  8
0
  6
CONTINUOUS
 62
    7
370
   25
100
AcDbCircle
 10
217.0585385344634
 20
-225.6072451887462
 40
2.100000000000079
100
AcDbArc
 50
90
 51
180
  0
LINE
  5
137
100
AcDbEntity
  8
0
  6
CONTINUOUS
 62
    7
370
   25
100
AcDbLine
 10
236.1085375144808
 20
-223.5072465256621
 11
236.1085375144808
 21
-223.5071977790425
  0
ARC
  5
138
100
AcDbEntity
  8
0
  6
CONTINUOUS
 62
    7
370
   25
100
AcDbCircle
 10
236.1085385344791
 20
-225.6072451887462
 40
2.100000000000044
100
AcDbArc
 50
0
 51
90
  0
ARC
  5
139
100
AcDbEntity
  8
0
  6
CONTINUOUS
 62
    7
370
   25
100
AcDbCircle
 10
236.1085385344791
 20
-225.6072451887462
 40
2.100000000000079
100
AcDbArc
 50
90
 51
180
  0
LINE
  5
13A
100
AcDbEntity
  8
0
  6
CONTINUOUS
 62
    7
370
   25
100
AcDbLine
 10
264.6835380927382
 20
-223.5072465256621
 11
264.6835380927382
 21
-223.5071977790425
  0
ARC
  5
13B
100
AcDbEntity
  8
0
  6
CONTINUOUS
 62
    7
370
   25
100
AcDbCircle
 10
264.6835385345253
 20
-225.6072451887462
 40
2.100000000000044
100
AcDbArc
 50
0
 51
90
  0
ARC
  5
13C
100
AcDbEntity
  8
0
  6
CONTINUOUS
 62
    7
370
   25
100
AcDbCircle
 10
264.6835385345253
 20
-225.6072451887462
 40
2.100000000000044
100
AcDbArc
 50
90
 51
180
  0
LINE
  5
13D
100
AcDbEntity
  8
0
  6
CONTINUOUS
 62
    7
370
   25
100
AcDbLine
 10
283.7335378572402
 20
-223.5072465256621
 11
283.7335378572402
 21
-223.5071977790425
  0
ARC
  5
13E
100
AcDbEntity
  8
0
  6
CONTINUOUS
 62
    7
370
   25
100
AcDbCircle
 10
283.7335385344955
 20
-225.6072451887462
 40
2.100000000000044
100
AcDbArc
 50
0
 51
90
  0
ARC
  5
13F
100
AcDbEntity
  8
0
  6
CONTINUOUS
 62
    7
370
   25
100
AcDbCircle
 10
283.7335385344955
 20
-225.6072451887462
 40
2.100000000000044
100
AcDbArc
 50
90
 51
180
  0
LINE
  5
140
100
AcDbEntity
  8
0
  6
CONTINUOUS
 62
    7
370
   25
100
AcDbLine
 10
302.7835385531557
 20
-223.5072465256621
 11
302.7835385531557
 21
-223.5071977790425
  0
ARC
  5
141
100
AcDbEntity
  8
0
  6
CONTINUOUS
 62
    7
370
   25
100
AcDbCircle
 10
302.7835385345111
 20
-225.6072451887462
 40
2.100000000000044
100
AcDbArc
 50
0
 51
90
  0
ARC
  5
142
100
AcDbEntity
  8
0
  6
CONTINUOUS
 62
    7
370
   25
100
AcDbCircle
 10
302.7835385345111
 20
-225.6072451887462
 40
2.100000000000044
100
AcDbArc
 50
90
 51
180
  0
LINE
  5
143
100
AcDbEntity
  8
0
  6
CONTINUOUS
 62
    7
370
   25
100
AcDbLine
 10
321.8335392490712
 20
-223.5072465256621
 11
321.8335392490712
 21
-223.5071977790425
  0
ARC
  5
144
100
AcDbEntity
  8
0
  6
CONTINUOUS
 62
    7
370
   25
100
AcDbCircle
 10
321.8335385345267
 20
-225.6072451887462
 40
2.100000000000044
100
AcDbArc
 50
0
 51
90
  0
ARC
  5
145
100
AcDbEntity
  8
0
  6
CONTINUOUS
 62
    7
370
   25
100
AcDbCircle
 10
321.8335385345267
 20
-225.6072451887462
 40
2.100000000000044
100
AcDbArc
 50
90
 51
180
  0
LINE
  5
146
100
AcDbEntity
  8
0
  6
CONTINUOUS
 62
    7
370
   25
100
AcDbLine
 10
350.4085398270559
 20
-223.5072465256621
 11
350.4085398270559
 21
-223.5071977790426
  0
ARC
  5
147
100
AcDbEntity
  8
0
  6
CONTINUOUS
 62
    7
370
   25
100
AcDbCircle
 10
350.4085385344365
 20
-225.6072451887462
 40
2.100000000000044
100
AcDbArc
 50
0
 51
90
  0
ARC
  5
148
100
AcDbEntity
  8
0
  6
CONTINUOUS
 62
    7
370
   25
100
AcDbCircle
 10
350.4085385344365
 20
-225.6072451887462
 40
2.100000000000044
100
AcDbArc
 50
90
 51
180
  0
LINE
  5
149
100
AcDbEntity
  8
0
  6
CONTINUOUS
 62
    7
370
   25
100
AcDbLine
 10
369.4585377289127
 20
-223.5072465256621
 11
369.4585377289127
 21
-223.5071977790426
  0
ARC
  5
14A
100
AcDbEntity
  8
0
  6
CONTINUOUS
 62
    7
370
   25
100
AcDbCircle
 10
369.4585385344067
 20
-225.6072451887462
 40
2.100000000000044
100
AcDbArc
 50
0
 51
90
  0
ARC
  5
14B
100
AcDbEntity
  8
0
  6
CONTINUOUS
 62
    7
370
   25
100
AcDbCircle
 10
369.4585385344067
 20
-225.6072451887462
 40
2.100000000000044
100
AcDbArc
 50
90
 51
180
  0
LINE
  5
14C
100
AcDbEntity
  8
0
  6
CONTINUOUS
 62
    7
370
   25
100
AcDbLine
 10
388.5085356311333
 20
-223.5071539181376
 11
388.5085356311333
 21
-223.5071051715181
  0
ARC
  5
14D
100
AcDbEntity
  8
0
  6
CONTINUOUS
 62
    7
370
   25
100
AcDbCircle
 10
388.5085385345588
 20
-225.6071525812217
 40
2.100000000000044
100
AcDbArc
 50
0
 51
90
  0
ARC
  5
14E
100
AcDbEntity
  8
0
  6
CONTINUOUS
 62
    7
370
   25
100
AcDbCircle
 10
388.5085385345588
 20
-225.6071525812217
 40
2.100000000000044
100
AcDbArc
 50
90
 51
180
  0
LINE
  5
14F
100
AcDbEntity
  8
0
  6
CONTINUOUS
 62
    7
370
   25
100
AcDbLine
 10
407.5585409835707
 20
-223.5071539181376
 11
407.5585409835707
 21
-223.5071051715181
  0
ARC
  5
150
100
AcDbEntity
  8
0
  6
CONTINUOUS
 62
    7
370
   25
100
AcDbCircle
 10
407.5585385345289
 20
-225.6071525812217
 40
2.100000000000044
100
AcDbArc
 50
0
 51
90
  0
ARC
  5
151
100
AcDbEntity
  8
0
  6
CONTINUOUS
 62
    7
370
   25
100
AcDbCircle
 10
407.5585385345289
 20
-225.6071525812217
 40
2.100000000000044
100
AcDbArc
 50
90
 51
180
  0
LINE
  5
152
100
AcDbEntity
  8
0
  6
CONTINUOUS
 62
    7
370
   25
100
AcDbLine
 10
431.6085436538355
 20
-223.5072465256621
 11
431.6085436538355
 21
-223.5071977790426
  0
ARC
  5
153
100
AcDbEntity
  8
0
  6
CONTINUOUS
 62
    7
370
   25
100
AcDbCircle
 10
431.6085385345172
 20
-225.6072451887462
 40
2.100000000000044
100
AcDbArc
 50
0
 51
90
  0
ARC
  5
154
100
AcDbEntity
  8
0
  6
CONTINUOUS
 62
    7
370
   25
100
AcDbCircle
 10
431.6085385345172
 20
-225.6072451887462
 40
2.100000000000044
100
AcDbArc
 50
90
 51
180
  0
LINE
  5
155
100
AcDbEntity
  8
0
  6
CONTINUOUS
 62
    7
370
   25
100
AcDbLine
 10
450.6585415556924
 20
-223.5072465256621
 11
450.6585415556924
 21
-223.5071977790426
  0
ARC
  5
156
100
AcDbEntity
  8
0
  6
CONTINUOUS
 62
    7
370
   25
100
AcDbCircle
 10
450.6585385344874
 20
-225.6072451887462
 40
2.100000000000044
100
AcDbArc
 50
0
 51
90
  0
ARC
  5
157
100
AcDbEntity
  8
0
  6
CONTINUOUS
 62
    7
370
   25
100
AcDbCircle
 10
450.6585385344874
 20
-225.6072451887462
 40
2.100000000000044
100
AcDbArc
 50
90
 51
180
  0
LINE
  5
158
100
AcDbEntity
  8
0
  6
CONTINUOUS
 62
    7
370
   25
100
AcDbLine
 10
469.7085394576402
 20
-223.5071539181376
 11
469.7085394576402
 21
-223.5071051715181
  0
ARC
  5
159
100
AcDbEntity
  8
0
  6
CONTINUOUS
 62
    7
370
   25
100
AcDbCircle
 10
469.708538534503
 20
-225.6071525812217
 40
2.100000000000044
100
AcDbArc
 50
0
 51
90
  0
ARC
  5
15A
100
AcDbEntity
  8
0
  6
CONTINUOUS
 62
    7
370
   25
100
AcDbCircle
 10
469.708538534503
 20
-225.6071525812217
 40
2.100000000000044
100
AcDbArc
 50
90
 51
180
  0
LINE
  5
15B
100
AcDbEntity
  8
0
  6
CONTINUOUS
 62
    7
370
   25
100
AcDbLine
 10
136.9885450795278
 20
-221.5672433874829
 11
136.9885450795278
 21
-221.5671979765033
  0
ARC
  5
15C
100
AcDbEntity
  8
0
  6
CONTINUOUS
 62
    7
370
   25
100
AcDbCircle
 10
136.9885385344856
 20
-223.0672431898028
 40
1.5
100
AcDbArc
 50
0
 51
90
  0
ARC
  5
15D
100
AcDbEntity
  8
0
  6
CONTINUOUS
 62
    7
370
   25
100
AcDbCircle
 10
136.9885385344856
 20
-223.0672431898028
 40
1.500000000000113
100
AcDbArc
 50
90
 51
180
  0
LINE
  5
15E
100
AcDbEntity
  8
0
  6
CONTINUOUS
 62
    7
370
   25
100
AcDbLine
 10
175.0885408834233
 20
-221.5671507799584
 11
175.0885408834233
 21
-221.5671053689789
  0
ARC
  5
15F
100
AcDbEntity
  8
0
  6
CONTINUOUS
 62
    7
370
   25
100
AcDbCircle
 10
175.0885385345168
 20
-223.0671505822783
 40
1.5
100
AcDbArc
 50
0
 51
90
  0
ARC
  5
160
100
AcDbEntity
  8
0
  6
CONTINUOUS
 62
    7
370
   25
100
AcDbCircle
 10
175.0885385345168
 20
-223.0671505822783
 40
1.500000000000056
100
AcDbArc
 50
90
 51
180
  0
LINE
  5
161
100
AcDbEntity
  8
0
  6
CONTINUOUS
 62
    7
370
   25
100
AcDbLine
 10
194.1385387852802
 20
-221.5672433874829
 11
194.1385387852802
 21
-221.5671979765033
  0
ARC
  5
162
100
AcDbEntity
  8
0
  6
CONTINUOUS
 62
    7
370
   25
100
AcDbCircle
 10
194.138538534487
 20
-223.0672431898028
 40
1.5
100
AcDbArc
 50
0
 51
90
  0
ARC
  5
163
100
AcDbEntity
  8
0
  6
CONTINUOUS
 62
    7
370
   25
100
AcDbCircle
 10
194.138538534487
 20
-223.0672431898028
 40
1.500000000000056
100
AcDbArc
 50
90
 51
180
  0
LINE
  5
164
100
AcDbEntity
  8
0
  6
CONTINUOUS
 62
    7
370
   25
100
AcDbLine
 10
213.188536687137
 20
-221.5672433874829
 11
213.188536687137
 21
-221.5671979765033
  0
ARC
  5
165
100
AcDbEntity
  8
0
  6
CONTINUOUS
 62
    7
370
   25
100
AcDbCircle
 10
213.1885385344572
 20
-223.0672431898028
 40
1.5
100
AcDbArc
 50
0
 51
90
  0
ARC
  5
166
100
AcDbEntity
  8
0
  6
CONTINUOUS
 62
    7
370
   25
100
AcDbCircle
 10
213.1885385344572
 20
-223.0672431898028
 40
1.500000000000056
100
AcDbArc
 50
90
 51
180
  0
LINE
  5
167
100
AcDbEntity
  8
0
  6
CONTINUOUS
 62
    7
370
   25
100
AcDbLine
 10
232.2385420396654
 20
-221.5672433874829
 11
232.2385420396654
 21
-221.5671979765033
  0
ARC
  5
168
100
AcDbEntity
  8
0
  6
CONTINUOUS
 62
    7
370
   25
100
AcDbCircle
 10
232.2385385344728
 20
-223.0672431898028
 40
1.500000000000056
100
AcDbArc
 50
0
 51
90
  0
ARC
  5
169
100
AcDbEntity
  8
0
  6
CONTINUOUS
 62
    7
370
   25
100
AcDbCircle
 10
232.2385385344728
 20
-223.0672431898028
 40
1.500000000000056
100
AcDbArc
 50
90
 51
180
  0
LINE
  5
16A
100
AcDbEntity
  8
0
  6
CONTINUOUS
 62
    7
370
   25
100
AcDbLine
 10
260.8135388926326
 20
-221.5672433874829
 11
260.8135388926326
 21
-221.5671979765033
  0
ARC
  5
16B
100
AcDbEntity
  8
0
  6
CONTINUOUS
 62
    7
370
   25
100
AcDbCircle
 10
260.813538534519
 20
-223.0672431898028
 40
1.5
100
AcDbArc
 50
0
 51
90
  0
ARC
  5
16C
100
AcDbEntity
  8
0
  6
CONTINUOUS
 62
    7
370
   25
100
AcDbCircle
 10
260.813538534519
 20
-223.0672431898028
 40
1.500000000000056
100
AcDbArc
 50
90
 51
180
  0
LINE
  5
16D
100
AcDbEntity
  8
0
  6
CONTINUOUS
 62
    7
370
   25
100
AcDbLine
 10
279.8635386571346
 20
-221.5672433874829
 11
279.8635386571346
 21
-221.5671979765033
  0
ARC
  5
16E
100
AcDbEntity
  8
0
  6
CONTINUOUS
 62
    7
370
   25
100
AcDbCircle
 10
279.8635385344892
 20
-223.0672431898028
 40
1.499999999999943
100
AcDbArc
 50
0
 51
90
  0
ARC
  5
16F
100
AcDbEntity
  8
0
  6
CONTINUOUS
 62
    7
370
   25
100
AcDbCircle
 10
279.8635385344892
 20
-223.0672431898028
 40
1.500000000000113
100
AcDbArc
 50
90
 51
180
  0
LINE
  5
170
100
AcDbEntity
  8
0
  6
CONTINUOUS
 62
    7
370
   25
100
AcDbLine
 10
298.9135385381428
 20
-221.5672433874829
 11
298.9135385381428
 21
-221.5671979765033
  0
ARC
  5
171
100
AcDbEntity
  8
0
  6
CONTINUOUS
 62
    7
370
   25
100
AcDbCircle
 10
298.9135385345048
 20
-223.0672431898028
 40
1.499999999999943
100
AcDbArc
 50
0
 51
90
  0
ARC
  5
172
100
AcDbEntity
  8
0
  6
CONTINUOUS
 62
    7
370
   25
100
AcDbCircle
 10
298.9135385345048
 20
-223.0672431898028
 40
1.500000000000113
100
AcDbArc
 50
90
 51
180
  0
LINE
  5
173
100
AcDbEntity
  8
0
  6
CONTINUOUS
 62
    7
370
   25
100
AcDbLine
 10
317.9635381863204
 20
-221.5672433874829
 11
317.9635381863204
 21
-221.5671979765033
  0
ARC
  5
174
100
AcDbEntity
  8
0
  6
CONTINUOUS
 62
    7
370
   25
100
AcDbCircle
 10
317.9635385345205
 20
-223.0672431898028
 40
1.499999999999943
100
AcDbArc
 50
0
 51
90
  0
ARC
  5
175
100
AcDbEntity
  8
0
  6
CONTINUOUS
 62
    7
370
   25
100
AcDbCircle
 10
317.9635385345205
 20
-223.0672431898028
 40
1.500000000000056
100
AcDbArc
 50
90
 51
180
  0
LINE
  5
176
100
AcDbEntity
  8
0
  6
CONTINUOUS
 62
    7
370
   25
100
AcDbLine
 10
346.5385369016599
 20
-221.5672433874829
 11
346.5385369016599
 21
-221.5671979765034
  0
ARC
  5
177
100
AcDbEntity
  8
0
  6
CONTINUOUS
 62
    7
370
   25
100
AcDbCircle
 10
346.5385385344303
 20
-223.0672431898029
 40
1.500000000000113
100
AcDbArc
 50
0
 51
90
  0
ARC
  5
178
100
AcDbEntity
  8
0
  6
CONTINUOUS
 62
    7
370
   25
100
AcDbCircle
 10
346.5385385344303
 20
-223.0672431898029
 40
1.5
100
AcDbArc
 50
90
 51
180
  0
LINE
  5
179
100
AcDbEntity
  8
0
  6
CONTINUOUS
 62
    7
370
   25
100
AcDbLine
 10
365.5885422540973
 20
-221.5672433874829
 11
365.5885422540973
 21
-221.5671979765034
  0
ARC
  5
17A
100
AcDbEntity
  8
0
  6
CONTINUOUS
 62
    7
370
   25
100
AcDbCircle
 10
365.5885385344004
 20
-223.0672431898029
 40
1.5
100
AcDbArc
 50
0
 51
90
  0
ARC
  5
17B
100
AcDbEntity
  8
0
  6
CONTINUOUS
 62
    7
370
   25
100
AcDbCircle
 10
365.5885385344004
 20
-223.0672431898029
 40
1.500000000000113
100
AcDbArc
 50
90
 51
180
  0
LINE
  5
17C
100
AcDbEntity
  8
0
  6
CONTINUOUS
 62
    7
370
   25
100
AcDbLine
 10
384.638540156318
 20
-221.5671507799584
 11
384.638540156318
 21
-221.5671053689789
  0
ARC
  5
17D
100
AcDbEntity
  8
0
  6
CONTINUOUS
 62
    7
370
   25
100
AcDbCircle
 10
384.6385385346889
 20
-223.0671505822784
 40
1.5
100
AcDbArc
 50
0
 51
90
  0
ARC
  5
17E
100
AcDbEntity
  8
0
  6
CONTINUOUS
 62
    7
370
   25
100
AcDbCircle
 10
384.6385385346889
 20
-223.0671505822784
 40
1.500000000000113
100
AcDbArc
 50
90
 51
180
  0
LINE
  5
17F
100
AcDbEntity
  8
0
  6
CONTINUOUS
 62
    7
370
   25
100
AcDbLine
 10
403.6885380581748
 20
-221.5671507799584
 11
403.6885380581748
 21
-221.5671053689789
  0
ARC
  5
180
100
AcDbEntity
  8
0
  6
CONTINUOUS
 62
    7
370
   25
100
AcDbCircle
 10
403.6885385345226
 20
-223.0671505822784
 40
1.499999999999902
100
AcDbArc
 50
0
 51
90
  0
ARC
  5
181
100
AcDbEntity
  8
0
  6
CONTINUOUS
 62
    7
370
   25
100
AcDbCircle
 10
403.6885385345226
 20
-223.0671505822784
 40
1.500000000000113
100
AcDbArc
 50
90
 51
180
  0
LINE
  5
182
100
AcDbEntity
  8
0
  6
CONTINUOUS
 62
    7
370
   25
100
AcDbLine
 10
427.738533277859
 20
-221.5672433874829
 11
427.738533277859
 21
-221.5671979765034
  0
ARC
  5
183
100
AcDbEntity
  8
0
  6
CONTINUOUS
 62
    7
370
   25
100
AcDbCircle
 10
427.738538534511
 20
-223.0672431898029
 40
1.5
100
AcDbArc
 50
0
 51
90
  0
ARC
  5
184
100
AcDbEntity
  8
0
  6
CONTINUOUS
 62
    7
370
   25
100
AcDbCircle
 10
427.738538534511
 20
-223.0672431898029
 40
1.500000000000113
100
AcDbArc
 50
90
 51
180
  0
LINE
  5
185
100
AcDbEntity
  8
0
  6
CONTINUOUS
 62
    7
370
   25
100
AcDbLine
 10
446.7885311797158
 20
-221.5672433874829
 11
446.7885311797158
 21
-221.5671979765034
  0
ARC
  5
186
100
AcDbEntity
  8
0
  6
CONTINUOUS
 62
    7
370
   25
100
AcDbCircle
 10
446.7885385344811
 20
-223.0672431898029
 40
1.5
100
AcDbArc
 50
0
 51
90
  0
ARC
  5
187
100
AcDbEntity
  8
0
  6
CONTINUOUS
 62
    7
370
   25
100
AcDbCircle
 10
446.7885385344811
 20
-223.0672431898029
 40
1.5
100
AcDbArc
 50
90
 51
180
  0
LINE
  5
188
100
AcDbEntity
  8
0
  6
CONTINUOUS
 62
    7
370
   25
100
AcDbLine
 10
465.8385439828248
 20
-221.5671507799584
 11
465.8385439828248
 21
-221.5671053689789
  0
ARC
  5
189
100
AcDbEntity
  8
0
  6
CONTINUOUS
 62
    7
370
   25
100
AcDbCircle
 10
465.8385385344968
 20
-223.0671505822784
 40
1.5
100
AcDbArc
 50
0
 51
90
  0
ARC
  5
18A
100
AcDbEntity
  8
0
  6
CONTINUOUS
 62
    7
370
   25
100
AcDbCircle
 10
465.8385385344968
 20
-223.0671505822784
 40
1.5
100
AcDbArc
 50
90
 51
180
  0
LINE
  5
18B
100
AcDbEntity
  8
0
  6
CONTINUOUS
 62
    7
370
   25
100
AcDbLine
 10
143.3385408118352
 20
-219.0272419886127
 11
143.3385408118352
 21
-219.0271968290176
  0
ARC
  5
18C
100
AcDbEntity
  8
0
  6
CONTINUOUS
 62
    7
370
   25
100
AcDbCircle
 10
143.3385385344605
 20
-220.5272431908724
 40
1.500000000000129
100
AcDbArc
 50
0
 51
90
  0
ARC
  5
18D
100
AcDbEntity
  8
0
  6
CONTINUOUS
 62
    7
370
   25
100
AcDbCircle
 10
143.3385385344605
 20
-220.5272431908724
 40
1.500000000000129
100
AcDbArc
 50
90
 51
180
  0
LINE
  5
18E
100
AcDbEntity
  8
0
  6
CONTINUOUS
 62
    7
370
   25
100
AcDbLine
 10
181.4385366157308
 20
-219.0271493810882
 11
181.4385366157308
 21
-219.0271042214931
  0
ARC
  5
18F
100
AcDbEntity
  8
0
  6
CONTINUOUS
 62
    7
370
   25
100
AcDbCircle
 10
181.4385385345372
 20
-220.5271505833479
 40
1.500000000000129
100
AcDbArc
 50
0
 51
90
  0
ARC
  5
190
100
AcDbEntity
  8
0
  6
CONTINUOUS
 62
    7
370
   25
100
AcDbCircle
 10
181.4385385345372
 20
-220.5271505833479
 40
1.500000000000129
100
AcDbArc
 50
90
 51
180
  0
LINE
  5
191
100
AcDbEntity
  8
0
  6
CONTINUOUS
 62
    7
370
   25
100
AcDbLine
 10
200.4885419681682
 20
-219.0272419886127
 11
200.4885419681682
 21
-219.0271968290176
  0
ARC
  5
192
100
AcDbEntity
  8
0
  6
CONTINUOUS
 62
    7
370
   25
100
AcDbCircle
 10
200.4885385345074
 20
-220.5272431908724
 40
1.500000000000129
100
AcDbArc
 50
0
 51
90
  0
ARC
  5
193
100
AcDbEntity
  8
0
  6
CONTINUOUS
 62
    7
370
   25
100
AcDbCircle
 10
200.4885385345074
 20
-220.5272431908724
 40
1.500000000000129
100
AcDbArc
 50
90
 51
180
  0
LINE
  5
194
100
AcDbEntity
  8
0
  6
CONTINUOUS
 62
    7
370
   25
100
AcDbLine
 10
219.538539870025
 20
-219.0272419886127
 11
219.538539870025
 21
-219.0271968290176
  0
ARC
  5
195
100
AcDbEntity
  8
0
  6
CONTINUOUS
 62
    7
370
   25
100
AcDbCircle
 10
219.5385385344321
 20
-220.5272431908724
 40
1.500000000000129
100
AcDbArc
 50
0
 51
90
  0
ARC
  5
196
100
AcDbEntity
  8
0
  6
CONTINUOUS
 62
    7
370
   25
100
AcDbCircle
 10
219.5385385344321
 20
-220.5272431908724
 40
1.500000000000129
100
AcDbArc
 50
90
 51
180
  0
LINE
  5
197
100
AcDbEntity
  8
0
  6
CONTINUOUS
 62
    7
370
   25
100
AcDbLine
 10
238.5885377719728
 20
-219.0272419886127
 11
238.5885377719728
 21
-219.0271968290176
  0
ARC
  5
198
100
AcDbEntity
  8
0
  6
CONTINUOUS
 62
    7
370
   25
100
AcDbCircle
 10
238.5885385344477
 20
-220.5272431908724
 40
1.500000000000129
100
AcDbArc
 50
0
 51
90
  0
ARC
  5
199
100
AcDbEntity
  8
0
  6
CONTINUOUS
 62
    7
370
   25
100
AcDbCircle
 10
238.5885385344477
 20
-220.5272431908724
 40
1.500000000000129
100
AcDbArc
 50
90
 51
180
  0
LINE
  5
19A
100
AcDbEntity
  8
0
  6
CONTINUOUS
 62
    7
370
   25
100
AcDbLine
 10
267.1635383502303
 20
-219.0272419886127
 11
267.1635383502303
 21
-219.0271968290176
  0
ARC
  5
19B
100
AcDbEntity
  8
0
  6
CONTINUOUS
 62
    7
370
   25
100
AcDbCircle
 10
267.1635385345394
 20
-220.5272431908724
 40
1.500000000000129
100
AcDbArc
 50
0
 51
90
  0
ARC
  5
19C
100
AcDbEntity
  8
0
  6
CONTINUOUS
 62
    7
370
   25
100
AcDbCircle
 10
267.1635385345394
 20
-220.5272431908724
 40
1.500000000000129
100
AcDbArc
 50
90
 51
180
  0
LINE
  5
19D
100
AcDbEntity
  8
0
  6
CONTINUOUS
 62
    7
370
   25
100
AcDbLine
 10
286.2135381147323
 20
-219.0272419886127
 11
286.2135381147323
 21
-219.0271968290176
  0
ARC
  5
19E
100
AcDbEntity
  8
0
  6
CONTINUOUS
 62
    7
370
   25
100
AcDbCircle
 10
286.2135385344641
 20
-220.5272431908724
 40
1.500000000000129
100
AcDbArc
 50
0
 51
90
  0
ARC
  5
19F
100
AcDbEntity
  8
0
  6
CONTINUOUS
 62
    7
370
   25
100
AcDbCircle
 10
286.2135385344641
 20
-220.5272431908724
 40
1.500000000000129
100
AcDbArc
 50
90
 51
180
  0
LINE
  5
1A0
100
AcDbEntity
  8
0
  6
CONTINUOUS
 62
    7
370
   25
100
AcDbLine
 10
305.2635383449866
 20
-219.0272419886127
 11
305.2635383449866
 21
-219.0271968290176
  0
ARC
  5
1A1
100
AcDbEntity
  8
0
  6
CONTINUOUS
 62
    7
370
   25
100
AcDbCircle
 10
305.2635385344797
 20
-220.5272431908724
 40
1.500000000000129
100
AcDbArc
 50
0
 51
90
  0
ARC
  5
1A2
100
AcDbEntity
  8
0
  6
CONTINUOUS
 62
    7
370
   25
100
AcDbCircle
 10
305.2635385344797
 20
-220.5272431908724
 40
1.500000000000129
100
AcDbArc
 50
90
 51
180
  0
LINE
  5
1A3
100
AcDbEntity
  8
0
  6
CONTINUOUS
 62
    7
370
   25
100
AcDbLine
 10
324.3135385752408
 20
-219.0272419886127
 11
324.3135385752408
 21
-219.0271968290176
  0
ARC
  5
1A4
100
AcDbEntity
  8
0
  6
CONTINUOUS
 62
    7
370
   25
100
AcDbCircle
 10
324.3135385345409
 20
-220.5272431908724
 40
1.500000000000129
100
AcDbArc
 50
0
 51
90
  0
ARC
  5
1A5
100
AcDbEntity
  8
0
  6
CONTINUOUS
 62
    7
370
   25
100
AcDbCircle
 10
324.3135385345409
 20
-220.5272431908724
 40
1.500000000000129
100
AcDbArc
 50
90
 51
180
  0
LINE
  5
1A6
100
AcDbEntity
  8
0
  6
CONTINUOUS
 62
    7
370
   25
100
AcDbLine
 10
352.888540084548
 20
-219.0272419886128
 11
352.888540084548
 21
-219.0271968290177
  0
ARC
  5
1A7
100
AcDbEntity
  8
0
  6
CONTINUOUS
 62
    7
370
   25
100
AcDbCircle
 10
352.8885385344506
 20
-220.5272431908725
 40
1.500000000000129
100
AcDbArc
 50
0
 51
90
  0
ARC
  5
1A8
100
AcDbEntity
  8
0
  6
CONTINUOUS
 62
    7
370
   25
100
AcDbCircle
 10
352.8885385344506
 20
-220.5272431908725
 40
1.500000000000129
100
AcDbArc
 50
90
 51
180
  0
LINE
  5
1A9
100
AcDbEntity
  8
0
  6
CONTINUOUS
 62
    7
370
   25
100
AcDbLine
 10
371.9385379864048
 20
-219.0272419886128
 11
371.9385379864048
 21
-219.0271968290176
  0
ARC
  5
1AA
100
AcDbEntity
  8
0
  6
CONTINUOUS
 62
    7
370
   25
100
AcDbCircle
 10
371.9385385343753
 20
-220.5272431908725
 40
1.500000000000129
100
AcDbArc
 50
0
 51
90
  0
ARC
  5
1AB
100
AcDbEntity
  8
0
  6
CONTINUOUS
 62
    7
370
   25
100
AcDbCircle
 10
371.9385385343753
 20
-220.5272431908725
 40
1.500000000000129
100
AcDbArc
 50
90
 51
180
  0
LINE
  5
1AC
100
AcDbEntity
  8
0
  6
CONTINUOUS
 62
    7
370
   25
100
AcDbLine
 10
390.9885358886254
 20
-219.0271493810883
 11
390.9885358886254
 21
-219.0271042214931
  0
ARC
  5
1AD
100
AcDbEntity
  8
0
  6
CONTINUOUS
 62
    7
370
   25
100
AcDbCircle
 10
390.9885385346638
 20
-220.527150583348
 40
1.500000000000129
100
AcDbArc
 50
0
 51
90
  0
ARC
  5
1AE
100
AcDbEntity
  8
0
  6
CONTINUOUS
 62
    7
370
   25
100
AcDbCircle
 10
390.9885385346638
 20
-220.527150583348
 40
1.500000000000129
100
AcDbArc
 50
90
 51
180
  0
LINE
  5
1AF
100
AcDbEntity
  8
0
  6
CONTINUOUS
 62
    7
370
   25
100
AcDbLine
 10
410.0385412410629
 20
-219.0271493810883
 11
410.0385412410629
 21
-219.0271042214931
  0
ARC
  5
1B0
100
AcDbEntity
  8
0
  6
CONTINUOUS
 62
    7
370
   25
100
AcDbCircle
 10
410.038538534543
 20
-220.527150583348
 40
1.500000000000129
100
AcDbArc
 50
0
 51
90
  0
ARC
  5
1B1
100
AcDbEntity
  8
0
  6
CONTINUOUS
 62
    7
370
   25
100
AcDbCircle
 10
410.038538534543
 20
-220.527150583348
 40
1.500000000000129
100
AcDbArc
 50
90
 51
180
  0
LINE
  5
1B2
100
AcDbEntity
  8
0
  6
CONTINUOUS
 62
    7
370
   25
100
AcDbLine
 10
434.0885364607471
 20
-219.0272419886128
 11
434.0885364607471
 21
-219.0271968290176
  0
ARC
  5
1B3
100
AcDbEntity
  8
0
  6
CONTINUOUS
 62
    7
370
   25
100
AcDbCircle
 10
434.0885385345313
 20
-220.5272431908725
 40
1.500000000000129
100
AcDbArc
 50
0
 51
90
  0
ARC
  5
1B4
100
AcDbEntity
  8
0
  6
CONTINUOUS
 62
    7
370
   25
100
AcDbCircle
 10
434.0885385345313
 20
-220.5272431908725
 40
1.500000000000129
100
AcDbArc
 50
90
 51
180
  0
LINE
  5
1B5
100
AcDbEntity
  8
0
  6
CONTINUOUS
 62
    7
370
   25
100
AcDbLine
 10
453.1385418131845
 20
-219.0272419886128
 11
453.1385418131845
 21
-219.0271968290176
  0
ARC
  5
1B6
100
AcDbEntity
  8
0
  6
CONTINUOUS
 62
    7
370
   25
100
AcDbCircle
 10
453.138538534456
 20
-220.5272431908725
 40
1.500000000000129
100
AcDbArc
 50
0
 51
90
  0
ARC
  5
1B7
100
AcDbEntity
  8
0
  6
CONTINUOUS
 62
    7
370
   25
100
AcDbCircle
 10
453.138538534456
 20
-220.5272431908725
 40
1.500000000000129
100
AcDbArc
 50
90
 51
180
  0
LINE
  5
1B8
100
AcDbEntity
  8
0
  6
CONTINUOUS
 62
    7
370
   25
100
AcDbLine
 10
472.1885397151323
 20
-219.0271493810883
 11
472.1885397151323
 21
-219.0271042214931
  0
ARC
  5
1B9
100
AcDbEntity
  8
0
  6
CONTINUOUS
 62
    7
370
   25
100
AcDbCircle
 10
472.1885385344717
 20
-220.527150583348
 40
1.500000000000129
100
AcDbArc
 50
0
 51
90
  0
ARC
  5
1BA
100
AcDbEntity
  8
0
  6
CONTINUOUS
 62
    7
370
   25
100
AcDbCircle
 10
472.1885385344717
 20
-220.527150583348
 40
1.500000000000129
100
AcDbArc
 50
90
 51
180
  0
LINE
  5
1BB
100
AcDbEntity
  8
0
  6
CONTINUOUS
 62
    7
370
   25
100
AcDbLine
 10
416.9695656031376
 20
-217.3071552550482
 11
416.9695656031376
 21
-217.3071970790261
  0
LINE
  5
1BC
100
AcDbEntity
  8
0
  6
CONTINUOUS
 62
    7
370
   25
100
AcDbLine
 10
421.9610671728855
 20
-217.3071970790261
 11
421.9610671728855
 21
-217.3071552550482
  0
ARC
  5
1BD
100
AcDbEntity
  8
0
  6
CONTINUOUS
 62
    7
370
   25
100
AcDbCircle
 10
419.4653185345555
 20
-217.1614552421602
 40
2.50000000000004
100
AcDbArc
 50
183.3410302155367
 51
356.6589697844633
  0
LINE
  5
1BE
100
AcDbEntity
  8
0
  6
CONTINUOUS
 62
    7
370
   25
100
AcDbLine
 10
479.4272835582501
 20
-217.3071552550482
 11
479.4272835582501
 21
-217.3071970790261
  0
LINE
  5
1BF
100
AcDbEntity
  8
0
  6
CONTINUOUS
 62
    7
370
   25
100
AcDbLine
 10
484.418785127998
 20
-217.3071970790261
 11
484.418785127998
 21
-217.3071552550482
  0
ARC
  5
1C0
100
AcDbEntity
  8
0
  6
CONTINUOUS
 62
    7
370
   25
100
AcDbCircle
 10
481.9230385345304
 20
-217.1614552421602
 40
2.500000000000047
100
AcDbArc
 50
183.3410302155367
 51
356.6589697844633
  0
LINE
  5
1C1
100
AcDbEntity
  8
0
  6
CONTINUOUS
 62
    7
370
   25
100
AcDbLine
 10
126.1574681133038
 20
-217.3071552550482
 11
126.1574681133038
 21
-217.3071970790261
  0
LINE
  5
1C2
100
AcDbEntity
  8
0
  6
CONTINUOUS
 62
    7
370
   25
100
AcDbLine
 10
131.0886050790554
 20
-217.3071970790261
 11
131.0886050790554
 21
-217.3071552550482
  0
ARC
  5
1C3
100
AcDbEntity
  8
0
  6
CONTINUOUS
 62
    7
370
   25
100
AcDbCircle
 10
128.6230385344492
 20
-216.8936917637097
 40
2.499999999999946
100
AcDbArc
 50
189.5195616117749
 51
350.4804383882251
  0
LINE
  5
1C4
100
AcDbEntity
  8
0
  6
CONTINUOUS
 62
    7
370
   25
100
AcDbLine
 10
247.819745841623
 20
-217.3071552550482
 11
247.819745841623
 21
-217.3071970790261
  0
LINE
  5
1C5
100
AcDbEntity
  8
0
  6
CONTINUOUS
 62
    7
370
   25
100
AcDbLine
 10
252.7508902579552
 20
-217.3071970790261
 11
252.7508902579552
 21
-217.3071552550482
  0
ARC
  5
1C6
100
AcDbEntity
  8
0
  6
CONTINUOUS
 62
    7
370
   25
100
AcDbCircle
 10
250.2853185344134
 20
-216.8936917637097
 40
2.500000000000001
100
AcDbArc
 50
189.5195616117749
 51
350.4804383882251
  0
LINE
  5
1C7
100
AcDbEntity
  8
0
  6
CONTINUOUS
 62
    7
370
   25
100
AcDbLine
 10
333.5497453093535
 20
-217.3071552550482
 11
333.5497453093535
 21
-217.3071970790261
  0
LINE
  5
1C8
100
AcDbEntity
  8
0
  6
CONTINUOUS
 62
    7
370
   25
100
AcDbLine
 10
338.4808915883309
 20
-217.3071970790261
 11
338.4808915883309
 21
-217.3071552550482
  0
ARC
  5
1C9
100
AcDbEntity
  8
0
  6
CONTINUOUS
 62
    7
370
   25
100
AcDbCircle
 10
336.0153185344711
 20
-217.1536917637097
 40
2.500000000000058
100
AcDbArc
 50
356.4797029025245
 51
356.4806632490647
  0
LINE
  5
1CA
100
AcDbEntity
  8
0
  6
CONTINUOUS
 62
    7
370
   25
100
AcDbLine
 10
119.3280424207455
 20
-217.3071552550482
 11
126.1574681133038
 21
-217.3071552550482
  0
LINE
  5
1CB
100
AcDbEntity
  8
0
  6
CONTINUOUS
 62
    7
370
   25
100
AcDbLine
 10
119.3280424207455
 20
-217.3071552550482
 11
119.3280424207455
 21
-217.3071970790261
  0
LINE
  5
1CC
100
AcDbEntity
  8
0
  6
CONTINUOUS
 62
    7
370
   25
100
AcDbLine
 10
131.0886050790554
 20
-217.3071552550482
 11
247.819745841623
 21
-217.3071552550482
  0
LINE
  5
1CD
100
AcDbEntity
  8
0
  6
CONTINUOUS
 62
    7
370
   25
100
AcDbLine
 10
252.7508902579552
 20
-217.3071552550482
 11
333.5200303413862
 21
-217.3071552550482
  0
LINE
  5
1CE
100
AcDbEntity
  8
0
  6
CONTINUOUS
 62
    7
370
   25
100
AcDbLine
 10
338.5106067275561
 20
-217.3071552550482
 11
416.9695656031376
 21
-217.3071552550482
  0
LINE
  5
1CF
100
AcDbEntity
  8
0
  6
CONTINUOUS
 62
    7
370
   25
100
AcDbLine
 10
421.9610671728855
 20
-217.3071552550482
 11
479.4272835582501
 21
-217.3071552550482
  0
LINE
  5
1D0
100
AcDbEntity
  8
0
  6
CONTINUOUS
 62
    7
370
   25
100
AcDbLine
 10
484.418785127998
 20
-217.3071552550482
 11
491.2230427592999
 21
-217.3071552550482
  0
LINE
  5
1D1
100
AcDbEntity
  8
0
  6
CONTINUOUS
 62
    7
370
   25
100
AcDbLine
 10
491.2230427592999
 20
-217.3071552550482
 11
491.2230427592999
 21
-217.3071970790261
  0
LINE
  5
1D2
100
AcDbEntity
  8
B_Courtyard
  6
CENTER
 62
    4
370
   -1
100
AcDbLine
 10
318.292878362729
 20
-242.6532930806866
 11
318.292878362729
 21
-206.0308585879511
  0
DIMENSION
  5
1D3
100
AcDbEntity
  8
B_Courtyard
  6
ByLayer
 62
    6
370
   -1
100
AcDbDimension
  2
*D1
 10
336.0153185344711
 20
-175.4380324072247
 30
0
 11
327.1540984486001
 21
-172.8130324072247
 31
0
 70
   32
 71
    5
 72
    0
  3
SLDDIMSTYLE0
 53
0
210
0
220
0
230
1
100
AcDbAlignedDimension
 13
318.292878362729
 23
-206.0308585879511
 33
0
 14
336.0153185344711
 24
-217.1537380674493
 34
0
100
AcDbRotatedDimension
  0
DIMENSION
  5
1D4
100
AcDbEntity
  8
B_Courtyard
  6
ByLayer
 62
    6
370
   -1
100
AcDbDimension
  2
*D2
 10
419.4653185345555
 20
-195.138160622186
 30
0
 11
377.7403185345133
 21
-192.5131606221859
 31
0
 70
   32
 71
    5
 72
    0
  3
SLDDIMSTYLE0
 53
0
210
0
220
0
230
1
100
AcDbAlignedDimension
 13
336.0153185344711
 23
-217.1536917637097
 33
0
 14
419.4653185345555
 24
-217.161501545911
 34
0
100
AcDbRotatedDimension
  0
DIMENSION
  5
1D5
100
AcDbEntity
  8
B_Courtyard
  6
ByLayer
 62
    6
370
   -1
100
AcDbDimension
  2
*D3
 10
481.9230385345304
 20
-195.094717388547
 30
0
 11
450.6941785345429
 21
-192.469717388547
 31
0
 70
   32
 71
    5
 72
    0
  3
SLDDIMSTYLE0
 53
0
210
0
220
0
230
1
100
AcDbAlignedDimension
 13
419.4653185345555
 23
-217.161501545911
 33
0
 14
481.9230385345304
 24
-217.1614552421602
 34
0
100
AcDbRotatedDimension
  0
DIMENSION
  5
1D6
100
AcDbEntity
  8
B_Courtyard
  6
ByLayer
 62
    6
370
   -1
100
AcDbDimension
  2
*D4
 10
250.2853185344134
 20
-195.7623751797148
 30
0
 11
284.2890984485712
 21
-193.1373751797148
 31
0
 70
   32
 71
    5
 72
    0
  3
SLDDIMSTYLE0
 53
0
210
0
220
0
230
1
100
AcDbAlignedDimension
 13
318.292878362729
 23
-206.2908585879511
 33
0
 14
250.2853185344134
 24
-217.1536917637097
 34
0
100
AcDbRotatedDimension
  0
DIMENSION
  5
1D7
100
AcDbEntity
  8
B_Courtyard
  6
ByLayer
 62
    6
370
   -1
100
AcDbDimension
  2
*D5
 10
128.6230385344492
 20
-196.3167773660284
 30
0
 11
189.4541785344313
 21
-193.6917773660284
 31
0
 70
   32
 71
    5
 72
    0
  3
SLDDIMSTYLE0
 53
0
210
0
220
0
230
1
100
AcDbAlignedDimension
 13
250.2853185344134
 23
-217.1536917637097
 33
0
 14
128.6230385344492
 24
-217.1536917637097
 34
0
100
AcDbRotatedDimension
  0
LINE
  5
1D8
100
AcDbEntity
  8
B_Courtyard
  6
ByLayer
 62
    1
370
   -1
100
AcDbLine
 10
477.6049640323958
 20
-217.1614552421602
 11
486.2411130366649
 21
-217.1614552421602
  0
LINE
  5
1D9
100
AcDbEntity
  8
B_Courtyard
  6
ByLayer
 62
    1
370
   -1
100
AcDbLine
 10
481.9230385345304
 20
-217.1614552421602
 11
481.9230385345304
 21
-211.8203156392167
  0
LINE
  5
1DA
100
AcDbEntity
  8
B_Courtyard
  6
ByLayer
 62
    1
370
   -1
100
AcDbLine
 10
481.9230385345304
 20
-211.8203156392167
 11
481.9230385345304
 21
-221.5439236632164
  0
LINE
  5
1DB
100
AcDbEntity
  8
B_Courtyard
  6
ByLayer
 62
    1
370
   -1
100
AcDbLine
 10
415.147244032421
 20
-217.161501545911
 11
423.7833930366901
 21
-217.161501545911
  0
LINE
  5
1DC
100
AcDbEntity
  8
B_Courtyard
  6
ByLayer
 62
    1
370
   -1
100
AcDbLine
 10
419.4653185345555
 20
-217.161501545911
 11
419.4653185345555
 21
-211.8203619429676
  0
LINE
  5
1DD
100
AcDbEntity
  8
B_Courtyard
  6
ByLayer
 62
    1
370
   -1
100
AcDbLine
 10
419.4653185345555
 20
-211.8203619429676
 11
419.4653185345555
 21
-221.5439699669673
  0
LINE
  5
1DE
100
AcDbEntity
  8
B_Courtyard
  6
ByLayer
 62
    1
370
   -1
100
AcDbLine
 10
331.6972440323366
 20
-217.1537380674493
 11
340.3333930366057
 21
-217.1537380674493
  0
LINE
  5
1DF
100
AcDbEntity
  8
B_Courtyard
  6
ByLayer
 62
    1
370
   -1
100
AcDbLine
 10
336.0153185344711
 20
-217.1537380674493
 11
336.0153185344711
 21
-211.8125984645057
  0
LINE
  5
1E0
100
AcDbEntity
  8
B_Courtyard
  6
ByLayer
 62
    1
370
   -1
100
AcDbLine
 10
336.0153185344711
 20
-211.8125984645057
 11
336.0153185344711
 21
-221.5362064885055
  0
LINE
  5
1E1
100
AcDbEntity
  8
B_Courtyard
  6
ByLayer
 62
    1
370
   -1
100
AcDbLine
 10
245.9672440322788
 20
-217.1536917637097
 11
254.6033930365479
 21
-217.1536917637097
  0
LINE
  5
1E2
100
AcDbEntity
  8
B_Courtyard
  6
ByLayer
 62
    1
370
   -1
100
AcDbLine
 10
250.2853185344134
 20
-217.1536917637097
 11
250.2853185344134
 21
-211.8125521607662
  0
LINE
  5
1E3
100
AcDbEntity
  8
B_Courtyard
  6
ByLayer
 62
    1
370
   -1
100
AcDbLine
 10
250.2853185344134
 20
-211.8125521607662
 11
250.2853185344134
 21
-221.536160184766
  0
LINE
  5
1E4
100
AcDbEntity
  8
B_Courtyard
  6
ByLayer
 62
    1
370
   -1
100
AcDbLine
 10
124.3049640323147
 20
-217.1536917637097
 11
132.9411130365838
 21
-217.1536917637097
  0
LINE
  5
1E5
100
AcDbEntity
  8
B_Courtyard
  6
ByLayer
 62
    1
370
   -1
100
AcDbLine
 10
128.6230385344492
 20
-216.8936917637097
 11
128.6230385344492
 21
-211.5525521607663
  0
LINE
  5
1E6
100
AcDbEntity
  8
B_Courtyard
  6
ByLayer
 62
    1
370
   -1
100
AcDbLine
 10
128.6230385344492
 20
-211.8125521607662
 11
128.6230385344492
 21
-221.536160184766
  0
DIMENSION
  5
1E7
100
AcDbEntity
  8
B_Courtyard
  6
ByLayer
 62
    6
370
   -1
100
AcDbDimension
  2
*D6
 10
520.1752952066022
 20
-217.1614552421602
 30
0
 11
517.5502952066022
 21
-206.4012052421601
 31
0
 70
   32
 71
    5
 72
    0
  3
SLDDIMSTYLE0
 53
0
210
0
220
0
230
1
100
AcDbAlignedDimension
 13
491.2230427592999
 23
-217.3071552550482
 33
0
 14
486.2411130366649
 24
-217.1614552421602
 34
0
 50
90
100
AcDbRotatedDimension
  0
DIMENSION
  5
1E8
100
AcDbEntity
  8
B_Courtyard
  6
ByLayer
 62
    6
370
   -1
100
AcDbDimension
  2
*D7
 10
491.2230427592999
 20
-257.4630875788967
 30
0
 11
305.2755425900227
 21
-254.8380875788966
 31
0
 70
   32
 71
    5
 72
    0
  3
SLDDIMSTYLE0
 53
0
210
0
220
0
230
1
100
AcDbAlignedDimension
 13
119.3280424207455
 23
-233.9071973942623
 33
0
 14
491.2230427592999
 24
-233.9071973942623
 34
0
100
AcDbRotatedDimension
  0
DIMENSION
  5
1E9
100
AcDbEntity
  8
B_Courtyard
  6
ByLayer
 62
    1
370
   -1
100
AcDbDimension
  2
*D8
 10
128.6230385344491
 20
-217.1536917637097
 30
0
 11
119.8486320221228
 21
-227.9554861797521
 31
0
 70
   36
 71
    5
 72
    0
  3
SLDDIMSTYLE0
 53
0
210
0
220
0
230
1
100
AcDbRadialDimension
 15
127.046778966252
 25
-219.0941571134819
 35
0
 40
0
  0
CIRCLE
  5
1EA
100
AcDbEntity
  8
B_Courtyard
  6
ByLayer
 62
    7
370
   -1
100
AcDbCircle
 10
159.9085385345256
 20
-225.6071525812308
 40
1.5
  0
CIRCLE
  5
1EB
100
AcDbEntity
  8
B_Courtyard
  6
ByLayer
 62
    7
370
   -1
100
AcDbCircle
 10
421.0835385345253
 20
-225.6071525812263
 40
1.5
  0
CIRCLE
  5
1EC
100
AcDbEntity
  8
B_Courtyard
  6
DASHED
 62
    4
370
   -1
100
AcDbCircle
 10
421.0835385345253
 20
-225.6071525812263
 40
2.03
  0
CIRCLE
  5
1ED
100
AcDbEntity
  8
B_Courtyard
  6
DASHED
 62
    4
370
   -1
100
AcDbCircle
 10
159.9085385345256
 20
-225.6071525812308
 40
2.03
  0
CIRCLE
  5
1EE
100
AcDbEntity
  8
F_Mask
  6
ByLayer
 62
  256
370
   -1
100
AcDbCircle
 10
135.7785385344892
 20
-225.6072451887485
 40
0.926
  0
CIRCLE
  5
1EF
100
AcDbEntity
  8
F_Mask
  6
ByLayer
 62
  256
370
   -1
100
AcDbCircle
 10
145.9385385344899
 20
-225.6072451887485
 40
0.926
  0
CIRCLE
  5
1F0
100
AcDbEntity
  8
F_Mask
  6
ByLayer
 62
  256
370
   -1
100
AcDbCircle
 10
173.8785385345204
 20
-225.607152581224
 40
0.926
  0
CIRCLE
  5
1F1
100
AcDbEntity
  8
F_Mask
  6
ByLayer
 62
  256
370
   -1
100
AcDbCircle
 10
184.0385385345212
 20
-225.607152581224
 40
0.926
  0
CIRCLE
  5
1F2
100
AcDbEntity
  8
F_Mask
  6
ByLayer
 62
  256
370
   -1
100
AcDbCircle
 10
192.9285385344906
 20
-225.6072451887485
 40
0.926
  0
CIRCLE
  5
1F3
100
AcDbEntity
  8
F_Mask
  6
ByLayer
 62
  256
370
   -1
100
AcDbCircle
 10
203.0885385344914
 20
-225.6072451887485
 40
0.926
  0
CIRCLE
  5
1F4
100
AcDbEntity
  8
F_Mask
  6
ByLayer
 62
  256
370
   -1
100
AcDbCircle
 10
211.9785385344608
 20
-225.6071988849862
 40
0.926
  0
CIRCLE
  5
1F5
100
AcDbEntity
  8
F_Mask
  6
ByLayer
 62
  256
370
   -1
100
AcDbCircle
 10
222.1385385344615
 20
-225.6071988849862
 40
0.926
  0
CIRCLE
  5
1F6
100
AcDbEntity
  8
F_Mask
  6
ByLayer
 62
  256
370
   -1
100
AcDbCircle
 10
231.0285385344764
 20
-225.6072451887485
 40
0.926
  0
CIRCLE
  5
1F7
100
AcDbEntity
  8
F_Mask
  6
ByLayer
 62
  256
370
   -1
100
AcDbCircle
 10
241.1885385344772
 20
-225.6072451887485
 40
0.926
  0
CIRCLE
  5
1F8
100
AcDbEntity
  8
F_Mask
  6
ByLayer
 62
  256
370
   -1
100
AcDbCircle
 10
259.6035385345226
 20
-225.6071988849862
 40
0.926
  0
CIRCLE
  5
1F9
100
AcDbEntity
  8
F_Mask
  6
ByLayer
 62
  256
370
   -1
100
AcDbCircle
 10
269.7635385345234
 20
-225.6071988849862
 40
0.926
  0
CIRCLE
  5
1FA
100
AcDbEntity
  8
F_Mask
  6
ByLayer
 62
  256
370
   -1
100
AcDbCircle
 10
278.6535385344928
 20
-225.6071988849862
 40
0.926
  0
CIRCLE
  5
1FB
100
AcDbEntity
  8
F_Mask
  6
ByLayer
 62
  256
370
   -1
100
AcDbCircle
 10
288.8135385344936
 20
-225.6071988849862
 40
0.926
  0
CIRCLE
  5
1FC
100
AcDbEntity
  8
F_Mask
  6
ByLayer
 62
  256
370
   -1
100
AcDbCircle
 10
297.7035385345084
 20
-225.6071988849862
 40
0.926
  0
CIRCLE
  5
1FD
100
AcDbEntity
  8
F_Mask
  6
ByLayer
 62
  256
370
   -1
100
AcDbCircle
 10
307.8635385345092
 20
-225.6071988849862
 40
0.926
  0
CIRCLE
  5
1FE
100
AcDbEntity
  8
F_Mask
  6
ByLayer
 62
  256
370
   -1
100
AcDbCircle
 10
316.7535385345241
 20
-225.6071988849862
 40
0.926
  0
CIRCLE
  5
1FF
100
AcDbEntity
  8
F_Mask
  6
ByLayer
 62
  256
370
   -1
100
AcDbCircle
 10
326.9135385345248
 20
-225.6071988849862
 40
0.926
  0
CIRCLE
  5
200
100
AcDbEntity
  8
F_Mask
  6
ByLayer
 62
  256
370
   -1
100
AcDbCircle
 10
345.3285385344338
 20
-225.6072451887485
 40
0.926
  0
CIRCLE
  5
201
100
AcDbEntity
  8
F_Mask
  6
ByLayer
 62
  256
370
   -1
100
AcDbCircle
 10
355.4885385344346
 20
-225.6072451887485
 40
0.926
  0
CIRCLE
  5
202
100
AcDbEntity
  8
F_Mask
  6
ByLayer
 62
  256
370
   -1
100
AcDbCircle
 10
364.378538534404
 20
-225.6072451887485
 40
0.926
  0
CIRCLE
  5
203
100
AcDbEntity
  8
F_Mask
  6
ByLayer
 62
  256
370
   -1
100
AcDbCircle
 10
374.5385385344048
 20
-225.6072451887485
 40
0.926
  0
CIRCLE
  5
204
100
AcDbEntity
  8
F_Mask
  6
ByLayer
 62
  256
370
   -1
100
AcDbCircle
 10
383.4285385345561
 20
-225.607152581224
 40
0.926
  0
CIRCLE
  5
205
100
AcDbEntity
  8
F_Mask
  6
ByLayer
 62
  256
370
   -1
100
AcDbCircle
 10
393.5885385345569
 20
-225.607152581224
 40
0.926
  0
CIRCLE
  5
206
100
AcDbEntity
  8
F_Mask
  6
ByLayer
 62
  256
370
   -1
100
AcDbCircle
 10
402.4785385345262
 20
-225.6071062774617
 40
0.926
  0
CIRCLE
  5
207
100
AcDbEntity
  8
F_Mask
  6
ByLayer
 62
  256
370
   -1
100
AcDbCircle
 10
412.638538534527
 20
-225.6071062774617
 40
0.926
  0
CIRCLE
  5
208
100
AcDbEntity
  8
F_Mask
  6
ByLayer
 62
  256
370
   -1
100
AcDbCircle
 10
426.5285385345146
 20
-225.6071988849862
 40
0.926
  0
CIRCLE
  5
209
100
AcDbEntity
  8
F_Mask
  6
ByLayer
 62
  256
370
   -1
100
AcDbCircle
 10
436.6885385345153
 20
-225.6071988849862
 40
0.926
  0
CIRCLE
  5
20A
100
AcDbEntity
  8
F_Mask
  6
ByLayer
 62
  256
370
   -1
100
AcDbCircle
 10
445.5785385344848
 20
-225.6071988849862
 40
0.926
  0
CIRCLE
  5
20B
100
AcDbEntity
  8
F_Mask
  6
ByLayer
 62
  256
370
   -1
100
AcDbCircle
 10
455.7385385344855
 20
-225.6071988849862
 40
0.926
  0
CIRCLE
  5
20C
100
AcDbEntity
  8
F_Mask
  6
ByLayer
 62
  256
370
   -1
100
AcDbCircle
 10
464.6285385345004
 20
-225.6071062774617
 40
0.926
  0
CIRCLE
  5
20D
100
AcDbEntity
  8
F_Mask
  6
ByLayer
 62
  256
370
   -1
100
AcDbCircle
 10
474.7885385345012
 20
-225.6071062774617
 40
0.926
  0
CIRCLE
  5
20E
100
AcDbEntity
  8
B_Courtyard
  6
DASHED
 62
    7
370
   -1
100
AcDbCircle
 10
128.6230385344492
 20
-217.4215015459111
 40
5.316734227755659
  0
CIRCLE
  5
20F
100
AcDbEntity
  8
B_Courtyard
  6
DASHED
 62
    7
370
   -1
100
AcDbCircle
 10
250.2853185344134
 20
-217.1536917637097
 40
7.599950742331202
  0
CIRCLE
  5
210
100
AcDbEntity
  8
B_Courtyard
  6
DASHED
 62
    7
370
   -1
100
AcDbCircle
 10
336.0153185344711
 20
-216.8937380674492
 40
7.470429440232692
  0
CIRCLE
  5
211
100
AcDbEntity
  8
B_Courtyard
  6
DASHED
 62
    7
370
   -1
100
AcDbCircle
 10
419.4653185345555
 20
-217.161501545911
 40
7.180424928199045
  0
CIRCLE
  5
212
100
AcDbEntity
  8
B_Courtyard
  6
DASHED
 62
    7
370
   -1
100
AcDbCircle
 10
481.9230385345304
 20
-217.1614552421597
 40
5.883252313577941
  0
DIMENSION
  5
213
100
AcDbEntity
  8
B_Courtyard
  6
DASHED
 62
    3
370
   -1
100
AcDbDimension
  2
*D9
 10
138.2863102230881
 20
-217.1536917637097
 30
0
 11
137.3779768897548
 21
-213.4953584303764
 31
0
 70
   32
 71
    5
 72
    0
  3
ISO-25
 53
0
210
0
220
0
230
1
100
AcDbAlignedDimension
 13
131.0886115204605
 23
-217.3071988886302
 33
0
 14
132.9411130365838
 24
-217.1536917637097
 34
0
 50
90
100
AcDbRotatedDimension
  0
DIMENSION
  5
214
100
AcDbEntity
  8
B_Courtyard
  6
DASHED
 62
    3
370
   -1
100
AcDbDimension
  2
*D10
 10
260.481564382007
 20
-217.1536917637097
 30
0
 11
259.5732310486738
 21
-213.4953584303764
 31
0
 70
   32
 71
    5
 72
    0
  3
ISO-25
 53
0
210
0
220
0
230
1
100
AcDbAlignedDimension
 13
252.7508915204246
 23
-217.3071988886302
 33
0
 14
254.6033930365479
 24
-217.1536917637097
 34
0
 50
90
100
AcDbRotatedDimension
  0
DIMENSION
  5
215
100
AcDbEntity
  8
B_Courtyard
  6
DASHED
 62
    3
370
   -1
100
AcDbDimension
  2
*D11
 10
347.5252974350437
 20
-217.1537380674493
 30
0
 11
346.6169641017105
 21
-213.4954047341159
 31
0
 70
   32
 71
    5
 72
    0
  3
ISO-25
 53
0
210
0
220
0
230
1
100
AcDbAlignedDimension
 13
338.5106041557511
 23
-217.3071970790261
 33
0
 14
340.3333930366057
 24
-217.1537380674493
 34
0
 50
90
100
AcDbRotatedDimension
  0
DIMENSION
  5
216
100
AcDbEntity
  8
B_Courtyard
  6
DASHED
 62
    3
370
   -1
100
AcDbDimension
  2
*D12
 10
434.553201205897
 20
-217.161501545911
 30
0
 11
433.6448678725637
 21
-213.5031682125777
 31
0
 70
   32
 71
    5
 72
    0
  3
ISO-25
 53
0
210
0
220
0
230
1
100
AcDbAlignedDimension
 13
421.9610693803641
 23
-217.3071988885282
 33
0
 14
423.7833930366901
 24
-217.161501545911
 34
0
 50
90
100
AcDbRotatedDimension
  0
CIRCLE
  5
217
100
AcDbEntity
  8
B_Courtyard
  6
ByLayer
 62
  256
370
   -1
100
AcDbCircle
 10
128.6230385344492
 20
-217.1614552421597
 40
2.5
  0
ENDSEC
  0
SECTION
  2
OBJECTS
  0
DICTIONARY
  5
C
330
0
100
AcDbDictionary
281
    1
  3
ACAD_GROUP
350
D
  0
DICTIONARY
  5
D
330
C
100
AcDbDictionary
281
    1
  0
ENDSEC
  0
EOF
