  0
SECTION
  2
HEADER
  9
$ANGBASE
  50
0.0
  9
$ANGDIR
  70
1
  9
$MEASUREMENT
  70
1
  0
ENDSEC
  0
SECTION
  2
TABLES
  0
TABLE
  2
LTYPE
  70
4
  0
LTYPE
  5
40F
  2
CONTINUOUS
  70
0
  3
Solid line
  72
65
  73
0
  40
0.0
  0
LTYPE
  5
410
  2
DASHDOT
 70
0
  3
Dash Dot ____ _ ____ _
 72
65
 73
4
 40
2.0
 49
1.25
 49
-0.25
 49
0.25
 49
-0.25
  0
LTYPE
  5
411
  2
DASHED
 70
0
  3
Dashed __ __ __ __ __
 72
65
 73
2
 40
0.75
 49
0.5
 49
-0.25
  0
LTYPE
  5
43B
  2
DOTTED
 70
0
  3
Dotted .  .  .  .
 72
65
 73
2
 40
0.2
 49
0.0
 49
-0.2
  0
ENDTAB
  0
TABLE
  2
STYLE
  70
4
  0
STYLE
  2
KICAD
  70
0
  40
0
  41
1
  42
1
  50
0
  71
0
  3
isocp.shx
  0
STYLE
  2
KICADB
  70
0
  40
0
  41
1
  42
1
  50
0
  71
0
  3
isocp.shx
  0
STYLE
  2
KICADI
  70
0
  40
0
  41
1
  42
1
  50
15
  71
0
  3
isocp.shx
  0
STYLE
  2
KICADBI
  70
0
  40
0
  41
1
  42
1
  50
15
  71
0
  3
isocp.shx
  0
ENDTAB
  0
TABLE
  2
LAYER
  70
1
  0
LAYER
  2
BLACK
  70
0
  62
7
  6
CONTINUOUS
  0
ENDTAB
  0
ENDSEC
  0
SECTION
  2
ENTITIES
0
LINE
8
BLACK
6
CONTINUOUS
10
-14.525
20
17.625
11
-10.525
21
17.625
0
LINE
8
BLACK
6
CONTINUOUS
10
-9.525
20
16.125
11
-9.525
21
12.125
0
LINE
8
BLACK
6
CONTINUOUS
10
-10.525
20
17.625
11
-10.525
21
16.125
0
LINE
8
BLACK
6
CONTINUOUS
10
-9.525
20
12.125
11
-15.525
21
12.125
0
LINE
8
BLACK
6
CONTINUOUS
10
-15.525
20
12.125
11
-15.525
21
16.125
0
LINE
8
BLACK
6
CONTINUOUS
10
-14.525
20
16.125
11
-14.525
21
17.625
0
LINE
8
BLACK
6
CONTINUOUS
10
-15.525
20
16.125
11
-9.525
21
16.125
0
LINE
8
BLACK
6
CONTINUOUS
10
262.475
20
-12.785
11
262.475
21
-17.185
0
LINE
8
BLACK
6
CONTINUOUS
10
261.747
20
-15.975
11
261.747
21
-13.435
0
LINE
8
BLACK
6
CONTINUOUS
10
251.333
20
-18.515
11
248.793
21
-18.515
0
LINE
8
BLACK
6
CONTINUOUS
10
248.793
20
-15.975
11
251.333
21
-15.975
0
LINE
8
BLACK
6
CONTINUOUS
10
250.675
20
-15.285
11
250.675
21
-19.185
0
LINE
8
BLACK
6
CONTINUOUS
10
264.287
20
-13.435
11
264.287
21
-15.975
0
LINE
8
BLACK
6
CONTINUOUS
10
250.675
20
-19.185
11
254.775
21
-19.185
0
LINE
8
BLACK
6
CONTINUOUS
10
264.287
20
-15.975
11
261.747
21
-15.975
0
LINE
8
BLACK
6
CONTINUOUS
10
262.475
20
-12.785
11
253.175
21
-12.785
0
LINE
8
BLACK
6
CONTINUOUS
10
248.793
20
-18.515
11
248.793
21
-15.975
0
LINE
8
BLACK
6
CONTINUOUS
10
256.775
20
-17.185
11
262.475
21
-17.185
0
LINE
8
BLACK
6
CONTINUOUS
10
251.333
20
-15.975
11
251.333
21
-18.515
0
LINE
8
BLACK
6
CONTINUOUS
10
261.747
20
-13.435
11
264.287
21
-13.435
0
ARC
8
BLACK
10
253.175
20
-15.285
40
2.5
50
90
51
180
0
ARC
8
BLACK
10
256.775
20
-19.185
40
2
50
-270
51
-180
0
CIRCLE
8
BLACK
10
259.715
20
-14.705
40
1.524
0
CIRCLE
8
BLACK
10
253.365
20
-17.245
40
1.524
0
LINE
8
BLACK
6
CONTINUOUS
10
210.693
20
-39.1433
11
213.233
21
-39.1433
0
LINE
8
BLACK
6
CONTINUOUS
10
226.187
20
-34.0633
11
226.187
21
-36.6033
0
LINE
8
BLACK
6
CONTINUOUS
10
224.375
20
-33.4133
11
215.075
21
-33.4133
0
LINE
8
BLACK
6
CONTINUOUS
10
212.575
20
-39.8133
11
216.675
21
-39.8133
0
LINE
8
BLACK
6
CONTINUOUS
10
212.575
20
-35.9133
11
212.575
21
-39.8133
0
LINE
8
BLACK
6
CONTINUOUS
10
223.647
20
-34.0633
11
226.187
21
-34.0633
0
LINE
8
BLACK
6
CONTINUOUS
10
223.647
20
-36.6033
11
223.647
21
-34.0633
0
LINE
8
BLACK
6
CONTINUOUS
10
213.233
20
-36.6033
11
210.693
21
-36.6033
0
LINE
8
BLACK
6
CONTINUOUS
10
210.693
20
-36.6033
11
210.693
21
-39.1433
0
LINE
8
BLACK
6
CONTINUOUS
10
218.675
20
-37.8133
11
224.375
21
-37.8133
0
LINE
8
BLACK
6
CONTINUOUS
10
213.233
20
-39.1433
11
213.233
21
-36.6033
0
LINE
8
BLACK
6
CONTINUOUS
10
224.375
20
-33.4133
11
224.375
21
-37.8133
0
LINE
8
BLACK
6
CONTINUOUS
10
226.187
20
-36.6033
11
223.647
21
-36.6033
0
ARC
8
BLACK
10
218.675
20
-39.8133
40
2
50
-270
51
-180
0
ARC
8
BLACK
10
215.075
20
-35.9133
40
2.5
50
90
51
180
0
CIRCLE
8
BLACK
10
215.265
20
-37.8733
40
1.524
0
CIRCLE
8
BLACK
10
221.615
20
-35.3333
40
1.524
0
LINE
8
BLACK
6
CONTINUOUS
10
48.1625
20
-73.6353
11
38.8625
21
-73.6353
0
LINE
8
BLACK
6
CONTINUOUS
10
37.0205
20
-79.3653
11
37.0205
21
-76.8253
0
LINE
8
BLACK
6
CONTINUOUS
10
36.3625
20
-80.0353
11
40.4625
21
-80.0353
0
LINE
8
BLACK
6
CONTINUOUS
10
49.9745
20
-74.2853
11
49.9745
21
-76.8253
0
LINE
8
BLACK
6
CONTINUOUS
10
48.1625
20
-73.6353
11
48.1625
21
-78.0353
0
LINE
8
BLACK
6
CONTINUOUS
10
47.4345
20
-76.8253
11
47.4345
21
-74.2853
0
LINE
8
BLACK
6
CONTINUOUS
10
37.0205
20
-76.8253
11
34.4805
21
-76.8253
0
LINE
8
BLACK
6
CONTINUOUS
10
42.4625
20
-78.0353
11
48.1625
21
-78.0353
0
LINE
8
BLACK
6
CONTINUOUS
10
36.3625
20
-76.1353
11
36.3625
21
-80.0353
0
LINE
8
BLACK
6
CONTINUOUS
10
49.9745
20
-76.8253
11
47.4345
21
-76.8253
0
LINE
8
BLACK
6
CONTINUOUS
10
34.4805
20
-79.3653
11
37.0205
21
-79.3653
0
LINE
8
BLACK
6
CONTINUOUS
10
47.4345
20
-74.2853
11
49.9745
21
-74.2853
0
LINE
8
BLACK
6
CONTINUOUS
10
34.4805
20
-76.8253
11
34.4805
21
-79.3653
0
ARC
8
BLACK
10
42.4625
20
-80.0353
40
2
50
-270
51
-180
0
ARC
8
BLACK
10
38.8625
20
-76.1353
40
2.5
50
90
51
180
0
CIRCLE
8
BLACK
10
45.4025
20
-75.5553
40
1.524
0
CIRCLE
8
BLACK
10
39.0525
20
-78.0953
40
1.524
0
LINE
8
BLACK
6
CONTINUOUS
10
288.505
20
11.625
11
287.997
21
11.625
0
LINE
8
BLACK
6
CONTINUOUS
10
290.537
20
11.625
11
291.045
21
11.625
0
LINE
8
BLACK
6
CONTINUOUS
10
287.235
20
11.625
11
286.727
21
11.625
0
LINE
8
BLACK
6
CONTINUOUS
10
291.807
20
11.625
11
292.315
21
11.625
0
LINE
8
BLACK
6
CONTINUOUS
10
289.267
20
11.625
11
289.775
21
11.625
0
LINE
8
BLACK
6
CONTINUOUS
10
-1.7375
20
-39.8133
11
2.3625
21
-39.8133
0
LINE
8
BLACK
6
CONTINUOUS
10
-3.6195
20
-36.6033
11
-1.0795
21
-36.6033
0
LINE
8
BLACK
6
CONTINUOUS
10
-1.7375
20
-35.9133
11
-1.7375
21
-39.8133
0
LINE
8
BLACK
6
CONTINUOUS
10
11.8745
20
-34.0633
11
11.8745
21
-36.6033
0
LINE
8
BLACK
6
CONTINUOUS
10
9.3345
20
-34.0633
11
11.8745
21
-34.0633
0
LINE
8
BLACK
6
CONTINUOUS
10
-1.0795
20
-36.6033
11
-1.0795
21
-39.1433
0
LINE
8
BLACK
6
CONTINUOUS
10
9.3345
20
-36.6033
11
9.3345
21
-34.0633
0
LINE
8
BLACK
6
CONTINUOUS
10
10.0625
20
-33.4133
11
0.7625
21
-33.4133
0
LINE
8
BLACK
6
CONTINUOUS
10
10.0625
20
-33.4133
11
10.0625
21
-37.8133
0
LINE
8
BLACK
6
CONTINUOUS
10
11.8745
20
-36.6033
11
9.3345
21
-36.6033
0
LINE
8
BLACK
6
CONTINUOUS
10
-3.6195
20
-39.1433
11
-3.6195
21
-36.6033
0
LINE
8
BLACK
6
CONTINUOUS
10
4.3625
20
-37.8133
11
10.0625
21
-37.8133
0
LINE
8
BLACK
6
CONTINUOUS
10
-1.0795
20
-39.1433
11
-3.6195
21
-39.1433
0
ARC
8
BLACK
10
0.7625
20
-35.9133
40
2.5
50
90
51
180
0
ARC
8
BLACK
10
4.3625
20
-39.8133
40
2
50
-270
51
-180
0
CIRCLE
8
BLACK
10
0.9525
20
-37.8733
40
1.524
0
CIRCLE
8
BLACK
10
7.3025
20
-35.3333
40
1.524
0
LINE
8
BLACK
6
CONTINUOUS
10
22.733
20
-39.1433
11
22.733
21
-36.6033
0
LINE
8
BLACK
6
CONTINUOUS
10
35.687
20
-34.0633
11
35.687
21
-36.6033
0
LINE
8
BLACK
6
CONTINUOUS
10
33.147
20
-36.6033
11
33.147
21
-34.0633
0
LINE
8
BLACK
6
CONTINUOUS
10
22.075
20
-35.9133
11
22.075
21
-39.8133
0
LINE
8
BLACK
6
CONTINUOUS
10
20.193
20
-36.6033
11
20.193
21
-39.1433
0
LINE
8
BLACK
6
CONTINUOUS
10
28.175
20
-37.8133
11
33.875
21
-37.8133
0
LINE
8
BLACK
6
CONTINUOUS
10
20.193
20
-39.1433
11
22.733
21
-39.1433
0
LINE
8
BLACK
6
CONTINUOUS
10
22.075
20
-39.8133
11
26.175
21
-39.8133
0
LINE
8
BLACK
6
CONTINUOUS
10
35.687
20
-36.6033
11
33.147
21
-36.6033
0
LINE
8
BLACK
6
CONTINUOUS
10
33.875
20
-33.4133
11
24.575
21
-33.4133
0
LINE
8
BLACK
6
CONTINUOUS
10
22.733
20
-36.6033
11
20.193
21
-36.6033
0
LINE
8
BLACK
6
CONTINUOUS
10
33.147
20
-34.0633
11
35.687
21
-34.0633
0
LINE
8
BLACK
6
CONTINUOUS
10
33.875
20
-33.4133
11
33.875
21
-37.8133
0
ARC
8
BLACK
10
28.175
20
-39.8133
40
2
50
-270
51
-180
0
ARC
8
BLACK
10
24.575
20
-35.9133
40
2.5
50
90
51
180
0
CIRCLE
8
BLACK
10
31.115
20
-35.3333
40
1.524
0
CIRCLE
8
BLACK
10
24.765
20
-37.8733
40
1.524
0
LINE
8
BLACK
6
CONTINUOUS
10
290.43
20
-11.485
11
290.938
21
-11.485
0
LINE
8
BLACK
6
CONTINUOUS
10
289.668
20
-11.485
11
289.16
21
-11.485
0
LINE
8
BLACK
6
CONTINUOUS
10
287.128
20
-11.485
11
286.62
21
-11.485
0
LINE
8
BLACK
6
CONTINUOUS
10
288.398
20
-11.485
11
287.89
21
-11.485
0
LINE
8
BLACK
6
CONTINUOUS
10
291.7
20
-11.485
11
292.208
21
-11.485
0
LINE
8
BLACK
6
CONTINUOUS
10
-3.525
20
18.859
11
-3.525
21
18.351
0
LINE
8
BLACK
6
CONTINUOUS
10
-3.525
20
17.589
11
-3.525
21
17.081
0
LINE
8
BLACK
6
CONTINUOUS
10
-3.525
20
20.891
11
-3.525
21
21.399
0
LINE
8
BLACK
6
CONTINUOUS
10
-3.525
20
22.161
11
-3.525
21
22.669
0
LINE
8
BLACK
6
CONTINUOUS
10
-3.525
20
19.621
11
-3.525
21
20.129
0
LINE
8
BLACK
6
CONTINUOUS
10
267.238
20
-94.1853
11
267.238
21
-98.5853
0
LINE
8
BLACK
6
CONTINUOUS
10
255.438
20
-100.585
11
259.537
21
-100.585
0
LINE
8
BLACK
6
CONTINUOUS
10
266.51
20
-94.8353
11
269.049
21
-94.8353
0
LINE
8
BLACK
6
CONTINUOUS
10
253.555
20
-97.3753
11
256.096
21
-97.3753
0
LINE
8
BLACK
6
CONTINUOUS
10
261.537
20
-98.5853
11
267.238
21
-98.5853
0
LINE
8
BLACK
6
CONTINUOUS
10
256.096
20
-97.3753
11
256.096
21
-99.9153
0
LINE
8
BLACK
6
CONTINUOUS
10
266.51
20
-97.3753
11
266.51
21
-94.8353
0
LINE
8
BLACK
6
CONTINUOUS
10
253.555
20
-99.9153
11
253.555
21
-97.3753
0
LINE
8
BLACK
6
CONTINUOUS
10
269.049
20
-94.8353
11
269.049
21
-97.3753
0
LINE
8
BLACK
6
CONTINUOUS
10
269.049
20
-97.3753
11
266.51
21
-97.3753
0
LINE
8
BLACK
6
CONTINUOUS
10
255.438
20
-96.6853
11
255.438
21
-100.585
0
LINE
8
BLACK
6
CONTINUOUS
10
267.238
20
-94.1853
11
257.938
21
-94.1853
0
LINE
8
BLACK
6
CONTINUOUS
10
256.096
20
-99.9153
11
253.555
21
-99.9153
0
ARC
8
BLACK
10
261.537
20
-100.585
40
2
50
-270
51
-180
0
ARC
8
BLACK
10
257.938
20
-96.6853
40
2.5
50
90
51
180
0
CIRCLE
8
BLACK
10
264.477
20
-96.1053
40
1.524
0
CIRCLE
8
BLACK
10
258.127
20
-98.6453
40
1.524
0
LINE
8
BLACK
6
CONTINUOUS
10
83.312
20
-15.975
11
80.772
21
-15.975
0
LINE
8
BLACK
6
CONTINUOUS
10
69.7
20
-19.185
11
73.8
21
-19.185
0
LINE
8
BLACK
6
CONTINUOUS
10
81.5
20
-12.785
11
81.5
21
-17.185
0
LINE
8
BLACK
6
CONTINUOUS
10
83.312
20
-13.435
11
83.312
21
-15.975
0
LINE
8
BLACK
6
CONTINUOUS
10
70.358
20
-18.515
11
70.358
21
-15.975
0
LINE
8
BLACK
6
CONTINUOUS
10
69.7
20
-15.285
11
69.7
21
-19.185
0
LINE
8
BLACK
6
CONTINUOUS
10
80.772
20
-15.975
11
80.772
21
-13.435
0
LINE
8
BLACK
6
CONTINUOUS
10
75.8
20
-17.185
11
81.5
21
-17.185
0
LINE
8
BLACK
6
CONTINUOUS
10
70.358
20
-15.975
11
67.818
21
-15.975
0
LINE
8
BLACK
6
CONTINUOUS
10
67.818
20
-18.515
11
70.358
21
-18.515
0
LINE
8
BLACK
6
CONTINUOUS
10
80.772
20
-13.435
11
83.312
21
-13.435
0
LINE
8
BLACK
6
CONTINUOUS
10
81.5
20
-12.785
11
72.2
21
-12.785
0
LINE
8
BLACK
6
CONTINUOUS
10
67.818
20
-15.975
11
67.818
21
-18.515
0
ARC
8
BLACK
10
75.8
20
-19.185
40
2
50
-270
51
-180
0
ARC
8
BLACK
10
72.2
20
-15.285
40
2.5
50
90
51
180
0
CIRCLE
8
BLACK
10
78.74
20
-14.705
40
1.524
0
CIRCLE
8
BLACK
10
72.39
20
-17.245
40
1.524
0
LINE
8
BLACK
6
CONTINUOUS
10
152.209
20
-53.8483
11
154.749
21
-53.8483
0
LINE
8
BLACK
6
CONTINUOUS
10
141.137
20
-59.5983
11
145.237
21
-59.5983
0
LINE
8
BLACK
6
CONTINUOUS
10
139.255
20
-56.3883
11
139.255
21
-58.9283
0
LINE
8
BLACK
6
CONTINUOUS
10
141.137
20
-55.6983
11
141.137
21
-59.5983
0
LINE
8
BLACK
6
CONTINUOUS
10
139.255
20
-58.9283
11
141.796
21
-58.9283
0
LINE
8
BLACK
6
CONTINUOUS
10
154.749
20
-53.8483
11
154.749
21
-56.3883
0
LINE
8
BLACK
6
CONTINUOUS
10
154.749
20
-56.3883
11
152.209
21
-56.3883
0
LINE
8
BLACK
6
CONTINUOUS
10
152.209
20
-56.3883
11
152.209
21
-53.8483
0
LINE
8
BLACK
6
CONTINUOUS
10
141.796
20
-58.9283
11
141.796
21
-56.3883
0
LINE
8
BLACK
6
CONTINUOUS
10
152.938
20
-53.1983
11
152.938
21
-57.5983
0
LINE
8
BLACK
6
CONTINUOUS
10
152.938
20
-53.1983
11
143.637
21
-53.1983
0
LINE
8
BLACK
6
CONTINUOUS
10
141.796
20
-56.3883
11
139.255
21
-56.3883
0
LINE
8
BLACK
6
CONTINUOUS
10
147.237
20
-57.5983
11
152.938
21
-57.5983
0
ARC
8
BLACK
10
147.237
20
-59.5983
40
2
50
-270
51
-180
0
ARC
8
BLACK
10
143.637
20
-55.6983
40
2.5
50
90
51
180
0
CIRCLE
8
BLACK
10
150.177
20
-55.1183
40
1.524
0
CIRCLE
8
BLACK
10
143.827
20
-57.6583
40
1.524
0
LINE
8
BLACK
6
CONTINUOUS
10
217.337
20
-59.5983
11
221.438
21
-59.5983
0
LINE
8
BLACK
6
CONTINUOUS
10
229.137
20
-53.1983
11
219.837
21
-53.1983
0
LINE
8
BLACK
6
CONTINUOUS
10
215.456
20
-56.3883
11
215.456
21
-58.9283
0
LINE
8
BLACK
6
CONTINUOUS
10
217.995
20
-56.3883
11
215.456
21
-56.3883
0
LINE
8
BLACK
6
CONTINUOUS
10
230.95
20
-56.3883
11
228.409
21
-56.3883
0
LINE
8
BLACK
6
CONTINUOUS
10
228.409
20
-53.8483
11
230.95
21
-53.8483
0
LINE
8
BLACK
6
CONTINUOUS
10
215.456
20
-58.9283
11
217.995
21
-58.9283
0
LINE
8
BLACK
6
CONTINUOUS
10
229.137
20
-53.1983
11
229.137
21
-57.5983
0
LINE
8
BLACK
6
CONTINUOUS
10
223.438
20
-57.5983
11
229.137
21
-57.5983
0
LINE
8
BLACK
6
CONTINUOUS
10
217.337
20
-55.6983
11
217.337
21
-59.5983
0
LINE
8
BLACK
6
CONTINUOUS
10
217.995
20
-58.9283
11
217.995
21
-56.3883
0
LINE
8
BLACK
6
CONTINUOUS
10
228.409
20
-56.3883
11
228.409
21
-53.8483
0
LINE
8
BLACK
6
CONTINUOUS
10
230.95
20
-53.8483
11
230.95
21
-56.3883
0
ARC
8
BLACK
10
223.437
20
-59.5983
40
2
50
-270
51
-180
0
ARC
8
BLACK
10
219.837
20
-55.6983
40
2.5
50
90
51
180
0
CIRCLE
8
BLACK
10
226.377
20
-55.1183
40
1.524
0
CIRCLE
8
BLACK
10
220.028
20
-57.6583
40
1.524
0
LINE
8
BLACK
6
CONTINUOUS
10
269.049
20
-36.6033
11
266.51
21
-36.6033
0
LINE
8
BLACK
6
CONTINUOUS
10
266.51
20
-36.6033
11
266.51
21
-34.0633
0
LINE
8
BLACK
6
CONTINUOUS
10
255.438
20
-39.8133
11
259.537
21
-39.8133
0
LINE
8
BLACK
6
CONTINUOUS
10
267.238
20
-33.4133
11
257.938
21
-33.4133
0
LINE
8
BLACK
6
CONTINUOUS
10
261.537
20
-37.8133
11
267.238
21
-37.8133
0
LINE
8
BLACK
6
CONTINUOUS
10
253.555
20
-39.1433
11
253.555
21
-36.6033
0
LINE
8
BLACK
6
CONTINUOUS
10
256.096
20
-36.6033
11
256.096
21
-39.1433
0
LINE
8
BLACK
6
CONTINUOUS
10
267.238
20
-33.4133
11
267.238
21
-37.8133
0
LINE
8
BLACK
6
CONTINUOUS
10
255.438
20
-35.9133
11
255.438
21
-39.8133
0
LINE
8
BLACK
6
CONTINUOUS
10
269.049
20
-34.0633
11
269.049
21
-36.6033
0
LINE
8
BLACK
6
CONTINUOUS
10
253.555
20
-36.6033
11
256.096
21
-36.6033
0
LINE
8
BLACK
6
CONTINUOUS
10
266.51
20
-34.0633
11
269.049
21
-34.0633
0
LINE
8
BLACK
6
CONTINUOUS
10
256.096
20
-39.1433
11
253.555
21
-39.1433
0
ARC
8
BLACK
10
257.938
20
-35.9133
40
2.5
50
90
51
180
0
ARC
8
BLACK
10
261.537
20
-39.8133
40
2
50
-270
51
-180
0
CIRCLE
8
BLACK
10
258.127
20
-37.8733
40
1.524
0
CIRCLE
8
BLACK
10
264.477
20
-35.3333
40
1.524
0
LINE
8
BLACK
6
CONTINUOUS
10
333.422
20
3.81
11
333.422
21
6.35
0
LINE
8
BLACK
6
CONTINUOUS
10
322.35
20
4.5
11
322.35
21
0.6
0
LINE
8
BLACK
6
CONTINUOUS
10
335.962
20
6.35
11
335.962
21
3.81
0
LINE
8
BLACK
6
CONTINUOUS
10
334.15
20
7
11
324.85
21
7
0
LINE
8
BLACK
6
CONTINUOUS
10
335.962
20
3.81
11
333.422
21
3.81
0
LINE
8
BLACK
6
CONTINUOUS
10
334.15
20
7
11
334.15
21
2.6
0
LINE
8
BLACK
6
CONTINUOUS
10
323.008
20
1.27
11
323.008
21
3.81
0
LINE
8
BLACK
6
CONTINUOUS
10
322.35
20
0.6
11
326.45
21
0.6
0
LINE
8
BLACK
6
CONTINUOUS
10
320.468
20
3.81
11
320.468
21
1.27
0
LINE
8
BLACK
6
CONTINUOUS
10
323.008
20
3.81
11
320.468
21
3.81
0
LINE
8
BLACK
6
CONTINUOUS
10
328.45
20
2.6
11
334.15
21
2.6
0
LINE
8
BLACK
6
CONTINUOUS
10
333.422
20
6.35
11
335.962
21
6.35
0
LINE
8
BLACK
6
CONTINUOUS
10
320.468
20
1.27
11
323.008
21
1.27
0
ARC
8
BLACK
10
324.85
20
4.5
40
2.5
50
90
51
180
0
ARC
8
BLACK
10
328.45
20
0.600001
40
2
50
-270
51
-180
0
CIRCLE
8
BLACK
10
325.04
20
2.54
40
1.524
0
CIRCLE
8
BLACK
10
331.39
20
5.08
40
1.524
0
LINE
8
BLACK
6
CONTINUOUS
10
-1.0795
20
-99.9153
11
-3.6195
21
-99.9153
0
LINE
8
BLACK
6
CONTINUOUS
10
-1.0795
20
-97.3753
11
-1.0795
21
-99.9153
0
LINE
8
BLACK
6
CONTINUOUS
10
-1.7375
20
-100.585
11
2.3625
21
-100.585
0
LINE
8
BLACK
6
CONTINUOUS
10
4.3625
20
-98.5853
11
10.0625
21
-98.5853
0
LINE
8
BLACK
6
CONTINUOUS
10
-3.6195
20
-97.3753
11
-1.0795
21
-97.3753
0
LINE
8
BLACK
6
CONTINUOUS
10
9.3345
20
-97.3753
11
9.3345
21
-94.8353
0
LINE
8
BLACK
6
CONTINUOUS
10
11.8745
20
-94.8353
11
11.8745
21
-97.3753
0
LINE
8
BLACK
6
CONTINUOUS
10
10.0625
20
-94.1853
11
10.0625
21
-98.5853
0
LINE
8
BLACK
6
CONTINUOUS
10
11.8745
20
-97.3753
11
9.3345
21
-97.3753
0
LINE
8
BLACK
6
CONTINUOUS
10
-1.7375
20
-96.6853
11
-1.7375
21
-100.585
0
LINE
8
BLACK
6
CONTINUOUS
10
9.3345
20
-94.8353
11
11.8745
21
-94.8353
0
LINE
8
BLACK
6
CONTINUOUS
10
-3.6195
20
-99.9153
11
-3.6195
21
-97.3753
0
LINE
8
BLACK
6
CONTINUOUS
10
10.0625
20
-94.1853
11
0.7625
21
-94.1853
0
ARC
8
BLACK
10
0.7625
20
-96.6853
40
2.5
50
90
51
180
0
ARC
8
BLACK
10
4.3625
20
-100.585
40
2
50
-270
51
-180
0
CIRCLE
8
BLACK
10
0.9525
20
-98.6453
40
1.524
0
CIRCLE
8
BLACK
10
7.3025
20
-96.1053
40
1.524
0
LINE
8
BLACK
6
CONTINUOUS
10
-21.525
20
-62.4843
11
-21.525
21
-62.9923
0
LINE
8
BLACK
6
CONTINUOUS
10
-21.525
20
-61.2143
11
-21.525
21
-61.7223
0
LINE
8
BLACK
6
CONTINUOUS
10
-21.525
20
-57.9123
11
-21.525
21
-57.4043
0
LINE
8
BLACK
6
CONTINUOUS
10
-21.525
20
-59.9443
11
-21.525
21
-60.4523
0
LINE
8
BLACK
6
CONTINUOUS
10
-21.525
20
-59.1823
11
-21.525
21
-58.6743
0
LINE
8
BLACK
6
CONTINUOUS
10
350.4
20
23.346
11
350.4
21
23.854
0
LINE
8
BLACK
6
CONTINUOUS
10
350.4
20
21.314
11
350.4
21
20.806
0
LINE
8
BLACK
6
CONTINUOUS
10
350.4
20
24.616
11
350.4
21
25.124
0
LINE
8
BLACK
6
CONTINUOUS
10
350.4
20
25.886
11
350.4
21
26.394
0
LINE
8
BLACK
6
CONTINUOUS
10
350.4
20
22.584
11
350.4
21
22.076
0
LINE
8
BLACK
6
CONTINUOUS
10
86.2625
20
-73.6353
11
76.9625
21
-73.6353
0
LINE
8
BLACK
6
CONTINUOUS
10
85.5345
20
-76.8253
11
85.5345
21
-74.2853
0
LINE
8
BLACK
6
CONTINUOUS
10
88.0745
20
-74.2853
11
88.0745
21
-76.8253
0
LINE
8
BLACK
6
CONTINUOUS
10
74.4625
20
-76.1353
11
74.4625
21
-80.0353
0
LINE
8
BLACK
6
CONTINUOUS
10
72.5805
20
-79.3653
11
75.1205
21
-79.3653
0
LINE
8
BLACK
6
CONTINUOUS
10
88.0745
20
-76.8253
11
85.5345
21
-76.8253
0
LINE
8
BLACK
6
CONTINUOUS
10
72.5805
20
-76.8253
11
72.5805
21
-79.3653
0
LINE
8
BLACK
6
CONTINUOUS
10
86.2625
20
-73.6353
11
86.2625
21
-78.0353
0
LINE
8
BLACK
6
CONTINUOUS
10
85.5345
20
-74.2853
11
88.0745
21
-74.2853
0
LINE
8
BLACK
6
CONTINUOUS
10
80.5625
20
-78.0353
11
86.2625
21
-78.0353
0
LINE
8
BLACK
6
CONTINUOUS
10
75.1205
20
-79.3653
11
75.1205
21
-76.8253
0
LINE
8
BLACK
6
CONTINUOUS
10
75.1205
20
-76.8253
11
72.5805
21
-76.8253
0
LINE
8
BLACK
6
CONTINUOUS
10
74.4625
20
-80.0353
11
78.5625
21
-80.0353
0
ARC
8
BLACK
10
76.9625
20
-76.1353
40
2.5
50
90
51
180
0
ARC
8
BLACK
10
80.5625
20
-80.0353
40
2
50
-270
51
-180
0
CIRCLE
8
BLACK
10
77.1525
20
-78.0953
40
1.524
0
CIRCLE
8
BLACK
10
83.5025
20
-75.5553
40
1.524
0
LINE
8
BLACK
6
CONTINUOUS
10
0.03175
20
-66.5483
11
0.03175
21
-64.0083
0
LINE
8
BLACK
6
CONTINUOUS
10
7.54375
20
-62.7983
11
1.84375
21
-62.7983
0
LINE
8
BLACK
6
CONTINUOUS
10
12.9857
20
-61.4683
11
15.5257
21
-61.4683
0
LINE
8
BLACK
6
CONTINUOUS
10
1.84375
20
-67.1983
11
1.84375
21
-62.7983
0
LINE
8
BLACK
6
CONTINUOUS
10
12.9857
20
-64.0083
11
12.9857
21
-61.4683
0
LINE
8
BLACK
6
CONTINUOUS
10
1.84375
20
-67.1983
11
11.1437
21
-67.1983
0
LINE
8
BLACK
6
CONTINUOUS
10
0.03175
20
-64.0083
11
2.57175
21
-64.0083
0
LINE
8
BLACK
6
CONTINUOUS
10
15.5257
20
-64.0083
11
12.9857
21
-64.0083
0
LINE
8
BLACK
6
CONTINUOUS
10
2.57175
20
-64.0083
11
2.57175
21
-66.5483
0
LINE
8
BLACK
6
CONTINUOUS
10
13.6437
20
-64.6983
11
13.6437
21
-60.7983
0
LINE
8
BLACK
6
CONTINUOUS
10
15.5257
20
-61.4683
11
15.5257
21
-64.0083
0
LINE
8
BLACK
6
CONTINUOUS
10
13.6437
20
-60.7983
11
9.54375
21
-60.7983
0
LINE
8
BLACK
6
CONTINUOUS
10
2.57175
20
-66.5483
11
0.03175
21
-66.5483
0
ARC
8
BLACK
10
7.54375
20
-60.7983
40
2
50
-90
51
2.86479e-05
0
ARC
8
BLACK
10
11.1437
20
-64.6983
40
2.5
50
-90
51
-0
0
CIRCLE
8
BLACK
10
4.60375
20
-65.2783
40
1.524
0
CIRCLE
8
BLACK
10
10.9537
20
-62.7383
40
1.524
0
LINE
8
BLACK
6
CONTINUOUS
10
316.912
20
-36.6033
11
314.372
21
-36.6033
0
LINE
8
BLACK
6
CONTINUOUS
10
309.4
20
-37.8133
11
315.1
21
-37.8133
0
LINE
8
BLACK
6
CONTINUOUS
10
316.912
20
-34.0633
11
316.912
21
-36.6033
0
LINE
8
BLACK
6
CONTINUOUS
10
301.418
20
-36.6033
11
301.418
21
-39.1433
0
LINE
8
BLACK
6
CONTINUOUS
10
303.958
20
-36.6033
11
301.418
21
-36.6033
0
LINE
8
BLACK
6
CONTINUOUS
10
314.372
20
-36.6033
11
314.372
21
-34.0633
0
LINE
8
BLACK
6
CONTINUOUS
10
301.418
20
-39.1433
11
303.958
21
-39.1433
0
LINE
8
BLACK
6
CONTINUOUS
10
315.1
20
-33.4133
11
305.8
21
-33.4133
0
LINE
8
BLACK
6
CONTINUOUS
10
315.1
20
-33.4133
11
315.1
21
-37.8133
0
LINE
8
BLACK
6
CONTINUOUS
10
303.958
20
-39.1433
11
303.958
21
-36.6033
0
LINE
8
BLACK
6
CONTINUOUS
10
314.372
20
-34.0633
11
316.912
21
-34.0633
0
LINE
8
BLACK
6
CONTINUOUS
10
303.3
20
-39.8133
11
307.4
21
-39.8133
0
LINE
8
BLACK
6
CONTINUOUS
10
303.3
20
-35.9133
11
303.3
21
-39.8133
0
ARC
8
BLACK
10
305.8
20
-35.9133
40
2.5
50
90
51
180
0
ARC
8
BLACK
10
309.4
20
-39.8133
40
2
50
-270
51
-180
0
CIRCLE
8
BLACK
10
305.99
20
-37.8733
40
1.524
0
CIRCLE
8
BLACK
10
312.34
20
-35.3333
40
1.524
0
LINE
8
BLACK
6
CONTINUOUS
10
284.908
20
3.81
11
282.368
21
3.81
0
LINE
8
BLACK
6
CONTINUOUS
10
284.25
20
4.5
11
284.25
21
0.6
0
LINE
8
BLACK
6
CONTINUOUS
10
297.862
20
3.81
11
295.322
21
3.81
0
LINE
8
BLACK
6
CONTINUOUS
10
282.368
20
1.27
11
284.908
21
1.27
0
LINE
8
BLACK
6
CONTINUOUS
10
284.908
20
1.27
11
284.908
21
3.81
0
LINE
8
BLACK
6
CONTINUOUS
10
296.05
20
7
11
296.05
21
2.6
0
LINE
8
BLACK
6
CONTINUOUS
10
297.862
20
6.35
11
297.862
21
3.81
0
LINE
8
BLACK
6
CONTINUOUS
10
295.322
20
6.35
11
297.862
21
6.35
0
LINE
8
BLACK
6
CONTINUOUS
10
290.35
20
2.6
11
296.05
21
2.6
0
LINE
8
BLACK
6
CONTINUOUS
10
284.25
20
0.6
11
288.35
21
0.6
0
LINE
8
BLACK
6
CONTINUOUS
10
295.322
20
3.81
11
295.322
21
6.35
0
LINE
8
BLACK
6
CONTINUOUS
10
282.368
20
3.81
11
282.368
21
1.27
0
LINE
8
BLACK
6
CONTINUOUS
10
296.05
20
7
11
286.75
21
7
0
ARC
8
BLACK
10
290.35
20
0.600001
40
2
50
-270
51
-180
0
ARC
8
BLACK
10
286.75
20
4.5
40
2.5
50
90
51
180
0
CIRCLE
8
BLACK
10
286.94
20
2.54
40
1.524
0
CIRCLE
8
BLACK
10
293.29
20
5.08
40
1.524
0
LINE
8
BLACK
6
CONTINUOUS
10
194.183
20
-36.6033
11
191.643
21
-36.6033
0
LINE
8
BLACK
6
CONTINUOUS
10
207.137
20
-34.0633
11
207.137
21
-36.6033
0
LINE
8
BLACK
6
CONTINUOUS
10
191.643
20
-39.1433
11
194.183
21
-39.1433
0
LINE
8
BLACK
6
CONTINUOUS
10
205.325
20
-33.4133
11
205.325
21
-37.8133
0
LINE
8
BLACK
6
CONTINUOUS
10
194.183
20
-39.1433
11
194.183
21
-36.6033
0
LINE
8
BLACK
6
CONTINUOUS
10
193.525
20
-39.8133
11
197.625
21
-39.8133
0
LINE
8
BLACK
6
CONTINUOUS
10
207.137
20
-36.6033
11
204.597
21
-36.6033
0
LINE
8
BLACK
6
CONTINUOUS
10
191.643
20
-36.6033
11
191.643
21
-39.1433
0
LINE
8
BLACK
6
CONTINUOUS
10
199.625
20
-37.8133
11
205.325
21
-37.8133
0
LINE
8
BLACK
6
CONTINUOUS
10
204.597
20
-34.0633
11
207.137
21
-34.0633
0
LINE
8
BLACK
6
CONTINUOUS
10
193.525
20
-35.9133
11
193.525
21
-39.8133
0
LINE
8
BLACK
6
CONTINUOUS
10
205.325
20
-33.4133
11
196.025
21
-33.4133
0
LINE
8
BLACK
6
CONTINUOUS
10
204.597
20
-36.6033
11
204.597
21
-34.0633
0
ARC
8
BLACK
10
196.025
20
-35.9133
40
2.5
50
90
51
180
0
ARC
8
BLACK
10
199.625
20
-39.8133
40
2
50
-270
51
-180
0
CIRCLE
8
BLACK
10
202.565
20
-35.3333
40
1.524
0
CIRCLE
8
BLACK
10
196.215
20
-37.8733
40
1.524
0
LINE
8
BLACK
6
CONTINUOUS
10
222.1
20
0.6
11
226.2
21
0.6
0
LINE
8
BLACK
6
CONTINUOUS
10
228.2
20
2.6
11
233.9
21
2.6
0
LINE
8
BLACK
6
CONTINUOUS
10
235.712
20
3.81
11
233.172
21
3.81
0
LINE
8
BLACK
6
CONTINUOUS
10
235.712
20
6.35
11
235.712
21
3.81
0
LINE
8
BLACK
6
CONTINUOUS
10
220.218
20
3.81
11
220.218
21
1.27
0
LINE
8
BLACK
6
CONTINUOUS
10
220.218
20
1.27
11
222.758
21
1.27
0
LINE
8
BLACK
6
CONTINUOUS
10
233.9
20
7
11
233.9
21
2.6
0
LINE
8
BLACK
6
CONTINUOUS
10
222.1
20
4.5
11
222.1
21
0.6
0
LINE
8
BLACK
6
CONTINUOUS
10
233.9
20
7
11
224.6
21
7
0
LINE
8
BLACK
6
CONTINUOUS
10
233.172
20
6.35
11
235.712
21
6.35
0
LINE
8
BLACK
6
CONTINUOUS
10
233.172
20
3.81
11
233.172
21
6.35
0
LINE
8
BLACK
6
CONTINUOUS
10
222.758
20
3.81
11
220.218
21
3.81
0
LINE
8
BLACK
6
CONTINUOUS
10
222.758
20
1.27
11
222.758
21
3.81
0
ARC
8
BLACK
10
228.2
20
0.600001
40
2
50
-270
51
-180
0
ARC
8
BLACK
10
224.6
20
4.5
40
2.5
50
90
51
180
0
CIRCLE
8
BLACK
10
231.14
20
5.08
40
1.524
0
CIRCLE
8
BLACK
10
224.79
20
2.54
40
1.524
0
LINE
8
BLACK
6
CONTINUOUS
10
70.358
20
1.27
11
70.358
21
3.81
0
LINE
8
BLACK
6
CONTINUOUS
10
75.8
20
2.6
11
81.5
21
2.6
0
LINE
8
BLACK
6
CONTINUOUS
10
83.312
20
6.35
11
83.312
21
3.81
0
LINE
8
BLACK
6
CONTINUOUS
10
69.7
20
4.5
11
69.7
21
0.6
0
LINE
8
BLACK
6
CONTINUOUS
10
81.5
20
7
11
81.5
21
2.6
0
LINE
8
BLACK
6
CONTINUOUS
10
80.772
20
3.81
11
80.772
21
6.35
0
LINE
8
BLACK
6
CONTINUOUS
10
70.358
20
3.81
11
67.818
21
3.81
0
LINE
8
BLACK
6
CONTINUOUS
10
69.7
20
0.6
11
73.8
21
0.6
0
LINE
8
BLACK
6
CONTINUOUS
10
67.818
20
3.81
11
67.818
21
1.27
0
LINE
8
BLACK
6
CONTINUOUS
10
81.5
20
7
11
72.2
21
7
0
LINE
8
BLACK
6
CONTINUOUS
10
83.312
20
3.81
11
80.772
21
3.81
0
LINE
8
BLACK
6
CONTINUOUS
10
80.772
20
6.35
11
83.312
21
6.35
0
LINE
8
BLACK
6
CONTINUOUS
10
67.818
20
1.27
11
70.358
21
1.27
0
ARC
8
BLACK
10
75.8
20
0.600001
40
2
50
-270
51
-180
0
ARC
8
BLACK
10
72.2
20
4.5
40
2.5
50
90
51
180
0
CIRCLE
8
BLACK
10
72.39
20
2.54
40
1.524
0
CIRCLE
8
BLACK
10
78.74
20
5.08
40
1.524
0
LINE
8
BLACK
6
CONTINUOUS
10
301.418
20
3.81
11
301.418
21
1.27
0
LINE
8
BLACK
6
CONTINUOUS
10
303.958
20
3.81
11
301.418
21
3.81
0
LINE
8
BLACK
6
CONTINUOUS
10
316.912
20
6.35
11
316.912
21
3.81
0
LINE
8
BLACK
6
CONTINUOUS
10
309.4
20
2.6
11
315.1
21
2.6
0
LINE
8
BLACK
6
CONTINUOUS
10
303.958
20
1.27
11
303.958
21
3.81
0
LINE
8
BLACK
6
CONTINUOUS
10
315.1
20
7
11
315.1
21
2.6
0
LINE
8
BLACK
6
CONTINUOUS
10
316.912
20
3.81
11
314.372
21
3.81
0
LINE
8
BLACK
6
CONTINUOUS
10
303.3
20
4.5
11
303.3
21
0.6
0
LINE
8
BLACK
6
CONTINUOUS
10
303.3
20
0.6
11
307.4
21
0.6
0
LINE
8
BLACK
6
CONTINUOUS
10
315.1
20
7
11
305.8
21
7
0
LINE
8
BLACK
6
CONTINUOUS
10
314.372
20
3.81
11
314.372
21
6.35
0
LINE
8
BLACK
6
CONTINUOUS
10
314.372
20
6.35
11
316.912
21
6.35
0
LINE
8
BLACK
6
CONTINUOUS
10
301.418
20
1.27
11
303.958
21
1.27
0
ARC
8
BLACK
10
305.8
20
4.5
40
2.5
50
90
51
180
0
ARC
8
BLACK
10
309.4
20
0.600001
40
2
50
-270
51
-180
0
CIRCLE
8
BLACK
10
305.99
20
2.54
40
1.524
0
CIRCLE
8
BLACK
10
312.34
20
5.08
40
1.524
0
LINE
8
BLACK
6
CONTINUOUS
10
288.505
20
-72.3353
11
287.997
21
-72.3353
0
LINE
8
BLACK
6
CONTINUOUS
10
291.807
20
-72.3353
11
292.315
21
-72.3353
0
LINE
8
BLACK
6
CONTINUOUS
10
287.235
20
-72.3353
11
286.727
21
-72.3353
0
LINE
8
BLACK
6
CONTINUOUS
10
290.537
20
-72.3353
11
291.045
21
-72.3353
0
LINE
8
BLACK
6
CONTINUOUS
10
289.775
20
-72.3353
11
289.267
21
-72.3353
0
LINE
8
BLACK
6
CONTINUOUS
10
164.274
20
-76.8253
11
161.734
21
-76.8253
0
LINE
8
BLACK
6
CONTINUOUS
10
148.78
20
-76.8253
11
148.78
21
-79.3653
0
LINE
8
BLACK
6
CONTINUOUS
10
161.734
20
-76.8253
11
161.734
21
-74.2853
0
LINE
8
BLACK
6
CONTINUOUS
10
162.463
20
-73.6353
11
153.162
21
-73.6353
0
LINE
8
BLACK
6
CONTINUOUS
10
161.734
20
-74.2853
11
164.274
21
-74.2853
0
LINE
8
BLACK
6
CONTINUOUS
10
150.662
20
-76.1353
11
150.662
21
-80.0353
0
LINE
8
BLACK
6
CONTINUOUS
10
148.78
20
-79.3653
11
151.32
21
-79.3653
0
LINE
8
BLACK
6
CONTINUOUS
10
162.463
20
-73.6353
11
162.463
21
-78.0353
0
LINE
8
BLACK
6
CONTINUOUS
10
151.32
20
-79.3653
11
151.32
21
-76.8253
0
LINE
8
BLACK
6
CONTINUOUS
10
151.32
20
-76.8253
11
148.78
21
-76.8253
0
LINE
8
BLACK
6
CONTINUOUS
10
156.762
20
-78.0353
11
162.463
21
-78.0353
0
LINE
8
BLACK
6
CONTINUOUS
10
150.662
20
-80.0353
11
154.762
21
-80.0353
0
LINE
8
BLACK
6
CONTINUOUS
10
164.274
20
-74.2853
11
164.274
21
-76.8253
0
ARC
8
BLACK
10
156.762
20
-80.0353
40
2
50
-270
51
-180
0
ARC
8
BLACK
10
153.162
20
-76.1353
40
2.5
50
90
51
180
0
CIRCLE
8
BLACK
10
159.702
20
-75.5553
40
1.524
0
CIRCLE
8
BLACK
10
153.352
20
-78.0953
40
1.524
0
LINE
8
BLACK
6
CONTINUOUS
10
247.25
20
2.6
11
252.95
21
2.6
0
LINE
8
BLACK
6
CONTINUOUS
10
252.95
20
7
11
243.65
21
7
0
LINE
8
BLACK
6
CONTINUOUS
10
241.15
20
0.6
11
245.25
21
0.6
0
LINE
8
BLACK
6
CONTINUOUS
10
239.268
20
3.81
11
239.268
21
1.27
0
LINE
8
BLACK
6
CONTINUOUS
10
241.15
20
4.5
11
241.15
21
0.6
0
LINE
8
BLACK
6
CONTINUOUS
10
239.268
20
1.27
11
241.808
21
1.27
0
LINE
8
BLACK
6
CONTINUOUS
10
254.762
20
6.35
11
254.762
21
3.81
0
LINE
8
BLACK
6
CONTINUOUS
10
252.222
20
3.81
11
252.222
21
6.35
0
LINE
8
BLACK
6
CONTINUOUS
10
241.808
20
3.81
11
239.268
21
3.81
0
LINE
8
BLACK
6
CONTINUOUS
10
241.808
20
1.27
11
241.808
21
3.81
0
LINE
8
BLACK
6
CONTINUOUS
10
254.762
20
3.81
11
252.222
21
3.81
0
LINE
8
BLACK
6
CONTINUOUS
10
252.222
20
6.35
11
254.762
21
6.35
0
LINE
8
BLACK
6
CONTINUOUS
10
252.95
20
7
11
252.95
21
2.6
0
ARC
8
BLACK
10
243.65
20
4.5
40
2.5
50
90
51
180
0
ARC
8
BLACK
10
247.25
20
0.600001
40
2
50
-270
51
-180
0
CIRCLE
8
BLACK
10
243.84
20
2.54
40
1.524
0
CIRCLE
8
BLACK
10
250.19
20
5.08
40
1.524
0
LINE
8
BLACK
6
CONTINUOUS
10
203.05
20
0.6
11
207.15
21
0.6
0
LINE
8
BLACK
6
CONTINUOUS
10
214.85
20
7
11
205.55
21
7
0
LINE
8
BLACK
6
CONTINUOUS
10
201.168
20
3.81
11
201.168
21
1.27
0
LINE
8
BLACK
6
CONTINUOUS
10
216.662
20
3.81
11
214.122
21
3.81
0
LINE
8
BLACK
6
CONTINUOUS
10
203.708
20
1.27
11
203.708
21
3.81
0
LINE
8
BLACK
6
CONTINUOUS
10
203.05
20
4.5
11
203.05
21
0.6
0
LINE
8
BLACK
6
CONTINUOUS
10
214.122
20
6.35
11
216.662
21
6.35
0
LINE
8
BLACK
6
CONTINUOUS
10
203.708
20
3.81
11
201.168
21
3.81
0
LINE
8
BLACK
6
CONTINUOUS
10
209.15
20
2.6
11
214.85
21
2.6
0
LINE
8
BLACK
6
CONTINUOUS
10
214.85
20
7
11
214.85
21
2.6
0
LINE
8
BLACK
6
CONTINUOUS
10
216.662
20
6.35
11
216.662
21
3.81
0
LINE
8
BLACK
6
CONTINUOUS
10
214.122
20
3.81
11
214.122
21
6.35
0
LINE
8
BLACK
6
CONTINUOUS
10
201.168
20
1.27
11
203.708
21
1.27
0
ARC
8
BLACK
10
205.55
20
4.5
40
2.5
50
90
51
180
0
ARC
8
BLACK
10
209.15
20
0.600001
40
2
50
-270
51
-180
0
CIRCLE
8
BLACK
10
212.09
20
5.08
40
1.524
0
CIRCLE
8
BLACK
10
205.74
20
2.54
40
1.524
0
LINE
8
BLACK
6
CONTINUOUS
10
-6.5
20
4.5
11
-6.5
21
0.6
0
LINE
8
BLACK
6
CONTINUOUS
10
7.112
20
3.81
11
4.572
21
3.81
0
LINE
8
BLACK
6
CONTINUOUS
10
-0.4
20
2.6
11
5.3
21
2.6
0
LINE
8
BLACK
6
CONTINUOUS
10
-5.842
20
3.81
11
-8.382
21
3.81
0
LINE
8
BLACK
6
CONTINUOUS
10
7.112
20
6.35
11
7.112
21
3.81
0
LINE
8
BLACK
6
CONTINUOUS
10
-5.842
20
1.27
11
-5.842
21
3.81
0
LINE
8
BLACK
6
CONTINUOUS
10
5.3
20
7
11
5.3
21
2.6
0
LINE
8
BLACK
6
CONTINUOUS
10
-8.382
20
1.27
11
-5.842
21
1.27
0
LINE
8
BLACK
6
CONTINUOUS
10
-8.382
20
3.81
11
-8.382
21
1.27
0
LINE
8
BLACK
6
CONTINUOUS
10
4.572
20
6.35
11
7.112
21
6.35
0
LINE
8
BLACK
6
CONTINUOUS
10
5.3
20
7
11
-4
21
7
0
LINE
8
BLACK
6
CONTINUOUS
10
-6.5
20
0.6
11
-2.4
21
0.6
0
LINE
8
BLACK
6
CONTINUOUS
10
4.572
20
3.81
11
4.572
21
6.35
0
ARC
8
BLACK
10
-0.400001
20
0.600001
40
2
50
-270
51
-180
0
ARC
8
BLACK
10
-4
20
4.5
40
2.5
50
90
51
180
0
CIRCLE
8
BLACK
10
-3.81
20
2.54
40
1.524
0
CIRCLE
8
BLACK
10
2.54
20
5.08
40
1.524
0
LINE
8
BLACK
6
CONTINUOUS
10
155.425
20
0.6
11
159.525
21
0.6
0
LINE
8
BLACK
6
CONTINUOUS
10
169.037
20
3.81
11
166.497
21
3.81
0
LINE
8
BLACK
6
CONTINUOUS
10
169.037
20
6.35
11
169.037
21
3.81
0
LINE
8
BLACK
6
CONTINUOUS
10
156.083
20
3.81
11
153.543
21
3.81
0
LINE
8
BLACK
6
CONTINUOUS
10
156.083
20
1.27
11
156.083
21
3.81
0
LINE
8
BLACK
6
CONTINUOUS
10
167.225
20
7
11
157.925
21
7
0
LINE
8
BLACK
6
CONTINUOUS
10
161.525
20
2.6
11
167.225
21
2.6
0
LINE
8
BLACK
6
CONTINUOUS
10
166.497
20
3.81
11
166.497
21
6.35
0
LINE
8
BLACK
6
CONTINUOUS
10
155.425
20
4.5
11
155.425
21
0.6
0
LINE
8
BLACK
6
CONTINUOUS
10
153.543
20
3.81
11
153.543
21
1.27
0
LINE
8
BLACK
6
CONTINUOUS
10
166.497
20
6.35
11
169.037
21
6.35
0
LINE
8
BLACK
6
CONTINUOUS
10
167.225
20
7
11
167.225
21
2.6
0
LINE
8
BLACK
6
CONTINUOUS
10
153.543
20
1.27
11
156.083
21
1.27
0
ARC
8
BLACK
10
157.925
20
4.5
40
2.5
50
90
51
180
0
ARC
8
BLACK
10
161.525
20
0.600001
40
2
50
-270
51
-180
0
CIRCLE
8
BLACK
10
158.115
20
2.54
40
1.524
0
CIRCLE
8
BLACK
10
164.465
20
5.08
40
1.524
0
LINE
8
BLACK
6
CONTINUOUS
10
159.512
20
-15.975
11
156.972
21
-15.975
0
LINE
8
BLACK
6
CONTINUOUS
10
156.972
20
-15.975
11
156.972
21
-13.435
0
LINE
8
BLACK
6
CONTINUOUS
10
152
20
-17.185
11
157.7
21
-17.185
0
LINE
8
BLACK
6
CONTINUOUS
10
157.7
20
-12.785
11
157.7
21
-17.185
0
LINE
8
BLACK
6
CONTINUOUS
10
146.558
20
-18.515
11
146.558
21
-15.975
0
LINE
8
BLACK
6
CONTINUOUS
10
146.558
20
-15.975
11
144.018
21
-15.975
0
LINE
8
BLACK
6
CONTINUOUS
10
157.7
20
-12.785
11
148.4
21
-12.785
0
LINE
8
BLACK
6
CONTINUOUS
10
144.018
20
-15.975
11
144.018
21
-18.515
0
LINE
8
BLACK
6
CONTINUOUS
10
156.972
20
-13.435
11
159.512
21
-13.435
0
LINE
8
BLACK
6
CONTINUOUS
10
144.018
20
-18.515
11
146.558
21
-18.515
0
LINE
8
BLACK
6
CONTINUOUS
10
145.9
20
-15.285
11
145.9
21
-19.185
0
LINE
8
BLACK
6
CONTINUOUS
10
145.9
20
-19.185
11
150
21
-19.185
0
LINE
8
BLACK
6
CONTINUOUS
10
159.512
20
-13.435
11
159.512
21
-15.975
0
ARC
8
BLACK
10
148.4
20
-15.285
40
2.5
50
90
51
180
0
ARC
8
BLACK
10
152
20
-19.185
40
2
50
-270
51
-180
0
CIRCLE
8
BLACK
10
154.94
20
-14.705
40
1.524
0
CIRCLE
8
BLACK
10
148.59
20
-17.245
40
1.524
0
LINE
8
BLACK
6
CONTINUOUS
10
118.872
20
-13.435
11
121.412
21
-13.435
0
LINE
8
BLACK
6
CONTINUOUS
10
119.6
20
-12.785
11
119.6
21
-17.185
0
LINE
8
BLACK
6
CONTINUOUS
10
107.8
20
-19.185
11
111.9
21
-19.185
0
LINE
8
BLACK
6
CONTINUOUS
10
105.918
20
-18.515
11
108.458
21
-18.515
0
LINE
8
BLACK
6
CONTINUOUS
10
105.918
20
-15.975
11
105.918
21
-18.515
0
LINE
8
BLACK
6
CONTINUOUS
10
108.458
20
-18.515
11
108.458
21
-15.975
0
LINE
8
BLACK
6
CONTINUOUS
10
121.412
20
-13.435
11
121.412
21
-15.975
0
LINE
8
BLACK
6
CONTINUOUS
10
121.412
20
-15.975
11
118.872
21
-15.975
0
LINE
8
BLACK
6
CONTINUOUS
10
108.458
20
-15.975
11
105.918
21
-15.975
0
LINE
8
BLACK
6
CONTINUOUS
10
119.6
20
-12.785
11
110.3
21
-12.785
0
LINE
8
BLACK
6
CONTINUOUS
10
113.9
20
-17.185
11
119.6
21
-17.185
0
LINE
8
BLACK
6
CONTINUOUS
10
107.8
20
-15.285
11
107.8
21
-19.185
0
LINE
8
BLACK
6
CONTINUOUS
10
118.872
20
-15.975
11
118.872
21
-13.435
0
ARC
8
BLACK
10
110.3
20
-15.285
40
2.5
50
90
51
180
0
ARC
8
BLACK
10
113.9
20
-19.185
40
2
50
-270
51
-180
0
CIRCLE
8
BLACK
10
110.49
20
-17.245
40
1.524
0
CIRCLE
8
BLACK
10
116.84
20
-14.705
40
1.524
0
LINE
8
BLACK
6
CONTINUOUS
10
335.962
20
-94.8353
11
335.962
21
-97.3753
0
LINE
8
BLACK
6
CONTINUOUS
10
328.45
20
-98.5853
11
334.15
21
-98.5853
0
LINE
8
BLACK
6
CONTINUOUS
10
322.35
20
-96.6853
11
322.35
21
-100.585
0
LINE
8
BLACK
6
CONTINUOUS
10
320.468
20
-99.9153
11
323.008
21
-99.9153
0
LINE
8
BLACK
6
CONTINUOUS
10
323.008
20
-97.3753
11
320.468
21
-97.3753
0
LINE
8
BLACK
6
CONTINUOUS
10
320.468
20
-97.3753
11
320.468
21
-99.9153
0
LINE
8
BLACK
6
CONTINUOUS
10
335.962
20
-97.3753
11
333.422
21
-97.3753
0
LINE
8
BLACK
6
CONTINUOUS
10
334.15
20
-94.1853
11
334.15
21
-98.5853
0
LINE
8
BLACK
6
CONTINUOUS
10
322.35
20
-100.585
11
326.45
21
-100.585
0
LINE
8
BLACK
6
CONTINUOUS
10
333.422
20
-97.3753
11
333.422
21
-94.8353
0
LINE
8
BLACK
6
CONTINUOUS
10
334.15
20
-94.1853
11
324.85
21
-94.1853
0
LINE
8
BLACK
6
CONTINUOUS
10
333.422
20
-94.8353
11
335.962
21
-94.8353
0
LINE
8
BLACK
6
CONTINUOUS
10
323.008
20
-99.9153
11
323.008
21
-97.3753
0
ARC
8
BLACK
10
328.45
20
-100.585
40
2
50
-270
51
-180
0
ARC
8
BLACK
10
324.85
20
-96.6853
40
2.5
50
90
51
180
0
CIRCLE
8
BLACK
10
331.39
20
-96.1053
40
1.524
0
CIRCLE
8
BLACK
10
325.04
20
-98.6453
40
1.524
0
LINE
8
BLACK
6
CONTINUOUS
10
228.668
20
22.509
11
228.668
21
22.001
0
LINE
8
BLACK
6
CONTINUOUS
10
228.668
20
24.541
11
228.668
21
25.049
0
LINE
8
BLACK
6
CONTINUOUS
10
228.668
20
23.779
11
228.668
21
23.271
0
LINE
8
BLACK
6
CONTINUOUS
10
228.668
20
25.811
11
228.668
21
26.319
0
LINE
8
BLACK
6
CONTINUOUS
10
228.668
20
21.239
11
228.668
21
20.731
0
LINE
8
BLACK
6
CONTINUOUS
10
178.562
20
-15.975
11
176.022
21
-15.975
0
LINE
8
BLACK
6
CONTINUOUS
10
176.022
20
-15.975
11
176.022
21
-13.435
0
LINE
8
BLACK
6
CONTINUOUS
10
171.05
20
-17.185
11
176.75
21
-17.185
0
LINE
8
BLACK
6
CONTINUOUS
10
176.75
20
-12.785
11
167.45
21
-12.785
0
LINE
8
BLACK
6
CONTINUOUS
10
165.608
20
-15.975
11
163.068
21
-15.975
0
LINE
8
BLACK
6
CONTINUOUS
10
163.068
20
-18.515
11
165.608
21
-18.515
0
LINE
8
BLACK
6
CONTINUOUS
10
164.95
20
-15.285
11
164.95
21
-19.185
0
LINE
8
BLACK
6
CONTINUOUS
10
164.95
20
-19.185
11
169.05
21
-19.185
0
LINE
8
BLACK
6
CONTINUOUS
10
176.022
20
-13.435
11
178.562
21
-13.435
0
LINE
8
BLACK
6
CONTINUOUS
10
176.75
20
-12.785
11
176.75
21
-17.185
0
LINE
8
BLACK
6
CONTINUOUS
10
163.068
20
-15.975
11
163.068
21
-18.515
0
LINE
8
BLACK
6
CONTINUOUS
10
165.608
20
-18.515
11
165.608
21
-15.975
0
LINE
8
BLACK
6
CONTINUOUS
10
178.562
20
-13.435
11
178.562
21
-15.975
0
ARC
8
BLACK
10
167.45
20
-15.285
40
2.5
50
90
51
180
0
ARC
8
BLACK
10
171.05
20
-19.185
40
2
50
-270
51
-180
0
CIRCLE
8
BLACK
10
167.64
20
-17.245
40
1.524
0
CIRCLE
8
BLACK
10
173.99
20
-14.705
40
1.524
0
LINE
8
BLACK
6
CONTINUOUS
10
19.0182
20
-74.2853
11
19.0182
21
-76.8253
0
LINE
8
BLACK
6
CONTINUOUS
10
6.06425
20
-76.8253
11
6.06425
21
-79.3653
0
LINE
8
BLACK
6
CONTINUOUS
10
17.2063
20
-73.6353
11
7.90625
21
-73.6353
0
LINE
8
BLACK
6
CONTINUOUS
10
5.40625
20
-80.0353
11
9.50625
21
-80.0353
0
LINE
8
BLACK
6
CONTINUOUS
10
11.5062
20
-78.0353
11
17.2063
21
-78.0353
0
LINE
8
BLACK
6
CONTINUOUS
10
5.40625
20
-76.1353
11
5.40625
21
-80.0353
0
LINE
8
BLACK
6
CONTINUOUS
10
19.0182
20
-76.8253
11
16.4782
21
-76.8253
0
LINE
8
BLACK
6
CONTINUOUS
10
16.4782
20
-76.8253
11
16.4782
21
-74.2853
0
LINE
8
BLACK
6
CONTINUOUS
10
17.2063
20
-73.6353
11
17.2063
21
-78.0353
0
LINE
8
BLACK
6
CONTINUOUS
10
3.52425
20
-76.8253
11
6.06425
21
-76.8253
0
LINE
8
BLACK
6
CONTINUOUS
10
3.52425
20
-79.3653
11
3.52425
21
-76.8253
0
LINE
8
BLACK
6
CONTINUOUS
10
16.4782
20
-74.2853
11
19.0182
21
-74.2853
0
LINE
8
BLACK
6
CONTINUOUS
10
6.06425
20
-79.3653
11
3.52425
21
-79.3653
0
ARC
8
BLACK
10
11.5062
20
-80.0353
40
2
50
-270
51
-180
0
ARC
8
BLACK
10
7.90625
20
-76.1353
40
2.5
50
90
51
180
0
CIRCLE
8
BLACK
10
8.09625
20
-78.0953
40
1.524
0
CIRCLE
8
BLACK
10
14.4462
20
-75.5553
40
1.524
0
LINE
8
BLACK
6
CONTINUOUS
10
254.394
20
-57.5983
11
260.094
21
-57.5983
0
LINE
8
BLACK
6
CONTINUOUS
10
248.294
20
-59.5983
11
252.394
21
-59.5983
0
LINE
8
BLACK
6
CONTINUOUS
10
260.094
20
-53.1983
11
250.794
21
-53.1983
0
LINE
8
BLACK
6
CONTINUOUS
10
259.366
20
-56.3883
11
259.366
21
-53.8483
0
LINE
8
BLACK
6
CONTINUOUS
10
261.906
20
-53.8483
11
261.906
21
-56.3883
0
LINE
8
BLACK
6
CONTINUOUS
10
246.412
20
-58.9283
11
246.412
21
-56.3883
0
LINE
8
BLACK
6
CONTINUOUS
10
259.366
20
-53.8483
11
261.906
21
-53.8483
0
LINE
8
BLACK
6
CONTINUOUS
10
260.094
20
-53.1983
11
260.094
21
-57.5983
0
LINE
8
BLACK
6
CONTINUOUS
10
261.906
20
-56.3883
11
259.366
21
-56.3883
0
LINE
8
BLACK
6
CONTINUOUS
10
248.952
20
-56.3883
11
248.952
21
-58.9283
0
LINE
8
BLACK
6
CONTINUOUS
10
248.952
20
-58.9283
11
246.412
21
-58.9283
0
LINE
8
BLACK
6
CONTINUOUS
10
246.412
20
-56.3883
11
248.952
21
-56.3883
0
LINE
8
BLACK
6
CONTINUOUS
10
248.294
20
-55.6983
11
248.294
21
-59.5983
0
ARC
8
BLACK
10
254.394
20
-59.5983
40
2
50
-270
51
-180
0
ARC
8
BLACK
10
250.794
20
-55.6983
40
2.5
50
90
51
180
0
CIRCLE
8
BLACK
10
250.984
20
-57.6583
40
1.524
0
CIRCLE
8
BLACK
10
257.334
20
-55.1183
40
1.524
0
LINE
8
BLACK
6
CONTINUOUS
10
334.15
20
-33.4133
11
334.15
21
-37.8133
0
LINE
8
BLACK
6
CONTINUOUS
10
322.35
20
-35.9133
11
322.35
21
-39.8133
0
LINE
8
BLACK
6
CONTINUOUS
10
322.35
20
-39.8133
11
326.45
21
-39.8133
0
LINE
8
BLACK
6
CONTINUOUS
10
323.008
20
-36.6033
11
320.468
21
-36.6033
0
LINE
8
BLACK
6
CONTINUOUS
10
334.15
20
-33.4133
11
324.85
21
-33.4133
0
LINE
8
BLACK
6
CONTINUOUS
10
333.422
20
-36.6033
11
333.422
21
-34.0633
0
LINE
8
BLACK
6
CONTINUOUS
10
333.422
20
-34.0633
11
335.962
21
-34.0633
0
LINE
8
BLACK
6
CONTINUOUS
10
323.008
20
-39.1433
11
323.008
21
-36.6033
0
LINE
8
BLACK
6
CONTINUOUS
10
335.962
20
-34.0633
11
335.962
21
-36.6033
0
LINE
8
BLACK
6
CONTINUOUS
10
335.962
20
-36.6033
11
333.422
21
-36.6033
0
LINE
8
BLACK
6
CONTINUOUS
10
320.468
20
-39.1433
11
323.008
21
-39.1433
0
LINE
8
BLACK
6
CONTINUOUS
10
328.45
20
-37.8133
11
334.15
21
-37.8133
0
LINE
8
BLACK
6
CONTINUOUS
10
320.468
20
-36.6033
11
320.468
21
-39.1433
0
ARC
8
BLACK
10
324.85
20
-35.9133
40
2.5
50
90
51
180
0
ARC
8
BLACK
10
328.45
20
-39.8133
40
2
50
-270
51
-180
0
CIRCLE
8
BLACK
10
325.04
20
-37.8733
40
1.524
0
CIRCLE
8
BLACK
10
331.39
20
-35.3333
40
1.524
0
LINE
8
BLACK
6
CONTINUOUS
10
183.325
20
-74.2853
11
183.325
21
-76.8253
0
LINE
8
BLACK
6
CONTINUOUS
10
170.37
20
-79.3653
11
170.37
21
-76.8253
0
LINE
8
BLACK
6
CONTINUOUS
10
167.831
20
-76.8253
11
167.831
21
-79.3653
0
LINE
8
BLACK
6
CONTINUOUS
10
175.812
20
-78.0353
11
181.512
21
-78.0353
0
LINE
8
BLACK
6
CONTINUOUS
10
169.713
20
-80.0353
11
173.812
21
-80.0353
0
LINE
8
BLACK
6
CONTINUOUS
10
180.784
20
-74.2853
11
183.325
21
-74.2853
0
LINE
8
BLACK
6
CONTINUOUS
10
181.512
20
-73.6353
11
181.512
21
-78.0353
0
LINE
8
BLACK
6
CONTINUOUS
10
183.325
20
-76.8253
11
180.784
21
-76.8253
0
LINE
8
BLACK
6
CONTINUOUS
10
180.784
20
-76.8253
11
180.784
21
-74.2853
0
LINE
8
BLACK
6
CONTINUOUS
10
170.37
20
-76.8253
11
167.831
21
-76.8253
0
LINE
8
BLACK
6
CONTINUOUS
10
181.512
20
-73.6353
11
172.213
21
-73.6353
0
LINE
8
BLACK
6
CONTINUOUS
10
169.713
20
-76.1353
11
169.713
21
-80.0353
0
LINE
8
BLACK
6
CONTINUOUS
10
167.831
20
-79.3653
11
170.37
21
-79.3653
0
ARC
8
BLACK
10
175.812
20
-80.0353
40
2
50
-270
51
-180
0
ARC
8
BLACK
10
172.213
20
-76.1353
40
2.5
50
90
51
180
0
CIRCLE
8
BLACK
10
172.403
20
-78.0953
40
1.524
0
CIRCLE
8
BLACK
10
178.752
20
-75.5553
40
1.524
0
LINE
8
BLACK
6
CONTINUOUS
10
59.4995
20
-53.8483
11
59.4995
21
-56.3883
0
LINE
8
BLACK
6
CONTINUOUS
10
51.9875
20
-57.5983
11
57.6875
21
-57.5983
0
LINE
8
BLACK
6
CONTINUOUS
10
57.6875
20
-53.1983
11
57.6875
21
-57.5983
0
LINE
8
BLACK
6
CONTINUOUS
10
46.5455
20
-58.9283
11
46.5455
21
-56.3883
0
LINE
8
BLACK
6
CONTINUOUS
10
57.6875
20
-53.1983
11
48.3875
21
-53.1983
0
LINE
8
BLACK
6
CONTINUOUS
10
56.9595
20
-53.8483
11
59.4995
21
-53.8483
0
LINE
8
BLACK
6
CONTINUOUS
10
45.8875
20
-59.5983
11
49.9875
21
-59.5983
0
LINE
8
BLACK
6
CONTINUOUS
10
44.0055
20
-58.9283
11
46.5455
21
-58.9283
0
LINE
8
BLACK
6
CONTINUOUS
10
44.0055
20
-56.3883
11
44.0055
21
-58.9283
0
LINE
8
BLACK
6
CONTINUOUS
10
59.4995
20
-56.3883
11
56.9595
21
-56.3883
0
LINE
8
BLACK
6
CONTINUOUS
10
45.8875
20
-55.6983
11
45.8875
21
-59.5983
0
LINE
8
BLACK
6
CONTINUOUS
10
56.9595
20
-56.3883
11
56.9595
21
-53.8483
0
LINE
8
BLACK
6
CONTINUOUS
10
46.5455
20
-56.3883
11
44.0055
21
-56.3883
0
ARC
8
BLACK
10
51.9875
20
-59.5983
40
2
50
-270
51
-180
0
ARC
8
BLACK
10
48.3875
20
-55.6983
40
2.5
50
90
51
180
0
CIRCLE
8
BLACK
10
54.9275
20
-55.1183
40
1.524
0
CIRCLE
8
BLACK
10
48.5775
20
-57.6583
40
1.524
0
LINE
8
BLACK
6
CONTINUOUS
10
-4.1
20
-55.6858
11
-4.1
21
-59.5858
0
LINE
8
BLACK
6
CONTINUOUS
10
-3.442
20
-58.9158
11
-5.982
21
-58.9158
0
LINE
8
BLACK
6
CONTINUOUS
10
7.7
20
-53.1858
11
-1.6
21
-53.1858
0
LINE
8
BLACK
6
CONTINUOUS
10
-3.442
20
-56.3758
11
-3.442
21
-58.9158
0
LINE
8
BLACK
6
CONTINUOUS
10
-5.982
20
-56.3758
11
-3.442
21
-56.3758
0
LINE
8
BLACK
6
CONTINUOUS
10
2
20
-57.5858
11
7.7
21
-57.5858
0
LINE
8
BLACK
6
CONTINUOUS
10
-5.982
20
-58.9158
11
-5.982
21
-56.3758
0
LINE
8
BLACK
6
CONTINUOUS
10
9.512
20
-53.8358
11
9.512
21
-56.3758
0
LINE
8
BLACK
6
CONTINUOUS
10
6.972
20
-56.3758
11
6.972
21
-53.8358
0
LINE
8
BLACK
6
CONTINUOUS
10
6.972
20
-53.8358
11
9.512
21
-53.8358
0
LINE
8
BLACK
6
CONTINUOUS
10
-4.1
20
-59.5858
11
0
21
-59.5858
0
LINE
8
BLACK
6
CONTINUOUS
10
7.7
20
-53.1858
11
7.7
21
-57.5858
0
LINE
8
BLACK
6
CONTINUOUS
10
9.512
20
-56.3758
11
6.972
21
-56.3758
0
ARC
8
BLACK
10
-1.6
20
-55.6858
40
2.5
50
90
51
180
0
ARC
8
BLACK
10
2
20
-59.5858
40
2
50
-270
51
-180
0
CIRCLE
8
BLACK
10
4.94
20
-55.1058
40
1.524
0
CIRCLE
8
BLACK
10
-1.41
20
-57.6458
40
1.524
0
LINE
8
BLACK
6
CONTINUOUS
10
-21.525
20
-18.769
11
-21.525
21
-18.261
0
LINE
8
BLACK
6
CONTINUOUS
10
-21.525
20
-20.801
11
-21.525
21
-21.309
0
LINE
8
BLACK
6
CONTINUOUS
10
-21.525
20
-19.531
11
-21.525
21
-20.039
0
LINE
8
BLACK
6
CONTINUOUS
10
-21.525
20
-17.499
11
-21.525
21
-16.991
0
LINE
8
BLACK
6
CONTINUOUS
10
-21.525
20
-22.071
11
-21.525
21
-22.579
0
LINE
8
BLACK
6
CONTINUOUS
10
103.037
20
-59.5983
11
107.137
21
-59.5983
0
LINE
8
BLACK
6
CONTINUOUS
10
103.695
20
-56.3883
11
101.155
21
-56.3883
0
LINE
8
BLACK
6
CONTINUOUS
10
103.037
20
-55.6983
11
103.037
21
-59.5983
0
LINE
8
BLACK
6
CONTINUOUS
10
116.649
20
-53.8483
11
116.649
21
-56.3883
0
LINE
8
BLACK
6
CONTINUOUS
10
114.109
20
-56.3883
11
114.109
21
-53.8483
0
LINE
8
BLACK
6
CONTINUOUS
10
114.837
20
-53.1983
11
114.837
21
-57.5983
0
LINE
8
BLACK
6
CONTINUOUS
10
114.109
20
-53.8483
11
116.649
21
-53.8483
0
LINE
8
BLACK
6
CONTINUOUS
10
116.649
20
-56.3883
11
114.109
21
-56.3883
0
LINE
8
BLACK
6
CONTINUOUS
10
114.837
20
-53.1983
11
105.537
21
-53.1983
0
LINE
8
BLACK
6
CONTINUOUS
10
103.695
20
-58.9283
11
103.695
21
-56.3883
0
LINE
8
BLACK
6
CONTINUOUS
10
101.155
20
-58.9283
11
103.695
21
-58.9283
0
LINE
8
BLACK
6
CONTINUOUS
10
101.155
20
-56.3883
11
101.155
21
-58.9283
0
LINE
8
BLACK
6
CONTINUOUS
10
109.137
20
-57.5983
11
114.837
21
-57.5983
0
ARC
8
BLACK
10
105.537
20
-55.6983
40
2.5
50
90
51
180
0
ARC
8
BLACK
10
109.137
20
-59.5983
40
2
50
-270
51
-180
0
CIRCLE
8
BLACK
10
105.727
20
-57.6583
40
1.524
0
CIRCLE
8
BLACK
10
112.078
20
-55.1183
40
1.524
0
LINE
8
BLACK
6
CONTINUOUS
10
100.087
20
-68.4983
11
100.595
21
-68.4983
0
LINE
8
BLACK
6
CONTINUOUS
10
96.7854
20
-68.4983
11
96.2774
21
-68.4983
0
LINE
8
BLACK
6
CONTINUOUS
10
101.357
20
-68.4983
11
101.865
21
-68.4983
0
LINE
8
BLACK
6
CONTINUOUS
10
98.0554
20
-68.4983
11
97.5474
21
-68.4983
0
LINE
8
BLACK
6
CONTINUOUS
10
98.8174
20
-68.4983
11
99.3254
21
-68.4983
0
LINE
8
BLACK
6
CONTINUOUS
10
155.425
20
-35.9133
11
155.425
21
-39.8133
0
LINE
8
BLACK
6
CONTINUOUS
10
166.497
20
-36.6033
11
166.497
21
-34.0633
0
LINE
8
BLACK
6
CONTINUOUS
10
156.083
20
-39.1433
11
156.083
21
-36.6033
0
LINE
8
BLACK
6
CONTINUOUS
10
169.037
20
-36.6033
11
166.497
21
-36.6033
0
LINE
8
BLACK
6
CONTINUOUS
10
166.497
20
-34.0633
11
169.037
21
-34.0633
0
LINE
8
BLACK
6
CONTINUOUS
10
156.083
20
-36.6033
11
153.543
21
-36.6033
0
LINE
8
BLACK
6
CONTINUOUS
10
167.225
20
-33.4133
11
157.925
21
-33.4133
0
LINE
8
BLACK
6
CONTINUOUS
10
153.543
20
-36.6033
11
153.543
21
-39.1433
0
LINE
8
BLACK
6
CONTINUOUS
10
153.543
20
-39.1433
11
156.083
21
-39.1433
0
LINE
8
BLACK
6
CONTINUOUS
10
155.425
20
-39.8133
11
159.525
21
-39.8133
0
LINE
8
BLACK
6
CONTINUOUS
10
167.225
20
-33.4133
11
167.225
21
-37.8133
0
LINE
8
BLACK
6
CONTINUOUS
10
161.525
20
-37.8133
11
167.225
21
-37.8133
0
LINE
8
BLACK
6
CONTINUOUS
10
169.037
20
-34.0633
11
169.037
21
-36.6033
0
ARC
8
BLACK
10
157.925
20
-35.9133
40
2.5
50
90
51
180
0
ARC
8
BLACK
10
161.525
20
-39.8133
40
2
50
-270
51
-180
0
CIRCLE
8
BLACK
10
164.465
20
-35.3333
40
1.524
0
CIRCLE
8
BLACK
10
158.115
20
-37.8733
40
1.524
0
LINE
8
BLACK
6
CONTINUOUS
10
94.85
20
2.6
11
100.55
21
2.6
0
LINE
8
BLACK
6
CONTINUOUS
10
100.55
20
7
11
91.25
21
7
0
LINE
8
BLACK
6
CONTINUOUS
10
99.822
20
3.81
11
99.822
21
6.35
0
LINE
8
BLACK
6
CONTINUOUS
10
88.75
20
4.5
11
88.75
21
0.6
0
LINE
8
BLACK
6
CONTINUOUS
10
89.408
20
3.81
11
86.868
21
3.81
0
LINE
8
BLACK
6
CONTINUOUS
10
102.362
20
6.35
11
102.362
21
3.81
0
LINE
8
BLACK
6
CONTINUOUS
10
88.75
20
0.6
11
92.85
21
0.6
0
LINE
8
BLACK
6
CONTINUOUS
10
86.868
20
1.27
11
89.408
21
1.27
0
LINE
8
BLACK
6
CONTINUOUS
10
99.822
20
6.35
11
102.362
21
6.35
0
LINE
8
BLACK
6
CONTINUOUS
10
86.868
20
3.81
11
86.868
21
1.27
0
LINE
8
BLACK
6
CONTINUOUS
10
89.408
20
1.27
11
89.408
21
3.81
0
LINE
8
BLACK
6
CONTINUOUS
10
100.55
20
7
11
100.55
21
2.6
0
LINE
8
BLACK
6
CONTINUOUS
10
102.362
20
3.81
11
99.822
21
3.81
0
ARC
8
BLACK
10
94.85
20
0.600001
40
2
50
-270
51
-180
0
ARC
8
BLACK
10
91.25
20
4.5
40
2.5
50
90
51
180
0
CIRCLE
8
BLACK
10
91.44
20
2.54
40
1.524
0
CIRCLE
8
BLACK
10
97.79
20
5.08
40
1.524
0
LINE
8
BLACK
6
CONTINUOUS
10
127.508
20
-18.515
11
127.508
21
-15.975
0
LINE
8
BLACK
6
CONTINUOUS
10
137.922
20
-13.435
11
140.462
21
-13.435
0
LINE
8
BLACK
6
CONTINUOUS
10
126.85
20
-19.185
11
130.95
21
-19.185
0
LINE
8
BLACK
6
CONTINUOUS
10
124.968
20
-15.975
11
124.968
21
-18.515
0
LINE
8
BLACK
6
CONTINUOUS
10
124.968
20
-18.515
11
127.508
21
-18.515
0
LINE
8
BLACK
6
CONTINUOUS
10
138.65
20
-12.785
11
129.35
21
-12.785
0
LINE
8
BLACK
6
CONTINUOUS
10
137.922
20
-15.975
11
137.922
21
-13.435
0
LINE
8
BLACK
6
CONTINUOUS
10
140.462
20
-13.435
11
140.462
21
-15.975
0
LINE
8
BLACK
6
CONTINUOUS
10
127.508
20
-15.975
11
124.968
21
-15.975
0
LINE
8
BLACK
6
CONTINUOUS
10
126.85
20
-15.285
11
126.85
21
-19.185
0
LINE
8
BLACK
6
CONTINUOUS
10
132.95
20
-17.185
11
138.65
21
-17.185
0
LINE
8
BLACK
6
CONTINUOUS
10
140.462
20
-15.975
11
137.922
21
-15.975
0
LINE
8
BLACK
6
CONTINUOUS
10
138.65
20
-12.785
11
138.65
21
-17.185
0
ARC
8
BLACK
10
129.35
20
-15.285
40
2.5
50
90
51
180
0
ARC
8
BLACK
10
132.95
20
-19.185
40
2
50
-270
51
-180
0
CIRCLE
8
BLACK
10
135.89
20
-14.705
40
1.524
0
CIRCLE
8
BLACK
10
129.54
20
-17.245
40
1.524
0
LINE
8
BLACK
6
CONTINUOUS
10
350.375
20
-62.4843
11
350.375
21
-62.9923
0
LINE
8
BLACK
6
CONTINUOUS
10
350.375
20
-57.9123
11
350.375
21
-57.4043
0
LINE
8
BLACK
6
CONTINUOUS
10
350.375
20
-60.4523
11
350.375
21
-59.9443
0
LINE
8
BLACK
6
CONTINUOUS
10
350.375
20
-61.2143
11
350.375
21
-61.7223
0
LINE
8
BLACK
6
CONTINUOUS
10
350.375
20
-59.1823
11
350.375
21
-58.6743
0
LINE
8
BLACK
6
CONTINUOUS
10
51.308
20
-15.975
11
48.768
21
-15.975
0
LINE
8
BLACK
6
CONTINUOUS
10
51.308
20
-18.515
11
51.308
21
-15.975
0
LINE
8
BLACK
6
CONTINUOUS
10
64.262
20
-13.435
11
64.262
21
-15.975
0
LINE
8
BLACK
6
CONTINUOUS
10
48.768
20
-15.975
11
48.768
21
-18.515
0
LINE
8
BLACK
6
CONTINUOUS
10
61.722
20
-13.435
11
64.262
21
-13.435
0
LINE
8
BLACK
6
CONTINUOUS
10
62.45
20
-12.785
11
62.45
21
-17.185
0
LINE
8
BLACK
6
CONTINUOUS
10
48.768
20
-18.515
11
51.308
21
-18.515
0
LINE
8
BLACK
6
CONTINUOUS
10
62.45
20
-12.785
11
53.15
21
-12.785
0
LINE
8
BLACK
6
CONTINUOUS
10
50.65
20
-15.285
11
50.65
21
-19.185
0
LINE
8
BLACK
6
CONTINUOUS
10
56.75
20
-17.185
11
62.45
21
-17.185
0
LINE
8
BLACK
6
CONTINUOUS
10
50.65
20
-19.185
11
54.75
21
-19.185
0
LINE
8
BLACK
6
CONTINUOUS
10
64.262
20
-15.975
11
61.722
21
-15.975
0
LINE
8
BLACK
6
CONTINUOUS
10
61.722
20
-15.975
11
61.722
21
-13.435
0
ARC
8
BLACK
10
56.75
20
-19.185
40
2
50
-270
51
-180
0
ARC
8
BLACK
10
53.15
20
-15.285
40
2.5
50
90
51
180
0
CIRCLE
8
BLACK
10
53.34
20
-17.245
40
1.524
0
CIRCLE
8
BLACK
10
59.69
20
-14.705
40
1.524
0
LINE
8
BLACK
6
CONTINUOUS
10
350.375
20
-103.471
11
350.375
21
-103.979
0
LINE
8
BLACK
6
CONTINUOUS
10
350.375
20
-100.169
11
350.375
21
-99.6613
0
LINE
8
BLACK
6
CONTINUOUS
10
350.375
20
-98.8993
11
350.375
21
-98.3913
0
LINE
8
BLACK
6
CONTINUOUS
10
350.375
20
-101.439
11
350.375
21
-100.931
0
LINE
8
BLACK
6
CONTINUOUS
10
350.375
20
-102.201
11
350.375
21
-102.709
0
LINE
8
BLACK
6
CONTINUOUS
10
284.908
20
-18.515
11
284.908
21
-15.975
0
LINE
8
BLACK
6
CONTINUOUS
10
290.35
20
-17.185
11
296.05
21
-17.185
0
LINE
8
BLACK
6
CONTINUOUS
10
296.05
20
-12.785
11
296.05
21
-17.185
0
LINE
8
BLACK
6
CONTINUOUS
10
297.862
20
-13.435
11
297.862
21
-15.975
0
LINE
8
BLACK
6
CONTINUOUS
10
295.322
20
-15.975
11
295.322
21
-13.435
0
LINE
8
BLACK
6
CONTINUOUS
10
295.322
20
-13.435
11
297.862
21
-13.435
0
LINE
8
BLACK
6
CONTINUOUS
10
297.862
20
-15.975
11
295.322
21
-15.975
0
LINE
8
BLACK
6
CONTINUOUS
10
284.25
20
-19.185
11
288.35
21
-19.185
0
LINE
8
BLACK
6
CONTINUOUS
10
282.368
20
-15.975
11
282.368
21
-18.515
0
LINE
8
BLACK
6
CONTINUOUS
10
282.368
20
-18.515
11
284.908
21
-18.515
0
LINE
8
BLACK
6
CONTINUOUS
10
296.05
20
-12.785
11
286.75
21
-12.785
0
LINE
8
BLACK
6
CONTINUOUS
10
284.908
20
-15.975
11
282.368
21
-15.975
0
LINE
8
BLACK
6
CONTINUOUS
10
284.25
20
-15.285
11
284.25
21
-19.185
0
ARC
8
BLACK
10
290.35
20
-19.185
40
2
50
-270
51
-180
0
ARC
8
BLACK
10
286.75
20
-15.285
40
2.5
50
90
51
180
0
CIRCLE
8
BLACK
10
286.94
20
-17.245
40
1.524
0
CIRCLE
8
BLACK
10
293.29
20
-14.705
40
1.524
0
LINE
8
BLACK
6
CONTINUOUS
10
-21.525
20
-40.1593
11
-21.525
21
-40.6673
0
LINE
8
BLACK
6
CONTINUOUS
10
-21.525
20
-39.3973
11
-21.525
21
-38.8893
0
LINE
8
BLACK
6
CONTINUOUS
10
-21.525
20
-42.6993
11
-21.525
21
-43.2073
0
LINE
8
BLACK
6
CONTINUOUS
10
-21.525
20
-38.1273
11
-21.525
21
-37.6193
0
LINE
8
BLACK
6
CONTINUOUS
10
-21.525
20
-41.4293
11
-21.525
21
-41.9373
0
LINE
8
BLACK
6
CONTINUOUS
10
350.375
20
-20.039
11
350.375
21
-19.531
0
LINE
8
BLACK
6
CONTINUOUS
10
350.375
20
-18.769
11
350.375
21
-18.261
0
LINE
8
BLACK
6
CONTINUOUS
10
350.375
20
-17.499
11
350.375
21
-16.991
0
LINE
8
BLACK
6
CONTINUOUS
10
350.375
20
-22.071
11
350.375
21
-22.579
0
LINE
8
BLACK
6
CONTINUOUS
10
350.375
20
-20.801
11
350.375
21
-21.309
0
LINE
8
BLACK
6
CONTINUOUS
10
45.8875
20
-100.585
11
49.9875
21
-100.585
0
LINE
8
BLACK
6
CONTINUOUS
10
46.5455
20
-97.3753
11
46.5455
21
-99.9153
0
LINE
8
BLACK
6
CONTINUOUS
10
59.4995
20
-97.3753
11
56.9595
21
-97.3753
0
LINE
8
BLACK
6
CONTINUOUS
10
51.9875
20
-98.5853
11
57.6875
21
-98.5853
0
LINE
8
BLACK
6
CONTINUOUS
10
57.6875
20
-94.1853
11
57.6875
21
-98.5853
0
LINE
8
BLACK
6
CONTINUOUS
10
44.0055
20
-99.9153
11
44.0055
21
-97.3753
0
LINE
8
BLACK
6
CONTINUOUS
10
56.9595
20
-97.3753
11
56.9595
21
-94.8353
0
LINE
8
BLACK
6
CONTINUOUS
10
57.6875
20
-94.1853
11
48.3875
21
-94.1853
0
LINE
8
BLACK
6
CONTINUOUS
10
45.8875
20
-96.6853
11
45.8875
21
-100.585
0
LINE
8
BLACK
6
CONTINUOUS
10
46.5455
20
-99.9153
11
44.0055
21
-99.9153
0
LINE
8
BLACK
6
CONTINUOUS
10
44.0055
20
-97.3753
11
46.5455
21
-97.3753
0
LINE
8
BLACK
6
CONTINUOUS
10
56.9595
20
-94.8353
11
59.4995
21
-94.8353
0
LINE
8
BLACK
6
CONTINUOUS
10
59.4995
20
-94.8353
11
59.4995
21
-97.3753
0
ARC
8
BLACK
10
48.3875
20
-96.6853
40
2.5
50
90
51
180
0
ARC
8
BLACK
10
51.9875
20
-100.585
40
2
50
-270
51
-180
0
CIRCLE
8
BLACK
10
48.5775
20
-98.6453
40
1.524
0
CIRCLE
8
BLACK
10
54.9275
20
-96.1053
40
1.524
0
LINE
8
BLACK
6
CONTINUOUS
10
323.008
20
-15.975
11
320.468
21
-15.975
0
LINE
8
BLACK
6
CONTINUOUS
10
335.962
20
-13.435
11
335.962
21
-15.975
0
LINE
8
BLACK
6
CONTINUOUS
10
334.15
20
-12.785
11
324.85
21
-12.785
0
LINE
8
BLACK
6
CONTINUOUS
10
323.008
20
-18.515
11
323.008
21
-15.975
0
LINE
8
BLACK
6
CONTINUOUS
10
335.962
20
-15.975
11
333.422
21
-15.975
0
LINE
8
BLACK
6
CONTINUOUS
10
328.45
20
-17.185
11
334.15
21
-17.185
0
LINE
8
BLACK
6
CONTINUOUS
10
333.422
20
-13.435
11
335.962
21
-13.435
0
LINE
8
BLACK
6
CONTINUOUS
10
320.468
20
-15.975
11
320.468
21
-18.515
0
LINE
8
BLACK
6
CONTINUOUS
10
333.422
20
-15.975
11
333.422
21
-13.435
0
LINE
8
BLACK
6
CONTINUOUS
10
334.15
20
-12.785
11
334.15
21
-17.185
0
LINE
8
BLACK
6
CONTINUOUS
10
320.468
20
-18.515
11
323.008
21
-18.515
0
LINE
8
BLACK
6
CONTINUOUS
10
322.35
20
-15.285
11
322.35
21
-19.185
0
LINE
8
BLACK
6
CONTINUOUS
10
322.35
20
-19.185
11
326.45
21
-19.185
0
ARC
8
BLACK
10
324.85
20
-15.285
40
2.5
50
90
51
180
0
ARC
8
BLACK
10
328.45
20
-19.185
40
2
50
-270
51
-180
0
CIRCLE
8
BLACK
10
331.39
20
-14.705
40
1.524
0
CIRCLE
8
BLACK
10
325.04
20
-17.245
40
1.524
0
LINE
8
BLACK
6
CONTINUOUS
10
179.237
20
-55.6983
11
179.237
21
-59.5983
0
LINE
8
BLACK
6
CONTINUOUS
10
192.849
20
-53.8483
11
192.849
21
-56.3883
0
LINE
8
BLACK
6
CONTINUOUS
10
190.309
20
-56.3883
11
190.309
21
-53.8483
0
LINE
8
BLACK
6
CONTINUOUS
10
179.237
20
-59.5983
11
183.338
21
-59.5983
0
LINE
8
BLACK
6
CONTINUOUS
10
190.309
20
-53.8483
11
192.849
21
-53.8483
0
LINE
8
BLACK
6
CONTINUOUS
10
177.355
20
-56.3883
11
177.355
21
-58.9283
0
LINE
8
BLACK
6
CONTINUOUS
10
191.037
20
-53.1983
11
181.737
21
-53.1983
0
LINE
8
BLACK
6
CONTINUOUS
10
191.037
20
-53.1983
11
191.037
21
-57.5983
0
LINE
8
BLACK
6
CONTINUOUS
10
179.895
20
-58.9283
11
179.895
21
-56.3883
0
LINE
8
BLACK
6
CONTINUOUS
10
185.338
20
-57.5983
11
191.037
21
-57.5983
0
LINE
8
BLACK
6
CONTINUOUS
10
192.849
20
-56.3883
11
190.309
21
-56.3883
0
LINE
8
BLACK
6
CONTINUOUS
10
179.895
20
-56.3883
11
177.355
21
-56.3883
0
LINE
8
BLACK
6
CONTINUOUS
10
177.355
20
-58.9283
11
179.895
21
-58.9283
0
ARC
8
BLACK
10
185.337
20
-59.5983
40
2
50
-270
51
-180
0
ARC
8
BLACK
10
181.737
20
-55.6983
40
2.5
50
90
51
180
0
CIRCLE
8
BLACK
10
181.927
20
-57.6583
40
1.524
0
CIRCLE
8
BLACK
10
188.278
20
-55.1183
40
1.524
0
LINE
8
BLACK
6
CONTINUOUS
10
182.118
20
-18.515
11
184.658
21
-18.515
0
LINE
8
BLACK
6
CONTINUOUS
10
184.658
20
-15.975
11
182.118
21
-15.975
0
LINE
8
BLACK
6
CONTINUOUS
10
184.658
20
-18.515
11
184.658
21
-15.975
0
LINE
8
BLACK
6
CONTINUOUS
10
190.1
20
-17.185
11
195.8
21
-17.185
0
LINE
8
BLACK
6
CONTINUOUS
10
197.612
20
-15.975
11
195.072
21
-15.975
0
LINE
8
BLACK
6
CONTINUOUS
10
195.8
20
-12.785
11
195.8
21
-17.185
0
LINE
8
BLACK
6
CONTINUOUS
10
195.8
20
-12.785
11
186.5
21
-12.785
0
LINE
8
BLACK
6
CONTINUOUS
10
184
20
-15.285
11
184
21
-19.185
0
LINE
8
BLACK
6
CONTINUOUS
10
195.072
20
-15.975
11
195.072
21
-13.435
0
LINE
8
BLACK
6
CONTINUOUS
10
197.612
20
-13.435
11
197.612
21
-15.975
0
LINE
8
BLACK
6
CONTINUOUS
10
184
20
-19.185
11
188.1
21
-19.185
0
LINE
8
BLACK
6
CONTINUOUS
10
182.118
20
-15.975
11
182.118
21
-18.515
0
LINE
8
BLACK
6
CONTINUOUS
10
195.072
20
-13.435
11
197.612
21
-13.435
0
ARC
8
BLACK
10
190.1
20
-19.185
40
2
50
-270
51
-180
0
ARC
8
BLACK
10
186.5
20
-15.285
40
2.5
50
90
51
180
0
CIRCLE
8
BLACK
10
193.04
20
-14.705
40
1.524
0
CIRCLE
8
BLACK
10
186.69
20
-17.245
40
1.524
0
LINE
8
BLACK
6
CONTINUOUS
10
-8.382
20
-15.975
11
-8.382
21
-18.515
0
LINE
8
BLACK
6
CONTINUOUS
10
4.572
20
-13.435
11
7.112
21
-13.435
0
LINE
8
BLACK
6
CONTINUOUS
10
7.112
20
-13.435
11
7.112
21
-15.975
0
LINE
8
BLACK
6
CONTINUOUS
10
-6.5
20
-19.185
11
-2.4
21
-19.185
0
LINE
8
BLACK
6
CONTINUOUS
10
-5.842
20
-15.975
11
-8.382
21
-15.975
0
LINE
8
BLACK
6
CONTINUOUS
10
5.3
20
-12.785
11
5.3
21
-17.185
0
LINE
8
BLACK
6
CONTINUOUS
10
4.572
20
-15.975
11
4.572
21
-13.435
0
LINE
8
BLACK
6
CONTINUOUS
10
-5.842
20
-18.515
11
-5.842
21
-15.975
0
LINE
8
BLACK
6
CONTINUOUS
10
5.3
20
-12.785
11
-4
21
-12.785
0
LINE
8
BLACK
6
CONTINUOUS
10
-8.382
20
-18.515
11
-5.842
21
-18.515
0
LINE
8
BLACK
6
CONTINUOUS
10
-6.5
20
-15.285
11
-6.5
21
-19.185
0
LINE
8
BLACK
6
CONTINUOUS
10
-0.4
20
-17.185
11
5.3
21
-17.185
0
LINE
8
BLACK
6
CONTINUOUS
10
7.112
20
-15.975
11
4.572
21
-15.975
0
ARC
8
BLACK
10
-4
20
-15.285
40
2.5
50
90
51
180
0
ARC
8
BLACK
10
-0.400001
20
-19.185
40
2
50
-270
51
-180
0
CIRCLE
8
BLACK
10
2.54
20
-14.705
40
1.524
0
CIRCLE
8
BLACK
10
-3.81
20
-17.245
40
1.524
0
LINE
8
BLACK
6
CONTINUOUS
10
96.7854
20
-92.8853
11
96.2774
21
-92.8853
0
LINE
8
BLACK
6
CONTINUOUS
10
99.3254
20
-92.8853
11
98.8174
21
-92.8853
0
LINE
8
BLACK
6
CONTINUOUS
10
100.087
20
-92.8853
11
100.595
21
-92.8853
0
LINE
8
BLACK
6
CONTINUOUS
10
98.0554
20
-92.8853
11
97.5474
21
-92.8853
0
LINE
8
BLACK
6
CONTINUOUS
10
101.357
20
-92.8853
11
101.865
21
-92.8853
0
LINE
8
BLACK
6
CONTINUOUS
10
94.85
20
-17.185
11
100.55
21
-17.185
0
LINE
8
BLACK
6
CONTINUOUS
10
86.868
20
-18.515
11
89.408
21
-18.515
0
LINE
8
BLACK
6
CONTINUOUS
10
102.362
20
-13.435
11
102.362
21
-15.975
0
LINE
8
BLACK
6
CONTINUOUS
10
100.55
20
-12.785
11
100.55
21
-17.185
0
LINE
8
BLACK
6
CONTINUOUS
10
86.868
20
-15.975
11
86.868
21
-18.515
0
LINE
8
BLACK
6
CONTINUOUS
10
88.75
20
-15.285
11
88.75
21
-19.185
0
LINE
8
BLACK
6
CONTINUOUS
10
99.822
20
-15.975
11
99.822
21
-13.435
0
LINE
8
BLACK
6
CONTINUOUS
10
89.408
20
-15.975
11
86.868
21
-15.975
0
LINE
8
BLACK
6
CONTINUOUS
10
100.55
20
-12.785
11
91.25
21
-12.785
0
LINE
8
BLACK
6
CONTINUOUS
10
89.408
20
-18.515
11
89.408
21
-15.975
0
LINE
8
BLACK
6
CONTINUOUS
10
102.362
20
-15.975
11
99.822
21
-15.975
0
LINE
8
BLACK
6
CONTINUOUS
10
99.822
20
-13.435
11
102.362
21
-13.435
0
LINE
8
BLACK
6
CONTINUOUS
10
88.75
20
-19.185
11
92.85
21
-19.185
0
ARC
8
BLACK
10
94.85
20
-19.185
40
2
50
-270
51
-180
0
ARC
8
BLACK
10
91.25
20
-15.285
40
2.5
50
90
51
180
0
CIRCLE
8
BLACK
10
97.79
20
-14.705
40
1.524
0
CIRCLE
8
BLACK
10
91.44
20
-17.245
40
1.524
0
LINE
8
BLACK
6
CONTINUOUS
10
289.775
20
-32.1132
11
289.267
21
-32.1132
0
LINE
8
BLACK
6
CONTINUOUS
10
288.505
20
-32.1132
11
287.997
21
-32.1132
0
LINE
8
BLACK
6
CONTINUOUS
10
291.807
20
-32.1132
11
292.315
21
-32.1132
0
LINE
8
BLACK
6
CONTINUOUS
10
287.235
20
-32.1132
11
286.727
21
-32.1132
0
LINE
8
BLACK
6
CONTINUOUS
10
290.537
20
-32.1132
11
291.045
21
-32.1132
0
LINE
8
BLACK
6
CONTINUOUS
10
284.908
20
-99.9153
11
284.908
21
-97.3753
0
LINE
8
BLACK
6
CONTINUOUS
10
296.05
20
-94.1853
11
296.05
21
-98.5853
0
LINE
8
BLACK
6
CONTINUOUS
10
297.862
20
-97.3753
11
295.322
21
-97.3753
0
LINE
8
BLACK
6
CONTINUOUS
10
297.862
20
-94.8353
11
297.862
21
-97.3753
0
LINE
8
BLACK
6
CONTINUOUS
10
295.322
20
-97.3753
11
295.322
21
-94.8353
0
LINE
8
BLACK
6
CONTINUOUS
10
296.05
20
-94.1853
11
286.75
21
-94.1853
0
LINE
8
BLACK
6
CONTINUOUS
10
284.25
20
-100.585
11
288.35
21
-100.585
0
LINE
8
BLACK
6
CONTINUOUS
10
284.25
20
-96.6853
11
284.25
21
-100.585
0
LINE
8
BLACK
6
CONTINUOUS
10
290.35
20
-98.5853
11
296.05
21
-98.5853
0
LINE
8
BLACK
6
CONTINUOUS
10
282.368
20
-99.9153
11
284.908
21
-99.9153
0
LINE
8
BLACK
6
CONTINUOUS
10
282.368
20
-97.3753
11
282.368
21
-99.9153
0
LINE
8
BLACK
6
CONTINUOUS
10
295.322
20
-94.8353
11
297.862
21
-94.8353
0
LINE
8
BLACK
6
CONTINUOUS
10
284.908
20
-97.3753
11
282.368
21
-97.3753
0
ARC
8
BLACK
10
290.35
20
-100.585
40
2
50
-270
51
-180
0
ARC
8
BLACK
10
286.75
20
-96.6853
40
2.5
50
90
51
180
0
CIRCLE
8
BLACK
10
293.29
20
-96.1053
40
1.524
0
CIRCLE
8
BLACK
10
286.94
20
-98.6453
40
1.524
0
LINE
8
BLACK
6
CONTINUOUS
10
129.125
20
-33.4133
11
119.825
21
-33.4133
0
LINE
8
BLACK
6
CONTINUOUS
10
128.397
20
-34.0633
11
130.937
21
-34.0633
0
LINE
8
BLACK
6
CONTINUOUS
10
130.937
20
-34.0633
11
130.937
21
-36.6033
0
LINE
8
BLACK
6
CONTINUOUS
10
117.983
20
-39.1433
11
117.983
21
-36.6033
0
LINE
8
BLACK
6
CONTINUOUS
10
117.983
20
-36.6033
11
115.443
21
-36.6033
0
LINE
8
BLACK
6
CONTINUOUS
10
123.425
20
-37.8133
11
129.125
21
-37.8133
0
LINE
8
BLACK
6
CONTINUOUS
10
129.125
20
-33.4133
11
129.125
21
-37.8133
0
LINE
8
BLACK
6
CONTINUOUS
10
130.937
20
-36.6033
11
128.397
21
-36.6033
0
LINE
8
BLACK
6
CONTINUOUS
10
117.325
20
-35.9133
11
117.325
21
-39.8133
0
LINE
8
BLACK
6
CONTINUOUS
10
115.443
20
-39.1433
11
117.983
21
-39.1433
0
LINE
8
BLACK
6
CONTINUOUS
10
115.443
20
-36.6033
11
115.443
21
-39.1433
0
LINE
8
BLACK
6
CONTINUOUS
10
117.325
20
-39.8133
11
121.425
21
-39.8133
0
LINE
8
BLACK
6
CONTINUOUS
10
128.397
20
-36.6033
11
128.397
21
-34.0633
0
ARC
8
BLACK
10
123.425
20
-39.8133
40
2
50
-270
51
-180
0
ARC
8
BLACK
10
119.825
20
-35.9133
40
2.5
50
90
51
180
0
CIRCLE
8
BLACK
10
120.015
20
-37.8733
40
1.524
0
CIRCLE
8
BLACK
10
126.365
20
-35.3333
40
1.524
0
LINE
8
BLACK
6
CONTINUOUS
10
289.775
20
-51.8983
11
289.267
21
-51.8983
0
LINE
8
BLACK
6
CONTINUOUS
10
287.235
20
-51.8983
11
286.727
21
-51.8983
0
LINE
8
BLACK
6
CONTINUOUS
10
291.807
20
-51.8983
11
292.315
21
-51.8983
0
LINE
8
BLACK
6
CONTINUOUS
10
288.505
20
-51.8983
11
287.997
21
-51.8983
0
LINE
8
BLACK
6
CONTINUOUS
10
290.537
20
-51.8983
11
291.045
21
-51.8983
0
LINE
8
BLACK
6
CONTINUOUS
10
71.975
20
-33.4133
11
71.975
21
-37.8133
0
LINE
8
BLACK
6
CONTINUOUS
10
60.833
20
-36.6033
11
58.293
21
-36.6033
0
LINE
8
BLACK
6
CONTINUOUS
10
66.275
20
-37.8133
11
71.975
21
-37.8133
0
LINE
8
BLACK
6
CONTINUOUS
10
71.247
20
-36.6033
11
71.247
21
-34.0633
0
LINE
8
BLACK
6
CONTINUOUS
10
60.175
20
-39.8133
11
64.275
21
-39.8133
0
LINE
8
BLACK
6
CONTINUOUS
10
73.787
20
-36.6033
11
71.247
21
-36.6033
0
LINE
8
BLACK
6
CONTINUOUS
10
58.293
20
-36.6033
11
58.293
21
-39.1433
0
LINE
8
BLACK
6
CONTINUOUS
10
58.293
20
-39.1433
11
60.833
21
-39.1433
0
LINE
8
BLACK
6
CONTINUOUS
10
60.833
20
-39.1433
11
60.833
21
-36.6033
0
LINE
8
BLACK
6
CONTINUOUS
10
73.787
20
-34.0633
11
73.787
21
-36.6033
0
LINE
8
BLACK
6
CONTINUOUS
10
60.175
20
-35.9133
11
60.175
21
-39.8133
0
LINE
8
BLACK
6
CONTINUOUS
10
71.247
20
-34.0633
11
73.787
21
-34.0633
0
LINE
8
BLACK
6
CONTINUOUS
10
71.975
20
-33.4133
11
62.675
21
-33.4133
0
ARC
8
BLACK
10
62.675
20
-35.9133
40
2.5
50
90
51
180
0
ARC
8
BLACK
10
66.275
20
-39.8133
40
2
50
-270
51
-180
0
CIRCLE
8
BLACK
10
69.215
20
-35.3333
40
1.524
0
CIRCLE
8
BLACK
10
62.865
20
-37.8733
40
1.524
0
LINE
8
BLACK
6
CONTINUOUS
10
96.8727
20
-8.3
11
96.3647
21
-8.3
0
LINE
8
BLACK
6
CONTINUOUS
10
101.445
20
-8.3
11
101.953
21
-8.3
0
LINE
8
BLACK
6
CONTINUOUS
10
98.9047
20
-8.3
11
99.4127
21
-8.3
0
LINE
8
BLACK
6
CONTINUOUS
10
100.175
20
-8.3
11
100.683
21
-8.3
0
LINE
8
BLACK
6
CONTINUOUS
10
98.1427
20
-8.3
11
97.6347
21
-8.3
0
LINE
8
BLACK
6
CONTINUOUS
10
136.375
20
4.5
11
136.375
21
0.6
0
LINE
8
BLACK
6
CONTINUOUS
10
137.033
20
1.27
11
137.033
21
3.81
0
LINE
8
BLACK
6
CONTINUOUS
10
148.175
20
7
11
148.175
21
2.6
0
LINE
8
BLACK
6
CONTINUOUS
10
134.493
20
1.27
11
137.033
21
1.27
0
LINE
8
BLACK
6
CONTINUOUS
10
137.033
20
3.81
11
134.493
21
3.81
0
LINE
8
BLACK
6
CONTINUOUS
10
149.987
20
6.35
11
149.987
21
3.81
0
LINE
8
BLACK
6
CONTINUOUS
10
136.375
20
0.6
11
140.475
21
0.6
0
LINE
8
BLACK
6
CONTINUOUS
10
134.493
20
3.81
11
134.493
21
1.27
0
LINE
8
BLACK
6
CONTINUOUS
10
147.447
20
3.81
11
147.447
21
6.35
0
LINE
8
BLACK
6
CONTINUOUS
10
147.447
20
6.35
11
149.987
21
6.35
0
LINE
8
BLACK
6
CONTINUOUS
10
142.475
20
2.6
11
148.175
21
2.6
0
LINE
8
BLACK
6
CONTINUOUS
10
148.175
20
7
11
138.875
21
7
0
LINE
8
BLACK
6
CONTINUOUS
10
149.987
20
3.81
11
147.447
21
3.81
0
ARC
8
BLACK
10
138.875
20
4.5
40
2.5
50
90
51
180
0
ARC
8
BLACK
10
142.475
20
0.600001
40
2
50
-270
51
-180
0
CIRCLE
8
BLACK
10
139.065
20
2.54
40
1.524
0
CIRCLE
8
BLACK
10
145.415
20
5.08
40
1.524
0
LINE
8
BLACK
6
CONTINUOUS
10
301.418
20
-18.515
11
303.958
21
-18.515
0
LINE
8
BLACK
6
CONTINUOUS
10
303.958
20
-18.515
11
303.958
21
-15.975
0
LINE
8
BLACK
6
CONTINUOUS
10
303.3
20
-15.285
11
303.3
21
-19.185
0
LINE
8
BLACK
6
CONTINUOUS
10
314.372
20
-13.435
11
316.912
21
-13.435
0
LINE
8
BLACK
6
CONTINUOUS
10
301.418
20
-15.975
11
301.418
21
-18.515
0
LINE
8
BLACK
6
CONTINUOUS
10
309.4
20
-17.185
11
315.1
21
-17.185
0
LINE
8
BLACK
6
CONTINUOUS
10
316.912
20
-15.975
11
314.372
21
-15.975
0
LINE
8
BLACK
6
CONTINUOUS
10
303.958
20
-15.975
11
301.418
21
-15.975
0
LINE
8
BLACK
6
CONTINUOUS
10
316.912
20
-13.435
11
316.912
21
-15.975
0
LINE
8
BLACK
6
CONTINUOUS
10
303.3
20
-19.185
11
307.4
21
-19.185
0
LINE
8
BLACK
6
CONTINUOUS
10
314.372
20
-15.975
11
314.372
21
-13.435
0
LINE
8
BLACK
6
CONTINUOUS
10
315.1
20
-12.785
11
305.8
21
-12.785
0
LINE
8
BLACK
6
CONTINUOUS
10
315.1
20
-12.785
11
315.1
21
-17.185
0
ARC
8
BLACK
10
309.4
20
-19.185
40
2
50
-270
51
-180
0
ARC
8
BLACK
10
305.8
20
-15.285
40
2.5
50
90
51
180
0
CIRCLE
8
BLACK
10
305.99
20
-17.245
40
1.524
0
CIRCLE
8
BLACK
10
312.34
20
-14.705
40
1.524
0
LINE
8
BLACK
6
CONTINUOUS
10
266.3
20
2.6
11
272
21
2.6
0
LINE
8
BLACK
6
CONTINUOUS
10
260.858
20
1.27
11
260.858
21
3.81
0
LINE
8
BLACK
6
CONTINUOUS
10
273.812
20
6.35
11
273.812
21
3.81
0
LINE
8
BLACK
6
CONTINUOUS
10
258.318
20
1.27
11
260.858
21
1.27
0
LINE
8
BLACK
6
CONTINUOUS
10
273.812
20
3.81
11
271.272
21
3.81
0
LINE
8
BLACK
6
CONTINUOUS
10
260.2
20
4.5
11
260.2
21
0.6
0
LINE
8
BLACK
6
CONTINUOUS
10
258.318
20
3.81
11
258.318
21
1.27
0
LINE
8
BLACK
6
CONTINUOUS
10
272
20
7
11
262.7
21
7
0
LINE
8
BLACK
6
CONTINUOUS
10
271.272
20
6.35
11
273.812
21
6.35
0
LINE
8
BLACK
6
CONTINUOUS
10
260.2
20
0.6
11
264.3
21
0.6
0
LINE
8
BLACK
6
CONTINUOUS
10
272
20
7
11
272
21
2.6
0
LINE
8
BLACK
6
CONTINUOUS
10
271.272
20
3.81
11
271.272
21
6.35
0
LINE
8
BLACK
6
CONTINUOUS
10
260.858
20
3.81
11
258.318
21
3.81
0
ARC
8
BLACK
10
266.3
20
0.600001
40
2
50
-270
51
-180
0
ARC
8
BLACK
10
262.7
20
4.5
40
2.5
50
90
51
180
0
CIRCLE
8
BLACK
10
262.89
20
2.54
40
1.524
0
CIRCLE
8
BLACK
10
269.24
20
5.08
40
1.524
0
LINE
8
BLACK
6
CONTINUOUS
10
196.405
20
-58.9283
11
198.945
21
-58.9283
0
LINE
8
BLACK
6
CONTINUOUS
10
209.359
20
-56.3883
11
209.359
21
-53.8483
0
LINE
8
BLACK
6
CONTINUOUS
10
198.287
20
-59.5983
11
202.387
21
-59.5983
0
LINE
8
BLACK
6
CONTINUOUS
10
198.945
20
-58.9283
11
198.945
21
-56.3883
0
LINE
8
BLACK
6
CONTINUOUS
10
209.359
20
-53.8483
11
211.899
21
-53.8483
0
LINE
8
BLACK
6
CONTINUOUS
10
211.899
20
-56.3883
11
209.359
21
-56.3883
0
LINE
8
BLACK
6
CONTINUOUS
10
198.287
20
-55.6983
11
198.287
21
-59.5983
0
LINE
8
BLACK
6
CONTINUOUS
10
204.387
20
-57.5983
11
210.087
21
-57.5983
0
LINE
8
BLACK
6
CONTINUOUS
10
211.899
20
-53.8483
11
211.899
21
-56.3883
0
LINE
8
BLACK
6
CONTINUOUS
10
210.087
20
-53.1983
11
200.787
21
-53.1983
0
LINE
8
BLACK
6
CONTINUOUS
10
198.945
20
-56.3883
11
196.405
21
-56.3883
0
LINE
8
BLACK
6
CONTINUOUS
10
196.405
20
-56.3883
11
196.405
21
-58.9283
0
LINE
8
BLACK
6
CONTINUOUS
10
210.087
20
-53.1983
11
210.087
21
-57.5983
0
ARC
8
BLACK
10
204.387
20
-59.5983
40
2
50
-270
51
-180
0
ARC
8
BLACK
10
200.787
20
-55.6983
40
2.5
50
90
51
180
0
CIRCLE
8
BLACK
10
200.977
20
-57.6583
40
1.524
0
CIRCLE
8
BLACK
10
207.327
20
-55.1183
40
1.524
0
LINE
8
BLACK
6
CONTINUOUS
10
52.197
20
-34.0633
11
54.737
21
-34.0633
0
LINE
8
BLACK
6
CONTINUOUS
10
41.125
20
-39.8133
11
45.225
21
-39.8133
0
LINE
8
BLACK
6
CONTINUOUS
10
54.737
20
-36.6033
11
52.197
21
-36.6033
0
LINE
8
BLACK
6
CONTINUOUS
10
39.243
20
-39.1433
11
41.783
21
-39.1433
0
LINE
8
BLACK
6
CONTINUOUS
10
41.783
20
-36.6033
11
39.243
21
-36.6033
0
LINE
8
BLACK
6
CONTINUOUS
10
41.125
20
-35.9133
11
41.125
21
-39.8133
0
LINE
8
BLACK
6
CONTINUOUS
10
52.925
20
-33.4133
11
52.925
21
-37.8133
0
LINE
8
BLACK
6
CONTINUOUS
10
39.243
20
-36.6033
11
39.243
21
-39.1433
0
LINE
8
BLACK
6
CONTINUOUS
10
54.737
20
-34.0633
11
54.737
21
-36.6033
0
LINE
8
BLACK
6
CONTINUOUS
10
52.925
20
-33.4133
11
43.625
21
-33.4133
0
LINE
8
BLACK
6
CONTINUOUS
10
52.197
20
-36.6033
11
52.197
21
-34.0633
0
LINE
8
BLACK
6
CONTINUOUS
10
41.783
20
-39.1433
11
41.783
21
-36.6033
0
LINE
8
BLACK
6
CONTINUOUS
10
47.225
20
-37.8133
11
52.925
21
-37.8133
0
ARC
8
BLACK
10
47.225
20
-39.8133
40
2
50
-270
51
-180
0
ARC
8
BLACK
10
43.625
20
-35.9133
40
2.5
50
90
51
180
0
CIRCLE
8
BLACK
10
50.165
20
-35.3333
40
1.524
0
CIRCLE
8
BLACK
10
43.815
20
-37.8733
40
1.524
0
LINE
8
BLACK
6
CONTINUOUS
10
100.087
20
-28.085
11
100.595
21
-28.085
0
LINE
8
BLACK
6
CONTINUOUS
10
98.8174
20
-28.085
11
99.3254
21
-28.085
0
LINE
8
BLACK
6
CONTINUOUS
10
98.0554
20
-28.085
11
97.5474
21
-28.085
0
LINE
8
BLACK
6
CONTINUOUS
10
96.7854
20
-28.085
11
96.2774
21
-28.085
0
LINE
8
BLACK
6
CONTINUOUS
10
101.357
20
-28.085
11
101.865
21
-28.085
0
LINE
8
BLACK
6
CONTINUOUS
10
67.2125
20
-73.6353
11
67.2125
21
-78.0353
0
LINE
8
BLACK
6
CONTINUOUS
10
55.4125
20
-76.1353
11
55.4125
21
-80.0353
0
LINE
8
BLACK
6
CONTINUOUS
10
69.0245
20
-76.8253
11
66.4845
21
-76.8253
0
LINE
8
BLACK
6
CONTINUOUS
10
56.0705
20
-79.3653
11
56.0705
21
-76.8253
0
LINE
8
BLACK
6
CONTINUOUS
10
66.4845
20
-76.8253
11
66.4845
21
-74.2853
0
LINE
8
BLACK
6
CONTINUOUS
10
55.4125
20
-80.0353
11
59.5125
21
-80.0353
0
LINE
8
BLACK
6
CONTINUOUS
10
67.2125
20
-73.6353
11
57.9125
21
-73.6353
0
LINE
8
BLACK
6
CONTINUOUS
10
69.0245
20
-74.2853
11
69.0245
21
-76.8253
0
LINE
8
BLACK
6
CONTINUOUS
10
53.5305
20
-79.3653
11
56.0705
21
-79.3653
0
LINE
8
BLACK
6
CONTINUOUS
10
66.4845
20
-74.2853
11
69.0245
21
-74.2853
0
LINE
8
BLACK
6
CONTINUOUS
10
61.5125
20
-78.0353
11
67.2125
21
-78.0353
0
LINE
8
BLACK
6
CONTINUOUS
10
53.5305
20
-76.8253
11
53.5305
21
-79.3653
0
LINE
8
BLACK
6
CONTINUOUS
10
56.0705
20
-76.8253
11
53.5305
21
-76.8253
0
ARC
8
BLACK
10
57.9125
20
-76.1353
40
2.5
50
90
51
180
0
ARC
8
BLACK
10
61.5125
20
-80.0353
40
2
50
-270
51
-180
0
CIRCLE
8
BLACK
10
58.1025
20
-78.0953
40
1.524
0
CIRCLE
8
BLACK
10
64.4525
20
-75.5553
40
1.524
0
LINE
8
BLACK
6
CONTINUOUS
10
100.087
20
8.3
11
100.595
21
8.3
0
LINE
8
BLACK
6
CONTINUOUS
10
101.357
20
8.3
11
101.865
21
8.3
0
LINE
8
BLACK
6
CONTINUOUS
10
99.3254
20
8.3
11
98.8174
21
8.3
0
LINE
8
BLACK
6
CONTINUOUS
10
96.7854
20
8.3
11
96.2774
21
8.3
0
LINE
8
BLACK
6
CONTINUOUS
10
98.0554
20
8.3
11
97.5474
21
8.3
0
LINE
8
BLACK
6
CONTINUOUS
10
-21.525
20
-78.2493
11
-21.525
21
-77.7413
0
LINE
8
BLACK
6
CONTINUOUS
10
-21.525
20
-82.8213
11
-21.525
21
-83.3293
0
LINE
8
BLACK
6
CONTINUOUS
10
-21.525
20
-81.5513
11
-21.525
21
-82.0593
0
LINE
8
BLACK
6
CONTINUOUS
10
-21.525
20
-79.5193
11
-21.525
21
-79.0113
0
LINE
8
BLACK
6
CONTINUOUS
10
-21.525
20
-80.2813
11
-21.525
21
-80.7893
0
LINE
8
BLACK
6
CONTINUOUS
10
255.331
20
-73.6353
11
255.331
21
-78.0353
0
LINE
8
BLACK
6
CONTINUOUS
10
254.603
20
-76.8253
11
254.603
21
-74.2853
0
LINE
8
BLACK
6
CONTINUOUS
10
241.649
20
-76.8253
11
244.189
21
-76.8253
0
LINE
8
BLACK
6
CONTINUOUS
10
255.331
20
-73.6353
11
246.031
21
-73.6353
0
LINE
8
BLACK
6
CONTINUOUS
10
257.143
20
-76.8253
11
254.603
21
-76.8253
0
LINE
8
BLACK
6
CONTINUOUS
10
257.143
20
-74.2853
11
257.143
21
-76.8253
0
LINE
8
BLACK
6
CONTINUOUS
10
244.189
20
-79.3653
11
241.649
21
-79.3653
0
LINE
8
BLACK
6
CONTINUOUS
10
243.531
20
-76.1353
11
243.531
21
-80.0353
0
LINE
8
BLACK
6
CONTINUOUS
10
243.531
20
-80.0353
11
247.631
21
-80.0353
0
LINE
8
BLACK
6
CONTINUOUS
10
241.649
20
-79.3653
11
241.649
21
-76.8253
0
LINE
8
BLACK
6
CONTINUOUS
10
244.189
20
-76.8253
11
244.189
21
-79.3653
0
LINE
8
BLACK
6
CONTINUOUS
10
249.631
20
-78.0353
11
255.331
21
-78.0353
0
LINE
8
BLACK
6
CONTINUOUS
10
254.603
20
-74.2853
11
257.143
21
-74.2853
0
ARC
8
BLACK
10
246.031
20
-76.1353
40
2.5
50
90
51
180
0
ARC
8
BLACK
10
249.631
20
-80.0353
40
2
50
-270
51
-180
0
CIRCLE
8
BLACK
10
252.571
20
-75.5553
40
1.524
0
CIRCLE
8
BLACK
10
246.221
20
-78.0953
40
1.524
0
LINE
8
BLACK
6
CONTINUOUS
10
98.8174
20
-88.9353
11
99.3254
21
-88.9353
0
LINE
8
BLACK
6
CONTINUOUS
10
101.357
20
-88.9353
11
101.865
21
-88.9353
0
LINE
8
BLACK
6
CONTINUOUS
10
96.7854
20
-88.9353
11
96.2774
21
-88.9353
0
LINE
8
BLACK
6
CONTINUOUS
10
98.0554
20
-88.9353
11
97.5474
21
-88.9353
0
LINE
8
BLACK
6
CONTINUOUS
10
100.087
20
-88.9353
11
100.595
21
-88.9353
0
LINE
8
BLACK
6
CONTINUOUS
10
288.497
20
-8.3
11
287.989
21
-8.3
0
LINE
8
BLACK
6
CONTINUOUS
10
287.227
20
-8.3
11
286.719
21
-8.3
0
LINE
8
BLACK
6
CONTINUOUS
10
291.799
20
-8.3
11
292.307
21
-8.3
0
LINE
8
BLACK
6
CONTINUOUS
10
290.529
20
-8.3
11
291.037
21
-8.3
0
LINE
8
BLACK
6
CONTINUOUS
10
289.259
20
-8.3
11
289.767
21
-8.3
0
LINE
8
BLACK
6
CONTINUOUS
10
214.85
20
-12.785
11
205.55
21
-12.785
0
LINE
8
BLACK
6
CONTINUOUS
10
203.05
20
-19.185
11
207.15
21
-19.185
0
LINE
8
BLACK
6
CONTINUOUS
10
214.85
20
-12.785
11
214.85
21
-17.185
0
LINE
8
BLACK
6
CONTINUOUS
10
201.168
20
-15.975
11
201.168
21
-18.515
0
LINE
8
BLACK
6
CONTINUOUS
10
214.122
20
-15.975
11
214.122
21
-13.435
0
LINE
8
BLACK
6
CONTINUOUS
10
203.05
20
-15.285
11
203.05
21
-19.185
0
LINE
8
BLACK
6
CONTINUOUS
10
203.708
20
-18.515
11
203.708
21
-15.975
0
LINE
8
BLACK
6
CONTINUOUS
10
214.122
20
-13.435
11
216.662
21
-13.435
0
LINE
8
BLACK
6
CONTINUOUS
10
216.662
20
-15.975
11
214.122
21
-15.975
0
LINE
8
BLACK
6
CONTINUOUS
10
201.168
20
-18.515
11
203.708
21
-18.515
0
LINE
8
BLACK
6
CONTINUOUS
10
216.662
20
-13.435
11
216.662
21
-15.975
0
LINE
8
BLACK
6
CONTINUOUS
10
209.15
20
-17.185
11
214.85
21
-17.185
0
LINE
8
BLACK
6
CONTINUOUS
10
203.708
20
-15.975
11
201.168
21
-15.975
0
ARC
8
BLACK
10
205.55
20
-15.285
40
2.5
50
90
51
180
0
ARC
8
BLACK
10
209.15
20
-19.185
40
2
50
-270
51
-180
0
CIRCLE
8
BLACK
10
212.09
20
-14.705
40
1.524
0
CIRCLE
8
BLACK
10
205.74
20
-17.245
40
1.524
0
LINE
8
BLACK
6
CONTINUOUS
10
26.8375
20
-55.6983
11
26.8375
21
-59.5983
0
LINE
8
BLACK
6
CONTINUOUS
10
38.6375
20
-53.1983
11
29.3375
21
-53.1983
0
LINE
8
BLACK
6
CONTINUOUS
10
24.9555
20
-58.9283
11
27.4955
21
-58.9283
0
LINE
8
BLACK
6
CONTINUOUS
10
40.4495
20
-56.3883
11
37.9095
21
-56.3883
0
LINE
8
BLACK
6
CONTINUOUS
10
37.9095
20
-53.8483
11
40.4495
21
-53.8483
0
LINE
8
BLACK
6
CONTINUOUS
10
32.9375
20
-57.5983
11
38.6375
21
-57.5983
0
LINE
8
BLACK
6
CONTINUOUS
10
24.9555
20
-56.3883
11
24.9555
21
-58.9283
0
LINE
8
BLACK
6
CONTINUOUS
10
38.6375
20
-53.1983
11
38.6375
21
-57.5983
0
LINE
8
BLACK
6
CONTINUOUS
10
37.9095
20
-56.3883
11
37.9095
21
-53.8483
0
LINE
8
BLACK
6
CONTINUOUS
10
27.4955
20
-58.9283
11
27.4955
21
-56.3883
0
LINE
8
BLACK
6
CONTINUOUS
10
40.4495
20
-53.8483
11
40.4495
21
-56.3883
0
LINE
8
BLACK
6
CONTINUOUS
10
26.8375
20
-59.5983
11
30.9375
21
-59.5983
0
LINE
8
BLACK
6
CONTINUOUS
10
27.4955
20
-56.3883
11
24.9555
21
-56.3883
0
ARC
8
BLACK
10
29.3375
20
-55.6983
40
2.5
50
90
51
180
0
ARC
8
BLACK
10
32.9375
20
-59.5983
40
2
50
-270
51
-180
0
CIRCLE
8
BLACK
10
35.8775
20
-55.1183
40
1.524
0
CIRCLE
8
BLACK
10
29.5275
20
-57.6583
40
1.524
0
LINE
8
BLACK
6
CONTINUOUS
10
78.5495
20
-56.3883
11
76.0095
21
-56.3883
0
LINE
8
BLACK
6
CONTINUOUS
10
76.7375
20
-53.1983
11
76.7375
21
-57.5983
0
LINE
8
BLACK
6
CONTINUOUS
10
65.5955
20
-56.3883
11
63.0555
21
-56.3883
0
LINE
8
BLACK
6
CONTINUOUS
10
76.7375
20
-53.1983
11
67.4375
21
-53.1983
0
LINE
8
BLACK
6
CONTINUOUS
10
76.0095
20
-53.8483
11
78.5495
21
-53.8483
0
LINE
8
BLACK
6
CONTINUOUS
10
71.0375
20
-57.5983
11
76.7375
21
-57.5983
0
LINE
8
BLACK
6
CONTINUOUS
10
63.0555
20
-58.9283
11
65.5955
21
-58.9283
0
LINE
8
BLACK
6
CONTINUOUS
10
78.5495
20
-53.8483
11
78.5495
21
-56.3883
0
LINE
8
BLACK
6
CONTINUOUS
10
65.5955
20
-58.9283
11
65.5955
21
-56.3883
0
LINE
8
BLACK
6
CONTINUOUS
10
76.0095
20
-56.3883
11
76.0095
21
-53.8483
0
LINE
8
BLACK
6
CONTINUOUS
10
64.9375
20
-55.6983
11
64.9375
21
-59.5983
0
LINE
8
BLACK
6
CONTINUOUS
10
64.9375
20
-59.5983
11
69.0375
21
-59.5983
0
LINE
8
BLACK
6
CONTINUOUS
10
63.0555
20
-56.3883
11
63.0555
21
-58.9283
0
ARC
8
BLACK
10
71.0375
20
-59.5983
40
2
50
-270
51
-180
0
ARC
8
BLACK
10
67.4375
20
-55.6983
40
2.5
50
90
51
180
0
CIRCLE
8
BLACK
10
67.6275
20
-57.6583
40
1.524
0
CIRCLE
8
BLACK
10
73.9775
20
-55.1183
40
1.524
0
LINE
8
BLACK
6
CONTINUOUS
10
350.375
20
-42.6993
11
350.375
21
-43.2073
0
LINE
8
BLACK
6
CONTINUOUS
10
350.375
20
-40.6673
11
350.375
21
-40.1593
0
LINE
8
BLACK
6
CONTINUOUS
10
350.375
20
-39.3973
11
350.375
21
-38.8893
0
LINE
8
BLACK
6
CONTINUOUS
10
350.375
20
-38.1273
11
350.375
21
-37.6193
0
LINE
8
BLACK
6
CONTINUOUS
10
350.375
20
-41.4293
11
350.375
21
-41.9373
0
LINE
8
BLACK
6
CONTINUOUS
10
175.133
20
1.27
11
175.133
21
3.81
0
LINE
8
BLACK
6
CONTINUOUS
10
174.475
20
4.5
11
174.475
21
0.6
0
LINE
8
BLACK
6
CONTINUOUS
10
186.275
20
7
11
176.975
21
7
0
LINE
8
BLACK
6
CONTINUOUS
10
188.087
20
6.35
11
188.087
21
3.81
0
LINE
8
BLACK
6
CONTINUOUS
10
175.133
20
3.81
11
172.593
21
3.81
0
LINE
8
BLACK
6
CONTINUOUS
10
174.475
20
0.6
11
178.575
21
0.6
0
LINE
8
BLACK
6
CONTINUOUS
10
185.547
20
3.81
11
185.547
21
6.35
0
LINE
8
BLACK
6
CONTINUOUS
10
185.547
20
6.35
11
188.087
21
6.35
0
LINE
8
BLACK
6
CONTINUOUS
10
188.087
20
3.81
11
185.547
21
3.81
0
LINE
8
BLACK
6
CONTINUOUS
10
172.593
20
1.27
11
175.133
21
1.27
0
LINE
8
BLACK
6
CONTINUOUS
10
186.275
20
7
11
186.275
21
2.6
0
LINE
8
BLACK
6
CONTINUOUS
10
172.593
20
3.81
11
172.593
21
1.27
0
LINE
8
BLACK
6
CONTINUOUS
10
180.575
20
2.6
11
186.275
21
2.6
0
ARC
8
BLACK
10
176.975
20
4.5
40
2.5
50
90
51
180
0
ARC
8
BLACK
10
180.575
20
0.600001
40
2
50
-270
51
-180
0
CIRCLE
8
BLACK
10
183.515
20
5.08
40
1.524
0
CIRCLE
8
BLACK
10
177.165
20
2.54
40
1.524
0
LINE
8
BLACK
6
CONTINUOUS
10
29.718
20
3.81
11
29.718
21
1.27
0
LINE
8
BLACK
6
CONTINUOUS
10
32.258
20
1.27
11
32.258
21
3.81
0
LINE
8
BLACK
6
CONTINUOUS
10
43.4
20
7
11
43.4
21
2.6
0
LINE
8
BLACK
6
CONTINUOUS
10
45.212
20
3.81
11
42.672
21
3.81
0
LINE
8
BLACK
6
CONTINUOUS
10
45.212
20
6.35
11
45.212
21
3.81
0
LINE
8
BLACK
6
CONTINUOUS
10
31.6
20
0.6
11
35.7
21
0.6
0
LINE
8
BLACK
6
CONTINUOUS
10
32.258
20
3.81
11
29.718
21
3.81
0
LINE
8
BLACK
6
CONTINUOUS
10
42.672
20
6.35
11
45.212
21
6.35
0
LINE
8
BLACK
6
CONTINUOUS
10
42.672
20
3.81
11
42.672
21
6.35
0
LINE
8
BLACK
6
CONTINUOUS
10
37.7
20
2.6
11
43.4
21
2.6
0
LINE
8
BLACK
6
CONTINUOUS
10
29.718
20
1.27
11
32.258
21
1.27
0
LINE
8
BLACK
6
CONTINUOUS
10
43.4
20
7
11
34.1
21
7
0
LINE
8
BLACK
6
CONTINUOUS
10
31.6
20
4.5
11
31.6
21
0.6
0
ARC
8
BLACK
10
34.1
20
4.5
40
2.5
50
90
51
180
0
ARC
8
BLACK
10
37.7
20
0.600001
40
2
50
-270
51
-180
0
CIRCLE
8
BLACK
10
34.29
20
2.54
40
1.524
0
CIRCLE
8
BLACK
10
40.64
20
5.08
40
1.524
0
LINE
8
BLACK
6
CONTINUOUS
10
101.407
20
-72.3353
11
101.915
21
-72.3353
0
LINE
8
BLACK
6
CONTINUOUS
10
99.3748
20
-72.3353
11
98.8668
21
-72.3353
0
LINE
8
BLACK
6
CONTINUOUS
10
96.8348
20
-72.3353
11
96.3268
21
-72.3353
0
LINE
8
BLACK
6
CONTINUOUS
10
100.137
20
-72.3353
11
100.645
21
-72.3353
0
LINE
8
BLACK
6
CONTINUOUS
10
98.1048
20
-72.3353
11
97.5968
21
-72.3353
0
LINE
8
BLACK
6
CONTINUOUS
10
350.375
20
1.016
11
350.375
21
1.524
0
LINE
8
BLACK
6
CONTINUOUS
10
350.375
20
-1.016
11
350.375
21
-1.524
0
LINE
8
BLACK
6
CONTINUOUS
10
350.375
20
2.286
11
350.375
21
2.794
0
LINE
8
BLACK
6
CONTINUOUS
10
350.375
20
-2.286
11
350.375
21
-2.794
0
LINE
8
BLACK
6
CONTINUOUS
10
350.375
20
-0.254
11
350.375
21
0.254
0
LINE
8
BLACK
6
CONTINUOUS
10
205.93
20
-76.8253
11
205.93
21
-79.3653
0
LINE
8
BLACK
6
CONTINUOUS
10
219.612
20
-73.6353
11
219.612
21
-78.0353
0
LINE
8
BLACK
6
CONTINUOUS
10
221.424
20
-76.8253
11
218.885
21
-76.8253
0
LINE
8
BLACK
6
CONTINUOUS
10
218.885
20
-76.8253
11
218.885
21
-74.2853
0
LINE
8
BLACK
6
CONTINUOUS
10
207.812
20
-80.0353
11
211.912
21
-80.0353
0
LINE
8
BLACK
6
CONTINUOUS
10
213.912
20
-78.0353
11
219.612
21
-78.0353
0
LINE
8
BLACK
6
CONTINUOUS
10
205.93
20
-79.3653
11
208.47
21
-79.3653
0
LINE
8
BLACK
6
CONTINUOUS
10
207.812
20
-76.1353
11
207.812
21
-80.0353
0
LINE
8
BLACK
6
CONTINUOUS
10
208.47
20
-76.8253
11
205.93
21
-76.8253
0
LINE
8
BLACK
6
CONTINUOUS
10
219.612
20
-73.6353
11
210.312
21
-73.6353
0
LINE
8
BLACK
6
CONTINUOUS
10
218.885
20
-74.2853
11
221.424
21
-74.2853
0
LINE
8
BLACK
6
CONTINUOUS
10
221.424
20
-74.2853
11
221.424
21
-76.8253
0
LINE
8
BLACK
6
CONTINUOUS
10
208.47
20
-79.3653
11
208.47
21
-76.8253
0
ARC
8
BLACK
10
213.912
20
-80.0353
40
2
50
-270
51
-180
0
ARC
8
BLACK
10
210.312
20
-76.1353
40
2.5
50
90
51
180
0
CIRCLE
8
BLACK
10
210.502
20
-78.0953
40
1.524
0
CIRCLE
8
BLACK
10
216.852
20
-75.5553
40
1.524
0
LINE
8
BLACK
6
CONTINUOUS
10
128.397
20
6.35
11
130.937
21
6.35
0
LINE
8
BLACK
6
CONTINUOUS
10
115.443
20
3.81
11
115.443
21
1.27
0
LINE
8
BLACK
6
CONTINUOUS
10
117.325
20
0.6
11
121.425
21
0.6
0
LINE
8
BLACK
6
CONTINUOUS
10
129.125
20
7
11
119.825
21
7
0
LINE
8
BLACK
6
CONTINUOUS
10
130.937
20
6.35
11
130.937
21
3.81
0
LINE
8
BLACK
6
CONTINUOUS
10
115.443
20
1.27
11
117.983
21
1.27
0
LINE
8
BLACK
6
CONTINUOUS
10
117.983
20
1.27
11
117.983
21
3.81
0
LINE
8
BLACK
6
CONTINUOUS
10
123.425
20
2.6
11
129.125
21
2.6
0
LINE
8
BLACK
6
CONTINUOUS
10
117.983
20
3.81
11
115.443
21
3.81
0
LINE
8
BLACK
6
CONTINUOUS
10
128.397
20
3.81
11
128.397
21
6.35
0
LINE
8
BLACK
6
CONTINUOUS
10
117.325
20
4.5
11
117.325
21
0.6
0
LINE
8
BLACK
6
CONTINUOUS
10
129.125
20
7
11
129.125
21
2.6
0
LINE
8
BLACK
6
CONTINUOUS
10
130.937
20
3.81
11
128.397
21
3.81
0
ARC
8
BLACK
10
119.825
20
4.5
40
2.5
50
90
51
180
0
ARC
8
BLACK
10
123.425
20
0.600001
40
2
50
-270
51
-180
0
CIRCLE
8
BLACK
10
126.365
20
5.08
40
1.524
0
CIRCLE
8
BLACK
10
120.015
20
2.54
40
1.524
0
LINE
8
BLACK
6
CONTINUOUS
10
90.0875
20
-57.5983
11
95.7875
21
-57.5983
0
LINE
8
BLACK
6
CONTINUOUS
10
84.6455
20
-56.3883
11
82.1055
21
-56.3883
0
LINE
8
BLACK
6
CONTINUOUS
10
95.7875
20
-53.1983
11
86.4875
21
-53.1983
0
LINE
8
BLACK
6
CONTINUOUS
10
95.7875
20
-53.1983
11
95.7875
21
-57.5983
0
LINE
8
BLACK
6
CONTINUOUS
10
97.5995
20
-53.8483
11
97.5995
21
-56.3883
0
LINE
8
BLACK
6
CONTINUOUS
10
82.1055
20
-56.3883
11
82.1055
21
-58.9283
0
LINE
8
BLACK
6
CONTINUOUS
10
95.0595
20
-56.3883
11
95.0595
21
-53.8483
0
LINE
8
BLACK
6
CONTINUOUS
10
97.5995
20
-56.3883
11
95.0595
21
-56.3883
0
LINE
8
BLACK
6
CONTINUOUS
10
83.9875
20
-55.6983
11
83.9875
21
-59.5983
0
LINE
8
BLACK
6
CONTINUOUS
10
83.9875
20
-59.5983
11
88.0875
21
-59.5983
0
LINE
8
BLACK
6
CONTINUOUS
10
82.1055
20
-58.9283
11
84.6455
21
-58.9283
0
LINE
8
BLACK
6
CONTINUOUS
10
95.0595
20
-53.8483
11
97.5995
21
-53.8483
0
LINE
8
BLACK
6
CONTINUOUS
10
84.6455
20
-58.9283
11
84.6455
21
-56.3883
0
ARC
8
BLACK
10
90.0875
20
-59.5983
40
2
50
-270
51
-180
0
ARC
8
BLACK
10
86.4875
20
-55.6983
40
2.5
50
90
51
180
0
CIRCLE
8
BLACK
10
93.0275
20
-55.1183
40
1.524
0
CIRCLE
8
BLACK
10
86.6775
20
-57.6583
40
1.524
0
LINE
8
BLACK
6
CONTINUOUS
10
137.033
20
-36.6033
11
134.493
21
-36.6033
0
LINE
8
BLACK
6
CONTINUOUS
10
147.447
20
-36.6033
11
147.447
21
-34.0633
0
LINE
8
BLACK
6
CONTINUOUS
10
134.493
20
-36.6033
11
134.493
21
-39.1433
0
LINE
8
BLACK
6
CONTINUOUS
10
147.447
20
-34.0633
11
149.987
21
-34.0633
0
LINE
8
BLACK
6
CONTINUOUS
10
136.375
20
-39.8133
11
140.475
21
-39.8133
0
LINE
8
BLACK
6
CONTINUOUS
10
142.475
20
-37.8133
11
148.175
21
-37.8133
0
LINE
8
BLACK
6
CONTINUOUS
10
134.493
20
-39.1433
11
137.033
21
-39.1433
0
LINE
8
BLACK
6
CONTINUOUS
10
148.175
20
-33.4133
11
138.875
21
-33.4133
0
LINE
8
BLACK
6
CONTINUOUS
10
149.987
20
-34.0633
11
149.987
21
-36.6033
0
LINE
8
BLACK
6
CONTINUOUS
10
149.987
20
-36.6033
11
147.447
21
-36.6033
0
LINE
8
BLACK
6
CONTINUOUS
10
148.175
20
-33.4133
11
148.175
21
-37.8133
0
LINE
8
BLACK
6
CONTINUOUS
10
136.375
20
-35.9133
11
136.375
21
-39.8133
0
LINE
8
BLACK
6
CONTINUOUS
10
137.033
20
-39.1433
11
137.033
21
-36.6033
0
ARC
8
BLACK
10
142.475
20
-39.8133
40
2
50
-270
51
-180
0
ARC
8
BLACK
10
138.875
20
-35.9133
40
2.5
50
90
51
180
0
CIRCLE
8
BLACK
10
139.065
20
-37.8733
40
1.524
0
CIRCLE
8
BLACK
10
145.415
20
-35.3333
40
1.524
0
LINE
8
BLACK
6
CONTINUOUS
10
288.505
20
-88.9353
11
287.997
21
-88.9353
0
LINE
8
BLACK
6
CONTINUOUS
10
287.235
20
-88.9353
11
286.727
21
-88.9353
0
LINE
8
BLACK
6
CONTINUOUS
10
290.537
20
-88.9353
11
291.045
21
-88.9353
0
LINE
8
BLACK
6
CONTINUOUS
10
291.807
20
-88.9353
11
292.315
21
-88.9353
0
LINE
8
BLACK
6
CONTINUOUS
10
289.267
20
-88.9353
11
289.775
21
-88.9353
0
LINE
8
BLACK
6
CONTINUOUS
10
124.968
20
-97.3753
11
127.508
21
-97.3753
0
LINE
8
BLACK
6
CONTINUOUS
10
127.508
20
-97.3753
11
127.508
21
-99.9153
0
LINE
8
BLACK
6
CONTINUOUS
10
127.508
20
-99.9153
11
124.968
21
-99.9153
0
LINE
8
BLACK
6
CONTINUOUS
10
132.95
20
-98.5853
11
138.65
21
-98.5853
0
LINE
8
BLACK
6
CONTINUOUS
10
138.65
20
-94.1853
11
129.35
21
-94.1853
0
LINE
8
BLACK
6
CONTINUOUS
10
124.968
20
-99.9153
11
124.968
21
-97.3753
0
LINE
8
BLACK
6
CONTINUOUS
10
140.462
20
-94.8353
11
140.462
21
-97.3753
0
LINE
8
BLACK
6
CONTINUOUS
10
140.462
20
-97.3753
11
137.922
21
-97.3753
0
LINE
8
BLACK
6
CONTINUOUS
10
137.922
20
-97.3753
11
137.922
21
-94.8353
0
LINE
8
BLACK
6
CONTINUOUS
10
138.65
20
-94.1853
11
138.65
21
-98.5853
0
LINE
8
BLACK
6
CONTINUOUS
10
126.85
20
-100.585
11
130.95
21
-100.585
0
LINE
8
BLACK
6
CONTINUOUS
10
126.85
20
-96.6853
11
126.85
21
-100.585
0
LINE
8
BLACK
6
CONTINUOUS
10
137.922
20
-94.8353
11
140.462
21
-94.8353
0
ARC
8
BLACK
10
129.35
20
-96.6853
40
2.5
50
90
51
180
0
ARC
8
BLACK
10
132.95
20
-100.585
40
2
50
-270
51
-180
0
CIRCLE
8
BLACK
10
129.54
20
-98.6453
40
1.524
0
CIRCLE
8
BLACK
10
135.89
20
-96.1053
40
1.524
0
LINE
8
BLACK
6
CONTINUOUS
10
96.77
20
-11.485
11
96.262
21
-11.485
0
LINE
8
BLACK
6
CONTINUOUS
10
100.072
20
-11.485
11
100.58
21
-11.485
0
LINE
8
BLACK
6
CONTINUOUS
10
99.31
20
-11.485
11
98.802
21
-11.485
0
LINE
8
BLACK
6
CONTINUOUS
10
101.342
20
-11.485
11
101.85
21
-11.485
0
LINE
8
BLACK
6
CONTINUOUS
10
98.04
20
-11.485
11
97.532
21
-11.485
0
LINE
8
BLACK
6
CONTINUOUS
10
220.218
20
-18.515
11
222.758
21
-18.515
0
LINE
8
BLACK
6
CONTINUOUS
10
220.218
20
-15.975
11
220.218
21
-18.515
0
LINE
8
BLACK
6
CONTINUOUS
10
233.9
20
-12.785
11
224.6
21
-12.785
0
LINE
8
BLACK
6
CONTINUOUS
10
235.712
20
-15.975
11
233.172
21
-15.975
0
LINE
8
BLACK
6
CONTINUOUS
10
228.2
20
-17.185
11
233.9
21
-17.185
0
LINE
8
BLACK
6
CONTINUOUS
10
222.758
20
-15.975
11
220.218
21
-15.975
0
LINE
8
BLACK
6
CONTINUOUS
10
222.758
20
-18.515
11
222.758
21
-15.975
0
LINE
8
BLACK
6
CONTINUOUS
10
233.172
20
-13.435
11
235.712
21
-13.435
0
LINE
8
BLACK
6
CONTINUOUS
10
235.712
20
-13.435
11
235.712
21
-15.975
0
LINE
8
BLACK
6
CONTINUOUS
10
222.1
20
-19.185
11
226.2
21
-19.185
0
LINE
8
BLACK
6
CONTINUOUS
10
233.172
20
-15.975
11
233.172
21
-13.435
0
LINE
8
BLACK
6
CONTINUOUS
10
233.9
20
-12.785
11
233.9
21
-17.185
0
LINE
8
BLACK
6
CONTINUOUS
10
222.1
20
-15.285
11
222.1
21
-19.185
0
ARC
8
BLACK
10
228.2
20
-19.185
40
2
50
-270
51
-180
0
ARC
8
BLACK
10
224.6
20
-15.285
40
2.5
50
90
51
180
0
CIRCLE
8
BLACK
10
224.79
20
-17.245
40
1.524
0
CIRCLE
8
BLACK
10
231.14
20
-14.705
40
1.524
0
LINE
8
BLACK
6
CONTINUOUS
10
289.775
20
-92.8853
11
289.267
21
-92.8853
0
LINE
8
BLACK
6
CONTINUOUS
10
290.537
20
-92.8853
11
291.045
21
-92.8853
0
LINE
8
BLACK
6
CONTINUOUS
10
288.505
20
-92.8853
11
287.997
21
-92.8853
0
LINE
8
BLACK
6
CONTINUOUS
10
287.235
20
-92.8853
11
286.727
21
-92.8853
0
LINE
8
BLACK
6
CONTINUOUS
10
291.807
20
-92.8853
11
292.315
21
-92.8853
0
LINE
8
BLACK
6
CONTINUOUS
10
288.505
20
-28.0353
11
287.997
21
-28.0353
0
LINE
8
BLACK
6
CONTINUOUS
10
290.537
20
-28.0353
11
291.045
21
-28.0353
0
LINE
8
BLACK
6
CONTINUOUS
10
289.267
20
-28.0353
11
289.775
21
-28.0353
0
LINE
8
BLACK
6
CONTINUOUS
10
291.807
20
-28.0353
11
292.315
21
-28.0353
0
LINE
8
BLACK
6
CONTINUOUS
10
287.235
20
-28.0353
11
286.727
21
-28.0353
0
LINE
8
BLACK
6
CONTINUOUS
10
100.087
20
-48.7133
11
100.595
21
-48.7133
0
LINE
8
BLACK
6
CONTINUOUS
10
98.8174
20
-48.7133
11
99.3254
21
-48.7133
0
LINE
8
BLACK
6
CONTINUOUS
10
101.357
20
-48.7133
11
101.865
21
-48.7133
0
LINE
8
BLACK
6
CONTINUOUS
10
98.0554
20
-48.7133
11
97.5474
21
-48.7133
0
LINE
8
BLACK
6
CONTINUOUS
10
96.7854
20
-48.7133
11
96.2774
21
-48.7133
0
LINE
8
BLACK
6
CONTINUOUS
10
221.424
20
-97.3753
11
218.885
21
-97.3753
0
LINE
8
BLACK
6
CONTINUOUS
10
219.612
20
-94.1853
11
210.312
21
-94.1853
0
LINE
8
BLACK
6
CONTINUOUS
10
218.885
20
-97.3753
11
218.885
21
-94.8353
0
LINE
8
BLACK
6
CONTINUOUS
10
208.47
20
-99.9153
11
205.93
21
-99.9153
0
LINE
8
BLACK
6
CONTINUOUS
10
208.47
20
-97.3753
11
208.47
21
-99.9153
0
LINE
8
BLACK
6
CONTINUOUS
10
205.93
20
-99.9153
11
205.93
21
-97.3753
0
LINE
8
BLACK
6
CONTINUOUS
10
207.812
20
-96.6853
11
207.812
21
-100.585
0
LINE
8
BLACK
6
CONTINUOUS
10
207.812
20
-100.585
11
211.912
21
-100.585
0
LINE
8
BLACK
6
CONTINUOUS
10
213.912
20
-98.5853
11
219.612
21
-98.5853
0
LINE
8
BLACK
6
CONTINUOUS
10
219.612
20
-94.1853
11
219.612
21
-98.5853
0
LINE
8
BLACK
6
CONTINUOUS
10
205.93
20
-97.3753
11
208.47
21
-97.3753
0
LINE
8
BLACK
6
CONTINUOUS
10
221.424
20
-94.8353
11
221.424
21
-97.3753
0
LINE
8
BLACK
6
CONTINUOUS
10
218.885
20
-94.8353
11
221.424
21
-94.8353
0
ARC
8
BLACK
10
213.912
20
-100.585
40
2
50
-270
51
-180
0
ARC
8
BLACK
10
210.312
20
-96.6853
40
2.5
50
90
51
180
0
CIRCLE
8
BLACK
10
210.502
20
-98.6453
40
1.524
0
CIRCLE
8
BLACK
10
216.852
20
-96.1053
40
1.524
0
LINE
8
BLACK
6
CONTINUOUS
10
113.221
20
-79.3653
11
113.221
21
-76.8253
0
LINE
8
BLACK
6
CONTINUOUS
10
113.221
20
-76.8253
11
110.68
21
-76.8253
0
LINE
8
BLACK
6
CONTINUOUS
10
123.634
20
-76.8253
11
123.634
21
-74.2853
0
LINE
8
BLACK
6
CONTINUOUS
10
124.362
20
-73.6353
11
115.062
21
-73.6353
0
LINE
8
BLACK
6
CONTINUOUS
10
124.362
20
-73.6353
11
124.362
21
-78.0353
0
LINE
8
BLACK
6
CONTINUOUS
10
118.662
20
-78.0353
11
124.362
21
-78.0353
0
LINE
8
BLACK
6
CONTINUOUS
10
110.68
20
-76.8253
11
110.68
21
-79.3653
0
LINE
8
BLACK
6
CONTINUOUS
10
126.174
20
-74.2853
11
126.174
21
-76.8253
0
LINE
8
BLACK
6
CONTINUOUS
10
110.68
20
-79.3653
11
113.221
21
-79.3653
0
LINE
8
BLACK
6
CONTINUOUS
10
112.562
20
-76.1353
11
112.562
21
-80.0353
0
LINE
8
BLACK
6
CONTINUOUS
10
126.174
20
-76.8253
11
123.634
21
-76.8253
0
LINE
8
BLACK
6
CONTINUOUS
10
123.634
20
-74.2853
11
126.174
21
-74.2853
0
LINE
8
BLACK
6
CONTINUOUS
10
112.562
20
-80.0353
11
116.662
21
-80.0353
0
ARC
8
BLACK
10
118.662
20
-80.0353
40
2
50
-270
51
-180
0
ARC
8
BLACK
10
115.062
20
-76.1353
40
2.5
50
90
51
180
0
CIRCLE
8
BLACK
10
121.602
20
-75.5553
40
1.524
0
CIRCLE
8
BLACK
10
115.252
20
-78.0953
40
1.524
0
LINE
8
BLACK
6
CONTINUOUS
10
12.55
20
-15.285
11
12.55
21
-19.185
0
LINE
8
BLACK
6
CONTINUOUS
10
13.208
20
-15.975
11
10.668
21
-15.975
0
LINE
8
BLACK
6
CONTINUOUS
10
13.208
20
-18.515
11
13.208
21
-15.975
0
LINE
8
BLACK
6
CONTINUOUS
10
10.668
20
-18.515
11
13.208
21
-18.515
0
LINE
8
BLACK
6
CONTINUOUS
10
26.162
20
-13.435
11
26.162
21
-15.975
0
LINE
8
BLACK
6
CONTINUOUS
10
24.35
20
-12.785
11
15.05
21
-12.785
0
LINE
8
BLACK
6
CONTINUOUS
10
24.35
20
-12.785
11
24.35
21
-17.185
0
LINE
8
BLACK
6
CONTINUOUS
10
18.65
20
-17.185
11
24.35
21
-17.185
0
LINE
8
BLACK
6
CONTINUOUS
10
23.622
20
-15.975
11
23.622
21
-13.435
0
LINE
8
BLACK
6
CONTINUOUS
10
10.668
20
-15.975
11
10.668
21
-18.515
0
LINE
8
BLACK
6
CONTINUOUS
10
23.622
20
-13.435
11
26.162
21
-13.435
0
LINE
8
BLACK
6
CONTINUOUS
10
26.162
20
-15.975
11
23.622
21
-15.975
0
LINE
8
BLACK
6
CONTINUOUS
10
12.55
20
-19.185
11
16.65
21
-19.185
0
ARC
8
BLACK
10
15.05
20
-15.285
40
2.5
50
90
51
180
0
ARC
8
BLACK
10
18.65
20
-19.185
40
2
50
-270
51
-180
0
CIRCLE
8
BLACK
10
15.24
20
-17.245
40
1.524
0
CIRCLE
8
BLACK
10
21.59
20
-14.705
40
1.524
0
LINE
8
BLACK
6
CONTINUOUS
10
287.235
20
8.3
11
286.727
21
8.3
0
LINE
8
BLACK
6
CONTINUOUS
10
291.807
20
8.3
11
292.315
21
8.3
0
LINE
8
BLACK
6
CONTINUOUS
10
290.537
20
8.3
11
291.045
21
8.3
0
LINE
8
BLACK
6
CONTINUOUS
10
289.775
20
8.3
11
289.267
21
8.3
0
LINE
8
BLACK
6
CONTINUOUS
10
288.505
20
8.3
11
287.997
21
8.3
0
LINE
8
BLACK
6
CONTINUOUS
10
122.745
20
-58.9283
11
122.745
21
-56.3883
0
LINE
8
BLACK
6
CONTINUOUS
10
135.7
20
-53.8483
11
135.7
21
-56.3883
0
LINE
8
BLACK
6
CONTINUOUS
10
120.206
20
-56.3883
11
120.206
21
-58.9283
0
LINE
8
BLACK
6
CONTINUOUS
10
122.087
20
-59.5983
11
126.188
21
-59.5983
0
LINE
8
BLACK
6
CONTINUOUS
10
128.188
20
-57.5983
11
133.887
21
-57.5983
0
LINE
8
BLACK
6
CONTINUOUS
10
133.887
20
-53.1983
11
133.887
21
-57.5983
0
LINE
8
BLACK
6
CONTINUOUS
10
122.087
20
-55.6983
11
122.087
21
-59.5983
0
LINE
8
BLACK
6
CONTINUOUS
10
133.887
20
-53.1983
11
124.587
21
-53.1983
0
LINE
8
BLACK
6
CONTINUOUS
10
122.745
20
-56.3883
11
120.206
21
-56.3883
0
LINE
8
BLACK
6
CONTINUOUS
10
120.206
20
-58.9283
11
122.745
21
-58.9283
0
LINE
8
BLACK
6
CONTINUOUS
10
133.159
20
-53.8483
11
135.7
21
-53.8483
0
LINE
8
BLACK
6
CONTINUOUS
10
135.7
20
-56.3883
11
133.159
21
-56.3883
0
LINE
8
BLACK
6
CONTINUOUS
10
133.159
20
-56.3883
11
133.159
21
-53.8483
0
ARC
8
BLACK
10
128.187
20
-59.5983
40
2
50
-270
51
-180
0
ARC
8
BLACK
10
124.587
20
-55.6983
40
2.5
50
90
51
180
0
CIRCLE
8
BLACK
10
124.777
20
-57.6583
40
1.524
0
CIRCLE
8
BLACK
10
131.127
20
-55.1183
40
1.524
0
LINE
8
BLACK
6
CONTINUOUS
10
42.672
20
-13.435
11
45.212
21
-13.435
0
LINE
8
BLACK
6
CONTINUOUS
10
42.672
20
-15.975
11
42.672
21
-13.435
0
LINE
8
BLACK
6
CONTINUOUS
10
29.718
20
-18.515
11
32.258
21
-18.515
0
LINE
8
BLACK
6
CONTINUOUS
10
43.4
20
-12.785
11
43.4
21
-17.185
0
LINE
8
BLACK
6
CONTINUOUS
10
43.4
20
-12.785
11
34.1
21
-12.785
0
LINE
8
BLACK
6
CONTINUOUS
10
31.6
20
-15.285
11
31.6
21
-19.185
0
LINE
8
BLACK
6
CONTINUOUS
10
32.258
20
-15.975
11
29.718
21
-15.975
0
LINE
8
BLACK
6
CONTINUOUS
10
29.718
20
-15.975
11
29.718
21
-18.515
0
LINE
8
BLACK
6
CONTINUOUS
10
37.7
20
-17.185
11
43.4
21
-17.185
0
LINE
8
BLACK
6
CONTINUOUS
10
45.212
20
-15.975
11
42.672
21
-15.975
0
LINE
8
BLACK
6
CONTINUOUS
10
32.258
20
-18.515
11
32.258
21
-15.975
0
LINE
8
BLACK
6
CONTINUOUS
10
31.6
20
-19.185
11
35.7
21
-19.185
0
LINE
8
BLACK
6
CONTINUOUS
10
45.212
20
-13.435
11
45.212
21
-15.975
0
ARC
8
BLACK
10
37.7
20
-19.185
40
2
50
-270
51
-180
0
ARC
8
BLACK
10
34.1
20
-15.285
40
2.5
50
90
51
180
0
CIRCLE
8
BLACK
10
40.64
20
-14.705
40
1.524
0
CIRCLE
8
BLACK
10
34.29
20
-17.245
40
1.524
0
LINE
8
BLACK
6
CONTINUOUS
10
143.412
20
-73.6353
11
143.412
21
-78.0353
0
LINE
8
BLACK
6
CONTINUOUS
10
142.684
20
-76.8253
11
142.684
21
-74.2853
0
LINE
8
BLACK
6
CONTINUOUS
10
137.713
20
-78.0353
11
143.412
21
-78.0353
0
LINE
8
BLACK
6
CONTINUOUS
10
131.612
20
-80.0353
11
135.713
21
-80.0353
0
LINE
8
BLACK
6
CONTINUOUS
10
145.225
20
-74.2853
11
145.225
21
-76.8253
0
LINE
8
BLACK
6
CONTINUOUS
10
129.731
20
-79.3653
11
132.27
21
-79.3653
0
LINE
8
BLACK
6
CONTINUOUS
10
142.684
20
-74.2853
11
145.225
21
-74.2853
0
LINE
8
BLACK
6
CONTINUOUS
10
143.412
20
-73.6353
11
134.112
21
-73.6353
0
LINE
8
BLACK
6
CONTINUOUS
10
132.27
20
-79.3653
11
132.27
21
-76.8253
0
LINE
8
BLACK
6
CONTINUOUS
10
131.612
20
-76.1353
11
131.612
21
-80.0353
0
LINE
8
BLACK
6
CONTINUOUS
10
145.225
20
-76.8253
11
142.684
21
-76.8253
0
LINE
8
BLACK
6
CONTINUOUS
10
132.27
20
-76.8253
11
129.731
21
-76.8253
0
LINE
8
BLACK
6
CONTINUOUS
10
129.731
20
-76.8253
11
129.731
21
-79.3653
0
ARC
8
BLACK
10
134.112
20
-76.1353
40
2.5
50
90
51
180
0
ARC
8
BLACK
10
137.712
20
-80.0353
40
2
50
-270
51
-180
0
CIRCLE
8
BLACK
10
134.302
20
-78.0953
40
1.524
0
CIRCLE
8
BLACK
10
140.653
20
-75.5553
40
1.524
0
LINE
8
BLACK
6
CONTINUOUS
10
200.562
20
-73.6353
11
200.562
21
-78.0353
0
LINE
8
BLACK
6
CONTINUOUS
10
202.374
20
-74.2853
11
202.374
21
-76.8253
0
LINE
8
BLACK
6
CONTINUOUS
10
200.562
20
-73.6353
11
191.262
21
-73.6353
0
LINE
8
BLACK
6
CONTINUOUS
10
194.862
20
-78.0353
11
200.562
21
-78.0353
0
LINE
8
BLACK
6
CONTINUOUS
10
186.88
20
-79.3653
11
189.421
21
-79.3653
0
LINE
8
BLACK
6
CONTINUOUS
10
202.374
20
-76.8253
11
199.834
21
-76.8253
0
LINE
8
BLACK
6
CONTINUOUS
10
188.762
20
-80.0353
11
192.862
21
-80.0353
0
LINE
8
BLACK
6
CONTINUOUS
10
199.834
20
-76.8253
11
199.834
21
-74.2853
0
LINE
8
BLACK
6
CONTINUOUS
10
199.834
20
-74.2853
11
202.374
21
-74.2853
0
LINE
8
BLACK
6
CONTINUOUS
10
188.762
20
-76.1353
11
188.762
21
-80.0353
0
LINE
8
BLACK
6
CONTINUOUS
10
189.421
20
-79.3653
11
189.421
21
-76.8253
0
LINE
8
BLACK
6
CONTINUOUS
10
186.88
20
-76.8253
11
186.88
21
-79.3653
0
LINE
8
BLACK
6
CONTINUOUS
10
189.421
20
-76.8253
11
186.88
21
-76.8253
0
ARC
8
BLACK
10
191.262
20
-76.1353
40
2.5
50
90
51
180
0
ARC
8
BLACK
10
194.862
20
-80.0353
40
2
50
-270
51
-180
0
CIRCLE
8
BLACK
10
191.452
20
-78.0953
40
1.524
0
CIRCLE
8
BLACK
10
197.802
20
-75.5553
40
1.524
0
LINE
8
BLACK
6
CONTINUOUS
10
77.343
20
-39.1433
11
79.883
21
-39.1433
0
LINE
8
BLACK
6
CONTINUOUS
10
79.225
20
-35.9133
11
79.225
21
-39.8133
0
LINE
8
BLACK
6
CONTINUOUS
10
90.297
20
-36.6033
11
90.297
21
-34.0633
0
LINE
8
BLACK
6
CONTINUOUS
10
92.837
20
-34.0633
11
92.837
21
-36.6033
0
LINE
8
BLACK
6
CONTINUOUS
10
85.325
20
-37.8133
11
91.025
21
-37.8133
0
LINE
8
BLACK
6
CONTINUOUS
10
77.343
20
-36.6033
11
77.343
21
-39.1433
0
LINE
8
BLACK
6
CONTINUOUS
10
79.883
20
-36.6033
11
77.343
21
-36.6033
0
LINE
8
BLACK
6
CONTINUOUS
10
91.025
20
-33.4133
11
81.725
21
-33.4133
0
LINE
8
BLACK
6
CONTINUOUS
10
79.883
20
-39.1433
11
79.883
21
-36.6033
0
LINE
8
BLACK
6
CONTINUOUS
10
92.837
20
-36.6033
11
90.297
21
-36.6033
0
LINE
8
BLACK
6
CONTINUOUS
10
90.297
20
-34.0633
11
92.837
21
-34.0633
0
LINE
8
BLACK
6
CONTINUOUS
10
79.225
20
-39.8133
11
83.325
21
-39.8133
0
LINE
8
BLACK
6
CONTINUOUS
10
91.025
20
-33.4133
11
91.025
21
-37.8133
0
ARC
8
BLACK
10
81.725
20
-35.9133
40
2.5
50
90
51
180
0
ARC
8
BLACK
10
85.325
20
-39.8133
40
2
50
-270
51
-180
0
CIRCLE
8
BLACK
10
88.265
20
-35.3333
40
1.524
0
CIRCLE
8
BLACK
10
81.915
20
-37.8733
40
1.524
0
LINE
8
BLACK
6
CONTINUOUS
10
-21.525
20
17.589
11
-21.525
21
17.081
0
LINE
8
BLACK
6
CONTINUOUS
10
-21.525
20
20.891
11
-21.525
21
21.399
0
LINE
8
BLACK
6
CONTINUOUS
10
-21.525
20
20.129
11
-21.525
21
19.621
0
LINE
8
BLACK
6
CONTINUOUS
10
-21.525
20
22.161
11
-21.525
21
22.669
0
LINE
8
BLACK
6
CONTINUOUS
10
-21.525
20
18.859
11
-21.525
21
18.351
0
LINE
8
BLACK
6
CONTINUOUS
10
-21.525
20
-103.471
11
-21.525
21
-103.979
0
LINE
8
BLACK
6
CONTINUOUS
10
-21.525
20
-102.201
11
-21.525
21
-102.709
0
LINE
8
BLACK
6
CONTINUOUS
10
-21.525
20
-100.169
11
-21.525
21
-99.6613
0
LINE
8
BLACK
6
CONTINUOUS
10
-21.525
20
-100.931
11
-21.525
21
-101.439
0
LINE
8
BLACK
6
CONTINUOUS
10
-21.525
20
-98.8993
11
-21.525
21
-98.3913
0
LINE
8
BLACK
6
CONTINUOUS
10
350.375
20
-81.5513
11
350.375
21
-82.0593
0
LINE
8
BLACK
6
CONTINUOUS
10
350.375
20
-82.8213
11
350.375
21
-83.3293
0
LINE
8
BLACK
6
CONTINUOUS
10
350.375
20
-78.2493
11
350.375
21
-77.7413
0
LINE
8
BLACK
6
CONTINUOUS
10
350.375
20
-80.7893
11
350.375
21
-80.2813
0
LINE
8
BLACK
6
CONTINUOUS
10
350.375
20
-79.5193
11
350.375
21
-79.0113
0
LINE
8
BLACK
6
CONTINUOUS
10
96.7854
20
-51.8983
11
96.2774
21
-51.8983
0
LINE
8
BLACK
6
CONTINUOUS
10
98.0554
20
-51.8983
11
97.5474
21
-51.8983
0
LINE
8
BLACK
6
CONTINUOUS
10
100.087
20
-51.8983
11
100.595
21
-51.8983
0
LINE
8
BLACK
6
CONTINUOUS
10
99.3254
20
-51.8983
11
98.8174
21
-51.8983
0
LINE
8
BLACK
6
CONTINUOUS
10
101.357
20
-51.8983
11
101.865
21
-51.8983
0
LINE
8
BLACK
6
CONTINUOUS
10
96.7854
20
-32.1129
11
96.2774
21
-32.1129
0
LINE
8
BLACK
6
CONTINUOUS
10
98.0554
20
-32.1129
11
97.5474
21
-32.1129
0
LINE
8
BLACK
6
CONTINUOUS
10
99.3254
20
-32.1129
11
98.8174
21
-32.1129
0
LINE
8
BLACK
6
CONTINUOUS
10
100.087
20
-32.1129
11
100.595
21
-32.1129
0
LINE
8
BLACK
6
CONTINUOUS
10
101.357
20
-32.1129
11
101.865
21
-32.1129
0
LINE
8
BLACK
6
CONTINUOUS
10
175.133
20
-36.6033
11
172.593
21
-36.6033
0
LINE
8
BLACK
6
CONTINUOUS
10
174.475
20
-35.9133
11
174.475
21
-39.8133
0
LINE
8
BLACK
6
CONTINUOUS
10
185.547
20
-34.0633
11
188.087
21
-34.0633
0
LINE
8
BLACK
6
CONTINUOUS
10
185.547
20
-36.6033
11
185.547
21
-34.0633
0
LINE
8
BLACK
6
CONTINUOUS
10
175.133
20
-39.1433
11
175.133
21
-36.6033
0
LINE
8
BLACK
6
CONTINUOUS
10
188.087
20
-34.0633
11
188.087
21
-36.6033
0
LINE
8
BLACK
6
CONTINUOUS
10
186.275
20
-33.4133
11
176.975
21
-33.4133
0
LINE
8
BLACK
6
CONTINUOUS
10
174.475
20
-39.8133
11
178.575
21
-39.8133
0
LINE
8
BLACK
6
CONTINUOUS
10
188.087
20
-36.6033
11
185.547
21
-36.6033
0
LINE
8
BLACK
6
CONTINUOUS
10
172.593
20
-36.6033
11
172.593
21
-39.1433
0
LINE
8
BLACK
6
CONTINUOUS
10
180.575
20
-37.8133
11
186.275
21
-37.8133
0
LINE
8
BLACK
6
CONTINUOUS
10
172.593
20
-39.1433
11
175.133
21
-39.1433
0
LINE
8
BLACK
6
CONTINUOUS
10
186.275
20
-33.4133
11
186.275
21
-37.8133
0
ARC
8
BLACK
10
180.575
20
-39.8133
40
2
50
-270
51
-180
0
ARC
8
BLACK
10
176.975
20
-35.9133
40
2.5
50
90
51
180
0
CIRCLE
8
BLACK
10
177.165
20
-37.8733
40
1.524
0
CIRCLE
8
BLACK
10
183.515
20
-35.3333
40
1.524
0
LINE
8
BLACK
6
CONTINUOUS
10
287.235
20
-68.4983
11
286.727
21
-68.4983
0
LINE
8
BLACK
6
CONTINUOUS
10
289.267
20
-68.4983
11
289.775
21
-68.4983
0
LINE
8
BLACK
6
CONTINUOUS
10
291.807
20
-68.4983
11
292.315
21
-68.4983
0
LINE
8
BLACK
6
CONTINUOUS
10
290.537
20
-68.4983
11
291.045
21
-68.4983
0
LINE
8
BLACK
6
CONTINUOUS
10
288.505
20
-68.4983
11
287.997
21
-68.4983
0
LINE
8
BLACK
6
CONTINUOUS
10
288.505
20
-48.7133
11
287.997
21
-48.7133
0
LINE
8
BLACK
6
CONTINUOUS
10
290.537
20
-48.7133
11
291.045
21
-48.7133
0
LINE
8
BLACK
6
CONTINUOUS
10
291.807
20
-48.7133
11
292.315
21
-48.7133
0
LINE
8
BLACK
6
CONTINUOUS
10
287.235
20
-48.7133
11
286.727
21
-48.7133
0
LINE
8
BLACK
6
CONTINUOUS
10
289.267
20
-48.7133
11
289.775
21
-48.7133
0
LINE
8
BLACK
6
CONTINUOUS
10
64.262
20
3.81
11
61.722
21
3.81
0
LINE
8
BLACK
6
CONTINUOUS
10
64.262
20
6.35
11
64.262
21
3.81
0
LINE
8
BLACK
6
CONTINUOUS
10
50.65
20
0.6
11
54.75
21
0.6
0
LINE
8
BLACK
6
CONTINUOUS
10
62.45
20
7
11
62.45
21
2.6
0
LINE
8
BLACK
6
CONTINUOUS
10
48.768
20
3.81
11
48.768
21
1.27
0
LINE
8
BLACK
6
CONTINUOUS
10
61.722
20
6.35
11
64.262
21
6.35
0
LINE
8
BLACK
6
CONTINUOUS
10
56.75
20
2.6
11
62.45
21
2.6
0
LINE
8
BLACK
6
CONTINUOUS
10
51.308
20
3.81
11
48.768
21
3.81
0
LINE
8
BLACK
6
CONTINUOUS
10
50.65
20
4.5
11
50.65
21
0.6
0
LINE
8
BLACK
6
CONTINUOUS
10
48.768
20
1.27
11
51.308
21
1.27
0
LINE
8
BLACK
6
CONTINUOUS
10
61.722
20
3.81
11
61.722
21
6.35
0
LINE
8
BLACK
6
CONTINUOUS
10
62.45
20
7
11
53.15
21
7
0
LINE
8
BLACK
6
CONTINUOUS
10
51.308
20
1.27
11
51.308
21
3.81
0
ARC
8
BLACK
10
56.75
20
0.600001
40
2
50
-270
51
-180
0
ARC
8
BLACK
10
53.15
20
4.5
40
2.5
50
90
51
180
0
CIRCLE
8
BLACK
10
53.34
20
2.54
40
1.524
0
CIRCLE
8
BLACK
10
59.69
20
5.08
40
1.524
0
LINE
8
BLACK
6
CONTINUOUS
10
171.26
20
-53.8483
11
173.799
21
-53.8483
0
LINE
8
BLACK
6
CONTINUOUS
10
173.799
20
-56.3883
11
171.26
21
-56.3883
0
LINE
8
BLACK
6
CONTINUOUS
10
171.987
20
-53.1983
11
162.688
21
-53.1983
0
LINE
8
BLACK
6
CONTINUOUS
10
158.305
20
-58.9283
11
160.845
21
-58.9283
0
LINE
8
BLACK
6
CONTINUOUS
10
160.188
20
-59.5983
11
164.287
21
-59.5983
0
LINE
8
BLACK
6
CONTINUOUS
10
173.799
20
-53.8483
11
173.799
21
-56.3883
0
LINE
8
BLACK
6
CONTINUOUS
10
160.188
20
-55.6983
11
160.188
21
-59.5983
0
LINE
8
BLACK
6
CONTINUOUS
10
171.26
20
-56.3883
11
171.26
21
-53.8483
0
LINE
8
BLACK
6
CONTINUOUS
10
158.305
20
-56.3883
11
158.305
21
-58.9283
0
LINE
8
BLACK
6
CONTINUOUS
10
171.987
20
-53.1983
11
171.987
21
-57.5983
0
LINE
8
BLACK
6
CONTINUOUS
10
160.845
20
-56.3883
11
158.305
21
-56.3883
0
LINE
8
BLACK
6
CONTINUOUS
10
166.287
20
-57.5983
11
171.987
21
-57.5983
0
LINE
8
BLACK
6
CONTINUOUS
10
160.845
20
-58.9283
11
160.845
21
-56.3883
0
ARC
8
BLACK
10
162.688
20
-55.6983
40
2.5
50
90
51
180
0
ARC
8
BLACK
10
166.287
20
-59.5983
40
2
50
-270
51
-180
0
CIRCLE
8
BLACK
10
162.877
20
-57.6583
40
1.524
0
CIRCLE
8
BLACK
10
169.227
20
-55.1183
40
1.524
0
LINE
8
BLACK
6
CONTINUOUS
10
303.958
20
-99.9153
11
303.958
21
-97.3753
0
LINE
8
BLACK
6
CONTINUOUS
10
314.372
20
-97.3753
11
314.372
21
-94.8353
0
LINE
8
BLACK
6
CONTINUOUS
10
315.1
20
-94.1853
11
305.8
21
-94.1853
0
LINE
8
BLACK
6
CONTINUOUS
10
315.1
20
-94.1853
11
315.1
21
-98.5853
0
LINE
8
BLACK
6
CONTINUOUS
10
309.4
20
-98.5853
11
315.1
21
-98.5853
0
LINE
8
BLACK
6
CONTINUOUS
10
301.418
20
-97.3753
11
301.418
21
-99.9153
0
LINE
8
BLACK
6
CONTINUOUS
10
301.418
20
-99.9153
11
303.958
21
-99.9153
0
LINE
8
BLACK
6
CONTINUOUS
10
314.372
20
-94.8353
11
316.912
21
-94.8353
0
LINE
8
BLACK
6
CONTINUOUS
10
303.3
20
-100.585
11
307.4
21
-100.585
0
LINE
8
BLACK
6
CONTINUOUS
10
303.3
20
-96.6853
11
303.3
21
-100.585
0
LINE
8
BLACK
6
CONTINUOUS
10
316.912
20
-94.8353
11
316.912
21
-97.3753
0
LINE
8
BLACK
6
CONTINUOUS
10
303.958
20
-97.3753
11
301.418
21
-97.3753
0
LINE
8
BLACK
6
CONTINUOUS
10
316.912
20
-97.3753
11
314.372
21
-97.3753
0
ARC
8
BLACK
10
309.4
20
-100.585
40
2
50
-270
51
-180
0
ARC
8
BLACK
10
305.8
20
-96.6853
40
2.5
50
90
51
180
0
CIRCLE
8
BLACK
10
305.99
20
-98.6453
40
1.524
0
CIRCLE
8
BLACK
10
312.34
20
-96.1053
40
1.524
0
LINE
8
BLACK
6
CONTINUOUS
10
94.2333
20
-79.3653
11
94.2333
21
-76.8253
0
LINE
8
BLACK
6
CONTINUOUS
10
105.375
20
-73.6353
11
105.375
21
-78.0353
0
LINE
8
BLACK
6
CONTINUOUS
10
91.6933
20
-76.8253
11
91.6933
21
-79.3653
0
LINE
8
BLACK
6
CONTINUOUS
10
105.375
20
-73.6353
11
96.0753
21
-73.6353
0
LINE
8
BLACK
6
CONTINUOUS
10
93.5753
20
-80.0353
11
97.6753
21
-80.0353
0
LINE
8
BLACK
6
CONTINUOUS
10
91.6933
20
-79.3653
11
94.2333
21
-79.3653
0
LINE
8
BLACK
6
CONTINUOUS
10
94.2333
20
-76.8253
11
91.6933
21
-76.8253
0
LINE
8
BLACK
6
CONTINUOUS
10
104.647
20
-74.2853
11
107.187
21
-74.2853
0
LINE
8
BLACK
6
CONTINUOUS
10
93.5753
20
-76.1353
11
93.5753
21
-80.0353
0
LINE
8
BLACK
6
CONTINUOUS
10
104.647
20
-76.8253
11
104.647
21
-74.2853
0
LINE
8
BLACK
6
CONTINUOUS
10
107.187
20
-74.2853
11
107.187
21
-76.8253
0
LINE
8
BLACK
6
CONTINUOUS
10
107.187
20
-76.8253
11
104.647
21
-76.8253
0
LINE
8
BLACK
6
CONTINUOUS
10
99.6753
20
-78.0353
11
105.375
21
-78.0353
0
ARC
8
BLACK
10
99.6753
20
-80.0353
40
2
50
-270
51
-180
0
ARC
8
BLACK
10
96.0753
20
-76.1353
40
2.5
50
90
51
180
0
CIRCLE
8
BLACK
10
96.2653
20
-78.0953
40
1.524
0
CIRCLE
8
BLACK
10
102.615
20
-75.5553
40
1.524
0
LINE
8
BLACK
6
CONTINUOUS
10
231.625
20
-35.9133
11
231.625
21
-39.8133
0
LINE
8
BLACK
6
CONTINUOUS
10
242.697
20
-36.6033
11
242.697
21
-34.0633
0
LINE
8
BLACK
6
CONTINUOUS
10
237.725
20
-37.8133
11
243.425
21
-37.8133
0
LINE
8
BLACK
6
CONTINUOUS
10
229.743
20
-39.1433
11
232.283
21
-39.1433
0
LINE
8
BLACK
6
CONTINUOUS
10
232.283
20
-39.1433
11
232.283
21
-36.6033
0
LINE
8
BLACK
6
CONTINUOUS
10
245.237
20
-36.6033
11
242.697
21
-36.6033
0
LINE
8
BLACK
6
CONTINUOUS
10
243.425
20
-33.4133
11
243.425
21
-37.8133
0
LINE
8
BLACK
6
CONTINUOUS
10
232.283
20
-36.6033
11
229.743
21
-36.6033
0
LINE
8
BLACK
6
CONTINUOUS
10
245.237
20
-34.0633
11
245.237
21
-36.6033
0
LINE
8
BLACK
6
CONTINUOUS
10
242.697
20
-34.0633
11
245.237
21
-34.0633
0
LINE
8
BLACK
6
CONTINUOUS
10
229.743
20
-36.6033
11
229.743
21
-39.1433
0
LINE
8
BLACK
6
CONTINUOUS
10
243.425
20
-33.4133
11
234.125
21
-33.4133
0
LINE
8
BLACK
6
CONTINUOUS
10
231.625
20
-39.8133
11
235.725
21
-39.8133
0
ARC
8
BLACK
10
237.725
20
-39.8133
40
2
50
-270
51
-180
0
ARC
8
BLACK
10
234.125
20
-35.9133
40
2.5
50
90
51
180
0
CIRCLE
8
BLACK
10
234.315
20
-37.8733
40
1.524
0
CIRCLE
8
BLACK
10
240.665
20
-35.3333
40
1.524
0
LINE
8
BLACK
6
CONTINUOUS
10
296.05
20
-33.4133
11
296.05
21
-37.8133
0
LINE
8
BLACK
6
CONTINUOUS
10
290.35
20
-37.8133
11
296.05
21
-37.8133
0
LINE
8
BLACK
6
CONTINUOUS
10
295.322
20
-34.0633
11
297.862
21
-34.0633
0
LINE
8
BLACK
6
CONTINUOUS
10
284.25
20
-39.8133
11
288.35
21
-39.8133
0
LINE
8
BLACK
6
CONTINUOUS
10
282.368
20
-36.6033
11
282.368
21
-39.1433
0
LINE
8
BLACK
6
CONTINUOUS
10
297.862
20
-36.6033
11
295.322
21
-36.6033
0
LINE
8
BLACK
6
CONTINUOUS
10
284.25
20
-35.9133
11
284.25
21
-39.8133
0
LINE
8
BLACK
6
CONTINUOUS
10
295.322
20
-36.6033
11
295.322
21
-34.0633
0
LINE
8
BLACK
6
CONTINUOUS
10
282.368
20
-39.1433
11
284.908
21
-39.1433
0
LINE
8
BLACK
6
CONTINUOUS
10
297.862
20
-34.0633
11
297.862
21
-36.6033
0
LINE
8
BLACK
6
CONTINUOUS
10
284.908
20
-39.1433
11
284.908
21
-36.6033
0
LINE
8
BLACK
6
CONTINUOUS
10
296.05
20
-33.4133
11
286.75
21
-33.4133
0
LINE
8
BLACK
6
CONTINUOUS
10
284.908
20
-36.6033
11
282.368
21
-36.6033
0
ARC
8
BLACK
10
286.75
20
-35.9133
40
2.5
50
90
51
180
0
ARC
8
BLACK
10
290.35
20
-39.8133
40
2
50
-270
51
-180
0
CIRCLE
8
BLACK
10
293.29
20
-35.3333
40
1.524
0
CIRCLE
8
BLACK
10
286.94
20
-37.8733
40
1.524
0
LINE
8
BLACK
6
CONTINUOUS
10
-21.525
20
1.016
11
-21.525
21
1.524
0
LINE
8
BLACK
6
CONTINUOUS
10
-21.525
20
-1.016
11
-21.525
21
-1.524
0
LINE
8
BLACK
6
CONTINUOUS
10
-21.525
20
-2.286
11
-21.525
21
-2.794
0
LINE
8
BLACK
6
CONTINUOUS
10
-21.525
20
2.286
11
-21.525
21
2.794
0
LINE
8
BLACK
6
CONTINUOUS
10
-21.525
20
0.254
11
-21.525
21
-0.254
0
LINE
8
BLACK
6
CONTINUOUS
10
98.0554
20
10.3
11
97.5474
21
10.3
0
LINE
8
BLACK
6
CONTINUOUS
10
98.8174
20
10.3
11
99.3254
21
10.3
0
LINE
8
BLACK
6
CONTINUOUS
10
101.357
20
10.3
11
101.865
21
10.3
0
LINE
8
BLACK
6
CONTINUOUS
10
100.087
20
10.3
11
100.595
21
10.3
0
LINE
8
BLACK
6
CONTINUOUS
10
96.7854
20
10.3
11
96.2774
21
10.3
0
LINE
8
BLACK
6
CONTINUOUS
10
316.912
20
-76.8253
11
314.372
21
-76.8253
0
LINE
8
BLACK
6
CONTINUOUS
10
314.372
20
-74.2853
11
316.912
21
-74.2853
0
LINE
8
BLACK
6
CONTINUOUS
10
309.4
20
-78.0353
11
315.1
21
-78.0353
0
LINE
8
BLACK
6
CONTINUOUS
10
316.912
20
-74.2853
11
316.912
21
-76.8253
0
LINE
8
BLACK
6
CONTINUOUS
10
303.3
20
-76.1353
11
303.3
21
-80.0353
0
LINE
8
BLACK
6
CONTINUOUS
10
301.418
20
-76.8253
11
301.418
21
-79.3653
0
LINE
8
BLACK
6
CONTINUOUS
10
303.3
20
-80.0353
11
307.4
21
-80.0353
0
LINE
8
BLACK
6
CONTINUOUS
10
303.958
20
-79.3653
11
303.958
21
-76.8253
0
LINE
8
BLACK
6
CONTINUOUS
10
315.1
20
-73.6353
11
315.1
21
-78.0353
0
LINE
8
BLACK
6
CONTINUOUS
10
314.372
20
-76.8253
11
314.372
21
-74.2853
0
LINE
8
BLACK
6
CONTINUOUS
10
315.1
20
-73.6353
11
305.8
21
-73.6353
0
LINE
8
BLACK
6
CONTINUOUS
10
301.418
20
-79.3653
11
303.958
21
-79.3653
0
LINE
8
BLACK
6
CONTINUOUS
10
303.958
20
-76.8253
11
301.418
21
-76.8253
0
ARC
8
BLACK
10
305.8
20
-76.1353
40
2.5
50
90
51
180
0
ARC
8
BLACK
10
309.4
20
-80.0353
40
2
50
-270
51
-180
0
CIRCLE
8
BLACK
10
312.34
20
-75.5553
40
1.524
0
CIRCLE
8
BLACK
10
305.99
20
-78.0953
40
1.524
0
LINE
8
BLACK
6
CONTINUOUS
10
96.393
20
-39.1433
11
98.933
21
-39.1433
0
LINE
8
BLACK
6
CONTINUOUS
10
98.933
20
-36.6033
11
96.393
21
-36.6033
0
LINE
8
BLACK
6
CONTINUOUS
10
110.075
20
-33.4133
11
100.775
21
-33.4133
0
LINE
8
BLACK
6
CONTINUOUS
10
111.887
20
-36.6033
11
109.347
21
-36.6033
0
LINE
8
BLACK
6
CONTINUOUS
10
98.933
20
-39.1433
11
98.933
21
-36.6033
0
LINE
8
BLACK
6
CONTINUOUS
10
109.347
20
-36.6033
11
109.347
21
-34.0633
0
LINE
8
BLACK
6
CONTINUOUS
10
111.887
20
-34.0633
11
111.887
21
-36.6033
0
LINE
8
BLACK
6
CONTINUOUS
10
96.393
20
-36.6033
11
96.393
21
-39.1433
0
LINE
8
BLACK
6
CONTINUOUS
10
98.275
20
-35.9133
11
98.275
21
-39.8133
0
LINE
8
BLACK
6
CONTINUOUS
10
109.347
20
-34.0633
11
111.887
21
-34.0633
0
LINE
8
BLACK
6
CONTINUOUS
10
104.375
20
-37.8133
11
110.075
21
-37.8133
0
LINE
8
BLACK
6
CONTINUOUS
10
110.075
20
-33.4133
11
110.075
21
-37.8133
0
LINE
8
BLACK
6
CONTINUOUS
10
98.275
20
-39.8133
11
102.375
21
-39.8133
0
ARC
8
BLACK
10
100.775
20
-35.9133
40
2.5
50
90
51
180
0
ARC
8
BLACK
10
104.375
20
-39.8133
40
2
50
-270
51
-180
0
CIRCLE
8
BLACK
10
107.315
20
-35.3333
40
1.524
0
CIRCLE
8
BLACK
10
100.965
20
-37.8733
40
1.524
0
LINE
8
BLACK
6
CONTINUOUS
10
14.4125
20
-42.7633
11
14.4125
21
-38.0633
0
LINE
8
BLACK
6
CONTINUOUS
10
14.4125
20
-38.0633
11
12.1125
21
-38.0633
0
LINE
8
BLACK
6
CONTINUOUS
10
14.4125
20
-42.7633
11
12.1125
21
-42.7633
0
LINE
8
BLACK
6
CONTINUOUS
10
12.1125
20
-38.0633
11
12.1125
21
-42.7633
0
LINE
8
BLACK
6
CONTINUOUS
10
85.85
20
-2.35
11
83.55
21
-2.35
0
LINE
8
BLACK
6
CONTINUOUS
10
85.85
20
-2.35
11
85.85
21
2.35
0
LINE
8
BLACK
6
CONTINUOUS
10
83.55
20
2.35
11
83.55
21
-2.35
0
LINE
8
BLACK
6
CONTINUOUS
10
85.85
20
2.35
11
83.55
21
2.35
0
LINE
8
BLACK
6
CONTINUOUS
10
350.375
20
-80.2353
11
338.275
21
-80.2353
0
LINE
8
BLACK
6
CONTINUOUS
10
338.275
20
-72.3353
11
350.375
21
-72.3353
0
LINE
8
BLACK
6
CONTINUOUS
10
338.275
20
-80.2353
11
338.275
21
-72.3353
0
LINE
8
BLACK
6
CONTINUOUS
10
350.375
20
-72.3353
11
350.375
21
-80.2353
0
LINE
8
BLACK
6
CONTINUOUS
10
234.85
20
33.15
11
234.85
21
28.45
0
LINE
8
BLACK
6
CONTINUOUS
10
234.85
20
28.45
11
237.15
21
28.45
0
LINE
8
BLACK
6
CONTINUOUS
10
234.85
20
33.15
11
237.15
21
33.15
0
LINE
8
BLACK
6
CONTINUOUS
10
237.15
20
28.45
11
237.15
21
33.15
0
LINE
8
BLACK
6
CONTINUOUS
10
-9.425
20
-0.4
11
-9.425
21
-8.3
0
LINE
8
BLACK
6
CONTINUOUS
10
-9.425
20
-8.3
11
-21.525
21
-8.3
0
LINE
8
BLACK
6
CONTINUOUS
10
-21.525
20
-8.3
11
-21.525
21
-0.4
0
LINE
8
BLACK
6
CONTINUOUS
10
-21.525
20
-0.4
11
-9.425
21
-0.4
0
LINE
8
BLACK
6
CONTINUOUS
10
-9.425
20
-40.8133
11
-9.425
21
-48.7133
0
LINE
8
BLACK
6
CONTINUOUS
10
-21.525
20
-48.7133
11
-21.525
21
-40.8133
0
LINE
8
BLACK
6
CONTINUOUS
10
-9.425
20
-48.7133
11
-21.525
21
-48.7133
0
LINE
8
BLACK
6
CONTINUOUS
10
-21.525
20
-40.8133
11
-9.425
21
-40.8133
0
LINE
8
BLACK
6
CONTINUOUS
10
-20.628
20
16.514
11
-18.388
21
16.514
0
LINE
8
BLACK
6
CONTINUOUS
10
-18.388
20
16.514
11
-18.388
21
21.074
0
LINE
8
BLACK
6
CONTINUOUS
10
-18.388
20
21.074
11
-20.628
21
21.074
0
LINE
8
BLACK
6
CONTINUOUS
10
-20.628
20
21.074
11
-20.628
21
16.514
0
LINE
8
BLACK
6
CONTINUOUS
10
200.15
20
-22.135
11
197.85
21
-22.135
0
LINE
8
BLACK
6
CONTINUOUS
10
200.15
20
-17.435
11
197.85
21
-17.435
0
LINE
8
BLACK
6
CONTINUOUS
10
197.85
20
-17.435
11
197.85
21
-22.135
0
LINE
8
BLACK
6
CONTINUOUS
10
200.15
20
-22.135
11
200.15
21
-17.435
0
LINE
8
BLACK
6
CONTINUOUS
10
47.75
20
-17.435
11
45.45
21
-17.435
0
LINE
8
BLACK
6
CONTINUOUS
10
47.75
20
-22.135
11
45.45
21
-22.135
0
LINE
8
BLACK
6
CONTINUOUS
10
45.45
20
-17.435
11
45.45
21
-22.135
0
LINE
8
BLACK
6
CONTINUOUS
10
47.75
20
-22.135
11
47.75
21
-17.435
0
LINE
8
BLACK
6
CONTINUOUS
10
306.64
20
24.53
11
306.64
21
22.71
0
LINE
8
BLACK
6
CONTINUOUS
10
306.64
20
22.71
11
307.56
21
22.71
0
LINE
8
BLACK
6
CONTINUOUS
10
307.56
20
22.71
11
307.56
21
24.53
0
LINE
8
BLACK
6
CONTINUOUS
10
307.56
20
24.53
11
306.64
21
24.53
0
LINE
8
BLACK
6
CONTINUOUS
10
265.249
20
23.525
11
259.422
21
17.6984
0
LINE
8
BLACK
6
CONTINUOUS
10
259.422
20
29.3516
11
265.249
21
23.525
0
LINE
8
BLACK
6
CONTINUOUS
10
253.596
20
23.525
11
259.422
21
29.3516
0
LINE
8
BLACK
6
CONTINUOUS
10
259.422
20
17.6984
11
253.596
21
23.525
0
LINE
8
BLACK
6
CONTINUOUS
10
337.5
20
-25.1225
11
337.5
21
-20.4225
0
LINE
8
BLACK
6
CONTINUOUS
10
337.5
20
-25.1225
11
335.2
21
-25.1225
0
LINE
8
BLACK
6
CONTINUOUS
10
337.5
20
-20.4225
11
335.2
21
-20.4225
0
LINE
8
BLACK
6
CONTINUOUS
10
335.2
20
-20.4225
11
335.2
21
-25.1225
0
LINE
8
BLACK
6
CONTINUOUS
10
14.4125
20
-98.8353
11
12.1125
21
-98.8353
0
LINE
8
BLACK
6
CONTINUOUS
10
14.4125
20
-103.535
11
14.4125
21
-98.8353
0
LINE
8
BLACK
6
CONTINUOUS
10
12.1125
20
-98.8353
11
12.1125
21
-103.535
0
LINE
8
BLACK
6
CONTINUOUS
10
14.4125
20
-103.535
11
12.1125
21
-103.535
0
LINE
8
BLACK
6
CONTINUOUS
10
329.582
20
21.9205
11
329.582
21
20.4605
0
LINE
8
BLACK
6
CONTINUOUS
10
332.542
20
21.9205
11
329.582
21
21.9205
0
LINE
8
BLACK
6
CONTINUOUS
10
329.582
20
20.4605
11
332.542
21
20.4605
0
LINE
8
BLACK
6
CONTINUOUS
10
332.542
20
20.4605
11
332.542
21
21.9205
0
LINE
8
BLACK
6
CONTINUOUS
10
-9.425
20
-81.0353
11
-9.425
21
-88.9353
0
LINE
8
BLACK
6
CONTINUOUS
10
-21.525
20
-88.9353
11
-21.525
21
-81.0353
0
LINE
8
BLACK
6
CONTINUOUS
10
-21.525
20
-81.0353
11
-9.425
21
-81.0353
0
LINE
8
BLACK
6
CONTINUOUS
10
-9.425
20
-88.9353
11
-21.525
21
-88.9353
0
LINE
8
BLACK
6
CONTINUOUS
10
143
20
-22.135
11
140.7
21
-22.135
0
LINE
8
BLACK
6
CONTINUOUS
10
143
20
-17.435
11
140.7
21
-17.435
0
LINE
8
BLACK
6
CONTINUOUS
10
143
20
-22.135
11
143
21
-17.435
0
LINE
8
BLACK
6
CONTINUOUS
10
140.7
20
-17.435
11
140.7
21
-22.135
0
LINE
8
BLACK
6
CONTINUOUS
10
348.08
20
21.9
11
348.08
21
26.6
0
LINE
8
BLACK
6
CONTINUOUS
10
345.78
20
21.9
11
348.08
21
21.9
0
LINE
8
BLACK
6
CONTINUOUS
10
345.78
20
26.6
11
345.78
21
21.9
0
LINE
8
BLACK
6
CONTINUOUS
10
345.78
20
26.6
11
348.08
21
26.6
0
LINE
8
BLACK
6
CONTINUOUS
10
257.3
20
2.35
11
255
21
2.35
0
LINE
8
BLACK
6
CONTINUOUS
10
257.3
20
-2.35
11
257.3
21
2.35
0
LINE
8
BLACK
6
CONTINUOUS
10
257.3
20
-2.35
11
255
21
-2.35
0
LINE
8
BLACK
6
CONTINUOUS
10
255
20
2.35
11
255
21
-2.35
0
LINE
8
BLACK
6
CONTINUOUS
10
-8.775
20
16.289
11
-10.175
21
16.289
0
LINE
8
BLACK
6
CONTINUOUS
10
-10.175
20
18.789
11
-8.775
21
18.789
0
LINE
8
BLACK
6
CONTINUOUS
10
-10.175
20
18.789
11
-10.175
21
16.289
0
LINE
8
BLACK
6
CONTINUOUS
10
-8.775
20
16.289
11
-8.775
21
18.789
0
LINE
8
BLACK
6
CONTINUOUS
10
322.93
20
23.13
11
322.93
21
24.07
0
LINE
8
BLACK
6
CONTINUOUS
10
321.07
20
23.13
11
322.93
21
23.13
0
LINE
8
BLACK
6
CONTINUOUS
10
322.93
20
24.07
11
321.07
21
24.07
0
LINE
8
BLACK
6
CONTINUOUS
10
321.07
20
24.07
11
321.07
21
23.13
0
LINE
8
BLACK
6
CONTINUOUS
10
159.75
20
-17.435
11
159.75
21
-22.135
0
LINE
8
BLACK
6
CONTINUOUS
10
162.05
20
-22.135
11
159.75
21
-22.135
0
LINE
8
BLACK
6
CONTINUOUS
10
162.05
20
-22.135
11
162.05
21
-17.435
0
LINE
8
BLACK
6
CONTINUOUS
10
162.05
20
-17.435
11
159.75
21
-17.435
0
LINE
8
BLACK
6
CONTINUOUS
10
16.58
20
-60.0658
11
14.28
21
-60.0658
0
LINE
8
BLACK
6
CONTINUOUS
10
14.28
20
-55.3658
11
14.28
21
-60.0658
0
LINE
8
BLACK
6
CONTINUOUS
10
16.58
20
-55.3658
11
14.28
21
-55.3658
0
LINE
8
BLACK
6
CONTINUOUS
10
16.58
20
-60.0658
11
16.58
21
-55.3658
0
LINE
8
BLACK
6
CONTINUOUS
10
300.4
20
-2.35
11
298.1
21
-2.35
0
LINE
8
BLACK
6
CONTINUOUS
10
300.4
20
-2.35
11
300.4
21
2.35
0
LINE
8
BLACK
6
CONTINUOUS
10
298.1
20
2.35
11
298.1
21
-2.35
0
LINE
8
BLACK
6
CONTINUOUS
10
300.4
20
2.35
11
298.1
21
2.35
0
LINE
8
BLACK
6
CONTINUOUS
10
264.568
20
34.4414
11
263.281
21
33.1544
0
LINE
8
BLACK
6
CONTINUOUS
10
263.932
20
32.5039
11
265.219
21
33.7908
0
LINE
8
BLACK
6
CONTINUOUS
10
265.219
20
33.7908
11
264.568
21
34.4414
0
LINE
8
BLACK
6
CONTINUOUS
10
263.281
20
33.1544
11
263.932
21
32.5039
0
LINE
8
BLACK
6
CONTINUOUS
10
333.31
20
13.56
11
338.01
21
13.56
0
LINE
8
BLACK
6
CONTINUOUS
10
338.01
20
15.86
11
333.31
21
15.86
0
LINE
8
BLACK
6
CONTINUOUS
10
333.31
20
13.56
11
333.31
21
15.86
0
LINE
8
BLACK
6
CONTINUOUS
10
338.01
20
13.56
11
338.01
21
15.86
0
LINE
8
BLACK
6
CONTINUOUS
10
83.55
20
-17.435
11
83.55
21
-22.135
0
LINE
8
BLACK
6
CONTINUOUS
10
85.85
20
-22.135
11
83.55
21
-22.135
0
LINE
8
BLACK
6
CONTINUOUS
10
85.85
20
-22.135
11
85.85
21
-17.435
0
LINE
8
BLACK
6
CONTINUOUS
10
85.85
20
-17.435
11
83.55
21
-17.435
0
LINE
8
BLACK
6
CONTINUOUS
10
329.33
20
29.63
11
332.53
21
29.63
0
LINE
8
BLACK
6
CONTINUOUS
10
332.53
20
27.73
11
332.53
21
29.63
0
LINE
8
BLACK
6
CONTINUOUS
10
329.33
20
27.73
11
332.53
21
27.73
0
LINE
8
BLACK
6
CONTINUOUS
10
329.33
20
27.73
11
329.33
21
29.63
0
LINE
8
BLACK
6
CONTINUOUS
10
45.45
20
2.35
11
45.45
21
-2.35
0
LINE
8
BLACK
6
CONTINUOUS
10
47.75
20
-2.35
11
47.75
21
2.35
0
LINE
8
BLACK
6
CONTINUOUS
10
47.75
20
2.35
11
45.45
21
2.35
0
LINE
8
BLACK
6
CONTINUOUS
10
47.75
20
-2.35
11
45.45
21
-2.35
0
LINE
8
BLACK
6
CONTINUOUS
10
78.7875
20
-57.8483
11
78.7875
21
-62.5483
0
LINE
8
BLACK
6
CONTINUOUS
10
81.0875
20
-62.5483
11
81.0875
21
-57.8483
0
LINE
8
BLACK
6
CONTINUOUS
10
81.0875
20
-62.5483
11
78.7875
21
-62.5483
0
LINE
8
BLACK
6
CONTINUOUS
10
81.0875
20
-57.8483
11
78.7875
21
-57.8483
0
LINE
8
BLACK
6
CONTINUOUS
10
263.829
20
16.8212
11
262.542
21
18.1081
0
LINE
8
BLACK
6
CONTINUOUS
10
263.179
20
16.1707
11
263.829
21
16.8212
0
LINE
8
BLACK
6
CONTINUOUS
10
261.892
20
17.4576
11
263.179
21
16.1707
0
LINE
8
BLACK
6
CONTINUOUS
10
262.542
20
18.1081
11
261.892
21
17.4576
0
LINE
8
BLACK
6
CONTINUOUS
10
114.425
20
-38.0633
11
112.125
21
-38.0633
0
LINE
8
BLACK
6
CONTINUOUS
10
112.125
20
-38.0633
11
112.125
21
-42.7633
0
LINE
8
BLACK
6
CONTINUOUS
10
114.425
20
-42.7633
11
114.425
21
-38.0633
0
LINE
8
BLACK
6
CONTINUOUS
10
114.425
20
-42.7633
11
112.125
21
-42.7633
0
LINE
8
BLACK
6
CONTINUOUS
10
190.625
20
2.35
11
188.325
21
2.35
0
LINE
8
BLACK
6
CONTINUOUS
10
190.625
20
-2.35
11
190.625
21
2.35
0
LINE
8
BLACK
6
CONTINUOUS
10
190.625
20
-2.35
11
188.325
21
-2.35
0
LINE
8
BLACK
6
CONTINUOUS
10
188.325
20
2.35
11
188.325
21
-2.35
0
LINE
8
BLACK
6
CONTINUOUS
10
333.46
20
27.63
11
333.46
21
26.69
0
LINE
8
BLACK
6
CONTINUOUS
10
335.32
20
26.69
11
335.32
21
27.63
0
LINE
8
BLACK
6
CONTINUOUS
10
333.46
20
26.69
11
335.32
21
26.69
0
LINE
8
BLACK
6
CONTINUOUS
10
335.32
20
27.63
11
333.46
21
27.63
0
LINE
8
BLACK
6
CONTINUOUS
10
305.99
20
22.7
11
305.99
21
24.56
0
LINE
8
BLACK
6
CONTINUOUS
10
305.05
20
22.7
11
305.99
21
22.7
0
LINE
8
BLACK
6
CONTINUOUS
10
305.99
20
24.56
11
305.05
21
24.56
0
LINE
8
BLACK
6
CONTINUOUS
10
305.05
20
24.56
11
305.05
21
22.7
0
LINE
8
BLACK
6
CONTINUOUS
10
275.73
20
14.33
11
275.73
21
15.27
0
LINE
8
BLACK
6
CONTINUOUS
10
275.73
20
15.27
11
273.87
21
15.27
0
LINE
8
BLACK
6
CONTINUOUS
10
273.87
20
14.33
11
275.73
21
14.33
0
LINE
8
BLACK
6
CONTINUOUS
10
273.87
20
15.27
11
273.87
21
14.33
0
LINE
8
BLACK
6
CONTINUOUS
10
195.387
20
-57.8483
11
193.087
21
-57.8483
0
LINE
8
BLACK
6
CONTINUOUS
10
195.387
20
-62.5483
11
193.087
21
-62.5483
0
LINE
8
BLACK
6
CONTINUOUS
10
195.387
20
-62.5483
11
195.387
21
-57.8483
0
LINE
8
BLACK
6
CONTINUOUS
10
193.087
20
-57.8483
11
193.087
21
-62.5483
0
LINE
8
BLACK
6
CONTINUOUS
10
266.171
20
34.1539
11
269.141
21
31.184
0
LINE
8
BLACK
6
CONTINUOUS
10
269.141
20
31.184
11
266.737
21
28.7799
0
LINE
8
BLACK
6
CONTINUOUS
10
263.767
20
31.7497
11
266.171
21
34.1539
0
LINE
8
BLACK
6
CONTINUOUS
10
266.737
20
28.7799
11
263.767
21
31.7497
0
LINE
8
BLACK
6
CONTINUOUS
10
102.6
20
2.35
11
102.6
21
-2.35
0
LINE
8
BLACK
6
CONTINUOUS
10
104.9
20
-2.35
11
104.9
21
2.35
0
LINE
8
BLACK
6
CONTINUOUS
10
104.9
20
2.35
11
102.6
21
2.35
0
LINE
8
BLACK
6
CONTINUOUS
10
104.9
20
-2.35
11
102.6
21
-2.35
0
LINE
8
BLACK
6
CONTINUOUS
10
338.275
20
-51.8983
11
350.375
21
-51.8983
0
LINE
8
BLACK
6
CONTINUOUS
10
350.375
20
-59.7983
11
338.275
21
-59.7983
0
LINE
8
BLACK
6
CONTINUOUS
10
338.275
20
-59.7983
11
338.275
21
-51.8983
0
LINE
8
BLACK
6
CONTINUOUS
10
350.375
20
-51.8983
11
350.375
21
-59.7983
0
LINE
8
BLACK
6
CONTINUOUS
10
305.3
20
25.01
11
307.16
21
25.01
0
LINE
8
BLACK
6
CONTINUOUS
10
305.3
20
25.95
11
305.3
21
25.01
0
LINE
8
BLACK
6
CONTINUOUS
10
307.16
20
25.95
11
305.3
21
25.95
0
LINE
8
BLACK
6
CONTINUOUS
10
307.16
20
25.01
11
307.16
21
25.95
0
LINE
8
BLACK
6
CONTINUOUS
10
350.375
20
-92.8853
11
350.375
21
-100.785
0
LINE
8
BLACK
6
CONTINUOUS
10
350.375
20
-100.785
11
338.275
21
-100.785
0
LINE
8
BLACK
6
CONTINUOUS
10
338.275
20
-92.8853
11
350.375
21
-92.8853
0
LINE
8
BLACK
6
CONTINUOUS
10
338.275
20
-100.785
11
338.275
21
-92.8853
0
LINE
8
BLACK
6
CONTINUOUS
10
147.762
20
-82.9853
11
147.762
21
-78.2853
0
LINE
8
BLACK
6
CONTINUOUS
10
145.463
20
-78.2853
11
145.463
21
-82.9853
0
LINE
8
BLACK
6
CONTINUOUS
10
147.762
20
-82.9853
11
145.463
21
-82.9853
0
LINE
8
BLACK
6
CONTINUOUS
10
147.762
20
-78.2853
11
145.463
21
-78.2853
0
LINE
8
BLACK
6
CONTINUOUS
10
346.5
20
19.1
11
346.5
21
20.96
0
LINE
8
BLACK
6
CONTINUOUS
10
346.5
20
20.96
11
345.56
21
20.96
0
LINE
8
BLACK
6
CONTINUOUS
10
345.56
20
20.96
11
345.56
21
19.1
0
LINE
8
BLACK
6
CONTINUOUS
10
345.56
20
19.1
11
346.5
21
19.1
0
LINE
8
BLACK
6
CONTINUOUS
10
242.052
20
22.107
11
241.112
21
22.107
0
LINE
8
BLACK
6
CONTINUOUS
10
241.112
20
22.107
11
241.112
21
20.247
0
LINE
8
BLACK
6
CONTINUOUS
10
242.052
20
20.247
11
242.052
21
22.107
0
LINE
8
BLACK
6
CONTINUOUS
10
241.112
20
20.247
11
242.052
21
20.247
0
LINE
8
BLACK
6
CONTINUOUS
10
306.68
20
20.27
11
307.62
21
20.27
0
LINE
8
BLACK
6
CONTINUOUS
10
307.62
20
20.27
11
307.62
21
22.13
0
LINE
8
BLACK
6
CONTINUOUS
10
306.68
20
22.13
11
306.68
21
20.27
0
LINE
8
BLACK
6
CONTINUOUS
10
307.62
20
22.13
11
306.68
21
22.13
0
LINE
8
BLACK
6
CONTINUOUS
10
-21.525
20
-28.085
11
-21.525
21
-20.185
0
LINE
8
BLACK
6
CONTINUOUS
10
-21.525
20
-20.185
11
-9.425
21
-20.185
0
LINE
8
BLACK
6
CONTINUOUS
10
-9.425
20
-20.185
11
-9.425
21
-28.085
0
LINE
8
BLACK
6
CONTINUOUS
10
-9.425
20
-28.085
11
-21.525
21
-28.085
0
LINE
8
BLACK
6
CONTINUOUS
10
347.83
20
20.93
11
346.91
21
20.93
0
LINE
8
BLACK
6
CONTINUOUS
10
346.91
20
20.93
11
346.91
21
19.11
0
LINE
8
BLACK
6
CONTINUOUS
10
346.91
20
19.11
11
347.83
21
19.11
0
LINE
8
BLACK
6
CONTINUOUS
10
347.83
20
19.11
11
347.83
21
20.93
0
LINE
8
BLACK
6
CONTINUOUS
10
233.64
20
-61.1058
11
233.64
21
-56.4058
0
LINE
8
BLACK
6
CONTINUOUS
10
233.64
20
-61.1058
11
231.34
21
-61.1058
0
LINE
8
BLACK
6
CONTINUOUS
10
231.34
20
-56.4058
11
231.34
21
-61.1058
0
LINE
8
BLACK
6
CONTINUOUS
10
233.64
20
-56.4058
11
231.34
21
-56.4058
0
LINE
8
BLACK
6
CONTINUOUS
10
71.5625
20
-82.9853
11
69.2625
21
-82.9853
0
LINE
8
BLACK
6
CONTINUOUS
10
69.2625
20
-78.2853
11
69.2625
21
-82.9853
0
LINE
8
BLACK
6
CONTINUOUS
10
71.5625
20
-78.2853
11
69.2625
21
-78.2853
0
LINE
8
BLACK
6
CONTINUOUS
10
71.5625
20
-82.9853
11
71.5625
21
-78.2853
0
LINE
8
BLACK
6
CONTINUOUS
10
300.4
20
-38.0633
11
298.1
21
-38.0633
0
LINE
8
BLACK
6
CONTINUOUS
10
300.4
20
-42.7633
11
300.4
21
-38.0633
0
LINE
8
BLACK
6
CONTINUOUS
10
300.4
20
-42.7633
11
298.1
21
-42.7633
0
LINE
8
BLACK
6
CONTINUOUS
10
298.1
20
-38.0633
11
298.1
21
-42.7633
0
LINE
8
BLACK
6
CONTINUOUS
10
214.33
20
-61.4658
11
212.03
21
-61.4658
0
LINE
8
BLACK
6
CONTINUOUS
10
214.33
20
-56.7658
11
212.03
21
-56.7658
0
LINE
8
BLACK
6
CONTINUOUS
10
214.33
20
-61.4658
11
214.33
21
-56.7658
0
LINE
8
BLACK
6
CONTINUOUS
10
212.03
20
-56.7658
11
212.03
21
-61.4658
0
LINE
8
BLACK
6
CONTINUOUS
10
223.962
20
-82.9853
11
223.962
21
-78.2853
0
LINE
8
BLACK
6
CONTINUOUS
10
223.962
20
-78.2853
11
221.662
21
-78.2853
0
LINE
8
BLACK
6
CONTINUOUS
10
221.662
20
-78.2853
11
221.662
21
-82.9853
0
LINE
8
BLACK
6
CONTINUOUS
10
223.962
20
-82.9853
11
221.662
21
-82.9853
0
LINE
8
BLACK
6
CONTINUOUS
10
338.275
20
-40.0133
11
338.275
21
-32.1133
0
LINE
8
BLACK
6
CONTINUOUS
10
350.375
20
-40.0133
11
338.275
21
-40.0133
0
LINE
8
BLACK
6
CONTINUOUS
10
338.275
20
-32.1133
11
350.375
21
-32.1133
0
LINE
8
BLACK
6
CONTINUOUS
10
350.375
20
-32.1133
11
350.375
21
-40.0133
0
LINE
8
BLACK
6
CONTINUOUS
10
319.45
20
2.35
11
317.15
21
2.35
0
LINE
8
BLACK
6
CONTINUOUS
10
317.15
20
2.35
11
317.15
21
-2.35
0
LINE
8
BLACK
6
CONTINUOUS
10
319.45
20
-2.35
11
317.15
21
-2.35
0
LINE
8
BLACK
6
CONTINUOUS
10
319.45
20
-2.35
11
319.45
21
2.35
0
LINE
8
BLACK
6
CONTINUOUS
10
334.8
20
22.95
11
330.7
21
22.95
0
LINE
8
BLACK
6
CONTINUOUS
10
330.7
20
22.95
11
330.7
21
26.35
0
LINE
8
BLACK
6
CONTINUOUS
10
330.7
20
26.35
11
334.8
21
26.35
0
LINE
8
BLACK
6
CONTINUOUS
10
334.8
20
26.35
11
334.8
21
22.95
0
LINE
8
BLACK
6
CONTINUOUS
10
338.275
20
-40.8133
11
350.375
21
-40.8133
0
LINE
8
BLACK
6
CONTINUOUS
10
338.275
20
-48.7133
11
338.275
21
-40.8133
0
LINE
8
BLACK
6
CONTINUOUS
10
350.375
20
-40.8133
11
350.375
21
-48.7133
0
LINE
8
BLACK
6
CONTINUOUS
10
350.375
20
-48.7133
11
338.275
21
-48.7133
0
LINE
8
BLACK
6
CONTINUOUS
10
304.83
20
17.32
11
304.83
21
13.32
0
LINE
8
BLACK
6
CONTINUOUS
10
304.83
20
13.32
11
311.83
21
13.32
0
LINE
8
BLACK
6
CONTINUOUS
10
311.83
20
13.32
11
311.83
21
17.32
0
LINE
8
BLACK
6
CONTINUOUS
10
311.83
20
17.32
11
304.83
21
17.32
0
LINE
8
BLACK
6
CONTINUOUS
10
337.76
20
31.86
11
333.2
21
31.86
0
LINE
8
BLACK
6
CONTINUOUS
10
333.2
20
28.7
11
337.76
21
28.7
0
LINE
8
BLACK
6
CONTINUOUS
10
333.2
20
31.86
11
333.2
21
28.7
0
LINE
8
BLACK
6
CONTINUOUS
10
337.76
20
28.7
11
337.76
21
31.86
0
LINE
8
BLACK
6
CONTINUOUS
10
-6.531
20
23.741
11
-6.531
21
19.181
0
LINE
8
BLACK
6
CONTINUOUS
10
-4.291
20
19.181
11
-4.291
21
23.741
0
LINE
8
BLACK
6
CONTINUOUS
10
-6.531
20
19.181
11
-4.291
21
19.181
0
LINE
8
BLACK
6
CONTINUOUS
10
-4.291
20
23.741
11
-6.531
21
23.741
0
LINE
8
BLACK
6
CONTINUOUS
10
9.65
20
2.35
11
7.35
21
2.35
0
LINE
8
BLACK
6
CONTINUOUS
10
7.35
20
2.35
11
7.35
21
-2.35
0
LINE
8
BLACK
6
CONTINUOUS
10
9.65
20
-2.35
11
9.65
21
2.35
0
LINE
8
BLACK
6
CONTINUOUS
10
9.65
20
-2.35
11
7.35
21
-2.35
0
LINE
8
BLACK
6
CONTINUOUS
10
306.03
20
20.32
11
306.03
21
22.14
0
LINE
8
BLACK
6
CONTINUOUS
10
306.03
20
22.14
11
305.11
21
22.14
0
LINE
8
BLACK
6
CONTINUOUS
10
305.11
20
22.14
11
305.11
21
20.32
0
LINE
8
BLACK
6
CONTINUOUS
10
305.11
20
20.32
11
306.03
21
20.32
0
LINE
8
BLACK
6
CONTINUOUS
10
-9.425
20
-51.8983
11
-9.425
21
-59.7983
0
LINE
8
BLACK
6
CONTINUOUS
10
-21.525
20
-51.8983
11
-9.425
21
-51.8983
0
LINE
8
BLACK
6
CONTINUOUS
10
-21.525
20
-59.7983
11
-21.525
21
-51.8983
0
LINE
8
BLACK
6
CONTINUOUS
10
-9.425
20
-59.7983
11
-21.525
21
-59.7983
0
LINE
8
BLACK
6
CONTINUOUS
10
251.431
20
22.8818
11
252.082
21
22.2313
0
LINE
8
BLACK
6
CONTINUOUS
10
252.082
20
22.2313
11
253.369
21
23.5182
0
LINE
8
BLACK
6
CONTINUOUS
10
253.369
20
23.5182
11
252.718
21
24.1687
0
LINE
8
BLACK
6
CONTINUOUS
10
252.718
20
24.1687
11
251.431
21
22.8818
0
LINE
8
BLACK
6
CONTINUOUS
10
7.35
20
-17.435
11
7.35
21
-22.135
0
LINE
8
BLACK
6
CONTINUOUS
10
9.65
20
-22.135
11
9.65
21
-17.435
0
LINE
8
BLACK
6
CONTINUOUS
10
9.65
20
-22.135
11
7.35
21
-22.135
0
LINE
8
BLACK
6
CONTINUOUS
10
9.65
20
-17.435
11
7.35
21
-17.435
0
LINE
8
BLACK
6
CONTINUOUS
10
228.725
20
-42.7633
11
226.425
21
-42.7633
0
LINE
8
BLACK
6
CONTINUOUS
10
226.425
20
-38.0633
11
226.425
21
-42.7633
0
LINE
8
BLACK
6
CONTINUOUS
10
228.725
20
-42.7633
11
228.725
21
-38.0633
0
LINE
8
BLACK
6
CONTINUOUS
10
228.725
20
-38.0633
11
226.425
21
-38.0633
0
LINE
8
BLACK
6
CONTINUOUS
10
54.975
20
-38.0633
11
54.975
21
-42.7633
0
LINE
8
BLACK
6
CONTINUOUS
10
57.275
20
-42.7633
11
57.275
21
-38.0633
0
LINE
8
BLACK
6
CONTINUOUS
10
57.275
20
-38.0633
11
54.975
21
-38.0633
0
LINE
8
BLACK
6
CONTINUOUS
10
57.275
20
-42.7633
11
54.975
21
-42.7633
0
LINE
8
BLACK
6
CONTINUOUS
10
317.15
20
-17.435
11
317.15
21
-22.135
0
LINE
8
BLACK
6
CONTINUOUS
10
319.45
20
-22.135
11
319.45
21
-17.435
0
LINE
8
BLACK
6
CONTINUOUS
10
319.45
20
-22.135
11
317.15
21
-22.135
0
LINE
8
BLACK
6
CONTINUOUS
10
319.45
20
-17.435
11
317.15
21
-17.435
0
LINE
8
BLACK
6
CONTINUOUS
10
236.34
20
13.49
11
237.26
21
13.49
0
LINE
8
BLACK
6
CONTINUOUS
10
237.26
20
13.49
11
237.26
21
15.31
0
LINE
8
BLACK
6
CONTINUOUS
10
236.34
20
15.31
11
236.34
21
13.49
0
LINE
8
BLACK
6
CONTINUOUS
10
237.26
20
15.31
11
236.34
21
15.31
0
LINE
8
BLACK
6
CONTINUOUS
10
-14.744
20
16.289
11
-14.744
21
18.789
0
LINE
8
BLACK
6
CONTINUOUS
10
-14.744
20
16.289
11
-16.144
21
16.289
0
LINE
8
BLACK
6
CONTINUOUS
10
-16.144
20
18.789
11
-16.144
21
16.289
0
LINE
8
BLACK
6
CONTINUOUS
10
-16.144
20
18.789
11
-14.744
21
18.789
0
LINE
8
BLACK
6
CONTINUOUS
10
266.06
20
27.4287
11
264.773
21
28.7157
0
LINE
8
BLACK
6
CONTINUOUS
10
264.773
20
28.7157
11
264.122
21
28.0651
0
LINE
8
BLACK
6
CONTINUOUS
10
265.409
20
26.7782
11
266.06
21
27.4287
0
LINE
8
BLACK
6
CONTINUOUS
10
264.122
20
28.0651
11
265.409
21
26.7782
0
LINE
8
BLACK
6
CONTINUOUS
10
319.45
20
-78.2853
11
317.15
21
-78.2853
0
LINE
8
BLACK
6
CONTINUOUS
10
319.45
20
-82.9853
11
317.15
21
-82.9853
0
LINE
8
BLACK
6
CONTINUOUS
10
317.15
20
-78.2853
11
317.15
21
-82.9853
0
LINE
8
BLACK
6
CONTINUOUS
10
319.45
20
-82.9853
11
319.45
21
-78.2853
0
LINE
8
BLACK
6
CONTINUOUS
10
62.0375
20
-62.5483
11
62.0375
21
-57.8483
0
LINE
8
BLACK
6
CONTINUOUS
10
59.7375
20
-57.8483
11
59.7375
21
-62.5483
0
LINE
8
BLACK
6
CONTINUOUS
10
62.0375
20
-57.8483
11
59.7375
21
-57.8483
0
LINE
8
BLACK
6
CONTINUOUS
10
62.0375
20
-62.5483
11
59.7375
21
-62.5483
0
LINE
8
BLACK
6
CONTINUOUS
10
235.14
20
13.49
11
236.06
21
13.49
0
LINE
8
BLACK
6
CONTINUOUS
10
235.14
20
15.31
11
235.14
21
13.49
0
LINE
8
BLACK
6
CONTINUOUS
10
236.06
20
13.49
11
236.06
21
15.31
0
LINE
8
BLACK
6
CONTINUOUS
10
236.06
20
15.31
11
235.14
21
15.31
0
LINE
8
BLACK
6
CONTINUOUS
10
319.105
20
27.53
11
316.145
21
27.53
0
LINE
8
BLACK
6
CONTINUOUS
10
316.145
20
26.07
11
319.105
21
26.07
0
LINE
8
BLACK
6
CONTINUOUS
10
316.145
20
27.53
11
316.145
21
26.07
0
LINE
8
BLACK
6
CONTINUOUS
10
319.105
20
26.07
11
319.105
21
27.53
0
LINE
8
BLACK
6
CONTINUOUS
10
319.45
20
-42.7633
11
317.15
21
-42.7633
0
LINE
8
BLACK
6
CONTINUOUS
10
317.15
20
-38.0633
11
317.15
21
-42.7633
0
LINE
8
BLACK
6
CONTINUOUS
10
319.45
20
-42.7633
11
319.45
21
-38.0633
0
LINE
8
BLACK
6
CONTINUOUS
10
319.45
20
-38.0633
11
317.15
21
-38.0633
0
LINE
8
BLACK
6
CONTINUOUS
10
250.699
20
23.6818
11
251.349
21
23.0313
0
LINE
8
BLACK
6
CONTINUOUS
10
252.636
20
24.3182
11
251.986
21
24.9687
0
LINE
8
BLACK
6
CONTINUOUS
10
251.349
20
23.0313
11
252.636
21
24.3182
0
LINE
8
BLACK
6
CONTINUOUS
10
251.986
20
24.9687
11
250.699
21
23.6818
0
LINE
8
BLACK
6
CONTINUOUS
10
238.25
20
-17.435
11
235.95
21
-17.435
0
LINE
8
BLACK
6
CONTINUOUS
10
238.25
20
-22.135
11
235.95
21
-22.135
0
LINE
8
BLACK
6
CONTINUOUS
10
235.95
20
-17.435
11
235.95
21
-22.135
0
LINE
8
BLACK
6
CONTINUOUS
10
238.25
20
-22.135
11
238.25
21
-17.435
0
LINE
8
BLACK
6
CONTINUOUS
10
137.97
20
-64.7658
11
135.67
21
-64.7658
0
LINE
8
BLACK
6
CONTINUOUS
10
135.67
20
-60.0658
11
135.67
21
-64.7658
0
LINE
8
BLACK
6
CONTINUOUS
10
137.97
20
-60.0658
11
135.67
21
-60.0658
0
LINE
8
BLACK
6
CONTINUOUS
10
137.97
20
-64.7658
11
137.97
21
-60.0658
0
LINE
8
BLACK
6
CONTINUOUS
10
259.681
20
-82.9853
11
259.681
21
-78.2853
0
LINE
8
BLACK
6
CONTINUOUS
10
257.381
20
-78.2853
11
257.381
21
-82.9853
0
LINE
8
BLACK
6
CONTINUOUS
10
259.681
20
-78.2853
11
257.381
21
-78.2853
0
LINE
8
BLACK
6
CONTINUOUS
10
259.681
20
-82.9853
11
257.381
21
-82.9853
0
LINE
8
BLACK
6
CONTINUOUS
10
337.55
20
-42.45
11
332.85
21
-42.45
0
LINE
8
BLACK
6
CONTINUOUS
10
332.85
20
-44.75
11
332.85
21
-42.45
0
LINE
8
BLACK
6
CONTINUOUS
10
337.55
20
-44.75
11
337.55
21
-42.45
0
LINE
8
BLACK
6
CONTINUOUS
10
332.85
20
-44.75
11
337.55
21
-44.75
0
LINE
8
BLACK
6
CONTINUOUS
10
336.13
20
23.66
11
336.13
21
21.76
0
LINE
8
BLACK
6
CONTINUOUS
10
339.49
20
21.76
11
339.49
21
23.66
0
LINE
8
BLACK
6
CONTINUOUS
10
339.49
20
23.66
11
336.13
21
23.66
0
LINE
8
BLACK
6
CONTINUOUS
10
336.13
20
21.76
11
339.49
21
21.76
0
LINE
8
BLACK
6
CONTINUOUS
10
276.35
20
-2.35
11
276.35
21
2.35
0
LINE
8
BLACK
6
CONTINUOUS
10
274.05
20
2.35
11
274.05
21
-2.35
0
LINE
8
BLACK
6
CONTINUOUS
10
276.35
20
2.35
11
274.05
21
2.35
0
LINE
8
BLACK
6
CONTINUOUS
10
276.35
20
-2.35
11
274.05
21
-2.35
0
LINE
8
BLACK
6
CONTINUOUS
10
299.11
20
31.16
11
302.95
21
31.16
0
LINE
8
BLACK
6
CONTINUOUS
10
302.95
20
27.76
11
299.11
21
27.76
0
LINE
8
BLACK
6
CONTINUOUS
10
299.11
20
27.76
11
299.11
21
31.16
0
LINE
8
BLACK
6
CONTINUOUS
10
302.95
20
31.16
11
302.95
21
27.76
0
LINE
8
BLACK
6
CONTINUOUS
10
52.5125
20
-78.2853
11
50.2125
21
-78.2853
0
LINE
8
BLACK
6
CONTINUOUS
10
52.5125
20
-82.9853
11
50.2125
21
-82.9853
0
LINE
8
BLACK
6
CONTINUOUS
10
50.2125
20
-78.2853
11
50.2125
21
-82.9853
0
LINE
8
BLACK
6
CONTINUOUS
10
52.5125
20
-82.9853
11
52.5125
21
-78.2853
0
LINE
8
BLACK
6
CONTINUOUS
10
338.5
20
-103.535
11
336.2
21
-103.535
0
LINE
8
BLACK
6
CONTINUOUS
10
338.5
20
-103.535
11
338.5
21
-98.8353
0
LINE
8
BLACK
6
CONTINUOUS
10
338.5
20
-98.8353
11
336.2
21
-98.8353
0
LINE
8
BLACK
6
CONTINUOUS
10
336.2
20
-98.8353
11
336.2
21
-103.535
0
LINE
8
BLACK
6
CONTINUOUS
10
328.46
20
29.89
11
328.46
21
31.71
0
LINE
8
BLACK
6
CONTINUOUS
10
327.54
20
31.71
11
327.54
21
29.89
0
LINE
8
BLACK
6
CONTINUOUS
10
327.54
20
29.89
11
328.46
21
29.89
0
LINE
8
BLACK
6
CONTINUOUS
10
328.46
20
31.71
11
327.54
21
31.71
0
LINE
8
BLACK
6
CONTINUOUS
10
235.228
20
27.425
11
235.228
21
19.625
0
LINE
8
BLACK
6
CONTINUOUS
10
228.668
20
27.425
11
235.228
21
27.425
0
LINE
8
BLACK
6
CONTINUOUS
10
235.228
20
19.625
11
228.668
21
19.625
0
LINE
8
BLACK
6
CONTINUOUS
10
228.668
20
19.625
11
228.668
21
27.425
0
LINE
8
BLACK
6
CONTINUOUS
10
242.482
20
19.997
11
235.482
21
19.997
0
LINE
8
BLACK
6
CONTINUOUS
10
242.482
20
16.497
11
242.482
21
19.997
0
LINE
8
BLACK
6
CONTINUOUS
10
235.482
20
19.997
11
235.482
21
16.497
0
LINE
8
BLACK
6
CONTINUOUS
10
235.482
20
16.497
11
242.482
21
16.497
0
LINE
8
BLACK
6
CONTINUOUS
10
133.475
20
-2.35
11
131.175
21
-2.35
0
LINE
8
BLACK
6
CONTINUOUS
10
131.175
20
2.35
11
131.175
21
-2.35
0
LINE
8
BLACK
6
CONTINUOUS
10
133.475
20
-2.35
11
133.475
21
2.35
0
LINE
8
BLACK
6
CONTINUOUS
10
133.475
20
2.35
11
131.175
21
2.35
0
LINE
8
BLACK
6
CONTINUOUS
10
260.318
20
16.1687
11
259.031
21
14.8818
0
LINE
8
BLACK
6
CONTINUOUS
10
259.682
20
14.2313
11
260.969
21
15.5182
0
LINE
8
BLACK
6
CONTINUOUS
10
260.969
20
15.5182
11
260.318
21
16.1687
0
LINE
8
BLACK
6
CONTINUOUS
10
259.031
20
14.8818
11
259.682
21
14.2313
0
LINE
8
BLACK
6
CONTINUOUS
10
190.625
20
-42.7633
11
188.325
21
-42.7633
0
LINE
8
BLACK
6
CONTINUOUS
10
188.325
20
-38.0633
11
188.325
21
-42.7633
0
LINE
8
BLACK
6
CONTINUOUS
10
190.625
20
-38.0633
11
188.325
21
-38.0633
0
LINE
8
BLACK
6
CONTINUOUS
10
190.625
20
-42.7633
11
190.625
21
-38.0633
0
LINE
8
BLACK
6
CONTINUOUS
10
-21.525
20
-92.8853
11
-9.425
21
-92.8853
0
LINE
8
BLACK
6
CONTINUOUS
10
-9.425
20
-100.785
11
-21.525
21
-100.785
0
LINE
8
BLACK
6
CONTINUOUS
10
-21.525
20
-100.785
11
-21.525
21
-92.8853
0
LINE
8
BLACK
6
CONTINUOUS
10
-9.425
20
-92.8853
11
-9.425
21
-100.785
0
LINE
8
BLACK
6
CONTINUOUS
10
209.675
20
-42.7633
11
209.675
21
-38.0633
0
LINE
8
BLACK
6
CONTINUOUS
10
207.375
20
-38.0633
11
207.375
21
-42.7633
0
LINE
8
BLACK
6
CONTINUOUS
10
209.675
20
-38.0633
11
207.375
21
-38.0633
0
LINE
8
BLACK
6
CONTINUOUS
10
209.675
20
-42.7633
11
207.375
21
-42.7633
0
LINE
8
BLACK
6
CONTINUOUS
10
97.8375
20
-57.8483
11
97.8375
21
-62.5483
0
LINE
8
BLACK
6
CONTINUOUS
10
100.137
20
-62.5483
11
100.137
21
-57.8483
0
LINE
8
BLACK
6
CONTINUOUS
10
100.137
20
-57.8483
11
97.8375
21
-57.8483
0
LINE
8
BLACK
6
CONTINUOUS
10
100.137
20
-62.5483
11
97.8375
21
-62.5483
0
LINE
8
BLACK
6
CONTINUOUS
10
181.1
20
-17.435
11
178.8
21
-17.435
0
LINE
8
BLACK
6
CONTINUOUS
10
181.1
20
-22.135
11
181.1
21
-17.435
0
LINE
8
BLACK
6
CONTINUOUS
10
178.8
20
-17.435
11
178.8
21
-22.135
0
LINE
8
BLACK
6
CONTINUOUS
10
181.1
20
-22.135
11
178.8
21
-22.135
0
LINE
8
BLACK
6
CONTINUOUS
10
156.78
20
-64.6058
11
154.48
21
-64.6058
0
LINE
8
BLACK
6
CONTINUOUS
10
156.78
20
-64.6058
11
156.78
21
-59.9058
0
LINE
8
BLACK
6
CONTINUOUS
10
156.78
20
-59.9058
11
154.48
21
-59.9058
0
LINE
8
BLACK
6
CONTINUOUS
10
154.48
20
-59.9058
11
154.48
21
-64.6058
0
LINE
8
BLACK
6
CONTINUOUS
10
235.95
20
2.35
11
235.95
21
-2.35
0
LINE
8
BLACK
6
CONTINUOUS
10
238.25
20
-2.35
11
238.25
21
2.35
0
LINE
8
BLACK
6
CONTINUOUS
10
238.25
20
2.35
11
235.95
21
2.35
0
LINE
8
BLACK
6
CONTINUOUS
10
238.25
20
-2.35
11
235.95
21
-2.35
0
LINE
8
BLACK
6
CONTINUOUS
10
333.2
20
21.29
11
333.2
21
19.83
0
LINE
8
BLACK
6
CONTINUOUS
10
336.16
20
21.29
11
333.2
21
21.29
0
LINE
8
BLACK
6
CONTINUOUS
10
333.2
20
19.83
11
336.16
21
19.83
0
LINE
8
BLACK
6
CONTINUOUS
10
336.16
20
19.83
11
336.16
21
21.29
0
LINE
8
BLACK
6
CONTINUOUS
10
260.169
20
16.3182
11
259.518
21
16.9687
0
LINE
8
BLACK
6
CONTINUOUS
10
259.518
20
16.9687
11
258.231
21
15.6818
0
LINE
8
BLACK
6
CONTINUOUS
10
258.231
20
15.6818
11
258.882
21
15.0313
0
LINE
8
BLACK
6
CONTINUOUS
10
258.882
20
15.0313
11
260.169
21
16.3182
0
LINE
8
BLACK
6
CONTINUOUS
10
239.335
20
28.5319
11
241.155
21
28.5319
0
LINE
8
BLACK
6
CONTINUOUS
10
241.155
20
29.4519
11
239.335
21
29.4519
0
LINE
8
BLACK
6
CONTINUOUS
10
239.335
20
29.4519
11
239.335
21
28.5319
0
LINE
8
BLACK
6
CONTINUOUS
10
241.155
20
28.5319
11
241.155
21
29.4519
0
LINE
8
BLACK
6
CONTINUOUS
10
236.88
20
24.4679
11
236.88
21
27.8679
0
LINE
8
BLACK
6
CONTINUOUS
10
240.72
20
27.8679
11
240.72
21
24.4679
0
LINE
8
BLACK
6
CONTINUOUS
10
236.88
20
27.8679
11
240.72
21
27.8679
0
LINE
8
BLACK
6
CONTINUOUS
10
240.72
20
24.4679
11
236.88
21
24.4679
0
LINE
8
BLACK
6
CONTINUOUS
10
216.9
20
2.35
11
216.9
21
-2.35
0
LINE
8
BLACK
6
CONTINUOUS
10
219.2
20
-2.35
11
219.2
21
2.35
0
LINE
8
BLACK
6
CONTINUOUS
10
219.2
20
2.35
11
216.9
21
2.35
0
LINE
8
BLACK
6
CONTINUOUS
10
219.2
20
-2.35
11
216.9
21
-2.35
0
LINE
8
BLACK
6
CONTINUOUS
10
238.15
20
34.175
11
238.15
21
30.625
0
LINE
8
BLACK
6
CONTINUOUS
10
244.25
20
34.175
11
238.15
21
34.175
0
LINE
8
BLACK
6
CONTINUOUS
10
238.15
20
30.625
11
244.25
21
30.625
0
LINE
8
BLACK
6
CONTINUOUS
10
244.25
20
30.625
11
244.25
21
34.175
0
CIRCLE
8
BLACK
10
354.875
20
-106.985
40
1.25
0
LINE
8
BLACK
6
CONTINUOUS
10
276.014
20
-56.2483
11
294.114
21
-56.2483
0
LINE
8
BLACK
6
CONTINUOUS
10
294.114
20
-56.2483
11
294.114
21
-64.1483
0
LINE
8
BLACK
6
CONTINUOUS
10
276.014
20
-64.1483
11
276.014
21
-56.2483
0
LINE
8
BLACK
6
CONTINUOUS
10
294.114
20
-64.1483
11
276.014
21
-64.1483
0
LINE
8
BLACK
6
CONTINUOUS
10
241.93
20
26.67
11
242.87
21
26.67
0
LINE
8
BLACK
6
CONTINUOUS
10
241.93
20
28.53
11
241.93
21
26.67
0
LINE
8
BLACK
6
CONTINUOUS
10
242.87
20
26.67
11
242.87
21
28.53
0
LINE
8
BLACK
6
CONTINUOUS
10
242.87
20
28.53
11
241.93
21
28.53
0
LINE
8
BLACK
6
CONTINUOUS
10
333.19
20
18
11
336.15
21
18
0
LINE
8
BLACK
6
CONTINUOUS
10
333.19
20
19.46
11
333.19
21
18
0
LINE
8
BLACK
6
CONTINUOUS
10
336.15
20
19.46
11
333.19
21
19.46
0
LINE
8
BLACK
6
CONTINUOUS
10
336.15
20
18
11
336.15
21
19.46
0
LINE
8
BLACK
6
CONTINUOUS
10
-21.525
20
-68.4983
11
-21.525
21
-60.5983
0
LINE
8
BLACK
6
CONTINUOUS
10
-9.425
20
-60.5983
11
-9.425
21
-68.4983
0
LINE
8
BLACK
6
CONTINUOUS
10
-21.525
20
-60.5983
11
-9.425
21
-60.5983
0
LINE
8
BLACK
6
CONTINUOUS
10
-9.425
20
-68.4983
11
-21.525
21
-68.4983
0
LINE
8
BLACK
6
CONTINUOUS
10
304.52
20
18.89
11
298.82
21
18.89
0
LINE
8
BLACK
6
CONTINUOUS
10
304.52
20
27.39
11
304.52
21
18.89
0
LINE
8
BLACK
6
CONTINUOUS
10
298.82
20
27.39
11
304.52
21
27.39
0
LINE
8
BLACK
6
CONTINUOUS
10
298.82
20
18.89
11
298.82
21
27.39
0
LINE
8
BLACK
6
CONTINUOUS
10
166.812
20
-82.9853
11
164.512
21
-82.9853
0
LINE
8
BLACK
6
CONTINUOUS
10
166.812
20
-82.9853
11
166.812
21
-78.2853
0
LINE
8
BLACK
6
CONTINUOUS
10
164.512
20
-78.2853
11
164.512
21
-82.9853
0
LINE
8
BLACK
6
CONTINUOUS
10
166.812
20
-78.2853
11
164.512
21
-78.2853
0
LINE
8
BLACK
6
CONTINUOUS
10
245.475
20
-38.0633
11
245.475
21
-42.7633
0
LINE
8
BLACK
6
CONTINUOUS
10
247.775
20
-42.7633
11
245.475
21
-42.7633
0
LINE
8
BLACK
6
CONTINUOUS
10
247.775
20
-38.0633
11
245.475
21
-38.0633
0
LINE
8
BLACK
6
CONTINUOUS
10
247.775
20
-42.7633
11
247.775
21
-38.0633
0
LINE
8
BLACK
6
CONTINUOUS
10
242.32
20
12.7
11
238.48
21
12.7
0
LINE
8
BLACK
6
CONTINUOUS
10
242.32
20
16.1
11
242.32
21
12.7
0
LINE
8
BLACK
6
CONTINUOUS
10
238.48
20
16.1
11
242.32
21
16.1
0
LINE
8
BLACK
6
CONTINUOUS
10
238.48
20
12.7
11
238.48
21
16.1
0
LINE
8
BLACK
6
CONTINUOUS
10
298.1
20
-17.435
11
298.1
21
-22.135
0
LINE
8
BLACK
6
CONTINUOUS
10
300.4
20
-22.135
11
298.1
21
-22.135
0
LINE
8
BLACK
6
CONTINUOUS
10
300.4
20
-17.435
11
298.1
21
-17.435
0
LINE
8
BLACK
6
CONTINUOUS
10
300.4
20
-22.135
11
300.4
21
-17.435
0
LINE
8
BLACK
6
CONTINUOUS
10
40.6875
20
-57.8483
11
40.6875
21
-62.5483
0
LINE
8
BLACK
6
CONTINUOUS
10
42.9875
20
-57.8483
11
40.6875
21
-57.8483
0
LINE
8
BLACK
6
CONTINUOUS
10
42.9875
20
-62.5483
11
40.6875
21
-62.5483
0
LINE
8
BLACK
6
CONTINUOUS
10
42.9875
20
-62.5483
11
42.9875
21
-57.8483
0
LINE
8
BLACK
6
CONTINUOUS
10
123.95
20
-22.135
11
123.95
21
-17.435
0
LINE
8
BLACK
6
CONTINUOUS
10
121.65
20
-17.435
11
121.65
21
-22.135
0
LINE
8
BLACK
6
CONTINUOUS
10
123.95
20
-22.135
11
121.65
21
-22.135
0
LINE
8
BLACK
6
CONTINUOUS
10
123.95
20
-17.435
11
121.65
21
-17.435
0
LINE
8
BLACK
6
CONTINUOUS
10
62.0375
20
-98.8353
11
59.7375
21
-98.8353
0
LINE
8
BLACK
6
CONTINUOUS
10
62.0375
20
-103.535
11
62.0375
21
-98.8353
0
LINE
8
BLACK
6
CONTINUOUS
10
59.7375
20
-98.8353
11
59.7375
21
-103.535
0
LINE
8
BLACK
6
CONTINUOUS
10
62.0375
20
-103.535
11
59.7375
21
-103.535
0
LINE
8
BLACK
6
CONTINUOUS
10
242.74
20
15.31
11
242.74
21
13.49
0
LINE
8
BLACK
6
CONTINUOUS
10
243.66
20
15.31
11
242.74
21
15.31
0
LINE
8
BLACK
6
CONTINUOUS
10
243.66
20
13.49
11
243.66
21
15.31
0
LINE
8
BLACK
6
CONTINUOUS
10
242.74
20
13.49
11
243.66
21
13.49
0
CIRCLE
8
BLACK
10
354.875
20
32.925
40
1.25
0
LINE
8
BLACK
6
CONTINUOUS
10
266.877
20
28.1447
11
265.59
21
29.4316
0
LINE
8
BLACK
6
CONTINUOUS
10
266.227
20
27.4942
11
266.877
21
28.1447
0
LINE
8
BLACK
6
CONTINUOUS
10
264.94
20
28.7811
11
266.227
21
27.4942
0
LINE
8
BLACK
6
CONTINUOUS
10
265.59
20
29.4316
11
264.94
21
28.7811
0
LINE
8
BLACK
6
CONTINUOUS
10
332.905
20
19.95
11
329.545
21
19.95
0
LINE
8
BLACK
6
CONTINUOUS
10
332.905
20
18.05
11
332.905
21
19.95
0
LINE
8
BLACK
6
CONTINUOUS
10
329.545
20
19.95
11
329.545
21
18.05
0
LINE
8
BLACK
6
CONTINUOUS
10
329.545
20
18.05
11
332.905
21
18.05
0
LINE
8
BLACK
6
CONTINUOUS
10
171.575
20
-2.35
11
171.575
21
2.35
0
LINE
8
BLACK
6
CONTINUOUS
10
171.575
20
2.35
11
169.275
21
2.35
0
LINE
8
BLACK
6
CONTINUOUS
10
169.275
20
2.35
11
169.275
21
-2.35
0
LINE
8
BLACK
6
CONTINUOUS
10
171.575
20
-2.35
11
169.275
21
-2.35
0
LINE
8
BLACK
6
CONTINUOUS
10
271.587
20
-42.7633
11
269.287
21
-42.7633
0
LINE
8
BLACK
6
CONTINUOUS
10
271.587
20
-42.7633
11
271.587
21
-38.0633
0
LINE
8
BLACK
6
CONTINUOUS
10
269.287
20
-38.0633
11
269.287
21
-42.7633
0
LINE
8
BLACK
6
CONTINUOUS
10
271.587
20
-38.0633
11
269.287
21
-38.0633
0
LINE
8
BLACK
6
CONTINUOUS
10
-8.523
20
16.628
11
-3.823
21
16.628
0
LINE
8
BLACK
6
CONTINUOUS
10
-8.523
20
16.628
11
-8.523
21
18.928
0
LINE
8
BLACK
6
CONTINUOUS
10
-3.823
20
16.628
11
-3.823
21
18.928
0
LINE
8
BLACK
6
CONTINUOUS
10
-3.823
20
18.928
11
-8.523
21
18.928
0
LINE
8
BLACK
6
CONTINUOUS
10
240.042
20
20.267
11
240.962
21
20.267
0
LINE
8
BLACK
6
CONTINUOUS
10
240.962
20
20.267
11
240.962
21
22.087
0
LINE
8
BLACK
6
CONTINUOUS
10
240.042
20
22.087
11
240.042
21
20.267
0
LINE
8
BLACK
6
CONTINUOUS
10
240.962
20
22.087
11
240.042
21
22.087
0
LINE
8
BLACK
6
CONTINUOUS
10
350.375
20
-0.4
11
350.375
21
-8.3
0
LINE
8
BLACK
6
CONTINUOUS
10
338.275
20
-8.3
11
338.275
21
-0.4
0
LINE
8
BLACK
6
CONTINUOUS
10
350.375
20
-8.3
11
338.275
21
-8.3
0
LINE
8
BLACK
6
CONTINUOUS
10
338.275
20
-0.4
11
350.375
21
-0.4
0
LINE
8
BLACK
6
CONTINUOUS
10
241.96
20
24.4221
11
242.9
21
24.4221
0
LINE
8
BLACK
6
CONTINUOUS
10
242.9
20
26.2821
11
241.96
21
26.2821
0
LINE
8
BLACK
6
CONTINUOUS
10
241.96
20
26.2821
11
241.96
21
24.4221
0
LINE
8
BLACK
6
CONTINUOUS
10
242.9
20
24.4221
11
242.9
21
26.2821
0
LINE
8
BLACK
6
CONTINUOUS
10
338.275
20
-11.485
11
350.375
21
-11.485
0
LINE
8
BLACK
6
CONTINUOUS
10
338.275
20
-19.385
11
338.275
21
-11.485
0
LINE
8
BLACK
6
CONTINUOUS
10
350.375
20
-19.385
11
338.275
21
-19.385
0
LINE
8
BLACK
6
CONTINUOUS
10
350.375
20
-11.485
11
350.375
21
-19.385
0
LINE
8
BLACK
6
CONTINUOUS
10
171.575
20
-42.7633
11
171.575
21
-38.0633
0
LINE
8
BLACK
6
CONTINUOUS
10
169.275
20
-38.0633
11
169.275
21
-42.7633
0
LINE
8
BLACK
6
CONTINUOUS
10
171.575
20
-38.0633
11
169.275
21
-38.0633
0
LINE
8
BLACK
6
CONTINUOUS
10
171.575
20
-42.7633
11
169.275
21
-42.7633
0
LINE
8
BLACK
6
CONTINUOUS
10
126.412
20
-78.2853
11
126.412
21
-82.9853
0
LINE
8
BLACK
6
CONTINUOUS
10
128.713
20
-82.9853
11
128.713
21
-78.2853
0
LINE
8
BLACK
6
CONTINUOUS
10
128.713
20
-78.2853
11
126.412
21
-78.2853
0
LINE
8
BLACK
6
CONTINUOUS
10
128.713
20
-82.9853
11
126.412
21
-82.9853
0
LINE
8
BLACK
6
CONTINUOUS
10
28.7
20
-22.135
11
28.7
21
-17.435
0
LINE
8
BLACK
6
CONTINUOUS
10
26.4
20
-17.435
11
26.4
21
-22.135
0
LINE
8
BLACK
6
CONTINUOUS
10
28.7
20
-17.435
11
26.4
21
-17.435
0
LINE
8
BLACK
6
CONTINUOUS
10
28.7
20
-22.135
11
26.4
21
-22.135
0
LINE
8
BLACK
6
CONTINUOUS
10
280.471
20
11.625
11
280.471
21
19.525
0
LINE
8
BLACK
6
CONTINUOUS
10
298.571
20
11.625
11
280.471
21
11.625
0
LINE
8
BLACK
6
CONTINUOUS
10
298.571
20
19.525
11
298.571
21
11.625
0
LINE
8
BLACK
6
CONTINUOUS
10
280.471
20
19.525
11
298.571
21
19.525
0
LINE
8
BLACK
6
CONTINUOUS
10
223.962
20
-98.8353
11
221.662
21
-98.8353
0
LINE
8
BLACK
6
CONTINUOUS
10
221.662
20
-98.8353
11
221.662
21
-103.535
0
LINE
8
BLACK
6
CONTINUOUS
10
223.962
20
-103.535
11
221.662
21
-103.535
0
LINE
8
BLACK
6
CONTINUOUS
10
223.962
20
-103.535
11
223.962
21
-98.8353
0
LINE
8
BLACK
6
CONTINUOUS
10
-14.023
20
17.7316
11
-11.023
21
17.7316
0
LINE
8
BLACK
6
CONTINUOUS
10
-11.023
20
17.7316
11
-11.023
21
19.5516
0
LINE
8
BLACK
6
CONTINUOUS
10
-11.023
20
19.5516
11
-14.023
21
19.5516
0
LINE
8
BLACK
6
CONTINUOUS
10
-14.023
20
19.5516
11
-14.023
21
17.7316
0
LINE
8
BLACK
6
CONTINUOUS
10
268.908
20
30.4808
11
267.621
21
29.1939
0
LINE
8
BLACK
6
CONTINUOUS
10
269.558
20
29.8303
11
268.908
21
30.4808
0
LINE
8
BLACK
6
CONTINUOUS
10
268.271
20
28.5433
11
269.558
21
29.8303
0
LINE
8
BLACK
6
CONTINUOUS
10
267.621
20
29.1939
11
268.271
21
28.5433
0
LINE
8
BLACK
6
CONTINUOUS
10
258.517
20
30.5068
11
259.804
21
31.7937
0
LINE
8
BLACK
6
CONTINUOUS
10
257.866
20
31.1573
11
258.517
21
30.5068
0
LINE
8
BLACK
6
CONTINUOUS
10
259.153
20
32.4443
11
257.866
21
31.1573
0
LINE
8
BLACK
6
CONTINUOUS
10
259.804
20
31.7937
11
259.153
21
32.4443
0
LINE
8
BLACK
6
CONTINUOUS
10
271.587
20
-103.535
11
271.587
21
-98.8353
0
LINE
8
BLACK
6
CONTINUOUS
10
271.587
20
-98.8353
11
269.287
21
-98.8353
0
LINE
8
BLACK
6
CONTINUOUS
10
269.287
20
-98.8353
11
269.287
21
-103.535
0
LINE
8
BLACK
6
CONTINUOUS
10
271.587
20
-103.535
11
269.287
21
-103.535
0
LINE
8
BLACK
6
CONTINUOUS
10
119.04
20
-63.8458
11
119.04
21
-59.1458
0
LINE
8
BLACK
6
CONTINUOUS
10
119.04
20
-59.1458
11
116.74
21
-59.1458
0
LINE
8
BLACK
6
CONTINUOUS
10
119.04
20
-63.8458
11
116.74
21
-63.8458
0
LINE
8
BLACK
6
CONTINUOUS
10
116.74
20
-59.1458
11
116.74
21
-63.8458
0
LINE
8
BLACK
6
CONTINUOUS
10
109.662
20
-78.2853
11
107.362
21
-78.2853
0
LINE
8
BLACK
6
CONTINUOUS
10
109.662
20
-82.9853
11
109.662
21
-78.2853
0
LINE
8
BLACK
6
CONTINUOUS
10
107.362
20
-78.2853
11
107.362
21
-82.9853
0
LINE
8
BLACK
6
CONTINUOUS
10
109.662
20
-82.9853
11
107.362
21
-82.9853
0
LINE
8
BLACK
6
CONTINUOUS
10
185.862
20
-82.9853
11
183.562
21
-82.9853
0
LINE
8
BLACK
6
CONTINUOUS
10
183.562
20
-78.2853
11
183.562
21
-82.9853
0
LINE
8
BLACK
6
CONTINUOUS
10
185.862
20
-78.2853
11
183.562
21
-78.2853
0
LINE
8
BLACK
6
CONTINUOUS
10
185.862
20
-82.9853
11
185.862
21
-78.2853
0
LINE
8
BLACK
6
CONTINUOUS
10
216.9
20
-17.435
11
216.9
21
-22.135
0
LINE
8
BLACK
6
CONTINUOUS
10
219.2
20
-17.435
11
216.9
21
-17.435
0
LINE
8
BLACK
6
CONTINUOUS
10
219.2
20
-22.135
11
216.9
21
-22.135
0
LINE
8
BLACK
6
CONTINUOUS
10
219.2
20
-22.135
11
219.2
21
-17.435
0
CIRCLE
8
BLACK
10
-26
20
33
40
1.25
0
LINE
8
BLACK
6
CONTINUOUS
10
319.45
20
-103.535
11
319.45
21
-98.8353
0
LINE
8
BLACK
6
CONTINUOUS
10
319.45
20
-103.535
11
317.15
21
-103.535
0
LINE
8
BLACK
6
CONTINUOUS
10
319.45
20
-98.8353
11
317.15
21
-98.8353
0
LINE
8
BLACK
6
CONTINUOUS
10
317.15
20
-98.8353
11
317.15
21
-103.535
0
LINE
8
BLACK
6
CONTINUOUS
10
-21.525
20
-32.1133
11
-9.425
21
-32.1133
0
LINE
8
BLACK
6
CONTINUOUS
10
-9.425
20
-40.0133
11
-21.525
21
-40.0133
0
LINE
8
BLACK
6
CONTINUOUS
10
-21.525
20
-40.0133
11
-21.525
21
-32.1133
0
LINE
8
BLACK
6
CONTINUOUS
10
-9.425
20
-32.1133
11
-9.425
21
-40.0133
0
LINE
8
BLACK
6
CONTINUOUS
10
350.375
20
-81.0353
11
350.375
21
-88.9353
0
LINE
8
BLACK
6
CONTINUOUS
10
338.275
20
-88.9353
11
338.275
21
-81.0353
0
LINE
8
BLACK
6
CONTINUOUS
10
338.275
20
-81.0353
11
350.375
21
-81.0353
0
LINE
8
BLACK
6
CONTINUOUS
10
350.375
20
-88.9353
11
338.275
21
-88.9353
0
LINE
8
BLACK
6
CONTINUOUS
10
66.8
20
2.35
11
64.5
21
2.35
0
LINE
8
BLACK
6
CONTINUOUS
10
66.8
20
-2.35
11
64.5
21
-2.35
0
LINE
8
BLACK
6
CONTINUOUS
10
64.5
20
2.35
11
64.5
21
-2.35
0
LINE
8
BLACK
6
CONTINUOUS
10
66.8
20
-2.35
11
66.8
21
2.35
0
LINE
8
BLACK
6
CONTINUOUS
10
204.912
20
-82.9853
11
204.912
21
-78.2853
0
LINE
8
BLACK
6
CONTINUOUS
10
204.912
20
-82.9853
11
202.612
21
-82.9853
0
LINE
8
BLACK
6
CONTINUOUS
10
202.612
20
-78.2853
11
202.612
21
-82.9853
0
LINE
8
BLACK
6
CONTINUOUS
10
204.912
20
-78.2853
11
202.612
21
-78.2853
0
LINE
8
BLACK
6
CONTINUOUS
10
338.275
20
-28.085
11
338.275
21
-20.185
0
LINE
8
BLACK
6
CONTINUOUS
10
338.275
20
-20.185
11
350.375
21
-20.185
0
LINE
8
BLACK
6
CONTINUOUS
10
350.375
20
-20.185
11
350.375
21
-28.085
0
LINE
8
BLACK
6
CONTINUOUS
10
350.375
20
-28.085
11
338.275
21
-28.085
0
LINE
8
BLACK
6
CONTINUOUS
10
-21.525
20
-80.2353
11
-21.525
21
-72.3353
0
LINE
8
BLACK
6
CONTINUOUS
10
-9.425
20
-72.3353
11
-9.425
21
-80.2353
0
LINE
8
BLACK
6
CONTINUOUS
10
-21.525
20
-72.3353
11
-9.425
21
-72.3353
0
LINE
8
BLACK
6
CONTINUOUS
10
-9.425
20
-80.2353
11
-21.525
21
-80.2353
0
LINE
8
BLACK
6
CONTINUOUS
10
21.5562
20
-82.9853
11
21.5562
21
-78.2853
0
LINE
8
BLACK
6
CONTINUOUS
10
19.2562
20
-78.2853
11
19.2562
21
-82.9853
0
LINE
8
BLACK
6
CONTINUOUS
10
21.5562
20
-78.2853
11
19.2562
21
-78.2853
0
LINE
8
BLACK
6
CONTINUOUS
10
21.5562
20
-82.9853
11
19.2562
21
-82.9853
0
LINE
8
BLACK
6
CONTINUOUS
10
263.57
20
-59.1358
11
268.27
21
-59.1358
0
LINE
8
BLACK
6
CONTINUOUS
10
263.57
20
-56.8358
11
263.57
21
-59.1358
0
LINE
8
BLACK
6
CONTINUOUS
10
268.27
20
-56.8358
11
263.57
21
-56.8358
0
LINE
8
BLACK
6
CONTINUOUS
10
268.27
20
-56.8358
11
268.27
21
-59.1358
0
CIRCLE
8
BLACK
10
-26.025
20
-106.985
40
1.25
0
LINE
8
BLACK
6
CONTINUOUS
10
264.525
20
-17.435
11
264.525
21
-22.135
0
LINE
8
BLACK
6
CONTINUOUS
10
266.825
20
-22.135
11
264.525
21
-22.135
0
LINE
8
BLACK
6
CONTINUOUS
10
266.825
20
-17.435
11
264.525
21
-17.435
0
LINE
8
BLACK
6
CONTINUOUS
10
266.825
20
-22.135
11
266.825
21
-17.435
0
LINE
8
BLACK
6
CONTINUOUS
10
170.1
20
-64.4958
11
174.8
21
-64.4958
0
LINE
8
BLACK
6
CONTINUOUS
10
174.8
20
-64.4958
11
174.8
21
-62.1958
0
LINE
8
BLACK
6
CONTINUOUS
10
170.1
20
-64.4958
11
170.1
21
-62.1958
0
LINE
8
BLACK
6
CONTINUOUS
10
174.8
20
-62.1958
11
170.1
21
-62.1958
0
LINE
8
BLACK
6
CONTINUOUS
10
104.9
20
-17.435
11
102.6
21
-17.435
0
LINE
8
BLACK
6
CONTINUOUS
10
104.9
20
-22.135
11
104.9
21
-17.435
0
LINE
8
BLACK
6
CONTINUOUS
10
104.9
20
-22.135
11
102.6
21
-22.135
0
LINE
8
BLACK
6
CONTINUOUS
10
102.6
20
-17.435
11
102.6
21
-22.135
0
LINE
8
BLACK
6
CONTINUOUS
10
133.475
20
-38.0633
11
131.175
21
-38.0633
0
LINE
8
BLACK
6
CONTINUOUS
10
131.175
20
-38.0633
11
131.175
21
-42.7633
0
LINE
8
BLACK
6
CONTINUOUS
10
133.475
20
-42.7633
11
133.475
21
-38.0633
0
LINE
8
BLACK
6
CONTINUOUS
10
133.475
20
-42.7633
11
131.175
21
-42.7633
0
LINE
8
BLACK
6
CONTINUOUS
10
67.2165
20
-18.776
11
64.9165
21
-18.776
0
LINE
8
BLACK
6
CONTINUOUS
10
67.2165
20
-14.076
11
64.9165
21
-14.076
0
LINE
8
BLACK
6
CONTINUOUS
10
64.9165
20
-14.076
11
64.9165
21
-18.776
0
LINE
8
BLACK
6
CONTINUOUS
10
67.2165
20
-18.776
11
67.2165
21
-14.076
0
LINE
8
BLACK
6
CONTINUOUS
10
338.678
20
0.993997
11
336.378
21
0.993997
0
LINE
8
BLACK
6
CONTINUOUS
10
336.378
20
5.694
11
336.378
21
0.993997
0
LINE
8
BLACK
6
CONTINUOUS
10
338.678
20
0.993997
11
338.678
21
5.694
0
LINE
8
BLACK
6
CONTINUOUS
10
338.678
20
5.694
11
336.378
21
5.694
0
LINE
8
BLACK
6
CONTINUOUS
10
-21.525
20
-11.485
11
-9.425
21
-11.485
0
LINE
8
BLACK
6
CONTINUOUS
10
-9.425
20
-19.385
11
-21.525
21
-19.385
0
LINE
8
BLACK
6
CONTINUOUS
10
-21.525
20
-19.385
11
-21.525
21
-11.485
0
LINE
8
BLACK
6
CONTINUOUS
10
-9.425
20
-11.485
11
-9.425
21
-19.385
0
LINE
8
BLACK
6
CONTINUOUS
10
152.525
20
2.35
11
150.225
21
2.35
0
LINE
8
BLACK
6
CONTINUOUS
10
152.525
20
-2.35
11
152.525
21
2.35
0
LINE
8
BLACK
6
CONTINUOUS
10
150.225
20
2.35
11
150.225
21
-2.35
0
LINE
8
BLACK
6
CONTINUOUS
10
152.525
20
-2.35
11
150.225
21
-2.35
0
LINE
8
BLACK
6
CONTINUOUS
10
93.075
20
-38.0633
11
93.075
21
-42.7633
0
LINE
8
BLACK
6
CONTINUOUS
10
95.375
20
-38.0633
11
93.075
21
-38.0633
0
LINE
8
BLACK
6
CONTINUOUS
10
95.375
20
-42.7633
11
95.375
21
-38.0633
0
LINE
8
BLACK
6
CONTINUOUS
10
95.375
20
-42.7633
11
93.075
21
-42.7633
0
LINE
8
BLACK
6
CONTINUOUS
10
76.325
20
-42.7633
11
76.325
21
-38.0633
0
LINE
8
BLACK
6
CONTINUOUS
10
76.325
20
-42.7633
11
74.025
21
-42.7633
0
LINE
8
BLACK
6
CONTINUOUS
10
76.325
20
-38.0633
11
74.025
21
-38.0633
0
LINE
8
BLACK
6
CONTINUOUS
10
74.025
20
-38.0633
11
74.025
21
-42.7633
0
LINE
8
BLACK
6
CONTINUOUS
10
298.1
20
-98.8353
11
298.1
21
-103.535
0
LINE
8
BLACK
6
CONTINUOUS
10
300.4
20
-103.535
11
298.1
21
-103.535
0
LINE
8
BLACK
6
CONTINUOUS
10
300.4
20
-98.8353
11
298.1
21
-98.8353
0
LINE
8
BLACK
6
CONTINUOUS
10
300.4
20
-103.535
11
300.4
21
-98.8353
0
LINE
8
BLACK
6
CONTINUOUS
10
350.375
20
-68.4983
11
338.275
21
-68.4983
0
LINE
8
BLACK
6
CONTINUOUS
10
338.275
20
-60.5983
11
350.375
21
-60.5983
0
LINE
8
BLACK
6
CONTINUOUS
10
338.275
20
-68.4983
11
338.275
21
-60.5983
0
LINE
8
BLACK
6
CONTINUOUS
10
350.375
20
-60.5983
11
350.375
21
-68.4983
0
LINE
8
BLACK
6
CONTINUOUS
10
258.753
20
30.2969
11
259.404
21
29.6464
0
LINE
8
BLACK
6
CONTINUOUS
10
260.04
20
31.5838
11
258.753
21
30.2969
0
LINE
8
BLACK
6
CONTINUOUS
10
260.691
20
30.9333
11
260.04
21
31.5838
0
LINE
8
BLACK
6
CONTINUOUS
10
259.404
20
29.6464
11
260.691
21
30.9333
0
LINE
8
BLACK
6
CONTINUOUS
10
38.225
20
-38.0633
11
35.925
21
-38.0633
0
LINE
8
BLACK
6
CONTINUOUS
10
38.225
20
-42.7633
11
38.225
21
-38.0633
0
LINE
8
BLACK
6
CONTINUOUS
10
35.925
20
-38.0633
11
35.925
21
-42.7633
0
LINE
8
BLACK
6
CONTINUOUS
10
38.225
20
-42.7633
11
35.925
21
-42.7633
0
LINE
8
BLACK
6
CONTINUOUS
10
239.843
20
21.157
11
238.022
21
21.157
0
LINE
8
BLACK
6
CONTINUOUS
10
238.022
20
21.157
11
238.022
21
20.237
0
LINE
8
BLACK
6
CONTINUOUS
10
239.843
20
20.237
11
239.843
21
21.157
0
LINE
8
BLACK
6
CONTINUOUS
10
238.022
20
20.237
11
239.843
21
20.237
0
LINE
8
BLACK
6
CONTINUOUS
10
143
20
-98.8353
11
140.7
21
-98.8353
0
LINE
8
BLACK
6
CONTINUOUS
10
143
20
-103.535
11
140.7
21
-103.535
0
LINE
8
BLACK
6
CONTINUOUS
10
140.7
20
-98.8353
11
140.7
21
-103.535
0
LINE
8
BLACK
6
CONTINUOUS
10
143
20
-103.535
11
143
21
-98.8353
0
LINE
8
BLACK
6
CONTINUOUS
10
90.6125
20
-82.9853
11
88.3125
21
-82.9853
0
LINE
8
BLACK
6
CONTINUOUS
10
90.6125
20
-78.2853
11
88.3125
21
-78.2853
0
LINE
8
BLACK
6
CONTINUOUS
10
88.3125
20
-78.2853
11
88.3125
21
-82.9853
0
LINE
8
BLACK
6
CONTINUOUS
10
90.6125
20
-82.9853
11
90.6125
21
-78.2853
0
LINE
8
BLACK
6
CONTINUOUS
10
152.525
20
-38.0633
11
150.225
21
-38.0633
0
LINE
8
BLACK
6
CONTINUOUS
10
152.525
20
-42.7633
11
150.225
21
-42.7633
0
LINE
8
BLACK
6
CONTINUOUS
10
150.225
20
-38.0633
11
150.225
21
-42.7633
0
LINE
8
BLACK
6
CONTINUOUS
10
152.525
20
-42.7633
11
152.525
21
-38.0633
  0
ENDSEC
  0
EOF
