  0
SECTION
  2
HEADER
  9
$ANGBASE
  50
0.0
  9
$ANGDIR
  70
1
  9
$MEASUREMENT
  70
1
  0
ENDSEC
  0
SECTION
  2
TABLES
  0
TABLE
  2
LTYPE
  70
4
  0
LTYPE
  5
40F
  2
CONTINUOUS
  70
0
  3
Solid line
  72
65
  73
0
  40
0.0
  0
LTYPE
  5
410
  2
DASHDOT
 70
0
  3
Dash Dot ____ _ ____ _
 72
65
 73
4
 40
2.0
 49
1.25
 49
-0.25
 49
0.25
 49
-0.25
  0
LTYPE
  5
411
  2
DASHED
 70
0
  3
Dashed __ __ __ __ __
 72
65
 73
2
 40
0.75
 49
0.5
 49
-0.25
  0
LTYPE
  5
43B
  2
DOTTED
 70
0
  3
Dotted .  .  .  .
 72
65
 73
2
 40
0.2
 49
0.0
 49
-0.2
  0
ENDTAB
  0
TABLE
  2
STYLE
  70
4
  0
STYLE
  2
KICAD
  70
0
  40
0
  41
1
  42
1
  50
0
  71
0
  3
isocp.shx
  0
STYLE
  2
KICADB
  70
0
  40
0
  41
1
  42
1
  50
0
  71
0
  3
isocp.shx
  0
STYLE
  2
KICADI
  70
0
  40
0
  41
1
  42
1
  50
15
  71
0
  3
isocp.shx
  0
STYLE
  2
KICADBI
  70
0
  40
0
  41
1
  42
1
  50
15
  71
0
  3
isocp.shx
  0
ENDTAB
  0
TABLE
  2
LAYER
  70
1
  0
LAYER
  2
BLACK
  70
0
  62
7
  6
CONTINUOUS
  0
ENDTAB
  0
ENDSEC
  0
SECTION
  2
ENTITIES
0
LINE
8
BLACK
6
CONTINUOUS
10
-21.525
20
5.3
11
-21.525
21
2.794
0
ARC
8
BLACK
10
-18.525
20
5.3
40
3
50
90
51
180
0
LINE
8
BLACK
6
CONTINUOUS
10
-16.191
20
8.3
11
-18.525
21
8.3
0
ARC
8
BLACK
10
-16.1909
20
6.3
40
2
50
28.4793
51
90.0001
0
ARC
8
BLACK
10
-12.2355
20
8.44579
40
2.5
50
-151.521
51
-28.4794
0
ARC
8
BLACK
10
-8.28005
20
6.3
40
2
50
89.9999
51
151.521
0
LINE
8
BLACK
6
CONTINUOUS
10
96.2774
20
8.3
11
-8.28005
21
8.3
0
ARC
8
BLACK
10
96.2774
20
9.3
40
0.999999
50
-89.9987
51
89.9988
0
LINE
8
BLACK
6
CONTINUOUS
10
-1.525
20
10.3
11
96.2774
21
10.3
0
LINE
8
BLACK
6
CONTINUOUS
10
-1.525
20
17.081
11
-1.525
21
10.3
0
ARC
8
BLACK
10
-2.525
20
17.081
40
1
50
-0
51
180
0
LINE
8
BLACK
6
CONTINUOUS
10
-3.525
20
13.625
11
-3.525
21
17.081
0
ARC
8
BLACK
10
-5.525
20
13.625
40
2
50
-90
51
2.86479e-05
0
LINE
8
BLACK
6
CONTINUOUS
10
-19.525
20
11.625
11
-5.525
21
11.625
0
ARC
8
BLACK
10
-19.525
20
13.625
40
2
50
-180
51
-90
0
LINE
8
BLACK
6
CONTINUOUS
10
-21.525
20
17.081
11
-21.525
21
13.625
0
ARC
8
BLACK
10
-22.525
20
17.081
40
1
50
-0
51
180
0
LINE
8
BLACK
6
CONTINUOUS
10
-23.525
20
2.794
11
-23.525
21
17.081
0
ARC
8
BLACK
10
-22.525
20
2.794
40
1
50
-180
51
-5.72958e-05
0
ARC
8
BLACK
10
286.727
20
10.625
40
1
50
-0
51
89.9988
0
LINE
8
BLACK
6
CONTINUOUS
10
231.168
20
11.625
11
286.727
21
11.625
0
ARC
8
BLACK
10
231.168
20
14.125
40
2.5
50
-180
51
-89.999
0
LINE
8
BLACK
6
CONTINUOUS
10
228.668
20
20.731
11
228.668
21
14.125
0
ARC
8
BLACK
10
227.668
20
20.731
40
1
50
-0
51
180
0
LINE
8
BLACK
6
CONTINUOUS
10
226.668
20
10.3
11
226.668
21
20.731
0
LINE
8
BLACK
6
CONTINUOUS
10
101.865
20
10.3
11
226.668
21
10.3
0
ARC
8
BLACK
10
101.865
20
9.3
40
1
50
-270.001
51
-89.9987
0
LINE
8
BLACK
6
CONTINUOUS
10
105.471
20
8.3
11
101.865
21
8.3
0
ARC
8
BLACK
10
105.471
20
6.3
40
2
50
28.4789
51
89.9991
0
ARC
8
BLACK
10
109.427
20
8.44579
40
2.5
50
-151.521
51
-28.4794
0
ARC
8
BLACK
10
113.382
20
6.3
40
1.99997
50
89.9991
51
151.52
0
LINE
8
BLACK
6
CONTINUOUS
10
191.201
20
8.3
11
113.382
21
8.3
0
ARC
8
BLACK
10
191.201
20
6.3
40
2
50
28.4789
51
89.9991
0
ARC
8
BLACK
10
195.157
20
8.44579
40
2.5
50
-151.521
51
-28.4794
0
ARC
8
BLACK
10
199.112
20
6.3
40
1.99997
50
89.9991
51
151.52
0
LINE
8
BLACK
6
CONTINUOUS
10
274.651
20
8.3
11
199.112
21
8.3
0
ARC
8
BLACK
10
274.651
20
6.3
40
2
50
28.4786
51
89.9999
0
ARC
8
BLACK
10
278.607
20
8.44574
40
2.5
50
-151.521
51
-28.4787
0
ARC
8
BLACK
10
282.562
20
6.3
40
2.00004
50
90.0013
51
151.522
0
LINE
8
BLACK
6
CONTINUOUS
10
286.727
20
8.3
11
282.562
21
8.3
0
ARC
8
BLACK
10
286.727
20
9.3
40
1.00002
50
-89.9988
51
-0
0
LINE
8
BLACK
6
CONTINUOUS
10
287.727
20
10.625
11
287.727
21
9.3
0
LINE
8
BLACK
6
CONTINUOUS
10
292.315
20
11.625
11
347.875
21
11.625
0
ARC
8
BLACK
10
292.315
20
10.625
40
0.999979
50
89.9988
51
180
0
LINE
8
BLACK
6
CONTINUOUS
10
291.315
20
9.3
11
291.315
21
10.625
0
ARC
8
BLACK
10
292.315
20
9.3
40
1
50
-180
51
-89.9988
0
LINE
8
BLACK
6
CONTINUOUS
10
337.109
20
8.3
11
292.315
21
8.3
0
ARC
8
BLACK
10
337.109
20
6.3
40
2
50
28.48
51
90.0014
0
ARC
8
BLACK
10
341.065
20
8.44579
40
2.5
50
-151.521
51
-28.4794
0
ARC
8
BLACK
10
345.02
20
6.3
40
1.99996
50
89.9986
51
151.52
0
LINE
8
BLACK
6
CONTINUOUS
10
347.375
20
8.3
11
345.02
21
8.3
0
ARC
8
BLACK
10
347.375
20
5.3
40
3
50
-0
51
90
0
LINE
8
BLACK
6
CONTINUOUS
10
350.375
20
2.79401
11
350.375
21
5.3
0
ARC
8
BLACK
10
351.375
20
2.794
40
1
50
-180.001
51
-5.72958e-05
0
LINE
8
BLACK
6
CONTINUOUS
10
352.375
20
20.731
11
352.375
21
2.794
0
ARC
8
BLACK
10
351.375
20
20.731
40
1
50
-0
51
180
0
LINE
8
BLACK
6
CONTINUOUS
10
350.375
20
14.125
11
350.375
21
20.731
0
ARC
8
BLACK
10
347.875
20
14.125
40
2.5
50
-90
51
-0
0
LINE
8
BLACK
6
CONTINUOUS
10
347.875
20
35.425
11
231.168
21
35.425
0
ARC
8
BLACK
10
347.875
20
32.925
40
2.5
50
-0
51
90
0
LINE
8
BLACK
6
CONTINUOUS
10
350.375
20
26.319
11
350.375
21
32.925
0
ARC
8
BLACK
10
351.375
20
26.319
40
1
50
-180
51
-0.000171887
0
LINE
8
BLACK
6
CONTINUOUS
10
352.375
20
35.425
11
352.375
21
26.319
0
LINE
8
BLACK
6
CONTINUOUS
10
354.875
20
35.425
11
352.375
21
35.425
0
ARC
8
BLACK
10
354.875
20
32.925
40
2.5
50
-0
51
90
0
LINE
8
BLACK
6
CONTINUOUS
10
357.375
20
-106.985
11
357.375
21
32.925
0
ARC
8
BLACK
10
354.875
20
-106.985
40
2.5
50
-90
51
-0.000733386
0
LINE
8
BLACK
6
CONTINUOUS
10
352.375
20
-109.485
11
354.875
21
-109.485
0
LINE
8
BLACK
6
CONTINUOUS
10
352.375
20
-103.979
11
352.375
21
-109.485
0
ARC
8
BLACK
10
351.375
20
-103.979
40
1
50
-360.002
51
-179.998
0
LINE
8
BLACK
6
CONTINUOUS
10
350.375
20
-106.485
11
350.375
21
-103.979
0
ARC
8
BLACK
10
347.375
20
-106.485
40
3
50
-90
51
-0.000611155
0
LINE
8
BLACK
6
CONTINUOUS
10
194.546
20
-109.485
11
347.375
21
-109.485
0
ARC
8
BLACK
10
194.546
20
-114.485
40
4.99998
50
90.0002
51
122.648
0
ARC
8
BLACK
10
190.5
20
-108.17
40
2.5
50
-122.648
51
-57.3519
0
ARC
8
BLACK
10
186.454
20
-114.485
40
4.99997
50
57.3515
51
89.9998
0
LINE
8
BLACK
6
CONTINUOUS
10
80.2461
20
-109.485
11
186.454
21
-109.485
0
ARC
8
BLACK
10
80.2461
20
-114.485
40
4.99998
50
90.0002
51
122.648
0
ARC
8
BLACK
10
76.2
20
-108.17
40
2.5
50
-122.648
51
-57.3519
0
ARC
8
BLACK
10
72.1539
20
-114.485
40
4.99997
50
57.3515
51
89.9998
0
LINE
8
BLACK
6
CONTINUOUS
10
-18.525
20
-109.485
11
72.1539
21
-109.485
0
ARC
8
BLACK
10
-18.525
20
-106.485
40
3
50
-180
51
-90
0
LINE
8
BLACK
6
CONTINUOUS
10
-21.525
20
-103.979
11
-21.525
21
-106.485
0
ARC
8
BLACK
10
-22.525
20
-103.979
40
1
50
-360
51
-180
0
LINE
8
BLACK
6
CONTINUOUS
10
-23.525
20
-109.485
11
-23.525
21
-103.979
0
LINE
8
BLACK
6
CONTINUOUS
10
-26.025
20
-109.485
11
-23.525
21
-109.485
0
ARC
8
BLACK
10
-26.025
20
-106.985
40
2.5
50
-180
51
-90
0
LINE
8
BLACK
6
CONTINUOUS
10
-28.525
20
32.925
11
-28.525
21
-106.985
0
ARC
8
BLACK
10
-26.025
20
32.925
40
2.5
50
90
51
180
0
LINE
8
BLACK
6
CONTINUOUS
10
224.168
20
35.425
11
-26.025
21
35.425
0
ARC
8
BLACK
10
224.168
20
32.925
40
2.5
50
1.13687e-14
51
89.999
0
LINE
8
BLACK
6
CONTINUOUS
10
226.668
20
26.319
11
226.668
21
32.925
0
ARC
8
BLACK
10
227.668
20
26.319
40
1.00004
50
-180
51
-0
0
LINE
8
BLACK
6
CONTINUOUS
10
228.668
20
32.925
11
228.668
21
26.319
0
ARC
8
BLACK
10
231.168
20
32.925
40
2.49996
50
89.999
51
180
0
ARC
8
BLACK
10
292.315
20
-89.9353
40
0.999979
50
-270.001
51
-179.998
0
LINE
8
BLACK
6
CONTINUOUS
10
350.375
20
-88.9353
11
292.315
21
-88.9353
0
LINE
8
BLACK
6
CONTINUOUS
10
350.375
20
-83.4293
11
350.375
21
-88.9353
0
ARC
8
BLACK
10
351.375
20
-83.4293
40
1
50
-0
51
180
0
LINE
8
BLACK
6
CONTINUOUS
10
352.375
20
-98.3913
11
352.375
21
-83.4293
0
ARC
8
BLACK
10
351.375
20
-98.3913
40
1
50
-179.997
51
-0.00217724
0
LINE
8
BLACK
6
CONTINUOUS
10
350.375
20
-92.8853
11
350.375
21
-98.3913
0
LINE
8
BLACK
6
CONTINUOUS
10
292.315
20
-92.8853
11
350.375
21
-92.8853
0
ARC
8
BLACK
10
292.315
20
-91.8853
40
1.00003
50
-179.998
51
-89.9988
0
LINE
8
BLACK
6
CONTINUOUS
10
291.315
20
-89.9353
11
291.315
21
-91.8853
0
ARC
8
BLACK
10
292.315
20
-69.4983
40
0.999979
50
-270.001
51
-179.997
0
LINE
8
BLACK
6
CONTINUOUS
10
350.375
20
-68.4983
11
292.315
21
-68.4983
0
LINE
8
BLACK
6
CONTINUOUS
10
350.375
20
-62.9923
11
350.375
21
-68.4983
0
ARC
8
BLACK
10
351.375
20
-62.9923
40
1
50
-360.002
51
-179.998
0
LINE
8
BLACK
6
CONTINUOUS
10
352.375
20
-77.8413
11
352.375
21
-62.9923
0
ARC
8
BLACK
10
351.375
20
-77.8413
40
1
50
-179.998
51
-0.000859437
0
LINE
8
BLACK
6
CONTINUOUS
10
350.375
20
-72.3353
11
350.375
21
-77.8413
0
LINE
8
BLACK
6
CONTINUOUS
10
292.315
20
-72.3353
11
350.375
21
-72.3353
0
ARC
8
BLACK
10
292.315
20
-71.3353
40
1.00003
50
-179.998
51
-89.9988
0
LINE
8
BLACK
6
CONTINUOUS
10
291.315
20
-69.4983
11
291.315
21
-71.3353
0
LINE
8
BLACK
6
CONTINUOUS
10
350.375
20
-48.7133
11
292.315
21
-48.7133
0
LINE
8
BLACK
6
CONTINUOUS
10
350.375
20
-43.2073
11
350.375
21
-48.7133
0
ARC
8
BLACK
10
351.375
20
-43.2073
40
1
50
-360.002
51
-179.998
0
LINE
8
BLACK
6
CONTINUOUS
10
352.375
20
-57.4044
11
352.375
21
-43.2073
0
ARC
8
BLACK
10
351.375
20
-57.4044
40
1
50
-180.003
51
0.00240642
0
LINE
8
BLACK
6
CONTINUOUS
10
350.375
20
-51.8983
11
350.375
21
-57.4044
0
LINE
8
BLACK
6
CONTINUOUS
10
292.315
20
-51.8983
11
350.375
21
-51.8983
0
ARC
8
BLACK
10
292.315
20
-50.8983
40
1.00004
50
-179.997
51
-89.9988
0
LINE
8
BLACK
6
CONTINUOUS
10
291.315
20
-49.7133
11
291.315
21
-50.8983
0
ARC
8
BLACK
10
292.315
20
-49.7133
40
0.999979
50
-270.001
51
-179.997
0
ARC
8
BLACK
10
292.315
20
-29.085
40
0.999979
50
89.9988
51
180
0
LINE
8
BLACK
6
CONTINUOUS
10
350.375
20
-28.085
11
292.315
21
-28.085
0
LINE
8
BLACK
6
CONTINUOUS
10
350.375
20
-22.579
11
350.375
21
-28.085
0
ARC
8
BLACK
10
351.375
20
-22.579
40
1
50
-360
51
-180
0
LINE
8
BLACK
6
CONTINUOUS
10
352.375
20
-37.6193
11
352.375
21
-22.579
0
ARC
8
BLACK
10
351.375
20
-37.6193
40
1
50
-179.998
51
-0.00229183
0
LINE
8
BLACK
6
CONTINUOUS
10
350.375
20
-32.1133
11
350.375
21
-37.6193
0
LINE
8
BLACK
6
CONTINUOUS
10
292.315
20
-32.1133
11
350.375
21
-32.1133
0
ARC
8
BLACK
10
292.315
20
-31.1133
40
0.999988
50
-180.001
51
-89.9989
0
LINE
8
BLACK
6
CONTINUOUS
10
291.315
20
-29.085
11
291.315
21
-31.1133
0
ARC
8
BLACK
10
96.2774
20
-49.7133
40
0.999955
50
-0.00257826
51
89.9988
0
LINE
8
BLACK
6
CONTINUOUS
10
97.2774
20
-50.8983
11
97.2774
21
-49.7133
0
ARC
8
BLACK
10
96.2774
20
-50.8983
40
1.00002
50
-89.9988
51
-0.00257826
0
LINE
8
BLACK
6
CONTINUOUS
10
-21.525
20
-51.8983
11
96.2774
21
-51.8983
0
LINE
8
BLACK
6
CONTINUOUS
10
-21.525
20
-57.4044
11
-21.525
21
-51.8983
0
ARC
8
BLACK
10
-22.525
20
-57.4044
40
1
50
-180
51
-0
0
LINE
8
BLACK
6
CONTINUOUS
10
-23.525
20
-43.2073
11
-23.525
21
-57.4044
0
ARC
8
BLACK
10
-22.525
20
-43.2073
40
1
50
-360
51
-180
0
LINE
8
BLACK
6
CONTINUOUS
10
-21.525
20
-48.7133
11
-21.525
21
-43.2073
0
LINE
8
BLACK
6
CONTINUOUS
10
96.2774
20
-48.7133
11
-21.525
21
-48.7133
0
ARC
8
BLACK
10
96.2774
20
-31.1133
40
1.00002
50
-89.9988
51
-0.00257826
0
LINE
8
BLACK
6
CONTINUOUS
10
-21.525
20
-32.1133
11
96.2774
21
-32.1133
0
LINE
8
BLACK
6
CONTINUOUS
10
-21.525
20
-37.6193
11
-21.525
21
-32.1133
0
ARC
8
BLACK
10
-22.525
20
-37.6193
40
1
50
-180
51
5.72958e-05
0
LINE
8
BLACK
6
CONTINUOUS
10
-23.525
20
-22.579
11
-23.525
21
-37.6193
0
ARC
8
BLACK
10
-22.525
20
-22.579
40
1
50
-0.000343775
51
180
0
LINE
8
BLACK
6
CONTINUOUS
10
-21.525
20
-28.085
11
-21.525
21
-22.579
0
LINE
8
BLACK
6
CONTINUOUS
10
96.2774
20
-28.085
11
-21.525
21
-28.085
0
ARC
8
BLACK
10
96.2774
20
-29.085
40
1
50
-0
51
89.9988
0
LINE
8
BLACK
6
CONTINUOUS
10
97.2774
20
-31.1133
11
97.2774
21
-29.085
0
ARC
8
BLACK
10
101.865
20
-91.8853
40
1.00003
50
-179.998
51
-89.9988
0
LINE
8
BLACK
6
CONTINUOUS
10
184.291
20
-92.8853
11
101.865
21
-92.8853
0
ARC
8
BLACK
10
184.291
20
-87.8853
40
5.00002
50
-90
51
-39.0965
0
ARC
8
BLACK
10
190.5
20
-92.9303
40
3
50
39.0962
51
140.904
0
ARC
8
BLACK
10
196.709
20
-87.8853
40
5.00003
50
-140.903
51
-90
0
LINE
8
BLACK
6
CONTINUOUS
10
235.639
20
-92.8853
11
196.709
21
-92.8853
0
ARC
8
BLACK
10
238.093
20
-90.3903
40
3.5
50
-134.532
51
-45.4679
0
LINE
8
BLACK
6
CONTINUOUS
10
259.515
20
-92.8853
11
240.548
21
-92.8853
0
ARC
8
BLACK
10
261.969
20
-90.3903
40
3.5
50
-134.532
51
-45.4679
0
LINE
8
BLACK
6
CONTINUOUS
10
286.727
20
-92.8853
11
264.424
21
-92.8853
0
ARC
8
BLACK
10
286.727
20
-91.8853
40
1.00002
50
-89.9988
51
-0.00183343
0
LINE
8
BLACK
6
CONTINUOUS
10
287.727
20
-89.9353
11
287.727
21
-91.8853
0
ARC
8
BLACK
10
286.727
20
-89.9353
40
0.999968
50
-0.00183343
51
89.9988
0
LINE
8
BLACK
6
CONTINUOUS
10
268.178
20
-88.9353
11
286.727
21
-88.9353
0
ARC
8
BLACK
10
268.178
20
-93.9353
40
5.00002
50
90.0006
51
140.904
0
ARC
8
BLACK
10
261.969
20
-88.8903
40
3
50
-140.904
51
-39.0962
0
ARC
8
BLACK
10
255.76
20
-93.9353
40
4.99997
50
39.0956
51
89.9994
0
LINE
8
BLACK
6
CONTINUOUS
10
244.302
20
-88.9353
11
255.761
21
-88.9353
0
ARC
8
BLACK
10
244.302
20
-93.9353
40
5.00002
50
90.0006
51
140.904
0
ARC
8
BLACK
10
238.093
20
-88.8903
40
3
50
-140.904
51
-39.0962
0
ARC
8
BLACK
10
231.885
20
-93.9353
40
4.99997
50
39.0956
51
89.9994
0
LINE
8
BLACK
6
CONTINUOUS
10
192.955
20
-88.9353
11
231.885
21
-88.9353
0
ARC
8
BLACK
10
190.5
20
-91.4303
40
3.5
50
45.4679
51
134.532
0
LINE
8
BLACK
6
CONTINUOUS
10
101.865
20
-88.9353
11
188.045
21
-88.9353
0
ARC
8
BLACK
10
101.865
20
-89.9353
40
0.999979
50
-270.001
51
-179.998
0
LINE
8
BLACK
6
CONTINUOUS
10
100.865
20
-91.8853
11
100.865
21
-89.9353
0
LINE
8
BLACK
6
CONTINUOUS
10
97.2774
20
-71.3353
11
97.2774
21
-69.4983
0
ARC
8
BLACK
10
96.2774
20
-71.3353
40
1.00002
50
-89.9988
51
-0.00183343
0
LINE
8
BLACK
6
CONTINUOUS
10
27.9288
20
-72.3353
11
96.2774
21
-72.3353
0
ARC
8
BLACK
10
27.9288
20
-67.3353
40
5.00003
50
-122.435
51
-89.9997
0
ARC
8
BLACK
10
23.9062
20
-73.6653
40
2.5
50
57.565
51
122.435
0
ARC
8
BLACK
10
19.8837
20
-67.3353
40
5.00001
50
-90.0003
51
-57.5654
0
LINE
8
BLACK
6
CONTINUOUS
10
4.01433
20
-72.3353
11
19.8837
21
-72.3353
0
ARC
8
BLACK
10
4.01433
20
-67.3353
40
5.00001
50
-122.648
51
-90
0
ARC
8
BLACK
10
-0.03175
20
-73.6503
40
2.5
50
57.3519
51
122.648
0
ARC
8
BLACK
10
-4.07783
20
-67.3353
40
5.00001
50
-90
51
-57.3519
0
LINE
8
BLACK
6
CONTINUOUS
10
-21.525
20
-72.3353
11
-4.07783
21
-72.3353
0
LINE
8
BLACK
6
CONTINUOUS
10
-21.525
20
-77.8413
11
-21.525
21
-72.3353
0
ARC
8
BLACK
10
-22.525
20
-77.8413
40
1
50
-180
51
0.000458366
0
LINE
8
BLACK
6
CONTINUOUS
10
-23.525
20
-62.9923
11
-23.525
21
-77.8413
0
ARC
8
BLACK
10
-22.525
20
-62.9923
40
1
50
-360
51
-180
0
LINE
8
BLACK
6
CONTINUOUS
10
-21.525
20
-68.4983
11
-21.525
21
-62.9923
0
LINE
8
BLACK
6
CONTINUOUS
10
96.2774
20
-68.4983
11
-21.525
21
-68.4983
0
ARC
8
BLACK
10
96.2774
20
-69.4983
40
0.999955
50
-0.00257826
51
89.9988
0
ARC
8
BLACK
10
82.4087
20
-87.8853
40
5.00003
50
-140.903
51
-90
0
ARC
8
BLACK
10
76.2
20
-92.9303
40
3
50
39.0962
51
140.904
0
ARC
8
BLACK
10
69.9913
20
-87.8853
40
5.00002
50
-90
51
-39.0965
0
LINE
8
BLACK
6
CONTINUOUS
10
26.2988
20
-92.8853
11
69.9913
21
-92.8853
0
ARC
8
BLACK
10
23.8442
20
-90.3903
40
3.5
50
-134.532
51
-45.4679
0
LINE
8
BLACK
6
CONTINUOUS
10
2.42283
20
-92.8853
11
21.3897
21
-92.8853
0
ARC
8
BLACK
10
-0.03175
20
-90.3903
40
3.5
50
-134.532
51
-45.4679
0
LINE
8
BLACK
6
CONTINUOUS
10
-21.525
20
-92.8853
11
-2.48633
21
-92.8853
0
LINE
8
BLACK
6
CONTINUOUS
10
-21.525
20
-98.3913
11
-21.525
21
-92.8853
0
ARC
8
BLACK
10
-22.525
20
-98.3913
40
1
50
-180
51
0.000229183
0
LINE
8
BLACK
6
CONTINUOUS
10
-23.525
20
-83.4293
11
-23.525
21
-98.3913
0
ARC
8
BLACK
10
-22.525
20
-83.4293
40
1
50
-0
51
180
0
LINE
8
BLACK
6
CONTINUOUS
10
-21.525
20
-88.9353
11
-21.525
21
-83.4293
0
LINE
8
BLACK
6
CONTINUOUS
10
-6.24045
20
-88.9353
11
-21.525
21
-88.9353
0
ARC
8
BLACK
10
-6.24045
20
-93.9353
40
5
50
39.0962
51
90
0
ARC
8
BLACK
10
-0.03175
20
-88.8903
40
3
50
-140.904
51
-39.0962
0
ARC
8
BLACK
10
6.17695
20
-93.9353
40
5
50
90
51
140.904
0
LINE
8
BLACK
6
CONTINUOUS
10
17.6355
20
-88.9353
11
6.17695
21
-88.9353
0
ARC
8
BLACK
10
17.6355
20
-93.9353
40
5
50
39.0962
51
90
0
ARC
8
BLACK
10
23.8442
20
-88.8903
40
3
50
-140.904
51
-39.0962
0
ARC
8
BLACK
10
30.0529
20
-93.9353
40
5
50
90
51
140.904
0
LINE
8
BLACK
6
CONTINUOUS
10
73.7454
20
-88.9353
11
30.053
21
-88.9353
0
ARC
8
BLACK
10
76.2
20
-91.4303
40
3.5
50
45.4679
51
134.532
0
LINE
8
BLACK
6
CONTINUOUS
10
96.2774
20
-88.9353
11
78.6546
21
-88.9353
0
ARC
8
BLACK
10
96.2774
20
-89.9353
40
0.999968
50
-0.00183343
51
89.9988
0
LINE
8
BLACK
6
CONTINUOUS
10
97.2774
20
-91.8853
11
97.2774
21
-89.9353
0
ARC
8
BLACK
10
96.2774
20
-91.8853
40
1.00002
50
-89.9988
51
-0.00183343
0
LINE
8
BLACK
6
CONTINUOUS
10
82.4087
20
-92.8853
11
96.2774
21
-92.8853
0
LINE
8
BLACK
6
CONTINUOUS
10
286.727
20
-48.7133
11
101.865
21
-48.7133
0
ARC
8
BLACK
10
286.727
20
-49.7133
40
0.999955
50
-0.00257826
51
89.9988
0
LINE
8
BLACK
6
CONTINUOUS
10
287.727
20
-50.8983
11
287.727
21
-49.7133
0
ARC
8
BLACK
10
286.727
20
-50.8983
40
1.00002
50
-89.9988
51
-0.00257826
0
LINE
8
BLACK
6
CONTINUOUS
10
270.816
20
-51.8983
11
286.727
21
-51.8983
0
ARC
8
BLACK
10
270.816
20
-46.8983
40
5.00005
50
-122.435
51
-89.9997
0
ARC
8
BLACK
10
266.794
20
-53.2283
40
2.5
50
57.565
51
122.435
0
ARC
8
BLACK
10
262.771
20
-46.8983
40
5.00002
50
-90.0003
51
-57.5655
0
LINE
8
BLACK
6
CONTINUOUS
10
246.902
20
-51.8983
11
262.771
21
-51.8983
0
ARC
8
BLACK
10
246.902
20
-46.8983
40
5.00005
50
-122.647
51
-89.9996
0
ARC
8
BLACK
10
242.856
20
-53.2133
40
2.5
50
57.3519
51
122.648
0
ARC
8
BLACK
10
238.81
20
-46.8983
40
5.00002
50
-90.0004
51
-57.3525
0
LINE
8
BLACK
6
CONTINUOUS
10
101.865
20
-51.8983
11
238.81
21
-51.8983
0
ARC
8
BLACK
10
101.865
20
-50.8983
40
1.00004
50
-179.997
51
-89.9988
0
LINE
8
BLACK
6
CONTINUOUS
10
100.865
20
-49.7133
11
100.865
21
-50.8983
0
ARC
8
BLACK
10
101.865
20
-49.7133
40
0.999979
50
-270.001
51
-179.997
0
LINE
8
BLACK
6
CONTINUOUS
10
287.727
20
-71.3353
11
287.727
21
-69.4983
0
ARC
8
BLACK
10
286.727
20
-71.3353
40
1.00002
50
-89.9988
51
-0.00183343
0
LINE
8
BLACK
6
CONTINUOUS
10
269.272
20
-72.3353
11
286.727
21
-72.3353
0
ARC
8
BLACK
10
266.732
20
-69.8403
40
3.56043
50
-141.284
51
-44.4885
0
ARC
8
BLACK
10
262.031
20
-73.6653
40
2.5
50
39.7373
51
122.436
0
ARC
8
BLACK
10
258.009
20
-67.3353
40
5.00001
50
-90.0003
51
-57.5654
0
LINE
8
BLACK
6
CONTINUOUS
10
245.454
20
-72.3353
11
258.009
21
-72.3353
0
ARC
8
BLACK
10
242.856
20
-69.8853
40
3.57104
50
-141.411
51
-43.3209
0
ARC
8
BLACK
10
238.093
20
-73.6503
40
2.5
50
37.9559
51
122.649
0
ARC
8
BLACK
10
234.047
20
-67.3353
40
5.00001
50
-90.0004
51
-57.3524
0
LINE
8
BLACK
6
CONTINUOUS
10
101.865
20
-72.3353
11
234.047
21
-72.3353
0
ARC
8
BLACK
10
101.865
20
-71.3353
40
1.00003
50
-179.998
51
-89.9988
0
LINE
8
BLACK
6
CONTINUOUS
10
100.865
20
-69.4983
11
100.865
21
-71.3353
0
ARC
8
BLACK
10
101.865
20
-69.4983
40
0.999979
50
-270.001
51
-179.997
0
LINE
8
BLACK
6
CONTINUOUS
10
236.647
20
-68.4983
11
101.865
21
-68.4983
0
ARC
8
BLACK
10
236.647
20
-73.4983
40
4.99995
50
39.0955
51
89.9994
0
ARC
8
BLACK
10
242.856
20
-68.4533
40
3
50
-140.904
51
-39.0962
0
ARC
8
BLACK
10
249.064
20
-73.4983
40
5.00001
50
90.0006
51
140.905
0
LINE
8
BLACK
6
CONTINUOUS
10
260.523
20
-68.4983
11
249.064
21
-68.4983
0
ARC
8
BLACK
10
260.523
20
-73.4983
40
4.99995
50
39.0955
51
89.9994
0
ARC
8
BLACK
10
266.732
20
-68.4533
40
3
50
-140.904
51
-39.0962
0
ARC
8
BLACK
10
272.94
20
-73.4983
40
5.00001
50
90.0006
51
140.905
0
LINE
8
BLACK
6
CONTINUOUS
10
286.727
20
-68.4983
11
272.94
21
-68.4983
0
ARC
8
BLACK
10
286.727
20
-69.4983
40
0.999955
50
-0.00257826
51
89.9988
0
ARC
8
BLACK
10
245.237
20
-29.6183
40
3.42166
50
-133.182
51
-46.8176
0
LINE
8
BLACK
6
CONTINUOUS
10
266.771
20
-32.1133
11
247.579
21
-32.1133
0
ARC
8
BLACK
10
269.113
20
-29.6183
40
3.42166
50
-133.182
51
-46.8176
0
LINE
8
BLACK
6
CONTINUOUS
10
286.727
20
-32.1131
11
271.455
21
-32.1133
0
ARC
8
BLACK
10
286.727
20
-31.1131
40
1.00002
50
-89.9978
51
0.000171884
0
LINE
8
BLACK
6
CONTINUOUS
10
287.727
20
-29.085
11
287.727
21
-31.1131
0
ARC
8
BLACK
10
286.727
20
-29.085
40
1
50
-0
51
89.9988
0
LINE
8
BLACK
6
CONTINUOUS
10
275.322
20
-28.085
11
286.727
21
-28.085
0
ARC
8
BLACK
10
275.322
20
-33.085
40
5
50
90
51
140.904
0
ARC
8
BLACK
10
269.113
20
-28.04
40
3
50
-140.904
51
-39.0962
0
ARC
8
BLACK
10
262.904
20
-33.085
40
5
50
39.0963
51
90
0
LINE
8
BLACK
6
CONTINUOUS
10
251.446
20
-28.085
11
262.904
21
-28.085
0
ARC
8
BLACK
10
251.446
20
-33.085
40
5
50
90
51
140.904
0
ARC
8
BLACK
10
245.237
20
-28.04
40
3
50
-140.904
51
-39.0962
0
ARC
8
BLACK
10
239.028
20
-33.085
40
5
50
39.0963
51
90
0
LINE
8
BLACK
6
CONTINUOUS
10
101.865
20
-28.085
11
239.028
21
-28.085
0
ARC
8
BLACK
10
101.865
20
-29.085
40
0.999979
50
89.9988
51
180
0
LINE
8
BLACK
6
CONTINUOUS
10
100.865
20
-31.1133
11
100.865
21
-29.085
0
ARC
8
BLACK
10
101.865
20
-31.1133
40
1.00004
50
-179.997
51
-89.9988
0
LINE
8
BLACK
6
CONTINUOUS
10
242.895
20
-32.1133
11
101.865
21
-32.1133
0
ARC
8
BLACK
10
286.727
20
-9.3
40
1
50
-1.13687e-14
51
89.9989
0
LINE
8
BLACK
6
CONTINUOUS
10
287.727
20
-10.485
11
287.727
21
-9.3
0
ARC
8
BLACK
10
286.727
20
-10.485
40
1.00002
50
-89.9988
51
-0
0
LINE
8
BLACK
6
CONTINUOUS
10
273.198
20
-11.485
11
286.727
21
-11.485
0
ARC
8
BLACK
10
273.198
20
-6.485
40
5
50
-122.435
51
-90.0003
0
ARC
8
BLACK
10
269.175
20
-12.815
40
2.5
50
57.565
51
122.435
0
ARC
8
BLACK
10
265.152
20
-6.485
40
5.00001
50
-89.9997
51
-57.5647
0
LINE
8
BLACK
6
CONTINUOUS
10
249.283
20
-11.485
11
265.152
21
-11.485
0
ARC
8
BLACK
10
249.283
20
-6.485
40
5
50
-122.648
51
-90.0002
0
ARC
8
BLACK
10
245.237
20
-12.8
40
2.5
50
57.3519
51
122.648
0
ARC
8
BLACK
10
241.191
20
-6.485
40
5.00001
50
-89.9998
51
-57.3517
0
LINE
8
BLACK
6
CONTINUOUS
10
101.865
20
-11.485
11
241.191
21
-11.485
0
ARC
8
BLACK
10
101.865
20
-10.485
40
1
50
-180
51
-89.9988
0
LINE
8
BLACK
6
CONTINUOUS
10
100.865
20
-9.3
11
100.865
21
-10.485
0
ARC
8
BLACK
10
101.865
20
-9.3
40
0.999979
50
89.9988
51
180
0
LINE
8
BLACK
6
CONTINUOUS
10
286.727
20
-8.3
11
101.865
21
-8.3
0
LINE
8
BLACK
6
CONTINUOUS
10
350.375
20
-2.794
11
350.375
21
-8.3
0
ARC
8
BLACK
10
351.375
20
-2.794
40
1
50
-0
51
180
0
LINE
8
BLACK
6
CONTINUOUS
10
352.375
20
-16.991
11
352.375
21
-2.794
0
ARC
8
BLACK
10
351.375
20
-16.991
40
1
50
-180
51
5.72958e-05
0
LINE
8
BLACK
6
CONTINUOUS
10
350.375
20
-11.485
11
350.375
21
-16.991
0
LINE
8
BLACK
6
CONTINUOUS
10
292.315
20
-11.485
11
350.375
21
-11.485
0
ARC
8
BLACK
10
292.315
20
-10.485
40
1
50
-180
51
-89.9988
0
LINE
8
BLACK
6
CONTINUOUS
10
291.315
20
-9.3
11
291.315
21
-10.485
0
ARC
8
BLACK
10
292.315
20
-9.3
40
0.999979
50
89.9988
51
180
0
LINE
8
BLACK
6
CONTINUOUS
10
350.375
20
-8.3
11
292.315
21
-8.3
0
LINE
8
BLACK
6
CONTINUOUS
10
-21.525
20
-11.485
11
96.2774
21
-11.485
0
LINE
8
BLACK
6
CONTINUOUS
10
-21.525
20
-16.991
11
-21.525
21
-11.485
0
ARC
8
BLACK
10
-22.525
20
-16.991
40
1
50
-180
51
-0.000114592
0
LINE
8
BLACK
6
CONTINUOUS
10
-23.525
20
-2.794
11
-23.525
21
-16.991
0
ARC
8
BLACK
10
-22.525
20
-2.794
40
1
50
-0
51
180
0
LINE
8
BLACK
6
CONTINUOUS
10
-21.525
20
-8.3
11
-21.525
21
-2.794
0
LINE
8
BLACK
6
CONTINUOUS
10
96.2774
20
-8.3
11
-21.525
21
-8.3
0
ARC
8
BLACK
10
96.2774
20
-9.3
40
1
50
-0
51
89.9988
0
LINE
8
BLACK
6
CONTINUOUS
10
97.2774
20
-10.485
11
97.2774
21
-9.3
0
ARC
8
BLACK
10
96.2774
20
-10.485
40
1.00002
50
-89.9988
51
-0
0
ARC
8
BLACK
10
-4.025
20
27.625
40
2.5
50
-0
51
90
0
LINE
8
BLACK
6
CONTINUOUS
10
-1.525
20
22.669
11
-1.525
21
27.625
0
ARC
8
BLACK
10
-2.525
20
22.669
40
1
50
-180
51
-0
0
LINE
8
BLACK
6
CONTINUOUS
10
-3.525
20
26.125
11
-3.525
21
22.669
0
ARC
8
BLACK
10
-5.525
20
26.125
40
2
50
-2.86479e-05
51
90
0
LINE
8
BLACK
6
CONTINUOUS
10
-19.525
20
28.125
11
-5.525
21
28.125
0
ARC
8
BLACK
10
-19.525
20
26.125
40
2
50
-270
51
-180
0
LINE
8
BLACK
6
CONTINUOUS
10
-21.525
20
22.669
11
-21.525
21
26.125
0
ARC
8
BLACK
10
-22.525
20
22.669
40
1
50
-180
51
-0
0
LINE
8
BLACK
6
CONTINUOUS
10
-23.525
20
27.625
11
-23.525
21
22.669
0
ARC
8
BLACK
10
-21.025
20
27.625
40
2.5
50
90
51
180
0
LINE
8
BLACK
6
CONTINUOUS
10
-4.025
20
30.125
11
-21.025
21
30.125
  0
ENDSEC
  0
EOF
