M48
; DRILL file {KiCad (6.0.5-0)} date Sunday, 19 March 2023 at 13:18:28
; FORMAT={-:-/ absolute / metric / decimal}
; #@! TF.CreationDate,2023-03-19T13:18:28+08:00
; #@! TF.GenerationSoftware,Kicad,Pcbnew,(6.0.5-0)
; #@! TF.FileFunction,NonPlated,1,2,NPTH
FMAT,2
METRIC
; #@! TA.AperFunction,NonPlated,NPTH,ComponentDrill
T1C0.450
; #@! TA.AperFunction,NonPlated,NPTH,ComponentDrill
T2C0.650
; #@! TA.AperFunction,NonPlated,NPTH,ComponentDrill
T3C0.991
; #@! TA.AperFunction,NonPlated,NPTH,ComponentDrill
T4C1.750
; #@! TA.AperFunction,NonPlated,NPTH,ComponentDrill
T5C3.000
; #@! TA.AperFunction,NonPlated,NPTH,ComponentDrill
T6C3.048
; #@! TA.AperFunction,NonPlated,NPTH,ComponentDrill
T7C3.988
%
G90
G05
T1
X-21.725Y22.575
X-21.725Y21.975
X-21.725Y21.375
X-21.725Y20.775
X-21.725Y20.175
X-21.725Y19.575
X-21.725Y18.975
X-21.725Y18.375
X-21.725Y17.775
X-21.725Y17.175
X-21.725Y2.7
X-21.725Y2.1
X-21.725Y1.5
X-21.725Y0.9
X-21.725Y0.3
X-21.725Y-0.3
X-21.725Y-0.9
X-21.725Y-1.5
X-21.725Y-2.1
X-21.725Y-2.7
X-21.725Y-17.085
X-21.725Y-17.685
X-21.725Y-18.285
X-21.725Y-18.885
X-21.725Y-19.485
X-21.725Y-20.085
X-21.725Y-20.685
X-21.725Y-21.285
X-21.725Y-21.885
X-21.725Y-22.485
X-21.725Y-37.713
X-21.725Y-38.313
X-21.725Y-38.913
X-21.725Y-39.513
X-21.725Y-40.113
X-21.725Y-40.713
X-21.725Y-41.313
X-21.725Y-41.913
X-21.725Y-42.513
X-21.725Y-43.113
X-21.725Y-57.498
X-21.725Y-58.098
X-21.725Y-58.698
X-21.725Y-59.298
X-21.725Y-59.898
X-21.725Y-60.498
X-21.725Y-61.098
X-21.725Y-61.698
X-21.725Y-62.298
X-21.725Y-62.898
X-21.725Y-77.835
X-21.725Y-78.435
X-21.725Y-79.035
X-21.725Y-79.635
X-21.725Y-80.235
X-21.725Y-80.835
X-21.725Y-81.435
X-21.725Y-82.035
X-21.725Y-82.635
X-21.725Y-83.235
X-21.725Y-98.485
X-21.725Y-99.085
X-21.725Y-99.685
X-21.725Y-100.285
X-21.725Y-100.885
X-21.725Y-101.485
X-21.725Y-102.085
X-21.725Y-102.685
X-21.725Y-103.285
X-21.725Y-103.885
X-3.325Y22.575
X-3.325Y21.975
X-3.325Y21.375
X-3.325Y20.775
X-3.325Y20.175
X-3.325Y19.575
X-3.325Y18.975
X-3.325Y18.375
X-3.325Y17.775
X-3.325Y17.175
X96.356Y-11.285
X96.371Y10.1
X96.371Y8.5
X96.371Y-28.285
X96.371Y-31.913
X96.371Y-48.913
X96.371Y-51.698
X96.371Y-68.698
X96.371Y-89.135
X96.371Y-92.685
X96.421Y-72.135
X96.459Y-8.5
X96.956Y-11.285
X96.971Y10.1
X96.971Y8.5
X96.971Y-28.285
X96.971Y-31.913
X96.971Y-48.913
X96.971Y-51.698
X96.971Y-68.698
X96.971Y-89.135
X96.971Y-92.685
X97.021Y-72.135
X97.059Y-8.5
X97.556Y-11.285
X97.571Y10.1
X97.571Y8.5
X97.571Y-28.285
X97.571Y-31.913
X97.571Y-48.913
X97.571Y-51.698
X97.571Y-68.698
X97.571Y-89.135
X97.571Y-92.685
X97.621Y-72.135
X97.659Y-8.5
X98.156Y-11.285
X98.171Y10.1
X98.171Y8.5
X98.171Y-28.285
X98.171Y-31.913
X98.171Y-48.913
X98.171Y-51.698
X98.171Y-68.698
X98.171Y-89.135
X98.171Y-92.685
X98.221Y-72.135
X98.259Y-8.5
X98.756Y-11.285
X98.771Y10.1
X98.771Y8.5
X98.771Y-28.285
X98.771Y-31.913
X98.771Y-48.913
X98.771Y-51.698
X98.771Y-68.698
X98.771Y-89.135
X98.771Y-92.685
X98.821Y-72.135
X98.859Y-8.5
X99.356Y-11.285
X99.371Y10.1
X99.371Y8.5
X99.371Y-28.285
X99.371Y-31.913
X99.371Y-48.913
X99.371Y-51.698
X99.371Y-68.698
X99.371Y-89.135
X99.371Y-92.685
X99.421Y-72.135
X99.459Y-8.5
X99.956Y-11.285
X99.971Y10.1
X99.971Y8.5
X99.971Y-28.285
X99.971Y-31.913
X99.971Y-48.913
X99.971Y-51.698
X99.971Y-68.698
X99.971Y-89.135
X99.971Y-92.685
X100.021Y-72.135
X100.059Y-8.5
X100.556Y-11.285
X100.571Y10.1
X100.571Y8.5
X100.571Y-28.285
X100.571Y-31.913
X100.571Y-48.913
X100.571Y-51.698
X100.571Y-68.698
X100.571Y-89.135
X100.571Y-92.685
X100.621Y-72.135
X100.659Y-8.5
X101.156Y-11.285
X101.171Y10.1
X101.171Y8.5
X101.171Y-28.285
X101.171Y-31.913
X101.171Y-48.913
X101.171Y-51.698
X101.171Y-68.698
X101.171Y-89.135
X101.171Y-92.685
X101.221Y-72.135
X101.259Y-8.5
X101.756Y-11.285
X101.771Y10.1
X101.771Y8.5
X101.771Y-28.285
X101.771Y-31.913
X101.771Y-48.913
X101.771Y-51.698
X101.771Y-68.698
X101.771Y-89.135
X101.771Y-92.685
X101.821Y-72.135
X101.859Y-8.5
X228.468Y26.225
X228.468Y25.625
X228.468Y25.025
X228.468Y24.425
X228.468Y23.825
X228.468Y23.225
X228.468Y22.625
X228.468Y22.025
X228.468Y21.425
X228.468Y20.825
X286.714Y-11.285
X286.813Y-8.5
X286.821Y11.425
X286.821Y8.5
X286.821Y-28.235
X286.821Y-31.913
X286.821Y-48.913
X286.821Y-51.698
X286.821Y-68.698
X286.821Y-72.135
X286.821Y-89.135
X286.821Y-92.685
X287.314Y-11.285
X287.413Y-8.5
X287.421Y11.425
X287.421Y8.5
X287.421Y-28.235
X287.421Y-31.913
X287.421Y-48.913
X287.421Y-51.698
X287.421Y-68.698
X287.421Y-72.135
X287.421Y-89.135
X287.421Y-92.685
X287.914Y-11.285
X288.013Y-8.5
X288.021Y11.425
X288.021Y8.5
X288.021Y-28.235
X288.021Y-31.913
X288.021Y-48.913
X288.021Y-51.698
X288.021Y-68.698
X288.021Y-72.135
X288.021Y-89.135
X288.021Y-92.685
X288.514Y-11.285
X288.613Y-8.5
X288.621Y11.425
X288.621Y8.5
X288.621Y-28.235
X288.621Y-31.913
X288.621Y-48.913
X288.621Y-51.698
X288.621Y-68.698
X288.621Y-72.135
X288.621Y-89.135
X288.621Y-92.685
X289.114Y-11.285
X289.213Y-8.5
X289.221Y11.425
X289.221Y8.5
X289.221Y-28.235
X289.221Y-31.913
X289.221Y-48.913
X289.221Y-51.698
X289.221Y-68.698
X289.221Y-72.135
X289.221Y-89.135
X289.221Y-92.685
X289.714Y-11.285
X289.813Y-8.5
X289.821Y11.425
X289.821Y8.5
X289.821Y-28.235
X289.821Y-31.913
X289.821Y-48.913
X289.821Y-51.698
X289.821Y-68.698
X289.821Y-72.135
X289.821Y-89.135
X289.821Y-92.685
X290.314Y-11.285
X290.413Y-8.5
X290.421Y11.425
X290.421Y8.5
X290.421Y-28.235
X290.421Y-31.913
X290.421Y-48.913
X290.421Y-51.698
X290.421Y-68.698
X290.421Y-72.135
X290.421Y-89.135
X290.421Y-92.685
X290.914Y-11.285
X291.013Y-8.5
X291.021Y11.425
X291.021Y8.5
X291.021Y-28.235
X291.021Y-31.913
X291.021Y-48.913
X291.021Y-51.698
X291.021Y-68.698
X291.021Y-72.135
X291.021Y-89.135
X291.021Y-92.685
X291.514Y-11.285
X291.613Y-8.5
X291.621Y11.425
X291.621Y8.5
X291.621Y-28.235
X291.621Y-31.913
X291.621Y-48.913
X291.621Y-51.698
X291.621Y-68.698
X291.621Y-72.135
X291.621Y-89.135
X291.621Y-92.685
X292.114Y-11.285
X292.213Y-8.5
X292.221Y11.425
X292.221Y8.5
X292.221Y-28.235
X292.221Y-31.913
X292.221Y-48.913
X292.221Y-51.698
X292.221Y-68.698
X292.221Y-72.135
X292.221Y-89.135
X292.221Y-92.685
X350.575Y2.7
X350.575Y2.1
X350.575Y1.5
X350.575Y0.9
X350.575Y0.3
X350.575Y-0.3
X350.575Y-0.9
X350.575Y-1.5
X350.575Y-2.1
X350.575Y-2.7
X350.575Y-17.085
X350.575Y-17.685
X350.575Y-18.285
X350.575Y-18.885
X350.575Y-19.485
X350.575Y-20.085
X350.575Y-20.685
X350.575Y-21.285
X350.575Y-21.885
X350.575Y-22.485
X350.575Y-37.713
X350.575Y-38.313
X350.575Y-38.913
X350.575Y-39.513
X350.575Y-40.113
X350.575Y-40.713
X350.575Y-41.313
X350.575Y-41.913
X350.575Y-42.513
X350.575Y-43.113
X350.575Y-57.498
X350.575Y-58.098
X350.575Y-58.698
X350.575Y-59.298
X350.575Y-59.898
X350.575Y-60.498
X350.575Y-61.098
X350.575Y-61.698
X350.575Y-62.298
X350.575Y-62.898
X350.575Y-77.835
X350.575Y-78.435
X350.575Y-79.035
X350.575Y-79.635
X350.575Y-80.235
X350.575Y-80.835
X350.575Y-81.435
X350.575Y-82.035
X350.575Y-82.635
X350.575Y-83.235
X350.575Y-98.485
X350.575Y-99.085
X350.575Y-99.685
X350.575Y-100.285
X350.575Y-100.885
X350.575Y-101.485
X350.575Y-102.085
X350.575Y-102.685
X350.575Y-103.285
X350.575Y-103.885
X350.6Y26.3
X350.6Y25.7
X350.6Y25.1
X350.6Y24.5
X350.6Y23.9
X350.6Y23.3
X350.6Y22.7
X350.6Y22.1
X350.6Y21.5
X350.6Y20.9
T2
X-15.413Y21.876
X-9.633Y21.876
T3
X305.79Y16.336
X305.79Y14.304
X310.87Y15.32
T4
X-5.08Y0.0
X-5.08Y-19.785
X-2.68Y-60.186
X-0.318Y-40.413
X-0.318Y-101.185
X2.064Y-60.198
X5.08Y0.0
X5.08Y-19.785
X6.826Y-80.635
X7.48Y-60.186
X9.842Y-40.413
X9.842Y-101.185
X12.224Y-60.198
X13.97Y-19.785
X16.986Y-80.635
X23.495Y-40.413
X24.13Y-19.785
X28.258Y-60.198
X33.02Y0.0
X33.02Y-19.785
X33.655Y-40.413
X37.782Y-80.635
X38.417Y-60.198
X42.545Y-40.413
X43.18Y0.0
X43.18Y-19.785
X47.307Y-60.198
X47.307Y-101.185
X47.942Y-80.635
X52.07Y0.0
X52.07Y-19.785
X52.705Y-40.413
X56.832Y-80.635
X57.467Y-60.198
X57.467Y-101.185
X61.595Y-40.413
X62.23Y0.0
X62.23Y-19.785
X66.358Y-60.198
X66.992Y-80.635
X71.12Y0.0
X71.12Y-19.785
X71.755Y-40.413
X75.882Y-80.635
X76.517Y-60.198
X80.645Y-40.413
X81.28Y0.0
X81.28Y-19.785
X85.407Y-60.198
X86.042Y-80.635
X90.17Y0.0
X90.17Y-19.785
X90.805Y-40.413
X94.995Y-80.635
X95.567Y-60.198
X99.695Y-40.413
X100.33Y0.0
X100.33Y-19.785
X104.457Y-60.198
X105.155Y-80.635
X109.22Y-19.785
X109.855Y-40.413
X113.983Y-80.635
X114.617Y-60.198
X118.745Y0.0
X118.745Y-40.413
X119.38Y-19.785
X123.507Y-60.198
X124.142Y-80.635
X128.27Y-19.785
X128.27Y-101.185
X128.905Y0.0
X128.905Y-40.413
X133.032Y-80.635
X133.667Y-60.198
X137.795Y0.0
X137.795Y-40.413
X138.43Y-19.785
X138.43Y-101.185
X142.558Y-60.198
X143.192Y-80.635
X147.32Y-19.785
X147.955Y0.0
X147.955Y-40.413
X152.082Y-80.635
X152.718Y-60.198
X156.845Y0.0
X156.845Y-40.413
X157.48Y-19.785
X161.607Y-60.198
X162.243Y-80.635
X166.37Y-19.785
X167.005Y0.0
X167.005Y-40.413
X171.132Y-80.635
X171.767Y-60.198
X175.895Y0.0
X175.895Y-40.413
X176.53Y-19.785
X180.657Y-60.198
X181.292Y-80.635
X185.42Y-19.785
X186.055Y0.0
X186.055Y-40.413
X190.183Y-80.635
X190.817Y-60.198
X194.945Y-40.413
X195.58Y-19.785
X199.707Y-60.198
X200.343Y-80.635
X204.47Y0.0
X204.47Y-19.785
X205.105Y-40.413
X209.232Y-80.635
X209.232Y-101.185
X209.867Y-60.198
X213.995Y-40.413
X214.63Y0.0
X214.63Y-19.785
X218.757Y-60.198
X219.392Y-80.635
X219.392Y-101.185
X223.52Y0.0
X223.52Y-19.785
X224.155Y-40.413
X228.917Y-60.198
X233.045Y-40.413
X233.68Y0.0
X233.68Y-19.785
X242.57Y0.0
X243.205Y-40.413
X244.951Y-80.635
X249.714Y-60.198
X252.095Y-19.785
X252.73Y0.0
X255.111Y-80.635
X256.858Y-40.413
X256.858Y-101.185
X259.874Y-60.198
X261.62Y0.0
X262.255Y-19.785
X267.017Y-40.413
X267.017Y-101.185
X271.78Y0.0
X285.67Y0.0
X285.67Y-19.785
X285.67Y-40.413
X285.67Y-101.185
X295.83Y0.0
X295.83Y-19.785
X295.83Y-40.413
X295.83Y-101.185
X304.72Y0.0
X304.72Y-19.785
X304.72Y-40.413
X304.72Y-80.635
X304.72Y-101.185
X314.88Y0.0
X314.88Y-19.785
X314.88Y-40.413
X314.88Y-80.635
X314.88Y-101.185
X323.77Y0.0
X323.77Y-19.785
X323.77Y-40.413
X323.77Y-101.185
X333.93Y0.0
X333.93Y-19.785
X333.93Y-40.413
X333.93Y-101.185
T5
X-3.81Y2.54
X-3.81Y-17.245
X-1.41Y-57.646
X0.952Y-37.873
X0.952Y-98.645
X2.54Y5.08
X2.54Y-14.705
X4.604Y-65.278
X4.94Y-55.106
X7.302Y-35.333
X7.302Y-96.105
X8.096Y-78.095
X10.954Y-62.738
X14.446Y-75.555
X15.24Y-17.245
X21.59Y-14.705
X24.765Y-37.873
X29.527Y-57.658
X31.115Y-35.333
X34.29Y2.54
X34.29Y-17.245
X35.877Y-55.118
X39.052Y-78.095
X40.64Y5.08
X40.64Y-14.705
X43.815Y-37.873
X45.402Y-75.555
X48.578Y-57.658
X48.578Y-98.645
X50.165Y-35.333
X53.34Y2.54
X53.34Y-17.245
X54.927Y-55.118
X54.927Y-96.105
X58.102Y-78.095
X59.69Y5.08
X59.69Y-14.705
X62.865Y-37.873
X64.453Y-75.555
X67.627Y-57.658
X69.215Y-35.333
X72.39Y2.54
X72.39Y-17.245
X73.977Y-55.118
X77.153Y-78.095
X78.74Y5.08
X78.74Y-14.705
X81.915Y-37.873
X83.502Y-75.555
X86.677Y-57.658
X88.265Y-35.333
X91.44Y2.54
X91.44Y-17.245
X93.027Y-55.118
X96.265Y-78.095
X97.79Y5.08
X97.79Y-14.705
X100.965Y-37.873
X102.615Y-75.555
X105.727Y-57.658
X107.315Y-35.333
X110.49Y-17.245
X112.078Y-55.118
X115.252Y-78.095
X116.84Y-14.705
X120.015Y2.54
X120.015Y-37.873
X121.602Y-75.555
X124.777Y-57.658
X126.365Y5.08
X126.365Y-35.333
X129.54Y-17.245
X129.54Y-98.645
X131.127Y-55.118
X134.302Y-78.095
X135.89Y-14.705
X135.89Y-96.105
X139.065Y2.54
X139.065Y-37.873
X140.653Y-75.555
X143.827Y-57.658
X145.415Y5.08
X145.415Y-35.333
X148.59Y-17.245
X150.177Y-55.118
X153.352Y-78.095
X154.94Y-14.705
X158.115Y2.54
X158.115Y-37.873
X159.702Y-75.555
X162.877Y-57.658
X164.465Y5.08
X164.465Y-35.333
X167.64Y-17.245
X169.227Y-55.118
X172.403Y-78.095
X173.99Y-14.705
X177.165Y2.54
X177.165Y-37.873
X178.752Y-75.555
X181.927Y-57.658
X183.515Y5.08
X183.515Y-35.333
X186.69Y-17.245
X188.278Y-55.118
X191.452Y-78.095
X193.04Y-14.705
X196.215Y-37.873
X197.802Y-75.555
X200.977Y-57.658
X202.565Y-35.333
X205.74Y2.54
X205.74Y-17.245
X207.327Y-55.118
X210.502Y-78.095
X210.502Y-98.645
X212.09Y5.08
X212.09Y-14.705
X215.265Y-37.873
X216.852Y-75.555
X216.852Y-96.105
X220.028Y-57.658
X221.615Y-35.333
X224.79Y2.54
X224.79Y-17.245
X226.377Y-55.118
X231.14Y5.08
X231.14Y-14.705
X234.315Y-37.873
X240.665Y-35.333
X243.84Y2.54
X246.221Y-78.095
X250.19Y5.08
X250.984Y-57.658
X252.571Y-75.555
X253.365Y-17.245
X257.334Y-55.118
X258.127Y-37.873
X258.127Y-98.645
X259.715Y-14.705
X262.89Y2.54
X264.477Y-35.333
X264.477Y-96.105
X269.24Y5.08
X286.94Y2.54
X286.94Y-17.245
X286.94Y-37.873
X286.94Y-98.645
X293.29Y5.08
X293.29Y-14.705
X293.29Y-35.333
X293.29Y-96.105
X305.99Y2.54
X305.99Y-17.245
X305.99Y-37.873
X305.99Y-78.095
X305.99Y-98.645
X312.34Y5.08
X312.34Y-14.705
X312.34Y-35.333
X312.34Y-75.555
X312.34Y-96.105
X325.04Y2.54
X325.04Y-17.245
X325.04Y-37.873
X325.04Y-98.645
X331.39Y5.08
X331.39Y-14.705
X331.39Y-35.333
X331.39Y-96.105
T6
X-0.032Y-73.65
X23.844Y-73.65
X76.2Y-108.17
X190.5Y-108.17
X238.093Y-73.65
X242.856Y-53.213
X245.237Y-12.8
X261.969Y-73.65
X266.732Y-53.213
X269.113Y-12.8
T7
X-0.032Y-88.89
X0.0Y0.0
X0.0Y-19.785
X2.4Y-60.186
X4.763Y-40.413
X4.763Y-101.185
X7.144Y-60.198
X11.906Y-80.635
X19.05Y-19.785
X23.844Y-88.89
X28.575Y-40.413
X33.337Y-60.198
X38.1Y0.0
X38.1Y-19.785
X42.862Y-80.635
X47.625Y-40.413
X52.387Y-60.198
X52.387Y-101.185
X57.15Y0.0
X57.15Y-19.785
X61.912Y-80.635
X66.675Y-40.413
X71.438Y-60.198
X76.2Y0.0
X76.2Y-19.785
X76.2Y-92.93
X80.962Y-80.635
X85.725Y-40.413
X90.487Y-60.198
X95.25Y0.0
X95.25Y-19.785
X100.075Y-80.635
X104.775Y-40.413
X109.537Y-60.198
X114.3Y-19.785
X119.062Y-80.635
X123.825Y0.0
X123.825Y-40.413
X128.588Y-60.198
X133.35Y-19.785
X133.35Y-101.185
X138.112Y-80.635
X142.875Y0.0
X142.875Y-40.413
X147.637Y-60.198
X152.4Y-19.785
X157.162Y-80.635
X161.925Y0.0
X161.925Y-40.413
X166.688Y-60.198
X171.45Y-19.785
X176.213Y-80.635
X180.975Y0.0
X180.975Y-40.413
X185.737Y-60.198
X190.5Y-19.785
X190.5Y-92.93
X195.262Y-80.635
X200.025Y-40.413
X204.787Y-60.198
X209.55Y0.0
X209.55Y-19.785
X214.312Y-80.635
X214.312Y-101.185
X219.075Y-40.413
X223.837Y-60.198
X228.6Y0.0
X228.6Y-19.785
X238.093Y-88.89
X238.125Y-40.413
X242.856Y-68.453
X245.237Y-28.04
X247.65Y0.0
X250.031Y-80.635
X254.794Y-60.198
X257.175Y-19.785
X261.938Y-40.413
X261.938Y-101.185
X261.969Y-88.89
X266.7Y0.0
X266.732Y-68.453
X269.113Y-28.04
X290.75Y0.0
X290.75Y-19.785
X290.75Y-40.413
X290.75Y-101.185
X309.8Y0.0
X309.8Y-19.785
X309.8Y-40.413
X309.8Y-80.635
X309.8Y-101.185
X328.85Y0.0
X328.85Y-19.785
X328.85Y-40.413
X328.85Y-101.185
T0
M30
