  0
SECTION
  2
HEADER
  9
$ANGBASE
  50
0.0
  9
$ANGDIR
  70
1
  9
$MEASUREMENT
  70
1
  0
ENDSEC
  0
SECTION
  2
TABLES
  0
TABLE
  2
LTYPE
  70
4
  0
LTYPE
  5
40F
  2
CONTINUOUS
  70
0
  3
Solid line
  72
65
  73
0
  40
0.0
  0
LTYPE
  5
410
  2
DASHDOT
 70
0
  3
Dash Dot ____ _ ____ _
 72
65
 73
4
 40
2.0
 49
1.25
 49
-0.25
 49
0.25
 49
-0.25
  0
LTYPE
  5
411
  2
DASHED
 70
0
  3
Dashed __ __ __ __ __
 72
65
 73
2
 40
0.75
 49
0.5
 49
-0.25
  0
LTYPE
  5
43B
  2
DOTTED
 70
0
  3
Dotted .  .  .  .
 72
65
 73
2
 40
0.2
 49
0.0
 49
-0.2
  0
ENDTAB
  0
TABLE
  2
STYLE
  70
4
  0
STYLE
  2
KICAD
  70
0
  40
0
  41
1
  42
1
  50
0
  71
0
  3
isocp.shx
  0
STYLE
  2
KICADB
  70
0
  40
0
  41
1
  42
1
  50
0
  71
0
  3
isocp.shx
  0
STYLE
  2
KICADI
  70
0
  40
0
  41
1
  42
1
  50
15
  71
0
  3
isocp.shx
  0
STYLE
  2
KICADBI
  70
0
  40
0
  41
1
  42
1
  50
15
  71
0
  3
isocp.shx
  0
ENDTAB
  0
TABLE
  2
LAYER
  70
1
  0
LAYER
  2
BLACK
  70
0
  62
7
  6
CONTINUOUS
  0
ENDTAB
  0
ENDSEC
  0
SECTION
  2
ENTITIES
0
LINE
8
BLACK
6
CONTINUOUS
10
229.644
20
9.97262
11
229.644
21
10.9726
0
LINE
8
BLACK
6
CONTINUOUS
10
229.644
20
10.9726
11
229.977
21
10.2583
0
LINE
8
BLACK
6
CONTINUOUS
10
229.977
20
10.2583
11
230.311
21
10.9726
0
LINE
8
BLACK
6
CONTINUOUS
10
230.311
20
10.9726
11
230.311
21
9.97262
0
LINE
8
BLACK
6
CONTINUOUS
10
230.739
20
10.8774
11
230.787
21
10.925
0
LINE
8
BLACK
6
CONTINUOUS
10
230.787
20
10.925
11
230.882
21
10.9726
0
LINE
8
BLACK
6
CONTINUOUS
10
230.882
20
10.9726
11
231.12
21
10.9726
0
LINE
8
BLACK
6
CONTINUOUS
10
231.12
20
10.9726
11
231.215
21
10.925
0
LINE
8
BLACK
6
CONTINUOUS
10
231.215
20
10.925
11
231.263
21
10.8774
0
LINE
8
BLACK
6
CONTINUOUS
10
231.263
20
10.8774
11
231.311
21
10.7821
0
LINE
8
BLACK
6
CONTINUOUS
10
231.311
20
10.7821
11
231.311
21
10.6869
0
LINE
8
BLACK
6
CONTINUOUS
10
231.311
20
10.6869
11
231.263
21
10.544
0
LINE
8
BLACK
6
CONTINUOUS
10
231.263
20
10.544
11
230.692
21
9.97262
0
LINE
8
BLACK
6
CONTINUOUS
10
230.692
20
9.97262
11
231.311
21
9.97262
0
LINE
8
BLACK
6
CONTINUOUS
10
231.739
20
10.0679
11
231.787
21
10.0202
0
LINE
8
BLACK
6
CONTINUOUS
10
231.787
20
10.0202
11
231.739
21
9.97262
0
LINE
8
BLACK
6
CONTINUOUS
10
231.739
20
9.97262
11
231.692
21
10.0202
0
LINE
8
BLACK
6
CONTINUOUS
10
231.692
20
10.0202
11
231.739
21
10.0679
0
LINE
8
BLACK
6
CONTINUOUS
10
231.739
20
10.0679
11
231.739
21
9.97262
0
LINE
8
BLACK
6
CONTINUOUS
10
232.692
20
10.9726
11
232.215
21
10.9726
0
LINE
8
BLACK
6
CONTINUOUS
10
232.215
20
10.9726
11
232.168
21
10.4964
0
LINE
8
BLACK
6
CONTINUOUS
10
232.168
20
10.4964
11
232.215
21
10.544
0
LINE
8
BLACK
6
CONTINUOUS
10
232.215
20
10.544
11
232.311
21
10.5917
0
LINE
8
BLACK
6
CONTINUOUS
10
232.311
20
10.5917
11
232.549
21
10.5917
0
LINE
8
BLACK
6
CONTINUOUS
10
232.549
20
10.5917
11
232.644
21
10.544
0
LINE
8
BLACK
6
CONTINUOUS
10
232.644
20
10.544
11
232.692
21
10.4964
0
LINE
8
BLACK
6
CONTINUOUS
10
232.692
20
10.4964
11
232.739
21
10.4012
0
LINE
8
BLACK
6
CONTINUOUS
10
232.739
20
10.4012
11
232.739
21
10.1631
0
LINE
8
BLACK
6
CONTINUOUS
10
232.739
20
10.1631
11
232.692
21
10.0679
0
LINE
8
BLACK
6
CONTINUOUS
10
232.692
20
10.0679
11
232.644
21
10.0202
0
LINE
8
BLACK
6
CONTINUOUS
10
232.644
20
10.0202
11
232.549
21
9.97262
0
LINE
8
BLACK
6
CONTINUOUS
10
232.549
20
9.97262
11
232.311
21
9.97262
0
LINE
8
BLACK
6
CONTINUOUS
10
232.311
20
9.97262
11
232.215
21
10.0202
0
LINE
8
BLACK
6
CONTINUOUS
10
232.215
20
10.0202
11
232.168
21
10.0679
0
LINE
8
BLACK
6
CONTINUOUS
10
230.406
20
13.6726
11
230.406
21
14.6726
0
LINE
8
BLACK
6
CONTINUOUS
10
230.406
20
14.1964
11
230.977
21
14.1964
0
LINE
8
BLACK
6
CONTINUOUS
10
230.977
20
13.6726
11
230.977
21
14.6726
0
LINE
8
BLACK
6
CONTINUOUS
10
231.93
20
14.6726
11
231.454
21
14.6726
0
LINE
8
BLACK
6
CONTINUOUS
10
231.454
20
14.6726
11
231.406
21
14.1964
0
LINE
8
BLACK
6
CONTINUOUS
10
231.406
20
14.1964
11
231.454
21
14.244
0
LINE
8
BLACK
6
CONTINUOUS
10
231.454
20
14.244
11
231.549
21
14.2917
0
LINE
8
BLACK
6
CONTINUOUS
10
231.549
20
14.2917
11
231.787
21
14.2917
0
LINE
8
BLACK
6
CONTINUOUS
10
231.787
20
14.2917
11
231.882
21
14.244
0
LINE
8
BLACK
6
CONTINUOUS
10
231.882
20
14.244
11
231.93
21
14.1964
0
LINE
8
BLACK
6
CONTINUOUS
10
231.93
20
14.1964
11
231.977
21
14.1012
0
LINE
8
BLACK
6
CONTINUOUS
10
231.977
20
14.1012
11
231.977
21
13.8631
0
LINE
8
BLACK
6
CONTINUOUS
10
231.977
20
13.8631
11
231.93
21
13.7679
0
LINE
8
BLACK
6
CONTINUOUS
10
231.93
20
13.7679
11
231.882
21
13.7202
0
LINE
8
BLACK
6
CONTINUOUS
10
231.882
20
13.7202
11
231.787
21
13.6726
0
LINE
8
BLACK
6
CONTINUOUS
10
231.787
20
13.6726
11
231.549
21
13.6726
0
LINE
8
BLACK
6
CONTINUOUS
10
231.549
20
13.6726
11
231.454
21
13.7202
0
LINE
8
BLACK
6
CONTINUOUS
10
231.454
20
13.7202
11
231.406
21
13.7679
0
LINE
8
BLACK
6
CONTINUOUS
10
12.4286
20
-4.15238
11
12.4286
21
-3.15238
0
LINE
8
BLACK
6
CONTINUOUS
10
12.4286
20
-3.15238
11
12.7619
21
-3.86667
0
LINE
8
BLACK
6
CONTINUOUS
10
12.7619
20
-3.86667
11
13.0952
21
-3.15238
0
LINE
8
BLACK
6
CONTINUOUS
10
13.0952
20
-3.15238
11
13.0952
21
-4.15238
0
LINE
8
BLACK
6
CONTINUOUS
10
13.7143
20
-4.15238
11
13.619
21
-4.10476
0
LINE
8
BLACK
6
CONTINUOUS
10
13.619
20
-4.10476
11
13.5714
21
-4.05714
0
LINE
8
BLACK
6
CONTINUOUS
10
13.5714
20
-4.05714
11
13.5238
21
-3.9619
0
LINE
8
BLACK
6
CONTINUOUS
10
13.5238
20
-3.9619
11
13.5238
21
-3.67619
0
LINE
8
BLACK
6
CONTINUOUS
10
13.5238
20
-3.67619
11
13.5714
21
-3.58095
0
LINE
8
BLACK
6
CONTINUOUS
10
13.5714
20
-3.58095
11
13.619
21
-3.53333
0
LINE
8
BLACK
6
CONTINUOUS
10
13.619
20
-3.53333
11
13.7143
21
-3.48571
0
LINE
8
BLACK
6
CONTINUOUS
10
13.7143
20
-3.48571
11
13.8571
21
-3.48571
0
LINE
8
BLACK
6
CONTINUOUS
10
13.8571
20
-3.48571
11
13.9524
21
-3.53333
0
LINE
8
BLACK
6
CONTINUOUS
10
13.9524
20
-3.53333
11
14
21
-3.58095
0
LINE
8
BLACK
6
CONTINUOUS
10
14
20
-3.58095
11
14.0476
21
-3.67619
0
LINE
8
BLACK
6
CONTINUOUS
10
14.0476
20
-3.67619
11
14.0476
21
-3.9619
0
LINE
8
BLACK
6
CONTINUOUS
10
14.0476
20
-3.9619
11
14
21
-4.05714
0
LINE
8
BLACK
6
CONTINUOUS
10
14
20
-4.05714
11
13.9524
21
-4.10476
0
LINE
8
BLACK
6
CONTINUOUS
10
13.9524
20
-4.10476
11
13.8571
21
-4.15238
0
LINE
8
BLACK
6
CONTINUOUS
10
13.8571
20
-4.15238
11
13.7143
21
-4.15238
0
LINE
8
BLACK
6
CONTINUOUS
10
14.9048
20
-3.48571
11
14.9048
21
-4.15238
0
LINE
8
BLACK
6
CONTINUOUS
10
14.4762
20
-3.48571
11
14.4762
21
-4.00952
0
LINE
8
BLACK
6
CONTINUOUS
10
14.4762
20
-4.00952
11
14.5238
21
-4.10476
0
LINE
8
BLACK
6
CONTINUOUS
10
14.5238
20
-4.10476
11
14.619
21
-4.15238
0
LINE
8
BLACK
6
CONTINUOUS
10
14.619
20
-4.15238
11
14.7619
21
-4.15238
0
LINE
8
BLACK
6
CONTINUOUS
10
14.7619
20
-4.15238
11
14.8571
21
-4.10476
0
LINE
8
BLACK
6
CONTINUOUS
10
14.8571
20
-4.10476
11
14.9048
21
-4.05714
0
LINE
8
BLACK
6
CONTINUOUS
10
15.381
20
-3.48571
11
15.381
21
-4.15238
0
LINE
8
BLACK
6
CONTINUOUS
10
15.381
20
-3.58095
11
15.4286
21
-3.53333
0
LINE
8
BLACK
6
CONTINUOUS
10
15.4286
20
-3.53333
11
15.5238
21
-3.48571
0
LINE
8
BLACK
6
CONTINUOUS
10
15.5238
20
-3.48571
11
15.6667
21
-3.48571
0
LINE
8
BLACK
6
CONTINUOUS
10
15.6667
20
-3.48571
11
15.7619
21
-3.53333
0
LINE
8
BLACK
6
CONTINUOUS
10
15.7619
20
-3.53333
11
15.8095
21
-3.62857
0
LINE
8
BLACK
6
CONTINUOUS
10
15.8095
20
-3.62857
11
15.8095
21
-4.15238
0
LINE
8
BLACK
6
CONTINUOUS
10
16.1429
20
-3.48571
11
16.5238
21
-3.48571
0
LINE
8
BLACK
6
CONTINUOUS
10
16.2857
20
-3.15238
11
16.2857
21
-4.00952
0
LINE
8
BLACK
6
CONTINUOUS
10
16.2857
20
-4.00952
11
16.3333
21
-4.10476
0
LINE
8
BLACK
6
CONTINUOUS
10
16.3333
20
-4.10476
11
16.4286
21
-4.15238
0
LINE
8
BLACK
6
CONTINUOUS
10
16.4286
20
-4.15238
11
16.5238
21
-4.15238
0
LINE
8
BLACK
6
CONTINUOUS
10
16.8571
20
-4.15238
11
16.8571
21
-3.48571
0
LINE
8
BLACK
6
CONTINUOUS
10
16.8571
20
-3.15238
11
16.8095
21
-3.2
0
LINE
8
BLACK
6
CONTINUOUS
10
16.8095
20
-3.2
11
16.8571
21
-3.24762
0
LINE
8
BLACK
6
CONTINUOUS
10
16.8571
20
-3.24762
11
16.9048
21
-3.2
0
LINE
8
BLACK
6
CONTINUOUS
10
16.9048
20
-3.2
11
16.8571
21
-3.15238
0
LINE
8
BLACK
6
CONTINUOUS
10
16.8571
20
-3.15238
11
16.8571
21
-3.24762
0
LINE
8
BLACK
6
CONTINUOUS
10
17.3333
20
-3.48571
11
17.3333
21
-4.15238
0
LINE
8
BLACK
6
CONTINUOUS
10
17.3333
20
-3.58095
11
17.381
21
-3.53333
0
LINE
8
BLACK
6
CONTINUOUS
10
17.381
20
-3.53333
11
17.4762
21
-3.48571
0
LINE
8
BLACK
6
CONTINUOUS
10
17.4762
20
-3.48571
11
17.619
21
-3.48571
0
LINE
8
BLACK
6
CONTINUOUS
10
17.619
20
-3.48571
11
17.7143
21
-3.53333
0
LINE
8
BLACK
6
CONTINUOUS
10
17.7143
20
-3.53333
11
17.7619
21
-3.62857
0
LINE
8
BLACK
6
CONTINUOUS
10
17.7619
20
-3.62857
11
17.7619
21
-4.15238
0
LINE
8
BLACK
6
CONTINUOUS
10
18.6667
20
-3.48571
11
18.6667
21
-4.29524
0
LINE
8
BLACK
6
CONTINUOUS
10
18.6667
20
-4.29524
11
18.619
21
-4.39048
0
LINE
8
BLACK
6
CONTINUOUS
10
18.619
20
-4.39048
11
18.5714
21
-4.43809
0
LINE
8
BLACK
6
CONTINUOUS
10
18.5714
20
-4.43809
11
18.4762
21
-4.48571
0
LINE
8
BLACK
6
CONTINUOUS
10
18.4762
20
-4.48571
11
18.3333
21
-4.48571
0
LINE
8
BLACK
6
CONTINUOUS
10
18.3333
20
-4.48571
11
18.2381
21
-4.43809
0
LINE
8
BLACK
6
CONTINUOUS
10
18.6667
20
-4.10476
11
18.5714
21
-4.15238
0
LINE
8
BLACK
6
CONTINUOUS
10
18.5714
20
-4.15238
11
18.381
21
-4.15238
0
LINE
8
BLACK
6
CONTINUOUS
10
18.381
20
-4.15238
11
18.2857
21
-4.10476
0
LINE
8
BLACK
6
CONTINUOUS
10
18.2857
20
-4.10476
11
18.2381
21
-4.05714
0
LINE
8
BLACK
6
CONTINUOUS
10
18.2381
20
-4.05714
11
18.1905
21
-3.9619
0
LINE
8
BLACK
6
CONTINUOUS
10
18.1905
20
-3.9619
11
18.1905
21
-3.67619
0
LINE
8
BLACK
6
CONTINUOUS
10
18.1905
20
-3.67619
11
18.2381
21
-3.58095
0
LINE
8
BLACK
6
CONTINUOUS
10
18.2381
20
-3.58095
11
18.2857
21
-3.53333
0
LINE
8
BLACK
6
CONTINUOUS
10
18.2857
20
-3.53333
11
18.381
21
-3.48571
0
LINE
8
BLACK
6
CONTINUOUS
10
18.381
20
-3.48571
11
18.5714
21
-3.48571
0
LINE
8
BLACK
6
CONTINUOUS
10
18.5714
20
-3.48571
11
18.6667
21
-3.53333
0
LINE
8
BLACK
6
CONTINUOUS
10
19.1429
20
-4.15238
11
19.1429
21
-3.15238
0
LINE
8
BLACK
6
CONTINUOUS
10
19.1429
20
-3.62857
11
19.7143
21
-3.62857
0
LINE
8
BLACK
6
CONTINUOUS
10
19.7143
20
-4.15238
11
19.7143
21
-3.15238
0
LINE
8
BLACK
6
CONTINUOUS
10
20.3333
20
-4.15238
11
20.2381
21
-4.10476
0
LINE
8
BLACK
6
CONTINUOUS
10
20.2381
20
-4.10476
11
20.1905
21
-4.05714
0
LINE
8
BLACK
6
CONTINUOUS
10
20.1905
20
-4.05714
11
20.1429
21
-3.9619
0
LINE
8
BLACK
6
CONTINUOUS
10
20.1429
20
-3.9619
11
20.1429
21
-3.67619
0
LINE
8
BLACK
6
CONTINUOUS
10
20.1429
20
-3.67619
11
20.1905
21
-3.58095
0
LINE
8
BLACK
6
CONTINUOUS
10
20.1905
20
-3.58095
11
20.2381
21
-3.53333
0
LINE
8
BLACK
6
CONTINUOUS
10
20.2381
20
-3.53333
11
20.3333
21
-3.48571
0
LINE
8
BLACK
6
CONTINUOUS
10
20.3333
20
-3.48571
11
20.4762
21
-3.48571
0
LINE
8
BLACK
6
CONTINUOUS
10
20.4762
20
-3.48571
11
20.5714
21
-3.53333
0
LINE
8
BLACK
6
CONTINUOUS
10
20.5714
20
-3.53333
11
20.619
21
-3.58095
0
LINE
8
BLACK
6
CONTINUOUS
10
20.619
20
-3.58095
11
20.6667
21
-3.67619
0
LINE
8
BLACK
6
CONTINUOUS
10
20.6667
20
-3.67619
11
20.6667
21
-3.9619
0
LINE
8
BLACK
6
CONTINUOUS
10
20.6667
20
-3.9619
11
20.619
21
-4.05714
0
LINE
8
BLACK
6
CONTINUOUS
10
20.619
20
-4.05714
11
20.5714
21
-4.10476
0
LINE
8
BLACK
6
CONTINUOUS
10
20.5714
20
-4.10476
11
20.4762
21
-4.15238
0
LINE
8
BLACK
6
CONTINUOUS
10
20.4762
20
-4.15238
11
20.3333
21
-4.15238
0
LINE
8
BLACK
6
CONTINUOUS
10
21.2381
20
-4.15238
11
21.1429
21
-4.10476
0
LINE
8
BLACK
6
CONTINUOUS
10
21.1429
20
-4.10476
11
21.0952
21
-4.00952
0
LINE
8
BLACK
6
CONTINUOUS
10
21.0952
20
-4.00952
11
21.0952
21
-3.15238
0
LINE
8
BLACK
6
CONTINUOUS
10
22
20
-4.10476
11
21.9048
21
-4.15238
0
LINE
8
BLACK
6
CONTINUOUS
10
21.9048
20
-4.15238
11
21.7143
21
-4.15238
0
LINE
8
BLACK
6
CONTINUOUS
10
21.7143
20
-4.15238
11
21.619
21
-4.10476
0
LINE
8
BLACK
6
CONTINUOUS
10
21.619
20
-4.10476
11
21.5714
21
-4.00952
0
LINE
8
BLACK
6
CONTINUOUS
10
21.5714
20
-4.00952
11
21.5714
21
-3.62857
0
LINE
8
BLACK
6
CONTINUOUS
10
21.5714
20
-3.62857
11
21.619
21
-3.53333
0
LINE
8
BLACK
6
CONTINUOUS
10
21.619
20
-3.53333
11
21.7143
21
-3.48571
0
LINE
8
BLACK
6
CONTINUOUS
10
21.7143
20
-3.48571
11
21.9048
21
-3.48571
0
LINE
8
BLACK
6
CONTINUOUS
10
21.9048
20
-3.48571
11
22
21
-3.53333
0
LINE
8
BLACK
6
CONTINUOUS
10
22
20
-3.53333
11
22.0476
21
-3.62857
0
LINE
8
BLACK
6
CONTINUOUS
10
22.0476
20
-3.62857
11
22.0476
21
-3.72381
0
LINE
8
BLACK
6
CONTINUOUS
10
22.0476
20
-3.72381
11
21.5714
21
-3.81905
0
LINE
8
BLACK
6
CONTINUOUS
10
22.2381
20
-4.24762
11
23
21
-4.24762
0
LINE
8
BLACK
6
CONTINUOUS
10
23.2381
20
-4.15238
11
23.2381
21
-3.15238
0
LINE
8
BLACK
6
CONTINUOUS
10
23.2381
20
-3.15238
11
23.619
21
-3.15238
0
LINE
8
BLACK
6
CONTINUOUS
10
23.619
20
-3.15238
11
23.7143
21
-3.2
0
LINE
8
BLACK
6
CONTINUOUS
10
23.7143
20
-3.2
11
23.7619
21
-3.24762
0
LINE
8
BLACK
6
CONTINUOUS
10
23.7619
20
-3.24762
11
23.8095
21
-3.34286
0
LINE
8
BLACK
6
CONTINUOUS
10
23.8095
20
-3.34286
11
23.8095
21
-3.48571
0
LINE
8
BLACK
6
CONTINUOUS
10
23.8095
20
-3.48571
11
23.7619
21
-3.58095
0
LINE
8
BLACK
6
CONTINUOUS
10
23.7619
20
-3.58095
11
23.7143
21
-3.62857
0
LINE
8
BLACK
6
CONTINUOUS
10
23.7143
20
-3.62857
11
23.619
21
-3.67619
0
LINE
8
BLACK
6
CONTINUOUS
10
23.619
20
-3.67619
11
23.2381
21
-3.67619
0
LINE
8
BLACK
6
CONTINUOUS
10
24.6667
20
-4.15238
11
24.6667
21
-3.62857
0
LINE
8
BLACK
6
CONTINUOUS
10
24.6667
20
-3.62857
11
24.619
21
-3.53333
0
LINE
8
BLACK
6
CONTINUOUS
10
24.619
20
-3.53333
11
24.5238
21
-3.48571
0
LINE
8
BLACK
6
CONTINUOUS
10
24.5238
20
-3.48571
11
24.3333
21
-3.48571
0
LINE
8
BLACK
6
CONTINUOUS
10
24.3333
20
-3.48571
11
24.2381
21
-3.53333
0
LINE
8
BLACK
6
CONTINUOUS
10
24.6667
20
-4.10476
11
24.5714
21
-4.15238
0
LINE
8
BLACK
6
CONTINUOUS
10
24.5714
20
-4.15238
11
24.3333
21
-4.15238
0
LINE
8
BLACK
6
CONTINUOUS
10
24.3333
20
-4.15238
11
24.2381
21
-4.10476
0
LINE
8
BLACK
6
CONTINUOUS
10
24.2381
20
-4.10476
11
24.1905
21
-4.00952
0
LINE
8
BLACK
6
CONTINUOUS
10
24.1905
20
-4.00952
11
24.1905
21
-3.91429
0
LINE
8
BLACK
6
CONTINUOUS
10
24.1905
20
-3.91429
11
24.2381
21
-3.81905
0
LINE
8
BLACK
6
CONTINUOUS
10
24.2381
20
-3.81905
11
24.3333
21
-3.77143
0
LINE
8
BLACK
6
CONTINUOUS
10
24.3333
20
-3.77143
11
24.5714
21
-3.77143
0
LINE
8
BLACK
6
CONTINUOUS
10
24.5714
20
-3.77143
11
24.6667
21
-3.72381
0
LINE
8
BLACK
6
CONTINUOUS
10
25.5714
20
-4.15238
11
25.5714
21
-3.15238
0
LINE
8
BLACK
6
CONTINUOUS
10
25.5714
20
-4.10476
11
25.4762
21
-4.15238
0
LINE
8
BLACK
6
CONTINUOUS
10
25.4762
20
-4.15238
11
25.2857
21
-4.15238
0
LINE
8
BLACK
6
CONTINUOUS
10
25.2857
20
-4.15238
11
25.1905
21
-4.10476
0
LINE
8
BLACK
6
CONTINUOUS
10
25.1905
20
-4.10476
11
25.1429
21
-4.05714
0
LINE
8
BLACK
6
CONTINUOUS
10
25.1429
20
-4.05714
11
25.0952
21
-3.9619
0
LINE
8
BLACK
6
CONTINUOUS
10
25.0952
20
-3.9619
11
25.0952
21
-3.67619
0
LINE
8
BLACK
6
CONTINUOUS
10
25.0952
20
-3.67619
11
25.1429
21
-3.58095
0
LINE
8
BLACK
6
CONTINUOUS
10
25.1429
20
-3.58095
11
25.1905
21
-3.53333
0
LINE
8
BLACK
6
CONTINUOUS
10
25.1905
20
-3.53333
11
25.2857
21
-3.48571
0
LINE
8
BLACK
6
CONTINUOUS
10
25.2857
20
-3.48571
11
25.4762
21
-3.48571
0
LINE
8
BLACK
6
CONTINUOUS
10
25.4762
20
-3.48571
11
25.5714
21
-3.53333
0
LINE
8
BLACK
6
CONTINUOUS
10
17.7619
20
-0.45238
11
17.7619
21
0.547619
0
LINE
8
BLACK
6
CONTINUOUS
10
17.7619
20
0.071428
11
18.3333
21
0.071428
0
LINE
8
BLACK
6
CONTINUOUS
10
18.3333
20
-0.45238
11
18.3333
21
0.547619
0
LINE
8
BLACK
6
CONTINUOUS
10
19.2381
20
0.214285
11
19.2381
21
-0.45238
0
LINE
8
BLACK
6
CONTINUOUS
10
19
20
0.595238
11
18.7619
21
-0.119047
0
LINE
8
BLACK
6
CONTINUOUS
10
18.7619
20
-0.119047
11
19.381
21
-0.119047
0
LINE
8
BLACK
6
CONTINUOUS
10
19.9048
20
0.119047
11
19.8095
21
0.166666
0
LINE
8
BLACK
6
CONTINUOUS
10
19.8095
20
0.166666
11
19.7619
21
0.214285
0
LINE
8
BLACK
6
CONTINUOUS
10
19.7619
20
0.214285
11
19.7143
21
0.309523
0
LINE
8
BLACK
6
CONTINUOUS
10
19.7143
20
0.309523
11
19.7143
21
0.357142
0
LINE
8
BLACK
6
CONTINUOUS
10
19.7143
20
0.357142
11
19.7619
21
0.45238
0
LINE
8
BLACK
6
CONTINUOUS
10
19.7619
20
0.45238
11
19.8095
21
0.5
0
LINE
8
BLACK
6
CONTINUOUS
10
19.8095
20
0.5
11
19.9048
21
0.547619
0
LINE
8
BLACK
6
CONTINUOUS
10
19.9048
20
0.547619
11
20.0952
21
0.547619
0
LINE
8
BLACK
6
CONTINUOUS
10
20.0952
20
0.547619
11
20.1905
21
0.5
0
LINE
8
BLACK
6
CONTINUOUS
10
20.1905
20
0.5
11
20.2381
21
0.45238
0
LINE
8
BLACK
6
CONTINUOUS
10
20.2381
20
0.45238
11
20.2857
21
0.357142
0
LINE
8
BLACK
6
CONTINUOUS
10
20.2857
20
0.357142
11
20.2857
21
0.309523
0
LINE
8
BLACK
6
CONTINUOUS
10
20.2857
20
0.309523
11
20.2381
21
0.214285
0
LINE
8
BLACK
6
CONTINUOUS
10
20.2381
20
0.214285
11
20.1905
21
0.166666
0
LINE
8
BLACK
6
CONTINUOUS
10
20.1905
20
0.166666
11
20.0952
21
0.119047
0
LINE
8
BLACK
6
CONTINUOUS
10
20.0952
20
0.119047
11
19.9048
21
0.119047
0
LINE
8
BLACK
6
CONTINUOUS
10
19.9048
20
0.119047
11
19.8095
21
0.071428
0
LINE
8
BLACK
6
CONTINUOUS
10
19.8095
20
0.071428
11
19.7619
21
0.023809
0
LINE
8
BLACK
6
CONTINUOUS
10
19.7619
20
0.023809
11
19.7143
21
-0.071428
0
LINE
8
BLACK
6
CONTINUOUS
10
19.7143
20
-0.071428
11
19.7143
21
-0.261904
0
LINE
8
BLACK
6
CONTINUOUS
10
19.7143
20
-0.261904
11
19.7619
21
-0.357142
0
LINE
8
BLACK
6
CONTINUOUS
10
19.7619
20
-0.357142
11
19.8095
21
-0.404761
0
LINE
8
BLACK
6
CONTINUOUS
10
19.8095
20
-0.404761
11
19.9048
21
-0.45238
0
LINE
8
BLACK
6
CONTINUOUS
10
19.9048
20
-0.45238
11
20.0952
21
-0.45238
0
LINE
8
BLACK
6
CONTINUOUS
10
20.0952
20
-0.45238
11
20.1905
21
-0.404761
0
LINE
8
BLACK
6
CONTINUOUS
10
20.1905
20
-0.404761
11
20.2381
21
-0.357142
0
LINE
8
BLACK
6
CONTINUOUS
10
20.2381
20
-0.357142
11
20.2857
21
-0.261904
0
LINE
8
BLACK
6
CONTINUOUS
10
20.2857
20
-0.261904
11
20.2857
21
-0.071428
0
LINE
8
BLACK
6
CONTINUOUS
10
20.2857
20
-0.071428
11
20.2381
21
0.023809
0
LINE
8
BLACK
6
CONTINUOUS
10
20.2381
20
0.023809
11
20.1905
21
0.071428
0
LINE
8
BLACK
6
CONTINUOUS
10
20.1905
20
0.071428
11
20.0952
21
0.119047
0
LINE
8
BLACK
6
CONTINUOUS
10
28.4467
20
-105.341
11
28.4467
21
-104.341
0
LINE
8
BLACK
6
CONTINUOUS
10
28.4467
20
-104.341
11
28.78
21
-105.055
0
LINE
8
BLACK
6
CONTINUOUS
10
28.78
20
-105.055
11
29.1133
21
-104.341
0
LINE
8
BLACK
6
CONTINUOUS
10
29.1133
20
-104.341
11
29.1133
21
-105.341
0
LINE
8
BLACK
6
CONTINUOUS
10
29.7324
20
-105.341
11
29.6371
21
-105.293
0
LINE
8
BLACK
6
CONTINUOUS
10
29.6371
20
-105.293
11
29.5895
21
-105.246
0
LINE
8
BLACK
6
CONTINUOUS
10
29.5895
20
-105.246
11
29.5419
21
-105.15
0
LINE
8
BLACK
6
CONTINUOUS
10
29.5419
20
-105.15
11
29.5419
21
-104.865
0
LINE
8
BLACK
6
CONTINUOUS
10
29.5419
20
-104.865
11
29.5895
21
-104.769
0
LINE
8
BLACK
6
CONTINUOUS
10
29.5895
20
-104.769
11
29.6371
21
-104.722
0
LINE
8
BLACK
6
CONTINUOUS
10
29.6371
20
-104.722
11
29.7324
21
-104.674
0
LINE
8
BLACK
6
CONTINUOUS
10
29.7324
20
-104.674
11
29.8752
21
-104.674
0
LINE
8
BLACK
6
CONTINUOUS
10
29.8752
20
-104.674
11
29.9705
21
-104.722
0
LINE
8
BLACK
6
CONTINUOUS
10
29.9705
20
-104.722
11
30.0181
21
-104.769
0
LINE
8
BLACK
6
CONTINUOUS
10
30.0181
20
-104.769
11
30.0657
21
-104.865
0
LINE
8
BLACK
6
CONTINUOUS
10
30.0657
20
-104.865
11
30.0657
21
-105.15
0
LINE
8
BLACK
6
CONTINUOUS
10
30.0657
20
-105.15
11
30.0181
21
-105.246
0
LINE
8
BLACK
6
CONTINUOUS
10
30.0181
20
-105.246
11
29.9705
21
-105.293
0
LINE
8
BLACK
6
CONTINUOUS
10
29.9705
20
-105.293
11
29.8752
21
-105.341
0
LINE
8
BLACK
6
CONTINUOUS
10
29.8752
20
-105.341
11
29.7324
21
-105.341
0
LINE
8
BLACK
6
CONTINUOUS
10
30.9229
20
-104.674
11
30.9229
21
-105.341
0
LINE
8
BLACK
6
CONTINUOUS
10
30.4943
20
-104.674
11
30.4943
21
-105.198
0
LINE
8
BLACK
6
CONTINUOUS
10
30.4943
20
-105.198
11
30.5419
21
-105.293
0
LINE
8
BLACK
6
CONTINUOUS
10
30.5419
20
-105.293
11
30.6371
21
-105.341
0
LINE
8
BLACK
6
CONTINUOUS
10
30.6371
20
-105.341
11
30.78
21
-105.341
0
LINE
8
BLACK
6
CONTINUOUS
10
30.78
20
-105.341
11
30.8752
21
-105.293
0
LINE
8
BLACK
6
CONTINUOUS
10
30.8752
20
-105.293
11
30.9229
21
-105.246
0
LINE
8
BLACK
6
CONTINUOUS
10
31.3991
20
-104.674
11
31.3991
21
-105.341
0
LINE
8
BLACK
6
CONTINUOUS
10
31.3991
20
-104.769
11
31.4467
21
-104.722
0
LINE
8
BLACK
6
CONTINUOUS
10
31.4467
20
-104.722
11
31.5419
21
-104.674
0
LINE
8
BLACK
6
CONTINUOUS
10
31.5419
20
-104.674
11
31.6848
21
-104.674
0
LINE
8
BLACK
6
CONTINUOUS
10
31.6848
20
-104.674
11
31.78
21
-104.722
0
LINE
8
BLACK
6
CONTINUOUS
10
31.78
20
-104.722
11
31.8276
21
-104.817
0
LINE
8
BLACK
6
CONTINUOUS
10
31.8276
20
-104.817
11
31.8276
21
-105.341
0
LINE
8
BLACK
6
CONTINUOUS
10
32.161
20
-104.674
11
32.5419
21
-104.674
0
LINE
8
BLACK
6
CONTINUOUS
10
32.3038
20
-104.341
11
32.3038
21
-105.198
0
LINE
8
BLACK
6
CONTINUOUS
10
32.3038
20
-105.198
11
32.3514
21
-105.293
0
LINE
8
BLACK
6
CONTINUOUS
10
32.3514
20
-105.293
11
32.4467
21
-105.341
0
LINE
8
BLACK
6
CONTINUOUS
10
32.4467
20
-105.341
11
32.5419
21
-105.341
0
LINE
8
BLACK
6
CONTINUOUS
10
32.8752
20
-105.341
11
32.8752
21
-104.674
0
LINE
8
BLACK
6
CONTINUOUS
10
32.8752
20
-104.341
11
32.8276
21
-104.388
0
LINE
8
BLACK
6
CONTINUOUS
10
32.8276
20
-104.388
11
32.8752
21
-104.436
0
LINE
8
BLACK
6
CONTINUOUS
10
32.8752
20
-104.436
11
32.9229
21
-104.388
0
LINE
8
BLACK
6
CONTINUOUS
10
32.9229
20
-104.388
11
32.8752
21
-104.341
0
LINE
8
BLACK
6
CONTINUOUS
10
32.8752
20
-104.341
11
32.8752
21
-104.436
0
LINE
8
BLACK
6
CONTINUOUS
10
33.3514
20
-104.674
11
33.3514
21
-105.341
0
LINE
8
BLACK
6
CONTINUOUS
10
33.3514
20
-104.769
11
33.3991
21
-104.722
0
LINE
8
BLACK
6
CONTINUOUS
10
33.3991
20
-104.722
11
33.4943
21
-104.674
0
LINE
8
BLACK
6
CONTINUOUS
10
33.4943
20
-104.674
11
33.6371
21
-104.674
0
LINE
8
BLACK
6
CONTINUOUS
10
33.6371
20
-104.674
11
33.7324
21
-104.722
0
LINE
8
BLACK
6
CONTINUOUS
10
33.7324
20
-104.722
11
33.78
21
-104.817
0
LINE
8
BLACK
6
CONTINUOUS
10
33.78
20
-104.817
11
33.78
21
-105.341
0
LINE
8
BLACK
6
CONTINUOUS
10
34.6848
20
-104.674
11
34.6848
21
-105.484
0
LINE
8
BLACK
6
CONTINUOUS
10
34.6848
20
-105.484
11
34.6371
21
-105.579
0
LINE
8
BLACK
6
CONTINUOUS
10
34.6371
20
-105.579
11
34.5895
21
-105.627
0
LINE
8
BLACK
6
CONTINUOUS
10
34.5895
20
-105.627
11
34.4943
21
-105.674
0
LINE
8
BLACK
6
CONTINUOUS
10
34.4943
20
-105.674
11
34.3514
21
-105.674
0
LINE
8
BLACK
6
CONTINUOUS
10
34.3514
20
-105.674
11
34.2562
21
-105.627
0
LINE
8
BLACK
6
CONTINUOUS
10
34.6848
20
-105.293
11
34.5895
21
-105.341
0
LINE
8
BLACK
6
CONTINUOUS
10
34.5895
20
-105.341
11
34.3991
21
-105.341
0
LINE
8
BLACK
6
CONTINUOUS
10
34.3991
20
-105.341
11
34.3038
21
-105.293
0
LINE
8
BLACK
6
CONTINUOUS
10
34.3038
20
-105.293
11
34.2562
21
-105.246
0
LINE
8
BLACK
6
CONTINUOUS
10
34.2562
20
-105.246
11
34.2086
21
-105.15
0
LINE
8
BLACK
6
CONTINUOUS
10
34.2086
20
-105.15
11
34.2086
21
-104.865
0
LINE
8
BLACK
6
CONTINUOUS
10
34.2086
20
-104.865
11
34.2562
21
-104.769
0
LINE
8
BLACK
6
CONTINUOUS
10
34.2562
20
-104.769
11
34.3038
21
-104.722
0
LINE
8
BLACK
6
CONTINUOUS
10
34.3038
20
-104.722
11
34.3991
21
-104.674
0
LINE
8
BLACK
6
CONTINUOUS
10
34.3991
20
-104.674
11
34.5895
21
-104.674
0
LINE
8
BLACK
6
CONTINUOUS
10
34.5895
20
-104.674
11
34.6848
21
-104.722
0
LINE
8
BLACK
6
CONTINUOUS
10
35.161
20
-105.341
11
35.161
21
-104.341
0
LINE
8
BLACK
6
CONTINUOUS
10
35.161
20
-104.817
11
35.7324
21
-104.817
0
LINE
8
BLACK
6
CONTINUOUS
10
35.7324
20
-105.341
11
35.7324
21
-104.341
0
LINE
8
BLACK
6
CONTINUOUS
10
36.3514
20
-105.341
11
36.2562
21
-105.293
0
LINE
8
BLACK
6
CONTINUOUS
10
36.2562
20
-105.293
11
36.2086
21
-105.246
0
LINE
8
BLACK
6
CONTINUOUS
10
36.2086
20
-105.246
11
36.161
21
-105.15
0
LINE
8
BLACK
6
CONTINUOUS
10
36.161
20
-105.15
11
36.161
21
-104.865
0
LINE
8
BLACK
6
CONTINUOUS
10
36.161
20
-104.865
11
36.2086
21
-104.769
0
LINE
8
BLACK
6
CONTINUOUS
10
36.2086
20
-104.769
11
36.2562
21
-104.722
0
LINE
8
BLACK
6
CONTINUOUS
10
36.2562
20
-104.722
11
36.3514
21
-104.674
0
LINE
8
BLACK
6
CONTINUOUS
10
36.3514
20
-104.674
11
36.4943
21
-104.674
0
LINE
8
BLACK
6
CONTINUOUS
10
36.4943
20
-104.674
11
36.5895
21
-104.722
0
LINE
8
BLACK
6
CONTINUOUS
10
36.5895
20
-104.722
11
36.6371
21
-104.769
0
LINE
8
BLACK
6
CONTINUOUS
10
36.6371
20
-104.769
11
36.6848
21
-104.865
0
LINE
8
BLACK
6
CONTINUOUS
10
36.6848
20
-104.865
11
36.6848
21
-105.15
0
LINE
8
BLACK
6
CONTINUOUS
10
36.6848
20
-105.15
11
36.6371
21
-105.246
0
LINE
8
BLACK
6
CONTINUOUS
10
36.6371
20
-105.246
11
36.5895
21
-105.293
0
LINE
8
BLACK
6
CONTINUOUS
10
36.5895
20
-105.293
11
36.4943
21
-105.341
0
LINE
8
BLACK
6
CONTINUOUS
10
36.4943
20
-105.341
11
36.3514
21
-105.341
0
LINE
8
BLACK
6
CONTINUOUS
10
37.2562
20
-105.341
11
37.161
21
-105.293
0
LINE
8
BLACK
6
CONTINUOUS
10
37.161
20
-105.293
11
37.1133
21
-105.198
0
LINE
8
BLACK
6
CONTINUOUS
10
37.1133
20
-105.198
11
37.1133
21
-104.341
0
LINE
8
BLACK
6
CONTINUOUS
10
38.0181
20
-105.293
11
37.9229
21
-105.341
0
LINE
8
BLACK
6
CONTINUOUS
10
37.9229
20
-105.341
11
37.7324
21
-105.341
0
LINE
8
BLACK
6
CONTINUOUS
10
37.7324
20
-105.341
11
37.6371
21
-105.293
0
LINE
8
BLACK
6
CONTINUOUS
10
37.6371
20
-105.293
11
37.5895
21
-105.198
0
LINE
8
BLACK
6
CONTINUOUS
10
37.5895
20
-105.198
11
37.5895
21
-104.817
0
LINE
8
BLACK
6
CONTINUOUS
10
37.5895
20
-104.817
11
37.6371
21
-104.722
0
LINE
8
BLACK
6
CONTINUOUS
10
37.6371
20
-104.722
11
37.7324
21
-104.674
0
LINE
8
BLACK
6
CONTINUOUS
10
37.7324
20
-104.674
11
37.9229
21
-104.674
0
LINE
8
BLACK
6
CONTINUOUS
10
37.9229
20
-104.674
11
38.0181
21
-104.722
0
LINE
8
BLACK
6
CONTINUOUS
10
38.0181
20
-104.722
11
38.0657
21
-104.817
0
LINE
8
BLACK
6
CONTINUOUS
10
38.0657
20
-104.817
11
38.0657
21
-104.912
0
LINE
8
BLACK
6
CONTINUOUS
10
38.0657
20
-104.912
11
37.5895
21
-105.008
0
LINE
8
BLACK
6
CONTINUOUS
10
38.2562
20
-105.436
11
39.0181
21
-105.436
0
LINE
8
BLACK
6
CONTINUOUS
10
39.2562
20
-105.341
11
39.2562
21
-104.341
0
LINE
8
BLACK
6
CONTINUOUS
10
39.2562
20
-104.341
11
39.6371
21
-104.341
0
LINE
8
BLACK
6
CONTINUOUS
10
39.6371
20
-104.341
11
39.7324
21
-104.388
0
LINE
8
BLACK
6
CONTINUOUS
10
39.7324
20
-104.388
11
39.78
21
-104.436
0
LINE
8
BLACK
6
CONTINUOUS
10
39.78
20
-104.436
11
39.8276
21
-104.531
0
LINE
8
BLACK
6
CONTINUOUS
10
39.8276
20
-104.531
11
39.8276
21
-104.674
0
LINE
8
BLACK
6
CONTINUOUS
10
39.8276
20
-104.674
11
39.78
21
-104.769
0
LINE
8
BLACK
6
CONTINUOUS
10
39.78
20
-104.769
11
39.7324
21
-104.817
0
LINE
8
BLACK
6
CONTINUOUS
10
39.7324
20
-104.817
11
39.6371
21
-104.865
0
LINE
8
BLACK
6
CONTINUOUS
10
39.6371
20
-104.865
11
39.2562
21
-104.865
0
LINE
8
BLACK
6
CONTINUOUS
10
40.6848
20
-105.341
11
40.6848
21
-104.817
0
LINE
8
BLACK
6
CONTINUOUS
10
40.6848
20
-104.817
11
40.6371
21
-104.722
0
LINE
8
BLACK
6
CONTINUOUS
10
40.6371
20
-104.722
11
40.5419
21
-104.674
0
LINE
8
BLACK
6
CONTINUOUS
10
40.5419
20
-104.674
11
40.3514
21
-104.674
0
LINE
8
BLACK
6
CONTINUOUS
10
40.3514
20
-104.674
11
40.2562
21
-104.722
0
LINE
8
BLACK
6
CONTINUOUS
10
40.6848
20
-105.293
11
40.5895
21
-105.341
0
LINE
8
BLACK
6
CONTINUOUS
10
40.5895
20
-105.341
11
40.3514
21
-105.341
0
LINE
8
BLACK
6
CONTINUOUS
10
40.3514
20
-105.341
11
40.2562
21
-105.293
0
LINE
8
BLACK
6
CONTINUOUS
10
40.2562
20
-105.293
11
40.2086
21
-105.198
0
LINE
8
BLACK
6
CONTINUOUS
10
40.2086
20
-105.198
11
40.2086
21
-105.103
0
LINE
8
BLACK
6
CONTINUOUS
10
40.2086
20
-105.103
11
40.2562
21
-105.008
0
LINE
8
BLACK
6
CONTINUOUS
10
40.2562
20
-105.008
11
40.3514
21
-104.96
0
LINE
8
BLACK
6
CONTINUOUS
10
40.3514
20
-104.96
11
40.5895
21
-104.96
0
LINE
8
BLACK
6
CONTINUOUS
10
40.5895
20
-104.96
11
40.6848
21
-104.912
0
LINE
8
BLACK
6
CONTINUOUS
10
41.5895
20
-105.341
11
41.5895
21
-104.341
0
LINE
8
BLACK
6
CONTINUOUS
10
41.5895
20
-105.293
11
41.4943
21
-105.341
0
LINE
8
BLACK
6
CONTINUOUS
10
41.4943
20
-105.341
11
41.3038
21
-105.341
0
LINE
8
BLACK
6
CONTINUOUS
10
41.3038
20
-105.341
11
41.2086
21
-105.293
0
LINE
8
BLACK
6
CONTINUOUS
10
41.2086
20
-105.293
11
41.161
21
-105.246
0
LINE
8
BLACK
6
CONTINUOUS
10
41.161
20
-105.246
11
41.1133
21
-105.15
0
LINE
8
BLACK
6
CONTINUOUS
10
41.1133
20
-105.15
11
41.1133
21
-104.865
0
LINE
8
BLACK
6
CONTINUOUS
10
41.1133
20
-104.865
11
41.161
21
-104.769
0
LINE
8
BLACK
6
CONTINUOUS
10
41.161
20
-104.769
11
41.2086
21
-104.722
0
LINE
8
BLACK
6
CONTINUOUS
10
41.2086
20
-104.722
11
41.3038
21
-104.674
0
LINE
8
BLACK
6
CONTINUOUS
10
41.3038
20
-104.674
11
41.4943
21
-104.674
0
LINE
8
BLACK
6
CONTINUOUS
10
41.4943
20
-104.674
11
41.5895
21
-104.722
0
LINE
8
BLACK
6
CONTINUOUS
10
33.78
20
-101.641
11
33.78
21
-100.641
0
LINE
8
BLACK
6
CONTINUOUS
10
33.78
20
-101.117
11
34.3514
21
-101.117
0
LINE
8
BLACK
6
CONTINUOUS
10
34.3514
20
-101.641
11
34.3514
21
-100.641
0
LINE
8
BLACK
6
CONTINUOUS
10
35.3038
20
-100.641
11
34.8276
21
-100.641
0
LINE
8
BLACK
6
CONTINUOUS
10
34.8276
20
-100.641
11
34.78
21
-101.117
0
LINE
8
BLACK
6
CONTINUOUS
10
34.78
20
-101.117
11
34.8276
21
-101.069
0
LINE
8
BLACK
6
CONTINUOUS
10
34.8276
20
-101.069
11
34.9229
21
-101.022
0
LINE
8
BLACK
6
CONTINUOUS
10
34.9229
20
-101.022
11
35.161
21
-101.022
0
LINE
8
BLACK
6
CONTINUOUS
10
35.161
20
-101.022
11
35.2562
21
-101.069
0
LINE
8
BLACK
6
CONTINUOUS
10
35.2562
20
-101.069
11
35.3038
21
-101.117
0
LINE
8
BLACK
6
CONTINUOUS
10
35.3038
20
-101.117
11
35.3514
21
-101.212
0
LINE
8
BLACK
6
CONTINUOUS
10
35.3514
20
-101.212
11
35.3514
21
-101.45
0
LINE
8
BLACK
6
CONTINUOUS
10
35.3514
20
-101.45
11
35.3038
21
-101.546
0
LINE
8
BLACK
6
CONTINUOUS
10
35.3038
20
-101.546
11
35.2562
21
-101.593
0
LINE
8
BLACK
6
CONTINUOUS
10
35.2562
20
-101.593
11
35.161
21
-101.641
0
LINE
8
BLACK
6
CONTINUOUS
10
35.161
20
-101.641
11
34.9229
21
-101.641
0
LINE
8
BLACK
6
CONTINUOUS
10
34.9229
20
-101.641
11
34.8276
21
-101.593
0
LINE
8
BLACK
6
CONTINUOUS
10
34.8276
20
-101.593
11
34.78
21
-101.546
0
LINE
8
BLACK
6
CONTINUOUS
10
35.6848
20
-100.641
11
36.3038
21
-100.641
0
LINE
8
BLACK
6
CONTINUOUS
10
36.3038
20
-100.641
11
35.9705
21
-101.022
0
LINE
8
BLACK
6
CONTINUOUS
10
35.9705
20
-101.022
11
36.1133
21
-101.022
0
LINE
8
BLACK
6
CONTINUOUS
10
36.1133
20
-101.022
11
36.2086
21
-101.069
0
LINE
8
BLACK
6
CONTINUOUS
10
36.2086
20
-101.069
11
36.2562
21
-101.117
0
LINE
8
BLACK
6
CONTINUOUS
10
36.2562
20
-101.117
11
36.3038
21
-101.212
0
LINE
8
BLACK
6
CONTINUOUS
10
36.3038
20
-101.212
11
36.3038
21
-101.45
0
LINE
8
BLACK
6
CONTINUOUS
10
36.3038
20
-101.45
11
36.2562
21
-101.546
0
LINE
8
BLACK
6
CONTINUOUS
10
36.2562
20
-101.546
11
36.2086
21
-101.593
0
LINE
8
BLACK
6
CONTINUOUS
10
36.2086
20
-101.593
11
36.1133
21
-101.641
0
LINE
8
BLACK
6
CONTINUOUS
10
36.1133
20
-101.641
11
35.8276
21
-101.641
0
LINE
8
BLACK
6
CONTINUOUS
10
35.8276
20
-101.641
11
35.7324
21
-101.593
0
LINE
8
BLACK
6
CONTINUOUS
10
35.7324
20
-101.593
11
35.6848
21
-101.546
0
LINE
8
BLACK
6
CONTINUOUS
10
14.5458
20
-63.4034
11
14.5458
21
-62.4034
0
LINE
8
BLACK
6
CONTINUOUS
10
14.5458
20
-62.4034
11
14.8791
21
-63.1177
0
LINE
8
BLACK
6
CONTINUOUS
10
14.8791
20
-63.1177
11
15.2124
21
-62.4034
0
LINE
8
BLACK
6
CONTINUOUS
10
15.2124
20
-62.4034
11
15.2124
21
-63.4034
0
LINE
8
BLACK
6
CONTINUOUS
10
15.8315
20
-63.4034
11
15.7362
21
-63.3558
0
LINE
8
BLACK
6
CONTINUOUS
10
15.7362
20
-63.3558
11
15.6886
21
-63.3081
0
LINE
8
BLACK
6
CONTINUOUS
10
15.6886
20
-63.3081
11
15.641
21
-63.2129
0
LINE
8
BLACK
6
CONTINUOUS
10
15.641
20
-63.2129
11
15.641
21
-62.9272
0
LINE
8
BLACK
6
CONTINUOUS
10
15.641
20
-62.9272
11
15.6886
21
-62.832
0
LINE
8
BLACK
6
CONTINUOUS
10
15.6886
20
-62.832
11
15.7362
21
-62.7843
0
LINE
8
BLACK
6
CONTINUOUS
10
15.7362
20
-62.7843
11
15.8315
21
-62.7367
0
LINE
8
BLACK
6
CONTINUOUS
10
15.8315
20
-62.7367
11
15.9743
21
-62.7367
0
LINE
8
BLACK
6
CONTINUOUS
10
15.9743
20
-62.7367
11
16.0696
21
-62.7843
0
LINE
8
BLACK
6
CONTINUOUS
10
16.0696
20
-62.7843
11
16.1172
21
-62.832
0
LINE
8
BLACK
6
CONTINUOUS
10
16.1172
20
-62.832
11
16.1648
21
-62.9272
0
LINE
8
BLACK
6
CONTINUOUS
10
16.1648
20
-62.9272
11
16.1648
21
-63.2129
0
LINE
8
BLACK
6
CONTINUOUS
10
16.1648
20
-63.2129
11
16.1172
21
-63.3081
0
LINE
8
BLACK
6
CONTINUOUS
10
16.1172
20
-63.3081
11
16.0696
21
-63.3558
0
LINE
8
BLACK
6
CONTINUOUS
10
16.0696
20
-63.3558
11
15.9743
21
-63.4034
0
LINE
8
BLACK
6
CONTINUOUS
10
15.9743
20
-63.4034
11
15.8315
21
-63.4034
0
LINE
8
BLACK
6
CONTINUOUS
10
17.022
20
-62.7367
11
17.022
21
-63.4034
0
LINE
8
BLACK
6
CONTINUOUS
10
16.5934
20
-62.7367
11
16.5934
21
-63.2605
0
LINE
8
BLACK
6
CONTINUOUS
10
16.5934
20
-63.2605
11
16.641
21
-63.3558
0
LINE
8
BLACK
6
CONTINUOUS
10
16.641
20
-63.3558
11
16.7362
21
-63.4034
0
LINE
8
BLACK
6
CONTINUOUS
10
16.7362
20
-63.4034
11
16.8791
21
-63.4034
0
LINE
8
BLACK
6
CONTINUOUS
10
16.8791
20
-63.4034
11
16.9743
21
-63.3558
0
LINE
8
BLACK
6
CONTINUOUS
10
16.9743
20
-63.3558
11
17.022
21
-63.3081
0
LINE
8
BLACK
6
CONTINUOUS
10
17.4982
20
-62.7367
11
17.4982
21
-63.4034
0
LINE
8
BLACK
6
CONTINUOUS
10
17.4982
20
-62.832
11
17.5458
21
-62.7843
0
LINE
8
BLACK
6
CONTINUOUS
10
17.5458
20
-62.7843
11
17.641
21
-62.7367
0
LINE
8
BLACK
6
CONTINUOUS
10
17.641
20
-62.7367
11
17.7839
21
-62.7367
0
LINE
8
BLACK
6
CONTINUOUS
10
17.7839
20
-62.7367
11
17.8791
21
-62.7843
0
LINE
8
BLACK
6
CONTINUOUS
10
17.8791
20
-62.7843
11
17.9267
21
-62.8796
0
LINE
8
BLACK
6
CONTINUOUS
10
17.9267
20
-62.8796
11
17.9267
21
-63.4034
0
LINE
8
BLACK
6
CONTINUOUS
10
18.2601
20
-62.7367
11
18.641
21
-62.7367
0
LINE
8
BLACK
6
CONTINUOUS
10
18.4029
20
-62.4034
11
18.4029
21
-63.2605
0
LINE
8
BLACK
6
CONTINUOUS
10
18.4029
20
-63.2605
11
18.4505
21
-63.3558
0
LINE
8
BLACK
6
CONTINUOUS
10
18.4505
20
-63.3558
11
18.5458
21
-63.4034
0
LINE
8
BLACK
6
CONTINUOUS
10
18.5458
20
-63.4034
11
18.641
21
-63.4034
0
LINE
8
BLACK
6
CONTINUOUS
10
18.9743
20
-63.4034
11
18.9743
21
-62.7367
0
LINE
8
BLACK
6
CONTINUOUS
10
18.9743
20
-62.4034
11
18.9267
21
-62.451
0
LINE
8
BLACK
6
CONTINUOUS
10
18.9267
20
-62.451
11
18.9743
21
-62.4986
0
LINE
8
BLACK
6
CONTINUOUS
10
18.9743
20
-62.4986
11
19.022
21
-62.451
0
LINE
8
BLACK
6
CONTINUOUS
10
19.022
20
-62.451
11
18.9743
21
-62.4034
0
LINE
8
BLACK
6
CONTINUOUS
10
18.9743
20
-62.4034
11
18.9743
21
-62.4986
0
LINE
8
BLACK
6
CONTINUOUS
10
19.4505
20
-62.7367
11
19.4505
21
-63.4034
0
LINE
8
BLACK
6
CONTINUOUS
10
19.4505
20
-62.832
11
19.4982
21
-62.7843
0
LINE
8
BLACK
6
CONTINUOUS
10
19.4982
20
-62.7843
11
19.5934
21
-62.7367
0
LINE
8
BLACK
6
CONTINUOUS
10
19.5934
20
-62.7367
11
19.7362
21
-62.7367
0
LINE
8
BLACK
6
CONTINUOUS
10
19.7362
20
-62.7367
11
19.8315
21
-62.7843
0
LINE
8
BLACK
6
CONTINUOUS
10
19.8315
20
-62.7843
11
19.8791
21
-62.8796
0
LINE
8
BLACK
6
CONTINUOUS
10
19.8791
20
-62.8796
11
19.8791
21
-63.4034
0
LINE
8
BLACK
6
CONTINUOUS
10
20.7839
20
-62.7367
11
20.7839
21
-63.5462
0
LINE
8
BLACK
6
CONTINUOUS
10
20.7839
20
-63.5462
11
20.7362
21
-63.6415
0
LINE
8
BLACK
6
CONTINUOUS
10
20.7362
20
-63.6415
11
20.6886
21
-63.6891
0
LINE
8
BLACK
6
CONTINUOUS
10
20.6886
20
-63.6891
11
20.5934
21
-63.7367
0
LINE
8
BLACK
6
CONTINUOUS
10
20.5934
20
-63.7367
11
20.4505
21
-63.7367
0
LINE
8
BLACK
6
CONTINUOUS
10
20.4505
20
-63.7367
11
20.3553
21
-63.6891
0
LINE
8
BLACK
6
CONTINUOUS
10
20.7839
20
-63.3558
11
20.6886
21
-63.4034
0
LINE
8
BLACK
6
CONTINUOUS
10
20.6886
20
-63.4034
11
20.4982
21
-63.4034
0
LINE
8
BLACK
6
CONTINUOUS
10
20.4982
20
-63.4034
11
20.4029
21
-63.3558
0
LINE
8
BLACK
6
CONTINUOUS
10
20.4029
20
-63.3558
11
20.3553
21
-63.3081
0
LINE
8
BLACK
6
CONTINUOUS
10
20.3553
20
-63.3081
11
20.3077
21
-63.2129
0
LINE
8
BLACK
6
CONTINUOUS
10
20.3077
20
-63.2129
11
20.3077
21
-62.9272
0
LINE
8
BLACK
6
CONTINUOUS
10
20.3077
20
-62.9272
11
20.3553
21
-62.832
0
LINE
8
BLACK
6
CONTINUOUS
10
20.3553
20
-62.832
11
20.4029
21
-62.7843
0
LINE
8
BLACK
6
CONTINUOUS
10
20.4029
20
-62.7843
11
20.4982
21
-62.7367
0
LINE
8
BLACK
6
CONTINUOUS
10
20.4982
20
-62.7367
11
20.6886
21
-62.7367
0
LINE
8
BLACK
6
CONTINUOUS
10
20.6886
20
-62.7367
11
20.7839
21
-62.7843
0
LINE
8
BLACK
6
CONTINUOUS
10
21.2601
20
-63.4034
11
21.2601
21
-62.4034
0
LINE
8
BLACK
6
CONTINUOUS
10
21.2601
20
-62.8796
11
21.8315
21
-62.8796
0
LINE
8
BLACK
6
CONTINUOUS
10
21.8315
20
-63.4034
11
21.8315
21
-62.4034
0
LINE
8
BLACK
6
CONTINUOUS
10
22.4505
20
-63.4034
11
22.3553
21
-63.3558
0
LINE
8
BLACK
6
CONTINUOUS
10
22.3553
20
-63.3558
11
22.3077
21
-63.3081
0
LINE
8
BLACK
6
CONTINUOUS
10
22.3077
20
-63.3081
11
22.2601
21
-63.2129
0
LINE
8
BLACK
6
CONTINUOUS
10
22.2601
20
-63.2129
11
22.2601
21
-62.9272
0
LINE
8
BLACK
6
CONTINUOUS
10
22.2601
20
-62.9272
11
22.3077
21
-62.832
0
LINE
8
BLACK
6
CONTINUOUS
10
22.3077
20
-62.832
11
22.3553
21
-62.7843
0
LINE
8
BLACK
6
CONTINUOUS
10
22.3553
20
-62.7843
11
22.4505
21
-62.7367
0
LINE
8
BLACK
6
CONTINUOUS
10
22.4505
20
-62.7367
11
22.5934
21
-62.7367
0
LINE
8
BLACK
6
CONTINUOUS
10
22.5934
20
-62.7367
11
22.6886
21
-62.7843
0
LINE
8
BLACK
6
CONTINUOUS
10
22.6886
20
-62.7843
11
22.7362
21
-62.832
0
LINE
8
BLACK
6
CONTINUOUS
10
22.7362
20
-62.832
11
22.7839
21
-62.9272
0
LINE
8
BLACK
6
CONTINUOUS
10
22.7839
20
-62.9272
11
22.7839
21
-63.2129
0
LINE
8
BLACK
6
CONTINUOUS
10
22.7839
20
-63.2129
11
22.7362
21
-63.3081
0
LINE
8
BLACK
6
CONTINUOUS
10
22.7362
20
-63.3081
11
22.6886
21
-63.3558
0
LINE
8
BLACK
6
CONTINUOUS
10
22.6886
20
-63.3558
11
22.5934
21
-63.4034
0
LINE
8
BLACK
6
CONTINUOUS
10
22.5934
20
-63.4034
11
22.4505
21
-63.4034
0
LINE
8
BLACK
6
CONTINUOUS
10
23.3553
20
-63.4034
11
23.2601
21
-63.3558
0
LINE
8
BLACK
6
CONTINUOUS
10
23.2601
20
-63.3558
11
23.2124
21
-63.2605
0
LINE
8
BLACK
6
CONTINUOUS
10
23.2124
20
-63.2605
11
23.2124
21
-62.4034
0
LINE
8
BLACK
6
CONTINUOUS
10
24.1172
20
-63.3558
11
24.022
21
-63.4034
0
LINE
8
BLACK
6
CONTINUOUS
10
24.022
20
-63.4034
11
23.8315
21
-63.4034
0
LINE
8
BLACK
6
CONTINUOUS
10
23.8315
20
-63.4034
11
23.7362
21
-63.3558
0
LINE
8
BLACK
6
CONTINUOUS
10
23.7362
20
-63.3558
11
23.6886
21
-63.2605
0
LINE
8
BLACK
6
CONTINUOUS
10
23.6886
20
-63.2605
11
23.6886
21
-62.8796
0
LINE
8
BLACK
6
CONTINUOUS
10
23.6886
20
-62.8796
11
23.7362
21
-62.7843
0
LINE
8
BLACK
6
CONTINUOUS
10
23.7362
20
-62.7843
11
23.8315
21
-62.7367
0
LINE
8
BLACK
6
CONTINUOUS
10
23.8315
20
-62.7367
11
24.022
21
-62.7367
0
LINE
8
BLACK
6
CONTINUOUS
10
24.022
20
-62.7367
11
24.1172
21
-62.7843
0
LINE
8
BLACK
6
CONTINUOUS
10
24.1172
20
-62.7843
11
24.1648
21
-62.8796
0
LINE
8
BLACK
6
CONTINUOUS
10
24.1648
20
-62.8796
11
24.1648
21
-62.9748
0
LINE
8
BLACK
6
CONTINUOUS
10
24.1648
20
-62.9748
11
23.6886
21
-63.07
0
LINE
8
BLACK
6
CONTINUOUS
10
24.3553
20
-63.4986
11
25.1172
21
-63.4986
0
LINE
8
BLACK
6
CONTINUOUS
10
25.3553
20
-63.4034
11
25.3553
21
-62.4034
0
LINE
8
BLACK
6
CONTINUOUS
10
25.3553
20
-62.4034
11
25.7362
21
-62.4034
0
LINE
8
BLACK
6
CONTINUOUS
10
25.7362
20
-62.4034
11
25.8315
21
-62.451
0
LINE
8
BLACK
6
CONTINUOUS
10
25.8315
20
-62.451
11
25.8791
21
-62.4986
0
LINE
8
BLACK
6
CONTINUOUS
10
25.8791
20
-62.4986
11
25.9267
21
-62.5939
0
LINE
8
BLACK
6
CONTINUOUS
10
25.9267
20
-62.5939
11
25.9267
21
-62.7367
0
LINE
8
BLACK
6
CONTINUOUS
10
25.9267
20
-62.7367
11
25.8791
21
-62.832
0
LINE
8
BLACK
6
CONTINUOUS
10
25.8791
20
-62.832
11
25.8315
21
-62.8796
0
LINE
8
BLACK
6
CONTINUOUS
10
25.8315
20
-62.8796
11
25.7362
21
-62.9272
0
LINE
8
BLACK
6
CONTINUOUS
10
25.7362
20
-62.9272
11
25.3553
21
-62.9272
0
LINE
8
BLACK
6
CONTINUOUS
10
26.7839
20
-63.4034
11
26.7839
21
-62.8796
0
LINE
8
BLACK
6
CONTINUOUS
10
26.7839
20
-62.8796
11
26.7362
21
-62.7843
0
LINE
8
BLACK
6
CONTINUOUS
10
26.7362
20
-62.7843
11
26.641
21
-62.7367
0
LINE
8
BLACK
6
CONTINUOUS
10
26.641
20
-62.7367
11
26.4505
21
-62.7367
0
LINE
8
BLACK
6
CONTINUOUS
10
26.4505
20
-62.7367
11
26.3553
21
-62.7843
0
LINE
8
BLACK
6
CONTINUOUS
10
26.7839
20
-63.3558
11
26.6886
21
-63.4034
0
LINE
8
BLACK
6
CONTINUOUS
10
26.6886
20
-63.4034
11
26.4505
21
-63.4034
0
LINE
8
BLACK
6
CONTINUOUS
10
26.4505
20
-63.4034
11
26.3553
21
-63.3558
0
LINE
8
BLACK
6
CONTINUOUS
10
26.3553
20
-63.3558
11
26.3077
21
-63.2605
0
LINE
8
BLACK
6
CONTINUOUS
10
26.3077
20
-63.2605
11
26.3077
21
-63.1653
0
LINE
8
BLACK
6
CONTINUOUS
10
26.3077
20
-63.1653
11
26.3553
21
-63.07
0
LINE
8
BLACK
6
CONTINUOUS
10
26.3553
20
-63.07
11
26.4505
21
-63.0224
0
LINE
8
BLACK
6
CONTINUOUS
10
26.4505
20
-63.0224
11
26.6886
21
-63.0224
0
LINE
8
BLACK
6
CONTINUOUS
10
26.6886
20
-63.0224
11
26.7839
21
-62.9748
0
LINE
8
BLACK
6
CONTINUOUS
10
27.6886
20
-63.4034
11
27.6886
21
-62.4034
0
LINE
8
BLACK
6
CONTINUOUS
10
27.6886
20
-63.3558
11
27.5934
21
-63.4034
0
LINE
8
BLACK
6
CONTINUOUS
10
27.5934
20
-63.4034
11
27.4029
21
-63.4034
0
LINE
8
BLACK
6
CONTINUOUS
10
27.4029
20
-63.4034
11
27.3077
21
-63.3558
0
LINE
8
BLACK
6
CONTINUOUS
10
27.3077
20
-63.3558
11
27.2601
21
-63.3081
0
LINE
8
BLACK
6
CONTINUOUS
10
27.2601
20
-63.3081
11
27.2124
21
-63.2129
0
LINE
8
BLACK
6
CONTINUOUS
10
27.2124
20
-63.2129
11
27.2124
21
-62.9272
0
LINE
8
BLACK
6
CONTINUOUS
10
27.2124
20
-62.9272
11
27.2601
21
-62.832
0
LINE
8
BLACK
6
CONTINUOUS
10
27.2601
20
-62.832
11
27.3077
21
-62.7843
0
LINE
8
BLACK
6
CONTINUOUS
10
27.3077
20
-62.7843
11
27.4029
21
-62.7367
0
LINE
8
BLACK
6
CONTINUOUS
10
27.4029
20
-62.7367
11
27.5934
21
-62.7367
0
LINE
8
BLACK
6
CONTINUOUS
10
27.5934
20
-62.7367
11
27.6886
21
-62.7843
0
LINE
8
BLACK
6
CONTINUOUS
10
19.8791
20
-59.7034
11
19.8791
21
-58.7034
0
LINE
8
BLACK
6
CONTINUOUS
10
19.8791
20
-59.1796
11
20.4505
21
-59.1796
0
LINE
8
BLACK
6
CONTINUOUS
10
20.4505
20
-59.7034
11
20.4505
21
-58.7034
0
LINE
8
BLACK
6
CONTINUOUS
10
21.4029
20
-58.7034
11
20.9267
21
-58.7034
0
LINE
8
BLACK
6
CONTINUOUS
10
20.9267
20
-58.7034
11
20.8791
21
-59.1796
0
LINE
8
BLACK
6
CONTINUOUS
10
20.8791
20
-59.1796
11
20.9267
21
-59.132
0
LINE
8
BLACK
6
CONTINUOUS
10
20.9267
20
-59.132
11
21.022
21
-59.0843
0
LINE
8
BLACK
6
CONTINUOUS
10
21.022
20
-59.0843
11
21.2601
21
-59.0843
0
LINE
8
BLACK
6
CONTINUOUS
10
21.2601
20
-59.0843
11
21.3553
21
-59.132
0
LINE
8
BLACK
6
CONTINUOUS
10
21.3553
20
-59.132
11
21.4029
21
-59.1796
0
LINE
8
BLACK
6
CONTINUOUS
10
21.4029
20
-59.1796
11
21.4505
21
-59.2748
0
LINE
8
BLACK
6
CONTINUOUS
10
21.4505
20
-59.2748
11
21.4505
21
-59.5129
0
LINE
8
BLACK
6
CONTINUOUS
10
21.4505
20
-59.5129
11
21.4029
21
-59.6081
0
LINE
8
BLACK
6
CONTINUOUS
10
21.4029
20
-59.6081
11
21.3553
21
-59.6558
0
LINE
8
BLACK
6
CONTINUOUS
10
21.3553
20
-59.6558
11
21.2601
21
-59.7034
0
LINE
8
BLACK
6
CONTINUOUS
10
21.2601
20
-59.7034
11
21.022
21
-59.7034
0
LINE
8
BLACK
6
CONTINUOUS
10
21.022
20
-59.7034
11
20.9267
21
-59.6558
0
LINE
8
BLACK
6
CONTINUOUS
10
20.9267
20
-59.6558
11
20.8791
21
-59.6081
0
LINE
8
BLACK
6
CONTINUOUS
10
22.4029
20
-59.7034
11
21.8315
21
-59.7034
0
LINE
8
BLACK
6
CONTINUOUS
10
22.1172
20
-59.7034
11
22.1172
21
-58.7034
0
LINE
8
BLACK
6
CONTINUOUS
10
22.1172
20
-58.7034
11
22.022
21
-58.8462
0
LINE
8
BLACK
6
CONTINUOUS
10
22.022
20
-58.8462
11
21.9267
21
-58.9415
0
LINE
8
BLACK
6
CONTINUOUS
10
21.9267
20
-58.9415
11
21.8315
21
-58.9891
0
LINE
8
BLACK
6
CONTINUOUS
10
323.58
20
-84.4239
11
323.58
21
-83.4239
0
LINE
8
BLACK
6
CONTINUOUS
10
323.58
20
-83.4239
11
323.913
21
-84.1382
0
LINE
8
BLACK
6
CONTINUOUS
10
323.913
20
-84.1382
11
324.246
21
-83.4239
0
LINE
8
BLACK
6
CONTINUOUS
10
324.246
20
-83.4239
11
324.246
21
-84.4239
0
LINE
8
BLACK
6
CONTINUOUS
10
324.865
20
-84.4239
11
324.77
21
-84.3763
0
LINE
8
BLACK
6
CONTINUOUS
10
324.77
20
-84.3763
11
324.723
21
-84.3286
0
LINE
8
BLACK
6
CONTINUOUS
10
324.723
20
-84.3286
11
324.675
21
-84.2334
0
LINE
8
BLACK
6
CONTINUOUS
10
324.675
20
-84.2334
11
324.675
21
-83.9477
0
LINE
8
BLACK
6
CONTINUOUS
10
324.675
20
-83.9477
11
324.723
21
-83.8525
0
LINE
8
BLACK
6
CONTINUOUS
10
324.723
20
-83.8525
11
324.77
21
-83.8048
0
LINE
8
BLACK
6
CONTINUOUS
10
324.77
20
-83.8048
11
324.865
21
-83.7572
0
LINE
8
BLACK
6
CONTINUOUS
10
324.865
20
-83.7572
11
325.008
21
-83.7572
0
LINE
8
BLACK
6
CONTINUOUS
10
325.008
20
-83.7572
11
325.103
21
-83.8048
0
LINE
8
BLACK
6
CONTINUOUS
10
325.103
20
-83.8048
11
325.151
21
-83.8525
0
LINE
8
BLACK
6
CONTINUOUS
10
325.151
20
-83.8525
11
325.199
21
-83.9477
0
LINE
8
BLACK
6
CONTINUOUS
10
325.199
20
-83.9477
11
325.199
21
-84.2334
0
LINE
8
BLACK
6
CONTINUOUS
10
325.199
20
-84.2334
11
325.151
21
-84.3286
0
LINE
8
BLACK
6
CONTINUOUS
10
325.151
20
-84.3286
11
325.103
21
-84.3763
0
LINE
8
BLACK
6
CONTINUOUS
10
325.103
20
-84.3763
11
325.008
21
-84.4239
0
LINE
8
BLACK
6
CONTINUOUS
10
325.008
20
-84.4239
11
324.865
21
-84.4239
0
LINE
8
BLACK
6
CONTINUOUS
10
326.056
20
-83.7572
11
326.056
21
-84.4239
0
LINE
8
BLACK
6
CONTINUOUS
10
325.627
20
-83.7572
11
325.627
21
-84.281
0
LINE
8
BLACK
6
CONTINUOUS
10
325.627
20
-84.281
11
325.675
21
-84.3763
0
LINE
8
BLACK
6
CONTINUOUS
10
325.675
20
-84.3763
11
325.77
21
-84.4239
0
LINE
8
BLACK
6
CONTINUOUS
10
325.77
20
-84.4239
11
325.913
21
-84.4239
0
LINE
8
BLACK
6
CONTINUOUS
10
325.913
20
-84.4239
11
326.008
21
-84.3763
0
LINE
8
BLACK
6
CONTINUOUS
10
326.008
20
-84.3763
11
326.056
21
-84.3286
0
LINE
8
BLACK
6
CONTINUOUS
10
326.532
20
-83.7572
11
326.532
21
-84.4239
0
LINE
8
BLACK
6
CONTINUOUS
10
326.532
20
-83.8525
11
326.58
21
-83.8048
0
LINE
8
BLACK
6
CONTINUOUS
10
326.58
20
-83.8048
11
326.675
21
-83.7572
0
LINE
8
BLACK
6
CONTINUOUS
10
326.675
20
-83.7572
11
326.818
21
-83.7572
0
LINE
8
BLACK
6
CONTINUOUS
10
326.818
20
-83.7572
11
326.913
21
-83.8048
0
LINE
8
BLACK
6
CONTINUOUS
10
326.913
20
-83.8048
11
326.961
21
-83.9001
0
LINE
8
BLACK
6
CONTINUOUS
10
326.961
20
-83.9001
11
326.961
21
-84.4239
0
LINE
8
BLACK
6
CONTINUOUS
10
327.294
20
-83.7572
11
327.675
21
-83.7572
0
LINE
8
BLACK
6
CONTINUOUS
10
327.437
20
-83.4239
11
327.437
21
-84.281
0
LINE
8
BLACK
6
CONTINUOUS
10
327.437
20
-84.281
11
327.484
21
-84.3763
0
LINE
8
BLACK
6
CONTINUOUS
10
327.484
20
-84.3763
11
327.58
21
-84.4239
0
LINE
8
BLACK
6
CONTINUOUS
10
327.58
20
-84.4239
11
327.675
21
-84.4239
0
LINE
8
BLACK
6
CONTINUOUS
10
328.008
20
-84.4239
11
328.008
21
-83.7572
0
LINE
8
BLACK
6
CONTINUOUS
10
328.008
20
-83.4239
11
327.961
21
-83.4715
0
LINE
8
BLACK
6
CONTINUOUS
10
327.961
20
-83.4715
11
328.008
21
-83.5191
0
LINE
8
BLACK
6
CONTINUOUS
10
328.008
20
-83.5191
11
328.056
21
-83.4715
0
LINE
8
BLACK
6
CONTINUOUS
10
328.056
20
-83.4715
11
328.008
21
-83.4239
0
LINE
8
BLACK
6
CONTINUOUS
10
328.008
20
-83.4239
11
328.008
21
-83.5191
0
LINE
8
BLACK
6
CONTINUOUS
10
328.484
20
-83.7572
11
328.484
21
-84.4239
0
LINE
8
BLACK
6
CONTINUOUS
10
328.484
20
-83.8525
11
328.532
21
-83.8048
0
LINE
8
BLACK
6
CONTINUOUS
10
328.532
20
-83.8048
11
328.627
21
-83.7572
0
LINE
8
BLACK
6
CONTINUOUS
10
328.627
20
-83.7572
11
328.77
21
-83.7572
0
LINE
8
BLACK
6
CONTINUOUS
10
328.77
20
-83.7572
11
328.865
21
-83.8048
0
LINE
8
BLACK
6
CONTINUOUS
10
328.865
20
-83.8048
11
328.913
21
-83.9001
0
LINE
8
BLACK
6
CONTINUOUS
10
328.913
20
-83.9001
11
328.913
21
-84.4239
0
LINE
8
BLACK
6
CONTINUOUS
10
329.818
20
-83.7572
11
329.818
21
-84.5667
0
LINE
8
BLACK
6
CONTINUOUS
10
329.818
20
-84.5667
11
329.77
21
-84.662
0
LINE
8
BLACK
6
CONTINUOUS
10
329.77
20
-84.662
11
329.723
21
-84.7096
0
LINE
8
BLACK
6
CONTINUOUS
10
329.723
20
-84.7096
11
329.627
21
-84.7572
0
LINE
8
BLACK
6
CONTINUOUS
10
329.627
20
-84.7572
11
329.484
21
-84.7572
0
LINE
8
BLACK
6
CONTINUOUS
10
329.484
20
-84.7572
11
329.389
21
-84.7096
0
LINE
8
BLACK
6
CONTINUOUS
10
329.818
20
-84.3763
11
329.723
21
-84.4239
0
LINE
8
BLACK
6
CONTINUOUS
10
329.723
20
-84.4239
11
329.532
21
-84.4239
0
LINE
8
BLACK
6
CONTINUOUS
10
329.532
20
-84.4239
11
329.437
21
-84.3763
0
LINE
8
BLACK
6
CONTINUOUS
10
329.437
20
-84.3763
11
329.389
21
-84.3286
0
LINE
8
BLACK
6
CONTINUOUS
10
329.389
20
-84.3286
11
329.342
21
-84.2334
0
LINE
8
BLACK
6
CONTINUOUS
10
329.342
20
-84.2334
11
329.342
21
-83.9477
0
LINE
8
BLACK
6
CONTINUOUS
10
329.342
20
-83.9477
11
329.389
21
-83.8525
0
LINE
8
BLACK
6
CONTINUOUS
10
329.389
20
-83.8525
11
329.437
21
-83.8048
0
LINE
8
BLACK
6
CONTINUOUS
10
329.437
20
-83.8048
11
329.532
21
-83.7572
0
LINE
8
BLACK
6
CONTINUOUS
10
329.532
20
-83.7572
11
329.723
21
-83.7572
0
LINE
8
BLACK
6
CONTINUOUS
10
329.723
20
-83.7572
11
329.818
21
-83.8048
0
LINE
8
BLACK
6
CONTINUOUS
10
330.294
20
-84.4239
11
330.294
21
-83.4239
0
LINE
8
BLACK
6
CONTINUOUS
10
330.294
20
-83.9001
11
330.865
21
-83.9001
0
LINE
8
BLACK
6
CONTINUOUS
10
330.865
20
-84.4239
11
330.865
21
-83.4239
0
LINE
8
BLACK
6
CONTINUOUS
10
331.484
20
-84.4239
11
331.389
21
-84.3763
0
LINE
8
BLACK
6
CONTINUOUS
10
331.389
20
-84.3763
11
331.342
21
-84.3286
0
LINE
8
BLACK
6
CONTINUOUS
10
331.342
20
-84.3286
11
331.294
21
-84.2334
0
LINE
8
BLACK
6
CONTINUOUS
10
331.294
20
-84.2334
11
331.294
21
-83.9477
0
LINE
8
BLACK
6
CONTINUOUS
10
331.294
20
-83.9477
11
331.342
21
-83.8525
0
LINE
8
BLACK
6
CONTINUOUS
10
331.342
20
-83.8525
11
331.389
21
-83.8048
0
LINE
8
BLACK
6
CONTINUOUS
10
331.389
20
-83.8048
11
331.484
21
-83.7572
0
LINE
8
BLACK
6
CONTINUOUS
10
331.484
20
-83.7572
11
331.627
21
-83.7572
0
LINE
8
BLACK
6
CONTINUOUS
10
331.627
20
-83.7572
11
331.723
21
-83.8048
0
LINE
8
BLACK
6
CONTINUOUS
10
331.723
20
-83.8048
11
331.77
21
-83.8525
0
LINE
8
BLACK
6
CONTINUOUS
10
331.77
20
-83.8525
11
331.818
21
-83.9477
0
LINE
8
BLACK
6
CONTINUOUS
10
331.818
20
-83.9477
11
331.818
21
-84.2334
0
LINE
8
BLACK
6
CONTINUOUS
10
331.818
20
-84.2334
11
331.77
21
-84.3286
0
LINE
8
BLACK
6
CONTINUOUS
10
331.77
20
-84.3286
11
331.723
21
-84.3763
0
LINE
8
BLACK
6
CONTINUOUS
10
331.723
20
-84.3763
11
331.627
21
-84.4239
0
LINE
8
BLACK
6
CONTINUOUS
10
331.627
20
-84.4239
11
331.484
21
-84.4239
0
LINE
8
BLACK
6
CONTINUOUS
10
332.389
20
-84.4239
11
332.294
21
-84.3763
0
LINE
8
BLACK
6
CONTINUOUS
10
332.294
20
-84.3763
11
332.246
21
-84.281
0
LINE
8
BLACK
6
CONTINUOUS
10
332.246
20
-84.281
11
332.246
21
-83.4239
0
LINE
8
BLACK
6
CONTINUOUS
10
333.151
20
-84.3763
11
333.056
21
-84.4239
0
LINE
8
BLACK
6
CONTINUOUS
10
333.056
20
-84.4239
11
332.865
21
-84.4239
0
LINE
8
BLACK
6
CONTINUOUS
10
332.865
20
-84.4239
11
332.77
21
-84.3763
0
LINE
8
BLACK
6
CONTINUOUS
10
332.77
20
-84.3763
11
332.723
21
-84.281
0
LINE
8
BLACK
6
CONTINUOUS
10
332.723
20
-84.281
11
332.723
21
-83.9001
0
LINE
8
BLACK
6
CONTINUOUS
10
332.723
20
-83.9001
11
332.77
21
-83.8048
0
LINE
8
BLACK
6
CONTINUOUS
10
332.77
20
-83.8048
11
332.865
21
-83.7572
0
LINE
8
BLACK
6
CONTINUOUS
10
332.865
20
-83.7572
11
333.056
21
-83.7572
0
LINE
8
BLACK
6
CONTINUOUS
10
333.056
20
-83.7572
11
333.151
21
-83.8048
0
LINE
8
BLACK
6
CONTINUOUS
10
333.151
20
-83.8048
11
333.199
21
-83.9001
0
LINE
8
BLACK
6
CONTINUOUS
10
333.199
20
-83.9001
11
333.199
21
-83.9953
0
LINE
8
BLACK
6
CONTINUOUS
10
333.199
20
-83.9953
11
332.723
21
-84.0905
0
LINE
8
BLACK
6
CONTINUOUS
10
333.389
20
-84.5191
11
334.151
21
-84.5191
0
LINE
8
BLACK
6
CONTINUOUS
10
334.389
20
-84.4239
11
334.389
21
-83.4239
0
LINE
8
BLACK
6
CONTINUOUS
10
334.389
20
-83.4239
11
334.77
21
-83.4239
0
LINE
8
BLACK
6
CONTINUOUS
10
334.77
20
-83.4239
11
334.865
21
-83.4715
0
LINE
8
BLACK
6
CONTINUOUS
10
334.865
20
-83.4715
11
334.913
21
-83.5191
0
LINE
8
BLACK
6
CONTINUOUS
10
334.913
20
-83.5191
11
334.961
21
-83.6144
0
LINE
8
BLACK
6
CONTINUOUS
10
334.961
20
-83.6144
11
334.961
21
-83.7572
0
LINE
8
BLACK
6
CONTINUOUS
10
334.961
20
-83.7572
11
334.913
21
-83.8525
0
LINE
8
BLACK
6
CONTINUOUS
10
334.913
20
-83.8525
11
334.865
21
-83.9001
0
LINE
8
BLACK
6
CONTINUOUS
10
334.865
20
-83.9001
11
334.77
21
-83.9477
0
LINE
8
BLACK
6
CONTINUOUS
10
334.77
20
-83.9477
11
334.389
21
-83.9477
0
LINE
8
BLACK
6
CONTINUOUS
10
335.818
20
-84.4239
11
335.818
21
-83.9001
0
LINE
8
BLACK
6
CONTINUOUS
10
335.818
20
-83.9001
11
335.77
21
-83.8048
0
LINE
8
BLACK
6
CONTINUOUS
10
335.77
20
-83.8048
11
335.675
21
-83.7572
0
LINE
8
BLACK
6
CONTINUOUS
10
335.675
20
-83.7572
11
335.484
21
-83.7572
0
LINE
8
BLACK
6
CONTINUOUS
10
335.484
20
-83.7572
11
335.389
21
-83.8048
0
LINE
8
BLACK
6
CONTINUOUS
10
335.818
20
-84.3763
11
335.723
21
-84.4239
0
LINE
8
BLACK
6
CONTINUOUS
10
335.723
20
-84.4239
11
335.484
21
-84.4239
0
LINE
8
BLACK
6
CONTINUOUS
10
335.484
20
-84.4239
11
335.389
21
-84.3763
0
LINE
8
BLACK
6
CONTINUOUS
10
335.389
20
-84.3763
11
335.342
21
-84.281
0
LINE
8
BLACK
6
CONTINUOUS
10
335.342
20
-84.281
11
335.342
21
-84.1858
0
LINE
8
BLACK
6
CONTINUOUS
10
335.342
20
-84.1858
11
335.389
21
-84.0905
0
LINE
8
BLACK
6
CONTINUOUS
10
335.389
20
-84.0905
11
335.484
21
-84.0429
0
LINE
8
BLACK
6
CONTINUOUS
10
335.484
20
-84.0429
11
335.723
21
-84.0429
0
LINE
8
BLACK
6
CONTINUOUS
10
335.723
20
-84.0429
11
335.818
21
-83.9953
0
LINE
8
BLACK
6
CONTINUOUS
10
336.723
20
-84.4239
11
336.723
21
-83.4239
0
LINE
8
BLACK
6
CONTINUOUS
10
336.723
20
-84.3763
11
336.627
21
-84.4239
0
LINE
8
BLACK
6
CONTINUOUS
10
336.627
20
-84.4239
11
336.437
21
-84.4239
0
LINE
8
BLACK
6
CONTINUOUS
10
336.437
20
-84.4239
11
336.342
21
-84.3763
0
LINE
8
BLACK
6
CONTINUOUS
10
336.342
20
-84.3763
11
336.294
21
-84.3286
0
LINE
8
BLACK
6
CONTINUOUS
10
336.294
20
-84.3286
11
336.246
21
-84.2334
0
LINE
8
BLACK
6
CONTINUOUS
10
336.246
20
-84.2334
11
336.246
21
-83.9477
0
LINE
8
BLACK
6
CONTINUOUS
10
336.246
20
-83.9477
11
336.294
21
-83.8525
0
LINE
8
BLACK
6
CONTINUOUS
10
336.294
20
-83.8525
11
336.342
21
-83.8048
0
LINE
8
BLACK
6
CONTINUOUS
10
336.342
20
-83.8048
11
336.437
21
-83.7572
0
LINE
8
BLACK
6
CONTINUOUS
10
336.437
20
-83.7572
11
336.627
21
-83.7572
0
LINE
8
BLACK
6
CONTINUOUS
10
336.627
20
-83.7572
11
336.723
21
-83.8048
0
LINE
8
BLACK
6
CONTINUOUS
10
328.913
20
-80.7239
11
328.913
21
-79.7239
0
LINE
8
BLACK
6
CONTINUOUS
10
328.913
20
-80.2001
11
329.484
21
-80.2001
0
LINE
8
BLACK
6
CONTINUOUS
10
329.484
20
-80.7239
11
329.484
21
-79.7239
0
LINE
8
BLACK
6
CONTINUOUS
10
330.437
20
-79.7239
11
329.961
21
-79.7239
0
LINE
8
BLACK
6
CONTINUOUS
10
329.961
20
-79.7239
11
329.913
21
-80.2001
0
LINE
8
BLACK
6
CONTINUOUS
10
329.913
20
-80.2001
11
329.961
21
-80.1525
0
LINE
8
BLACK
6
CONTINUOUS
10
329.961
20
-80.1525
11
330.056
21
-80.1048
0
LINE
8
BLACK
6
CONTINUOUS
10
330.056
20
-80.1048
11
330.294
21
-80.1048
0
LINE
8
BLACK
6
CONTINUOUS
10
330.294
20
-80.1048
11
330.389
21
-80.1525
0
LINE
8
BLACK
6
CONTINUOUS
10
330.389
20
-80.1525
11
330.437
21
-80.2001
0
LINE
8
BLACK
6
CONTINUOUS
10
330.437
20
-80.2001
11
330.484
21
-80.2953
0
LINE
8
BLACK
6
CONTINUOUS
10
330.484
20
-80.2953
11
330.484
21
-80.5334
0
LINE
8
BLACK
6
CONTINUOUS
10
330.484
20
-80.5334
11
330.437
21
-80.6286
0
LINE
8
BLACK
6
CONTINUOUS
10
330.437
20
-80.6286
11
330.389
21
-80.6763
0
LINE
8
BLACK
6
CONTINUOUS
10
330.389
20
-80.6763
11
330.294
21
-80.7239
0
LINE
8
BLACK
6
CONTINUOUS
10
330.294
20
-80.7239
11
330.056
21
-80.7239
0
LINE
8
BLACK
6
CONTINUOUS
10
330.056
20
-80.7239
11
329.961
21
-80.6763
0
LINE
8
BLACK
6
CONTINUOUS
10
329.961
20
-80.6763
11
329.913
21
-80.6286
0
LINE
8
BLACK
6
CONTINUOUS
10
331.056
20
-80.1525
11
330.961
21
-80.1048
0
LINE
8
BLACK
6
CONTINUOUS
10
330.961
20
-80.1048
11
330.913
21
-80.0572
0
LINE
8
BLACK
6
CONTINUOUS
10
330.913
20
-80.0572
11
330.865
21
-79.962
0
LINE
8
BLACK
6
CONTINUOUS
10
330.865
20
-79.962
11
330.865
21
-79.9144
0
LINE
8
BLACK
6
CONTINUOUS
10
330.865
20
-79.9144
11
330.913
21
-79.8191
0
LINE
8
BLACK
6
CONTINUOUS
10
330.913
20
-79.8191
11
330.961
21
-79.7715
0
LINE
8
BLACK
6
CONTINUOUS
10
330.961
20
-79.7715
11
331.056
21
-79.7239
0
LINE
8
BLACK
6
CONTINUOUS
10
331.056
20
-79.7239
11
331.246
21
-79.7239
0
LINE
8
BLACK
6
CONTINUOUS
10
331.246
20
-79.7239
11
331.342
21
-79.7715
0
LINE
8
BLACK
6
CONTINUOUS
10
331.342
20
-79.7715
11
331.389
21
-79.8191
0
LINE
8
BLACK
6
CONTINUOUS
10
331.389
20
-79.8191
11
331.437
21
-79.9144
0
LINE
8
BLACK
6
CONTINUOUS
10
331.437
20
-79.9144
11
331.437
21
-79.962
0
LINE
8
BLACK
6
CONTINUOUS
10
331.437
20
-79.962
11
331.389
21
-80.0572
0
LINE
8
BLACK
6
CONTINUOUS
10
331.389
20
-80.0572
11
331.342
21
-80.1048
0
LINE
8
BLACK
6
CONTINUOUS
10
331.342
20
-80.1048
11
331.246
21
-80.1525
0
LINE
8
BLACK
6
CONTINUOUS
10
331.246
20
-80.1525
11
331.056
21
-80.1525
0
LINE
8
BLACK
6
CONTINUOUS
10
331.056
20
-80.1525
11
330.961
21
-80.2001
0
LINE
8
BLACK
6
CONTINUOUS
10
330.961
20
-80.2001
11
330.913
21
-80.2477
0
LINE
8
BLACK
6
CONTINUOUS
10
330.913
20
-80.2477
11
330.865
21
-80.3429
0
LINE
8
BLACK
6
CONTINUOUS
10
330.865
20
-80.3429
11
330.865
21
-80.5334
0
LINE
8
BLACK
6
CONTINUOUS
10
330.865
20
-80.5334
11
330.913
21
-80.6286
0
LINE
8
BLACK
6
CONTINUOUS
10
330.913
20
-80.6286
11
330.961
21
-80.6763
0
LINE
8
BLACK
6
CONTINUOUS
10
330.961
20
-80.6763
11
331.056
21
-80.7239
0
LINE
8
BLACK
6
CONTINUOUS
10
331.056
20
-80.7239
11
331.246
21
-80.7239
0
LINE
8
BLACK
6
CONTINUOUS
10
331.246
20
-80.7239
11
331.342
21
-80.6763
0
LINE
8
BLACK
6
CONTINUOUS
10
331.342
20
-80.6763
11
331.389
21
-80.6286
0
LINE
8
BLACK
6
CONTINUOUS
10
331.389
20
-80.6286
11
331.437
21
-80.5334
0
LINE
8
BLACK
6
CONTINUOUS
10
331.437
20
-80.5334
11
331.437
21
-80.3429
0
LINE
8
BLACK
6
CONTINUOUS
10
331.437
20
-80.3429
11
331.389
21
-80.2477
0
LINE
8
BLACK
6
CONTINUOUS
10
331.389
20
-80.2477
11
331.342
21
-80.2001
0
LINE
8
BLACK
6
CONTINUOUS
10
331.342
20
-80.2001
11
331.246
21
-80.1525
0
LINE
8
BLACK
6
CONTINUOUS
10
24.5407
20
-83.6531
11
24.5407
21
-82.6531
0
LINE
8
BLACK
6
CONTINUOUS
10
24.5407
20
-82.6531
11
24.874
21
-83.3674
0
LINE
8
BLACK
6
CONTINUOUS
10
24.874
20
-83.3674
11
25.2073
21
-82.6531
0
LINE
8
BLACK
6
CONTINUOUS
10
25.2073
20
-82.6531
11
25.2073
21
-83.6531
0
LINE
8
BLACK
6
CONTINUOUS
10
25.8264
20
-83.6531
11
25.7311
21
-83.6055
0
LINE
8
BLACK
6
CONTINUOUS
10
25.7311
20
-83.6055
11
25.6835
21
-83.5578
0
LINE
8
BLACK
6
CONTINUOUS
10
25.6835
20
-83.5578
11
25.6359
21
-83.4626
0
LINE
8
BLACK
6
CONTINUOUS
10
25.6359
20
-83.4626
11
25.6359
21
-83.1769
0
LINE
8
BLACK
6
CONTINUOUS
10
25.6359
20
-83.1769
11
25.6835
21
-83.0817
0
LINE
8
BLACK
6
CONTINUOUS
10
25.6835
20
-83.0817
11
25.7311
21
-83.034
0
LINE
8
BLACK
6
CONTINUOUS
10
25.7311
20
-83.034
11
25.8264
21
-82.9864
0
LINE
8
BLACK
6
CONTINUOUS
10
25.8264
20
-82.9864
11
25.9692
21
-82.9864
0
LINE
8
BLACK
6
CONTINUOUS
10
25.9692
20
-82.9864
11
26.0645
21
-83.034
0
LINE
8
BLACK
6
CONTINUOUS
10
26.0645
20
-83.034
11
26.1121
21
-83.0817
0
LINE
8
BLACK
6
CONTINUOUS
10
26.1121
20
-83.0817
11
26.1597
21
-83.1769
0
LINE
8
BLACK
6
CONTINUOUS
10
26.1597
20
-83.1769
11
26.1597
21
-83.4626
0
LINE
8
BLACK
6
CONTINUOUS
10
26.1597
20
-83.4626
11
26.1121
21
-83.5578
0
LINE
8
BLACK
6
CONTINUOUS
10
26.1121
20
-83.5578
11
26.0645
21
-83.6055
0
LINE
8
BLACK
6
CONTINUOUS
10
26.0645
20
-83.6055
11
25.9692
21
-83.6531
0
LINE
8
BLACK
6
CONTINUOUS
10
25.9692
20
-83.6531
11
25.8264
21
-83.6531
0
LINE
8
BLACK
6
CONTINUOUS
10
27.0169
20
-82.9864
11
27.0169
21
-83.6531
0
LINE
8
BLACK
6
CONTINUOUS
10
26.5883
20
-82.9864
11
26.5883
21
-83.5102
0
LINE
8
BLACK
6
CONTINUOUS
10
26.5883
20
-83.5102
11
26.6359
21
-83.6055
0
LINE
8
BLACK
6
CONTINUOUS
10
26.6359
20
-83.6055
11
26.7311
21
-83.6531
0
LINE
8
BLACK
6
CONTINUOUS
10
26.7311
20
-83.6531
11
26.874
21
-83.6531
0
LINE
8
BLACK
6
CONTINUOUS
10
26.874
20
-83.6531
11
26.9692
21
-83.6055
0
LINE
8
BLACK
6
CONTINUOUS
10
26.9692
20
-83.6055
11
27.0169
21
-83.5578
0
LINE
8
BLACK
6
CONTINUOUS
10
27.4931
20
-82.9864
11
27.4931
21
-83.6531
0
LINE
8
BLACK
6
CONTINUOUS
10
27.4931
20
-83.0817
11
27.5407
21
-83.034
0
LINE
8
BLACK
6
CONTINUOUS
10
27.5407
20
-83.034
11
27.6359
21
-82.9864
0
LINE
8
BLACK
6
CONTINUOUS
10
27.6359
20
-82.9864
11
27.7788
21
-82.9864
0
LINE
8
BLACK
6
CONTINUOUS
10
27.7788
20
-82.9864
11
27.874
21
-83.034
0
LINE
8
BLACK
6
CONTINUOUS
10
27.874
20
-83.034
11
27.9216
21
-83.1293
0
LINE
8
BLACK
6
CONTINUOUS
10
27.9216
20
-83.1293
11
27.9216
21
-83.6531
0
LINE
8
BLACK
6
CONTINUOUS
10
28.255
20
-82.9864
11
28.6359
21
-82.9864
0
LINE
8
BLACK
6
CONTINUOUS
10
28.3978
20
-82.6531
11
28.3978
21
-83.5102
0
LINE
8
BLACK
6
CONTINUOUS
10
28.3978
20
-83.5102
11
28.4454
21
-83.6055
0
LINE
8
BLACK
6
CONTINUOUS
10
28.4454
20
-83.6055
11
28.5407
21
-83.6531
0
LINE
8
BLACK
6
CONTINUOUS
10
28.5407
20
-83.6531
11
28.6359
21
-83.6531
0
LINE
8
BLACK
6
CONTINUOUS
10
28.9692
20
-83.6531
11
28.9692
21
-82.9864
0
LINE
8
BLACK
6
CONTINUOUS
10
28.9692
20
-82.6531
11
28.9216
21
-82.7007
0
LINE
8
BLACK
6
CONTINUOUS
10
28.9216
20
-82.7007
11
28.9692
21
-82.7483
0
LINE
8
BLACK
6
CONTINUOUS
10
28.9692
20
-82.7483
11
29.0169
21
-82.7007
0
LINE
8
BLACK
6
CONTINUOUS
10
29.0169
20
-82.7007
11
28.9692
21
-82.6531
0
LINE
8
BLACK
6
CONTINUOUS
10
28.9692
20
-82.6531
11
28.9692
21
-82.7483
0
LINE
8
BLACK
6
CONTINUOUS
10
29.4454
20
-82.9864
11
29.4454
21
-83.6531
0
LINE
8
BLACK
6
CONTINUOUS
10
29.4454
20
-83.0817
11
29.4931
21
-83.034
0
LINE
8
BLACK
6
CONTINUOUS
10
29.4931
20
-83.034
11
29.5883
21
-82.9864
0
LINE
8
BLACK
6
CONTINUOUS
10
29.5883
20
-82.9864
11
29.7311
21
-82.9864
0
LINE
8
BLACK
6
CONTINUOUS
10
29.7311
20
-82.9864
11
29.8264
21
-83.034
0
LINE
8
BLACK
6
CONTINUOUS
10
29.8264
20
-83.034
11
29.874
21
-83.1293
0
LINE
8
BLACK
6
CONTINUOUS
10
29.874
20
-83.1293
11
29.874
21
-83.6531
0
LINE
8
BLACK
6
CONTINUOUS
10
30.7788
20
-82.9864
11
30.7788
21
-83.7959
0
LINE
8
BLACK
6
CONTINUOUS
10
30.7788
20
-83.7959
11
30.7311
21
-83.8912
0
LINE
8
BLACK
6
CONTINUOUS
10
30.7311
20
-83.8912
11
30.6835
21
-83.9388
0
LINE
8
BLACK
6
CONTINUOUS
10
30.6835
20
-83.9388
11
30.5883
21
-83.9864
0
LINE
8
BLACK
6
CONTINUOUS
10
30.5883
20
-83.9864
11
30.4454
21
-83.9864
0
LINE
8
BLACK
6
CONTINUOUS
10
30.4454
20
-83.9864
11
30.3502
21
-83.9388
0
LINE
8
BLACK
6
CONTINUOUS
10
30.7788
20
-83.6055
11
30.6835
21
-83.6531
0
LINE
8
BLACK
6
CONTINUOUS
10
30.6835
20
-83.6531
11
30.4931
21
-83.6531
0
LINE
8
BLACK
6
CONTINUOUS
10
30.4931
20
-83.6531
11
30.3978
21
-83.6055
0
LINE
8
BLACK
6
CONTINUOUS
10
30.3978
20
-83.6055
11
30.3502
21
-83.5578
0
LINE
8
BLACK
6
CONTINUOUS
10
30.3502
20
-83.5578
11
30.3026
21
-83.4626
0
LINE
8
BLACK
6
CONTINUOUS
10
30.3026
20
-83.4626
11
30.3026
21
-83.1769
0
LINE
8
BLACK
6
CONTINUOUS
10
30.3026
20
-83.1769
11
30.3502
21
-83.0817
0
LINE
8
BLACK
6
CONTINUOUS
10
30.3502
20
-83.0817
11
30.3978
21
-83.034
0
LINE
8
BLACK
6
CONTINUOUS
10
30.3978
20
-83.034
11
30.4931
21
-82.9864
0
LINE
8
BLACK
6
CONTINUOUS
10
30.4931
20
-82.9864
11
30.6835
21
-82.9864
0
LINE
8
BLACK
6
CONTINUOUS
10
30.6835
20
-82.9864
11
30.7788
21
-83.034
0
LINE
8
BLACK
6
CONTINUOUS
10
31.255
20
-83.6531
11
31.255
21
-82.6531
0
LINE
8
BLACK
6
CONTINUOUS
10
31.255
20
-83.1293
11
31.8264
21
-83.1293
0
LINE
8
BLACK
6
CONTINUOUS
10
31.8264
20
-83.6531
11
31.8264
21
-82.6531
0
LINE
8
BLACK
6
CONTINUOUS
10
32.4454
20
-83.6531
11
32.3502
21
-83.6055
0
LINE
8
BLACK
6
CONTINUOUS
10
32.3502
20
-83.6055
11
32.3026
21
-83.5578
0
LINE
8
BLACK
6
CONTINUOUS
10
32.3026
20
-83.5578
11
32.255
21
-83.4626
0
LINE
8
BLACK
6
CONTINUOUS
10
32.255
20
-83.4626
11
32.255
21
-83.1769
0
LINE
8
BLACK
6
CONTINUOUS
10
32.255
20
-83.1769
11
32.3026
21
-83.0817
0
LINE
8
BLACK
6
CONTINUOUS
10
32.3026
20
-83.0817
11
32.3502
21
-83.034
0
LINE
8
BLACK
6
CONTINUOUS
10
32.3502
20
-83.034
11
32.4454
21
-82.9864
0
LINE
8
BLACK
6
CONTINUOUS
10
32.4454
20
-82.9864
11
32.5883
21
-82.9864
0
LINE
8
BLACK
6
CONTINUOUS
10
32.5883
20
-82.9864
11
32.6835
21
-83.034
0
LINE
8
BLACK
6
CONTINUOUS
10
32.6835
20
-83.034
11
32.7311
21
-83.0817
0
LINE
8
BLACK
6
CONTINUOUS
10
32.7311
20
-83.0817
11
32.7788
21
-83.1769
0
LINE
8
BLACK
6
CONTINUOUS
10
32.7788
20
-83.1769
11
32.7788
21
-83.4626
0
LINE
8
BLACK
6
CONTINUOUS
10
32.7788
20
-83.4626
11
32.7311
21
-83.5578
0
LINE
8
BLACK
6
CONTINUOUS
10
32.7311
20
-83.5578
11
32.6835
21
-83.6055
0
LINE
8
BLACK
6
CONTINUOUS
10
32.6835
20
-83.6055
11
32.5883
21
-83.6531
0
LINE
8
BLACK
6
CONTINUOUS
10
32.5883
20
-83.6531
11
32.4454
21
-83.6531
0
LINE
8
BLACK
6
CONTINUOUS
10
33.3502
20
-83.6531
11
33.255
21
-83.6055
0
LINE
8
BLACK
6
CONTINUOUS
10
33.255
20
-83.6055
11
33.2073
21
-83.5102
0
LINE
8
BLACK
6
CONTINUOUS
10
33.2073
20
-83.5102
11
33.2073
21
-82.6531
0
LINE
8
BLACK
6
CONTINUOUS
10
34.1121
20
-83.6055
11
34.0169
21
-83.6531
0
LINE
8
BLACK
6
CONTINUOUS
10
34.0169
20
-83.6531
11
33.8264
21
-83.6531
0
LINE
8
BLACK
6
CONTINUOUS
10
33.8264
20
-83.6531
11
33.7311
21
-83.6055
0
LINE
8
BLACK
6
CONTINUOUS
10
33.7311
20
-83.6055
11
33.6835
21
-83.5102
0
LINE
8
BLACK
6
CONTINUOUS
10
33.6835
20
-83.5102
11
33.6835
21
-83.1293
0
LINE
8
BLACK
6
CONTINUOUS
10
33.6835
20
-83.1293
11
33.7311
21
-83.034
0
LINE
8
BLACK
6
CONTINUOUS
10
33.7311
20
-83.034
11
33.8264
21
-82.9864
0
LINE
8
BLACK
6
CONTINUOUS
10
33.8264
20
-82.9864
11
34.0169
21
-82.9864
0
LINE
8
BLACK
6
CONTINUOUS
10
34.0169
20
-82.9864
11
34.1121
21
-83.034
0
LINE
8
BLACK
6
CONTINUOUS
10
34.1121
20
-83.034
11
34.1597
21
-83.1293
0
LINE
8
BLACK
6
CONTINUOUS
10
34.1597
20
-83.1293
11
34.1597
21
-83.2245
0
LINE
8
BLACK
6
CONTINUOUS
10
34.1597
20
-83.2245
11
33.6835
21
-83.3197
0
LINE
8
BLACK
6
CONTINUOUS
10
34.3502
20
-83.7483
11
35.1121
21
-83.7483
0
LINE
8
BLACK
6
CONTINUOUS
10
35.3502
20
-83.6531
11
35.3502
21
-82.6531
0
LINE
8
BLACK
6
CONTINUOUS
10
35.3502
20
-82.6531
11
35.7311
21
-82.6531
0
LINE
8
BLACK
6
CONTINUOUS
10
35.7311
20
-82.6531
11
35.8264
21
-82.7007
0
LINE
8
BLACK
6
CONTINUOUS
10
35.8264
20
-82.7007
11
35.874
21
-82.7483
0
LINE
8
BLACK
6
CONTINUOUS
10
35.874
20
-82.7483
11
35.9216
21
-82.8436
0
LINE
8
BLACK
6
CONTINUOUS
10
35.9216
20
-82.8436
11
35.9216
21
-82.9864
0
LINE
8
BLACK
6
CONTINUOUS
10
35.9216
20
-82.9864
11
35.874
21
-83.0817
0
LINE
8
BLACK
6
CONTINUOUS
10
35.874
20
-83.0817
11
35.8264
21
-83.1293
0
LINE
8
BLACK
6
CONTINUOUS
10
35.8264
20
-83.1293
11
35.7311
21
-83.1769
0
LINE
8
BLACK
6
CONTINUOUS
10
35.7311
20
-83.1769
11
35.3502
21
-83.1769
0
LINE
8
BLACK
6
CONTINUOUS
10
36.7788
20
-83.6531
11
36.7788
21
-83.1293
0
LINE
8
BLACK
6
CONTINUOUS
10
36.7788
20
-83.1293
11
36.7311
21
-83.034
0
LINE
8
BLACK
6
CONTINUOUS
10
36.7311
20
-83.034
11
36.6359
21
-82.9864
0
LINE
8
BLACK
6
CONTINUOUS
10
36.6359
20
-82.9864
11
36.4454
21
-82.9864
0
LINE
8
BLACK
6
CONTINUOUS
10
36.4454
20
-82.9864
11
36.3502
21
-83.034
0
LINE
8
BLACK
6
CONTINUOUS
10
36.7788
20
-83.6055
11
36.6835
21
-83.6531
0
LINE
8
BLACK
6
CONTINUOUS
10
36.6835
20
-83.6531
11
36.4454
21
-83.6531
0
LINE
8
BLACK
6
CONTINUOUS
10
36.4454
20
-83.6531
11
36.3502
21
-83.6055
0
LINE
8
BLACK
6
CONTINUOUS
10
36.3502
20
-83.6055
11
36.3026
21
-83.5102
0
LINE
8
BLACK
6
CONTINUOUS
10
36.3026
20
-83.5102
11
36.3026
21
-83.415
0
LINE
8
BLACK
6
CONTINUOUS
10
36.3026
20
-83.415
11
36.3502
21
-83.3197
0
LINE
8
BLACK
6
CONTINUOUS
10
36.3502
20
-83.3197
11
36.4454
21
-83.2721
0
LINE
8
BLACK
6
CONTINUOUS
10
36.4454
20
-83.2721
11
36.6835
21
-83.2721
0
LINE
8
BLACK
6
CONTINUOUS
10
36.6835
20
-83.2721
11
36.7788
21
-83.2245
0
LINE
8
BLACK
6
CONTINUOUS
10
37.6835
20
-83.6531
11
37.6835
21
-82.6531
0
LINE
8
BLACK
6
CONTINUOUS
10
37.6835
20
-83.6055
11
37.5883
21
-83.6531
0
LINE
8
BLACK
6
CONTINUOUS
10
37.5883
20
-83.6531
11
37.3978
21
-83.6531
0
LINE
8
BLACK
6
CONTINUOUS
10
37.3978
20
-83.6531
11
37.3026
21
-83.6055
0
LINE
8
BLACK
6
CONTINUOUS
10
37.3026
20
-83.6055
11
37.255
21
-83.5578
0
LINE
8
BLACK
6
CONTINUOUS
10
37.255
20
-83.5578
11
37.2073
21
-83.4626
0
LINE
8
BLACK
6
CONTINUOUS
10
37.2073
20
-83.4626
11
37.2073
21
-83.1769
0
LINE
8
BLACK
6
CONTINUOUS
10
37.2073
20
-83.1769
11
37.255
21
-83.0817
0
LINE
8
BLACK
6
CONTINUOUS
10
37.255
20
-83.0817
11
37.3026
21
-83.034
0
LINE
8
BLACK
6
CONTINUOUS
10
37.3026
20
-83.034
11
37.3978
21
-82.9864
0
LINE
8
BLACK
6
CONTINUOUS
10
37.3978
20
-82.9864
11
37.5883
21
-82.9864
0
LINE
8
BLACK
6
CONTINUOUS
10
37.5883
20
-82.9864
11
37.6835
21
-83.034
0
LINE
8
BLACK
6
CONTINUOUS
10
29.874
20
-79.9531
11
29.874
21
-78.9531
0
LINE
8
BLACK
6
CONTINUOUS
10
29.874
20
-79.4293
11
30.4454
21
-79.4293
0
LINE
8
BLACK
6
CONTINUOUS
10
30.4454
20
-79.9531
11
30.4454
21
-78.9531
0
LINE
8
BLACK
6
CONTINUOUS
10
31.3978
20
-78.9531
11
30.9216
21
-78.9531
0
LINE
8
BLACK
6
CONTINUOUS
10
30.9216
20
-78.9531
11
30.874
21
-79.4293
0
LINE
8
BLACK
6
CONTINUOUS
10
30.874
20
-79.4293
11
30.9216
21
-79.3817
0
LINE
8
BLACK
6
CONTINUOUS
10
30.9216
20
-79.3817
11
31.0169
21
-79.334
0
LINE
8
BLACK
6
CONTINUOUS
10
31.0169
20
-79.334
11
31.255
21
-79.334
0
LINE
8
BLACK
6
CONTINUOUS
10
31.255
20
-79.334
11
31.3502
21
-79.3817
0
LINE
8
BLACK
6
CONTINUOUS
10
31.3502
20
-79.3817
11
31.3978
21
-79.4293
0
LINE
8
BLACK
6
CONTINUOUS
10
31.3978
20
-79.4293
11
31.4454
21
-79.5245
0
LINE
8
BLACK
6
CONTINUOUS
10
31.4454
20
-79.5245
11
31.4454
21
-79.7626
0
LINE
8
BLACK
6
CONTINUOUS
10
31.4454
20
-79.7626
11
31.3978
21
-79.8578
0
LINE
8
BLACK
6
CONTINUOUS
10
31.3978
20
-79.8578
11
31.3502
21
-79.9055
0
LINE
8
BLACK
6
CONTINUOUS
10
31.3502
20
-79.9055
11
31.255
21
-79.9531
0
LINE
8
BLACK
6
CONTINUOUS
10
31.255
20
-79.9531
11
31.0169
21
-79.9531
0
LINE
8
BLACK
6
CONTINUOUS
10
31.0169
20
-79.9531
11
30.9216
21
-79.9055
0
LINE
8
BLACK
6
CONTINUOUS
10
30.9216
20
-79.9055
11
30.874
21
-79.8578
0
LINE
8
BLACK
6
CONTINUOUS
10
31.8264
20
-79.0483
11
31.874
21
-79.0007
0
LINE
8
BLACK
6
CONTINUOUS
10
31.874
20
-79.0007
11
31.9692
21
-78.9531
0
LINE
8
BLACK
6
CONTINUOUS
10
31.9692
20
-78.9531
11
32.2073
21
-78.9531
0
LINE
8
BLACK
6
CONTINUOUS
10
32.2073
20
-78.9531
11
32.3026
21
-79.0007
0
LINE
8
BLACK
6
CONTINUOUS
10
32.3026
20
-79.0007
11
32.3502
21
-79.0483
0
LINE
8
BLACK
6
CONTINUOUS
10
32.3502
20
-79.0483
11
32.3978
21
-79.1436
0
LINE
8
BLACK
6
CONTINUOUS
10
32.3978
20
-79.1436
11
32.3978
21
-79.2388
0
LINE
8
BLACK
6
CONTINUOUS
10
32.3978
20
-79.2388
11
32.3502
21
-79.3817
0
LINE
8
BLACK
6
CONTINUOUS
10
32.3502
20
-79.3817
11
31.7788
21
-79.9531
0
LINE
8
BLACK
6
CONTINUOUS
10
31.7788
20
-79.9531
11
32.3978
21
-79.9531
0
LINE
8
BLACK
6
CONTINUOUS
10
272.749
20
-105.341
11
272.749
21
-104.341
0
LINE
8
BLACK
6
CONTINUOUS
10
272.749
20
-104.341
11
273.082
21
-105.055
0
LINE
8
BLACK
6
CONTINUOUS
10
273.082
20
-105.055
11
273.415
21
-104.341
0
LINE
8
BLACK
6
CONTINUOUS
10
273.415
20
-104.341
11
273.415
21
-105.341
0
LINE
8
BLACK
6
CONTINUOUS
10
274.034
20
-105.341
11
273.939
21
-105.293
0
LINE
8
BLACK
6
CONTINUOUS
10
273.939
20
-105.293
11
273.892
21
-105.246
0
LINE
8
BLACK
6
CONTINUOUS
10
273.892
20
-105.246
11
273.844
21
-105.15
0
LINE
8
BLACK
6
CONTINUOUS
10
273.844
20
-105.15
11
273.844
21
-104.865
0
LINE
8
BLACK
6
CONTINUOUS
10
273.844
20
-104.865
11
273.892
21
-104.769
0
LINE
8
BLACK
6
CONTINUOUS
10
273.892
20
-104.769
11
273.939
21
-104.722
0
LINE
8
BLACK
6
CONTINUOUS
10
273.939
20
-104.722
11
274.034
21
-104.674
0
LINE
8
BLACK
6
CONTINUOUS
10
274.034
20
-104.674
11
274.177
21
-104.674
0
LINE
8
BLACK
6
CONTINUOUS
10
274.177
20
-104.674
11
274.273
21
-104.722
0
LINE
8
BLACK
6
CONTINUOUS
10
274.273
20
-104.722
11
274.32
21
-104.769
0
LINE
8
BLACK
6
CONTINUOUS
10
274.32
20
-104.769
11
274.368
21
-104.865
0
LINE
8
BLACK
6
CONTINUOUS
10
274.368
20
-104.865
11
274.368
21
-105.15
0
LINE
8
BLACK
6
CONTINUOUS
10
274.368
20
-105.15
11
274.32
21
-105.246
0
LINE
8
BLACK
6
CONTINUOUS
10
274.32
20
-105.246
11
274.273
21
-105.293
0
LINE
8
BLACK
6
CONTINUOUS
10
274.273
20
-105.293
11
274.177
21
-105.341
0
LINE
8
BLACK
6
CONTINUOUS
10
274.177
20
-105.341
11
274.034
21
-105.341
0
LINE
8
BLACK
6
CONTINUOUS
10
275.225
20
-104.674
11
275.225
21
-105.341
0
LINE
8
BLACK
6
CONTINUOUS
10
274.796
20
-104.674
11
274.796
21
-105.198
0
LINE
8
BLACK
6
CONTINUOUS
10
274.796
20
-105.198
11
274.844
21
-105.293
0
LINE
8
BLACK
6
CONTINUOUS
10
274.844
20
-105.293
11
274.939
21
-105.341
0
LINE
8
BLACK
6
CONTINUOUS
10
274.939
20
-105.341
11
275.082
21
-105.341
0
LINE
8
BLACK
6
CONTINUOUS
10
275.082
20
-105.341
11
275.177
21
-105.293
0
LINE
8
BLACK
6
CONTINUOUS
10
275.177
20
-105.293
11
275.225
21
-105.246
0
LINE
8
BLACK
6
CONTINUOUS
10
275.701
20
-104.674
11
275.701
21
-105.341
0
LINE
8
BLACK
6
CONTINUOUS
10
275.701
20
-104.769
11
275.749
21
-104.722
0
LINE
8
BLACK
6
CONTINUOUS
10
275.749
20
-104.722
11
275.844
21
-104.674
0
LINE
8
BLACK
6
CONTINUOUS
10
275.844
20
-104.674
11
275.987
21
-104.674
0
LINE
8
BLACK
6
CONTINUOUS
10
275.987
20
-104.674
11
276.082
21
-104.722
0
LINE
8
BLACK
6
CONTINUOUS
10
276.082
20
-104.722
11
276.13
21
-104.817
0
LINE
8
BLACK
6
CONTINUOUS
10
276.13
20
-104.817
11
276.13
21
-105.341
0
LINE
8
BLACK
6
CONTINUOUS
10
276.463
20
-104.674
11
276.844
21
-104.674
0
LINE
8
BLACK
6
CONTINUOUS
10
276.606
20
-104.341
11
276.606
21
-105.198
0
LINE
8
BLACK
6
CONTINUOUS
10
276.606
20
-105.198
11
276.654
21
-105.293
0
LINE
8
BLACK
6
CONTINUOUS
10
276.654
20
-105.293
11
276.749
21
-105.341
0
LINE
8
BLACK
6
CONTINUOUS
10
276.749
20
-105.341
11
276.844
21
-105.341
0
LINE
8
BLACK
6
CONTINUOUS
10
277.177
20
-105.341
11
277.177
21
-104.674
0
LINE
8
BLACK
6
CONTINUOUS
10
277.177
20
-104.341
11
277.13
21
-104.388
0
LINE
8
BLACK
6
CONTINUOUS
10
277.13
20
-104.388
11
277.177
21
-104.436
0
LINE
8
BLACK
6
CONTINUOUS
10
277.177
20
-104.436
11
277.225
21
-104.388
0
LINE
8
BLACK
6
CONTINUOUS
10
277.225
20
-104.388
11
277.177
21
-104.341
0
LINE
8
BLACK
6
CONTINUOUS
10
277.177
20
-104.341
11
277.177
21
-104.436
0
LINE
8
BLACK
6
CONTINUOUS
10
277.654
20
-104.674
11
277.654
21
-105.341
0
LINE
8
BLACK
6
CONTINUOUS
10
277.654
20
-104.769
11
277.701
21
-104.722
0
LINE
8
BLACK
6
CONTINUOUS
10
277.701
20
-104.722
11
277.796
21
-104.674
0
LINE
8
BLACK
6
CONTINUOUS
10
277.796
20
-104.674
11
277.939
21
-104.674
0
LINE
8
BLACK
6
CONTINUOUS
10
277.939
20
-104.674
11
278.034
21
-104.722
0
LINE
8
BLACK
6
CONTINUOUS
10
278.034
20
-104.722
11
278.082
21
-104.817
0
LINE
8
BLACK
6
CONTINUOUS
10
278.082
20
-104.817
11
278.082
21
-105.341
0
LINE
8
BLACK
6
CONTINUOUS
10
278.987
20
-104.674
11
278.987
21
-105.484
0
LINE
8
BLACK
6
CONTINUOUS
10
278.987
20
-105.484
11
278.939
21
-105.579
0
LINE
8
BLACK
6
CONTINUOUS
10
278.939
20
-105.579
11
278.892
21
-105.627
0
LINE
8
BLACK
6
CONTINUOUS
10
278.892
20
-105.627
11
278.796
21
-105.674
0
LINE
8
BLACK
6
CONTINUOUS
10
278.796
20
-105.674
11
278.654
21
-105.674
0
LINE
8
BLACK
6
CONTINUOUS
10
278.654
20
-105.674
11
278.558
21
-105.627
0
LINE
8
BLACK
6
CONTINUOUS
10
278.987
20
-105.293
11
278.892
21
-105.341
0
LINE
8
BLACK
6
CONTINUOUS
10
278.892
20
-105.341
11
278.701
21
-105.341
0
LINE
8
BLACK
6
CONTINUOUS
10
278.701
20
-105.341
11
278.606
21
-105.293
0
LINE
8
BLACK
6
CONTINUOUS
10
278.606
20
-105.293
11
278.558
21
-105.246
0
LINE
8
BLACK
6
CONTINUOUS
10
278.558
20
-105.246
11
278.511
21
-105.15
0
LINE
8
BLACK
6
CONTINUOUS
10
278.511
20
-105.15
11
278.511
21
-104.865
0
LINE
8
BLACK
6
CONTINUOUS
10
278.511
20
-104.865
11
278.558
21
-104.769
0
LINE
8
BLACK
6
CONTINUOUS
10
278.558
20
-104.769
11
278.606
21
-104.722
0
LINE
8
BLACK
6
CONTINUOUS
10
278.606
20
-104.722
11
278.701
21
-104.674
0
LINE
8
BLACK
6
CONTINUOUS
10
278.701
20
-104.674
11
278.892
21
-104.674
0
LINE
8
BLACK
6
CONTINUOUS
10
278.892
20
-104.674
11
278.987
21
-104.722
0
LINE
8
BLACK
6
CONTINUOUS
10
279.463
20
-105.341
11
279.463
21
-104.341
0
LINE
8
BLACK
6
CONTINUOUS
10
279.463
20
-104.817
11
280.034
21
-104.817
0
LINE
8
BLACK
6
CONTINUOUS
10
280.034
20
-105.341
11
280.034
21
-104.341
0
LINE
8
BLACK
6
CONTINUOUS
10
280.654
20
-105.341
11
280.558
21
-105.293
0
LINE
8
BLACK
6
CONTINUOUS
10
280.558
20
-105.293
11
280.511
21
-105.246
0
LINE
8
BLACK
6
CONTINUOUS
10
280.511
20
-105.246
11
280.463
21
-105.15
0
LINE
8
BLACK
6
CONTINUOUS
10
280.463
20
-105.15
11
280.463
21
-104.865
0
LINE
8
BLACK
6
CONTINUOUS
10
280.463
20
-104.865
11
280.511
21
-104.769
0
LINE
8
BLACK
6
CONTINUOUS
10
280.511
20
-104.769
11
280.558
21
-104.722
0
LINE
8
BLACK
6
CONTINUOUS
10
280.558
20
-104.722
11
280.654
21
-104.674
0
LINE
8
BLACK
6
CONTINUOUS
10
280.654
20
-104.674
11
280.796
21
-104.674
0
LINE
8
BLACK
6
CONTINUOUS
10
280.796
20
-104.674
11
280.892
21
-104.722
0
LINE
8
BLACK
6
CONTINUOUS
10
280.892
20
-104.722
11
280.939
21
-104.769
0
LINE
8
BLACK
6
CONTINUOUS
10
280.939
20
-104.769
11
280.987
21
-104.865
0
LINE
8
BLACK
6
CONTINUOUS
10
280.987
20
-104.865
11
280.987
21
-105.15
0
LINE
8
BLACK
6
CONTINUOUS
10
280.987
20
-105.15
11
280.939
21
-105.246
0
LINE
8
BLACK
6
CONTINUOUS
10
280.939
20
-105.246
11
280.892
21
-105.293
0
LINE
8
BLACK
6
CONTINUOUS
10
280.892
20
-105.293
11
280.796
21
-105.341
0
LINE
8
BLACK
6
CONTINUOUS
10
280.796
20
-105.341
11
280.654
21
-105.341
0
LINE
8
BLACK
6
CONTINUOUS
10
281.558
20
-105.341
11
281.463
21
-105.293
0
LINE
8
BLACK
6
CONTINUOUS
10
281.463
20
-105.293
11
281.415
21
-105.198
0
LINE
8
BLACK
6
CONTINUOUS
10
281.415
20
-105.198
11
281.415
21
-104.341
0
LINE
8
BLACK
6
CONTINUOUS
10
282.32
20
-105.293
11
282.225
21
-105.341
0
LINE
8
BLACK
6
CONTINUOUS
10
282.225
20
-105.341
11
282.034
21
-105.341
0
LINE
8
BLACK
6
CONTINUOUS
10
282.034
20
-105.341
11
281.939
21
-105.293
0
LINE
8
BLACK
6
CONTINUOUS
10
281.939
20
-105.293
11
281.892
21
-105.198
0
LINE
8
BLACK
6
CONTINUOUS
10
281.892
20
-105.198
11
281.892
21
-104.817
0
LINE
8
BLACK
6
CONTINUOUS
10
281.892
20
-104.817
11
281.939
21
-104.722
0
LINE
8
BLACK
6
CONTINUOUS
10
281.939
20
-104.722
11
282.034
21
-104.674
0
LINE
8
BLACK
6
CONTINUOUS
10
282.034
20
-104.674
11
282.225
21
-104.674
0
LINE
8
BLACK
6
CONTINUOUS
10
282.225
20
-104.674
11
282.32
21
-104.722
0
LINE
8
BLACK
6
CONTINUOUS
10
282.32
20
-104.722
11
282.368
21
-104.817
0
LINE
8
BLACK
6
CONTINUOUS
10
282.368
20
-104.817
11
282.368
21
-104.912
0
LINE
8
BLACK
6
CONTINUOUS
10
282.368
20
-104.912
11
281.892
21
-105.008
0
LINE
8
BLACK
6
CONTINUOUS
10
282.558
20
-105.436
11
283.32
21
-105.436
0
LINE
8
BLACK
6
CONTINUOUS
10
283.558
20
-105.341
11
283.558
21
-104.341
0
LINE
8
BLACK
6
CONTINUOUS
10
283.558
20
-104.341
11
283.939
21
-104.341
0
LINE
8
BLACK
6
CONTINUOUS
10
283.939
20
-104.341
11
284.034
21
-104.388
0
LINE
8
BLACK
6
CONTINUOUS
10
284.034
20
-104.388
11
284.082
21
-104.436
0
LINE
8
BLACK
6
CONTINUOUS
10
284.082
20
-104.436
11
284.13
21
-104.531
0
LINE
8
BLACK
6
CONTINUOUS
10
284.13
20
-104.531
11
284.13
21
-104.674
0
LINE
8
BLACK
6
CONTINUOUS
10
284.13
20
-104.674
11
284.082
21
-104.769
0
LINE
8
BLACK
6
CONTINUOUS
10
284.082
20
-104.769
11
284.034
21
-104.817
0
LINE
8
BLACK
6
CONTINUOUS
10
284.034
20
-104.817
11
283.939
21
-104.865
0
LINE
8
BLACK
6
CONTINUOUS
10
283.939
20
-104.865
11
283.558
21
-104.865
0
LINE
8
BLACK
6
CONTINUOUS
10
284.987
20
-105.341
11
284.987
21
-104.817
0
LINE
8
BLACK
6
CONTINUOUS
10
284.987
20
-104.817
11
284.939
21
-104.722
0
LINE
8
BLACK
6
CONTINUOUS
10
284.939
20
-104.722
11
284.844
21
-104.674
0
LINE
8
BLACK
6
CONTINUOUS
10
284.844
20
-104.674
11
284.654
21
-104.674
0
LINE
8
BLACK
6
CONTINUOUS
10
284.654
20
-104.674
11
284.558
21
-104.722
0
LINE
8
BLACK
6
CONTINUOUS
10
284.987
20
-105.293
11
284.892
21
-105.341
0
LINE
8
BLACK
6
CONTINUOUS
10
284.892
20
-105.341
11
284.654
21
-105.341
0
LINE
8
BLACK
6
CONTINUOUS
10
284.654
20
-105.341
11
284.558
21
-105.293
0
LINE
8
BLACK
6
CONTINUOUS
10
284.558
20
-105.293
11
284.511
21
-105.198
0
LINE
8
BLACK
6
CONTINUOUS
10
284.511
20
-105.198
11
284.511
21
-105.103
0
LINE
8
BLACK
6
CONTINUOUS
10
284.511
20
-105.103
11
284.558
21
-105.008
0
LINE
8
BLACK
6
CONTINUOUS
10
284.558
20
-105.008
11
284.654
21
-104.96
0
LINE
8
BLACK
6
CONTINUOUS
10
284.654
20
-104.96
11
284.892
21
-104.96
0
LINE
8
BLACK
6
CONTINUOUS
10
284.892
20
-104.96
11
284.987
21
-104.912
0
LINE
8
BLACK
6
CONTINUOUS
10
285.892
20
-105.341
11
285.892
21
-104.341
0
LINE
8
BLACK
6
CONTINUOUS
10
285.892
20
-105.293
11
285.796
21
-105.341
0
LINE
8
BLACK
6
CONTINUOUS
10
285.796
20
-105.341
11
285.606
21
-105.341
0
LINE
8
BLACK
6
CONTINUOUS
10
285.606
20
-105.341
11
285.511
21
-105.293
0
LINE
8
BLACK
6
CONTINUOUS
10
285.511
20
-105.293
11
285.463
21
-105.246
0
LINE
8
BLACK
6
CONTINUOUS
10
285.463
20
-105.246
11
285.415
21
-105.15
0
LINE
8
BLACK
6
CONTINUOUS
10
285.415
20
-105.15
11
285.415
21
-104.865
0
LINE
8
BLACK
6
CONTINUOUS
10
285.415
20
-104.865
11
285.463
21
-104.769
0
LINE
8
BLACK
6
CONTINUOUS
10
285.463
20
-104.769
11
285.511
21
-104.722
0
LINE
8
BLACK
6
CONTINUOUS
10
285.511
20
-104.722
11
285.606
21
-104.674
0
LINE
8
BLACK
6
CONTINUOUS
10
285.606
20
-104.674
11
285.796
21
-104.674
0
LINE
8
BLACK
6
CONTINUOUS
10
285.796
20
-104.674
11
285.892
21
-104.722
0
LINE
8
BLACK
6
CONTINUOUS
10
278.082
20
-101.641
11
278.082
21
-100.641
0
LINE
8
BLACK
6
CONTINUOUS
10
278.082
20
-101.117
11
278.654
21
-101.117
0
LINE
8
BLACK
6
CONTINUOUS
10
278.654
20
-101.641
11
278.654
21
-100.641
0
LINE
8
BLACK
6
CONTINUOUS
10
279.606
20
-100.641
11
279.13
21
-100.641
0
LINE
8
BLACK
6
CONTINUOUS
10
279.13
20
-100.641
11
279.082
21
-101.117
0
LINE
8
BLACK
6
CONTINUOUS
10
279.082
20
-101.117
11
279.13
21
-101.069
0
LINE
8
BLACK
6
CONTINUOUS
10
279.13
20
-101.069
11
279.225
21
-101.022
0
LINE
8
BLACK
6
CONTINUOUS
10
279.225
20
-101.022
11
279.463
21
-101.022
0
LINE
8
BLACK
6
CONTINUOUS
10
279.463
20
-101.022
11
279.558
21
-101.069
0
LINE
8
BLACK
6
CONTINUOUS
10
279.558
20
-101.069
11
279.606
21
-101.117
0
LINE
8
BLACK
6
CONTINUOUS
10
279.606
20
-101.117
11
279.654
21
-101.212
0
LINE
8
BLACK
6
CONTINUOUS
10
279.654
20
-101.212
11
279.654
21
-101.45
0
LINE
8
BLACK
6
CONTINUOUS
10
279.654
20
-101.45
11
279.606
21
-101.546
0
LINE
8
BLACK
6
CONTINUOUS
10
279.606
20
-101.546
11
279.558
21
-101.593
0
LINE
8
BLACK
6
CONTINUOUS
10
279.558
20
-101.593
11
279.463
21
-101.641
0
LINE
8
BLACK
6
CONTINUOUS
10
279.463
20
-101.641
11
279.225
21
-101.641
0
LINE
8
BLACK
6
CONTINUOUS
10
279.225
20
-101.641
11
279.13
21
-101.593
0
LINE
8
BLACK
6
CONTINUOUS
10
279.13
20
-101.593
11
279.082
21
-101.546
0
LINE
8
BLACK
6
CONTINUOUS
10
280.13
20
-101.641
11
280.32
21
-101.641
0
LINE
8
BLACK
6
CONTINUOUS
10
280.32
20
-101.641
11
280.415
21
-101.593
0
LINE
8
BLACK
6
CONTINUOUS
10
280.415
20
-101.593
11
280.463
21
-101.546
0
LINE
8
BLACK
6
CONTINUOUS
10
280.463
20
-101.546
11
280.558
21
-101.403
0
LINE
8
BLACK
6
CONTINUOUS
10
280.558
20
-101.403
11
280.606
21
-101.212
0
LINE
8
BLACK
6
CONTINUOUS
10
280.606
20
-101.212
11
280.606
21
-100.831
0
LINE
8
BLACK
6
CONTINUOUS
10
280.606
20
-100.831
11
280.558
21
-100.736
0
LINE
8
BLACK
6
CONTINUOUS
10
280.558
20
-100.736
11
280.511
21
-100.688
0
LINE
8
BLACK
6
CONTINUOUS
10
280.511
20
-100.688
11
280.415
21
-100.641
0
LINE
8
BLACK
6
CONTINUOUS
10
280.415
20
-100.641
11
280.225
21
-100.641
0
LINE
8
BLACK
6
CONTINUOUS
10
280.225
20
-100.641
11
280.13
21
-100.688
0
LINE
8
BLACK
6
CONTINUOUS
10
280.13
20
-100.688
11
280.082
21
-100.736
0
LINE
8
BLACK
6
CONTINUOUS
10
280.082
20
-100.736
11
280.034
21
-100.831
0
LINE
8
BLACK
6
CONTINUOUS
10
280.034
20
-100.831
11
280.034
21
-101.069
0
LINE
8
BLACK
6
CONTINUOUS
10
280.034
20
-101.069
11
280.082
21
-101.165
0
LINE
8
BLACK
6
CONTINUOUS
10
280.082
20
-101.165
11
280.13
21
-101.212
0
LINE
8
BLACK
6
CONTINUOUS
10
280.13
20
-101.212
11
280.225
21
-101.26
0
LINE
8
BLACK
6
CONTINUOUS
10
280.225
20
-101.26
11
280.415
21
-101.26
0
LINE
8
BLACK
6
CONTINUOUS
10
280.415
20
-101.26
11
280.511
21
-101.212
0
LINE
8
BLACK
6
CONTINUOUS
10
280.511
20
-101.212
11
280.558
21
-101.165
0
LINE
8
BLACK
6
CONTINUOUS
10
280.558
20
-101.165
11
280.606
21
-101.069
0
LINE
8
BLACK
6
CONTINUOUS
10
9.80167
20
-39.4857
11
9.80167
21
-38.4857
0
LINE
8
BLACK
6
CONTINUOUS
10
9.80167
20
-38.4857
11
10.135
21
-39.2
0
LINE
8
BLACK
6
CONTINUOUS
10
10.135
20
-39.2
11
10.4683
21
-38.4857
0
LINE
8
BLACK
6
CONTINUOUS
10
10.4683
20
-38.4857
11
10.4683
21
-39.4857
0
LINE
8
BLACK
6
CONTINUOUS
10
11.0874
20
-39.4857
11
10.9921
21
-39.4381
0
LINE
8
BLACK
6
CONTINUOUS
10
10.9921
20
-39.4381
11
10.9445
21
-39.3904
0
LINE
8
BLACK
6
CONTINUOUS
10
10.9445
20
-39.3904
11
10.8969
21
-39.2952
0
LINE
8
BLACK
6
CONTINUOUS
10
10.8969
20
-39.2952
11
10.8969
21
-39.0095
0
LINE
8
BLACK
6
CONTINUOUS
10
10.8969
20
-39.0095
11
10.9445
21
-38.9143
0
LINE
8
BLACK
6
CONTINUOUS
10
10.9445
20
-38.9143
11
10.9921
21
-38.8666
0
LINE
8
BLACK
6
CONTINUOUS
10
10.9921
20
-38.8666
11
11.0874
21
-38.819
0
LINE
8
BLACK
6
CONTINUOUS
10
11.0874
20
-38.819
11
11.2302
21
-38.819
0
LINE
8
BLACK
6
CONTINUOUS
10
11.2302
20
-38.819
11
11.3255
21
-38.8666
0
LINE
8
BLACK
6
CONTINUOUS
10
11.3255
20
-38.8666
11
11.3731
21
-38.9143
0
LINE
8
BLACK
6
CONTINUOUS
10
11.3731
20
-38.9143
11
11.4207
21
-39.0095
0
LINE
8
BLACK
6
CONTINUOUS
10
11.4207
20
-39.0095
11
11.4207
21
-39.2952
0
LINE
8
BLACK
6
CONTINUOUS
10
11.4207
20
-39.2952
11
11.3731
21
-39.3904
0
LINE
8
BLACK
6
CONTINUOUS
10
11.3731
20
-39.3904
11
11.3255
21
-39.4381
0
LINE
8
BLACK
6
CONTINUOUS
10
11.3255
20
-39.4381
11
11.2302
21
-39.4857
0
LINE
8
BLACK
6
CONTINUOUS
10
11.2302
20
-39.4857
11
11.0874
21
-39.4857
0
LINE
8
BLACK
6
CONTINUOUS
10
12.2779
20
-38.819
11
12.2779
21
-39.4857
0
LINE
8
BLACK
6
CONTINUOUS
10
11.8493
20
-38.819
11
11.8493
21
-39.3428
0
LINE
8
BLACK
6
CONTINUOUS
10
11.8493
20
-39.3428
11
11.8969
21
-39.4381
0
LINE
8
BLACK
6
CONTINUOUS
10
11.8969
20
-39.4381
11
11.9921
21
-39.4857
0
LINE
8
BLACK
6
CONTINUOUS
10
11.9921
20
-39.4857
11
12.135
21
-39.4857
0
LINE
8
BLACK
6
CONTINUOUS
10
12.135
20
-39.4857
11
12.2302
21
-39.4381
0
LINE
8
BLACK
6
CONTINUOUS
10
12.2302
20
-39.4381
11
12.2779
21
-39.3904
0
LINE
8
BLACK
6
CONTINUOUS
10
12.7541
20
-38.819
11
12.7541
21
-39.4857
0
LINE
8
BLACK
6
CONTINUOUS
10
12.7541
20
-38.9143
11
12.8017
21
-38.8666
0
LINE
8
BLACK
6
CONTINUOUS
10
12.8017
20
-38.8666
11
12.8969
21
-38.819
0
LINE
8
BLACK
6
CONTINUOUS
10
12.8969
20
-38.819
11
13.0398
21
-38.819
0
LINE
8
BLACK
6
CONTINUOUS
10
13.0398
20
-38.819
11
13.135
21
-38.8666
0
LINE
8
BLACK
6
CONTINUOUS
10
13.135
20
-38.8666
11
13.1826
21
-38.9619
0
LINE
8
BLACK
6
CONTINUOUS
10
13.1826
20
-38.9619
11
13.1826
21
-39.4857
0
LINE
8
BLACK
6
CONTINUOUS
10
13.516
20
-38.819
11
13.8969
21
-38.819
0
LINE
8
BLACK
6
CONTINUOUS
10
13.6588
20
-38.4857
11
13.6588
21
-39.3428
0
LINE
8
BLACK
6
CONTINUOUS
10
13.6588
20
-39.3428
11
13.7064
21
-39.4381
0
LINE
8
BLACK
6
CONTINUOUS
10
13.7064
20
-39.4381
11
13.8017
21
-39.4857
0
LINE
8
BLACK
6
CONTINUOUS
10
13.8017
20
-39.4857
11
13.8969
21
-39.4857
0
LINE
8
BLACK
6
CONTINUOUS
10
14.2302
20
-39.4857
11
14.2302
21
-38.819
0
LINE
8
BLACK
6
CONTINUOUS
10
14.2302
20
-38.4857
11
14.1826
21
-38.5333
0
LINE
8
BLACK
6
CONTINUOUS
10
14.1826
20
-38.5333
11
14.2302
21
-38.5809
0
LINE
8
BLACK
6
CONTINUOUS
10
14.2302
20
-38.5809
11
14.2779
21
-38.5333
0
LINE
8
BLACK
6
CONTINUOUS
10
14.2779
20
-38.5333
11
14.2302
21
-38.4857
0
LINE
8
BLACK
6
CONTINUOUS
10
14.2302
20
-38.4857
11
14.2302
21
-38.5809
0
LINE
8
BLACK
6
CONTINUOUS
10
14.7064
20
-38.819
11
14.7064
21
-39.4857
0
LINE
8
BLACK
6
CONTINUOUS
10
14.7064
20
-38.9143
11
14.7541
21
-38.8666
0
LINE
8
BLACK
6
CONTINUOUS
10
14.7541
20
-38.8666
11
14.8493
21
-38.819
0
LINE
8
BLACK
6
CONTINUOUS
10
14.8493
20
-38.819
11
14.9921
21
-38.819
0
LINE
8
BLACK
6
CONTINUOUS
10
14.9921
20
-38.819
11
15.0874
21
-38.8666
0
LINE
8
BLACK
6
CONTINUOUS
10
15.0874
20
-38.8666
11
15.135
21
-38.9619
0
LINE
8
BLACK
6
CONTINUOUS
10
15.135
20
-38.9619
11
15.135
21
-39.4857
0
LINE
8
BLACK
6
CONTINUOUS
10
16.0398
20
-38.819
11
16.0398
21
-39.6285
0
LINE
8
BLACK
6
CONTINUOUS
10
16.0398
20
-39.6285
11
15.9921
21
-39.7238
0
LINE
8
BLACK
6
CONTINUOUS
10
15.9921
20
-39.7238
11
15.9445
21
-39.7714
0
LINE
8
BLACK
6
CONTINUOUS
10
15.9445
20
-39.7714
11
15.8493
21
-39.819
0
LINE
8
BLACK
6
CONTINUOUS
10
15.8493
20
-39.819
11
15.7064
21
-39.819
0
LINE
8
BLACK
6
CONTINUOUS
10
15.7064
20
-39.819
11
15.6112
21
-39.7714
0
LINE
8
BLACK
6
CONTINUOUS
10
16.0398
20
-39.4381
11
15.9445
21
-39.4857
0
LINE
8
BLACK
6
CONTINUOUS
10
15.9445
20
-39.4857
11
15.7541
21
-39.4857
0
LINE
8
BLACK
6
CONTINUOUS
10
15.7541
20
-39.4857
11
15.6588
21
-39.4381
0
LINE
8
BLACK
6
CONTINUOUS
10
15.6588
20
-39.4381
11
15.6112
21
-39.3904
0
LINE
8
BLACK
6
CONTINUOUS
10
15.6112
20
-39.3904
11
15.5636
21
-39.2952
0
LINE
8
BLACK
6
CONTINUOUS
10
15.5636
20
-39.2952
11
15.5636
21
-39.0095
0
LINE
8
BLACK
6
CONTINUOUS
10
15.5636
20
-39.0095
11
15.6112
21
-38.9143
0
LINE
8
BLACK
6
CONTINUOUS
10
15.6112
20
-38.9143
11
15.6588
21
-38.8666
0
LINE
8
BLACK
6
CONTINUOUS
10
15.6588
20
-38.8666
11
15.7541
21
-38.819
0
LINE
8
BLACK
6
CONTINUOUS
10
15.7541
20
-38.819
11
15.9445
21
-38.819
0
LINE
8
BLACK
6
CONTINUOUS
10
15.9445
20
-38.819
11
16.0398
21
-38.8666
0
LINE
8
BLACK
6
CONTINUOUS
10
16.516
20
-39.4857
11
16.516
21
-38.4857
0
LINE
8
BLACK
6
CONTINUOUS
10
16.516
20
-38.9619
11
17.0874
21
-38.9619
0
LINE
8
BLACK
6
CONTINUOUS
10
17.0874
20
-39.4857
11
17.0874
21
-38.4857
0
LINE
8
BLACK
6
CONTINUOUS
10
17.7064
20
-39.4857
11
17.6112
21
-39.4381
0
LINE
8
BLACK
6
CONTINUOUS
10
17.6112
20
-39.4381
11
17.5636
21
-39.3904
0
LINE
8
BLACK
6
CONTINUOUS
10
17.5636
20
-39.3904
11
17.516
21
-39.2952
0
LINE
8
BLACK
6
CONTINUOUS
10
17.516
20
-39.2952
11
17.516
21
-39.0095
0
LINE
8
BLACK
6
CONTINUOUS
10
17.516
20
-39.0095
11
17.5636
21
-38.9143
0
LINE
8
BLACK
6
CONTINUOUS
10
17.5636
20
-38.9143
11
17.6112
21
-38.8666
0
LINE
8
BLACK
6
CONTINUOUS
10
17.6112
20
-38.8666
11
17.7064
21
-38.819
0
LINE
8
BLACK
6
CONTINUOUS
10
17.7064
20
-38.819
11
17.8493
21
-38.819
0
LINE
8
BLACK
6
CONTINUOUS
10
17.8493
20
-38.819
11
17.9445
21
-38.8666
0
LINE
8
BLACK
6
CONTINUOUS
10
17.9445
20
-38.8666
11
17.9921
21
-38.9143
0
LINE
8
BLACK
6
CONTINUOUS
10
17.9921
20
-38.9143
11
18.0398
21
-39.0095
0
LINE
8
BLACK
6
CONTINUOUS
10
18.0398
20
-39.0095
11
18.0398
21
-39.2952
0
LINE
8
BLACK
6
CONTINUOUS
10
18.0398
20
-39.2952
11
17.9921
21
-39.3904
0
LINE
8
BLACK
6
CONTINUOUS
10
17.9921
20
-39.3904
11
17.9445
21
-39.4381
0
LINE
8
BLACK
6
CONTINUOUS
10
17.9445
20
-39.4381
11
17.8493
21
-39.4857
0
LINE
8
BLACK
6
CONTINUOUS
10
17.8493
20
-39.4857
11
17.7064
21
-39.4857
0
LINE
8
BLACK
6
CONTINUOUS
10
18.6112
20
-39.4857
11
18.516
21
-39.4381
0
LINE
8
BLACK
6
CONTINUOUS
10
18.516
20
-39.4381
11
18.4683
21
-39.3428
0
LINE
8
BLACK
6
CONTINUOUS
10
18.4683
20
-39.3428
11
18.4683
21
-38.4857
0
LINE
8
BLACK
6
CONTINUOUS
10
19.3731
20
-39.4381
11
19.2779
21
-39.4857
0
LINE
8
BLACK
6
CONTINUOUS
10
19.2779
20
-39.4857
11
19.0874
21
-39.4857
0
LINE
8
BLACK
6
CONTINUOUS
10
19.0874
20
-39.4857
11
18.9921
21
-39.4381
0
LINE
8
BLACK
6
CONTINUOUS
10
18.9921
20
-39.4381
11
18.9445
21
-39.3428
0
LINE
8
BLACK
6
CONTINUOUS
10
18.9445
20
-39.3428
11
18.9445
21
-38.9619
0
LINE
8
BLACK
6
CONTINUOUS
10
18.9445
20
-38.9619
11
18.9921
21
-38.8666
0
LINE
8
BLACK
6
CONTINUOUS
10
18.9921
20
-38.8666
11
19.0874
21
-38.819
0
LINE
8
BLACK
6
CONTINUOUS
10
19.0874
20
-38.819
11
19.2779
21
-38.819
0
LINE
8
BLACK
6
CONTINUOUS
10
19.2779
20
-38.819
11
19.3731
21
-38.8666
0
LINE
8
BLACK
6
CONTINUOUS
10
19.3731
20
-38.8666
11
19.4207
21
-38.9619
0
LINE
8
BLACK
6
CONTINUOUS
10
19.4207
20
-38.9619
11
19.4207
21
-39.0571
0
LINE
8
BLACK
6
CONTINUOUS
10
19.4207
20
-39.0571
11
18.9445
21
-39.1523
0
LINE
8
BLACK
6
CONTINUOUS
10
19.6112
20
-39.5809
11
20.3731
21
-39.5809
0
LINE
8
BLACK
6
CONTINUOUS
10
20.6112
20
-39.4857
11
20.6112
21
-38.4857
0
LINE
8
BLACK
6
CONTINUOUS
10
20.6112
20
-38.4857
11
20.9921
21
-38.4857
0
LINE
8
BLACK
6
CONTINUOUS
10
20.9921
20
-38.4857
11
21.0874
21
-38.5333
0
LINE
8
BLACK
6
CONTINUOUS
10
21.0874
20
-38.5333
11
21.135
21
-38.5809
0
LINE
8
BLACK
6
CONTINUOUS
10
21.135
20
-38.5809
11
21.1826
21
-38.6762
0
LINE
8
BLACK
6
CONTINUOUS
10
21.1826
20
-38.6762
11
21.1826
21
-38.819
0
LINE
8
BLACK
6
CONTINUOUS
10
21.1826
20
-38.819
11
21.135
21
-38.9143
0
LINE
8
BLACK
6
CONTINUOUS
10
21.135
20
-38.9143
11
21.0874
21
-38.9619
0
LINE
8
BLACK
6
CONTINUOUS
10
21.0874
20
-38.9619
11
20.9921
21
-39.0095
0
LINE
8
BLACK
6
CONTINUOUS
10
20.9921
20
-39.0095
11
20.6112
21
-39.0095
0
LINE
8
BLACK
6
CONTINUOUS
10
22.0398
20
-39.4857
11
22.0398
21
-38.9619
0
LINE
8
BLACK
6
CONTINUOUS
10
22.0398
20
-38.9619
11
21.9921
21
-38.8666
0
LINE
8
BLACK
6
CONTINUOUS
10
21.9921
20
-38.8666
11
21.8969
21
-38.819
0
LINE
8
BLACK
6
CONTINUOUS
10
21.8969
20
-38.819
11
21.7064
21
-38.819
0
LINE
8
BLACK
6
CONTINUOUS
10
21.7064
20
-38.819
11
21.6112
21
-38.8666
0
LINE
8
BLACK
6
CONTINUOUS
10
22.0398
20
-39.4381
11
21.9445
21
-39.4857
0
LINE
8
BLACK
6
CONTINUOUS
10
21.9445
20
-39.4857
11
21.7064
21
-39.4857
0
LINE
8
BLACK
6
CONTINUOUS
10
21.7064
20
-39.4857
11
21.6112
21
-39.4381
0
LINE
8
BLACK
6
CONTINUOUS
10
21.6112
20
-39.4381
11
21.5636
21
-39.3428
0
LINE
8
BLACK
6
CONTINUOUS
10
21.5636
20
-39.3428
11
21.5636
21
-39.2476
0
LINE
8
BLACK
6
CONTINUOUS
10
21.5636
20
-39.2476
11
21.6112
21
-39.1523
0
LINE
8
BLACK
6
CONTINUOUS
10
21.6112
20
-39.1523
11
21.7064
21
-39.1047
0
LINE
8
BLACK
6
CONTINUOUS
10
21.7064
20
-39.1047
11
21.9445
21
-39.1047
0
LINE
8
BLACK
6
CONTINUOUS
10
21.9445
20
-39.1047
11
22.0398
21
-39.0571
0
LINE
8
BLACK
6
CONTINUOUS
10
22.9445
20
-39.4857
11
22.9445
21
-38.4857
0
LINE
8
BLACK
6
CONTINUOUS
10
22.9445
20
-39.4381
11
22.8493
21
-39.4857
0
LINE
8
BLACK
6
CONTINUOUS
10
22.8493
20
-39.4857
11
22.6588
21
-39.4857
0
LINE
8
BLACK
6
CONTINUOUS
10
22.6588
20
-39.4857
11
22.5636
21
-39.4381
0
LINE
8
BLACK
6
CONTINUOUS
10
22.5636
20
-39.4381
11
22.516
21
-39.3904
0
LINE
8
BLACK
6
CONTINUOUS
10
22.516
20
-39.3904
11
22.4683
21
-39.2952
0
LINE
8
BLACK
6
CONTINUOUS
10
22.4683
20
-39.2952
11
22.4683
21
-39.0095
0
LINE
8
BLACK
6
CONTINUOUS
10
22.4683
20
-39.0095
11
22.516
21
-38.9143
0
LINE
8
BLACK
6
CONTINUOUS
10
22.516
20
-38.9143
11
22.5636
21
-38.8666
0
LINE
8
BLACK
6
CONTINUOUS
10
22.5636
20
-38.8666
11
22.6588
21
-38.819
0
LINE
8
BLACK
6
CONTINUOUS
10
22.6588
20
-38.819
11
22.8493
21
-38.819
0
LINE
8
BLACK
6
CONTINUOUS
10
22.8493
20
-38.819
11
22.9445
21
-38.8666
0
LINE
8
BLACK
6
CONTINUOUS
10
15.135
20
-35.7857
11
15.135
21
-34.7857
0
LINE
8
BLACK
6
CONTINUOUS
10
15.135
20
-35.2619
11
15.7064
21
-35.2619
0
LINE
8
BLACK
6
CONTINUOUS
10
15.7064
20
-35.7857
11
15.7064
21
-34.7857
0
LINE
8
BLACK
6
CONTINUOUS
10
16.6588
20
-34.7857
11
16.1826
21
-34.7857
0
LINE
8
BLACK
6
CONTINUOUS
10
16.1826
20
-34.7857
11
16.135
21
-35.2619
0
LINE
8
BLACK
6
CONTINUOUS
10
16.135
20
-35.2619
11
16.1826
21
-35.2143
0
LINE
8
BLACK
6
CONTINUOUS
10
16.1826
20
-35.2143
11
16.2779
21
-35.1666
0
LINE
8
BLACK
6
CONTINUOUS
10
16.2779
20
-35.1666
11
16.516
21
-35.1666
0
LINE
8
BLACK
6
CONTINUOUS
10
16.516
20
-35.1666
11
16.6112
21
-35.2143
0
LINE
8
BLACK
6
CONTINUOUS
10
16.6112
20
-35.2143
11
16.6588
21
-35.2619
0
LINE
8
BLACK
6
CONTINUOUS
10
16.6588
20
-35.2619
11
16.7064
21
-35.3571
0
LINE
8
BLACK
6
CONTINUOUS
10
16.7064
20
-35.3571
11
16.7064
21
-35.5952
0
LINE
8
BLACK
6
CONTINUOUS
10
16.7064
20
-35.5952
11
16.6588
21
-35.6904
0
LINE
8
BLACK
6
CONTINUOUS
10
16.6588
20
-35.6904
11
16.6112
21
-35.7381
0
LINE
8
BLACK
6
CONTINUOUS
10
16.6112
20
-35.7381
11
16.516
21
-35.7857
0
LINE
8
BLACK
6
CONTINUOUS
10
16.516
20
-35.7857
11
16.2779
21
-35.7857
0
LINE
8
BLACK
6
CONTINUOUS
10
16.2779
20
-35.7857
11
16.1826
21
-35.7381
0
LINE
8
BLACK
6
CONTINUOUS
10
16.1826
20
-35.7381
11
16.135
21
-35.6904
0
LINE
8
BLACK
6
CONTINUOUS
10
17.3255
20
-34.7857
11
17.4207
21
-34.7857
0
LINE
8
BLACK
6
CONTINUOUS
10
17.4207
20
-34.7857
11
17.516
21
-34.8333
0
LINE
8
BLACK
6
CONTINUOUS
10
17.516
20
-34.8333
11
17.5636
21
-34.8809
0
LINE
8
BLACK
6
CONTINUOUS
10
17.5636
20
-34.8809
11
17.6112
21
-34.9762
0
LINE
8
BLACK
6
CONTINUOUS
10
17.6112
20
-34.9762
11
17.6588
21
-35.1666
0
LINE
8
BLACK
6
CONTINUOUS
10
17.6588
20
-35.1666
11
17.6588
21
-35.4047
0
LINE
8
BLACK
6
CONTINUOUS
10
17.6588
20
-35.4047
11
17.6112
21
-35.5952
0
LINE
8
BLACK
6
CONTINUOUS
10
17.6112
20
-35.5952
11
17.5636
21
-35.6904
0
LINE
8
BLACK
6
CONTINUOUS
10
17.5636
20
-35.6904
11
17.516
21
-35.7381
0
LINE
8
BLACK
6
CONTINUOUS
10
17.516
20
-35.7381
11
17.4207
21
-35.7857
0
LINE
8
BLACK
6
CONTINUOUS
10
17.4207
20
-35.7857
11
17.3255
21
-35.7857
0
LINE
8
BLACK
6
CONTINUOUS
10
17.3255
20
-35.7857
11
17.2302
21
-35.7381
0
LINE
8
BLACK
6
CONTINUOUS
10
17.2302
20
-35.7381
11
17.1826
21
-35.6904
0
LINE
8
BLACK
6
CONTINUOUS
10
17.1826
20
-35.6904
11
17.135
21
-35.5952
0
LINE
8
BLACK
6
CONTINUOUS
10
17.135
20
-35.5952
11
17.0874
21
-35.4047
0
LINE
8
BLACK
6
CONTINUOUS
10
17.0874
20
-35.4047
11
17.0874
21
-35.1666
0
LINE
8
BLACK
6
CONTINUOUS
10
17.0874
20
-35.1666
11
17.135
21
-34.9762
0
LINE
8
BLACK
6
CONTINUOUS
10
17.135
20
-34.9762
11
17.1826
21
-34.8809
0
LINE
8
BLACK
6
CONTINUOUS
10
17.1826
20
-34.8809
11
17.2302
21
-34.8333
0
LINE
8
BLACK
6
CONTINUOUS
10
17.2302
20
-34.8333
11
17.3255
21
-34.7857
0
LINE
8
BLACK
6
CONTINUOUS
10
271.13
20
-44.5662
11
271.13
21
-43.5662
0
LINE
8
BLACK
6
CONTINUOUS
10
271.13
20
-43.5662
11
271.463
21
-44.2805
0
LINE
8
BLACK
6
CONTINUOUS
10
271.463
20
-44.2805
11
271.796
21
-43.5662
0
LINE
8
BLACK
6
CONTINUOUS
10
271.796
20
-43.5662
11
271.796
21
-44.5662
0
LINE
8
BLACK
6
CONTINUOUS
10
272.415
20
-44.5662
11
272.32
21
-44.5186
0
LINE
8
BLACK
6
CONTINUOUS
10
272.32
20
-44.5186
11
272.273
21
-44.4709
0
LINE
8
BLACK
6
CONTINUOUS
10
272.273
20
-44.4709
11
272.225
21
-44.3757
0
LINE
8
BLACK
6
CONTINUOUS
10
272.225
20
-44.3757
11
272.225
21
-44.09
0
LINE
8
BLACK
6
CONTINUOUS
10
272.225
20
-44.09
11
272.273
21
-43.9948
0
LINE
8
BLACK
6
CONTINUOUS
10
272.273
20
-43.9948
11
272.32
21
-43.9471
0
LINE
8
BLACK
6
CONTINUOUS
10
272.32
20
-43.9471
11
272.415
21
-43.8995
0
LINE
8
BLACK
6
CONTINUOUS
10
272.415
20
-43.8995
11
272.558
21
-43.8995
0
LINE
8
BLACK
6
CONTINUOUS
10
272.558
20
-43.8995
11
272.653
21
-43.9471
0
LINE
8
BLACK
6
CONTINUOUS
10
272.653
20
-43.9471
11
272.701
21
-43.9948
0
LINE
8
BLACK
6
CONTINUOUS
10
272.701
20
-43.9948
11
272.749
21
-44.09
0
LINE
8
BLACK
6
CONTINUOUS
10
272.749
20
-44.09
11
272.749
21
-44.3757
0
LINE
8
BLACK
6
CONTINUOUS
10
272.749
20
-44.3757
11
272.701
21
-44.4709
0
LINE
8
BLACK
6
CONTINUOUS
10
272.701
20
-44.4709
11
272.653
21
-44.5186
0
LINE
8
BLACK
6
CONTINUOUS
10
272.653
20
-44.5186
11
272.558
21
-44.5662
0
LINE
8
BLACK
6
CONTINUOUS
10
272.558
20
-44.5662
11
272.415
21
-44.5662
0
LINE
8
BLACK
6
CONTINUOUS
10
273.606
20
-43.8995
11
273.606
21
-44.5662
0
LINE
8
BLACK
6
CONTINUOUS
10
273.177
20
-43.8995
11
273.177
21
-44.4233
0
LINE
8
BLACK
6
CONTINUOUS
10
273.177
20
-44.4233
11
273.225
21
-44.5186
0
LINE
8
BLACK
6
CONTINUOUS
10
273.225
20
-44.5186
11
273.32
21
-44.5662
0
LINE
8
BLACK
6
CONTINUOUS
10
273.32
20
-44.5662
11
273.463
21
-44.5662
0
LINE
8
BLACK
6
CONTINUOUS
10
273.463
20
-44.5662
11
273.558
21
-44.5186
0
LINE
8
BLACK
6
CONTINUOUS
10
273.558
20
-44.5186
11
273.606
21
-44.4709
0
LINE
8
BLACK
6
CONTINUOUS
10
274.082
20
-43.8995
11
274.082
21
-44.5662
0
LINE
8
BLACK
6
CONTINUOUS
10
274.082
20
-43.9948
11
274.13
21
-43.9471
0
LINE
8
BLACK
6
CONTINUOUS
10
274.13
20
-43.9471
11
274.225
21
-43.8995
0
LINE
8
BLACK
6
CONTINUOUS
10
274.225
20
-43.8995
11
274.368
21
-43.8995
0
LINE
8
BLACK
6
CONTINUOUS
10
274.368
20
-43.8995
11
274.463
21
-43.9471
0
LINE
8
BLACK
6
CONTINUOUS
10
274.463
20
-43.9471
11
274.511
21
-44.0424
0
LINE
8
BLACK
6
CONTINUOUS
10
274.511
20
-44.0424
11
274.511
21
-44.5662
0
LINE
8
BLACK
6
CONTINUOUS
10
274.844
20
-43.8995
11
275.225
21
-43.8995
0
LINE
8
BLACK
6
CONTINUOUS
10
274.987
20
-43.5662
11
274.987
21
-44.4233
0
LINE
8
BLACK
6
CONTINUOUS
10
274.987
20
-44.4233
11
275.034
21
-44.5186
0
LINE
8
BLACK
6
CONTINUOUS
10
275.034
20
-44.5186
11
275.13
21
-44.5662
0
LINE
8
BLACK
6
CONTINUOUS
10
275.13
20
-44.5662
11
275.225
21
-44.5662
0
LINE
8
BLACK
6
CONTINUOUS
10
275.558
20
-44.5662
11
275.558
21
-43.8995
0
LINE
8
BLACK
6
CONTINUOUS
10
275.558
20
-43.5662
11
275.511
21
-43.6138
0
LINE
8
BLACK
6
CONTINUOUS
10
275.511
20
-43.6138
11
275.558
21
-43.6614
0
LINE
8
BLACK
6
CONTINUOUS
10
275.558
20
-43.6614
11
275.606
21
-43.6138
0
LINE
8
BLACK
6
CONTINUOUS
10
275.606
20
-43.6138
11
275.558
21
-43.5662
0
LINE
8
BLACK
6
CONTINUOUS
10
275.558
20
-43.5662
11
275.558
21
-43.6614
0
LINE
8
BLACK
6
CONTINUOUS
10
276.034
20
-43.8995
11
276.034
21
-44.5662
0
LINE
8
BLACK
6
CONTINUOUS
10
276.034
20
-43.9948
11
276.082
21
-43.9471
0
LINE
8
BLACK
6
CONTINUOUS
10
276.082
20
-43.9471
11
276.177
21
-43.8995
0
LINE
8
BLACK
6
CONTINUOUS
10
276.177
20
-43.8995
11
276.32
21
-43.8995
0
LINE
8
BLACK
6
CONTINUOUS
10
276.32
20
-43.8995
11
276.415
21
-43.9471
0
LINE
8
BLACK
6
CONTINUOUS
10
276.415
20
-43.9471
11
276.463
21
-44.0424
0
LINE
8
BLACK
6
CONTINUOUS
10
276.463
20
-44.0424
11
276.463
21
-44.5662
0
LINE
8
BLACK
6
CONTINUOUS
10
277.368
20
-43.8995
11
277.368
21
-44.709
0
LINE
8
BLACK
6
CONTINUOUS
10
277.368
20
-44.709
11
277.32
21
-44.8043
0
LINE
8
BLACK
6
CONTINUOUS
10
277.32
20
-44.8043
11
277.273
21
-44.8519
0
LINE
8
BLACK
6
CONTINUOUS
10
277.273
20
-44.8519
11
277.177
21
-44.8995
0
LINE
8
BLACK
6
CONTINUOUS
10
277.177
20
-44.8995
11
277.034
21
-44.8995
0
LINE
8
BLACK
6
CONTINUOUS
10
277.034
20
-44.8995
11
276.939
21
-44.8519
0
LINE
8
BLACK
6
CONTINUOUS
10
277.368
20
-44.5186
11
277.273
21
-44.5662
0
LINE
8
BLACK
6
CONTINUOUS
10
277.273
20
-44.5662
11
277.082
21
-44.5662
0
LINE
8
BLACK
6
CONTINUOUS
10
277.082
20
-44.5662
11
276.987
21
-44.5186
0
LINE
8
BLACK
6
CONTINUOUS
10
276.987
20
-44.5186
11
276.939
21
-44.4709
0
LINE
8
BLACK
6
CONTINUOUS
10
276.939
20
-44.4709
11
276.892
21
-44.3757
0
LINE
8
BLACK
6
CONTINUOUS
10
276.892
20
-44.3757
11
276.892
21
-44.09
0
LINE
8
BLACK
6
CONTINUOUS
10
276.892
20
-44.09
11
276.939
21
-43.9948
0
LINE
8
BLACK
6
CONTINUOUS
10
276.939
20
-43.9948
11
276.987
21
-43.9471
0
LINE
8
BLACK
6
CONTINUOUS
10
276.987
20
-43.9471
11
277.082
21
-43.8995
0
LINE
8
BLACK
6
CONTINUOUS
10
277.082
20
-43.8995
11
277.273
21
-43.8995
0
LINE
8
BLACK
6
CONTINUOUS
10
277.273
20
-43.8995
11
277.368
21
-43.9471
0
LINE
8
BLACK
6
CONTINUOUS
10
277.844
20
-44.5662
11
277.844
21
-43.5662
0
LINE
8
BLACK
6
CONTINUOUS
10
277.844
20
-44.0424
11
278.415
21
-44.0424
0
LINE
8
BLACK
6
CONTINUOUS
10
278.415
20
-44.5662
11
278.415
21
-43.5662
0
LINE
8
BLACK
6
CONTINUOUS
10
279.034
20
-44.5662
11
278.939
21
-44.5186
0
LINE
8
BLACK
6
CONTINUOUS
10
278.939
20
-44.5186
11
278.892
21
-44.4709
0
LINE
8
BLACK
6
CONTINUOUS
10
278.892
20
-44.4709
11
278.844
21
-44.3757
0
LINE
8
BLACK
6
CONTINUOUS
10
278.844
20
-44.3757
11
278.844
21
-44.09
0
LINE
8
BLACK
6
CONTINUOUS
10
278.844
20
-44.09
11
278.892
21
-43.9948
0
LINE
8
BLACK
6
CONTINUOUS
10
278.892
20
-43.9948
11
278.939
21
-43.9471
0
LINE
8
BLACK
6
CONTINUOUS
10
278.939
20
-43.9471
11
279.034
21
-43.8995
0
LINE
8
BLACK
6
CONTINUOUS
10
279.034
20
-43.8995
11
279.177
21
-43.8995
0
LINE
8
BLACK
6
CONTINUOUS
10
279.177
20
-43.8995
11
279.273
21
-43.9471
0
LINE
8
BLACK
6
CONTINUOUS
10
279.273
20
-43.9471
11
279.32
21
-43.9948
0
LINE
8
BLACK
6
CONTINUOUS
10
279.32
20
-43.9948
11
279.368
21
-44.09
0
LINE
8
BLACK
6
CONTINUOUS
10
279.368
20
-44.09
11
279.368
21
-44.3757
0
LINE
8
BLACK
6
CONTINUOUS
10
279.368
20
-44.3757
11
279.32
21
-44.4709
0
LINE
8
BLACK
6
CONTINUOUS
10
279.32
20
-44.4709
11
279.273
21
-44.5186
0
LINE
8
BLACK
6
CONTINUOUS
10
279.273
20
-44.5186
11
279.177
21
-44.5662
0
LINE
8
BLACK
6
CONTINUOUS
10
279.177
20
-44.5662
11
279.034
21
-44.5662
0
LINE
8
BLACK
6
CONTINUOUS
10
279.939
20
-44.5662
11
279.844
21
-44.5186
0
LINE
8
BLACK
6
CONTINUOUS
10
279.844
20
-44.5186
11
279.796
21
-44.4233
0
LINE
8
BLACK
6
CONTINUOUS
10
279.796
20
-44.4233
11
279.796
21
-43.5662
0
LINE
8
BLACK
6
CONTINUOUS
10
280.701
20
-44.5186
11
280.606
21
-44.5662
0
LINE
8
BLACK
6
CONTINUOUS
10
280.606
20
-44.5662
11
280.415
21
-44.5662
0
LINE
8
BLACK
6
CONTINUOUS
10
280.415
20
-44.5662
11
280.32
21
-44.5186
0
LINE
8
BLACK
6
CONTINUOUS
10
280.32
20
-44.5186
11
280.273
21
-44.4233
0
LINE
8
BLACK
6
CONTINUOUS
10
280.273
20
-44.4233
11
280.273
21
-44.0424
0
LINE
8
BLACK
6
CONTINUOUS
10
280.273
20
-44.0424
11
280.32
21
-43.9471
0
LINE
8
BLACK
6
CONTINUOUS
10
280.32
20
-43.9471
11
280.415
21
-43.8995
0
LINE
8
BLACK
6
CONTINUOUS
10
280.415
20
-43.8995
11
280.606
21
-43.8995
0
LINE
8
BLACK
6
CONTINUOUS
10
280.606
20
-43.8995
11
280.701
21
-43.9471
0
LINE
8
BLACK
6
CONTINUOUS
10
280.701
20
-43.9471
11
280.749
21
-44.0424
0
LINE
8
BLACK
6
CONTINUOUS
10
280.749
20
-44.0424
11
280.749
21
-44.1376
0
LINE
8
BLACK
6
CONTINUOUS
10
280.749
20
-44.1376
11
280.273
21
-44.2328
0
LINE
8
BLACK
6
CONTINUOUS
10
280.939
20
-44.6614
11
281.701
21
-44.6614
0
LINE
8
BLACK
6
CONTINUOUS
10
281.939
20
-44.5662
11
281.939
21
-43.5662
0
LINE
8
BLACK
6
CONTINUOUS
10
281.939
20
-43.5662
11
282.32
21
-43.5662
0
LINE
8
BLACK
6
CONTINUOUS
10
282.32
20
-43.5662
11
282.415
21
-43.6138
0
LINE
8
BLACK
6
CONTINUOUS
10
282.415
20
-43.6138
11
282.463
21
-43.6614
0
LINE
8
BLACK
6
CONTINUOUS
10
282.463
20
-43.6614
11
282.511
21
-43.7567
0
LINE
8
BLACK
6
CONTINUOUS
10
282.511
20
-43.7567
11
282.511
21
-43.8995
0
LINE
8
BLACK
6
CONTINUOUS
10
282.511
20
-43.8995
11
282.463
21
-43.9948
0
LINE
8
BLACK
6
CONTINUOUS
10
282.463
20
-43.9948
11
282.415
21
-44.0424
0
LINE
8
BLACK
6
CONTINUOUS
10
282.415
20
-44.0424
11
282.32
21
-44.09
0
LINE
8
BLACK
6
CONTINUOUS
10
282.32
20
-44.09
11
281.939
21
-44.09
0
LINE
8
BLACK
6
CONTINUOUS
10
283.368
20
-44.5662
11
283.368
21
-44.0424
0
LINE
8
BLACK
6
CONTINUOUS
10
283.368
20
-44.0424
11
283.32
21
-43.9471
0
LINE
8
BLACK
6
CONTINUOUS
10
283.32
20
-43.9471
11
283.225
21
-43.8995
0
LINE
8
BLACK
6
CONTINUOUS
10
283.225
20
-43.8995
11
283.034
21
-43.8995
0
LINE
8
BLACK
6
CONTINUOUS
10
283.034
20
-43.8995
11
282.939
21
-43.9471
0
LINE
8
BLACK
6
CONTINUOUS
10
283.368
20
-44.5186
11
283.273
21
-44.5662
0
LINE
8
BLACK
6
CONTINUOUS
10
283.273
20
-44.5662
11
283.034
21
-44.5662
0
LINE
8
BLACK
6
CONTINUOUS
10
283.034
20
-44.5662
11
282.939
21
-44.5186
0
LINE
8
BLACK
6
CONTINUOUS
10
282.939
20
-44.5186
11
282.892
21
-44.4233
0
LINE
8
BLACK
6
CONTINUOUS
10
282.892
20
-44.4233
11
282.892
21
-44.3281
0
LINE
8
BLACK
6
CONTINUOUS
10
282.892
20
-44.3281
11
282.939
21
-44.2328
0
LINE
8
BLACK
6
CONTINUOUS
10
282.939
20
-44.2328
11
283.034
21
-44.1852
0
LINE
8
BLACK
6
CONTINUOUS
10
283.034
20
-44.1852
11
283.273
21
-44.1852
0
LINE
8
BLACK
6
CONTINUOUS
10
283.273
20
-44.1852
11
283.368
21
-44.1376
0
LINE
8
BLACK
6
CONTINUOUS
10
284.273
20
-44.5662
11
284.273
21
-43.5662
0
LINE
8
BLACK
6
CONTINUOUS
10
284.273
20
-44.5186
11
284.177
21
-44.5662
0
LINE
8
BLACK
6
CONTINUOUS
10
284.177
20
-44.5662
11
283.987
21
-44.5662
0
LINE
8
BLACK
6
CONTINUOUS
10
283.987
20
-44.5662
11
283.892
21
-44.5186
0
LINE
8
BLACK
6
CONTINUOUS
10
283.892
20
-44.5186
11
283.844
21
-44.4709
0
LINE
8
BLACK
6
CONTINUOUS
10
283.844
20
-44.4709
11
283.796
21
-44.3757
0
LINE
8
BLACK
6
CONTINUOUS
10
283.796
20
-44.3757
11
283.796
21
-44.09
0
LINE
8
BLACK
6
CONTINUOUS
10
283.796
20
-44.09
11
283.844
21
-43.9948
0
LINE
8
BLACK
6
CONTINUOUS
10
283.844
20
-43.9948
11
283.892
21
-43.9471
0
LINE
8
BLACK
6
CONTINUOUS
10
283.892
20
-43.9471
11
283.987
21
-43.8995
0
LINE
8
BLACK
6
CONTINUOUS
10
283.987
20
-43.8995
11
284.177
21
-43.8995
0
LINE
8
BLACK
6
CONTINUOUS
10
284.177
20
-43.8995
11
284.273
21
-43.9471
0
LINE
8
BLACK
6
CONTINUOUS
10
276.463
20
-40.8662
11
276.463
21
-39.8662
0
LINE
8
BLACK
6
CONTINUOUS
10
276.463
20
-40.3424
11
277.034
21
-40.3424
0
LINE
8
BLACK
6
CONTINUOUS
10
277.034
20
-40.8662
11
277.034
21
-39.8662
0
LINE
8
BLACK
6
CONTINUOUS
10
277.987
20
-39.8662
11
277.511
21
-39.8662
0
LINE
8
BLACK
6
CONTINUOUS
10
277.511
20
-39.8662
11
277.463
21
-40.3424
0
LINE
8
BLACK
6
CONTINUOUS
10
277.463
20
-40.3424
11
277.511
21
-40.2948
0
LINE
8
BLACK
6
CONTINUOUS
10
277.511
20
-40.2948
11
277.606
21
-40.2471
0
LINE
8
BLACK
6
CONTINUOUS
10
277.606
20
-40.2471
11
277.844
21
-40.2471
0
LINE
8
BLACK
6
CONTINUOUS
10
277.844
20
-40.2471
11
277.939
21
-40.2948
0
LINE
8
BLACK
6
CONTINUOUS
10
277.939
20
-40.2948
11
277.987
21
-40.3424
0
LINE
8
BLACK
6
CONTINUOUS
10
277.987
20
-40.3424
11
278.034
21
-40.4376
0
LINE
8
BLACK
6
CONTINUOUS
10
278.034
20
-40.4376
11
278.034
21
-40.6757
0
LINE
8
BLACK
6
CONTINUOUS
10
278.034
20
-40.6757
11
277.987
21
-40.7709
0
LINE
8
BLACK
6
CONTINUOUS
10
277.987
20
-40.7709
11
277.939
21
-40.8186
0
LINE
8
BLACK
6
CONTINUOUS
10
277.939
20
-40.8186
11
277.844
21
-40.8662
0
LINE
8
BLACK
6
CONTINUOUS
10
277.844
20
-40.8662
11
277.606
21
-40.8662
0
LINE
8
BLACK
6
CONTINUOUS
10
277.606
20
-40.8662
11
277.511
21
-40.8186
0
LINE
8
BLACK
6
CONTINUOUS
10
277.511
20
-40.8186
11
277.463
21
-40.7709
0
LINE
8
BLACK
6
CONTINUOUS
10
278.892
20
-39.8662
11
278.701
21
-39.8662
0
LINE
8
BLACK
6
CONTINUOUS
10
278.701
20
-39.8662
11
278.606
21
-39.9138
0
LINE
8
BLACK
6
CONTINUOUS
10
278.606
20
-39.9138
11
278.558
21
-39.9614
0
LINE
8
BLACK
6
CONTINUOUS
10
278.558
20
-39.9614
11
278.463
21
-40.1043
0
LINE
8
BLACK
6
CONTINUOUS
10
278.463
20
-40.1043
11
278.415
21
-40.2948
0
LINE
8
BLACK
6
CONTINUOUS
10
278.415
20
-40.2948
11
278.415
21
-40.6757
0
LINE
8
BLACK
6
CONTINUOUS
10
278.415
20
-40.6757
11
278.463
21
-40.7709
0
LINE
8
BLACK
6
CONTINUOUS
10
278.463
20
-40.7709
11
278.511
21
-40.8186
0
LINE
8
BLACK
6
CONTINUOUS
10
278.511
20
-40.8186
11
278.606
21
-40.8662
0
LINE
8
BLACK
6
CONTINUOUS
10
278.606
20
-40.8662
11
278.796
21
-40.8662
0
LINE
8
BLACK
6
CONTINUOUS
10
278.796
20
-40.8662
11
278.892
21
-40.8186
0
LINE
8
BLACK
6
CONTINUOUS
10
278.892
20
-40.8186
11
278.939
21
-40.7709
0
LINE
8
BLACK
6
CONTINUOUS
10
278.939
20
-40.7709
11
278.987
21
-40.6757
0
LINE
8
BLACK
6
CONTINUOUS
10
278.987
20
-40.6757
11
278.987
21
-40.4376
0
LINE
8
BLACK
6
CONTINUOUS
10
278.987
20
-40.4376
11
278.939
21
-40.3424
0
LINE
8
BLACK
6
CONTINUOUS
10
278.939
20
-40.3424
11
278.892
21
-40.2948
0
LINE
8
BLACK
6
CONTINUOUS
10
278.892
20
-40.2948
11
278.796
21
-40.2471
0
LINE
8
BLACK
6
CONTINUOUS
10
278.796
20
-40.2471
11
278.606
21
-40.2471
0
LINE
8
BLACK
6
CONTINUOUS
10
278.606
20
-40.2471
11
278.511
21
-40.2948
0
LINE
8
BLACK
6
CONTINUOUS
10
278.511
20
-40.2948
11
278.463
21
-40.3424
0
LINE
8
BLACK
6
CONTINUOUS
10
278.463
20
-40.3424
11
278.415
21
-40.4376
0
LINE
8
BLACK
6
CONTINUOUS
10
229.644
20
28.7726
11
229.644
21
29.7726
0
LINE
8
BLACK
6
CONTINUOUS
10
229.644
20
29.7726
11
229.977
21
29.0583
0
LINE
8
BLACK
6
CONTINUOUS
10
229.977
20
29.0583
11
230.311
21
29.7726
0
LINE
8
BLACK
6
CONTINUOUS
10
230.311
20
29.7726
11
230.311
21
28.7726
0
LINE
8
BLACK
6
CONTINUOUS
10
230.739
20
29.6774
11
230.787
21
29.725
0
LINE
8
BLACK
6
CONTINUOUS
10
230.787
20
29.725
11
230.882
21
29.7726
0
LINE
8
BLACK
6
CONTINUOUS
10
230.882
20
29.7726
11
231.12
21
29.7726
0
LINE
8
BLACK
6
CONTINUOUS
10
231.12
20
29.7726
11
231.215
21
29.725
0
LINE
8
BLACK
6
CONTINUOUS
10
231.215
20
29.725
11
231.263
21
29.6774
0
LINE
8
BLACK
6
CONTINUOUS
10
231.263
20
29.6774
11
231.311
21
29.5821
0
LINE
8
BLACK
6
CONTINUOUS
10
231.311
20
29.5821
11
231.311
21
29.4869
0
LINE
8
BLACK
6
CONTINUOUS
10
231.311
20
29.4869
11
231.263
21
29.344
0
LINE
8
BLACK
6
CONTINUOUS
10
231.263
20
29.344
11
230.692
21
28.7726
0
LINE
8
BLACK
6
CONTINUOUS
10
230.692
20
28.7726
11
231.311
21
28.7726
0
LINE
8
BLACK
6
CONTINUOUS
10
231.739
20
28.8679
11
231.787
21
28.8202
0
LINE
8
BLACK
6
CONTINUOUS
10
231.787
20
28.8202
11
231.739
21
28.7726
0
LINE
8
BLACK
6
CONTINUOUS
10
231.739
20
28.7726
11
231.692
21
28.8202
0
LINE
8
BLACK
6
CONTINUOUS
10
231.692
20
28.8202
11
231.739
21
28.8679
0
LINE
8
BLACK
6
CONTINUOUS
10
231.739
20
28.8679
11
231.739
21
28.7726
0
LINE
8
BLACK
6
CONTINUOUS
10
232.692
20
29.7726
11
232.215
21
29.7726
0
LINE
8
BLACK
6
CONTINUOUS
10
232.215
20
29.7726
11
232.168
21
29.2964
0
LINE
8
BLACK
6
CONTINUOUS
10
232.168
20
29.2964
11
232.215
21
29.344
0
LINE
8
BLACK
6
CONTINUOUS
10
232.215
20
29.344
11
232.311
21
29.3917
0
LINE
8
BLACK
6
CONTINUOUS
10
232.311
20
29.3917
11
232.549
21
29.3917
0
LINE
8
BLACK
6
CONTINUOUS
10
232.549
20
29.3917
11
232.644
21
29.344
0
LINE
8
BLACK
6
CONTINUOUS
10
232.644
20
29.344
11
232.692
21
29.2964
0
LINE
8
BLACK
6
CONTINUOUS
10
232.692
20
29.2964
11
232.739
21
29.2012
0
LINE
8
BLACK
6
CONTINUOUS
10
232.739
20
29.2012
11
232.739
21
28.9631
0
LINE
8
BLACK
6
CONTINUOUS
10
232.739
20
28.9631
11
232.692
21
28.8679
0
LINE
8
BLACK
6
CONTINUOUS
10
232.692
20
28.8679
11
232.644
21
28.8202
0
LINE
8
BLACK
6
CONTINUOUS
10
232.644
20
28.8202
11
232.549
21
28.7726
0
LINE
8
BLACK
6
CONTINUOUS
10
232.549
20
28.7726
11
232.311
21
28.7726
0
LINE
8
BLACK
6
CONTINUOUS
10
232.311
20
28.7726
11
232.215
21
28.8202
0
LINE
8
BLACK
6
CONTINUOUS
10
232.215
20
28.8202
11
232.168
21
28.8679
0
LINE
8
BLACK
6
CONTINUOUS
10
230.406
20
32.4726
11
230.406
21
33.4726
0
LINE
8
BLACK
6
CONTINUOUS
10
230.406
20
32.9964
11
230.977
21
32.9964
0
LINE
8
BLACK
6
CONTINUOUS
10
230.977
20
32.4726
11
230.977
21
33.4726
0
LINE
8
BLACK
6
CONTINUOUS
10
231.882
20
33.1393
11
231.882
21
32.4726
0
LINE
8
BLACK
6
CONTINUOUS
10
231.644
20
33.5202
11
231.406
21
32.806
0
LINE
8
BLACK
6
CONTINUOUS
10
231.406
20
32.806
11
232.025
21
32.806
0
LINE
8
BLACK
6
CONTINUOUS
10
346.351
20
9.97262
11
346.351
21
10.9726
0
LINE
8
BLACK
6
CONTINUOUS
10
346.351
20
10.9726
11
346.685
21
10.2583
0
LINE
8
BLACK
6
CONTINUOUS
10
346.685
20
10.2583
11
347.018
21
10.9726
0
LINE
8
BLACK
6
CONTINUOUS
10
347.018
20
10.9726
11
347.018
21
9.97262
0
LINE
8
BLACK
6
CONTINUOUS
10
347.446
20
10.8774
11
347.494
21
10.925
0
LINE
8
BLACK
6
CONTINUOUS
10
347.494
20
10.925
11
347.589
21
10.9726
0
LINE
8
BLACK
6
CONTINUOUS
10
347.589
20
10.9726
11
347.827
21
10.9726
0
LINE
8
BLACK
6
CONTINUOUS
10
347.827
20
10.9726
11
347.923
21
10.925
0
LINE
8
BLACK
6
CONTINUOUS
10
347.923
20
10.925
11
347.97
21
10.8774
0
LINE
8
BLACK
6
CONTINUOUS
10
347.97
20
10.8774
11
348.018
21
10.7821
0
LINE
8
BLACK
6
CONTINUOUS
10
348.018
20
10.7821
11
348.018
21
10.6869
0
LINE
8
BLACK
6
CONTINUOUS
10
348.018
20
10.6869
11
347.97
21
10.544
0
LINE
8
BLACK
6
CONTINUOUS
10
347.97
20
10.544
11
347.399
21
9.97262
0
LINE
8
BLACK
6
CONTINUOUS
10
347.399
20
9.97262
11
348.018
21
9.97262
0
LINE
8
BLACK
6
CONTINUOUS
10
348.446
20
10.0679
11
348.494
21
10.0202
0
LINE
8
BLACK
6
CONTINUOUS
10
348.494
20
10.0202
11
348.446
21
9.97262
0
LINE
8
BLACK
6
CONTINUOUS
10
348.446
20
9.97262
11
348.399
21
10.0202
0
LINE
8
BLACK
6
CONTINUOUS
10
348.399
20
10.0202
11
348.446
21
10.0679
0
LINE
8
BLACK
6
CONTINUOUS
10
348.446
20
10.0679
11
348.446
21
9.97262
0
LINE
8
BLACK
6
CONTINUOUS
10
349.399
20
10.9726
11
348.923
21
10.9726
0
LINE
8
BLACK
6
CONTINUOUS
10
348.923
20
10.9726
11
348.875
21
10.4964
0
LINE
8
BLACK
6
CONTINUOUS
10
348.875
20
10.4964
11
348.923
21
10.544
0
LINE
8
BLACK
6
CONTINUOUS
10
348.923
20
10.544
11
349.018
21
10.5917
0
LINE
8
BLACK
6
CONTINUOUS
10
349.018
20
10.5917
11
349.256
21
10.5917
0
LINE
8
BLACK
6
CONTINUOUS
10
349.256
20
10.5917
11
349.351
21
10.544
0
LINE
8
BLACK
6
CONTINUOUS
10
349.351
20
10.544
11
349.399
21
10.4964
0
LINE
8
BLACK
6
CONTINUOUS
10
349.399
20
10.4964
11
349.446
21
10.4012
0
LINE
8
BLACK
6
CONTINUOUS
10
349.446
20
10.4012
11
349.446
21
10.1631
0
LINE
8
BLACK
6
CONTINUOUS
10
349.446
20
10.1631
11
349.399
21
10.0679
0
LINE
8
BLACK
6
CONTINUOUS
10
349.399
20
10.0679
11
349.351
21
10.0202
0
LINE
8
BLACK
6
CONTINUOUS
10
349.351
20
10.0202
11
349.256
21
9.97262
0
LINE
8
BLACK
6
CONTINUOUS
10
349.256
20
9.97262
11
349.018
21
9.97262
0
LINE
8
BLACK
6
CONTINUOUS
10
349.018
20
9.97262
11
348.923
21
10.0202
0
LINE
8
BLACK
6
CONTINUOUS
10
348.923
20
10.0202
11
348.875
21
10.0679
0
LINE
8
BLACK
6
CONTINUOUS
10
347.113
20
13.6726
11
347.113
21
14.6726
0
LINE
8
BLACK
6
CONTINUOUS
10
347.113
20
14.1964
11
347.685
21
14.1964
0
LINE
8
BLACK
6
CONTINUOUS
10
347.685
20
13.6726
11
347.685
21
14.6726
0
LINE
8
BLACK
6
CONTINUOUS
10
348.113
20
14.5774
11
348.161
21
14.625
0
LINE
8
BLACK
6
CONTINUOUS
10
348.161
20
14.625
11
348.256
21
14.6726
0
LINE
8
BLACK
6
CONTINUOUS
10
348.256
20
14.6726
11
348.494
21
14.6726
0
LINE
8
BLACK
6
CONTINUOUS
10
348.494
20
14.6726
11
348.589
21
14.625
0
LINE
8
BLACK
6
CONTINUOUS
10
348.589
20
14.625
11
348.637
21
14.5774
0
LINE
8
BLACK
6
CONTINUOUS
10
348.637
20
14.5774
11
348.685
21
14.4821
0
LINE
8
BLACK
6
CONTINUOUS
10
348.685
20
14.4821
11
348.685
21
14.3869
0
LINE
8
BLACK
6
CONTINUOUS
10
348.685
20
14.3869
11
348.637
21
14.244
0
LINE
8
BLACK
6
CONTINUOUS
10
348.637
20
14.244
11
348.065
21
13.6726
0
LINE
8
BLACK
6
CONTINUOUS
10
348.065
20
13.6726
11
348.685
21
13.6726
0
LINE
8
BLACK
6
CONTINUOUS
10
58.4056
20
-26.7431
11
58.4056
21
-25.7431
0
LINE
8
BLACK
6
CONTINUOUS
10
58.4056
20
-25.7431
11
58.7389
21
-26.4574
0
LINE
8
BLACK
6
CONTINUOUS
10
58.7389
20
-26.4574
11
59.0722
21
-25.7431
0
LINE
8
BLACK
6
CONTINUOUS
10
59.0722
20
-25.7431
11
59.0722
21
-26.7431
0
LINE
8
BLACK
6
CONTINUOUS
10
59.6913
20
-26.7431
11
59.596
21
-26.6955
0
LINE
8
BLACK
6
CONTINUOUS
10
59.596
20
-26.6955
11
59.5484
21
-26.6478
0
LINE
8
BLACK
6
CONTINUOUS
10
59.5484
20
-26.6478
11
59.5008
21
-26.5526
0
LINE
8
BLACK
6
CONTINUOUS
10
59.5008
20
-26.5526
11
59.5008
21
-26.2669
0
LINE
8
BLACK
6
CONTINUOUS
10
59.5008
20
-26.2669
11
59.5484
21
-26.1717
0
LINE
8
BLACK
6
CONTINUOUS
10
59.5484
20
-26.1717
11
59.596
21
-26.124
0
LINE
8
BLACK
6
CONTINUOUS
10
59.596
20
-26.124
11
59.6913
21
-26.0764
0
LINE
8
BLACK
6
CONTINUOUS
10
59.6913
20
-26.0764
11
59.8341
21
-26.0764
0
LINE
8
BLACK
6
CONTINUOUS
10
59.8341
20
-26.0764
11
59.9294
21
-26.124
0
LINE
8
BLACK
6
CONTINUOUS
10
59.9294
20
-26.124
11
59.977
21
-26.1717
0
LINE
8
BLACK
6
CONTINUOUS
10
59.977
20
-26.1717
11
60.0246
21
-26.2669
0
LINE
8
BLACK
6
CONTINUOUS
10
60.0246
20
-26.2669
11
60.0246
21
-26.5526
0
LINE
8
BLACK
6
CONTINUOUS
10
60.0246
20
-26.5526
11
59.977
21
-26.6478
0
LINE
8
BLACK
6
CONTINUOUS
10
59.977
20
-26.6478
11
59.9294
21
-26.6955
0
LINE
8
BLACK
6
CONTINUOUS
10
59.9294
20
-26.6955
11
59.8341
21
-26.7431
0
LINE
8
BLACK
6
CONTINUOUS
10
59.8341
20
-26.7431
11
59.6913
21
-26.7431
0
LINE
8
BLACK
6
CONTINUOUS
10
60.8818
20
-26.0764
11
60.8818
21
-26.7431
0
LINE
8
BLACK
6
CONTINUOUS
10
60.4532
20
-26.0764
11
60.4532
21
-26.6002
0
LINE
8
BLACK
6
CONTINUOUS
10
60.4532
20
-26.6002
11
60.5008
21
-26.6955
0
LINE
8
BLACK
6
CONTINUOUS
10
60.5008
20
-26.6955
11
60.596
21
-26.7431
0
LINE
8
BLACK
6
CONTINUOUS
10
60.596
20
-26.7431
11
60.7389
21
-26.7431
0
LINE
8
BLACK
6
CONTINUOUS
10
60.7389
20
-26.7431
11
60.8341
21
-26.6955
0
LINE
8
BLACK
6
CONTINUOUS
10
60.8341
20
-26.6955
11
60.8818
21
-26.6478
0
LINE
8
BLACK
6
CONTINUOUS
10
61.358
20
-26.0764
11
61.358
21
-26.7431
0
LINE
8
BLACK
6
CONTINUOUS
10
61.358
20
-26.1717
11
61.4056
21
-26.124
0
LINE
8
BLACK
6
CONTINUOUS
10
61.4056
20
-26.124
11
61.5008
21
-26.0764
0
LINE
8
BLACK
6
CONTINUOUS
10
61.5008
20
-26.0764
11
61.6437
21
-26.0764
0
LINE
8
BLACK
6
CONTINUOUS
10
61.6437
20
-26.0764
11
61.7389
21
-26.124
0
LINE
8
BLACK
6
CONTINUOUS
10
61.7389
20
-26.124
11
61.7865
21
-26.2193
0
LINE
8
BLACK
6
CONTINUOUS
10
61.7865
20
-26.2193
11
61.7865
21
-26.7431
0
LINE
8
BLACK
6
CONTINUOUS
10
62.1199
20
-26.0764
11
62.5008
21
-26.0764
0
LINE
8
BLACK
6
CONTINUOUS
10
62.2627
20
-25.7431
11
62.2627
21
-26.6002
0
LINE
8
BLACK
6
CONTINUOUS
10
62.2627
20
-26.6002
11
62.3103
21
-26.6955
0
LINE
8
BLACK
6
CONTINUOUS
10
62.3103
20
-26.6955
11
62.4056
21
-26.7431
0
LINE
8
BLACK
6
CONTINUOUS
10
62.4056
20
-26.7431
11
62.5008
21
-26.7431
0
LINE
8
BLACK
6
CONTINUOUS
10
62.8341
20
-26.7431
11
62.8341
21
-26.0764
0
LINE
8
BLACK
6
CONTINUOUS
10
62.8341
20
-25.7431
11
62.7865
21
-25.7907
0
LINE
8
BLACK
6
CONTINUOUS
10
62.7865
20
-25.7907
11
62.8341
21
-25.8383
0
LINE
8
BLACK
6
CONTINUOUS
10
62.8341
20
-25.8383
11
62.8818
21
-25.7907
0
LINE
8
BLACK
6
CONTINUOUS
10
62.8818
20
-25.7907
11
62.8341
21
-25.7431
0
LINE
8
BLACK
6
CONTINUOUS
10
62.8341
20
-25.7431
11
62.8341
21
-25.8383
0
LINE
8
BLACK
6
CONTINUOUS
10
63.3103
20
-26.0764
11
63.3103
21
-26.7431
0
LINE
8
BLACK
6
CONTINUOUS
10
63.3103
20
-26.1717
11
63.358
21
-26.124
0
LINE
8
BLACK
6
CONTINUOUS
10
63.358
20
-26.124
11
63.4532
21
-26.0764
0
LINE
8
BLACK
6
CONTINUOUS
10
63.4532
20
-26.0764
11
63.596
21
-26.0764
0
LINE
8
BLACK
6
CONTINUOUS
10
63.596
20
-26.0764
11
63.6913
21
-26.124
0
LINE
8
BLACK
6
CONTINUOUS
10
63.6913
20
-26.124
11
63.7389
21
-26.2193
0
LINE
8
BLACK
6
CONTINUOUS
10
63.7389
20
-26.2193
11
63.7389
21
-26.7431
0
LINE
8
BLACK
6
CONTINUOUS
10
64.6437
20
-26.0764
11
64.6437
21
-26.8859
0
LINE
8
BLACK
6
CONTINUOUS
10
64.6437
20
-26.8859
11
64.596
21
-26.9812
0
LINE
8
BLACK
6
CONTINUOUS
10
64.596
20
-26.9812
11
64.5484
21
-27.0288
0
LINE
8
BLACK
6
CONTINUOUS
10
64.5484
20
-27.0288
11
64.4532
21
-27.0764
0
LINE
8
BLACK
6
CONTINUOUS
10
64.4532
20
-27.0764
11
64.3103
21
-27.0764
0
LINE
8
BLACK
6
CONTINUOUS
10
64.3103
20
-27.0764
11
64.2151
21
-27.0288
0
LINE
8
BLACK
6
CONTINUOUS
10
64.6437
20
-26.6955
11
64.5484
21
-26.7431
0
LINE
8
BLACK
6
CONTINUOUS
10
64.5484
20
-26.7431
11
64.358
21
-26.7431
0
LINE
8
BLACK
6
CONTINUOUS
10
64.358
20
-26.7431
11
64.2627
21
-26.6955
0
LINE
8
BLACK
6
CONTINUOUS
10
64.2627
20
-26.6955
11
64.2151
21
-26.6478
0
LINE
8
BLACK
6
CONTINUOUS
10
64.2151
20
-26.6478
11
64.1675
21
-26.5526
0
LINE
8
BLACK
6
CONTINUOUS
10
64.1675
20
-26.5526
11
64.1675
21
-26.2669
0
LINE
8
BLACK
6
CONTINUOUS
10
64.1675
20
-26.2669
11
64.2151
21
-26.1717
0
LINE
8
BLACK
6
CONTINUOUS
10
64.2151
20
-26.1717
11
64.2627
21
-26.124
0
LINE
8
BLACK
6
CONTINUOUS
10
64.2627
20
-26.124
11
64.358
21
-26.0764
0
LINE
8
BLACK
6
CONTINUOUS
10
64.358
20
-26.0764
11
64.5484
21
-26.0764
0
LINE
8
BLACK
6
CONTINUOUS
10
64.5484
20
-26.0764
11
64.6437
21
-26.124
0
LINE
8
BLACK
6
CONTINUOUS
10
65.1199
20
-26.7431
11
65.1199
21
-25.7431
0
LINE
8
BLACK
6
CONTINUOUS
10
65.1199
20
-26.2193
11
65.6913
21
-26.2193
0
LINE
8
BLACK
6
CONTINUOUS
10
65.6913
20
-26.7431
11
65.6913
21
-25.7431
0
LINE
8
BLACK
6
CONTINUOUS
10
66.3103
20
-26.7431
11
66.2151
21
-26.6955
0
LINE
8
BLACK
6
CONTINUOUS
10
66.2151
20
-26.6955
11
66.1675
21
-26.6478
0
LINE
8
BLACK
6
CONTINUOUS
10
66.1675
20
-26.6478
11
66.1199
21
-26.5526
0
LINE
8
BLACK
6
CONTINUOUS
10
66.1199
20
-26.5526
11
66.1199
21
-26.2669
0
LINE
8
BLACK
6
CONTINUOUS
10
66.1199
20
-26.2669
11
66.1675
21
-26.1717
0
LINE
8
BLACK
6
CONTINUOUS
10
66.1675
20
-26.1717
11
66.2151
21
-26.124
0
LINE
8
BLACK
6
CONTINUOUS
10
66.2151
20
-26.124
11
66.3103
21
-26.0764
0
LINE
8
BLACK
6
CONTINUOUS
10
66.3103
20
-26.0764
11
66.4532
21
-26.0764
0
LINE
8
BLACK
6
CONTINUOUS
10
66.4532
20
-26.0764
11
66.5484
21
-26.124
0
LINE
8
BLACK
6
CONTINUOUS
10
66.5484
20
-26.124
11
66.596
21
-26.1717
0
LINE
8
BLACK
6
CONTINUOUS
10
66.596
20
-26.1717
11
66.6437
21
-26.2669
0
LINE
8
BLACK
6
CONTINUOUS
10
66.6437
20
-26.2669
11
66.6437
21
-26.5526
0
LINE
8
BLACK
6
CONTINUOUS
10
66.6437
20
-26.5526
11
66.596
21
-26.6478
0
LINE
8
BLACK
6
CONTINUOUS
10
66.596
20
-26.6478
11
66.5484
21
-26.6955
0
LINE
8
BLACK
6
CONTINUOUS
10
66.5484
20
-26.6955
11
66.4532
21
-26.7431
0
LINE
8
BLACK
6
CONTINUOUS
10
66.4532
20
-26.7431
11
66.3103
21
-26.7431
0
LINE
8
BLACK
6
CONTINUOUS
10
67.2151
20
-26.7431
11
67.1199
21
-26.6955
0
LINE
8
BLACK
6
CONTINUOUS
10
67.1199
20
-26.6955
11
67.0722
21
-26.6002
0
LINE
8
BLACK
6
CONTINUOUS
10
67.0722
20
-26.6002
11
67.0722
21
-25.7431
0
LINE
8
BLACK
6
CONTINUOUS
10
67.977
20
-26.6955
11
67.8818
21
-26.7431
0
LINE
8
BLACK
6
CONTINUOUS
10
67.8818
20
-26.7431
11
67.6913
21
-26.7431
0
LINE
8
BLACK
6
CONTINUOUS
10
67.6913
20
-26.7431
11
67.596
21
-26.6955
0
LINE
8
BLACK
6
CONTINUOUS
10
67.596
20
-26.6955
11
67.5484
21
-26.6002
0
LINE
8
BLACK
6
CONTINUOUS
10
67.5484
20
-26.6002
11
67.5484
21
-26.2193
0
LINE
8
BLACK
6
CONTINUOUS
10
67.5484
20
-26.2193
11
67.596
21
-26.124
0
LINE
8
BLACK
6
CONTINUOUS
10
67.596
20
-26.124
11
67.6913
21
-26.0764
0
LINE
8
BLACK
6
CONTINUOUS
10
67.6913
20
-26.0764
11
67.8818
21
-26.0764
0
LINE
8
BLACK
6
CONTINUOUS
10
67.8818
20
-26.0764
11
67.977
21
-26.124
0
LINE
8
BLACK
6
CONTINUOUS
10
67.977
20
-26.124
11
68.0246
21
-26.2193
0
LINE
8
BLACK
6
CONTINUOUS
10
68.0246
20
-26.2193
11
68.0246
21
-26.3145
0
LINE
8
BLACK
6
CONTINUOUS
10
68.0246
20
-26.3145
11
67.5484
21
-26.4097
0
LINE
8
BLACK
6
CONTINUOUS
10
68.2151
20
-26.8383
11
68.977
21
-26.8383
0
LINE
8
BLACK
6
CONTINUOUS
10
69.2151
20
-26.7431
11
69.2151
21
-25.7431
0
LINE
8
BLACK
6
CONTINUOUS
10
69.2151
20
-25.7431
11
69.596
21
-25.7431
0
LINE
8
BLACK
6
CONTINUOUS
10
69.596
20
-25.7431
11
69.6913
21
-25.7907
0
LINE
8
BLACK
6
CONTINUOUS
10
69.6913
20
-25.7907
11
69.7389
21
-25.8383
0
LINE
8
BLACK
6
CONTINUOUS
10
69.7389
20
-25.8383
11
69.7865
21
-25.9336
0
LINE
8
BLACK
6
CONTINUOUS
10
69.7865
20
-25.9336
11
69.7865
21
-26.0764
0
LINE
8
BLACK
6
CONTINUOUS
10
69.7865
20
-26.0764
11
69.7389
21
-26.1717
0
LINE
8
BLACK
6
CONTINUOUS
10
69.7389
20
-26.1717
11
69.6913
21
-26.2193
0
LINE
8
BLACK
6
CONTINUOUS
10
69.6913
20
-26.2193
11
69.596
21
-26.2669
0
LINE
8
BLACK
6
CONTINUOUS
10
69.596
20
-26.2669
11
69.2151
21
-26.2669
0
LINE
8
BLACK
6
CONTINUOUS
10
70.6437
20
-26.7431
11
70.6437
21
-26.2193
0
LINE
8
BLACK
6
CONTINUOUS
10
70.6437
20
-26.2193
11
70.596
21
-26.124
0
LINE
8
BLACK
6
CONTINUOUS
10
70.596
20
-26.124
11
70.5008
21
-26.0764
0
LINE
8
BLACK
6
CONTINUOUS
10
70.5008
20
-26.0764
11
70.3103
21
-26.0764
0
LINE
8
BLACK
6
CONTINUOUS
10
70.3103
20
-26.0764
11
70.2151
21
-26.124
0
LINE
8
BLACK
6
CONTINUOUS
10
70.6437
20
-26.6955
11
70.5484
21
-26.7431
0
LINE
8
BLACK
6
CONTINUOUS
10
70.5484
20
-26.7431
11
70.3103
21
-26.7431
0
LINE
8
BLACK
6
CONTINUOUS
10
70.3103
20
-26.7431
11
70.2151
21
-26.6955
0
LINE
8
BLACK
6
CONTINUOUS
10
70.2151
20
-26.6955
11
70.1675
21
-26.6002
0
LINE
8
BLACK
6
CONTINUOUS
10
70.1675
20
-26.6002
11
70.1675
21
-26.505
0
LINE
8
BLACK
6
CONTINUOUS
10
70.1675
20
-26.505
11
70.2151
21
-26.4097
0
LINE
8
BLACK
6
CONTINUOUS
10
70.2151
20
-26.4097
11
70.3103
21
-26.3621
0
LINE
8
BLACK
6
CONTINUOUS
10
70.3103
20
-26.3621
11
70.5484
21
-26.3621
0
LINE
8
BLACK
6
CONTINUOUS
10
70.5484
20
-26.3621
11
70.6437
21
-26.3145
0
LINE
8
BLACK
6
CONTINUOUS
10
71.5484
20
-26.7431
11
71.5484
21
-25.7431
0
LINE
8
BLACK
6
CONTINUOUS
10
71.5484
20
-26.6955
11
71.4532
21
-26.7431
0
LINE
8
BLACK
6
CONTINUOUS
10
71.4532
20
-26.7431
11
71.2627
21
-26.7431
0
LINE
8
BLACK
6
CONTINUOUS
10
71.2627
20
-26.7431
11
71.1675
21
-26.6955
0
LINE
8
BLACK
6
CONTINUOUS
10
71.1675
20
-26.6955
11
71.1199
21
-26.6478
0
LINE
8
BLACK
6
CONTINUOUS
10
71.1199
20
-26.6478
11
71.0722
21
-26.5526
0
LINE
8
BLACK
6
CONTINUOUS
10
71.0722
20
-26.5526
11
71.0722
21
-26.2669
0
LINE
8
BLACK
6
CONTINUOUS
10
71.0722
20
-26.2669
11
71.1199
21
-26.1717
0
LINE
8
BLACK
6
CONTINUOUS
10
71.1199
20
-26.1717
11
71.1675
21
-26.124
0
LINE
8
BLACK
6
CONTINUOUS
10
71.1675
20
-26.124
11
71.2627
21
-26.0764
0
LINE
8
BLACK
6
CONTINUOUS
10
71.2627
20
-26.0764
11
71.4532
21
-26.0764
0
LINE
8
BLACK
6
CONTINUOUS
10
71.4532
20
-26.0764
11
71.5484
21
-26.124
0
LINE
8
BLACK
6
CONTINUOUS
10
63.7389
20
-23.0431
11
63.7389
21
-22.0431
0
LINE
8
BLACK
6
CONTINUOUS
10
63.7389
20
-22.5193
11
64.3103
21
-22.5193
0
LINE
8
BLACK
6
CONTINUOUS
10
64.3103
20
-23.0431
11
64.3103
21
-22.0431
0
LINE
8
BLACK
6
CONTINUOUS
10
65.2151
20
-22.3764
11
65.2151
21
-23.0431
0
LINE
8
BLACK
6
CONTINUOUS
10
64.977
20
-21.9955
11
64.7389
21
-22.7097
0
LINE
8
BLACK
6
CONTINUOUS
10
64.7389
20
-22.7097
11
65.358
21
-22.7097
0
LINE
8
BLACK
6
CONTINUOUS
10
65.7865
20
-23.0431
11
65.977
21
-23.0431
0
LINE
8
BLACK
6
CONTINUOUS
10
65.977
20
-23.0431
11
66.0722
21
-22.9955
0
LINE
8
BLACK
6
CONTINUOUS
10
66.0722
20
-22.9955
11
66.1199
21
-22.9478
0
LINE
8
BLACK
6
CONTINUOUS
10
66.1199
20
-22.9478
11
66.2151
21
-22.805
0
LINE
8
BLACK
6
CONTINUOUS
10
66.2151
20
-22.805
11
66.2627
21
-22.6145
0
LINE
8
BLACK
6
CONTINUOUS
10
66.2627
20
-22.6145
11
66.2627
21
-22.2336
0
LINE
8
BLACK
6
CONTINUOUS
10
66.2627
20
-22.2336
11
66.2151
21
-22.1383
0
LINE
8
BLACK
6
CONTINUOUS
10
66.2151
20
-22.1383
11
66.1675
21
-22.0907
0
LINE
8
BLACK
6
CONTINUOUS
10
66.1675
20
-22.0907
11
66.0722
21
-22.0431
0
LINE
8
BLACK
6
CONTINUOUS
10
66.0722
20
-22.0431
11
65.8818
21
-22.0431
0
LINE
8
BLACK
6
CONTINUOUS
10
65.8818
20
-22.0431
11
65.7865
21
-22.0907
0
LINE
8
BLACK
6
CONTINUOUS
10
65.7865
20
-22.0907
11
65.7389
21
-22.1383
0
LINE
8
BLACK
6
CONTINUOUS
10
65.7389
20
-22.1383
11
65.6913
21
-22.2336
0
LINE
8
BLACK
6
CONTINUOUS
10
65.6913
20
-22.2336
11
65.6913
21
-22.4717
0
LINE
8
BLACK
6
CONTINUOUS
10
65.6913
20
-22.4717
11
65.7389
21
-22.5669
0
LINE
8
BLACK
6
CONTINUOUS
10
65.7389
20
-22.5669
11
65.7865
21
-22.6145
0
LINE
8
BLACK
6
CONTINUOUS
10
65.7865
20
-22.6145
11
65.8818
21
-22.6621
0
LINE
8
BLACK
6
CONTINUOUS
10
65.8818
20
-22.6621
11
66.0722
21
-22.6621
0
LINE
8
BLACK
6
CONTINUOUS
10
66.0722
20
-22.6621
11
66.1675
21
-22.6145
0
LINE
8
BLACK
6
CONTINUOUS
10
66.1675
20
-22.6145
11
66.2151
21
-22.5669
0
LINE
8
BLACK
6
CONTINUOUS
10
66.2151
20
-22.5669
11
66.2627
21
-22.4717
0
LINE
8
BLACK
6
CONTINUOUS
10
269.13
20
-23.9374
11
269.13
21
-22.9374
0
LINE
8
BLACK
6
CONTINUOUS
10
269.13
20
-22.9374
11
269.463
21
-23.6517
0
LINE
8
BLACK
6
CONTINUOUS
10
269.463
20
-23.6517
11
269.796
21
-22.9374
0
LINE
8
BLACK
6
CONTINUOUS
10
269.796
20
-22.9374
11
269.796
21
-23.9374
0
LINE
8
BLACK
6
CONTINUOUS
10
270.415
20
-23.9374
11
270.32
21
-23.8898
0
LINE
8
BLACK
6
CONTINUOUS
10
270.32
20
-23.8898
11
270.273
21
-23.8421
0
LINE
8
BLACK
6
CONTINUOUS
10
270.273
20
-23.8421
11
270.225
21
-23.7469
0
LINE
8
BLACK
6
CONTINUOUS
10
270.225
20
-23.7469
11
270.225
21
-23.4612
0
LINE
8
BLACK
6
CONTINUOUS
10
270.225
20
-23.4612
11
270.273
21
-23.366
0
LINE
8
BLACK
6
CONTINUOUS
10
270.273
20
-23.366
11
270.32
21
-23.3183
0
LINE
8
BLACK
6
CONTINUOUS
10
270.32
20
-23.3183
11
270.415
21
-23.2707
0
LINE
8
BLACK
6
CONTINUOUS
10
270.415
20
-23.2707
11
270.558
21
-23.2707
0
LINE
8
BLACK
6
CONTINUOUS
10
270.558
20
-23.2707
11
270.653
21
-23.3183
0
LINE
8
BLACK
6
CONTINUOUS
10
270.653
20
-23.3183
11
270.701
21
-23.366
0
LINE
8
BLACK
6
CONTINUOUS
10
270.701
20
-23.366
11
270.749
21
-23.4612
0
LINE
8
BLACK
6
CONTINUOUS
10
270.749
20
-23.4612
11
270.749
21
-23.7469
0
LINE
8
BLACK
6
CONTINUOUS
10
270.749
20
-23.7469
11
270.701
21
-23.8421
0
LINE
8
BLACK
6
CONTINUOUS
10
270.701
20
-23.8421
11
270.653
21
-23.8898
0
LINE
8
BLACK
6
CONTINUOUS
10
270.653
20
-23.8898
11
270.558
21
-23.9374
0
LINE
8
BLACK
6
CONTINUOUS
10
270.558
20
-23.9374
11
270.415
21
-23.9374
0
LINE
8
BLACK
6
CONTINUOUS
10
271.606
20
-23.2707
11
271.606
21
-23.9374
0
LINE
8
BLACK
6
CONTINUOUS
10
271.177
20
-23.2707
11
271.177
21
-23.7945
0
LINE
8
BLACK
6
CONTINUOUS
10
271.177
20
-23.7945
11
271.225
21
-23.8898
0
LINE
8
BLACK
6
CONTINUOUS
10
271.225
20
-23.8898
11
271.32
21
-23.9374
0
LINE
8
BLACK
6
CONTINUOUS
10
271.32
20
-23.9374
11
271.463
21
-23.9374
0
LINE
8
BLACK
6
CONTINUOUS
10
271.463
20
-23.9374
11
271.558
21
-23.8898
0
LINE
8
BLACK
6
CONTINUOUS
10
271.558
20
-23.8898
11
271.606
21
-23.8421
0
LINE
8
BLACK
6
CONTINUOUS
10
272.082
20
-23.2707
11
272.082
21
-23.9374
0
LINE
8
BLACK
6
CONTINUOUS
10
272.082
20
-23.366
11
272.13
21
-23.3183
0
LINE
8
BLACK
6
CONTINUOUS
10
272.13
20
-23.3183
11
272.225
21
-23.2707
0
LINE
8
BLACK
6
CONTINUOUS
10
272.225
20
-23.2707
11
272.368
21
-23.2707
0
LINE
8
BLACK
6
CONTINUOUS
10
272.368
20
-23.2707
11
272.463
21
-23.3183
0
LINE
8
BLACK
6
CONTINUOUS
10
272.463
20
-23.3183
11
272.511
21
-23.4136
0
LINE
8
BLACK
6
CONTINUOUS
10
272.511
20
-23.4136
11
272.511
21
-23.9374
0
LINE
8
BLACK
6
CONTINUOUS
10
272.844
20
-23.2707
11
273.225
21
-23.2707
0
LINE
8
BLACK
6
CONTINUOUS
10
272.987
20
-22.9374
11
272.987
21
-23.7945
0
LINE
8
BLACK
6
CONTINUOUS
10
272.987
20
-23.7945
11
273.034
21
-23.8898
0
LINE
8
BLACK
6
CONTINUOUS
10
273.034
20
-23.8898
11
273.13
21
-23.9374
0
LINE
8
BLACK
6
CONTINUOUS
10
273.13
20
-23.9374
11
273.225
21
-23.9374
0
LINE
8
BLACK
6
CONTINUOUS
10
273.558
20
-23.9374
11
273.558
21
-23.2707
0
LINE
8
BLACK
6
CONTINUOUS
10
273.558
20
-22.9374
11
273.511
21
-22.985
0
LINE
8
BLACK
6
CONTINUOUS
10
273.511
20
-22.985
11
273.558
21
-23.0326
0
LINE
8
BLACK
6
CONTINUOUS
10
273.558
20
-23.0326
11
273.606
21
-22.985
0
LINE
8
BLACK
6
CONTINUOUS
10
273.606
20
-22.985
11
273.558
21
-22.9374
0
LINE
8
BLACK
6
CONTINUOUS
10
273.558
20
-22.9374
11
273.558
21
-23.0326
0
LINE
8
BLACK
6
CONTINUOUS
10
274.034
20
-23.2707
11
274.034
21
-23.9374
0
LINE
8
BLACK
6
CONTINUOUS
10
274.034
20
-23.366
11
274.082
21
-23.3183
0
LINE
8
BLACK
6
CONTINUOUS
10
274.082
20
-23.3183
11
274.177
21
-23.2707
0
LINE
8
BLACK
6
CONTINUOUS
10
274.177
20
-23.2707
11
274.32
21
-23.2707
0
LINE
8
BLACK
6
CONTINUOUS
10
274.32
20
-23.2707
11
274.415
21
-23.3183
0
LINE
8
BLACK
6
CONTINUOUS
10
274.415
20
-23.3183
11
274.463
21
-23.4136
0
LINE
8
BLACK
6
CONTINUOUS
10
274.463
20
-23.4136
11
274.463
21
-23.9374
0
LINE
8
BLACK
6
CONTINUOUS
10
275.368
20
-23.2707
11
275.368
21
-24.0802
0
LINE
8
BLACK
6
CONTINUOUS
10
275.368
20
-24.0802
11
275.32
21
-24.1755
0
LINE
8
BLACK
6
CONTINUOUS
10
275.32
20
-24.1755
11
275.273
21
-24.2231
0
LINE
8
BLACK
6
CONTINUOUS
10
275.273
20
-24.2231
11
275.177
21
-24.2707
0
LINE
8
BLACK
6
CONTINUOUS
10
275.177
20
-24.2707
11
275.034
21
-24.2707
0
LINE
8
BLACK
6
CONTINUOUS
10
275.034
20
-24.2707
11
274.939
21
-24.2231
0
LINE
8
BLACK
6
CONTINUOUS
10
275.368
20
-23.8898
11
275.273
21
-23.9374
0
LINE
8
BLACK
6
CONTINUOUS
10
275.273
20
-23.9374
11
275.082
21
-23.9374
0
LINE
8
BLACK
6
CONTINUOUS
10
275.082
20
-23.9374
11
274.987
21
-23.8898
0
LINE
8
BLACK
6
CONTINUOUS
10
274.987
20
-23.8898
11
274.939
21
-23.8421
0
LINE
8
BLACK
6
CONTINUOUS
10
274.939
20
-23.8421
11
274.892
21
-23.7469
0
LINE
8
BLACK
6
CONTINUOUS
10
274.892
20
-23.7469
11
274.892
21
-23.4612
0
LINE
8
BLACK
6
CONTINUOUS
10
274.892
20
-23.4612
11
274.939
21
-23.366
0
LINE
8
BLACK
6
CONTINUOUS
10
274.939
20
-23.366
11
274.987
21
-23.3183
0
LINE
8
BLACK
6
CONTINUOUS
10
274.987
20
-23.3183
11
275.082
21
-23.2707
0
LINE
8
BLACK
6
CONTINUOUS
10
275.082
20
-23.2707
11
275.273
21
-23.2707
0
LINE
8
BLACK
6
CONTINUOUS
10
275.273
20
-23.2707
11
275.368
21
-23.3183
0
LINE
8
BLACK
6
CONTINUOUS
10
275.844
20
-23.9374
11
275.844
21
-22.9374
0
LINE
8
BLACK
6
CONTINUOUS
10
275.844
20
-23.4136
11
276.415
21
-23.4136
0
LINE
8
BLACK
6
CONTINUOUS
10
276.415
20
-23.9374
11
276.415
21
-22.9374
0
LINE
8
BLACK
6
CONTINUOUS
10
277.034
20
-23.9374
11
276.939
21
-23.8898
0
LINE
8
BLACK
6
CONTINUOUS
10
276.939
20
-23.8898
11
276.892
21
-23.8421
0
LINE
8
BLACK
6
CONTINUOUS
10
276.892
20
-23.8421
11
276.844
21
-23.7469
0
LINE
8
BLACK
6
CONTINUOUS
10
276.844
20
-23.7469
11
276.844
21
-23.4612
0
LINE
8
BLACK
6
CONTINUOUS
10
276.844
20
-23.4612
11
276.892
21
-23.366
0
LINE
8
BLACK
6
CONTINUOUS
10
276.892
20
-23.366
11
276.939
21
-23.3183
0
LINE
8
BLACK
6
CONTINUOUS
10
276.939
20
-23.3183
11
277.034
21
-23.2707
0
LINE
8
BLACK
6
CONTINUOUS
10
277.034
20
-23.2707
11
277.177
21
-23.2707
0
LINE
8
BLACK
6
CONTINUOUS
10
277.177
20
-23.2707
11
277.273
21
-23.3183
0
LINE
8
BLACK
6
CONTINUOUS
10
277.273
20
-23.3183
11
277.32
21
-23.366
0
LINE
8
BLACK
6
CONTINUOUS
10
277.32
20
-23.366
11
277.368
21
-23.4612
0
LINE
8
BLACK
6
CONTINUOUS
10
277.368
20
-23.4612
11
277.368
21
-23.7469
0
LINE
8
BLACK
6
CONTINUOUS
10
277.368
20
-23.7469
11
277.32
21
-23.8421
0
LINE
8
BLACK
6
CONTINUOUS
10
277.32
20
-23.8421
11
277.273
21
-23.8898
0
LINE
8
BLACK
6
CONTINUOUS
10
277.273
20
-23.8898
11
277.177
21
-23.9374
0
LINE
8
BLACK
6
CONTINUOUS
10
277.177
20
-23.9374
11
277.034
21
-23.9374
0
LINE
8
BLACK
6
CONTINUOUS
10
277.939
20
-23.9374
11
277.844
21
-23.8898
0
LINE
8
BLACK
6
CONTINUOUS
10
277.844
20
-23.8898
11
277.796
21
-23.7945
0
LINE
8
BLACK
6
CONTINUOUS
10
277.796
20
-23.7945
11
277.796
21
-22.9374
0
LINE
8
BLACK
6
CONTINUOUS
10
278.701
20
-23.8898
11
278.606
21
-23.9374
0
LINE
8
BLACK
6
CONTINUOUS
10
278.606
20
-23.9374
11
278.415
21
-23.9374
0
LINE
8
BLACK
6
CONTINUOUS
10
278.415
20
-23.9374
11
278.32
21
-23.8898
0
LINE
8
BLACK
6
CONTINUOUS
10
278.32
20
-23.8898
11
278.273
21
-23.7945
0
LINE
8
BLACK
6
CONTINUOUS
10
278.273
20
-23.7945
11
278.273
21
-23.4136
0
LINE
8
BLACK
6
CONTINUOUS
10
278.273
20
-23.4136
11
278.32
21
-23.3183
0
LINE
8
BLACK
6
CONTINUOUS
10
278.32
20
-23.3183
11
278.415
21
-23.2707
0
LINE
8
BLACK
6
CONTINUOUS
10
278.415
20
-23.2707
11
278.606
21
-23.2707
0
LINE
8
BLACK
6
CONTINUOUS
10
278.606
20
-23.2707
11
278.701
21
-23.3183
0
LINE
8
BLACK
6
CONTINUOUS
10
278.701
20
-23.3183
11
278.749
21
-23.4136
0
LINE
8
BLACK
6
CONTINUOUS
10
278.749
20
-23.4136
11
278.749
21
-23.5088
0
LINE
8
BLACK
6
CONTINUOUS
10
278.749
20
-23.5088
11
278.273
21
-23.604
0
LINE
8
BLACK
6
CONTINUOUS
10
278.939
20
-24.0326
11
279.701
21
-24.0326
0
LINE
8
BLACK
6
CONTINUOUS
10
279.939
20
-23.9374
11
279.939
21
-22.9374
0
LINE
8
BLACK
6
CONTINUOUS
10
279.939
20
-22.9374
11
280.32
21
-22.9374
0
LINE
8
BLACK
6
CONTINUOUS
10
280.32
20
-22.9374
11
280.415
21
-22.985
0
LINE
8
BLACK
6
CONTINUOUS
10
280.415
20
-22.985
11
280.463
21
-23.0326
0
LINE
8
BLACK
6
CONTINUOUS
10
280.463
20
-23.0326
11
280.511
21
-23.1279
0
LINE
8
BLACK
6
CONTINUOUS
10
280.511
20
-23.1279
11
280.511
21
-23.2707
0
LINE
8
BLACK
6
CONTINUOUS
10
280.511
20
-23.2707
11
280.463
21
-23.366
0
LINE
8
BLACK
6
CONTINUOUS
10
280.463
20
-23.366
11
280.415
21
-23.4136
0
LINE
8
BLACK
6
CONTINUOUS
10
280.415
20
-23.4136
11
280.32
21
-23.4612
0
LINE
8
BLACK
6
CONTINUOUS
10
280.32
20
-23.4612
11
279.939
21
-23.4612
0
LINE
8
BLACK
6
CONTINUOUS
10
281.368
20
-23.9374
11
281.368
21
-23.4136
0
LINE
8
BLACK
6
CONTINUOUS
10
281.368
20
-23.4136
11
281.32
21
-23.3183
0
LINE
8
BLACK
6
CONTINUOUS
10
281.32
20
-23.3183
11
281.225
21
-23.2707
0
LINE
8
BLACK
6
CONTINUOUS
10
281.225
20
-23.2707
11
281.034
21
-23.2707
0
LINE
8
BLACK
6
CONTINUOUS
10
281.034
20
-23.2707
11
280.939
21
-23.3183
0
LINE
8
BLACK
6
CONTINUOUS
10
281.368
20
-23.8898
11
281.273
21
-23.9374
0
LINE
8
BLACK
6
CONTINUOUS
10
281.273
20
-23.9374
11
281.034
21
-23.9374
0
LINE
8
BLACK
6
CONTINUOUS
10
281.034
20
-23.9374
11
280.939
21
-23.8898
0
LINE
8
BLACK
6
CONTINUOUS
10
280.939
20
-23.8898
11
280.892
21
-23.7945
0
LINE
8
BLACK
6
CONTINUOUS
10
280.892
20
-23.7945
11
280.892
21
-23.6993
0
LINE
8
BLACK
6
CONTINUOUS
10
280.892
20
-23.6993
11
280.939
21
-23.604
0
LINE
8
BLACK
6
CONTINUOUS
10
280.939
20
-23.604
11
281.034
21
-23.5564
0
LINE
8
BLACK
6
CONTINUOUS
10
281.034
20
-23.5564
11
281.273
21
-23.5564
0
LINE
8
BLACK
6
CONTINUOUS
10
281.273
20
-23.5564
11
281.368
21
-23.5088
0
LINE
8
BLACK
6
CONTINUOUS
10
282.273
20
-23.9374
11
282.273
21
-22.9374
0
LINE
8
BLACK
6
CONTINUOUS
10
282.273
20
-23.8898
11
282.177
21
-23.9374
0
LINE
8
BLACK
6
CONTINUOUS
10
282.177
20
-23.9374
11
281.987
21
-23.9374
0
LINE
8
BLACK
6
CONTINUOUS
10
281.987
20
-23.9374
11
281.892
21
-23.8898
0
LINE
8
BLACK
6
CONTINUOUS
10
281.892
20
-23.8898
11
281.844
21
-23.8421
0
LINE
8
BLACK
6
CONTINUOUS
10
281.844
20
-23.8421
11
281.796
21
-23.7469
0
LINE
8
BLACK
6
CONTINUOUS
10
281.796
20
-23.7469
11
281.796
21
-23.4612
0
LINE
8
BLACK
6
CONTINUOUS
10
281.796
20
-23.4612
11
281.844
21
-23.366
0
LINE
8
BLACK
6
CONTINUOUS
10
281.844
20
-23.366
11
281.892
21
-23.3183
0
LINE
8
BLACK
6
CONTINUOUS
10
281.892
20
-23.3183
11
281.987
21
-23.2707
0
LINE
8
BLACK
6
CONTINUOUS
10
281.987
20
-23.2707
11
282.177
21
-23.2707
0
LINE
8
BLACK
6
CONTINUOUS
10
282.177
20
-23.2707
11
282.273
21
-23.3183
0
LINE
8
BLACK
6
CONTINUOUS
10
274.463
20
-20.2374
11
274.463
21
-19.2374
0
LINE
8
BLACK
6
CONTINUOUS
10
274.463
20
-19.7136
11
275.034
21
-19.7136
0
LINE
8
BLACK
6
CONTINUOUS
10
275.034
20
-20.2374
11
275.034
21
-19.2374
0
LINE
8
BLACK
6
CONTINUOUS
10
275.987
20
-19.2374
11
275.511
21
-19.2374
0
LINE
8
BLACK
6
CONTINUOUS
10
275.511
20
-19.2374
11
275.463
21
-19.7136
0
LINE
8
BLACK
6
CONTINUOUS
10
275.463
20
-19.7136
11
275.511
21
-19.666
0
LINE
8
BLACK
6
CONTINUOUS
10
275.511
20
-19.666
11
275.606
21
-19.6183
0
LINE
8
BLACK
6
CONTINUOUS
10
275.606
20
-19.6183
11
275.844
21
-19.6183
0
LINE
8
BLACK
6
CONTINUOUS
10
275.844
20
-19.6183
11
275.939
21
-19.666
0
LINE
8
BLACK
6
CONTINUOUS
10
275.939
20
-19.666
11
275.987
21
-19.7136
0
LINE
8
BLACK
6
CONTINUOUS
10
275.987
20
-19.7136
11
276.034
21
-19.8088
0
LINE
8
BLACK
6
CONTINUOUS
10
276.034
20
-19.8088
11
276.034
21
-20.0469
0
LINE
8
BLACK
6
CONTINUOUS
10
276.034
20
-20.0469
11
275.987
21
-20.1421
0
LINE
8
BLACK
6
CONTINUOUS
10
275.987
20
-20.1421
11
275.939
21
-20.1898
0
LINE
8
BLACK
6
CONTINUOUS
10
275.939
20
-20.1898
11
275.844
21
-20.2374
0
LINE
8
BLACK
6
CONTINUOUS
10
275.844
20
-20.2374
11
275.606
21
-20.2374
0
LINE
8
BLACK
6
CONTINUOUS
10
275.606
20
-20.2374
11
275.511
21
-20.1898
0
LINE
8
BLACK
6
CONTINUOUS
10
275.511
20
-20.1898
11
275.463
21
-20.1421
0
LINE
8
BLACK
6
CONTINUOUS
10
276.939
20
-19.2374
11
276.463
21
-19.2374
0
LINE
8
BLACK
6
CONTINUOUS
10
276.463
20
-19.2374
11
276.415
21
-19.7136
0
LINE
8
BLACK
6
CONTINUOUS
10
276.415
20
-19.7136
11
276.463
21
-19.666
0
LINE
8
BLACK
6
CONTINUOUS
10
276.463
20
-19.666
11
276.558
21
-19.6183
0
LINE
8
BLACK
6
CONTINUOUS
10
276.558
20
-19.6183
11
276.796
21
-19.6183
0
LINE
8
BLACK
6
CONTINUOUS
10
276.796
20
-19.6183
11
276.892
21
-19.666
0
LINE
8
BLACK
6
CONTINUOUS
10
276.892
20
-19.666
11
276.939
21
-19.7136
0
LINE
8
BLACK
6
CONTINUOUS
10
276.939
20
-19.7136
11
276.987
21
-19.8088
0
LINE
8
BLACK
6
CONTINUOUS
10
276.987
20
-19.8088
11
276.987
21
-20.0469
0
LINE
8
BLACK
6
CONTINUOUS
10
276.987
20
-20.0469
11
276.939
21
-20.1421
0
LINE
8
BLACK
6
CONTINUOUS
10
276.939
20
-20.1421
11
276.892
21
-20.1898
0
LINE
8
BLACK
6
CONTINUOUS
10
276.892
20
-20.1898
11
276.796
21
-20.2374
0
LINE
8
BLACK
6
CONTINUOUS
10
276.796
20
-20.2374
11
276.558
21
-20.2374
0
LINE
8
BLACK
6
CONTINUOUS
10
276.558
20
-20.2374
11
276.463
21
-20.1898
0
LINE
8
BLACK
6
CONTINUOUS
10
276.463
20
-20.1898
11
276.415
21
-20.1421
0
LINE
8
BLACK
6
CONTINUOUS
10
316.716
20
28.7726
11
316.716
21
29.7726
0
LINE
8
BLACK
6
CONTINUOUS
10
316.716
20
29.7726
11
317.05
21
29.0583
0
LINE
8
BLACK
6
CONTINUOUS
10
317.05
20
29.0583
11
317.383
21
29.7726
0
LINE
8
BLACK
6
CONTINUOUS
10
317.383
20
29.7726
11
317.383
21
28.7726
0
LINE
8
BLACK
6
CONTINUOUS
10
317.811
20
29.6774
11
317.859
21
29.725
0
LINE
8
BLACK
6
CONTINUOUS
10
317.859
20
29.725
11
317.954
21
29.7726
0
LINE
8
BLACK
6
CONTINUOUS
10
317.954
20
29.7726
11
318.192
21
29.7726
0
LINE
8
BLACK
6
CONTINUOUS
10
318.192
20
29.7726
11
318.288
21
29.725
0
LINE
8
BLACK
6
CONTINUOUS
10
318.288
20
29.725
11
318.335
21
29.6774
0
LINE
8
BLACK
6
CONTINUOUS
10
318.335
20
29.6774
11
318.383
21
29.5821
0
LINE
8
BLACK
6
CONTINUOUS
10
318.383
20
29.5821
11
318.383
21
29.4869
0
LINE
8
BLACK
6
CONTINUOUS
10
318.383
20
29.4869
11
318.335
21
29.344
0
LINE
8
BLACK
6
CONTINUOUS
10
318.335
20
29.344
11
317.764
21
28.7726
0
LINE
8
BLACK
6
CONTINUOUS
10
317.764
20
28.7726
11
318.383
21
28.7726
0
LINE
8
BLACK
6
CONTINUOUS
10
318.811
20
28.8679
11
318.859
21
28.8202
0
LINE
8
BLACK
6
CONTINUOUS
10
318.859
20
28.8202
11
318.811
21
28.7726
0
LINE
8
BLACK
6
CONTINUOUS
10
318.811
20
28.7726
11
318.764
21
28.8202
0
LINE
8
BLACK
6
CONTINUOUS
10
318.764
20
28.8202
11
318.811
21
28.8679
0
LINE
8
BLACK
6
CONTINUOUS
10
318.811
20
28.8679
11
318.811
21
28.7726
0
LINE
8
BLACK
6
CONTINUOUS
10
319.764
20
29.7726
11
319.288
21
29.7726
0
LINE
8
BLACK
6
CONTINUOUS
10
319.288
20
29.7726
11
319.24
21
29.2964
0
LINE
8
BLACK
6
CONTINUOUS
10
319.24
20
29.2964
11
319.288
21
29.344
0
LINE
8
BLACK
6
CONTINUOUS
10
319.288
20
29.344
11
319.383
21
29.3917
0
LINE
8
BLACK
6
CONTINUOUS
10
319.383
20
29.3917
11
319.621
21
29.3917
0
LINE
8
BLACK
6
CONTINUOUS
10
319.621
20
29.3917
11
319.716
21
29.344
0
LINE
8
BLACK
6
CONTINUOUS
10
319.716
20
29.344
11
319.764
21
29.2964
0
LINE
8
BLACK
6
CONTINUOUS
10
319.764
20
29.2964
11
319.811
21
29.2012
0
LINE
8
BLACK
6
CONTINUOUS
10
319.811
20
29.2012
11
319.811
21
28.9631
0
LINE
8
BLACK
6
CONTINUOUS
10
319.811
20
28.9631
11
319.764
21
28.8679
0
LINE
8
BLACK
6
CONTINUOUS
10
319.764
20
28.8679
11
319.716
21
28.8202
0
LINE
8
BLACK
6
CONTINUOUS
10
319.716
20
28.8202
11
319.621
21
28.7726
0
LINE
8
BLACK
6
CONTINUOUS
10
319.621
20
28.7726
11
319.383
21
28.7726
0
LINE
8
BLACK
6
CONTINUOUS
10
319.383
20
28.7726
11
319.288
21
28.8202
0
LINE
8
BLACK
6
CONTINUOUS
10
319.288
20
28.8202
11
319.24
21
28.8679
0
LINE
8
BLACK
6
CONTINUOUS
10
317.478
20
32.4726
11
317.478
21
33.4726
0
LINE
8
BLACK
6
CONTINUOUS
10
317.478
20
32.9964
11
318.05
21
32.9964
0
LINE
8
BLACK
6
CONTINUOUS
10
318.05
20
32.4726
11
318.05
21
33.4726
0
LINE
8
BLACK
6
CONTINUOUS
10
318.954
20
33.4726
11
318.764
21
33.4726
0
LINE
8
BLACK
6
CONTINUOUS
10
318.764
20
33.4726
11
318.669
21
33.425
0
LINE
8
BLACK
6
CONTINUOUS
10
318.669
20
33.425
11
318.621
21
33.3774
0
LINE
8
BLACK
6
CONTINUOUS
10
318.621
20
33.3774
11
318.526
21
33.2345
0
LINE
8
BLACK
6
CONTINUOUS
10
318.526
20
33.2345
11
318.478
21
33.044
0
LINE
8
BLACK
6
CONTINUOUS
10
318.478
20
33.044
11
318.478
21
32.6631
0
LINE
8
BLACK
6
CONTINUOUS
10
318.478
20
32.6631
11
318.526
21
32.5679
0
LINE
8
BLACK
6
CONTINUOUS
10
318.526
20
32.5679
11
318.573
21
32.5202
0
LINE
8
BLACK
6
CONTINUOUS
10
318.573
20
32.5202
11
318.669
21
32.4726
0
LINE
8
BLACK
6
CONTINUOUS
10
318.669
20
32.4726
11
318.859
21
32.4726
0
LINE
8
BLACK
6
CONTINUOUS
10
318.859
20
32.4726
11
318.954
21
32.5202
0
LINE
8
BLACK
6
CONTINUOUS
10
318.954
20
32.5202
11
319.002
21
32.5679
0
LINE
8
BLACK
6
CONTINUOUS
10
319.002
20
32.5679
11
319.05
21
32.6631
0
LINE
8
BLACK
6
CONTINUOUS
10
319.05
20
32.6631
11
319.05
21
32.9012
0
LINE
8
BLACK
6
CONTINUOUS
10
319.05
20
32.9012
11
319.002
21
32.9964
0
LINE
8
BLACK
6
CONTINUOUS
10
319.002
20
32.9964
11
318.954
21
33.044
0
LINE
8
BLACK
6
CONTINUOUS
10
318.954
20
33.044
11
318.859
21
33.0917
0
LINE
8
BLACK
6
CONTINUOUS
10
318.859
20
33.0917
11
318.669
21
33.0917
0
LINE
8
BLACK
6
CONTINUOUS
10
318.669
20
33.0917
11
318.573
21
33.044
0
LINE
8
BLACK
6
CONTINUOUS
10
318.573
20
33.044
11
318.526
21
32.9964
0
LINE
8
BLACK
6
CONTINUOUS
10
318.526
20
32.9964
11
318.478
21
32.9012
0
LINE
8
BLACK
6
CONTINUOUS
10
316.716
20
9.97262
11
316.716
21
10.9726
0
LINE
8
BLACK
6
CONTINUOUS
10
316.716
20
10.9726
11
317.05
21
10.2583
0
LINE
8
BLACK
6
CONTINUOUS
10
317.05
20
10.2583
11
317.383
21
10.9726
0
LINE
8
BLACK
6
CONTINUOUS
10
317.383
20
10.9726
11
317.383
21
9.97262
0
LINE
8
BLACK
6
CONTINUOUS
10
317.811
20
10.8774
11
317.859
21
10.925
0
LINE
8
BLACK
6
CONTINUOUS
10
317.859
20
10.925
11
317.954
21
10.9726
0
LINE
8
BLACK
6
CONTINUOUS
10
317.954
20
10.9726
11
318.192
21
10.9726
0
LINE
8
BLACK
6
CONTINUOUS
10
318.192
20
10.9726
11
318.288
21
10.925
0
LINE
8
BLACK
6
CONTINUOUS
10
318.288
20
10.925
11
318.335
21
10.8774
0
LINE
8
BLACK
6
CONTINUOUS
10
318.335
20
10.8774
11
318.383
21
10.7821
0
LINE
8
BLACK
6
CONTINUOUS
10
318.383
20
10.7821
11
318.383
21
10.6869
0
LINE
8
BLACK
6
CONTINUOUS
10
318.383
20
10.6869
11
318.335
21
10.544
0
LINE
8
BLACK
6
CONTINUOUS
10
318.335
20
10.544
11
317.764
21
9.97262
0
LINE
8
BLACK
6
CONTINUOUS
10
317.764
20
9.97262
11
318.383
21
9.97262
0
LINE
8
BLACK
6
CONTINUOUS
10
318.811
20
10.0679
11
318.859
21
10.0202
0
LINE
8
BLACK
6
CONTINUOUS
10
318.859
20
10.0202
11
318.811
21
9.97262
0
LINE
8
BLACK
6
CONTINUOUS
10
318.811
20
9.97262
11
318.764
21
10.0202
0
LINE
8
BLACK
6
CONTINUOUS
10
318.764
20
10.0202
11
318.811
21
10.0679
0
LINE
8
BLACK
6
CONTINUOUS
10
318.811
20
10.0679
11
318.811
21
9.97262
0
LINE
8
BLACK
6
CONTINUOUS
10
319.764
20
10.9726
11
319.288
21
10.9726
0
LINE
8
BLACK
6
CONTINUOUS
10
319.288
20
10.9726
11
319.24
21
10.4964
0
LINE
8
BLACK
6
CONTINUOUS
10
319.24
20
10.4964
11
319.288
21
10.544
0
LINE
8
BLACK
6
CONTINUOUS
10
319.288
20
10.544
11
319.383
21
10.5917
0
LINE
8
BLACK
6
CONTINUOUS
10
319.383
20
10.5917
11
319.621
21
10.5917
0
LINE
8
BLACK
6
CONTINUOUS
10
319.621
20
10.5917
11
319.716
21
10.544
0
LINE
8
BLACK
6
CONTINUOUS
10
319.716
20
10.544
11
319.764
21
10.4964
0
LINE
8
BLACK
6
CONTINUOUS
10
319.764
20
10.4964
11
319.811
21
10.4012
0
LINE
8
BLACK
6
CONTINUOUS
10
319.811
20
10.4012
11
319.811
21
10.1631
0
LINE
8
BLACK
6
CONTINUOUS
10
319.811
20
10.1631
11
319.764
21
10.0679
0
LINE
8
BLACK
6
CONTINUOUS
10
319.764
20
10.0679
11
319.716
21
10.0202
0
LINE
8
BLACK
6
CONTINUOUS
10
319.716
20
10.0202
11
319.621
21
9.97262
0
LINE
8
BLACK
6
CONTINUOUS
10
319.621
20
9.97262
11
319.383
21
9.97262
0
LINE
8
BLACK
6
CONTINUOUS
10
319.383
20
9.97262
11
319.288
21
10.0202
0
LINE
8
BLACK
6
CONTINUOUS
10
319.288
20
10.0202
11
319.24
21
10.0679
0
LINE
8
BLACK
6
CONTINUOUS
10
317.478
20
13.6726
11
317.478
21
14.6726
0
LINE
8
BLACK
6
CONTINUOUS
10
317.478
20
14.1964
11
318.05
21
14.1964
0
LINE
8
BLACK
6
CONTINUOUS
10
318.05
20
13.6726
11
318.05
21
14.6726
0
LINE
8
BLACK
6
CONTINUOUS
10
318.43
20
14.6726
11
319.097
21
14.6726
0
LINE
8
BLACK
6
CONTINUOUS
10
319.097
20
14.6726
11
318.669
21
13.6726
0
LINE
8
BLACK
6
CONTINUOUS
10
309.578
20
-61.3596
11
309.578
21
-60.3596
0
LINE
8
BLACK
6
CONTINUOUS
10
309.578
20
-60.3596
11
309.911
21
-61.0739
0
LINE
8
BLACK
6
CONTINUOUS
10
309.911
20
-61.0739
11
310.244
21
-60.3596
0
LINE
8
BLACK
6
CONTINUOUS
10
310.244
20
-60.3596
11
310.244
21
-61.3596
0
LINE
8
BLACK
6
CONTINUOUS
10
310.863
20
-61.3596
11
310.768
21
-61.312
0
LINE
8
BLACK
6
CONTINUOUS
10
310.768
20
-61.312
11
310.72
21
-61.2643
0
LINE
8
BLACK
6
CONTINUOUS
10
310.72
20
-61.2643
11
310.673
21
-61.1691
0
LINE
8
BLACK
6
CONTINUOUS
10
310.673
20
-61.1691
11
310.673
21
-60.8834
0
LINE
8
BLACK
6
CONTINUOUS
10
310.673
20
-60.8834
11
310.72
21
-60.7882
0
LINE
8
BLACK
6
CONTINUOUS
10
310.72
20
-60.7882
11
310.768
21
-60.7405
0
LINE
8
BLACK
6
CONTINUOUS
10
310.768
20
-60.7405
11
310.863
21
-60.6929
0
LINE
8
BLACK
6
CONTINUOUS
10
310.863
20
-60.6929
11
311.006
21
-60.6929
0
LINE
8
BLACK
6
CONTINUOUS
10
311.006
20
-60.6929
11
311.101
21
-60.7405
0
LINE
8
BLACK
6
CONTINUOUS
10
311.101
20
-60.7405
11
311.149
21
-60.7882
0
LINE
8
BLACK
6
CONTINUOUS
10
311.149
20
-60.7882
11
311.197
21
-60.8834
0
LINE
8
BLACK
6
CONTINUOUS
10
311.197
20
-60.8834
11
311.197
21
-61.1691
0
LINE
8
BLACK
6
CONTINUOUS
10
311.197
20
-61.1691
11
311.149
21
-61.2643
0
LINE
8
BLACK
6
CONTINUOUS
10
311.149
20
-61.2643
11
311.101
21
-61.312
0
LINE
8
BLACK
6
CONTINUOUS
10
311.101
20
-61.312
11
311.006
21
-61.3596
0
LINE
8
BLACK
6
CONTINUOUS
10
311.006
20
-61.3596
11
310.863
21
-61.3596
0
LINE
8
BLACK
6
CONTINUOUS
10
312.054
20
-60.6929
11
312.054
21
-61.3596
0
LINE
8
BLACK
6
CONTINUOUS
10
311.625
20
-60.6929
11
311.625
21
-61.2167
0
LINE
8
BLACK
6
CONTINUOUS
10
311.625
20
-61.2167
11
311.673
21
-61.312
0
LINE
8
BLACK
6
CONTINUOUS
10
311.673
20
-61.312
11
311.768
21
-61.3596
0
LINE
8
BLACK
6
CONTINUOUS
10
311.768
20
-61.3596
11
311.911
21
-61.3596
0
LINE
8
BLACK
6
CONTINUOUS
10
311.911
20
-61.3596
11
312.006
21
-61.312
0
LINE
8
BLACK
6
CONTINUOUS
10
312.006
20
-61.312
11
312.054
21
-61.2643
0
LINE
8
BLACK
6
CONTINUOUS
10
312.53
20
-60.6929
11
312.53
21
-61.3596
0
LINE
8
BLACK
6
CONTINUOUS
10
312.53
20
-60.7882
11
312.578
21
-60.7405
0
LINE
8
BLACK
6
CONTINUOUS
10
312.578
20
-60.7405
11
312.673
21
-60.6929
0
LINE
8
BLACK
6
CONTINUOUS
10
312.673
20
-60.6929
11
312.816
21
-60.6929
0
LINE
8
BLACK
6
CONTINUOUS
10
312.816
20
-60.6929
11
312.911
21
-60.7405
0
LINE
8
BLACK
6
CONTINUOUS
10
312.911
20
-60.7405
11
312.959
21
-60.8358
0
LINE
8
BLACK
6
CONTINUOUS
10
312.959
20
-60.8358
11
312.959
21
-61.3596
0
LINE
8
BLACK
6
CONTINUOUS
10
313.292
20
-60.6929
11
313.673
21
-60.6929
0
LINE
8
BLACK
6
CONTINUOUS
10
313.435
20
-60.3596
11
313.435
21
-61.2167
0
LINE
8
BLACK
6
CONTINUOUS
10
313.435
20
-61.2167
11
313.482
21
-61.312
0
LINE
8
BLACK
6
CONTINUOUS
10
313.482
20
-61.312
11
313.578
21
-61.3596
0
LINE
8
BLACK
6
CONTINUOUS
10
313.578
20
-61.3596
11
313.673
21
-61.3596
0
LINE
8
BLACK
6
CONTINUOUS
10
314.006
20
-61.3596
11
314.006
21
-60.6929
0
LINE
8
BLACK
6
CONTINUOUS
10
314.006
20
-60.3596
11
313.959
21
-60.4072
0
LINE
8
BLACK
6
CONTINUOUS
10
313.959
20
-60.4072
11
314.006
21
-60.4548
0
LINE
8
BLACK
6
CONTINUOUS
10
314.006
20
-60.4548
11
314.054
21
-60.4072
0
LINE
8
BLACK
6
CONTINUOUS
10
314.054
20
-60.4072
11
314.006
21
-60.3596
0
LINE
8
BLACK
6
CONTINUOUS
10
314.006
20
-60.3596
11
314.006
21
-60.4548
0
LINE
8
BLACK
6
CONTINUOUS
10
314.482
20
-60.6929
11
314.482
21
-61.3596
0
LINE
8
BLACK
6
CONTINUOUS
10
314.482
20
-60.7882
11
314.53
21
-60.7405
0
LINE
8
BLACK
6
CONTINUOUS
10
314.53
20
-60.7405
11
314.625
21
-60.6929
0
LINE
8
BLACK
6
CONTINUOUS
10
314.625
20
-60.6929
11
314.768
21
-60.6929
0
LINE
8
BLACK
6
CONTINUOUS
10
314.768
20
-60.6929
11
314.863
21
-60.7405
0
LINE
8
BLACK
6
CONTINUOUS
10
314.863
20
-60.7405
11
314.911
21
-60.8358
0
LINE
8
BLACK
6
CONTINUOUS
10
314.911
20
-60.8358
11
314.911
21
-61.3596
0
LINE
8
BLACK
6
CONTINUOUS
10
315.816
20
-60.6929
11
315.816
21
-61.5024
0
LINE
8
BLACK
6
CONTINUOUS
10
315.816
20
-61.5024
11
315.768
21
-61.5977
0
LINE
8
BLACK
6
CONTINUOUS
10
315.768
20
-61.5977
11
315.72
21
-61.6453
0
LINE
8
BLACK
6
CONTINUOUS
10
315.72
20
-61.6453
11
315.625
21
-61.6929
0
LINE
8
BLACK
6
CONTINUOUS
10
315.625
20
-61.6929
11
315.482
21
-61.6929
0
LINE
8
BLACK
6
CONTINUOUS
10
315.482
20
-61.6929
11
315.387
21
-61.6453
0
LINE
8
BLACK
6
CONTINUOUS
10
315.816
20
-61.312
11
315.72
21
-61.3596
0
LINE
8
BLACK
6
CONTINUOUS
10
315.72
20
-61.3596
11
315.53
21
-61.3596
0
LINE
8
BLACK
6
CONTINUOUS
10
315.53
20
-61.3596
11
315.435
21
-61.312
0
LINE
8
BLACK
6
CONTINUOUS
10
315.435
20
-61.312
11
315.387
21
-61.2643
0
LINE
8
BLACK
6
CONTINUOUS
10
315.387
20
-61.2643
11
315.339
21
-61.1691
0
LINE
8
BLACK
6
CONTINUOUS
10
315.339
20
-61.1691
11
315.339
21
-60.8834
0
LINE
8
BLACK
6
CONTINUOUS
10
315.339
20
-60.8834
11
315.387
21
-60.7882
0
LINE
8
BLACK
6
CONTINUOUS
10
315.387
20
-60.7882
11
315.435
21
-60.7405
0
LINE
8
BLACK
6
CONTINUOUS
10
315.435
20
-60.7405
11
315.53
21
-60.6929
0
LINE
8
BLACK
6
CONTINUOUS
10
315.53
20
-60.6929
11
315.72
21
-60.6929
0
LINE
8
BLACK
6
CONTINUOUS
10
315.72
20
-60.6929
11
315.816
21
-60.7405
0
LINE
8
BLACK
6
CONTINUOUS
10
316.292
20
-61.3596
11
316.292
21
-60.3596
0
LINE
8
BLACK
6
CONTINUOUS
10
316.292
20
-60.8358
11
316.863
21
-60.8358
0
LINE
8
BLACK
6
CONTINUOUS
10
316.863
20
-61.3596
11
316.863
21
-60.3596
0
LINE
8
BLACK
6
CONTINUOUS
10
317.482
20
-61.3596
11
317.387
21
-61.312
0
LINE
8
BLACK
6
CONTINUOUS
10
317.387
20
-61.312
11
317.339
21
-61.2643
0
LINE
8
BLACK
6
CONTINUOUS
10
317.339
20
-61.2643
11
317.292
21
-61.1691
0
LINE
8
BLACK
6
CONTINUOUS
10
317.292
20
-61.1691
11
317.292
21
-60.8834
0
LINE
8
BLACK
6
CONTINUOUS
10
317.292
20
-60.8834
11
317.339
21
-60.7882
0
LINE
8
BLACK
6
CONTINUOUS
10
317.339
20
-60.7882
11
317.387
21
-60.7405
0
LINE
8
BLACK
6
CONTINUOUS
10
317.387
20
-60.7405
11
317.482
21
-60.6929
0
LINE
8
BLACK
6
CONTINUOUS
10
317.482
20
-60.6929
11
317.625
21
-60.6929
0
LINE
8
BLACK
6
CONTINUOUS
10
317.625
20
-60.6929
11
317.72
21
-60.7405
0
LINE
8
BLACK
6
CONTINUOUS
10
317.72
20
-60.7405
11
317.768
21
-60.7882
0
LINE
8
BLACK
6
CONTINUOUS
10
317.768
20
-60.7882
11
317.816
21
-60.8834
0
LINE
8
BLACK
6
CONTINUOUS
10
317.816
20
-60.8834
11
317.816
21
-61.1691
0
LINE
8
BLACK
6
CONTINUOUS
10
317.816
20
-61.1691
11
317.768
21
-61.2643
0
LINE
8
BLACK
6
CONTINUOUS
10
317.768
20
-61.2643
11
317.72
21
-61.312
0
LINE
8
BLACK
6
CONTINUOUS
10
317.72
20
-61.312
11
317.625
21
-61.3596
0
LINE
8
BLACK
6
CONTINUOUS
10
317.625
20
-61.3596
11
317.482
21
-61.3596
0
LINE
8
BLACK
6
CONTINUOUS
10
318.387
20
-61.3596
11
318.292
21
-61.312
0
LINE
8
BLACK
6
CONTINUOUS
10
318.292
20
-61.312
11
318.244
21
-61.2167
0
LINE
8
BLACK
6
CONTINUOUS
10
318.244
20
-61.2167
11
318.244
21
-60.3596
0
LINE
8
BLACK
6
CONTINUOUS
10
319.149
20
-61.312
11
319.054
21
-61.3596
0
LINE
8
BLACK
6
CONTINUOUS
10
319.054
20
-61.3596
11
318.863
21
-61.3596
0
LINE
8
BLACK
6
CONTINUOUS
10
318.863
20
-61.3596
11
318.768
21
-61.312
0
LINE
8
BLACK
6
CONTINUOUS
10
318.768
20
-61.312
11
318.72
21
-61.2167
0
LINE
8
BLACK
6
CONTINUOUS
10
318.72
20
-61.2167
11
318.72
21
-60.8358
0
LINE
8
BLACK
6
CONTINUOUS
10
318.72
20
-60.8358
11
318.768
21
-60.7405
0
LINE
8
BLACK
6
CONTINUOUS
10
318.768
20
-60.7405
11
318.863
21
-60.6929
0
LINE
8
BLACK
6
CONTINUOUS
10
318.863
20
-60.6929
11
319.054
21
-60.6929
0
LINE
8
BLACK
6
CONTINUOUS
10
319.054
20
-60.6929
11
319.149
21
-60.7405
0
LINE
8
BLACK
6
CONTINUOUS
10
319.149
20
-60.7405
11
319.197
21
-60.8358
0
LINE
8
BLACK
6
CONTINUOUS
10
319.197
20
-60.8358
11
319.197
21
-60.931
0
LINE
8
BLACK
6
CONTINUOUS
10
319.197
20
-60.931
11
318.72
21
-61.0262
0
LINE
8
BLACK
6
CONTINUOUS
10
319.387
20
-61.4548
11
320.149
21
-61.4548
0
LINE
8
BLACK
6
CONTINUOUS
10
320.387
20
-61.3596
11
320.387
21
-60.3596
0
LINE
8
BLACK
6
CONTINUOUS
10
320.387
20
-60.3596
11
320.768
21
-60.3596
0
LINE
8
BLACK
6
CONTINUOUS
10
320.768
20
-60.3596
11
320.863
21
-60.4072
0
LINE
8
BLACK
6
CONTINUOUS
10
320.863
20
-60.4072
11
320.911
21
-60.4548
0
LINE
8
BLACK
6
CONTINUOUS
10
320.911
20
-60.4548
11
320.959
21
-60.5501
0
LINE
8
BLACK
6
CONTINUOUS
10
320.959
20
-60.5501
11
320.959
21
-60.6929
0
LINE
8
BLACK
6
CONTINUOUS
10
320.959
20
-60.6929
11
320.911
21
-60.7882
0
LINE
8
BLACK
6
CONTINUOUS
10
320.911
20
-60.7882
11
320.863
21
-60.8358
0
LINE
8
BLACK
6
CONTINUOUS
10
320.863
20
-60.8358
11
320.768
21
-60.8834
0
LINE
8
BLACK
6
CONTINUOUS
10
320.768
20
-60.8834
11
320.387
21
-60.8834
0
LINE
8
BLACK
6
CONTINUOUS
10
321.816
20
-61.3596
11
321.816
21
-60.8358
0
LINE
8
BLACK
6
CONTINUOUS
10
321.816
20
-60.8358
11
321.768
21
-60.7405
0
LINE
8
BLACK
6
CONTINUOUS
10
321.768
20
-60.7405
11
321.673
21
-60.6929
0
LINE
8
BLACK
6
CONTINUOUS
10
321.673
20
-60.6929
11
321.482
21
-60.6929
0
LINE
8
BLACK
6
CONTINUOUS
10
321.482
20
-60.6929
11
321.387
21
-60.7405
0
LINE
8
BLACK
6
CONTINUOUS
10
321.816
20
-61.312
11
321.72
21
-61.3596
0
LINE
8
BLACK
6
CONTINUOUS
10
321.72
20
-61.3596
11
321.482
21
-61.3596
0
LINE
8
BLACK
6
CONTINUOUS
10
321.482
20
-61.3596
11
321.387
21
-61.312
0
LINE
8
BLACK
6
CONTINUOUS
10
321.387
20
-61.312
11
321.339
21
-61.2167
0
LINE
8
BLACK
6
CONTINUOUS
10
321.339
20
-61.2167
11
321.339
21
-61.1215
0
LINE
8
BLACK
6
CONTINUOUS
10
321.339
20
-61.1215
11
321.387
21
-61.0262
0
LINE
8
BLACK
6
CONTINUOUS
10
321.387
20
-61.0262
11
321.482
21
-60.9786
0
LINE
8
BLACK
6
CONTINUOUS
10
321.482
20
-60.9786
11
321.72
21
-60.9786
0
LINE
8
BLACK
6
CONTINUOUS
10
321.72
20
-60.9786
11
321.816
21
-60.931
0
LINE
8
BLACK
6
CONTINUOUS
10
322.72
20
-61.3596
11
322.72
21
-60.3596
0
LINE
8
BLACK
6
CONTINUOUS
10
322.72
20
-61.312
11
322.625
21
-61.3596
0
LINE
8
BLACK
6
CONTINUOUS
10
322.625
20
-61.3596
11
322.435
21
-61.3596
0
LINE
8
BLACK
6
CONTINUOUS
10
322.435
20
-61.3596
11
322.339
21
-61.312
0
LINE
8
BLACK
6
CONTINUOUS
10
322.339
20
-61.312
11
322.292
21
-61.2643
0
LINE
8
BLACK
6
CONTINUOUS
10
322.292
20
-61.2643
11
322.244
21
-61.1691
0
LINE
8
BLACK
6
CONTINUOUS
10
322.244
20
-61.1691
11
322.244
21
-60.8834
0
LINE
8
BLACK
6
CONTINUOUS
10
322.244
20
-60.8834
11
322.292
21
-60.7882
0
LINE
8
BLACK
6
CONTINUOUS
10
322.292
20
-60.7882
11
322.339
21
-60.7405
0
LINE
8
BLACK
6
CONTINUOUS
10
322.339
20
-60.7405
11
322.435
21
-60.6929
0
LINE
8
BLACK
6
CONTINUOUS
10
322.435
20
-60.6929
11
322.625
21
-60.6929
0
LINE
8
BLACK
6
CONTINUOUS
10
322.625
20
-60.6929
11
322.72
21
-60.7405
0
LINE
8
BLACK
6
CONTINUOUS
10
314.911
20
-57.6596
11
314.911
21
-56.6596
0
LINE
8
BLACK
6
CONTINUOUS
10
314.911
20
-57.1358
11
315.482
21
-57.1358
0
LINE
8
BLACK
6
CONTINUOUS
10
315.482
20
-57.6596
11
315.482
21
-56.6596
0
LINE
8
BLACK
6
CONTINUOUS
10
316.435
20
-56.6596
11
315.959
21
-56.6596
0
LINE
8
BLACK
6
CONTINUOUS
10
315.959
20
-56.6596
11
315.911
21
-57.1358
0
LINE
8
BLACK
6
CONTINUOUS
10
315.911
20
-57.1358
11
315.959
21
-57.0882
0
LINE
8
BLACK
6
CONTINUOUS
10
315.959
20
-57.0882
11
316.054
21
-57.0405
0
LINE
8
BLACK
6
CONTINUOUS
10
316.054
20
-57.0405
11
316.292
21
-57.0405
0
LINE
8
BLACK
6
CONTINUOUS
10
316.292
20
-57.0405
11
316.387
21
-57.0882
0
LINE
8
BLACK
6
CONTINUOUS
10
316.387
20
-57.0882
11
316.435
21
-57.1358
0
LINE
8
BLACK
6
CONTINUOUS
10
316.435
20
-57.1358
11
316.482
21
-57.231
0
LINE
8
BLACK
6
CONTINUOUS
10
316.482
20
-57.231
11
316.482
21
-57.4691
0
LINE
8
BLACK
6
CONTINUOUS
10
316.482
20
-57.4691
11
316.435
21
-57.5643
0
LINE
8
BLACK
6
CONTINUOUS
10
316.435
20
-57.5643
11
316.387
21
-57.612
0
LINE
8
BLACK
6
CONTINUOUS
10
316.387
20
-57.612
11
316.292
21
-57.6596
0
LINE
8
BLACK
6
CONTINUOUS
10
316.292
20
-57.6596
11
316.054
21
-57.6596
0
LINE
8
BLACK
6
CONTINUOUS
10
316.054
20
-57.6596
11
315.959
21
-57.612
0
LINE
8
BLACK
6
CONTINUOUS
10
315.959
20
-57.612
11
315.911
21
-57.5643
0
LINE
8
BLACK
6
CONTINUOUS
10
316.816
20
-56.6596
11
317.482
21
-56.6596
0
LINE
8
BLACK
6
CONTINUOUS
10
317.482
20
-56.6596
11
317.054
21
-57.6596
0
LINE
8
BLACK
6
CONTINUOUS
10
346.351
20
28.7726
11
346.351
21
29.7726
0
LINE
8
BLACK
6
CONTINUOUS
10
346.351
20
29.7726
11
346.685
21
29.0583
0
LINE
8
BLACK
6
CONTINUOUS
10
346.685
20
29.0583
11
347.018
21
29.7726
0
LINE
8
BLACK
6
CONTINUOUS
10
347.018
20
29.7726
11
347.018
21
28.7726
0
LINE
8
BLACK
6
CONTINUOUS
10
347.446
20
29.6774
11
347.494
21
29.725
0
LINE
8
BLACK
6
CONTINUOUS
10
347.494
20
29.725
11
347.589
21
29.7726
0
LINE
8
BLACK
6
CONTINUOUS
10
347.589
20
29.7726
11
347.827
21
29.7726
0
LINE
8
BLACK
6
CONTINUOUS
10
347.827
20
29.7726
11
347.923
21
29.725
0
LINE
8
BLACK
6
CONTINUOUS
10
347.923
20
29.725
11
347.97
21
29.6774
0
LINE
8
BLACK
6
CONTINUOUS
10
347.97
20
29.6774
11
348.018
21
29.5821
0
LINE
8
BLACK
6
CONTINUOUS
10
348.018
20
29.5821
11
348.018
21
29.4869
0
LINE
8
BLACK
6
CONTINUOUS
10
348.018
20
29.4869
11
347.97
21
29.344
0
LINE
8
BLACK
6
CONTINUOUS
10
347.97
20
29.344
11
347.399
21
28.7726
0
LINE
8
BLACK
6
CONTINUOUS
10
347.399
20
28.7726
11
348.018
21
28.7726
0
LINE
8
BLACK
6
CONTINUOUS
10
348.446
20
28.8679
11
348.494
21
28.8202
0
LINE
8
BLACK
6
CONTINUOUS
10
348.494
20
28.8202
11
348.446
21
28.7726
0
LINE
8
BLACK
6
CONTINUOUS
10
348.446
20
28.7726
11
348.399
21
28.8202
0
LINE
8
BLACK
6
CONTINUOUS
10
348.399
20
28.8202
11
348.446
21
28.8679
0
LINE
8
BLACK
6
CONTINUOUS
10
348.446
20
28.8679
11
348.446
21
28.7726
0
LINE
8
BLACK
6
CONTINUOUS
10
349.399
20
29.7726
11
348.923
21
29.7726
0
LINE
8
BLACK
6
CONTINUOUS
10
348.923
20
29.7726
11
348.875
21
29.2964
0
LINE
8
BLACK
6
CONTINUOUS
10
348.875
20
29.2964
11
348.923
21
29.344
0
LINE
8
BLACK
6
CONTINUOUS
10
348.923
20
29.344
11
349.018
21
29.3917
0
LINE
8
BLACK
6
CONTINUOUS
10
349.018
20
29.3917
11
349.256
21
29.3917
0
LINE
8
BLACK
6
CONTINUOUS
10
349.256
20
29.3917
11
349.351
21
29.344
0
LINE
8
BLACK
6
CONTINUOUS
10
349.351
20
29.344
11
349.399
21
29.2964
0
LINE
8
BLACK
6
CONTINUOUS
10
349.399
20
29.2964
11
349.446
21
29.2012
0
LINE
8
BLACK
6
CONTINUOUS
10
349.446
20
29.2012
11
349.446
21
28.9631
0
LINE
8
BLACK
6
CONTINUOUS
10
349.446
20
28.9631
11
349.399
21
28.8679
0
LINE
8
BLACK
6
CONTINUOUS
10
349.399
20
28.8679
11
349.351
21
28.8202
0
LINE
8
BLACK
6
CONTINUOUS
10
349.351
20
28.8202
11
349.256
21
28.7726
0
LINE
8
BLACK
6
CONTINUOUS
10
349.256
20
28.7726
11
349.018
21
28.7726
0
LINE
8
BLACK
6
CONTINUOUS
10
349.018
20
28.7726
11
348.923
21
28.8202
0
LINE
8
BLACK
6
CONTINUOUS
10
348.923
20
28.8202
11
348.875
21
28.8679
0
LINE
8
BLACK
6
CONTINUOUS
10
347.113
20
32.4726
11
347.113
21
33.4726
0
LINE
8
BLACK
6
CONTINUOUS
10
347.113
20
32.9964
11
347.685
21
32.9964
0
LINE
8
BLACK
6
CONTINUOUS
10
347.685
20
32.4726
11
347.685
21
33.4726
0
LINE
8
BLACK
6
CONTINUOUS
10
348.065
20
33.4726
11
348.685
21
33.4726
0
LINE
8
BLACK
6
CONTINUOUS
10
348.685
20
33.4726
11
348.351
21
33.0917
0
LINE
8
BLACK
6
CONTINUOUS
10
348.351
20
33.0917
11
348.494
21
33.0917
0
LINE
8
BLACK
6
CONTINUOUS
10
348.494
20
33.0917
11
348.589
21
33.044
0
LINE
8
BLACK
6
CONTINUOUS
10
348.589
20
33.044
11
348.637
21
32.9964
0
LINE
8
BLACK
6
CONTINUOUS
10
348.637
20
32.9964
11
348.685
21
32.9012
0
LINE
8
BLACK
6
CONTINUOUS
10
348.685
20
32.9012
11
348.685
21
32.6631
0
LINE
8
BLACK
6
CONTINUOUS
10
348.685
20
32.6631
11
348.637
21
32.5679
0
LINE
8
BLACK
6
CONTINUOUS
10
348.637
20
32.5679
11
348.589
21
32.5202
0
LINE
8
BLACK
6
CONTINUOUS
10
348.589
20
32.5202
11
348.494
21
32.4726
0
LINE
8
BLACK
6
CONTINUOUS
10
348.494
20
32.4726
11
348.208
21
32.4726
0
LINE
8
BLACK
6
CONTINUOUS
10
348.208
20
32.4726
11
348.113
21
32.5202
0
LINE
8
BLACK
6
CONTINUOUS
10
348.113
20
32.5202
11
348.065
21
32.5679
0
LINE
8
BLACK
6
CONTINUOUS
10
273.654
20
-4.15238
11
273.654
21
-3.15238
0
LINE
8
BLACK
6
CONTINUOUS
10
273.654
20
-3.15238
11
273.987
21
-3.86667
0
LINE
8
BLACK
6
CONTINUOUS
10
273.987
20
-3.86667
11
274.32
21
-3.15238
0
LINE
8
BLACK
6
CONTINUOUS
10
274.32
20
-3.15238
11
274.32
21
-4.15238
0
LINE
8
BLACK
6
CONTINUOUS
10
274.939
20
-4.15238
11
274.844
21
-4.10476
0
LINE
8
BLACK
6
CONTINUOUS
10
274.844
20
-4.10476
11
274.796
21
-4.05714
0
LINE
8
BLACK
6
CONTINUOUS
10
274.796
20
-4.05714
11
274.749
21
-3.9619
0
LINE
8
BLACK
6
CONTINUOUS
10
274.749
20
-3.9619
11
274.749
21
-3.67619
0
LINE
8
BLACK
6
CONTINUOUS
10
274.749
20
-3.67619
11
274.796
21
-3.58095
0
LINE
8
BLACK
6
CONTINUOUS
10
274.796
20
-3.58095
11
274.844
21
-3.53333
0
LINE
8
BLACK
6
CONTINUOUS
10
274.844
20
-3.53333
11
274.939
21
-3.48571
0
LINE
8
BLACK
6
CONTINUOUS
10
274.939
20
-3.48571
11
275.082
21
-3.48571
0
LINE
8
BLACK
6
CONTINUOUS
10
275.082
20
-3.48571
11
275.177
21
-3.53333
0
LINE
8
BLACK
6
CONTINUOUS
10
275.177
20
-3.53333
11
275.225
21
-3.58095
0
LINE
8
BLACK
6
CONTINUOUS
10
275.225
20
-3.58095
11
275.273
21
-3.67619
0
LINE
8
BLACK
6
CONTINUOUS
10
275.273
20
-3.67619
11
275.273
21
-3.9619
0
LINE
8
BLACK
6
CONTINUOUS
10
275.273
20
-3.9619
11
275.225
21
-4.05714
0
LINE
8
BLACK
6
CONTINUOUS
10
275.225
20
-4.05714
11
275.177
21
-4.10476
0
LINE
8
BLACK
6
CONTINUOUS
10
275.177
20
-4.10476
11
275.082
21
-4.15238
0
LINE
8
BLACK
6
CONTINUOUS
10
275.082
20
-4.15238
11
274.939
21
-4.15238
0
LINE
8
BLACK
6
CONTINUOUS
10
276.13
20
-3.48571
11
276.13
21
-4.15238
0
LINE
8
BLACK
6
CONTINUOUS
10
275.701
20
-3.48571
11
275.701
21
-4.00952
0
LINE
8
BLACK
6
CONTINUOUS
10
275.701
20
-4.00952
11
275.749
21
-4.10476
0
LINE
8
BLACK
6
CONTINUOUS
10
275.749
20
-4.10476
11
275.844
21
-4.15238
0
LINE
8
BLACK
6
CONTINUOUS
10
275.844
20
-4.15238
11
275.987
21
-4.15238
0
LINE
8
BLACK
6
CONTINUOUS
10
275.987
20
-4.15238
11
276.082
21
-4.10476
0
LINE
8
BLACK
6
CONTINUOUS
10
276.082
20
-4.10476
11
276.13
21
-4.05714
0
LINE
8
BLACK
6
CONTINUOUS
10
276.606
20
-3.48571
11
276.606
21
-4.15238
0
LINE
8
BLACK
6
CONTINUOUS
10
276.606
20
-3.58095
11
276.654
21
-3.53333
0
LINE
8
BLACK
6
CONTINUOUS
10
276.654
20
-3.53333
11
276.749
21
-3.48571
0
LINE
8
BLACK
6
CONTINUOUS
10
276.749
20
-3.48571
11
276.892
21
-3.48571
0
LINE
8
BLACK
6
CONTINUOUS
10
276.892
20
-3.48571
11
276.987
21
-3.53333
0
LINE
8
BLACK
6
CONTINUOUS
10
276.987
20
-3.53333
11
277.035
21
-3.62857
0
LINE
8
BLACK
6
CONTINUOUS
10
277.035
20
-3.62857
11
277.035
21
-4.15238
0
LINE
8
BLACK
6
CONTINUOUS
10
277.368
20
-3.48571
11
277.749
21
-3.48571
0
LINE
8
BLACK
6
CONTINUOUS
10
277.511
20
-3.15238
11
277.511
21
-4.00952
0
LINE
8
BLACK
6
CONTINUOUS
10
277.511
20
-4.00952
11
277.558
21
-4.10476
0
LINE
8
BLACK
6
CONTINUOUS
10
277.558
20
-4.10476
11
277.654
21
-4.15238
0
LINE
8
BLACK
6
CONTINUOUS
10
277.654
20
-4.15238
11
277.749
21
-4.15238
0
LINE
8
BLACK
6
CONTINUOUS
10
278.082
20
-4.15238
11
278.082
21
-3.48571
0
LINE
8
BLACK
6
CONTINUOUS
10
278.082
20
-3.15238
11
278.035
21
-3.2
0
LINE
8
BLACK
6
CONTINUOUS
10
278.035
20
-3.2
11
278.082
21
-3.24762
0
LINE
8
BLACK
6
CONTINUOUS
10
278.082
20
-3.24762
11
278.13
21
-3.2
0
LINE
8
BLACK
6
CONTINUOUS
10
278.13
20
-3.2
11
278.082
21
-3.15238
0
LINE
8
BLACK
6
CONTINUOUS
10
278.082
20
-3.15238
11
278.082
21
-3.24762
0
LINE
8
BLACK
6
CONTINUOUS
10
278.558
20
-3.48571
11
278.558
21
-4.15238
0
LINE
8
BLACK
6
CONTINUOUS
10
278.558
20
-3.58095
11
278.606
21
-3.53333
0
LINE
8
BLACK
6
CONTINUOUS
10
278.606
20
-3.53333
11
278.701
21
-3.48571
0
LINE
8
BLACK
6
CONTINUOUS
10
278.701
20
-3.48571
11
278.844
21
-3.48571
0
LINE
8
BLACK
6
CONTINUOUS
10
278.844
20
-3.48571
11
278.939
21
-3.53333
0
LINE
8
BLACK
6
CONTINUOUS
10
278.939
20
-3.53333
11
278.987
21
-3.62857
0
LINE
8
BLACK
6
CONTINUOUS
10
278.987
20
-3.62857
11
278.987
21
-4.15238
0
LINE
8
BLACK
6
CONTINUOUS
10
279.892
20
-3.48571
11
279.892
21
-4.29524
0
LINE
8
BLACK
6
CONTINUOUS
10
279.892
20
-4.29524
11
279.844
21
-4.39048
0
LINE
8
BLACK
6
CONTINUOUS
10
279.844
20
-4.39048
11
279.796
21
-4.43809
0
LINE
8
BLACK
6
CONTINUOUS
10
279.796
20
-4.43809
11
279.701
21
-4.48571
0
LINE
8
BLACK
6
CONTINUOUS
10
279.701
20
-4.48571
11
279.558
21
-4.48571
0
LINE
8
BLACK
6
CONTINUOUS
10
279.558
20
-4.48571
11
279.463
21
-4.43809
0
LINE
8
BLACK
6
CONTINUOUS
10
279.892
20
-4.10476
11
279.796
21
-4.15238
0
LINE
8
BLACK
6
CONTINUOUS
10
279.796
20
-4.15238
11
279.606
21
-4.15238
0
LINE
8
BLACK
6
CONTINUOUS
10
279.606
20
-4.15238
11
279.511
21
-4.10476
0
LINE
8
BLACK
6
CONTINUOUS
10
279.511
20
-4.10476
11
279.463
21
-4.05714
0
LINE
8
BLACK
6
CONTINUOUS
10
279.463
20
-4.05714
11
279.415
21
-3.9619
0
LINE
8
BLACK
6
CONTINUOUS
10
279.415
20
-3.9619
11
279.415
21
-3.67619
0
LINE
8
BLACK
6
CONTINUOUS
10
279.415
20
-3.67619
11
279.463
21
-3.58095
0
LINE
8
BLACK
6
CONTINUOUS
10
279.463
20
-3.58095
11
279.511
21
-3.53333
0
LINE
8
BLACK
6
CONTINUOUS
10
279.511
20
-3.53333
11
279.606
21
-3.48571
0
LINE
8
BLACK
6
CONTINUOUS
10
279.606
20
-3.48571
11
279.796
21
-3.48571
0
LINE
8
BLACK
6
CONTINUOUS
10
279.796
20
-3.48571
11
279.892
21
-3.53333
0
LINE
8
BLACK
6
CONTINUOUS
10
280.368
20
-4.15238
11
280.368
21
-3.15238
0
LINE
8
BLACK
6
CONTINUOUS
10
280.368
20
-3.62857
11
280.939
21
-3.62857
0
LINE
8
BLACK
6
CONTINUOUS
10
280.939
20
-4.15238
11
280.939
21
-3.15238
0
LINE
8
BLACK
6
CONTINUOUS
10
281.558
20
-4.15238
11
281.463
21
-4.10476
0
LINE
8
BLACK
6
CONTINUOUS
10
281.463
20
-4.10476
11
281.415
21
-4.05714
0
LINE
8
BLACK
6
CONTINUOUS
10
281.415
20
-4.05714
11
281.368
21
-3.9619
0
LINE
8
BLACK
6
CONTINUOUS
10
281.368
20
-3.9619
11
281.368
21
-3.67619
0
LINE
8
BLACK
6
CONTINUOUS
10
281.368
20
-3.67619
11
281.415
21
-3.58095
0
LINE
8
BLACK
6
CONTINUOUS
10
281.415
20
-3.58095
11
281.463
21
-3.53333
0
LINE
8
BLACK
6
CONTINUOUS
10
281.463
20
-3.53333
11
281.558
21
-3.48571
0
LINE
8
BLACK
6
CONTINUOUS
10
281.558
20
-3.48571
11
281.701
21
-3.48571
0
LINE
8
BLACK
6
CONTINUOUS
10
281.701
20
-3.48571
11
281.796
21
-3.53333
0
LINE
8
BLACK
6
CONTINUOUS
10
281.796
20
-3.53333
11
281.844
21
-3.58095
0
LINE
8
BLACK
6
CONTINUOUS
10
281.844
20
-3.58095
11
281.892
21
-3.67619
0
LINE
8
BLACK
6
CONTINUOUS
10
281.892
20
-3.67619
11
281.892
21
-3.9619
0
LINE
8
BLACK
6
CONTINUOUS
10
281.892
20
-3.9619
11
281.844
21
-4.05714
0
LINE
8
BLACK
6
CONTINUOUS
10
281.844
20
-4.05714
11
281.796
21
-4.10476
0
LINE
8
BLACK
6
CONTINUOUS
10
281.796
20
-4.10476
11
281.701
21
-4.15238
0
LINE
8
BLACK
6
CONTINUOUS
10
281.701
20
-4.15238
11
281.558
21
-4.15238
0
LINE
8
BLACK
6
CONTINUOUS
10
282.463
20
-4.15238
11
282.368
21
-4.10476
0
LINE
8
BLACK
6
CONTINUOUS
10
282.368
20
-4.10476
11
282.32
21
-4.00952
0
LINE
8
BLACK
6
CONTINUOUS
10
282.32
20
-4.00952
11
282.32
21
-3.15238
0
LINE
8
BLACK
6
CONTINUOUS
10
283.225
20
-4.10476
11
283.13
21
-4.15238
0
LINE
8
BLACK
6
CONTINUOUS
10
283.13
20
-4.15238
11
282.939
21
-4.15238
0
LINE
8
BLACK
6
CONTINUOUS
10
282.939
20
-4.15238
11
282.844
21
-4.10476
0
LINE
8
BLACK
6
CONTINUOUS
10
282.844
20
-4.10476
11
282.796
21
-4.00952
0
LINE
8
BLACK
6
CONTINUOUS
10
282.796
20
-4.00952
11
282.796
21
-3.62857
0
LINE
8
BLACK
6
CONTINUOUS
10
282.796
20
-3.62857
11
282.844
21
-3.53333
0
LINE
8
BLACK
6
CONTINUOUS
10
282.844
20
-3.53333
11
282.939
21
-3.48571
0
LINE
8
BLACK
6
CONTINUOUS
10
282.939
20
-3.48571
11
283.13
21
-3.48571
0
LINE
8
BLACK
6
CONTINUOUS
10
283.13
20
-3.48571
11
283.225
21
-3.53333
0
LINE
8
BLACK
6
CONTINUOUS
10
283.225
20
-3.53333
11
283.273
21
-3.62857
0
LINE
8
BLACK
6
CONTINUOUS
10
283.273
20
-3.62857
11
283.273
21
-3.72381
0
LINE
8
BLACK
6
CONTINUOUS
10
283.273
20
-3.72381
11
282.796
21
-3.81905
0
LINE
8
BLACK
6
CONTINUOUS
10
283.463
20
-4.24762
11
284.225
21
-4.24762
0
LINE
8
BLACK
6
CONTINUOUS
10
284.463
20
-4.15238
11
284.463
21
-3.15238
0
LINE
8
BLACK
6
CONTINUOUS
10
284.463
20
-3.15238
11
284.844
21
-3.15238
0
LINE
8
BLACK
6
CONTINUOUS
10
284.844
20
-3.15238
11
284.939
21
-3.2
0
LINE
8
BLACK
6
CONTINUOUS
10
284.939
20
-3.2
11
284.987
21
-3.24762
0
LINE
8
BLACK
6
CONTINUOUS
10
284.987
20
-3.24762
11
285.035
21
-3.34286
0
LINE
8
BLACK
6
CONTINUOUS
10
285.035
20
-3.34286
11
285.035
21
-3.48571
0
LINE
8
BLACK
6
CONTINUOUS
10
285.035
20
-3.48571
11
284.987
21
-3.58095
0
LINE
8
BLACK
6
CONTINUOUS
10
284.987
20
-3.58095
11
284.939
21
-3.62857
0
LINE
8
BLACK
6
CONTINUOUS
10
284.939
20
-3.62857
11
284.844
21
-3.67619
0
LINE
8
BLACK
6
CONTINUOUS
10
284.844
20
-3.67619
11
284.463
21
-3.67619
0
LINE
8
BLACK
6
CONTINUOUS
10
285.892
20
-4.15238
11
285.892
21
-3.62857
0
LINE
8
BLACK
6
CONTINUOUS
10
285.892
20
-3.62857
11
285.844
21
-3.53333
0
LINE
8
BLACK
6
CONTINUOUS
10
285.844
20
-3.53333
11
285.749
21
-3.48571
0
LINE
8
BLACK
6
CONTINUOUS
10
285.749
20
-3.48571
11
285.558
21
-3.48571
0
LINE
8
BLACK
6
CONTINUOUS
10
285.558
20
-3.48571
11
285.463
21
-3.53333
0
LINE
8
BLACK
6
CONTINUOUS
10
285.892
20
-4.10476
11
285.796
21
-4.15238
0
LINE
8
BLACK
6
CONTINUOUS
10
285.796
20
-4.15238
11
285.558
21
-4.15238
0
LINE
8
BLACK
6
CONTINUOUS
10
285.558
20
-4.15238
11
285.463
21
-4.10476
0
LINE
8
BLACK
6
CONTINUOUS
10
285.463
20
-4.10476
11
285.415
21
-4.00952
0
LINE
8
BLACK
6
CONTINUOUS
10
285.415
20
-4.00952
11
285.415
21
-3.91429
0
LINE
8
BLACK
6
CONTINUOUS
10
285.415
20
-3.91429
11
285.463
21
-3.81905
0
LINE
8
BLACK
6
CONTINUOUS
10
285.463
20
-3.81905
11
285.558
21
-3.77143
0
LINE
8
BLACK
6
CONTINUOUS
10
285.558
20
-3.77143
11
285.796
21
-3.77143
0
LINE
8
BLACK
6
CONTINUOUS
10
285.796
20
-3.77143
11
285.892
21
-3.72381
0
LINE
8
BLACK
6
CONTINUOUS
10
286.796
20
-4.15238
11
286.796
21
-3.15238
0
LINE
8
BLACK
6
CONTINUOUS
10
286.796
20
-4.10476
11
286.701
21
-4.15238
0
LINE
8
BLACK
6
CONTINUOUS
10
286.701
20
-4.15238
11
286.511
21
-4.15238
0
LINE
8
BLACK
6
CONTINUOUS
10
286.511
20
-4.15238
11
286.415
21
-4.10476
0
LINE
8
BLACK
6
CONTINUOUS
10
286.415
20
-4.10476
11
286.368
21
-4.05714
0
LINE
8
BLACK
6
CONTINUOUS
10
286.368
20
-4.05714
11
286.32
21
-3.9619
0
LINE
8
BLACK
6
CONTINUOUS
10
286.32
20
-3.9619
11
286.32
21
-3.67619
0
LINE
8
BLACK
6
CONTINUOUS
10
286.32
20
-3.67619
11
286.368
21
-3.58095
0
LINE
8
BLACK
6
CONTINUOUS
10
286.368
20
-3.58095
11
286.415
21
-3.53333
0
LINE
8
BLACK
6
CONTINUOUS
10
286.415
20
-3.53333
11
286.511
21
-3.48571
0
LINE
8
BLACK
6
CONTINUOUS
10
286.511
20
-3.48571
11
286.701
21
-3.48571
0
LINE
8
BLACK
6
CONTINUOUS
10
286.701
20
-3.48571
11
286.796
21
-3.53333
0
LINE
8
BLACK
6
CONTINUOUS
10
278.987
20
-0.45238
11
278.987
21
0.547619
0
LINE
8
BLACK
6
CONTINUOUS
10
278.987
20
0.071428
11
279.558
21
0.071428
0
LINE
8
BLACK
6
CONTINUOUS
10
279.558
20
-0.45238
11
279.558
21
0.547619
0
LINE
8
BLACK
6
CONTINUOUS
10
280.511
20
0.547619
11
280.035
21
0.547619
0
LINE
8
BLACK
6
CONTINUOUS
10
280.035
20
0.547619
11
279.987
21
0.071428
0
LINE
8
BLACK
6
CONTINUOUS
10
279.987
20
0.071428
11
280.035
21
0.119047
0
LINE
8
BLACK
6
CONTINUOUS
10
280.035
20
0.119047
11
280.13
21
0.166666
0
LINE
8
BLACK
6
CONTINUOUS
10
280.13
20
0.166666
11
280.368
21
0.166666
0
LINE
8
BLACK
6
CONTINUOUS
10
280.368
20
0.166666
11
280.463
21
0.119047
0
LINE
8
BLACK
6
CONTINUOUS
10
280.463
20
0.119047
11
280.511
21
0.071428
0
LINE
8
BLACK
6
CONTINUOUS
10
280.511
20
0.071428
11
280.558
21
-0.023809
0
LINE
8
BLACK
6
CONTINUOUS
10
280.558
20
-0.023809
11
280.558
21
-0.261904
0
LINE
8
BLACK
6
CONTINUOUS
10
280.558
20
-0.261904
11
280.511
21
-0.357142
0
LINE
8
BLACK
6
CONTINUOUS
10
280.511
20
-0.357142
11
280.463
21
-0.404761
0
LINE
8
BLACK
6
CONTINUOUS
10
280.463
20
-0.404761
11
280.368
21
-0.45238
0
LINE
8
BLACK
6
CONTINUOUS
10
280.368
20
-0.45238
11
280.13
21
-0.45238
0
LINE
8
BLACK
6
CONTINUOUS
10
280.13
20
-0.45238
11
280.035
21
-0.404761
0
LINE
8
BLACK
6
CONTINUOUS
10
280.035
20
-0.404761
11
279.987
21
-0.357142
0
LINE
8
BLACK
6
CONTINUOUS
10
281.415
20
0.214285
11
281.415
21
-0.45238
0
LINE
8
BLACK
6
CONTINUOUS
10
281.177
20
0.595238
11
280.939
21
-0.119047
0
LINE
8
BLACK
6
CONTINUOUS
10
280.939
20
-0.119047
11
281.558
21
-0.119047
0
LINE
8
BLACK
6
CONTINUOUS
10
321.857
20
34.275
11
344.757
21
34.275
0
LINE
8
BLACK
6
CONTINUOUS
10
321.857
20
13.975
11
321.857
21
34.275
0
LINE
8
BLACK
6
CONTINUOUS
10
344.757
20
34.275
11
344.757
21
13.975
0
LINE
8
BLACK
6
CONTINUOUS
10
344.757
20
13.975
11
321.857
21
13.975
  0
ENDSEC
  0
EOF
