M48
; DRILL file {KiCad (6.0.5-0)} date Sunday, 19 March 2023 at 13:18:28
; FORMAT={-:-/ absolute / metric / decimal}
; #@! TF.CreationDate,2023-03-19T13:18:28+08:00
; #@! TF.GenerationSoftware,Kicad,Pcbnew,(6.0.5-0)
; #@! TF.FileFunction,Plated,1,2,PTH
FMAT,2
METRIC
; #@! TA.AperFunction,Plated,PTH,ComponentDrill
T1C0.200
; #@! TA.AperFunction,Plated,PTH,ViaDrill
T2C0.300
; #@! TA.AperFunction,Plated,PTH,ViaDrill
T3C0.305
; #@! TA.AperFunction,Plated,PTH,ViaDrill
T4C0.400
; #@! TA.AperFunction,Plated,PTH,ComponentDrill
T5C0.600
; #@! TA.AperFunction,Plated,PTH,ComponentDrill
T6C0.762
; #@! TA.AperFunction,Plated,PTH,ComponentDrill
T7C0.900
; #@! TA.AperFunction,Plated,PTH,ComponentDrill
T8C1.000
; #@! TA.AperFunction,Plated,PTH,ComponentDrill
T9C1.400
; #@! TA.AperFunction,Plated,PTH,ComponentDrill
T10C2.200
; #@! TA.AperFunction,Plated,PTH,ComponentDrill
T11C2.650
; #@! TA.AperFunction,Plated,PTH,ComponentDrill
T12C2.700
%
G90
G05
T1
X255.816Y23.525
X256.718Y24.427
X256.718Y22.623
X257.619Y25.328
X257.619Y23.525
X257.619Y21.722
X258.521Y26.23
X258.521Y24.427
X258.521Y22.623
X258.521Y20.82
X259.422Y27.131
X259.422Y25.328
X259.422Y23.525
X259.422Y21.722
X259.422Y19.919
X260.324Y26.23
X260.324Y24.427
X260.324Y22.623
X260.324Y20.82
X261.225Y25.328
X261.225Y23.525
X261.225Y21.722
X262.127Y24.427
X262.127Y22.623
X263.029Y23.525
T2
X264.193Y28.808
X266.4Y26.908
T3
X-14.973Y19.429
X-13.793Y17.778
X-13.023Y16.652
X-12.523Y18.642
X-12.025Y16.65
X-11.253Y17.778
X-10.073Y19.429
T4
X-18.4Y-76.073
X-17.6Y0.4
X-17.6Y-16.372
X-17.2Y-56.686
X-17.2Y-74.873
X-17.2Y-97.173
X-17.2Y-102.4
X-16.8Y-65.536
X-16.626Y-35.77
X-13.6Y-24.0
X-6.964Y19.06
X-6.95Y-57.236
X-6.4Y-53.576
X-0.95Y-64.786
X8.75Y-67.236
X8.95Y-3.4
X9.5Y-22.072
X10.3Y-55.036
X10.5Y-60.0
X11.6Y-22.8
X14.795Y-58.317
X14.85Y-103.273
X15.6Y-42.601
X16.4Y-57.2
X16.5Y-63.586
X19.1Y-66.986
X21.204Y-64.348
X22.05Y-82.523
X28.8Y-22.622
X38.2Y-42.901
X42.8Y-62.8
X47.6Y-22.522
X47.65Y-2.7
X52.6Y-82.823
X57.0Y-43.301
X61.35Y-63.236
X61.6Y-104.8
X66.0Y-16.4
X66.85Y-2.35
X71.55Y-83.273
X75.9Y-43.301
X79.45Y-54.836
X79.9Y-63.186
X80.5Y-57.036
X85.7Y-22.272
X86.3Y-2.05
X90.5Y-83.523
X94.8Y-43.301
X98.35Y-63.236
X98.8Y-55.036
X100.1Y-57.336
X105.1Y-2.4
X105.1Y-22.223
X109.85Y-83.323
X114.1Y-43.201
X117.6Y-54.486
X118.15Y-58.586
X119.05Y-64.186
X124.15Y-22.122
X128.7Y-83.173
X132.95Y-2.9
X133.05Y-43.151
X136.55Y-54.486
X137.65Y-59.086
X138.6Y-62.986
X142.05Y-65.386
X142.9Y-22.272
X143.1Y-103.723
X146.0Y-66.158
X147.6Y-83.123
X152.3Y-43.401
X152.4Y-2.7
X155.6Y-54.736
X156.6Y-59.515
X157.55Y-64.036
X162.25Y-22.272
X166.75Y-83.423
X169.2Y-63.586
X171.35Y-43.351
X171.7Y-2.7
X175.1Y-57.686
X175.5Y-63.536
X181.0Y-22.322
X185.95Y-83.373
X190.5Y-43.451
X190.75Y-2.85
X195.65Y-60.686
X196.8Y-106.4
X200.4Y-21.872
X204.9Y-83.423
X209.5Y-43.201
X214.6Y-61.386
X219.25Y-2.8
X219.5Y-21.872
X224.1Y-83.523
X224.1Y-103.873
X228.75Y-42.901
X233.6Y27.6
X233.9Y-59.836
X234.802Y27.377
X236.373Y21.717
X238.3Y-2.65
X238.8Y-21.973
X239.492Y15.987
X242.023Y30.03
X242.8Y19.6
X244.325Y30.0
X244.4Y27.2
X244.4Y25.2
X244.8Y18.4
X245.2Y26.4
X245.2Y19.6
X245.6Y28.4
X245.882Y21.477
X246.8Y31.2
X247.3Y17.398
X247.95Y-42.951
X248.448Y17.521
X248.696Y30.296
X249.6Y16.8
X250.0Y30.4
X250.0Y23.6
X250.901Y16.501
X251.2Y30.8
X252.8Y31.2
X254.8Y31.6
X257.3Y-2.45
X259.854Y33.266
X259.95Y-83.623
X260.55Y31.984
X260.8Y17.534
X261.647Y31.6
X262.921Y30.244
X267.25Y-22.072
X268.8Y21.755
X269.1Y-57.736
X271.15Y-43.401
X271.6Y-103.723
X272.168Y29.212
X272.225Y30.323
X272.888Y18.873
X273.2Y21.2
X274.44Y31.56
X275.151Y26.506
X275.6Y24.4
X276.418Y27.559
X276.43Y25.995
X276.571Y21.597
X276.6Y-2.4
X276.875Y17.694
X277.275Y28.074
X277.6Y16.8
X278.247Y20.905
X278.35Y16.0
X278.4Y28.523
X278.4Y-63.086
X278.8Y25.2
X279.035Y22.965
X279.6Y24.4
X280.0Y14.225
X280.05Y28.997
X280.85Y29.673
X282.05Y30.198
X283.025Y30.973
X284.0Y20.4
X284.325Y31.025
X287.589Y-61.2
X288.8Y15.2
X290.038Y-61.2
X290.4Y30.8
X294.4Y15.2
X296.8Y18.4
X297.2Y22.8
X298.3Y29.47
X298.4Y26.8
X300.092Y17.477
X300.35Y-43.301
X300.6Y-2.0
X300.65Y-22.322
X300.65Y-103.473
X303.493Y14.837
X303.562Y16.017
X304.4Y21.6
X304.6Y28.66
X305.6Y27.6
X310.8Y13.6
X311.6Y22.4
X312.282Y31.977
X312.8Y24.8
X312.8Y16.8
X314.8Y19.991
X315.6Y22.8
X316.889Y21.108
X318.8Y20.0
X319.25Y-43.001
X319.85Y-1.55
X319.85Y-102.923
X319.9Y-22.223
X320.0Y26.8
X320.8Y22.0
X321.637Y26.262
X321.95Y-79.073
X322.551Y24.954
X322.6Y22.0
X326.4Y31.2
X328.4Y28.0
X328.6Y26.23
X329.425Y29.505
X329.69Y22.52
X329.81Y24.03
X334.252Y22.277
X336.55Y-35.001
X336.625Y-14.772
X337.2Y-62.8
X337.232Y18.377
X337.732Y-39.893
X337.755Y-60.999
X337.77Y27.42
X338.36Y-19.363
X338.81Y-38.971
X339.2Y-101.723
X339.371Y-21.066
X340.0Y-58.8
X340.4Y-60.4
X342.0Y-56.4
X342.9Y2.05
X345.45Y-95.023
X346.08Y-35.171
X346.66Y-14.822
T6
X324.257Y26.625
X324.257Y24.625
X324.257Y22.625
X324.257Y20.625
X326.257Y27.625
X326.257Y25.625
X326.257Y23.625
X326.257Y21.625
T7
X341.308Y27.935
X341.308Y20.315
T8
X239.95Y32.375
X242.49Y32.375
T9
X324.308Y32.125
X324.308Y16.125
X342.308Y32.125
X342.308Y16.125
T10
X-19.525Y26.125
X-19.525Y13.625
X-5.525Y26.125
X-5.525Y13.625
T11
X231.168Y32.925
X231.168Y14.125
X318.24Y32.925
X318.24Y14.125
X347.875Y32.925
X347.875Y14.125
T12
X16.373Y-35.333
X19.0Y0.0
X21.117Y-59.251
X31.112Y-79.501
X35.018Y-101.188
X64.977Y-22.591
X275.701Y-19.785
X277.701Y-40.414
X279.32Y-101.188
X280.225Y0.0
X316.149Y-57.207
X330.151Y-80.272
T5
G00X-16.823Y25.825
M15
G01X-16.823Y25.225
M16
G05
G00X-16.823Y21.875
M15
G01X-16.823Y20.775
M16
G05
G00X-8.223Y25.825
M15
G01X-8.223Y25.225
M16
G05
G00X-8.223Y21.875
M15
G01X-8.223Y20.775
M16
G05
T0
M30
