%FSLAX45Y45*%
G04 Gerber Fmt 4.5, Leading zero omitted, Abs format (unit mm)*
G04 Created by KiCad (PCBNEW (6.0.5-0)) date 2023-01-21 22:01:57*
%MOMM*%
%LPD*%
G01*
G04 APERTURE LIST*
%TA.AperFunction,Profile*%
%ADD10C,0.300000*%
%TD*%
%ADD11C,0.200000*%
%ADD12C,0.045000*%
%ADD13C,0.065000*%
%ADD14C,0.099060*%
%ADD15C,0.175000*%
%ADD16C,0.300000*%
%ADD17C,0.304800*%
%ADD18C,0.398780*%
G04 APERTURE END LIST*
D10*
X9627742Y-2808500D02*
X-2152500Y-2808500D01*
X-2102500Y3012500D02*
G75*
G03*
X-2352500Y2762500I0J-250000D01*
G01*
X28772745Y-6949834D02*
G75*
G03*
X28672742Y-6849834I-100006J-6D01*
G01*
X22866784Y3292500D02*
X22866784Y2631900D01*
X27051585Y-1070502D02*
G75*
G03*
X27319757Y-1148500I268175J422022D01*
G01*
X10186542Y-830002D02*
G75*
G03*
X10086542Y-930000I-2J-99998D01*
G01*
X35237500Y-9839134D02*
X35237500Y-8342933D01*
X10086542Y-8993533D02*
X10086542Y-9188533D01*
X-2152500Y-830000D02*
X-2152500Y-279400D01*
X23563867Y-9288533D02*
G75*
G03*
X24054783Y-9288533I245458J249500D01*
G01*
X-2152500Y-10397934D02*
G75*
G03*
X-2352500Y-10397934I-100000J0D01*
G01*
X10186542Y-4871332D02*
G75*
G03*
X10086542Y-4971335I-2J-99998D01*
G01*
X-2152500Y-7784132D02*
X-2152500Y-7233533D01*
X26052305Y-6849834D02*
X24906445Y-6849834D01*
X-248633Y-9288533D02*
G75*
G03*
X242283Y-9288533I245458J249500D01*
G01*
X18429130Y-9288528D02*
G75*
G03*
X18817174Y-9103846I0J500008D01*
G01*
X-2602500Y-10948533D02*
X-2352500Y-10948533D01*
X9627742Y-6849834D02*
X-2152500Y-6849834D01*
X-2352500Y2266900D02*
G75*
G03*
X-2152500Y2266900I100000J0D01*
G01*
X35037500Y-9288533D02*
X35037500Y-9839135D01*
X10186542Y-3211334D02*
X24289548Y-3211334D01*
X26440349Y-7034522D02*
G75*
G03*
X26906001Y-7034522I232826J189188D01*
G01*
X9727742Y-6949834D02*
X9727742Y-7133533D01*
X24545381Y-7233533D02*
X25800868Y-7233533D01*
X-352500Y2266900D02*
X-352500Y2612500D01*
X35037500Y530000D02*
G75*
G03*
X34737500Y830000I-300000J0D01*
G01*
X29131540Y-1048500D02*
G75*
G03*
X29231542Y-1148500I100000J0D01*
G01*
X-352500Y2266900D02*
G75*
G03*
X-152500Y2266900I100000J0D01*
G01*
X28672742Y-7233532D02*
G75*
G03*
X28772742Y-7133533I-2J100002D01*
G01*
X10186542Y-7233533D02*
X23404717Y-7233533D01*
X6999130Y-9288528D02*
G75*
G03*
X7387174Y-9103846I0J500008D01*
G01*
X2524712Y-7155532D02*
G75*
G03*
X2792882Y-7233533I268169J421982D01*
G01*
X10086546Y-3111334D02*
G75*
G03*
X10186542Y-3211334I99995J-6D01*
G01*
X-2352500Y-1699100D02*
G75*
G03*
X-2152500Y-1699100I100000J0D01*
G01*
X35237500Y-3761934D02*
X35237500Y-2257900D01*
X24290874Y-2993187D02*
G75*
G03*
X23902830Y-2808500I-388044J-315313D01*
G01*
X26395374Y-7206714D02*
G75*
G03*
X26069039Y-7155533I-192244J-159806D01*
G01*
X-1952500Y1162500D02*
X-552500Y1162500D01*
X19670870Y-9288533D02*
X23563867Y-9288533D01*
X9627742Y-4871335D02*
X-2152500Y-4871335D01*
X-2152500Y-8342933D02*
G75*
G03*
X-2352500Y-8342933I-100000J0D01*
G01*
X9727742Y-8993533D02*
X9727742Y-9188533D01*
X28772742Y-8993533D02*
X28772742Y-9188533D01*
X18915131Y-11027533D02*
G75*
G03*
X19184869Y-11027533I134869J210500D01*
G01*
X23188455Y-8893533D02*
X19295458Y-8893533D01*
X26813461Y-5111834D02*
G75*
G03*
X27081632Y-5189835I268169J421984D01*
G01*
X29131542Y-3111329D02*
X29131542Y-2908500D01*
X-2152500Y-3761934D02*
X-2152500Y-3211334D01*
X35237500Y-8342933D02*
G75*
G03*
X35037500Y-8342933I-100000J0D01*
G01*
X28772745Y-4971335D02*
G75*
G03*
X28672742Y-4871335I-100006J-6D01*
G01*
X35037500Y-4871335D02*
X29231542Y-4871335D01*
X29231542Y-6849832D02*
G75*
G03*
X29131542Y-6949834I-2J-99998D01*
G01*
X-552500Y2812500D02*
X-1952500Y2812500D01*
X24119092Y-1148497D02*
G75*
G03*
X24388831Y-1069500I8J499987D01*
G01*
X-2152500Y2612500D02*
X-2152500Y2266900D01*
X35237500Y-2257900D02*
G75*
G03*
X35037500Y-2257900I-100000J0D01*
G01*
X35737500Y3292500D02*
G75*
G03*
X35487500Y3542500I-250000J0D01*
G01*
X35037500Y-4320734D02*
X35037500Y-4871335D01*
X29231542Y-9288533D02*
X35037500Y-9288533D01*
X131694Y-7154533D02*
G75*
G03*
X-138044Y-7154533I-134869J-210500D01*
G01*
X35037500Y-10648533D02*
X35037500Y-10397934D01*
X26395366Y-7206721D02*
G75*
G03*
X26927168Y-7233533I277804J222681D01*
G01*
X-352500Y1362500D02*
X-352500Y1708100D01*
X26442383Y-9288533D02*
X28672742Y-9288533D01*
X9727742Y-2908500D02*
X9727742Y-3111334D01*
X-2352500Y279400D02*
X-2352500Y1708100D01*
X34787500Y3542500D02*
X23116784Y3542500D01*
X-2152500Y-10397934D02*
X-2152500Y-10648533D01*
X35037500Y2631900D02*
G75*
G03*
X35237500Y2631900I100000J0D01*
G01*
X24430195Y-8893536D02*
G75*
G03*
X24042151Y-9078221I-15J-499974D01*
G01*
X35037500Y279401D02*
G75*
G03*
X35237500Y279400I100000J-1D01*
G01*
X23902830Y-2808500D02*
X10186542Y-2808500D01*
X22866784Y2073100D02*
G75*
G03*
X22666784Y2073100I-100000J0D01*
G01*
X-152500Y2762500D02*
G75*
G03*
X-402500Y3012500I-250000J0D01*
G01*
X26515243Y-1148499D02*
G75*
G03*
X26783414Y-1070500I7J499979D01*
G01*
X2629883Y-9288533D02*
X6999130Y-9288533D01*
X28772742Y-930000D02*
X28772742Y-1048500D01*
X28772742Y-2908500D02*
X28772742Y-3111310D01*
X25951467Y-9288533D02*
G75*
G03*
X26442383Y-9288533I245458J249500D01*
G01*
X-2352500Y2266900D02*
X-2352500Y2762500D01*
X35037500Y3292500D02*
G75*
G03*
X34787500Y3542500I-250000J0D01*
G01*
X35237500Y-10948533D02*
X35487500Y-10948533D01*
X9627742Y-5189832D02*
G75*
G03*
X9727742Y-5089835I-2J100002D01*
G01*
X-2102500Y3012500D02*
X-402500Y3012500D01*
X28672742Y-4871335D02*
X10186542Y-4871335D01*
X29231542Y1162500D02*
X34787500Y1162500D01*
X8024608Y-10948533D02*
X18645392Y-10948533D01*
X35237500Y-10397934D02*
G75*
G03*
X35037500Y-10397934I-100000J4D01*
G01*
X23880967Y-5189833D02*
G75*
G03*
X24150706Y-5110835I-7J500033D01*
G01*
X29231542Y-1148500D02*
X35037500Y-1148500D01*
X35487500Y3542500D02*
X35237500Y3542500D01*
X-2152500Y-279400D02*
G75*
G03*
X-2352500Y-279400I-100000J0D01*
G01*
X-2152500Y-4320733D02*
G75*
G03*
X-2352500Y-4320734I-100000J0D01*
G01*
X28772747Y-8993533D02*
G75*
G03*
X28672742Y-8893533I-100007J-7D01*
G01*
X10086542Y-2908500D02*
X10086542Y-3111334D01*
X-2152500Y-10648533D02*
G75*
G03*
X-1852500Y-10948533I300000J0D01*
G01*
X-152500Y1708100D02*
X-152500Y1030000D01*
X-2152500Y-6849834D02*
X-2152500Y-6299234D01*
X9627742Y830000D02*
G75*
G03*
X9627742Y1030000I-2J100000D01*
G01*
X28672744Y-3211312D02*
G75*
G03*
X28772742Y-3111310I-4J100002D01*
G01*
X24420446Y-5110833D02*
G75*
G03*
X24690183Y-5189835I269734J420973D01*
G01*
X29131542Y-6949834D02*
X29131542Y-7133533D01*
X35237500Y-6299234D02*
G75*
G03*
X35037500Y-6299233I-100000J4D01*
G01*
X-1952500Y2812500D02*
G75*
G03*
X-2152500Y2612500I0J-200000D01*
G01*
X-2352500Y-10948533D02*
X-2352500Y-10397934D01*
X-2352500Y-3761934D02*
G75*
G03*
X-2152500Y-3761934I100000J0D01*
G01*
X35487500Y-10948540D02*
G75*
G03*
X35737500Y-10698533I-10J250010D01*
G01*
X29131541Y-3111329D02*
G75*
G03*
X29231542Y-3211329I99999J-1D01*
G01*
X10186542Y-1148500D02*
X24119092Y-1148500D01*
X-2152500Y-8893533D02*
X-2152500Y-8342933D01*
X35237500Y2073100D02*
X35237500Y279400D01*
X24289548Y-3211334D02*
G75*
G03*
X24757852Y-3211334I234152J249500D01*
G01*
X35237500Y-5740436D02*
X35237500Y-4320733D01*
X10086542Y-4971335D02*
X10086542Y-5089835D01*
X-2152500Y-9839134D02*
X-2152500Y-9288533D01*
X35237500Y-7784131D02*
X35237500Y-6299234D01*
X24006452Y-7211266D02*
G75*
G03*
X24545381Y-7233533I279128J222746D01*
G01*
X35037500Y-279400D02*
X35037500Y-830000D01*
X25144570Y-2808500D02*
G75*
G03*
X24756526Y-2993187I0J-500000D01*
G01*
X19454608Y-10948533D02*
X34737500Y-10948533D01*
X35037500Y-1148500D02*
X35037500Y-1699100D01*
X23576497Y-9078222D02*
G75*
G03*
X23188455Y-8893533I-388057J-315338D01*
G01*
X28772740Y-930000D02*
G75*
G03*
X28672742Y-830000I-100000J0D01*
G01*
X10086542Y-930000D02*
X10086542Y-1048500D01*
X-2152500Y1708100D02*
X-2152500Y1362500D01*
X24290874Y-2993187D02*
G75*
G03*
X24756526Y-2993187I232826J189188D01*
G01*
X23116784Y1162500D02*
X28672742Y1162500D01*
X28772742Y1062500D02*
X28772742Y930000D01*
X-552500Y1162500D02*
G75*
G03*
X-352500Y1362500I0J200000D01*
G01*
X-152500Y1030000D02*
X9627742Y1030000D01*
X27051586Y-1070500D02*
G75*
G03*
X26783414Y-1070500I-134086J-211000D01*
G01*
X35037500Y-1699100D02*
G75*
G03*
X35237500Y-1699100I100000J0D01*
G01*
X35037500Y-9839135D02*
G75*
G03*
X35237500Y-9839134I100000J5D01*
G01*
X27081632Y-5189835D02*
X28672742Y-5189835D01*
X29231542Y-7233533D02*
X35037500Y-7233533D01*
X-2152500Y-6299234D02*
G75*
G03*
X-2352500Y-6299234I-100000J0D01*
G01*
X29231542Y-5189835D02*
X35037500Y-5189835D01*
X1988368Y-7233534D02*
G75*
G03*
X2256539Y-7155533I-8J500024D01*
G01*
X-1852500Y-10948533D02*
X7215392Y-10948533D01*
X24658569Y-1069501D02*
G75*
G03*
X24928308Y-1148500I269741J421011D01*
G01*
X29131547Y-9188533D02*
G75*
G03*
X29231542Y-9288533I99993J-7D01*
G01*
X10086542Y-6949834D02*
X10086542Y-7133533D01*
X9727746Y-4971335D02*
G75*
G03*
X9627742Y-4871335I-100006J-6D01*
G01*
X-152500Y2762500D02*
X-152500Y2266900D01*
X28672742Y829998D02*
G75*
G03*
X28772742Y930000I-2J100002D01*
G01*
X35037500Y-7784133D02*
G75*
G03*
X35237500Y-7784131I100000J3D01*
G01*
X35237500Y-4320733D02*
G75*
G03*
X35037500Y-4320734I-100000J3D01*
G01*
X23576499Y-9078221D02*
G75*
G03*
X24042151Y-9078221I232826J189188D01*
G01*
X29131542Y-4971335D02*
X29131542Y-5089835D01*
X3005295Y-8893533D02*
G75*
G03*
X2617251Y-9078221I0J-500000D01*
G01*
X2151599Y-9078221D02*
G75*
G03*
X1763555Y-8893533I-388044J-315312D01*
G01*
X401433Y-7233533D02*
X1988368Y-7233533D01*
X27532170Y-2808500D02*
G75*
G03*
X27144126Y-2993187I0J-500000D01*
G01*
X35237500Y-1699100D02*
X35237500Y-279400D01*
X28672742Y-830000D02*
X10186542Y-830000D01*
X10186542Y1030000D02*
X22666784Y1030000D01*
X19282828Y-9103844D02*
G75*
G03*
X19670870Y-9288533I388042J315304D01*
G01*
X10086546Y-5089835D02*
G75*
G03*
X10186542Y-5189835I99995J-6D01*
G01*
X7374542Y-8893533D02*
X3005295Y-8893533D01*
X35037500Y-6849834D02*
X29231542Y-6849834D01*
X9727742Y-930000D02*
X9727742Y-1048500D01*
X26290430Y-2808500D02*
X25144570Y-2808500D01*
X7485131Y-11027532D02*
G75*
G03*
X7215392Y-10948533I-269742J-421018D01*
G01*
X-2352500Y279400D02*
G75*
G03*
X-2152500Y279400I100000J0D01*
G01*
X-2352500Y-4320734D02*
X-2352500Y-5740435D01*
X26277118Y-5189835D02*
G75*
G03*
X26545289Y-5111835I-8J500025D01*
G01*
X35237500Y-10397934D02*
X35237500Y-10948533D01*
X26813461Y-5111835D02*
G75*
G03*
X26545289Y-5111835I-134086J-211000D01*
G01*
X-2852500Y-10698533D02*
G75*
G03*
X-2602500Y-10948533I250000J0D01*
G01*
X-2152500Y1362500D02*
G75*
G03*
X-1952500Y1162500I200000J0D01*
G01*
X28772740Y-2908500D02*
G75*
G03*
X28672742Y-2808500I-100000J0D01*
G01*
X-2152500Y-7233533D02*
X-407783Y-7233533D01*
X28672742Y-1148502D02*
G75*
G03*
X28772742Y-1048500I-2J100002D01*
G01*
X10186542Y-9288533D02*
X18429130Y-9288533D01*
X-352500Y2612500D02*
G75*
G03*
X-552500Y2812500I-200000J0D01*
G01*
X35037500Y2631900D02*
X35037500Y3292500D01*
X9727746Y-6949834D02*
G75*
G03*
X9627742Y-6849834I-100006J-6D01*
G01*
X22866790Y1412500D02*
G75*
G03*
X23116784Y1162500I249990J-10D01*
G01*
X29231542Y-2808502D02*
G75*
G03*
X29131542Y-2908500I-2J-99998D01*
G01*
X35037500Y-7233533D02*
X35037500Y-7784133D01*
X28672742Y-5189832D02*
G75*
G03*
X28772742Y-5089835I-2J100002D01*
G01*
X8024608Y-10948534D02*
G75*
G03*
X7754869Y-11027533I-8J-499976D01*
G01*
X27294045Y-6849837D02*
G75*
G03*
X26906001Y-7034522I-15J-499973D01*
G01*
X2792882Y-7233533D02*
X9627742Y-7233533D01*
X24757852Y-3211334D02*
X26677148Y-3211334D01*
X10186542Y-6849832D02*
G75*
G03*
X10086542Y-6949834I-2J-99998D01*
G01*
X19295458Y-8893533D02*
G75*
G03*
X18804542Y-8893533I-245458J-249500D01*
G01*
X24658569Y-1069500D02*
G75*
G03*
X24388831Y-1069500I-134869J-210500D01*
G01*
X9727747Y-8993533D02*
G75*
G03*
X9627742Y-8893533I-100007J-7D01*
G01*
X9727740Y-930000D02*
G75*
G03*
X9627742Y-830000I-100000J0D01*
G01*
X8240870Y-9288533D02*
X9627742Y-9288533D01*
X35037500Y1412500D02*
X35037500Y2073100D01*
X28772742Y-5089835D02*
X28772742Y-4971335D01*
X28672742Y830000D02*
X10186542Y830000D01*
X22666784Y2631900D02*
X22666784Y3292500D01*
X34787500Y1162500D02*
G75*
G03*
X35037500Y1412500I0J250000D01*
G01*
X7852828Y-9103844D02*
G75*
G03*
X8240870Y-9288533I388042J315304D01*
G01*
X27319757Y-1148500D02*
X28672742Y-1148500D01*
X29131540Y930000D02*
G75*
G03*
X29231542Y830000I100000J0D01*
G01*
X22666790Y3292500D02*
G75*
G03*
X22416784Y3542500I-250010J-10D01*
G01*
X22666776Y2631900D02*
G75*
G03*
X22866784Y2631900I100004J0D01*
G01*
X28672742Y-8893533D02*
X26817795Y-8893533D01*
X9627742Y830000D02*
X-1852500Y830000D01*
X29231542Y-830002D02*
G75*
G03*
X29131542Y-930000I-2J-99998D01*
G01*
X-2352500Y-6299234D02*
X-2352500Y-7784133D01*
X26817795Y-8893536D02*
G75*
G03*
X26429751Y-9078221I-15J-499974D01*
G01*
X2151599Y-9078221D02*
G75*
G03*
X2617251Y-9078221I232826J189188D01*
G01*
X35037500Y-8893533D02*
X29231542Y-8893533D01*
X-2352500Y-279400D02*
X-2352500Y-1699100D01*
X-2152500Y-3211334D02*
X9627742Y-3211334D01*
X10086547Y-7133533D02*
G75*
G03*
X10186542Y-7233533I99993J-7D01*
G01*
X-624045Y-8893533D02*
X-2152500Y-8893533D01*
X-236001Y-9078221D02*
G75*
G03*
X-624045Y-8893533I-388044J-315312D01*
G01*
X24420444Y-5110835D02*
G75*
G03*
X24150706Y-5110835I-134869J-210500D01*
G01*
X35237500Y2073100D02*
G75*
G03*
X35037500Y2073100I-100000J0D01*
G01*
X35037500Y-8342933D02*
X35037500Y-8893533D01*
X29231542Y-8893532D02*
G75*
G03*
X29131542Y-8993533I-2J-99998D01*
G01*
X9627742Y-830000D02*
X-2152500Y-830000D01*
X22416784Y3542500D02*
X-2602500Y3542500D01*
X-2352500Y-8342933D02*
X-2352500Y-9839135D01*
X10186542Y-2808502D02*
G75*
G03*
X10086542Y-2908500I-2J-99998D01*
G01*
X28772740Y1062500D02*
G75*
G03*
X28672742Y1162500I-100000J0D01*
G01*
X9627742Y-8893533D02*
X7865458Y-8893533D01*
X26927168Y-7233533D02*
X28672742Y-7233533D01*
X35037500Y-5740435D02*
G75*
G03*
X35237500Y-5740436I100000J-5D01*
G01*
X7485131Y-11027533D02*
G75*
G03*
X7754869Y-11027533I134869J210500D01*
G01*
X29231542Y-4871332D02*
G75*
G03*
X29131542Y-4971335I-2J-99998D01*
G01*
X35037500Y-830000D02*
X29231542Y-830000D01*
X35037500Y-5189835D02*
X35037500Y-5740435D01*
X-2602500Y3542500D02*
G75*
G03*
X-2852500Y3292500I0J-250000D01*
G01*
X27145452Y-3211334D02*
X28672744Y-3211310D01*
X-2152500Y530000D02*
X-2152500Y279400D01*
X35037500Y-3761934D02*
G75*
G03*
X35237500Y-3761934I100000J4D01*
G01*
X-2152500Y-1699100D02*
X-2152500Y-1148500D01*
X29131542Y-930000D02*
X29131542Y-1048500D01*
X18915132Y-11027532D02*
G75*
G03*
X18645392Y-10948533I-269742J-421018D01*
G01*
X9627742Y-3211332D02*
G75*
G03*
X9727742Y-3111334I-2J100002D01*
G01*
X617695Y-8893533D02*
G75*
G03*
X229651Y-9078221I0J-500000D01*
G01*
X9627742Y-7233532D02*
G75*
G03*
X9727742Y-7133533I-2J100002D01*
G01*
X-2852500Y3292500D02*
X-2852500Y-10698533D01*
X25964097Y-9078222D02*
G75*
G03*
X25576055Y-8893533I-388057J-315338D01*
G01*
X22666784Y1030000D02*
X22666784Y2073100D01*
X29131545Y-5089835D02*
G75*
G03*
X29231542Y-5189835I99995J-6D01*
G01*
X9727740Y-2908500D02*
G75*
G03*
X9627742Y-2808500I-100000J0D01*
G01*
X9627742Y-9288532D02*
G75*
G03*
X9727742Y-9188533I-2J100002D01*
G01*
X28672742Y-6849834D02*
X27294045Y-6849834D01*
X-2352500Y-9839135D02*
G75*
G03*
X-2152500Y-9839134I100000J1D01*
G01*
X-152500Y1708100D02*
G75*
G03*
X-352500Y1708100I-100000J0D01*
G01*
X26677148Y-3211334D02*
G75*
G03*
X27145452Y-3211334I234152J249500D01*
G01*
X24006449Y-7211268D02*
G75*
G03*
X23674456Y-7154533I-197119J-153752D01*
G01*
X-1852500Y830000D02*
G75*
G03*
X-2152500Y530000I0J-300000D01*
G01*
X2138967Y-9288533D02*
G75*
G03*
X2629883Y-9288533I245458J249500D01*
G01*
X24052747Y-7034523D02*
G75*
G03*
X23664705Y-6849834I-388057J-315337D01*
G01*
X29131542Y-9188533D02*
X29131542Y-8993533D01*
X-2152500Y-4871335D02*
X-2152500Y-4320733D01*
X242283Y-9288533D02*
X2138967Y-9288533D01*
X35037500Y-2808500D02*
X29231542Y-2808500D01*
X-2152500Y-2808500D02*
X-2152500Y-2257899D01*
X23664705Y-6849834D02*
X10186542Y-6849834D01*
X25576055Y-8893533D02*
X24430195Y-8893533D01*
X-2352500Y-2257899D02*
X-2352500Y-3761934D01*
X19454608Y-10948534D02*
G75*
G03*
X19184869Y-11027533I-8J-499976D01*
G01*
X35737500Y-10698533D02*
X35737500Y3292500D01*
X35037500Y-3211334D02*
X35037500Y-3761934D01*
X35037500Y-2257900D02*
X35037500Y-2808500D01*
X28672742Y-9288532D02*
G75*
G03*
X28772742Y-9188533I-2J100002D01*
G01*
X29231542Y-3211329D02*
X35037500Y-3211334D01*
X24052749Y-7034522D02*
G75*
G03*
X24518401Y-7034522I232826J189188D01*
G01*
X10086540Y-1048500D02*
G75*
G03*
X10186542Y-1148500I100000J0D01*
G01*
X26440347Y-7034523D02*
G75*
G03*
X26052305Y-6849834I-388057J-315337D01*
G01*
X29131547Y-7133533D02*
G75*
G03*
X29231542Y-7233533I99993J-7D01*
G01*
X24690183Y-5189835D02*
X26277118Y-5189835D01*
X-2352500Y-7784133D02*
G75*
G03*
X-2152500Y-7784132I100000J1D01*
G01*
X7852826Y-9103846D02*
G75*
G03*
X7387174Y-9103846I-232826J-189188D01*
G01*
X131695Y-7154533D02*
G75*
G03*
X401433Y-7233533I269738J420998D01*
G01*
X-2152500Y-9288533D02*
X-248633Y-9288533D01*
X2524711Y-7155533D02*
G75*
G03*
X2256539Y-7155533I-134086J-211000D01*
G01*
X-2352500Y-5740435D02*
G75*
G03*
X-2152500Y-5740435I100000J0D01*
G01*
X-2152500Y-1148500D02*
X9627742Y-1148500D01*
X25800868Y-7233534D02*
G75*
G03*
X26069039Y-7155533I-8J500024D01*
G01*
X10186542Y1030000D02*
G75*
G03*
X10186542Y830000I-2J-100000D01*
G01*
X9727742Y-4971335D02*
X9727742Y-5089835D01*
X28772742Y-6949834D02*
X28772742Y-7133533D01*
X7865458Y-8893533D02*
G75*
G03*
X7374542Y-8893533I-245458J-249500D01*
G01*
X18804542Y-8893533D02*
X10186542Y-8893533D01*
X24928308Y-1148500D02*
X26515243Y-1148500D01*
X10086547Y-9188533D02*
G75*
G03*
X10186542Y-9288533I99993J-7D01*
G01*
X9627742Y-1148502D02*
G75*
G03*
X9727742Y-1048500I-2J100002D01*
G01*
X-2152500Y-2257900D02*
G75*
G03*
X-2352500Y-2257899I-100000J1D01*
G01*
X34737500Y-10948540D02*
G75*
G03*
X35037500Y-10648533I-10J300010D01*
G01*
X-2152500Y1708100D02*
G75*
G03*
X-2352500Y1708100I-100000J0D01*
G01*
X26678474Y-2993187D02*
G75*
G03*
X26290430Y-2808500I-388044J-315313D01*
G01*
X-2152500Y-5740435D02*
X-2152500Y-5189835D01*
X19282826Y-9103846D02*
G75*
G03*
X18817174Y-9103846I-232826J-189188D01*
G01*
X29231542Y1162498D02*
G75*
G03*
X29131542Y1062500I-2J-99998D01*
G01*
X25964099Y-9078221D02*
G75*
G03*
X26429751Y-9078221I232826J189188D01*
G01*
X35037500Y279401D02*
X35037500Y530000D01*
X28672742Y-2808500D02*
X27532170Y-2808500D01*
X-236001Y-9078221D02*
G75*
G03*
X229651Y-9078221I232826J189188D01*
G01*
X23404717Y-7233532D02*
G75*
G03*
X23674456Y-7154533I-7J500032D01*
G01*
X10186542Y-8893532D02*
G75*
G03*
X10086542Y-8993533I-2J-99998D01*
G01*
X-2152500Y-5189835D02*
X9627742Y-5189835D01*
X10186542Y-5189835D02*
X23880967Y-5189835D01*
X24054783Y-9288533D02*
X25951467Y-9288533D01*
X23116784Y3542506D02*
G75*
G03*
X22866784Y3292500I6J-250006D01*
G01*
X35237500Y3542500D02*
X35237500Y2631900D01*
X35237500Y-279400D02*
G75*
G03*
X35037500Y-279400I-100000J0D01*
G01*
X34737500Y830000D02*
X29231542Y830000D01*
X-407783Y-7233533D02*
G75*
G03*
X-138044Y-7154533I0J500000D01*
G01*
X22866784Y2073100D02*
X22866784Y1412500D01*
X35037500Y-6299233D02*
X35037500Y-6849834D01*
X24906445Y-6849837D02*
G75*
G03*
X24518401Y-7034522I-15J-499973D01*
G01*
X26678474Y-2993187D02*
G75*
G03*
X27144126Y-2993187I232826J189188D01*
G01*
X1763555Y-8893533D02*
X617695Y-8893533D01*
X29131542Y1062500D02*
X29131542Y930000D01*
D11*
D12*
X-2195000Y2280000D02*
X-2150000Y2235000D01*
X-2150000Y2280000D02*
X-2195000Y2235000D01*
X-2195000Y2220000D02*
X-2150000Y2175000D01*
X-2150000Y2220000D02*
X-2195000Y2175000D01*
X-2195000Y2160000D02*
X-2150000Y2115000D01*
X-2150000Y2160000D02*
X-2195000Y2115000D01*
X-2195000Y2100000D02*
X-2150000Y2055000D01*
X-2150000Y2100000D02*
X-2195000Y2055000D01*
X-2195000Y2040000D02*
X-2150000Y1995000D01*
X-2150000Y2040000D02*
X-2195000Y1995000D01*
X-2195000Y1980000D02*
X-2150000Y1935000D01*
X-2150000Y1980000D02*
X-2195000Y1935000D01*
X-2195000Y1920000D02*
X-2150000Y1875000D01*
X-2150000Y1920000D02*
X-2195000Y1875000D01*
X-2195000Y1860000D02*
X-2150000Y1815000D01*
X-2150000Y1860000D02*
X-2195000Y1815000D01*
X-2195000Y1800000D02*
X-2150000Y1755000D01*
X-2150000Y1800000D02*
X-2195000Y1755000D01*
X-2195000Y1740000D02*
X-2150000Y1695000D01*
X-2150000Y1740000D02*
X-2195000Y1695000D01*
X-2195000Y292500D02*
X-2150000Y247500D01*
X-2150000Y292500D02*
X-2195000Y247500D01*
X-2195000Y232500D02*
X-2150000Y187500D01*
X-2150000Y232500D02*
X-2195000Y187500D01*
X-2195000Y172500D02*
X-2150000Y127500D01*
X-2150000Y172500D02*
X-2195000Y127500D01*
X-2195000Y112500D02*
X-2150000Y67500D01*
X-2150000Y112500D02*
X-2195000Y67500D01*
X-2195000Y52500D02*
X-2150000Y7500D01*
X-2150000Y52500D02*
X-2195000Y7500D01*
X-2195000Y-7500D02*
X-2150000Y-52500D01*
X-2150000Y-7500D02*
X-2195000Y-52500D01*
X-2195000Y-67500D02*
X-2150000Y-112500D01*
X-2150000Y-67500D02*
X-2195000Y-112500D01*
X-2195000Y-127500D02*
X-2150000Y-172500D01*
X-2150000Y-127500D02*
X-2195000Y-172500D01*
X-2195000Y-187500D02*
X-2150000Y-232500D01*
X-2150000Y-187500D02*
X-2195000Y-232500D01*
X-2195000Y-247500D02*
X-2150000Y-292500D01*
X-2150000Y-247500D02*
X-2195000Y-292500D01*
X-2195000Y-1686000D02*
X-2150000Y-1731000D01*
X-2150000Y-1686000D02*
X-2195000Y-1731000D01*
X-2195000Y-1746000D02*
X-2150000Y-1791000D01*
X-2150000Y-1746000D02*
X-2195000Y-1791000D01*
X-2195000Y-1806000D02*
X-2150000Y-1851000D01*
X-2150000Y-1806000D02*
X-2195000Y-1851000D01*
X-2195000Y-1866000D02*
X-2150000Y-1911000D01*
X-2150000Y-1866000D02*
X-2195000Y-1911000D01*
X-2195000Y-1926000D02*
X-2150000Y-1971000D01*
X-2150000Y-1926000D02*
X-2195000Y-1971000D01*
X-2195000Y-1986000D02*
X-2150000Y-2031000D01*
X-2150000Y-1986000D02*
X-2195000Y-2031000D01*
X-2195000Y-2046000D02*
X-2150000Y-2091000D01*
X-2150000Y-2046000D02*
X-2195000Y-2091000D01*
X-2195000Y-2106000D02*
X-2150000Y-2151000D01*
X-2150000Y-2106000D02*
X-2195000Y-2151000D01*
X-2195000Y-2166000D02*
X-2150000Y-2211000D01*
X-2150000Y-2166000D02*
X-2195000Y-2211000D01*
X-2195000Y-2226000D02*
X-2150000Y-2271000D01*
X-2150000Y-2226000D02*
X-2195000Y-2271000D01*
X-2195000Y-3748830D02*
X-2150000Y-3793830D01*
X-2150000Y-3748830D02*
X-2195000Y-3793830D01*
X-2195000Y-3808830D02*
X-2150000Y-3853830D01*
X-2150000Y-3808830D02*
X-2195000Y-3853830D01*
X-2195000Y-3868830D02*
X-2150000Y-3913830D01*
X-2150000Y-3868830D02*
X-2195000Y-3913830D01*
X-2195000Y-3928830D02*
X-2150000Y-3973830D01*
X-2150000Y-3928830D02*
X-2195000Y-3973830D01*
X-2195000Y-3988830D02*
X-2150000Y-4033830D01*
X-2150000Y-3988830D02*
X-2195000Y-4033830D01*
X-2195000Y-4048830D02*
X-2150000Y-4093830D01*
X-2150000Y-4048830D02*
X-2195000Y-4093830D01*
X-2195000Y-4108830D02*
X-2150000Y-4153830D01*
X-2150000Y-4108830D02*
X-2195000Y-4153830D01*
X-2195000Y-4168830D02*
X-2150000Y-4213830D01*
X-2150000Y-4168830D02*
X-2195000Y-4213830D01*
X-2195000Y-4228830D02*
X-2150000Y-4273830D01*
X-2150000Y-4228830D02*
X-2195000Y-4273830D01*
X-2195000Y-4288830D02*
X-2150000Y-4333830D01*
X-2150000Y-4288830D02*
X-2195000Y-4333830D01*
X-2195000Y-5727330D02*
X-2150000Y-5772330D01*
X-2150000Y-5727330D02*
X-2195000Y-5772330D01*
X-2195000Y-5787330D02*
X-2150000Y-5832330D01*
X-2150000Y-5787330D02*
X-2195000Y-5832330D01*
X-2195000Y-5847330D02*
X-2150000Y-5892330D01*
X-2150000Y-5847330D02*
X-2195000Y-5892330D01*
X-2195000Y-5907330D02*
X-2150000Y-5952330D01*
X-2150000Y-5907330D02*
X-2195000Y-5952330D01*
X-2195000Y-5967330D02*
X-2150000Y-6012330D01*
X-2150000Y-5967330D02*
X-2195000Y-6012330D01*
X-2195000Y-6027330D02*
X-2150000Y-6072330D01*
X-2150000Y-6027330D02*
X-2195000Y-6072330D01*
X-2195000Y-6087330D02*
X-2150000Y-6132330D01*
X-2150000Y-6087330D02*
X-2195000Y-6132330D01*
X-2195000Y-6147330D02*
X-2150000Y-6192330D01*
X-2150000Y-6147330D02*
X-2195000Y-6192330D01*
X-2195000Y-6207330D02*
X-2150000Y-6252330D01*
X-2150000Y-6207330D02*
X-2195000Y-6252330D01*
X-2195000Y-6267330D02*
X-2150000Y-6312330D01*
X-2150000Y-6267330D02*
X-2195000Y-6312330D01*
X-2195000Y-7761030D02*
X-2150000Y-7806030D01*
X-2150000Y-7761030D02*
X-2195000Y-7806030D01*
X-2195000Y-7821030D02*
X-2150000Y-7866030D01*
X-2150000Y-7821030D02*
X-2195000Y-7866030D01*
X-2195000Y-7881030D02*
X-2150000Y-7926030D01*
X-2150000Y-7881030D02*
X-2195000Y-7926030D01*
X-2195000Y-7941030D02*
X-2150000Y-7986030D01*
X-2150000Y-7941030D02*
X-2195000Y-7986030D01*
X-2195000Y-8001030D02*
X-2150000Y-8046030D01*
X-2150000Y-8001030D02*
X-2195000Y-8046030D01*
X-2195000Y-8061030D02*
X-2150000Y-8106030D01*
X-2150000Y-8061030D02*
X-2195000Y-8106030D01*
X-2195000Y-8121030D02*
X-2150000Y-8166030D01*
X-2150000Y-8121030D02*
X-2195000Y-8166030D01*
X-2195000Y-8181030D02*
X-2150000Y-8226030D01*
X-2150000Y-8181030D02*
X-2195000Y-8226030D01*
X-2195000Y-8241030D02*
X-2150000Y-8286030D01*
X-2150000Y-8241030D02*
X-2195000Y-8286030D01*
X-2195000Y-8301030D02*
X-2150000Y-8346030D01*
X-2150000Y-8301030D02*
X-2195000Y-8346030D01*
X-2195000Y-9826030D02*
X-2150000Y-9871030D01*
X-2150000Y-9826030D02*
X-2195000Y-9871030D01*
X-2195000Y-9886030D02*
X-2150000Y-9931030D01*
X-2150000Y-9886030D02*
X-2195000Y-9931030D01*
X-2195000Y-9946030D02*
X-2150000Y-9991030D01*
X-2150000Y-9946030D02*
X-2195000Y-9991030D01*
X-2195000Y-10006030D02*
X-2150000Y-10051030D01*
X-2150000Y-10006030D02*
X-2195000Y-10051030D01*
X-2195000Y-10066030D02*
X-2150000Y-10111030D01*
X-2150000Y-10066030D02*
X-2195000Y-10111030D01*
X-2195000Y-10126030D02*
X-2150000Y-10171030D01*
X-2150000Y-10126030D02*
X-2195000Y-10171030D01*
X-2195000Y-10186030D02*
X-2150000Y-10231030D01*
X-2150000Y-10186030D02*
X-2195000Y-10231030D01*
X-2195000Y-10246030D02*
X-2150000Y-10291030D01*
X-2150000Y-10246030D02*
X-2195000Y-10291030D01*
X-2195000Y-10306030D02*
X-2150000Y-10351030D01*
X-2150000Y-10306030D02*
X-2195000Y-10351030D01*
X-2195000Y-10366030D02*
X-2150000Y-10411030D01*
X-2150000Y-10366030D02*
X-2195000Y-10411030D01*
X-355000Y2280000D02*
X-310000Y2235000D01*
X-310000Y2280000D02*
X-355000Y2235000D01*
X-355000Y2220000D02*
X-310000Y2175000D01*
X-310000Y2220000D02*
X-355000Y2175000D01*
X-355000Y2160000D02*
X-310000Y2115000D01*
X-310000Y2160000D02*
X-355000Y2115000D01*
X-355000Y2100000D02*
X-310000Y2055000D01*
X-310000Y2100000D02*
X-355000Y2055000D01*
X-355000Y2040000D02*
X-310000Y1995000D01*
X-310000Y2040000D02*
X-355000Y1995000D01*
X-355000Y1980000D02*
X-310000Y1935000D01*
X-310000Y1980000D02*
X-355000Y1935000D01*
X-355000Y1920000D02*
X-310000Y1875000D01*
X-310000Y1920000D02*
X-355000Y1875000D01*
X-355000Y1860000D02*
X-310000Y1815000D01*
X-310000Y1860000D02*
X-355000Y1815000D01*
X-355000Y1800000D02*
X-310000Y1755000D01*
X-310000Y1800000D02*
X-355000Y1755000D01*
X-355000Y1740000D02*
X-310000Y1695000D01*
X-310000Y1740000D02*
X-355000Y1695000D01*
X9613104Y-1106000D02*
X9658104Y-1151000D01*
X9658104Y-1106000D02*
X9613104Y-1151000D01*
X9614640Y1032500D02*
X9659640Y987500D01*
X9659640Y1032500D02*
X9614640Y987500D01*
X9614640Y872500D02*
X9659640Y827500D01*
X9659640Y872500D02*
X9614640Y827500D01*
X9614640Y-2806000D02*
X9659640Y-2851000D01*
X9659640Y-2806000D02*
X9614640Y-2851000D01*
X9614640Y-3168790D02*
X9659640Y-3213790D01*
X9659640Y-3168790D02*
X9614640Y-3213790D01*
X9614640Y-4868830D02*
X9659640Y-4913830D01*
X9659640Y-4868830D02*
X9614640Y-4913830D01*
X9614640Y-5147330D02*
X9659640Y-5192330D01*
X9659640Y-5147330D02*
X9614640Y-5192330D01*
X9614640Y-6847330D02*
X9659640Y-6892330D01*
X9659640Y-6847330D02*
X9614640Y-6892330D01*
X9614640Y-8891030D02*
X9659640Y-8936030D01*
X9659640Y-8891030D02*
X9614640Y-8936030D01*
X9614640Y-9246030D02*
X9659640Y-9291030D01*
X9659640Y-9246030D02*
X9614640Y-9291030D01*
X9619576Y-7191030D02*
X9664576Y-7236030D01*
X9664576Y-7191030D02*
X9619576Y-7236030D01*
X9623370Y-827500D02*
X9668370Y-872500D01*
X9668370Y-827500D02*
X9623370Y-872500D01*
X9673104Y-1106000D02*
X9718104Y-1151000D01*
X9718104Y-1106000D02*
X9673104Y-1151000D01*
X9674640Y1032500D02*
X9719640Y987500D01*
X9719640Y1032500D02*
X9674640Y987500D01*
X9674640Y872500D02*
X9719640Y827500D01*
X9719640Y872500D02*
X9674640Y827500D01*
X9674640Y-2806000D02*
X9719640Y-2851000D01*
X9719640Y-2806000D02*
X9674640Y-2851000D01*
X9674640Y-3168790D02*
X9719640Y-3213790D01*
X9719640Y-3168790D02*
X9674640Y-3213790D01*
X9674640Y-4868830D02*
X9719640Y-4913830D01*
X9719640Y-4868830D02*
X9674640Y-4913830D01*
X9674640Y-5147330D02*
X9719640Y-5192330D01*
X9719640Y-5147330D02*
X9674640Y-5192330D01*
X9674640Y-6847330D02*
X9719640Y-6892330D01*
X9719640Y-6847330D02*
X9674640Y-6892330D01*
X9674640Y-8891030D02*
X9719640Y-8936030D01*
X9719640Y-8891030D02*
X9674640Y-8936030D01*
X9674640Y-9246030D02*
X9719640Y-9291030D01*
X9719640Y-9246030D02*
X9674640Y-9291030D01*
X9679576Y-7191030D02*
X9724576Y-7236030D01*
X9724576Y-7191030D02*
X9679576Y-7236030D01*
X9683370Y-827500D02*
X9728370Y-872500D01*
X9728370Y-827500D02*
X9683370Y-872500D01*
X9733104Y-1106000D02*
X9778104Y-1151000D01*
X9778104Y-1106000D02*
X9733104Y-1151000D01*
X9734640Y1032500D02*
X9779640Y987500D01*
X9779640Y1032500D02*
X9734640Y987500D01*
X9734640Y872500D02*
X9779640Y827500D01*
X9779640Y872500D02*
X9734640Y827500D01*
X9734640Y-2806000D02*
X9779640Y-2851000D01*
X9779640Y-2806000D02*
X9734640Y-2851000D01*
X9734640Y-3168790D02*
X9779640Y-3213790D01*
X9779640Y-3168790D02*
X9734640Y-3213790D01*
X9734640Y-4868830D02*
X9779640Y-4913830D01*
X9779640Y-4868830D02*
X9734640Y-4913830D01*
X9734640Y-5147330D02*
X9779640Y-5192330D01*
X9779640Y-5147330D02*
X9734640Y-5192330D01*
X9734640Y-6847330D02*
X9779640Y-6892330D01*
X9779640Y-6847330D02*
X9734640Y-6892330D01*
X9734640Y-8891030D02*
X9779640Y-8936030D01*
X9779640Y-8891030D02*
X9734640Y-8936030D01*
X9734640Y-9246030D02*
X9779640Y-9291030D01*
X9779640Y-9246030D02*
X9734640Y-9291030D01*
X9739576Y-7191030D02*
X9784576Y-7236030D01*
X9784576Y-7191030D02*
X9739576Y-7236030D01*
X9743370Y-827500D02*
X9788370Y-872500D01*
X9788370Y-827500D02*
X9743370Y-872500D01*
X9793104Y-1106000D02*
X9838104Y-1151000D01*
X9838104Y-1106000D02*
X9793104Y-1151000D01*
X9794640Y1032500D02*
X9839640Y987500D01*
X9839640Y1032500D02*
X9794640Y987500D01*
X9794640Y872500D02*
X9839640Y827500D01*
X9839640Y872500D02*
X9794640Y827500D01*
X9794640Y-2806000D02*
X9839640Y-2851000D01*
X9839640Y-2806000D02*
X9794640Y-2851000D01*
X9794640Y-3168790D02*
X9839640Y-3213790D01*
X9839640Y-3168790D02*
X9794640Y-3213790D01*
X9794640Y-4868830D02*
X9839640Y-4913830D01*
X9839640Y-4868830D02*
X9794640Y-4913830D01*
X9794640Y-5147330D02*
X9839640Y-5192330D01*
X9839640Y-5147330D02*
X9794640Y-5192330D01*
X9794640Y-6847330D02*
X9839640Y-6892330D01*
X9839640Y-6847330D02*
X9794640Y-6892330D01*
X9794640Y-8891030D02*
X9839640Y-8936030D01*
X9839640Y-8891030D02*
X9794640Y-8936030D01*
X9794640Y-9246030D02*
X9839640Y-9291030D01*
X9839640Y-9246030D02*
X9794640Y-9291030D01*
X9799576Y-7191030D02*
X9844576Y-7236030D01*
X9844576Y-7191030D02*
X9799576Y-7236030D01*
X9803370Y-827500D02*
X9848370Y-872500D01*
X9848370Y-827500D02*
X9803370Y-872500D01*
X9853104Y-1106000D02*
X9898104Y-1151000D01*
X9898104Y-1106000D02*
X9853104Y-1151000D01*
X9854640Y1032500D02*
X9899640Y987500D01*
X9899640Y1032500D02*
X9854640Y987500D01*
X9854640Y872500D02*
X9899640Y827500D01*
X9899640Y872500D02*
X9854640Y827500D01*
X9854640Y-2806000D02*
X9899640Y-2851000D01*
X9899640Y-2806000D02*
X9854640Y-2851000D01*
X9854640Y-3168790D02*
X9899640Y-3213790D01*
X9899640Y-3168790D02*
X9854640Y-3213790D01*
X9854640Y-4868830D02*
X9899640Y-4913830D01*
X9899640Y-4868830D02*
X9854640Y-4913830D01*
X9854640Y-5147330D02*
X9899640Y-5192330D01*
X9899640Y-5147330D02*
X9854640Y-5192330D01*
X9854640Y-6847330D02*
X9899640Y-6892330D01*
X9899640Y-6847330D02*
X9854640Y-6892330D01*
X9854640Y-8891030D02*
X9899640Y-8936030D01*
X9899640Y-8891030D02*
X9854640Y-8936030D01*
X9854640Y-9246030D02*
X9899640Y-9291030D01*
X9899640Y-9246030D02*
X9854640Y-9291030D01*
X9859576Y-7191030D02*
X9904576Y-7236030D01*
X9904576Y-7191030D02*
X9859576Y-7236030D01*
X9863370Y-827500D02*
X9908370Y-872500D01*
X9908370Y-827500D02*
X9863370Y-872500D01*
X9913104Y-1106000D02*
X9958104Y-1151000D01*
X9958104Y-1106000D02*
X9913104Y-1151000D01*
X9914640Y1032500D02*
X9959640Y987500D01*
X9959640Y1032500D02*
X9914640Y987500D01*
X9914640Y872500D02*
X9959640Y827500D01*
X9959640Y872500D02*
X9914640Y827500D01*
X9914640Y-2806000D02*
X9959640Y-2851000D01*
X9959640Y-2806000D02*
X9914640Y-2851000D01*
X9914640Y-3168790D02*
X9959640Y-3213790D01*
X9959640Y-3168790D02*
X9914640Y-3213790D01*
X9914640Y-4868830D02*
X9959640Y-4913830D01*
X9959640Y-4868830D02*
X9914640Y-4913830D01*
X9914640Y-5147330D02*
X9959640Y-5192330D01*
X9959640Y-5147330D02*
X9914640Y-5192330D01*
X9914640Y-6847330D02*
X9959640Y-6892330D01*
X9959640Y-6847330D02*
X9914640Y-6892330D01*
X9914640Y-8891030D02*
X9959640Y-8936030D01*
X9959640Y-8891030D02*
X9914640Y-8936030D01*
X9914640Y-9246030D02*
X9959640Y-9291030D01*
X9959640Y-9246030D02*
X9914640Y-9291030D01*
X9919576Y-7191030D02*
X9964576Y-7236030D01*
X9964576Y-7191030D02*
X9919576Y-7236030D01*
X9923370Y-827500D02*
X9968370Y-872500D01*
X9968370Y-827500D02*
X9923370Y-872500D01*
X9973104Y-1106000D02*
X10018104Y-1151000D01*
X10018104Y-1106000D02*
X9973104Y-1151000D01*
X9974640Y1032500D02*
X10019640Y987500D01*
X10019640Y1032500D02*
X9974640Y987500D01*
X9974640Y872500D02*
X10019640Y827500D01*
X10019640Y872500D02*
X9974640Y827500D01*
X9974640Y-2806000D02*
X10019640Y-2851000D01*
X10019640Y-2806000D02*
X9974640Y-2851000D01*
X9974640Y-3168790D02*
X10019640Y-3213790D01*
X10019640Y-3168790D02*
X9974640Y-3213790D01*
X9974640Y-4868830D02*
X10019640Y-4913830D01*
X10019640Y-4868830D02*
X9974640Y-4913830D01*
X9974640Y-5147330D02*
X10019640Y-5192330D01*
X10019640Y-5147330D02*
X9974640Y-5192330D01*
X9974640Y-6847330D02*
X10019640Y-6892330D01*
X10019640Y-6847330D02*
X9974640Y-6892330D01*
X9974640Y-8891030D02*
X10019640Y-8936030D01*
X10019640Y-8891030D02*
X9974640Y-8936030D01*
X9974640Y-9246030D02*
X10019640Y-9291030D01*
X10019640Y-9246030D02*
X9974640Y-9291030D01*
X9979576Y-7191030D02*
X10024576Y-7236030D01*
X10024576Y-7191030D02*
X9979576Y-7236030D01*
X9983370Y-827500D02*
X10028370Y-872500D01*
X10028370Y-827500D02*
X9983370Y-872500D01*
X10033104Y-1106000D02*
X10078104Y-1151000D01*
X10078104Y-1106000D02*
X10033104Y-1151000D01*
X10034640Y1032500D02*
X10079640Y987500D01*
X10079640Y1032500D02*
X10034640Y987500D01*
X10034640Y872500D02*
X10079640Y827500D01*
X10079640Y872500D02*
X10034640Y827500D01*
X10034640Y-2806000D02*
X10079640Y-2851000D01*
X10079640Y-2806000D02*
X10034640Y-2851000D01*
X10034640Y-3168790D02*
X10079640Y-3213790D01*
X10079640Y-3168790D02*
X10034640Y-3213790D01*
X10034640Y-4868830D02*
X10079640Y-4913830D01*
X10079640Y-4868830D02*
X10034640Y-4913830D01*
X10034640Y-5147330D02*
X10079640Y-5192330D01*
X10079640Y-5147330D02*
X10034640Y-5192330D01*
X10034640Y-6847330D02*
X10079640Y-6892330D01*
X10079640Y-6847330D02*
X10034640Y-6892330D01*
X10034640Y-8891030D02*
X10079640Y-8936030D01*
X10079640Y-8891030D02*
X10034640Y-8936030D01*
X10034640Y-9246030D02*
X10079640Y-9291030D01*
X10079640Y-9246030D02*
X10034640Y-9291030D01*
X10039576Y-7191030D02*
X10084576Y-7236030D01*
X10084576Y-7191030D02*
X10039576Y-7236030D01*
X10043370Y-827500D02*
X10088370Y-872500D01*
X10088370Y-827500D02*
X10043370Y-872500D01*
X10093104Y-1106000D02*
X10138104Y-1151000D01*
X10138104Y-1106000D02*
X10093104Y-1151000D01*
X10094640Y1032500D02*
X10139640Y987500D01*
X10139640Y1032500D02*
X10094640Y987500D01*
X10094640Y872500D02*
X10139640Y827500D01*
X10139640Y872500D02*
X10094640Y827500D01*
X10094640Y-2806000D02*
X10139640Y-2851000D01*
X10139640Y-2806000D02*
X10094640Y-2851000D01*
X10094640Y-3168790D02*
X10139640Y-3213790D01*
X10139640Y-3168790D02*
X10094640Y-3213790D01*
X10094640Y-4868830D02*
X10139640Y-4913830D01*
X10139640Y-4868830D02*
X10094640Y-4913830D01*
X10094640Y-5147330D02*
X10139640Y-5192330D01*
X10139640Y-5147330D02*
X10094640Y-5192330D01*
X10094640Y-6847330D02*
X10139640Y-6892330D01*
X10139640Y-6847330D02*
X10094640Y-6892330D01*
X10094640Y-8891030D02*
X10139640Y-8936030D01*
X10139640Y-8891030D02*
X10094640Y-8936030D01*
X10094640Y-9246030D02*
X10139640Y-9291030D01*
X10139640Y-9246030D02*
X10094640Y-9291030D01*
X10099576Y-7191030D02*
X10144576Y-7236030D01*
X10144576Y-7191030D02*
X10099576Y-7236030D01*
X10103370Y-827500D02*
X10148370Y-872500D01*
X10148370Y-827500D02*
X10103370Y-872500D01*
X10153104Y-1106000D02*
X10198104Y-1151000D01*
X10198104Y-1106000D02*
X10153104Y-1151000D01*
X10154640Y1032500D02*
X10199640Y987500D01*
X10199640Y1032500D02*
X10154640Y987500D01*
X10154640Y872500D02*
X10199640Y827500D01*
X10199640Y872500D02*
X10154640Y827500D01*
X10154640Y-2806000D02*
X10199640Y-2851000D01*
X10199640Y-2806000D02*
X10154640Y-2851000D01*
X10154640Y-3168790D02*
X10199640Y-3213790D01*
X10199640Y-3168790D02*
X10154640Y-3213790D01*
X10154640Y-4868830D02*
X10199640Y-4913830D01*
X10199640Y-4868830D02*
X10154640Y-4913830D01*
X10154640Y-5147330D02*
X10199640Y-5192330D01*
X10199640Y-5147330D02*
X10154640Y-5192330D01*
X10154640Y-6847330D02*
X10199640Y-6892330D01*
X10199640Y-6847330D02*
X10154640Y-6892330D01*
X10154640Y-8891030D02*
X10199640Y-8936030D01*
X10199640Y-8891030D02*
X10154640Y-8936030D01*
X10154640Y-9246030D02*
X10199640Y-9291030D01*
X10199640Y-9246030D02*
X10154640Y-9291030D01*
X10159576Y-7191030D02*
X10204576Y-7236030D01*
X10204576Y-7191030D02*
X10159576Y-7236030D01*
X10163370Y-827500D02*
X10208370Y-872500D01*
X10208370Y-827500D02*
X10163370Y-872500D01*
X22824280Y2645000D02*
X22869280Y2600000D01*
X22869280Y2645000D02*
X22824280Y2600000D01*
X22824280Y2585000D02*
X22869280Y2540000D01*
X22869280Y2585000D02*
X22824280Y2540000D01*
X22824280Y2525000D02*
X22869280Y2480000D01*
X22869280Y2525000D02*
X22824280Y2480000D01*
X22824280Y2465000D02*
X22869280Y2420000D01*
X22869280Y2465000D02*
X22824280Y2420000D01*
X22824280Y2405000D02*
X22869280Y2360000D01*
X22869280Y2405000D02*
X22824280Y2360000D01*
X22824280Y2345000D02*
X22869280Y2300000D01*
X22869280Y2345000D02*
X22824280Y2300000D01*
X22824280Y2285000D02*
X22869280Y2240000D01*
X22869280Y2285000D02*
X22824280Y2240000D01*
X22824280Y2225000D02*
X22869280Y2180000D01*
X22869280Y2225000D02*
X22824280Y2180000D01*
X22824280Y2165000D02*
X22869280Y2120000D01*
X22869280Y2165000D02*
X22824280Y2120000D01*
X22824280Y2105000D02*
X22869280Y2060000D01*
X22869280Y2105000D02*
X22824280Y2060000D01*
X28648925Y-1106000D02*
X28693925Y-1151000D01*
X28693925Y-1106000D02*
X28648925Y-1151000D01*
X28658797Y-827500D02*
X28703797Y-872500D01*
X28703797Y-827500D02*
X28658797Y-872500D01*
X28659640Y1165000D02*
X28704640Y1120000D01*
X28704640Y1165000D02*
X28659640Y1120000D01*
X28659640Y872500D02*
X28704640Y827500D01*
X28704640Y872500D02*
X28659640Y827500D01*
X28659640Y-2801030D02*
X28704640Y-2846030D01*
X28704640Y-2801030D02*
X28659640Y-2846030D01*
X28659640Y-3168820D02*
X28704640Y-3213820D01*
X28704640Y-3168820D02*
X28659640Y-3213820D01*
X28659640Y-4868830D02*
X28704640Y-4913830D01*
X28704640Y-4868830D02*
X28659640Y-4913830D01*
X28659640Y-5147330D02*
X28704640Y-5192330D01*
X28704640Y-5147330D02*
X28659640Y-5192330D01*
X28659640Y-6847330D02*
X28704640Y-6892330D01*
X28704640Y-6847330D02*
X28659640Y-6892330D01*
X28659640Y-7191030D02*
X28704640Y-7236030D01*
X28704640Y-7191030D02*
X28659640Y-7236030D01*
X28659640Y-8891030D02*
X28704640Y-8936030D01*
X28704640Y-8891030D02*
X28659640Y-8936030D01*
X28659640Y-9246030D02*
X28704640Y-9291030D01*
X28704640Y-9246030D02*
X28659640Y-9291030D01*
X28708925Y-1106000D02*
X28753925Y-1151000D01*
X28753925Y-1106000D02*
X28708925Y-1151000D01*
X28718797Y-827500D02*
X28763797Y-872500D01*
X28763797Y-827500D02*
X28718797Y-872500D01*
X28719640Y1165000D02*
X28764640Y1120000D01*
X28764640Y1165000D02*
X28719640Y1120000D01*
X28719640Y872500D02*
X28764640Y827500D01*
X28764640Y872500D02*
X28719640Y827500D01*
X28719640Y-2801030D02*
X28764640Y-2846030D01*
X28764640Y-2801030D02*
X28719640Y-2846030D01*
X28719640Y-3168820D02*
X28764640Y-3213820D01*
X28764640Y-3168820D02*
X28719640Y-3213820D01*
X28719640Y-4868830D02*
X28764640Y-4913830D01*
X28764640Y-4868830D02*
X28719640Y-4913830D01*
X28719640Y-5147330D02*
X28764640Y-5192330D01*
X28764640Y-5147330D02*
X28719640Y-5192330D01*
X28719640Y-6847330D02*
X28764640Y-6892330D01*
X28764640Y-6847330D02*
X28719640Y-6892330D01*
X28719640Y-7191030D02*
X28764640Y-7236030D01*
X28764640Y-7191030D02*
X28719640Y-7236030D01*
X28719640Y-8891030D02*
X28764640Y-8936030D01*
X28764640Y-8891030D02*
X28719640Y-8936030D01*
X28719640Y-9246030D02*
X28764640Y-9291030D01*
X28764640Y-9246030D02*
X28719640Y-9291030D01*
X28768925Y-1106000D02*
X28813925Y-1151000D01*
X28813925Y-1106000D02*
X28768925Y-1151000D01*
X28778797Y-827500D02*
X28823797Y-872500D01*
X28823797Y-827500D02*
X28778797Y-872500D01*
X28779640Y1165000D02*
X28824640Y1120000D01*
X28824640Y1165000D02*
X28779640Y1120000D01*
X28779640Y872500D02*
X28824640Y827500D01*
X28824640Y872500D02*
X28779640Y827500D01*
X28779640Y-2801030D02*
X28824640Y-2846030D01*
X28824640Y-2801030D02*
X28779640Y-2846030D01*
X28779640Y-3168820D02*
X28824640Y-3213820D01*
X28824640Y-3168820D02*
X28779640Y-3213820D01*
X28779640Y-4868830D02*
X28824640Y-4913830D01*
X28824640Y-4868830D02*
X28779640Y-4913830D01*
X28779640Y-5147330D02*
X28824640Y-5192330D01*
X28824640Y-5147330D02*
X28779640Y-5192330D01*
X28779640Y-6847330D02*
X28824640Y-6892330D01*
X28824640Y-6847330D02*
X28779640Y-6892330D01*
X28779640Y-7191030D02*
X28824640Y-7236030D01*
X28824640Y-7191030D02*
X28779640Y-7236030D01*
X28779640Y-8891030D02*
X28824640Y-8936030D01*
X28824640Y-8891030D02*
X28779640Y-8936030D01*
X28779640Y-9246030D02*
X28824640Y-9291030D01*
X28824640Y-9246030D02*
X28779640Y-9291030D01*
X28828925Y-1106000D02*
X28873925Y-1151000D01*
X28873925Y-1106000D02*
X28828925Y-1151000D01*
X28838797Y-827500D02*
X28883797Y-872500D01*
X28883797Y-827500D02*
X28838797Y-872500D01*
X28839640Y1165000D02*
X28884640Y1120000D01*
X28884640Y1165000D02*
X28839640Y1120000D01*
X28839640Y872500D02*
X28884640Y827500D01*
X28884640Y872500D02*
X28839640Y827500D01*
X28839640Y-2801030D02*
X28884640Y-2846030D01*
X28884640Y-2801030D02*
X28839640Y-2846030D01*
X28839640Y-3168820D02*
X28884640Y-3213820D01*
X28884640Y-3168820D02*
X28839640Y-3213820D01*
X28839640Y-4868830D02*
X28884640Y-4913830D01*
X28884640Y-4868830D02*
X28839640Y-4913830D01*
X28839640Y-5147330D02*
X28884640Y-5192330D01*
X28884640Y-5147330D02*
X28839640Y-5192330D01*
X28839640Y-6847330D02*
X28884640Y-6892330D01*
X28884640Y-6847330D02*
X28839640Y-6892330D01*
X28839640Y-7191030D02*
X28884640Y-7236030D01*
X28884640Y-7191030D02*
X28839640Y-7236030D01*
X28839640Y-8891030D02*
X28884640Y-8936030D01*
X28884640Y-8891030D02*
X28839640Y-8936030D01*
X28839640Y-9246030D02*
X28884640Y-9291030D01*
X28884640Y-9246030D02*
X28839640Y-9291030D01*
X28888925Y-1106000D02*
X28933925Y-1151000D01*
X28933925Y-1106000D02*
X28888925Y-1151000D01*
X28898797Y-827500D02*
X28943797Y-872500D01*
X28943797Y-827500D02*
X28898797Y-872500D01*
X28899640Y1165000D02*
X28944640Y1120000D01*
X28944640Y1165000D02*
X28899640Y1120000D01*
X28899640Y872500D02*
X28944640Y827500D01*
X28944640Y872500D02*
X28899640Y827500D01*
X28899640Y-2801030D02*
X28944640Y-2846030D01*
X28944640Y-2801030D02*
X28899640Y-2846030D01*
X28899640Y-3168820D02*
X28944640Y-3213820D01*
X28944640Y-3168820D02*
X28899640Y-3213820D01*
X28899640Y-4868830D02*
X28944640Y-4913830D01*
X28944640Y-4868830D02*
X28899640Y-4913830D01*
X28899640Y-5147330D02*
X28944640Y-5192330D01*
X28944640Y-5147330D02*
X28899640Y-5192330D01*
X28899640Y-6847330D02*
X28944640Y-6892330D01*
X28944640Y-6847330D02*
X28899640Y-6892330D01*
X28899640Y-7191030D02*
X28944640Y-7236030D01*
X28944640Y-7191030D02*
X28899640Y-7236030D01*
X28899640Y-8891030D02*
X28944640Y-8936030D01*
X28944640Y-8891030D02*
X28899640Y-8936030D01*
X28899640Y-9246030D02*
X28944640Y-9291030D01*
X28944640Y-9246030D02*
X28899640Y-9291030D01*
X28948925Y-1106000D02*
X28993925Y-1151000D01*
X28993925Y-1106000D02*
X28948925Y-1151000D01*
X28958797Y-827500D02*
X29003797Y-872500D01*
X29003797Y-827500D02*
X28958797Y-872500D01*
X28959640Y1165000D02*
X29004640Y1120000D01*
X29004640Y1165000D02*
X28959640Y1120000D01*
X28959640Y872500D02*
X29004640Y827500D01*
X29004640Y872500D02*
X28959640Y827500D01*
X28959640Y-2801030D02*
X29004640Y-2846030D01*
X29004640Y-2801030D02*
X28959640Y-2846030D01*
X28959640Y-3168820D02*
X29004640Y-3213820D01*
X29004640Y-3168820D02*
X28959640Y-3213820D01*
X28959640Y-4868830D02*
X29004640Y-4913830D01*
X29004640Y-4868830D02*
X28959640Y-4913830D01*
X28959640Y-5147330D02*
X29004640Y-5192330D01*
X29004640Y-5147330D02*
X28959640Y-5192330D01*
X28959640Y-6847330D02*
X29004640Y-6892330D01*
X29004640Y-6847330D02*
X28959640Y-6892330D01*
X28959640Y-7191030D02*
X29004640Y-7236030D01*
X29004640Y-7191030D02*
X28959640Y-7236030D01*
X28959640Y-8891030D02*
X29004640Y-8936030D01*
X29004640Y-8891030D02*
X28959640Y-8936030D01*
X28959640Y-9246030D02*
X29004640Y-9291030D01*
X29004640Y-9246030D02*
X28959640Y-9291030D01*
X29008925Y-1106000D02*
X29053925Y-1151000D01*
X29053925Y-1106000D02*
X29008925Y-1151000D01*
X29018797Y-827500D02*
X29063797Y-872500D01*
X29063797Y-827500D02*
X29018797Y-872500D01*
X29019640Y1165000D02*
X29064640Y1120000D01*
X29064640Y1165000D02*
X29019640Y1120000D01*
X29019640Y872500D02*
X29064640Y827500D01*
X29064640Y872500D02*
X29019640Y827500D01*
X29019640Y-2801030D02*
X29064640Y-2846030D01*
X29064640Y-2801030D02*
X29019640Y-2846030D01*
X29019640Y-3168820D02*
X29064640Y-3213820D01*
X29064640Y-3168820D02*
X29019640Y-3213820D01*
X29019640Y-4868830D02*
X29064640Y-4913830D01*
X29064640Y-4868830D02*
X29019640Y-4913830D01*
X29019640Y-5147330D02*
X29064640Y-5192330D01*
X29064640Y-5147330D02*
X29019640Y-5192330D01*
X29019640Y-6847330D02*
X29064640Y-6892330D01*
X29064640Y-6847330D02*
X29019640Y-6892330D01*
X29019640Y-7191030D02*
X29064640Y-7236030D01*
X29064640Y-7191030D02*
X29019640Y-7236030D01*
X29019640Y-8891030D02*
X29064640Y-8936030D01*
X29064640Y-8891030D02*
X29019640Y-8936030D01*
X29019640Y-9246030D02*
X29064640Y-9291030D01*
X29064640Y-9246030D02*
X29019640Y-9291030D01*
X29068925Y-1106000D02*
X29113925Y-1151000D01*
X29113925Y-1106000D02*
X29068925Y-1151000D01*
X29078797Y-827500D02*
X29123797Y-872500D01*
X29123797Y-827500D02*
X29078797Y-872500D01*
X29079640Y1165000D02*
X29124640Y1120000D01*
X29124640Y1165000D02*
X29079640Y1120000D01*
X29079640Y872500D02*
X29124640Y827500D01*
X29124640Y872500D02*
X29079640Y827500D01*
X29079640Y-2801030D02*
X29124640Y-2846030D01*
X29124640Y-2801030D02*
X29079640Y-2846030D01*
X29079640Y-3168820D02*
X29124640Y-3213820D01*
X29124640Y-3168820D02*
X29079640Y-3213820D01*
X29079640Y-4868830D02*
X29124640Y-4913830D01*
X29124640Y-4868830D02*
X29079640Y-4913830D01*
X29079640Y-5147330D02*
X29124640Y-5192330D01*
X29124640Y-5147330D02*
X29079640Y-5192330D01*
X29079640Y-6847330D02*
X29124640Y-6892330D01*
X29124640Y-6847330D02*
X29079640Y-6892330D01*
X29079640Y-7191030D02*
X29124640Y-7236030D01*
X29124640Y-7191030D02*
X29079640Y-7236030D01*
X29079640Y-8891030D02*
X29124640Y-8936030D01*
X29124640Y-8891030D02*
X29079640Y-8936030D01*
X29079640Y-9246030D02*
X29124640Y-9291030D01*
X29124640Y-9246030D02*
X29079640Y-9291030D01*
X29128925Y-1106000D02*
X29173925Y-1151000D01*
X29173925Y-1106000D02*
X29128925Y-1151000D01*
X29138797Y-827500D02*
X29183797Y-872500D01*
X29183797Y-827500D02*
X29138797Y-872500D01*
X29139640Y1165000D02*
X29184640Y1120000D01*
X29184640Y1165000D02*
X29139640Y1120000D01*
X29139640Y872500D02*
X29184640Y827500D01*
X29184640Y872500D02*
X29139640Y827500D01*
X29139640Y-2801030D02*
X29184640Y-2846030D01*
X29184640Y-2801030D02*
X29139640Y-2846030D01*
X29139640Y-3168820D02*
X29184640Y-3213820D01*
X29184640Y-3168820D02*
X29139640Y-3213820D01*
X29139640Y-4868830D02*
X29184640Y-4913830D01*
X29184640Y-4868830D02*
X29139640Y-4913830D01*
X29139640Y-5147330D02*
X29184640Y-5192330D01*
X29184640Y-5147330D02*
X29139640Y-5192330D01*
X29139640Y-6847330D02*
X29184640Y-6892330D01*
X29184640Y-6847330D02*
X29139640Y-6892330D01*
X29139640Y-7191030D02*
X29184640Y-7236030D01*
X29184640Y-7191030D02*
X29139640Y-7236030D01*
X29139640Y-8891030D02*
X29184640Y-8936030D01*
X29184640Y-8891030D02*
X29139640Y-8936030D01*
X29139640Y-9246030D02*
X29184640Y-9291030D01*
X29184640Y-9246030D02*
X29139640Y-9291030D01*
X29188925Y-1106000D02*
X29233925Y-1151000D01*
X29233925Y-1106000D02*
X29188925Y-1151000D01*
X29198797Y-827500D02*
X29243797Y-872500D01*
X29243797Y-827500D02*
X29198797Y-872500D01*
X29199640Y1165000D02*
X29244640Y1120000D01*
X29244640Y1165000D02*
X29199640Y1120000D01*
X29199640Y872500D02*
X29244640Y827500D01*
X29244640Y872500D02*
X29199640Y827500D01*
X29199640Y-2801030D02*
X29244640Y-2846030D01*
X29244640Y-2801030D02*
X29199640Y-2846030D01*
X29199640Y-3168820D02*
X29244640Y-3213820D01*
X29244640Y-3168820D02*
X29199640Y-3213820D01*
X29199640Y-4868830D02*
X29244640Y-4913830D01*
X29244640Y-4868830D02*
X29199640Y-4913830D01*
X29199640Y-5147330D02*
X29244640Y-5192330D01*
X29244640Y-5147330D02*
X29199640Y-5192330D01*
X29199640Y-6847330D02*
X29244640Y-6892330D01*
X29244640Y-6847330D02*
X29199640Y-6892330D01*
X29199640Y-7191030D02*
X29244640Y-7236030D01*
X29244640Y-7191030D02*
X29199640Y-7236030D01*
X29199640Y-8891030D02*
X29244640Y-8936030D01*
X29244640Y-8891030D02*
X29199640Y-8936030D01*
X29199640Y-9246030D02*
X29244640Y-9291030D01*
X29244640Y-9246030D02*
X29199640Y-9291030D01*
X35035000Y292500D02*
X35080000Y247500D01*
X35080000Y292500D02*
X35035000Y247500D01*
X35035000Y232500D02*
X35080000Y187500D01*
X35080000Y232500D02*
X35035000Y187500D01*
X35035000Y172500D02*
X35080000Y127500D01*
X35080000Y172500D02*
X35035000Y127500D01*
X35035000Y112500D02*
X35080000Y67500D01*
X35080000Y112500D02*
X35035000Y67500D01*
X35035000Y52500D02*
X35080000Y7500D01*
X35080000Y52500D02*
X35035000Y7500D01*
X35035000Y-7500D02*
X35080000Y-52500D01*
X35080000Y-7500D02*
X35035000Y-52500D01*
X35035000Y-67500D02*
X35080000Y-112500D01*
X35080000Y-67500D02*
X35035000Y-112500D01*
X35035000Y-127500D02*
X35080000Y-172500D01*
X35080000Y-127500D02*
X35035000Y-172500D01*
X35035000Y-187500D02*
X35080000Y-232500D01*
X35080000Y-187500D02*
X35035000Y-232500D01*
X35035000Y-247500D02*
X35080000Y-292500D01*
X35080000Y-247500D02*
X35035000Y-292500D01*
X35035000Y-1686000D02*
X35080000Y-1731000D01*
X35080000Y-1686000D02*
X35035000Y-1731000D01*
X35035000Y-1746000D02*
X35080000Y-1791000D01*
X35080000Y-1746000D02*
X35035000Y-1791000D01*
X35035000Y-1806000D02*
X35080000Y-1851000D01*
X35080000Y-1806000D02*
X35035000Y-1851000D01*
X35035000Y-1866000D02*
X35080000Y-1911000D01*
X35080000Y-1866000D02*
X35035000Y-1911000D01*
X35035000Y-1926000D02*
X35080000Y-1971000D01*
X35080000Y-1926000D02*
X35035000Y-1971000D01*
X35035000Y-1986000D02*
X35080000Y-2031000D01*
X35080000Y-1986000D02*
X35035000Y-2031000D01*
X35035000Y-2046000D02*
X35080000Y-2091000D01*
X35080000Y-2046000D02*
X35035000Y-2091000D01*
X35035000Y-2106000D02*
X35080000Y-2151000D01*
X35080000Y-2106000D02*
X35035000Y-2151000D01*
X35035000Y-2166000D02*
X35080000Y-2211000D01*
X35080000Y-2166000D02*
X35035000Y-2211000D01*
X35035000Y-2226000D02*
X35080000Y-2271000D01*
X35080000Y-2226000D02*
X35035000Y-2271000D01*
X35035000Y-3748830D02*
X35080000Y-3793830D01*
X35080000Y-3748830D02*
X35035000Y-3793830D01*
X35035000Y-3808830D02*
X35080000Y-3853830D01*
X35080000Y-3808830D02*
X35035000Y-3853830D01*
X35035000Y-3868830D02*
X35080000Y-3913830D01*
X35080000Y-3868830D02*
X35035000Y-3913830D01*
X35035000Y-3928830D02*
X35080000Y-3973830D01*
X35080000Y-3928830D02*
X35035000Y-3973830D01*
X35035000Y-3988830D02*
X35080000Y-4033830D01*
X35080000Y-3988830D02*
X35035000Y-4033830D01*
X35035000Y-4048830D02*
X35080000Y-4093830D01*
X35080000Y-4048830D02*
X35035000Y-4093830D01*
X35035000Y-4108830D02*
X35080000Y-4153830D01*
X35080000Y-4108830D02*
X35035000Y-4153830D01*
X35035000Y-4168830D02*
X35080000Y-4213830D01*
X35080000Y-4168830D02*
X35035000Y-4213830D01*
X35035000Y-4228830D02*
X35080000Y-4273830D01*
X35080000Y-4228830D02*
X35035000Y-4273830D01*
X35035000Y-4288830D02*
X35080000Y-4333830D01*
X35080000Y-4288830D02*
X35035000Y-4333830D01*
X35035000Y-5727330D02*
X35080000Y-5772330D01*
X35080000Y-5727330D02*
X35035000Y-5772330D01*
X35035000Y-5787330D02*
X35080000Y-5832330D01*
X35080000Y-5787330D02*
X35035000Y-5832330D01*
X35035000Y-5847330D02*
X35080000Y-5892330D01*
X35080000Y-5847330D02*
X35035000Y-5892330D01*
X35035000Y-5907330D02*
X35080000Y-5952330D01*
X35080000Y-5907330D02*
X35035000Y-5952330D01*
X35035000Y-5967330D02*
X35080000Y-6012330D01*
X35080000Y-5967330D02*
X35035000Y-6012330D01*
X35035000Y-6027330D02*
X35080000Y-6072330D01*
X35080000Y-6027330D02*
X35035000Y-6072330D01*
X35035000Y-6087330D02*
X35080000Y-6132330D01*
X35080000Y-6087330D02*
X35035000Y-6132330D01*
X35035000Y-6147330D02*
X35080000Y-6192330D01*
X35080000Y-6147330D02*
X35035000Y-6192330D01*
X35035000Y-6207330D02*
X35080000Y-6252330D01*
X35080000Y-6207330D02*
X35035000Y-6252330D01*
X35035000Y-6267330D02*
X35080000Y-6312330D01*
X35080000Y-6267330D02*
X35035000Y-6312330D01*
X35035000Y-7761030D02*
X35080000Y-7806030D01*
X35080000Y-7761030D02*
X35035000Y-7806030D01*
X35035000Y-7821030D02*
X35080000Y-7866030D01*
X35080000Y-7821030D02*
X35035000Y-7866030D01*
X35035000Y-7881030D02*
X35080000Y-7926030D01*
X35080000Y-7881030D02*
X35035000Y-7926030D01*
X35035000Y-7941030D02*
X35080000Y-7986030D01*
X35080000Y-7941030D02*
X35035000Y-7986030D01*
X35035000Y-8001030D02*
X35080000Y-8046030D01*
X35080000Y-8001030D02*
X35035000Y-8046030D01*
X35035000Y-8061030D02*
X35080000Y-8106030D01*
X35080000Y-8061030D02*
X35035000Y-8106030D01*
X35035000Y-8121030D02*
X35080000Y-8166030D01*
X35080000Y-8121030D02*
X35035000Y-8166030D01*
X35035000Y-8181030D02*
X35080000Y-8226030D01*
X35080000Y-8181030D02*
X35035000Y-8226030D01*
X35035000Y-8241030D02*
X35080000Y-8286030D01*
X35080000Y-8241030D02*
X35035000Y-8286030D01*
X35035000Y-8301030D02*
X35080000Y-8346030D01*
X35080000Y-8301030D02*
X35035000Y-8346030D01*
X35035000Y-9826030D02*
X35080000Y-9871030D01*
X35080000Y-9826030D02*
X35035000Y-9871030D01*
X35035000Y-9886030D02*
X35080000Y-9931030D01*
X35080000Y-9886030D02*
X35035000Y-9931030D01*
X35035000Y-9946030D02*
X35080000Y-9991030D01*
X35080000Y-9946030D02*
X35035000Y-9991030D01*
X35035000Y-10006030D02*
X35080000Y-10051030D01*
X35080000Y-10006030D02*
X35035000Y-10051030D01*
X35035000Y-10066030D02*
X35080000Y-10111030D01*
X35080000Y-10066030D02*
X35035000Y-10111030D01*
X35035000Y-10126030D02*
X35080000Y-10171030D01*
X35080000Y-10126030D02*
X35035000Y-10171030D01*
X35035000Y-10186030D02*
X35080000Y-10231030D01*
X35080000Y-10186030D02*
X35035000Y-10231030D01*
X35035000Y-10246030D02*
X35080000Y-10291030D01*
X35080000Y-10246030D02*
X35035000Y-10291030D01*
X35035000Y-10306030D02*
X35080000Y-10351030D01*
X35080000Y-10306030D02*
X35035000Y-10351030D01*
X35035000Y-10366030D02*
X35080000Y-10411030D01*
X35080000Y-10366030D02*
X35035000Y-10411030D01*
X35037500Y2652500D02*
X35082500Y2607500D01*
X35082500Y2652500D02*
X35037500Y2607500D01*
X35037500Y2592500D02*
X35082500Y2547500D01*
X35082500Y2592500D02*
X35037500Y2547500D01*
X35037500Y2532500D02*
X35082500Y2487500D01*
X35082500Y2532500D02*
X35037500Y2487500D01*
X35037500Y2472500D02*
X35082500Y2427500D01*
X35082500Y2472500D02*
X35037500Y2427500D01*
X35037500Y2412500D02*
X35082500Y2367500D01*
X35082500Y2412500D02*
X35037500Y2367500D01*
X35037500Y2352500D02*
X35082500Y2307500D01*
X35082500Y2352500D02*
X35037500Y2307500D01*
X35037500Y2292500D02*
X35082500Y2247500D01*
X35082500Y2292500D02*
X35037500Y2247500D01*
X35037500Y2232500D02*
X35082500Y2187500D01*
X35082500Y2232500D02*
X35037500Y2187500D01*
X35037500Y2172500D02*
X35082500Y2127500D01*
X35082500Y2172500D02*
X35037500Y2127500D01*
X35037500Y2112500D02*
X35082500Y2067500D01*
X35082500Y2112500D02*
X35037500Y2067500D01*
D13*
X-1508800Y2187600D02*
G75*
G03*
X-1508800Y2187600I-32500J0D01*
G01*
X-930800Y2187600D02*
G75*
G03*
X-930800Y2187600I-32500J0D01*
G01*
D14*
X30579000Y1683130D02*
X30579000Y1584070D01*
X30529470Y1633600D02*
X30628530Y1633600D01*
X30579000Y1479930D02*
X30579000Y1380870D01*
X30529470Y1430400D02*
X30628530Y1430400D01*
X31087000Y1581530D02*
X31087000Y1482470D01*
X31037470Y1532000D02*
X31136530Y1532000D01*
D15*
X-446128Y-61872D02*
X-446128Y61872D01*
X-569872Y61872D01*
X-569872Y-61872D01*
X-446128Y-61872D01*
X-446128Y-2040372D02*
X-446128Y-1916628D01*
X-569872Y-1916628D01*
X-569872Y-2040372D01*
X-446128Y-2040372D01*
X-206128Y-6080452D02*
X-206128Y-5956708D01*
X-329872Y-5956708D01*
X-329872Y-6080452D01*
X-206128Y-6080452D01*
X30122Y-4103202D02*
X30122Y-3979458D01*
X-93622Y-3979458D01*
X-93622Y-4103202D01*
X30122Y-4103202D01*
X30122Y-10180402D02*
X30122Y-10056658D01*
X-93622Y-10056658D01*
X-93622Y-10180402D01*
X30122Y-10180402D01*
X268247Y-6081702D02*
X268247Y-5957958D01*
X144503Y-5957958D01*
X144503Y-6081702D01*
X268247Y-6081702D01*
X569872Y-61872D02*
X569872Y61872D01*
X446128Y61872D01*
X446128Y-61872D01*
X569872Y-61872D01*
X569872Y-2040372D02*
X569872Y-1916628D01*
X446128Y-1916628D01*
X446128Y-2040372D01*
X569872Y-2040372D01*
X744497Y-8125402D02*
X744497Y-8001658D01*
X620753Y-8001658D01*
X620753Y-8125402D01*
X744497Y-8125402D01*
X809872Y-6080452D02*
X809872Y-5956708D01*
X686128Y-5956708D01*
X686128Y-6080452D01*
X809872Y-6080452D01*
X1046122Y-4103202D02*
X1046122Y-3979458D01*
X922378Y-3979458D01*
X922378Y-4103202D01*
X1046122Y-4103202D01*
X1046122Y-10180402D02*
X1046122Y-10056658D01*
X922378Y-10056658D01*
X922378Y-10180402D01*
X1046122Y-10180402D01*
X1284247Y-6081702D02*
X1284247Y-5957958D01*
X1160503Y-5957958D01*
X1160503Y-6081702D01*
X1284247Y-6081702D01*
X1458872Y-2040372D02*
X1458872Y-1916628D01*
X1335128Y-1916628D01*
X1335128Y-2040372D01*
X1458872Y-2040372D01*
X1760497Y-8125402D02*
X1760497Y-8001658D01*
X1636753Y-8001658D01*
X1636753Y-8125402D01*
X1760497Y-8125402D01*
X2411372Y-4103202D02*
X2411372Y-3979458D01*
X2287628Y-3979458D01*
X2287628Y-4103202D01*
X2411372Y-4103202D01*
X2474872Y-2040372D02*
X2474872Y-1916628D01*
X2351128Y-1916628D01*
X2351128Y-2040372D01*
X2474872Y-2040372D01*
X2887622Y-6081702D02*
X2887622Y-5957958D01*
X2763878Y-5957958D01*
X2763878Y-6081702D01*
X2887622Y-6081702D01*
X3363872Y-61872D02*
X3363872Y61872D01*
X3240128Y61872D01*
X3240128Y-61872D01*
X3363872Y-61872D01*
X3363872Y-2040372D02*
X3363872Y-1916628D01*
X3240128Y-1916628D01*
X3240128Y-2040372D01*
X3363872Y-2040372D01*
X3427372Y-4103202D02*
X3427372Y-3979458D01*
X3303628Y-3979458D01*
X3303628Y-4103202D01*
X3427372Y-4103202D01*
X3840122Y-8125402D02*
X3840122Y-8001658D01*
X3716378Y-8001658D01*
X3716378Y-8125402D01*
X3840122Y-8125402D01*
X3903622Y-6081702D02*
X3903622Y-5957958D01*
X3779878Y-5957958D01*
X3779878Y-6081702D01*
X3903622Y-6081702D01*
X4316372Y-4103202D02*
X4316372Y-3979458D01*
X4192628Y-3979458D01*
X4192628Y-4103202D01*
X4316372Y-4103202D01*
X4379872Y-61872D02*
X4379872Y61872D01*
X4256128Y61872D01*
X4256128Y-61872D01*
X4379872Y-61872D01*
X4379872Y-2040372D02*
X4379872Y-1916628D01*
X4256128Y-1916628D01*
X4256128Y-2040372D01*
X4379872Y-2040372D01*
X4792622Y-6081702D02*
X4792622Y-5957958D01*
X4668878Y-5957958D01*
X4668878Y-6081702D01*
X4792622Y-6081702D01*
X4792622Y-10180402D02*
X4792622Y-10056658D01*
X4668878Y-10056658D01*
X4668878Y-10180402D01*
X4792622Y-10180402D01*
X4856122Y-8125402D02*
X4856122Y-8001658D01*
X4732378Y-8001658D01*
X4732378Y-8125402D01*
X4856122Y-8125402D01*
X5268872Y-61872D02*
X5268872Y61872D01*
X5145128Y61872D01*
X5145128Y-61872D01*
X5268872Y-61872D01*
X5268872Y-2040372D02*
X5268872Y-1916628D01*
X5145128Y-1916628D01*
X5145128Y-2040372D01*
X5268872Y-2040372D01*
X5332372Y-4103202D02*
X5332372Y-3979458D01*
X5208628Y-3979458D01*
X5208628Y-4103202D01*
X5332372Y-4103202D01*
X5745122Y-8125402D02*
X5745122Y-8001658D01*
X5621378Y-8001658D01*
X5621378Y-8125402D01*
X5745122Y-8125402D01*
X5808622Y-6081702D02*
X5808622Y-5957958D01*
X5684878Y-5957958D01*
X5684878Y-6081702D01*
X5808622Y-6081702D01*
X5808622Y-10180402D02*
X5808622Y-10056658D01*
X5684878Y-10056658D01*
X5684878Y-10180402D01*
X5808622Y-10180402D01*
X6221372Y-4103202D02*
X6221372Y-3979458D01*
X6097628Y-3979458D01*
X6097628Y-4103202D01*
X6221372Y-4103202D01*
X6284872Y-61872D02*
X6284872Y61872D01*
X6161128Y61872D01*
X6161128Y-61872D01*
X6284872Y-61872D01*
X6284872Y-2040372D02*
X6284872Y-1916628D01*
X6161128Y-1916628D01*
X6161128Y-2040372D01*
X6284872Y-2040372D01*
X6697622Y-6081702D02*
X6697622Y-5957958D01*
X6573878Y-5957958D01*
X6573878Y-6081702D01*
X6697622Y-6081702D01*
X6761122Y-8125402D02*
X6761122Y-8001658D01*
X6637378Y-8001658D01*
X6637378Y-8125402D01*
X6761122Y-8125402D01*
X7173872Y-61872D02*
X7173872Y61872D01*
X7050128Y61872D01*
X7050128Y-61872D01*
X7173872Y-61872D01*
X7173872Y-2040372D02*
X7173872Y-1916628D01*
X7050128Y-1916628D01*
X7050128Y-2040372D01*
X7173872Y-2040372D01*
X7237372Y-4103202D02*
X7237372Y-3979458D01*
X7113628Y-3979458D01*
X7113628Y-4103202D01*
X7237372Y-4103202D01*
X7650122Y-8125402D02*
X7650122Y-8001658D01*
X7526378Y-8001658D01*
X7526378Y-8125402D01*
X7650122Y-8125402D01*
X7713622Y-6081702D02*
X7713622Y-5957958D01*
X7589878Y-5957958D01*
X7589878Y-6081702D01*
X7713622Y-6081702D01*
X8126372Y-4103202D02*
X8126372Y-3979458D01*
X8002628Y-3979458D01*
X8002628Y-4103202D01*
X8126372Y-4103202D01*
X8189872Y-61872D02*
X8189872Y61872D01*
X8066128Y61872D01*
X8066128Y-61872D01*
X8189872Y-61872D01*
X8189872Y-2040372D02*
X8189872Y-1916628D01*
X8066128Y-1916628D01*
X8066128Y-2040372D01*
X8189872Y-2040372D01*
X8602622Y-6081702D02*
X8602622Y-5957958D01*
X8478878Y-5957958D01*
X8478878Y-6081702D01*
X8602622Y-6081702D01*
X8666122Y-8125402D02*
X8666122Y-8001658D01*
X8542378Y-8001658D01*
X8542378Y-8125402D01*
X8666122Y-8125402D01*
X9078872Y-61872D02*
X9078872Y61872D01*
X8955128Y61872D01*
X8955128Y-61872D01*
X9078872Y-61872D01*
X9078872Y-2040372D02*
X9078872Y-1916628D01*
X8955128Y-1916628D01*
X8955128Y-2040372D01*
X9078872Y-2040372D01*
X9142372Y-4103202D02*
X9142372Y-3979458D01*
X9018628Y-3979458D01*
X9018628Y-4103202D01*
X9142372Y-4103202D01*
X9555122Y-8288744D02*
X9555122Y-8165000D01*
X9431378Y-8165000D01*
X9431378Y-8288744D01*
X9555122Y-8288744D01*
X9618622Y-6081702D02*
X9618622Y-5957958D01*
X9494878Y-5957958D01*
X9494878Y-6081702D01*
X9618622Y-6081702D01*
X10031372Y-4103202D02*
X10031372Y-3979458D01*
X9907628Y-3979458D01*
X9907628Y-4103202D01*
X10031372Y-4103202D01*
X10094872Y-61872D02*
X10094872Y61872D01*
X9971128Y61872D01*
X9971128Y-61872D01*
X10094872Y-61872D01*
X10094872Y-2040372D02*
X10094872Y-1916628D01*
X9971128Y-1916628D01*
X9971128Y-2040372D01*
X10094872Y-2040372D01*
X10507622Y-6081702D02*
X10507622Y-5957958D01*
X10383878Y-5957958D01*
X10383878Y-6081702D01*
X10507622Y-6081702D01*
X10571122Y-8288744D02*
X10571122Y-8165000D01*
X10447378Y-8165000D01*
X10447378Y-8288744D01*
X10571122Y-8288744D01*
X10983872Y-2040372D02*
X10983872Y-1916628D01*
X10860128Y-1916628D01*
X10860128Y-2040372D01*
X10983872Y-2040372D01*
X11047372Y-4103202D02*
X11047372Y-3979458D01*
X10923628Y-3979458D01*
X10923628Y-4103202D01*
X11047372Y-4103202D01*
X11460122Y-8125402D02*
X11460122Y-8001658D01*
X11336378Y-8001658D01*
X11336378Y-8125402D01*
X11460122Y-8125402D01*
X11523622Y-6081702D02*
X11523622Y-5957958D01*
X11399878Y-5957958D01*
X11399878Y-6081702D01*
X11523622Y-6081702D01*
X11936372Y-61872D02*
X11936372Y61872D01*
X11812628Y61872D01*
X11812628Y-61872D01*
X11936372Y-61872D01*
X11936372Y-4103202D02*
X11936372Y-3979458D01*
X11812628Y-3979458D01*
X11812628Y-4103202D01*
X11936372Y-4103202D01*
X11999872Y-2040372D02*
X11999872Y-1916628D01*
X11876128Y-1916628D01*
X11876128Y-2040372D01*
X11999872Y-2040372D01*
X12412622Y-6081702D02*
X12412622Y-5957958D01*
X12288878Y-5957958D01*
X12288878Y-6081702D01*
X12412622Y-6081702D01*
X12476122Y-8125402D02*
X12476122Y-8001658D01*
X12352378Y-8001658D01*
X12352378Y-8125402D01*
X12476122Y-8125402D01*
X12888872Y-2040372D02*
X12888872Y-1916628D01*
X12765128Y-1916628D01*
X12765128Y-2040372D01*
X12888872Y-2040372D01*
X12888872Y-10180402D02*
X12888872Y-10056658D01*
X12765128Y-10056658D01*
X12765128Y-10180402D01*
X12888872Y-10180402D01*
X12952372Y-61872D02*
X12952372Y61872D01*
X12828628Y61872D01*
X12828628Y-61872D01*
X12952372Y-61872D01*
X12952372Y-4103202D02*
X12952372Y-3979458D01*
X12828628Y-3979458D01*
X12828628Y-4103202D01*
X12952372Y-4103202D01*
X13365122Y-8125402D02*
X13365122Y-8001658D01*
X13241378Y-8001658D01*
X13241378Y-8125402D01*
X13365122Y-8125402D01*
X13428622Y-6081702D02*
X13428622Y-5957958D01*
X13304878Y-5957958D01*
X13304878Y-6081702D01*
X13428622Y-6081702D01*
X13841372Y-61872D02*
X13841372Y61872D01*
X13717628Y61872D01*
X13717628Y-61872D01*
X13841372Y-61872D01*
X13841372Y-4103202D02*
X13841372Y-3979458D01*
X13717628Y-3979458D01*
X13717628Y-4103202D01*
X13841372Y-4103202D01*
X13904872Y-2040372D02*
X13904872Y-1916628D01*
X13781128Y-1916628D01*
X13781128Y-2040372D01*
X13904872Y-2040372D01*
X13904872Y-10180402D02*
X13904872Y-10056658D01*
X13781128Y-10056658D01*
X13781128Y-10180402D01*
X13904872Y-10180402D01*
X14317622Y-6081702D02*
X14317622Y-5957958D01*
X14193878Y-5957958D01*
X14193878Y-6081702D01*
X14317622Y-6081702D01*
X14381122Y-8125402D02*
X14381122Y-8001658D01*
X14257378Y-8001658D01*
X14257378Y-8125402D01*
X14381122Y-8125402D01*
X14793872Y-2040372D02*
X14793872Y-1916628D01*
X14670128Y-1916628D01*
X14670128Y-2040372D01*
X14793872Y-2040372D01*
X14857372Y-61872D02*
X14857372Y61872D01*
X14733628Y61872D01*
X14733628Y-61872D01*
X14857372Y-61872D01*
X14857372Y-4103202D02*
X14857372Y-3979458D01*
X14733628Y-3979458D01*
X14733628Y-4103202D01*
X14857372Y-4103202D01*
X15270122Y-8125402D02*
X15270122Y-8001658D01*
X15146378Y-8001658D01*
X15146378Y-8125402D01*
X15270122Y-8125402D01*
X15333622Y-6081702D02*
X15333622Y-5957958D01*
X15209878Y-5957958D01*
X15209878Y-6081702D01*
X15333622Y-6081702D01*
X15746372Y-61872D02*
X15746372Y61872D01*
X15622628Y61872D01*
X15622628Y-61872D01*
X15746372Y-61872D01*
X15746372Y-4103202D02*
X15746372Y-3979458D01*
X15622628Y-3979458D01*
X15622628Y-4103202D01*
X15746372Y-4103202D01*
X15809872Y-2040372D02*
X15809872Y-1916628D01*
X15686128Y-1916628D01*
X15686128Y-2040372D01*
X15809872Y-2040372D01*
X16222622Y-6081702D02*
X16222622Y-5957958D01*
X16098878Y-5957958D01*
X16098878Y-6081702D01*
X16222622Y-6081702D01*
X16286122Y-8125402D02*
X16286122Y-8001658D01*
X16162378Y-8001658D01*
X16162378Y-8125402D01*
X16286122Y-8125402D01*
X16698872Y-2040372D02*
X16698872Y-1916628D01*
X16575128Y-1916628D01*
X16575128Y-2040372D01*
X16698872Y-2040372D01*
X16762372Y-61872D02*
X16762372Y61872D01*
X16638628Y61872D01*
X16638628Y-61872D01*
X16762372Y-61872D01*
X16762372Y-4103202D02*
X16762372Y-3979458D01*
X16638628Y-3979458D01*
X16638628Y-4103202D01*
X16762372Y-4103202D01*
X17175122Y-8125402D02*
X17175122Y-8001658D01*
X17051378Y-8001658D01*
X17051378Y-8125402D01*
X17175122Y-8125402D01*
X17238622Y-6081702D02*
X17238622Y-5957958D01*
X17114878Y-5957958D01*
X17114878Y-6081702D01*
X17238622Y-6081702D01*
X17651372Y-61872D02*
X17651372Y61872D01*
X17527628Y61872D01*
X17527628Y-61872D01*
X17651372Y-61872D01*
X17651372Y-4103202D02*
X17651372Y-3979458D01*
X17527628Y-3979458D01*
X17527628Y-4103202D01*
X17651372Y-4103202D01*
X17714872Y-2040372D02*
X17714872Y-1916628D01*
X17591128Y-1916628D01*
X17591128Y-2040372D01*
X17714872Y-2040372D01*
X18127622Y-6081702D02*
X18127622Y-5957958D01*
X18003878Y-5957958D01*
X18003878Y-6081702D01*
X18127622Y-6081702D01*
X18191122Y-8125402D02*
X18191122Y-8001658D01*
X18067378Y-8001658D01*
X18067378Y-8125402D01*
X18191122Y-8125402D01*
X18603872Y-2040372D02*
X18603872Y-1916628D01*
X18480128Y-1916628D01*
X18480128Y-2040372D01*
X18603872Y-2040372D01*
X18667372Y-61872D02*
X18667372Y61872D01*
X18543628Y61872D01*
X18543628Y-61872D01*
X18667372Y-61872D01*
X18667372Y-4103202D02*
X18667372Y-3979458D01*
X18543628Y-3979458D01*
X18543628Y-4103202D01*
X18667372Y-4103202D01*
X19080122Y-8125402D02*
X19080122Y-8001658D01*
X18956378Y-8001658D01*
X18956378Y-8125402D01*
X19080122Y-8125402D01*
X19143622Y-6081702D02*
X19143622Y-5957958D01*
X19019878Y-5957958D01*
X19019878Y-6081702D01*
X19143622Y-6081702D01*
X19556372Y-4103202D02*
X19556372Y-3979458D01*
X19432628Y-3979458D01*
X19432628Y-4103202D01*
X19556372Y-4103202D01*
X19619872Y-2040372D02*
X19619872Y-1916628D01*
X19496128Y-1916628D01*
X19496128Y-2040372D01*
X19619872Y-2040372D01*
X20032622Y-6081702D02*
X20032622Y-5957958D01*
X19908878Y-5957958D01*
X19908878Y-6081702D01*
X20032622Y-6081702D01*
X20096122Y-8125402D02*
X20096122Y-8001658D01*
X19972378Y-8001658D01*
X19972378Y-8125402D01*
X20096122Y-8125402D01*
X20508872Y-61872D02*
X20508872Y61872D01*
X20385128Y61872D01*
X20385128Y-61872D01*
X20508872Y-61872D01*
X20508872Y-2040372D02*
X20508872Y-1916628D01*
X20385128Y-1916628D01*
X20385128Y-2040372D01*
X20508872Y-2040372D01*
X20572372Y-4103202D02*
X20572372Y-3979458D01*
X20448628Y-3979458D01*
X20448628Y-4103202D01*
X20572372Y-4103202D01*
X20985122Y-8125402D02*
X20985122Y-8001658D01*
X20861378Y-8001658D01*
X20861378Y-8125402D01*
X20985122Y-8125402D01*
X20985122Y-10180402D02*
X20985122Y-10056658D01*
X20861378Y-10056658D01*
X20861378Y-10180402D01*
X20985122Y-10180402D01*
X21048622Y-6081702D02*
X21048622Y-5957958D01*
X20924878Y-5957958D01*
X20924878Y-6081702D01*
X21048622Y-6081702D01*
X21461372Y-4103202D02*
X21461372Y-3979458D01*
X21337628Y-3979458D01*
X21337628Y-4103202D01*
X21461372Y-4103202D01*
X21524872Y-61872D02*
X21524872Y61872D01*
X21401128Y61872D01*
X21401128Y-61872D01*
X21524872Y-61872D01*
X21524872Y-2040372D02*
X21524872Y-1916628D01*
X21401128Y-1916628D01*
X21401128Y-2040372D01*
X21524872Y-2040372D01*
X21937622Y-6081702D02*
X21937622Y-5957958D01*
X21813878Y-5957958D01*
X21813878Y-6081702D01*
X21937622Y-6081702D01*
X22001122Y-8125402D02*
X22001122Y-8001658D01*
X21877378Y-8001658D01*
X21877378Y-8125402D01*
X22001122Y-8125402D01*
X22001122Y-10180402D02*
X22001122Y-10056658D01*
X21877378Y-10056658D01*
X21877378Y-10180402D01*
X22001122Y-10180402D01*
X22413872Y-61872D02*
X22413872Y61872D01*
X22290128Y61872D01*
X22290128Y-61872D01*
X22413872Y-61872D01*
X22413872Y-2040372D02*
X22413872Y-1916628D01*
X22290128Y-1916628D01*
X22290128Y-2040372D01*
X22413872Y-2040372D01*
X22477372Y-4103202D02*
X22477372Y-3979458D01*
X22353628Y-3979458D01*
X22353628Y-4103202D01*
X22477372Y-4103202D01*
X22953622Y-6081702D02*
X22953622Y-5957958D01*
X22829878Y-5957958D01*
X22829878Y-6081702D01*
X22953622Y-6081702D01*
X23366372Y-4103202D02*
X23366372Y-3979458D01*
X23242628Y-3979458D01*
X23242628Y-4103202D01*
X23366372Y-4103202D01*
X23429872Y-61872D02*
X23429872Y61872D01*
X23306128Y61872D01*
X23306128Y-61872D01*
X23429872Y-61872D01*
X23429872Y-2040372D02*
X23429872Y-1916628D01*
X23306128Y-1916628D01*
X23306128Y-2040372D01*
X23429872Y-2040372D01*
X24318872Y-61872D02*
X24318872Y61872D01*
X24195128Y61872D01*
X24195128Y-61872D01*
X24318872Y-61872D01*
X24382372Y-4103202D02*
X24382372Y-3979458D01*
X24258628Y-3979458D01*
X24258628Y-4103202D01*
X24382372Y-4103202D01*
X24556997Y-8125402D02*
X24556997Y-8001658D01*
X24433253Y-8001658D01*
X24433253Y-8125402D01*
X24556997Y-8125402D01*
X25033247Y-6081702D02*
X25033247Y-5957958D01*
X24909503Y-5957958D01*
X24909503Y-6081702D01*
X25033247Y-6081702D01*
X25271372Y-2040372D02*
X25271372Y-1916628D01*
X25147628Y-1916628D01*
X25147628Y-2040372D01*
X25271372Y-2040372D01*
X25334872Y-61872D02*
X25334872Y61872D01*
X25211128Y61872D01*
X25211128Y-61872D01*
X25334872Y-61872D01*
X25572997Y-8125402D02*
X25572997Y-8001658D01*
X25449253Y-8001658D01*
X25449253Y-8125402D01*
X25572997Y-8125402D01*
X25747622Y-4103202D02*
X25747622Y-3979458D01*
X25623878Y-3979458D01*
X25623878Y-4103202D01*
X25747622Y-4103202D01*
X25747622Y-10180402D02*
X25747622Y-10056658D01*
X25623878Y-10056658D01*
X25623878Y-10180402D01*
X25747622Y-10180402D01*
X26049247Y-6081702D02*
X26049247Y-5957958D01*
X25925503Y-5957958D01*
X25925503Y-6081702D01*
X26049247Y-6081702D01*
X26223872Y-61872D02*
X26223872Y61872D01*
X26100128Y61872D01*
X26100128Y-61872D01*
X26223872Y-61872D01*
X26287372Y-2040372D02*
X26287372Y-1916628D01*
X26163628Y-1916628D01*
X26163628Y-2040372D01*
X26287372Y-2040372D01*
X26763622Y-4103202D02*
X26763622Y-3979458D01*
X26639878Y-3979458D01*
X26639878Y-4103202D01*
X26763622Y-4103202D01*
X26763622Y-10180402D02*
X26763622Y-10056658D01*
X26639878Y-10056658D01*
X26639878Y-10180402D01*
X26763622Y-10180402D01*
X27239872Y-61872D02*
X27239872Y61872D01*
X27116128Y61872D01*
X27116128Y-61872D01*
X27239872Y-61872D01*
X28628872Y-61872D02*
X28628872Y61872D01*
X28505128Y61872D01*
X28505128Y-61872D01*
X28628872Y-61872D01*
X28628872Y-2040372D02*
X28628872Y-1916628D01*
X28505128Y-1916628D01*
X28505128Y-2040372D01*
X28628872Y-2040372D01*
X28628872Y-4103202D02*
X28628872Y-3979458D01*
X28505128Y-3979458D01*
X28505128Y-4103202D01*
X28628872Y-4103202D01*
X28628872Y-10180402D02*
X28628872Y-10056658D01*
X28505128Y-10056658D01*
X28505128Y-10180402D01*
X28628872Y-10180402D01*
X29644872Y-61872D02*
X29644872Y61872D01*
X29521128Y61872D01*
X29521128Y-61872D01*
X29644872Y-61872D01*
X29644872Y-2040372D02*
X29644872Y-1916628D01*
X29521128Y-1916628D01*
X29521128Y-2040372D01*
X29644872Y-2040372D01*
X29644872Y-4103202D02*
X29644872Y-3979458D01*
X29521128Y-3979458D01*
X29521128Y-4103202D01*
X29644872Y-4103202D01*
X29644872Y-10180402D02*
X29644872Y-10056658D01*
X29521128Y-10056658D01*
X29521128Y-10180402D01*
X29644872Y-10180402D01*
X30533872Y-61872D02*
X30533872Y61872D01*
X30410128Y61872D01*
X30410128Y-61872D01*
X30533872Y-61872D01*
X30533872Y-2040372D02*
X30533872Y-1916628D01*
X30410128Y-1916628D01*
X30410128Y-2040372D01*
X30533872Y-2040372D01*
X30533872Y-4103202D02*
X30533872Y-3979458D01*
X30410128Y-3979458D01*
X30410128Y-4103202D01*
X30533872Y-4103202D01*
X30533872Y-8125402D02*
X30533872Y-8001658D01*
X30410128Y-8001658D01*
X30410128Y-8125402D01*
X30533872Y-8125402D01*
X30533872Y-10180402D02*
X30533872Y-10056658D01*
X30410128Y-10056658D01*
X30410128Y-10180402D01*
X30533872Y-10180402D01*
X31549872Y-61872D02*
X31549872Y61872D01*
X31426128Y61872D01*
X31426128Y-61872D01*
X31549872Y-61872D01*
X31549872Y-2040372D02*
X31549872Y-1916628D01*
X31426128Y-1916628D01*
X31426128Y-2040372D01*
X31549872Y-2040372D01*
X31549872Y-4103202D02*
X31549872Y-3979458D01*
X31426128Y-3979458D01*
X31426128Y-4103202D01*
X31549872Y-4103202D01*
X31549872Y-8125402D02*
X31549872Y-8001658D01*
X31426128Y-8001658D01*
X31426128Y-8125402D01*
X31549872Y-8125402D01*
X31549872Y-10180402D02*
X31549872Y-10056658D01*
X31426128Y-10056658D01*
X31426128Y-10180402D01*
X31549872Y-10180402D01*
X32438872Y-61872D02*
X32438872Y61872D01*
X32315128Y61872D01*
X32315128Y-61872D01*
X32438872Y-61872D01*
X32438872Y-2040372D02*
X32438872Y-1916628D01*
X32315128Y-1916628D01*
X32315128Y-2040372D01*
X32438872Y-2040372D01*
X32438872Y-4103202D02*
X32438872Y-3979458D01*
X32315128Y-3979458D01*
X32315128Y-4103202D01*
X32438872Y-4103202D01*
X32438872Y-10180402D02*
X32438872Y-10056658D01*
X32315128Y-10056658D01*
X32315128Y-10180402D01*
X32438872Y-10180402D01*
X33454872Y-61872D02*
X33454872Y61872D01*
X33331128Y61872D01*
X33331128Y-61872D01*
X33454872Y-61872D01*
X33454872Y-2040372D02*
X33454872Y-1916628D01*
X33331128Y-1916628D01*
X33331128Y-2040372D01*
X33454872Y-2040372D01*
X33454872Y-4103202D02*
X33454872Y-3979458D01*
X33331128Y-3979458D01*
X33331128Y-4103202D01*
X33454872Y-4103202D01*
X33454872Y-10180402D02*
X33454872Y-10056658D01*
X33331128Y-10056658D01*
X33331128Y-10180402D01*
X33454872Y-10180402D01*
D16*
X-381000Y104000D02*
X-231000Y254000D01*
X-381000Y404000D01*
X-531000Y254000D01*
X-381000Y104000D01*
X-381000Y-1874500D02*
X-231000Y-1724500D01*
X-381000Y-1574500D01*
X-531000Y-1724500D01*
X-381000Y-1874500D01*
X-141000Y-5914580D02*
X9000Y-5764580D01*
X-141000Y-5614580D01*
X-291000Y-5764580D01*
X-141000Y-5914580D01*
X95250Y-3937330D02*
X245250Y-3787330D01*
X95250Y-3637330D01*
X-54750Y-3787330D01*
X95250Y-3937330D01*
X95250Y-10014530D02*
X245250Y-9864530D01*
X95250Y-9714530D01*
X-54750Y-9864530D01*
X95250Y-10014530D01*
X254000Y358000D02*
X404000Y508000D01*
X254000Y658000D01*
X104000Y508000D01*
X254000Y358000D01*
X254000Y-1620500D02*
X404000Y-1470500D01*
X254000Y-1320500D01*
X104000Y-1470500D01*
X254000Y-1620500D01*
X460375Y-6677830D02*
X610375Y-6527830D01*
X460375Y-6377830D01*
X310375Y-6527830D01*
X460375Y-6677830D01*
X494000Y-5660580D02*
X644000Y-5510580D01*
X494000Y-5360580D01*
X344000Y-5510580D01*
X494000Y-5660580D01*
X730250Y-3683330D02*
X880250Y-3533330D01*
X730250Y-3383330D01*
X580250Y-3533330D01*
X730250Y-3683330D01*
X730250Y-9760530D02*
X880250Y-9610530D01*
X730250Y-9460530D01*
X580250Y-9610530D01*
X730250Y-9760530D01*
X809625Y-7959530D02*
X959625Y-7809530D01*
X809625Y-7659530D01*
X659625Y-7809530D01*
X809625Y-7959530D01*
X1095375Y-6423830D02*
X1245375Y-6273830D01*
X1095375Y-6123830D01*
X945375Y-6273830D01*
X1095375Y-6423830D01*
X1444625Y-7705530D02*
X1594625Y-7555530D01*
X1444625Y-7405530D01*
X1294625Y-7555530D01*
X1444625Y-7705530D01*
X1524000Y-1874500D02*
X1674000Y-1724500D01*
X1524000Y-1574500D01*
X1374000Y-1724500D01*
X1524000Y-1874500D01*
X2159000Y-1620500D02*
X2309000Y-1470500D01*
X2159000Y-1320500D01*
X2009000Y-1470500D01*
X2159000Y-1620500D01*
X2476500Y-3937330D02*
X2626500Y-3787330D01*
X2476500Y-3637330D01*
X2326500Y-3787330D01*
X2476500Y-3937330D01*
X2952750Y-5915830D02*
X3102750Y-5765830D01*
X2952750Y-5615830D01*
X2802750Y-5765830D01*
X2952750Y-5915830D01*
X3111500Y-3683330D02*
X3261500Y-3533330D01*
X3111500Y-3383330D01*
X2961500Y-3533330D01*
X3111500Y-3683330D01*
X3429000Y104000D02*
X3579000Y254000D01*
X3429000Y404000D01*
X3279000Y254000D01*
X3429000Y104000D01*
X3429000Y-1874500D02*
X3579000Y-1724500D01*
X3429000Y-1574500D01*
X3279000Y-1724500D01*
X3429000Y-1874500D01*
X3587750Y-5661830D02*
X3737750Y-5511830D01*
X3587750Y-5361830D01*
X3437750Y-5511830D01*
X3587750Y-5661830D01*
X3905250Y-7959530D02*
X4055250Y-7809530D01*
X3905250Y-7659530D01*
X3755250Y-7809530D01*
X3905250Y-7959530D01*
X4064000Y358000D02*
X4214000Y508000D01*
X4064000Y658000D01*
X3914000Y508000D01*
X4064000Y358000D01*
X4064000Y-1620500D02*
X4214000Y-1470500D01*
X4064000Y-1320500D01*
X3914000Y-1470500D01*
X4064000Y-1620500D01*
X4381500Y-3937330D02*
X4531500Y-3787330D01*
X4381500Y-3637330D01*
X4231500Y-3787330D01*
X4381500Y-3937330D01*
X4540250Y-7705530D02*
X4690250Y-7555530D01*
X4540250Y-7405530D01*
X4390250Y-7555530D01*
X4540250Y-7705530D01*
X4857750Y-5915830D02*
X5007750Y-5765830D01*
X4857750Y-5615830D01*
X4707750Y-5765830D01*
X4857750Y-5915830D01*
X4857750Y-10014530D02*
X5007750Y-9864530D01*
X4857750Y-9714530D01*
X4707750Y-9864530D01*
X4857750Y-10014530D01*
X5016500Y-3683330D02*
X5166500Y-3533330D01*
X5016500Y-3383330D01*
X4866500Y-3533330D01*
X5016500Y-3683330D01*
X5334000Y104000D02*
X5484000Y254000D01*
X5334000Y404000D01*
X5184000Y254000D01*
X5334000Y104000D01*
X5334000Y-1874500D02*
X5484000Y-1724500D01*
X5334000Y-1574500D01*
X5184000Y-1724500D01*
X5334000Y-1874500D01*
X5492750Y-5661830D02*
X5642750Y-5511830D01*
X5492750Y-5361830D01*
X5342750Y-5511830D01*
X5492750Y-5661830D01*
X5492750Y-9760530D02*
X5642750Y-9610530D01*
X5492750Y-9460530D01*
X5342750Y-9610530D01*
X5492750Y-9760530D01*
X5810250Y-7959530D02*
X5960250Y-7809530D01*
X5810250Y-7659530D01*
X5660250Y-7809530D01*
X5810250Y-7959530D01*
X5969000Y358000D02*
X6119000Y508000D01*
X5969000Y658000D01*
X5819000Y508000D01*
X5969000Y358000D01*
X5969000Y-1620500D02*
X6119000Y-1470500D01*
X5969000Y-1320500D01*
X5819000Y-1470500D01*
X5969000Y-1620500D01*
X6286500Y-3937330D02*
X6436500Y-3787330D01*
X6286500Y-3637330D01*
X6136500Y-3787330D01*
X6286500Y-3937330D01*
X6445250Y-7705530D02*
X6595250Y-7555530D01*
X6445250Y-7405530D01*
X6295250Y-7555530D01*
X6445250Y-7705530D01*
X6762750Y-5915830D02*
X6912750Y-5765830D01*
X6762750Y-5615830D01*
X6612750Y-5765830D01*
X6762750Y-5915830D01*
X6921500Y-3683330D02*
X7071500Y-3533330D01*
X6921500Y-3383330D01*
X6771500Y-3533330D01*
X6921500Y-3683330D01*
X7239000Y104000D02*
X7389000Y254000D01*
X7239000Y404000D01*
X7089000Y254000D01*
X7239000Y104000D01*
X7239000Y-1874500D02*
X7389000Y-1724500D01*
X7239000Y-1574500D01*
X7089000Y-1724500D01*
X7239000Y-1874500D01*
X7397750Y-5661830D02*
X7547750Y-5511830D01*
X7397750Y-5361830D01*
X7247750Y-5511830D01*
X7397750Y-5661830D01*
X7715250Y-7959530D02*
X7865250Y-7809530D01*
X7715250Y-7659530D01*
X7565250Y-7809530D01*
X7715250Y-7959530D01*
X7874000Y358000D02*
X8024000Y508000D01*
X7874000Y658000D01*
X7724000Y508000D01*
X7874000Y358000D01*
X7874000Y-1620500D02*
X8024000Y-1470500D01*
X7874000Y-1320500D01*
X7724000Y-1470500D01*
X7874000Y-1620500D01*
X8191500Y-3937330D02*
X8341500Y-3787330D01*
X8191500Y-3637330D01*
X8041500Y-3787330D01*
X8191500Y-3937330D01*
X8350250Y-7705530D02*
X8500250Y-7555530D01*
X8350250Y-7405530D01*
X8200250Y-7555530D01*
X8350250Y-7705530D01*
X8667750Y-5915830D02*
X8817750Y-5765830D01*
X8667750Y-5615830D01*
X8517750Y-5765830D01*
X8667750Y-5915830D01*
X8826500Y-3683330D02*
X8976500Y-3533330D01*
X8826500Y-3383330D01*
X8676500Y-3533330D01*
X8826500Y-3683330D01*
X9144000Y104000D02*
X9294000Y254000D01*
X9144000Y404000D01*
X8994000Y254000D01*
X9144000Y104000D01*
X9144000Y-1874500D02*
X9294000Y-1724500D01*
X9144000Y-1574500D01*
X8994000Y-1724500D01*
X9144000Y-1874500D01*
X9302750Y-5661830D02*
X9452750Y-5511830D01*
X9302750Y-5361830D01*
X9152750Y-5511830D01*
X9302750Y-5661830D01*
X9620250Y-8122872D02*
X9770250Y-7972872D01*
X9620250Y-7822872D01*
X9470250Y-7972872D01*
X9620250Y-8122872D01*
X9779000Y358000D02*
X9929000Y508000D01*
X9779000Y658000D01*
X9629000Y508000D01*
X9779000Y358000D01*
X9779000Y-1620500D02*
X9929000Y-1470500D01*
X9779000Y-1320500D01*
X9629000Y-1470500D01*
X9779000Y-1620500D01*
X10096500Y-3937330D02*
X10246500Y-3787330D01*
X10096500Y-3637330D01*
X9946500Y-3787330D01*
X10096500Y-3937330D01*
X10255250Y-7868872D02*
X10405250Y-7718872D01*
X10255250Y-7568872D01*
X10105250Y-7718872D01*
X10255250Y-7868872D01*
X10572750Y-5915830D02*
X10722750Y-5765830D01*
X10572750Y-5615830D01*
X10422750Y-5765830D01*
X10572750Y-5915830D01*
X10731500Y-3683330D02*
X10881500Y-3533330D01*
X10731500Y-3383330D01*
X10581500Y-3533330D01*
X10731500Y-3683330D01*
X11049000Y-1874500D02*
X11199000Y-1724500D01*
X11049000Y-1574500D01*
X10899000Y-1724500D01*
X11049000Y-1874500D01*
X11207750Y-5661830D02*
X11357750Y-5511830D01*
X11207750Y-5361830D01*
X11057750Y-5511830D01*
X11207750Y-5661830D01*
X11525250Y-7959530D02*
X11675250Y-7809530D01*
X11525250Y-7659530D01*
X11375250Y-7809530D01*
X11525250Y-7959530D01*
X11684000Y-1620500D02*
X11834000Y-1470500D01*
X11684000Y-1320500D01*
X11534000Y-1470500D01*
X11684000Y-1620500D01*
X12001500Y104000D02*
X12151500Y254000D01*
X12001500Y404000D01*
X11851500Y254000D01*
X12001500Y104000D01*
X12001500Y-3937330D02*
X12151500Y-3787330D01*
X12001500Y-3637330D01*
X11851500Y-3787330D01*
X12001500Y-3937330D01*
X12160250Y-7705530D02*
X12310250Y-7555530D01*
X12160250Y-7405530D01*
X12010250Y-7555530D01*
X12160250Y-7705530D01*
X12477750Y-5915830D02*
X12627750Y-5765830D01*
X12477750Y-5615830D01*
X12327750Y-5765830D01*
X12477750Y-5915830D01*
X12636500Y358000D02*
X12786500Y508000D01*
X12636500Y658000D01*
X12486500Y508000D01*
X12636500Y358000D01*
X12636500Y-3683330D02*
X12786500Y-3533330D01*
X12636500Y-3383330D01*
X12486500Y-3533330D01*
X12636500Y-3683330D01*
X12954000Y-1874500D02*
X13104000Y-1724500D01*
X12954000Y-1574500D01*
X12804000Y-1724500D01*
X12954000Y-1874500D01*
X12954000Y-10014530D02*
X13104000Y-9864530D01*
X12954000Y-9714530D01*
X12804000Y-9864530D01*
X12954000Y-10014530D01*
X13112750Y-5661830D02*
X13262750Y-5511830D01*
X13112750Y-5361830D01*
X12962750Y-5511830D01*
X13112750Y-5661830D01*
X13430250Y-7959530D02*
X13580250Y-7809530D01*
X13430250Y-7659530D01*
X13280250Y-7809530D01*
X13430250Y-7959530D01*
X13589000Y-1620500D02*
X13739000Y-1470500D01*
X13589000Y-1320500D01*
X13439000Y-1470500D01*
X13589000Y-1620500D01*
X13589000Y-9760530D02*
X13739000Y-9610530D01*
X13589000Y-9460530D01*
X13439000Y-9610530D01*
X13589000Y-9760530D01*
X13906500Y104000D02*
X14056500Y254000D01*
X13906500Y404000D01*
X13756500Y254000D01*
X13906500Y104000D01*
X13906500Y-3937330D02*
X14056500Y-3787330D01*
X13906500Y-3637330D01*
X13756500Y-3787330D01*
X13906500Y-3937330D01*
X14065250Y-7705530D02*
X14215250Y-7555530D01*
X14065250Y-7405530D01*
X13915250Y-7555530D01*
X14065250Y-7705530D01*
X14382750Y-5915830D02*
X14532750Y-5765830D01*
X14382750Y-5615830D01*
X14232750Y-5765830D01*
X14382750Y-5915830D01*
X14541500Y358000D02*
X14691500Y508000D01*
X14541500Y658000D01*
X14391500Y508000D01*
X14541500Y358000D01*
X14541500Y-3683330D02*
X14691500Y-3533330D01*
X14541500Y-3383330D01*
X14391500Y-3533330D01*
X14541500Y-3683330D01*
X14859000Y-1874500D02*
X15009000Y-1724500D01*
X14859000Y-1574500D01*
X14709000Y-1724500D01*
X14859000Y-1874500D01*
X15017750Y-5661830D02*
X15167750Y-5511830D01*
X15017750Y-5361830D01*
X14867750Y-5511830D01*
X15017750Y-5661830D01*
X15335250Y-7959530D02*
X15485250Y-7809530D01*
X15335250Y-7659530D01*
X15185250Y-7809530D01*
X15335250Y-7959530D01*
X15494000Y-1620500D02*
X15644000Y-1470500D01*
X15494000Y-1320500D01*
X15344000Y-1470500D01*
X15494000Y-1620500D01*
X15811500Y104000D02*
X15961500Y254000D01*
X15811500Y404000D01*
X15661500Y254000D01*
X15811500Y104000D01*
X15811500Y-3937330D02*
X15961500Y-3787330D01*
X15811500Y-3637330D01*
X15661500Y-3787330D01*
X15811500Y-3937330D01*
X15970250Y-7705530D02*
X16120250Y-7555530D01*
X15970250Y-7405530D01*
X15820250Y-7555530D01*
X15970250Y-7705530D01*
X16287750Y-5915830D02*
X16437750Y-5765830D01*
X16287750Y-5615830D01*
X16137750Y-5765830D01*
X16287750Y-5915830D01*
X16446500Y358000D02*
X16596500Y508000D01*
X16446500Y658000D01*
X16296500Y508000D01*
X16446500Y358000D01*
X16446500Y-3683330D02*
X16596500Y-3533330D01*
X16446500Y-3383330D01*
X16296500Y-3533330D01*
X16446500Y-3683330D01*
X16764000Y-1874500D02*
X16914000Y-1724500D01*
X16764000Y-1574500D01*
X16614000Y-1724500D01*
X16764000Y-1874500D01*
X16922750Y-5661830D02*
X17072750Y-5511830D01*
X16922750Y-5361830D01*
X16772750Y-5511830D01*
X16922750Y-5661830D01*
X17240250Y-7959530D02*
X17390250Y-7809530D01*
X17240250Y-7659530D01*
X17090250Y-7809530D01*
X17240250Y-7959530D01*
X17399000Y-1620500D02*
X17549000Y-1470500D01*
X17399000Y-1320500D01*
X17249000Y-1470500D01*
X17399000Y-1620500D01*
X17716500Y104000D02*
X17866500Y254000D01*
X17716500Y404000D01*
X17566500Y254000D01*
X17716500Y104000D01*
X17716500Y-3937330D02*
X17866500Y-3787330D01*
X17716500Y-3637330D01*
X17566500Y-3787330D01*
X17716500Y-3937330D01*
X17875250Y-7705530D02*
X18025250Y-7555530D01*
X17875250Y-7405530D01*
X17725250Y-7555530D01*
X17875250Y-7705530D01*
X18192750Y-5915830D02*
X18342750Y-5765830D01*
X18192750Y-5615830D01*
X18042750Y-5765830D01*
X18192750Y-5915830D01*
X18351500Y358000D02*
X18501500Y508000D01*
X18351500Y658000D01*
X18201500Y508000D01*
X18351500Y358000D01*
X18351500Y-3683330D02*
X18501500Y-3533330D01*
X18351500Y-3383330D01*
X18201500Y-3533330D01*
X18351500Y-3683330D01*
X18669000Y-1874500D02*
X18819000Y-1724500D01*
X18669000Y-1574500D01*
X18519000Y-1724500D01*
X18669000Y-1874500D01*
X18827750Y-5661830D02*
X18977750Y-5511830D01*
X18827750Y-5361830D01*
X18677750Y-5511830D01*
X18827750Y-5661830D01*
X19145250Y-7959530D02*
X19295250Y-7809530D01*
X19145250Y-7659530D01*
X18995250Y-7809530D01*
X19145250Y-7959530D01*
X19304000Y-1620500D02*
X19454000Y-1470500D01*
X19304000Y-1320500D01*
X19154000Y-1470500D01*
X19304000Y-1620500D01*
X19621500Y-3937330D02*
X19771500Y-3787330D01*
X19621500Y-3637330D01*
X19471500Y-3787330D01*
X19621500Y-3937330D01*
X19780250Y-7705530D02*
X19930250Y-7555530D01*
X19780250Y-7405530D01*
X19630250Y-7555530D01*
X19780250Y-7705530D01*
X20097750Y-5915830D02*
X20247750Y-5765830D01*
X20097750Y-5615830D01*
X19947750Y-5765830D01*
X20097750Y-5915830D01*
X20256500Y-3683330D02*
X20406500Y-3533330D01*
X20256500Y-3383330D01*
X20106500Y-3533330D01*
X20256500Y-3683330D01*
X20574000Y104000D02*
X20724000Y254000D01*
X20574000Y404000D01*
X20424000Y254000D01*
X20574000Y104000D01*
X20574000Y-1874500D02*
X20724000Y-1724500D01*
X20574000Y-1574500D01*
X20424000Y-1724500D01*
X20574000Y-1874500D01*
X20732750Y-5661830D02*
X20882750Y-5511830D01*
X20732750Y-5361830D01*
X20582750Y-5511830D01*
X20732750Y-5661830D01*
X21050250Y-7959530D02*
X21200250Y-7809530D01*
X21050250Y-7659530D01*
X20900250Y-7809530D01*
X21050250Y-7959530D01*
X21050250Y-10014530D02*
X21200250Y-9864530D01*
X21050250Y-9714530D01*
X20900250Y-9864530D01*
X21050250Y-10014530D01*
X21209000Y358000D02*
X21359000Y508000D01*
X21209000Y658000D01*
X21059000Y508000D01*
X21209000Y358000D01*
X21209000Y-1620500D02*
X21359000Y-1470500D01*
X21209000Y-1320500D01*
X21059000Y-1470500D01*
X21209000Y-1620500D01*
X21526500Y-3937330D02*
X21676500Y-3787330D01*
X21526500Y-3637330D01*
X21376500Y-3787330D01*
X21526500Y-3937330D01*
X21685250Y-7705530D02*
X21835250Y-7555530D01*
X21685250Y-7405530D01*
X21535250Y-7555530D01*
X21685250Y-7705530D01*
X21685250Y-9760530D02*
X21835250Y-9610530D01*
X21685250Y-9460530D01*
X21535250Y-9610530D01*
X21685250Y-9760530D01*
X22002750Y-5915830D02*
X22152750Y-5765830D01*
X22002750Y-5615830D01*
X21852750Y-5765830D01*
X22002750Y-5915830D01*
X22161500Y-3683330D02*
X22311500Y-3533330D01*
X22161500Y-3383330D01*
X22011500Y-3533330D01*
X22161500Y-3683330D01*
X22479000Y104000D02*
X22629000Y254000D01*
X22479000Y404000D01*
X22329000Y254000D01*
X22479000Y104000D01*
X22479000Y-1874500D02*
X22629000Y-1724500D01*
X22479000Y-1574500D01*
X22329000Y-1724500D01*
X22479000Y-1874500D01*
X22637750Y-5661830D02*
X22787750Y-5511830D01*
X22637750Y-5361830D01*
X22487750Y-5511830D01*
X22637750Y-5661830D01*
X23114000Y358000D02*
X23264000Y508000D01*
X23114000Y658000D01*
X22964000Y508000D01*
X23114000Y358000D01*
X23114000Y-1620500D02*
X23264000Y-1470500D01*
X23114000Y-1320500D01*
X22964000Y-1470500D01*
X23114000Y-1620500D01*
X23431500Y-3937330D02*
X23581500Y-3787330D01*
X23431500Y-3637330D01*
X23281500Y-3787330D01*
X23431500Y-3937330D01*
X24066500Y-3683330D02*
X24216500Y-3533330D01*
X24066500Y-3383330D01*
X23916500Y-3533330D01*
X24066500Y-3683330D01*
X24384000Y104000D02*
X24534000Y254000D01*
X24384000Y404000D01*
X24234000Y254000D01*
X24384000Y104000D01*
X24622125Y-7959530D02*
X24772125Y-7809530D01*
X24622125Y-7659530D01*
X24472125Y-7809530D01*
X24622125Y-7959530D01*
X25019000Y358000D02*
X25169000Y508000D01*
X25019000Y658000D01*
X24869000Y508000D01*
X25019000Y358000D01*
X25098375Y-5915830D02*
X25248375Y-5765830D01*
X25098375Y-5615830D01*
X24948375Y-5765830D01*
X25098375Y-5915830D01*
X25257125Y-7705530D02*
X25407125Y-7555530D01*
X25257125Y-7405530D01*
X25107125Y-7555530D01*
X25257125Y-7705530D01*
X25336500Y-1874500D02*
X25486500Y-1724500D01*
X25336500Y-1574500D01*
X25186500Y-1724500D01*
X25336500Y-1874500D01*
X25733375Y-5661830D02*
X25883375Y-5511830D01*
X25733375Y-5361830D01*
X25583375Y-5511830D01*
X25733375Y-5661830D01*
X25812750Y-3937330D02*
X25962750Y-3787330D01*
X25812750Y-3637330D01*
X25662750Y-3787330D01*
X25812750Y-3937330D01*
X25812750Y-10014530D02*
X25962750Y-9864530D01*
X25812750Y-9714530D01*
X25662750Y-9864530D01*
X25812750Y-10014530D01*
X25971500Y-1620500D02*
X26121500Y-1470500D01*
X25971500Y-1320500D01*
X25821500Y-1470500D01*
X25971500Y-1620500D01*
X26289000Y104000D02*
X26439000Y254000D01*
X26289000Y404000D01*
X26139000Y254000D01*
X26289000Y104000D01*
X26447750Y-3683330D02*
X26597750Y-3533330D01*
X26447750Y-3383330D01*
X26297750Y-3533330D01*
X26447750Y-3683330D01*
X26447750Y-9760530D02*
X26597750Y-9610530D01*
X26447750Y-9460530D01*
X26297750Y-9610530D01*
X26447750Y-9760530D01*
X26924000Y358000D02*
X27074000Y508000D01*
X26924000Y658000D01*
X26774000Y508000D01*
X26924000Y358000D01*
X28694000Y104000D02*
X28844000Y254000D01*
X28694000Y404000D01*
X28544000Y254000D01*
X28694000Y104000D01*
X28694000Y-1874500D02*
X28844000Y-1724500D01*
X28694000Y-1574500D01*
X28544000Y-1724500D01*
X28694000Y-1874500D01*
X28694000Y-3937330D02*
X28844000Y-3787330D01*
X28694000Y-3637330D01*
X28544000Y-3787330D01*
X28694000Y-3937330D01*
X28694000Y-10014530D02*
X28844000Y-9864530D01*
X28694000Y-9714530D01*
X28544000Y-9864530D01*
X28694000Y-10014530D01*
X29329000Y358000D02*
X29479000Y508000D01*
X29329000Y658000D01*
X29179000Y508000D01*
X29329000Y358000D01*
X29329000Y-1620500D02*
X29479000Y-1470500D01*
X29329000Y-1320500D01*
X29179000Y-1470500D01*
X29329000Y-1620500D01*
X29329000Y-3683330D02*
X29479000Y-3533330D01*
X29329000Y-3383330D01*
X29179000Y-3533330D01*
X29329000Y-3683330D01*
X29329000Y-9760530D02*
X29479000Y-9610530D01*
X29329000Y-9460530D01*
X29179000Y-9610530D01*
X29329000Y-9760530D01*
X30599000Y104000D02*
X30749000Y254000D01*
X30599000Y404000D01*
X30449000Y254000D01*
X30599000Y104000D01*
X30599000Y-1874500D02*
X30749000Y-1724500D01*
X30599000Y-1574500D01*
X30449000Y-1724500D01*
X30599000Y-1874500D01*
X30599000Y-3937330D02*
X30749000Y-3787330D01*
X30599000Y-3637330D01*
X30449000Y-3787330D01*
X30599000Y-3937330D01*
X30599000Y-7959530D02*
X30749000Y-7809530D01*
X30599000Y-7659530D01*
X30449000Y-7809530D01*
X30599000Y-7959530D01*
X30599000Y-10014530D02*
X30749000Y-9864530D01*
X30599000Y-9714530D01*
X30449000Y-9864530D01*
X30599000Y-10014530D01*
X31234000Y358000D02*
X31384000Y508000D01*
X31234000Y658000D01*
X31084000Y508000D01*
X31234000Y358000D01*
X31234000Y-1620500D02*
X31384000Y-1470500D01*
X31234000Y-1320500D01*
X31084000Y-1470500D01*
X31234000Y-1620500D01*
X31234000Y-3683330D02*
X31384000Y-3533330D01*
X31234000Y-3383330D01*
X31084000Y-3533330D01*
X31234000Y-3683330D01*
X31234000Y-7705530D02*
X31384000Y-7555530D01*
X31234000Y-7405530D01*
X31084000Y-7555530D01*
X31234000Y-7705530D01*
X31234000Y-9760530D02*
X31384000Y-9610530D01*
X31234000Y-9460530D01*
X31084000Y-9610530D01*
X31234000Y-9760530D01*
X32504000Y104000D02*
X32654000Y254000D01*
X32504000Y404000D01*
X32354000Y254000D01*
X32504000Y104000D01*
X32504000Y-1874500D02*
X32654000Y-1724500D01*
X32504000Y-1574500D01*
X32354000Y-1724500D01*
X32504000Y-1874500D01*
X32504000Y-3937330D02*
X32654000Y-3787330D01*
X32504000Y-3637330D01*
X32354000Y-3787330D01*
X32504000Y-3937330D01*
X32504000Y-10014530D02*
X32654000Y-9864530D01*
X32504000Y-9714530D01*
X32354000Y-9864530D01*
X32504000Y-10014530D01*
X33139000Y358000D02*
X33289000Y508000D01*
X33139000Y658000D01*
X32989000Y508000D01*
X33139000Y358000D01*
X33139000Y-1620500D02*
X33289000Y-1470500D01*
X33139000Y-1320500D01*
X32989000Y-1470500D01*
X33139000Y-1620500D01*
X33139000Y-3683330D02*
X33289000Y-3533330D01*
X33139000Y-3383330D01*
X32989000Y-3533330D01*
X33139000Y-3683330D01*
X33139000Y-9760530D02*
X33289000Y-9610530D01*
X33139000Y-9460530D01*
X32989000Y-9610530D01*
X33139000Y-9760530D01*
D17*
X-155575Y-7212630D02*
X149225Y-7517430D01*
X149225Y-7212630D02*
X-155575Y-7517430D01*
X149225Y-7365030D02*
G75*
G03*
X149225Y-7365030I-152400J0D01*
G01*
X2232025Y-7212630D02*
X2536825Y-7517430D01*
X2536825Y-7212630D02*
X2232025Y-7517430D01*
X2536825Y-7365030D02*
G75*
G03*
X2536825Y-7365030I-152400J0D01*
G01*
X7467600Y-10664630D02*
X7772400Y-10969430D01*
X7772400Y-10664630D02*
X7467600Y-10969430D01*
X7772400Y-10817030D02*
G75*
G03*
X7772400Y-10817030I-152400J0D01*
G01*
X18897600Y-10664630D02*
X19202400Y-10969430D01*
X19202400Y-10664630D02*
X18897600Y-10969430D01*
X19202400Y-10817030D02*
G75*
G03*
X19202400Y-10817030I-152400J0D01*
G01*
X23656925Y-7212630D02*
X23961725Y-7517430D01*
X23961725Y-7212630D02*
X23656925Y-7517430D01*
X23961725Y-7365030D02*
G75*
G03*
X23961725Y-7365030I-152400J0D01*
G01*
X24133175Y-5168930D02*
X24437975Y-5473730D01*
X24437975Y-5168930D02*
X24133175Y-5473730D01*
X24437975Y-5321330D02*
G75*
G03*
X24437975Y-5321330I-152400J0D01*
G01*
X24371300Y-1127600D02*
X24676100Y-1432400D01*
X24676100Y-1127600D02*
X24371300Y-1432400D01*
X24676100Y-1280000D02*
G75*
G03*
X24676100Y-1280000I-152400J0D01*
G01*
X26044525Y-7212630D02*
X26349325Y-7517430D01*
X26349325Y-7212630D02*
X26044525Y-7517430D01*
X26349325Y-7365030D02*
G75*
G03*
X26349325Y-7365030I-152400J0D01*
G01*
X26520775Y-5168930D02*
X26825575Y-5473730D01*
X26825575Y-5168930D02*
X26520775Y-5473730D01*
X26825575Y-5321330D02*
G75*
G03*
X26825575Y-5321330I-152400J0D01*
G01*
X26758900Y-1127600D02*
X27063700Y-1432400D01*
X27063700Y-1127600D02*
X26758900Y-1432400D01*
X27063700Y-1280000D02*
G75*
G03*
X27063700Y-1280000I-152400J0D01*
G01*
D18*
X-202565Y-8689640D02*
X196215Y-9088420D01*
X196215Y-8689640D02*
X-202565Y-9088420D01*
X-3175Y-8689640D02*
X-3175Y-9088420D01*
X-202565Y-8889030D02*
X196215Y-8889030D01*
X-199390Y199390D02*
X199390Y-199390D01*
X199390Y199390D02*
X-199390Y-199390D01*
X0Y199390D02*
X0Y-199390D01*
X-199390Y0D02*
X199390Y0D01*
X-199390Y-1779110D02*
X199390Y-2177890D01*
X199390Y-1779110D02*
X-199390Y-2177890D01*
X0Y-1779110D02*
X0Y-2177890D01*
X-199390Y-1978500D02*
X199390Y-1978500D01*
X40610Y-5819190D02*
X439390Y-6217970D01*
X439390Y-5819190D02*
X40610Y-6217970D01*
X240000Y-5819190D02*
X240000Y-6217970D01*
X40610Y-6018580D02*
X439390Y-6018580D01*
X276860Y-3841940D02*
X675640Y-4240720D01*
X675640Y-3841940D02*
X276860Y-4240720D01*
X476250Y-3841940D02*
X476250Y-4240720D01*
X276860Y-4041330D02*
X675640Y-4041330D01*
X276860Y-9919140D02*
X675640Y-10317920D01*
X675640Y-9919140D02*
X276860Y-10317920D01*
X476250Y-9919140D02*
X476250Y-10317920D01*
X276860Y-10118530D02*
X675640Y-10118530D01*
X514985Y-5820440D02*
X913765Y-6219220D01*
X913765Y-5820440D02*
X514985Y-6219220D01*
X714375Y-5820440D02*
X714375Y-6219220D01*
X514985Y-6019830D02*
X913765Y-6019830D01*
X991235Y-7864140D02*
X1390015Y-8262920D01*
X1390015Y-7864140D02*
X991235Y-8262920D01*
X1190625Y-7864140D02*
X1190625Y-8262920D01*
X991235Y-8063530D02*
X1390015Y-8063530D01*
X1705610Y-1779110D02*
X2104390Y-2177890D01*
X2104390Y-1779110D02*
X1705610Y-2177890D01*
X1905000Y-1779110D02*
X1905000Y-2177890D01*
X1705610Y-1978500D02*
X2104390Y-1978500D01*
X2185035Y-8689640D02*
X2583815Y-9088420D01*
X2583815Y-8689640D02*
X2185035Y-9088420D01*
X2384425Y-8689640D02*
X2384425Y-9088420D01*
X2185035Y-8889030D02*
X2583815Y-8889030D01*
X2658110Y-3841940D02*
X3056890Y-4240720D01*
X3056890Y-3841940D02*
X2658110Y-4240720D01*
X2857500Y-3841940D02*
X2857500Y-4240720D01*
X2658110Y-4041330D02*
X3056890Y-4041330D01*
X3134360Y-5820440D02*
X3533140Y-6219220D01*
X3533140Y-5820440D02*
X3134360Y-6219220D01*
X3333750Y-5820440D02*
X3333750Y-6219220D01*
X3134360Y-6019830D02*
X3533140Y-6019830D01*
X3610610Y199390D02*
X4009390Y-199390D01*
X4009390Y199390D02*
X3610610Y-199390D01*
X3810000Y199390D02*
X3810000Y-199390D01*
X3610610Y0D02*
X4009390Y0D01*
X3610610Y-1779110D02*
X4009390Y-2177890D01*
X4009390Y-1779110D02*
X3610610Y-2177890D01*
X3810000Y-1779110D02*
X3810000Y-2177890D01*
X3610610Y-1978500D02*
X4009390Y-1978500D01*
X4086860Y-7864140D02*
X4485640Y-8262920D01*
X4485640Y-7864140D02*
X4086860Y-8262920D01*
X4286250Y-7864140D02*
X4286250Y-8262920D01*
X4086860Y-8063530D02*
X4485640Y-8063530D01*
X4563110Y-3841940D02*
X4961890Y-4240720D01*
X4961890Y-3841940D02*
X4563110Y-4240720D01*
X4762500Y-3841940D02*
X4762500Y-4240720D01*
X4563110Y-4041330D02*
X4961890Y-4041330D01*
X5039360Y-5820440D02*
X5438140Y-6219220D01*
X5438140Y-5820440D02*
X5039360Y-6219220D01*
X5238750Y-5820440D02*
X5238750Y-6219220D01*
X5039360Y-6019830D02*
X5438140Y-6019830D01*
X5039360Y-9919140D02*
X5438140Y-10317920D01*
X5438140Y-9919140D02*
X5039360Y-10317920D01*
X5238750Y-9919140D02*
X5238750Y-10317920D01*
X5039360Y-10118530D02*
X5438140Y-10118530D01*
X5515610Y199390D02*
X5914390Y-199390D01*
X5914390Y199390D02*
X5515610Y-199390D01*
X5715000Y199390D02*
X5715000Y-199390D01*
X5515610Y0D02*
X5914390Y0D01*
X5515610Y-1779110D02*
X5914390Y-2177890D01*
X5914390Y-1779110D02*
X5515610Y-2177890D01*
X5715000Y-1779110D02*
X5715000Y-2177890D01*
X5515610Y-1978500D02*
X5914390Y-1978500D01*
X5991860Y-7864140D02*
X6390640Y-8262920D01*
X6390640Y-7864140D02*
X5991860Y-8262920D01*
X6191250Y-7864140D02*
X6191250Y-8262920D01*
X5991860Y-8063530D02*
X6390640Y-8063530D01*
X6468110Y-3841940D02*
X6866890Y-4240720D01*
X6866890Y-3841940D02*
X6468110Y-4240720D01*
X6667500Y-3841940D02*
X6667500Y-4240720D01*
X6468110Y-4041330D02*
X6866890Y-4041330D01*
X6944360Y-5820440D02*
X7343140Y-6219220D01*
X7343140Y-5820440D02*
X6944360Y-6219220D01*
X7143750Y-5820440D02*
X7143750Y-6219220D01*
X6944360Y-6019830D02*
X7343140Y-6019830D01*
X7420610Y199390D02*
X7819390Y-199390D01*
X7819390Y199390D02*
X7420610Y-199390D01*
X7620000Y199390D02*
X7620000Y-199390D01*
X7420610Y0D02*
X7819390Y0D01*
X7420610Y-1779110D02*
X7819390Y-2177890D01*
X7819390Y-1779110D02*
X7420610Y-2177890D01*
X7620000Y-1779110D02*
X7620000Y-2177890D01*
X7420610Y-1978500D02*
X7819390Y-1978500D01*
X7420610Y-9093640D02*
X7819390Y-9492420D01*
X7819390Y-9093640D02*
X7420610Y-9492420D01*
X7620000Y-9093640D02*
X7620000Y-9492420D01*
X7420610Y-9293030D02*
X7819390Y-9293030D01*
X7896860Y-7864140D02*
X8295640Y-8262920D01*
X8295640Y-7864140D02*
X7896860Y-8262920D01*
X8096250Y-7864140D02*
X8096250Y-8262920D01*
X7896860Y-8063530D02*
X8295640Y-8063530D01*
X8373110Y-3841940D02*
X8771890Y-4240720D01*
X8771890Y-3841940D02*
X8373110Y-4240720D01*
X8572500Y-3841940D02*
X8572500Y-4240720D01*
X8373110Y-4041330D02*
X8771890Y-4041330D01*
X8849360Y-5820440D02*
X9248140Y-6219220D01*
X9248140Y-5820440D02*
X8849360Y-6219220D01*
X9048750Y-5820440D02*
X9048750Y-6219220D01*
X8849360Y-6019830D02*
X9248140Y-6019830D01*
X9325610Y199390D02*
X9724390Y-199390D01*
X9724390Y199390D02*
X9325610Y-199390D01*
X9525000Y199390D02*
X9525000Y-199390D01*
X9325610Y0D02*
X9724390Y0D01*
X9325610Y-1779110D02*
X9724390Y-2177890D01*
X9724390Y-1779110D02*
X9325610Y-2177890D01*
X9525000Y-1779110D02*
X9525000Y-2177890D01*
X9325610Y-1978500D02*
X9724390Y-1978500D01*
X9801860Y-8027482D02*
X10200640Y-8426262D01*
X10200640Y-8027482D02*
X9801860Y-8426262D01*
X10001250Y-8027482D02*
X10001250Y-8426262D01*
X9801860Y-8226872D02*
X10200640Y-8226872D01*
X10278110Y-3841940D02*
X10676890Y-4240720D01*
X10676890Y-3841940D02*
X10278110Y-4240720D01*
X10477500Y-3841940D02*
X10477500Y-4240720D01*
X10278110Y-4041330D02*
X10676890Y-4041330D01*
X10754360Y-5820440D02*
X11153140Y-6219220D01*
X11153140Y-5820440D02*
X10754360Y-6219220D01*
X10953750Y-5820440D02*
X10953750Y-6219220D01*
X10754360Y-6019830D02*
X11153140Y-6019830D01*
X11230610Y-1779110D02*
X11629390Y-2177890D01*
X11629390Y-1779110D02*
X11230610Y-2177890D01*
X11430000Y-1779110D02*
X11430000Y-2177890D01*
X11230610Y-1978500D02*
X11629390Y-1978500D01*
X11706860Y-7864140D02*
X12105640Y-8262920D01*
X12105640Y-7864140D02*
X11706860Y-8262920D01*
X11906250Y-7864140D02*
X11906250Y-8262920D01*
X11706860Y-8063530D02*
X12105640Y-8063530D01*
X12183110Y199390D02*
X12581890Y-199390D01*
X12581890Y199390D02*
X12183110Y-199390D01*
X12382500Y199390D02*
X12382500Y-199390D01*
X12183110Y0D02*
X12581890Y0D01*
X12183110Y-3841940D02*
X12581890Y-4240720D01*
X12581890Y-3841940D02*
X12183110Y-4240720D01*
X12382500Y-3841940D02*
X12382500Y-4240720D01*
X12183110Y-4041330D02*
X12581890Y-4041330D01*
X12659360Y-5820440D02*
X13058140Y-6219220D01*
X13058140Y-5820440D02*
X12659360Y-6219220D01*
X12858750Y-5820440D02*
X12858750Y-6219220D01*
X12659360Y-6019830D02*
X13058140Y-6019830D01*
X13135610Y-1779110D02*
X13534390Y-2177890D01*
X13534390Y-1779110D02*
X13135610Y-2177890D01*
X13335000Y-1779110D02*
X13335000Y-2177890D01*
X13135610Y-1978500D02*
X13534390Y-1978500D01*
X13135610Y-9919140D02*
X13534390Y-10317920D01*
X13534390Y-9919140D02*
X13135610Y-10317920D01*
X13335000Y-9919140D02*
X13335000Y-10317920D01*
X13135610Y-10118530D02*
X13534390Y-10118530D01*
X13611860Y-7864140D02*
X14010640Y-8262920D01*
X14010640Y-7864140D02*
X13611860Y-8262920D01*
X13811250Y-7864140D02*
X13811250Y-8262920D01*
X13611860Y-8063530D02*
X14010640Y-8063530D01*
X14088110Y199390D02*
X14486890Y-199390D01*
X14486890Y199390D02*
X14088110Y-199390D01*
X14287500Y199390D02*
X14287500Y-199390D01*
X14088110Y0D02*
X14486890Y0D01*
X14088110Y-3841940D02*
X14486890Y-4240720D01*
X14486890Y-3841940D02*
X14088110Y-4240720D01*
X14287500Y-3841940D02*
X14287500Y-4240720D01*
X14088110Y-4041330D02*
X14486890Y-4041330D01*
X14564360Y-5820440D02*
X14963140Y-6219220D01*
X14963140Y-5820440D02*
X14564360Y-6219220D01*
X14763750Y-5820440D02*
X14763750Y-6219220D01*
X14564360Y-6019830D02*
X14963140Y-6019830D01*
X15040610Y-1779110D02*
X15439390Y-2177890D01*
X15439390Y-1779110D02*
X15040610Y-2177890D01*
X15240000Y-1779110D02*
X15240000Y-2177890D01*
X15040610Y-1978500D02*
X15439390Y-1978500D01*
X15516860Y-7864140D02*
X15915640Y-8262920D01*
X15915640Y-7864140D02*
X15516860Y-8262920D01*
X15716250Y-7864140D02*
X15716250Y-8262920D01*
X15516860Y-8063530D02*
X15915640Y-8063530D01*
X15993110Y199390D02*
X16391890Y-199390D01*
X16391890Y199390D02*
X15993110Y-199390D01*
X16192500Y199390D02*
X16192500Y-199390D01*
X15993110Y0D02*
X16391890Y0D01*
X15993110Y-3841940D02*
X16391890Y-4240720D01*
X16391890Y-3841940D02*
X15993110Y-4240720D01*
X16192500Y-3841940D02*
X16192500Y-4240720D01*
X15993110Y-4041330D02*
X16391890Y-4041330D01*
X16469360Y-5820440D02*
X16868140Y-6219220D01*
X16868140Y-5820440D02*
X16469360Y-6219220D01*
X16668750Y-5820440D02*
X16668750Y-6219220D01*
X16469360Y-6019830D02*
X16868140Y-6019830D01*
X16945610Y-1779110D02*
X17344390Y-2177890D01*
X17344390Y-1779110D02*
X16945610Y-2177890D01*
X17145000Y-1779110D02*
X17145000Y-2177890D01*
X16945610Y-1978500D02*
X17344390Y-1978500D01*
X17421860Y-7864140D02*
X17820640Y-8262920D01*
X17820640Y-7864140D02*
X17421860Y-8262920D01*
X17621250Y-7864140D02*
X17621250Y-8262920D01*
X17421860Y-8063530D02*
X17820640Y-8063530D01*
X17898110Y199390D02*
X18296890Y-199390D01*
X18296890Y199390D02*
X17898110Y-199390D01*
X18097500Y199390D02*
X18097500Y-199390D01*
X17898110Y0D02*
X18296890Y0D01*
X17898110Y-3841940D02*
X18296890Y-4240720D01*
X18296890Y-3841940D02*
X17898110Y-4240720D01*
X18097500Y-3841940D02*
X18097500Y-4240720D01*
X17898110Y-4041330D02*
X18296890Y-4041330D01*
X18374360Y-5820440D02*
X18773140Y-6219220D01*
X18773140Y-5820440D02*
X18374360Y-6219220D01*
X18573750Y-5820440D02*
X18573750Y-6219220D01*
X18374360Y-6019830D02*
X18773140Y-6019830D01*
X18850610Y-1779110D02*
X19249390Y-2177890D01*
X19249390Y-1779110D02*
X18850610Y-2177890D01*
X19050000Y-1779110D02*
X19050000Y-2177890D01*
X18850610Y-1978500D02*
X19249390Y-1978500D01*
X18850610Y-9093640D02*
X19249390Y-9492420D01*
X19249390Y-9093640D02*
X18850610Y-9492420D01*
X19050000Y-9093640D02*
X19050000Y-9492420D01*
X18850610Y-9293030D02*
X19249390Y-9293030D01*
X19326860Y-7864140D02*
X19725640Y-8262920D01*
X19725640Y-7864140D02*
X19326860Y-8262920D01*
X19526250Y-7864140D02*
X19526250Y-8262920D01*
X19326860Y-8063530D02*
X19725640Y-8063530D01*
X19803110Y-3841940D02*
X20201890Y-4240720D01*
X20201890Y-3841940D02*
X19803110Y-4240720D01*
X20002500Y-3841940D02*
X20002500Y-4240720D01*
X19803110Y-4041330D02*
X20201890Y-4041330D01*
X20279360Y-5820440D02*
X20678140Y-6219220D01*
X20678140Y-5820440D02*
X20279360Y-6219220D01*
X20478750Y-5820440D02*
X20478750Y-6219220D01*
X20279360Y-6019830D02*
X20678140Y-6019830D01*
X20755610Y199390D02*
X21154390Y-199390D01*
X21154390Y199390D02*
X20755610Y-199390D01*
X20955000Y199390D02*
X20955000Y-199390D01*
X20755610Y0D02*
X21154390Y0D01*
X20755610Y-1779110D02*
X21154390Y-2177890D01*
X21154390Y-1779110D02*
X20755610Y-2177890D01*
X20955000Y-1779110D02*
X20955000Y-2177890D01*
X20755610Y-1978500D02*
X21154390Y-1978500D01*
X21231860Y-7864140D02*
X21630640Y-8262920D01*
X21630640Y-7864140D02*
X21231860Y-8262920D01*
X21431250Y-7864140D02*
X21431250Y-8262920D01*
X21231860Y-8063530D02*
X21630640Y-8063530D01*
X21231860Y-9919140D02*
X21630640Y-10317920D01*
X21630640Y-9919140D02*
X21231860Y-10317920D01*
X21431250Y-9919140D02*
X21431250Y-10317920D01*
X21231860Y-10118530D02*
X21630640Y-10118530D01*
X21708110Y-3841940D02*
X22106890Y-4240720D01*
X22106890Y-3841940D02*
X21708110Y-4240720D01*
X21907500Y-3841940D02*
X21907500Y-4240720D01*
X21708110Y-4041330D02*
X22106890Y-4041330D01*
X22184360Y-5820440D02*
X22583140Y-6219220D01*
X22583140Y-5820440D02*
X22184360Y-6219220D01*
X22383750Y-5820440D02*
X22383750Y-6219220D01*
X22184360Y-6019830D02*
X22583140Y-6019830D01*
X22660610Y199390D02*
X23059390Y-199390D01*
X23059390Y199390D02*
X22660610Y-199390D01*
X22860000Y199390D02*
X22860000Y-199390D01*
X22660610Y0D02*
X23059390Y0D01*
X22660610Y-1779110D02*
X23059390Y-2177890D01*
X23059390Y-1779110D02*
X22660610Y-2177890D01*
X22860000Y-1779110D02*
X22860000Y-2177890D01*
X22660610Y-1978500D02*
X23059390Y-1978500D01*
X23609935Y-8689640D02*
X24008715Y-9088420D01*
X24008715Y-8689640D02*
X23609935Y-9088420D01*
X23809325Y-8689640D02*
X23809325Y-9088420D01*
X23609935Y-8889030D02*
X24008715Y-8889030D01*
X23613110Y-3841940D02*
X24011890Y-4240720D01*
X24011890Y-3841940D02*
X23613110Y-4240720D01*
X23812500Y-3841940D02*
X23812500Y-4240720D01*
X23613110Y-4041330D02*
X24011890Y-4041330D01*
X24086185Y-6645940D02*
X24484965Y-7044720D01*
X24484965Y-6645940D02*
X24086185Y-7044720D01*
X24285575Y-6645940D02*
X24285575Y-7044720D01*
X24086185Y-6845330D02*
X24484965Y-6845330D01*
X24324310Y-2604610D02*
X24723090Y-3003390D01*
X24723090Y-2604610D02*
X24324310Y-3003390D01*
X24523700Y-2604610D02*
X24523700Y-3003390D01*
X24324310Y-2804000D02*
X24723090Y-2804000D01*
X24565610Y199390D02*
X24964390Y-199390D01*
X24964390Y199390D02*
X24565610Y-199390D01*
X24765000Y199390D02*
X24765000Y-199390D01*
X24565610Y0D02*
X24964390Y0D01*
X24803735Y-7864140D02*
X25202515Y-8262920D01*
X25202515Y-7864140D02*
X24803735Y-8262920D01*
X25003125Y-7864140D02*
X25003125Y-8262920D01*
X24803735Y-8063530D02*
X25202515Y-8063530D01*
X25279985Y-5820440D02*
X25678765Y-6219220D01*
X25678765Y-5820440D02*
X25279985Y-6219220D01*
X25479375Y-5820440D02*
X25479375Y-6219220D01*
X25279985Y-6019830D02*
X25678765Y-6019830D01*
X25518110Y-1779110D02*
X25916890Y-2177890D01*
X25916890Y-1779110D02*
X25518110Y-2177890D01*
X25717500Y-1779110D02*
X25717500Y-2177890D01*
X25518110Y-1978500D02*
X25916890Y-1978500D01*
X25994360Y-3841940D02*
X26393140Y-4240720D01*
X26393140Y-3841940D02*
X25994360Y-4240720D01*
X26193750Y-3841940D02*
X26193750Y-4240720D01*
X25994360Y-4041330D02*
X26393140Y-4041330D01*
X25994360Y-9919140D02*
X26393140Y-10317920D01*
X26393140Y-9919140D02*
X25994360Y-10317920D01*
X26193750Y-9919140D02*
X26193750Y-10317920D01*
X25994360Y-10118530D02*
X26393140Y-10118530D01*
X25997535Y-8689640D02*
X26396315Y-9088420D01*
X26396315Y-8689640D02*
X25997535Y-9088420D01*
X26196925Y-8689640D02*
X26196925Y-9088420D01*
X25997535Y-8889030D02*
X26396315Y-8889030D01*
X26470610Y199390D02*
X26869390Y-199390D01*
X26869390Y199390D02*
X26470610Y-199390D01*
X26670000Y199390D02*
X26670000Y-199390D01*
X26470610Y0D02*
X26869390Y0D01*
X26473785Y-6645940D02*
X26872565Y-7044720D01*
X26872565Y-6645940D02*
X26473785Y-7044720D01*
X26673175Y-6645940D02*
X26673175Y-7044720D01*
X26473785Y-6845330D02*
X26872565Y-6845330D01*
X26711910Y-2604610D02*
X27110690Y-3003390D01*
X27110690Y-2604610D02*
X26711910Y-3003390D01*
X26911300Y-2604610D02*
X26911300Y-3003390D01*
X26711910Y-2804000D02*
X27110690Y-2804000D01*
X28875610Y199390D02*
X29274390Y-199390D01*
X29274390Y199390D02*
X28875610Y-199390D01*
X29075000Y199390D02*
X29075000Y-199390D01*
X28875610Y0D02*
X29274390Y0D01*
X28875610Y-1779110D02*
X29274390Y-2177890D01*
X29274390Y-1779110D02*
X28875610Y-2177890D01*
X29075000Y-1779110D02*
X29075000Y-2177890D01*
X28875610Y-1978500D02*
X29274390Y-1978500D01*
X28875610Y-3841940D02*
X29274390Y-4240720D01*
X29274390Y-3841940D02*
X28875610Y-4240720D01*
X29075000Y-3841940D02*
X29075000Y-4240720D01*
X28875610Y-4041330D02*
X29274390Y-4041330D01*
X28875610Y-9919140D02*
X29274390Y-10317920D01*
X29274390Y-9919140D02*
X28875610Y-10317920D01*
X29075000Y-9919140D02*
X29075000Y-10317920D01*
X28875610Y-10118530D02*
X29274390Y-10118530D01*
X30780610Y199390D02*
X31179390Y-199390D01*
X31179390Y199390D02*
X30780610Y-199390D01*
X30980000Y199390D02*
X30980000Y-199390D01*
X30780610Y0D02*
X31179390Y0D01*
X30780610Y-1779110D02*
X31179390Y-2177890D01*
X31179390Y-1779110D02*
X30780610Y-2177890D01*
X30980000Y-1779110D02*
X30980000Y-2177890D01*
X30780610Y-1978500D02*
X31179390Y-1978500D01*
X30780610Y-3841940D02*
X31179390Y-4240720D01*
X31179390Y-3841940D02*
X30780610Y-4240720D01*
X30980000Y-3841940D02*
X30980000Y-4240720D01*
X30780610Y-4041330D02*
X31179390Y-4041330D01*
X30780610Y-7864140D02*
X31179390Y-8262920D01*
X31179390Y-7864140D02*
X30780610Y-8262920D01*
X30980000Y-7864140D02*
X30980000Y-8262920D01*
X30780610Y-8063530D02*
X31179390Y-8063530D01*
X30780610Y-9919140D02*
X31179390Y-10317920D01*
X31179390Y-9919140D02*
X30780610Y-10317920D01*
X30980000Y-9919140D02*
X30980000Y-10317920D01*
X30780610Y-10118530D02*
X31179390Y-10118530D01*
X32685610Y199390D02*
X33084390Y-199390D01*
X33084390Y199390D02*
X32685610Y-199390D01*
X32885000Y199390D02*
X32885000Y-199390D01*
X32685610Y0D02*
X33084390Y0D01*
X32685610Y-1779110D02*
X33084390Y-2177890D01*
X33084390Y-1779110D02*
X32685610Y-2177890D01*
X32885000Y-1779110D02*
X32885000Y-2177890D01*
X32685610Y-1978500D02*
X33084390Y-1978500D01*
X32685610Y-3841940D02*
X33084390Y-4240720D01*
X33084390Y-3841940D02*
X32685610Y-4240720D01*
X32885000Y-3841940D02*
X32885000Y-4240720D01*
X32685610Y-4041330D02*
X33084390Y-4041330D01*
X32685610Y-9919140D02*
X33084390Y-10317920D01*
X33084390Y-9919140D02*
X32685610Y-10317920D01*
X32885000Y-9919140D02*
X32885000Y-10317920D01*
X32685610Y-10118530D02*
X33084390Y-10118530D01*
D11*
X-2609881Y-11392509D02*
X-2609881Y-11192509D01*
X-2562262Y-11192509D01*
X-2533690Y-11202033D01*
X-2514643Y-11221081D01*
X-2505119Y-11240128D01*
X-2495595Y-11278224D01*
X-2495595Y-11306795D01*
X-2505119Y-11344890D01*
X-2514643Y-11363938D01*
X-2533690Y-11382985D01*
X-2562262Y-11392509D01*
X-2609881Y-11392509D01*
X-2409881Y-11392509D02*
X-2409881Y-11259176D01*
X-2409881Y-11297271D02*
X-2400357Y-11278224D01*
X-2390833Y-11268700D01*
X-2371786Y-11259176D01*
X-2352738Y-11259176D01*
X-2286071Y-11392509D02*
X-2286071Y-11259176D01*
X-2286071Y-11192509D02*
X-2295595Y-11202033D01*
X-2286071Y-11211557D01*
X-2276548Y-11202033D01*
X-2286071Y-11192509D01*
X-2286071Y-11211557D01*
X-2162262Y-11392509D02*
X-2181310Y-11382985D01*
X-2190833Y-11363938D01*
X-2190833Y-11192509D01*
X-2057500Y-11392509D02*
X-2076548Y-11382985D01*
X-2086071Y-11363938D01*
X-2086071Y-11192509D01*
X-1828928Y-11392509D02*
X-1828928Y-11192509D01*
X-1762262Y-11335366D01*
X-1695595Y-11192509D01*
X-1695595Y-11392509D01*
X-1514643Y-11392509D02*
X-1514643Y-11287747D01*
X-1524167Y-11268700D01*
X-1543214Y-11259176D01*
X-1581309Y-11259176D01*
X-1600357Y-11268700D01*
X-1514643Y-11382985D02*
X-1533690Y-11392509D01*
X-1581309Y-11392509D01*
X-1600357Y-11382985D01*
X-1609881Y-11363938D01*
X-1609881Y-11344890D01*
X-1600357Y-11325843D01*
X-1581309Y-11316319D01*
X-1533690Y-11316319D01*
X-1514643Y-11306795D01*
X-1419405Y-11259176D02*
X-1419405Y-11459176D01*
X-1419405Y-11268700D02*
X-1400357Y-11259176D01*
X-1362262Y-11259176D01*
X-1343214Y-11268700D01*
X-1333690Y-11278224D01*
X-1324167Y-11297271D01*
X-1324167Y-11354414D01*
X-1333690Y-11373462D01*
X-1343214Y-11382985D01*
X-1362262Y-11392509D01*
X-1400357Y-11392509D01*
X-1419405Y-11382985D01*
X-1238452Y-11373462D02*
X-1228929Y-11382985D01*
X-1238452Y-11392509D01*
X-1247976Y-11382985D01*
X-1238452Y-11373462D01*
X-1238452Y-11392509D01*
X-1238452Y-11268700D02*
X-1228929Y-11278224D01*
X-1238452Y-11287747D01*
X-1247976Y-11278224D01*
X-1238452Y-11268700D01*
X-1238452Y-11287747D01*
D12*
X-2912500Y-11699533D02*
X-2867500Y-11744533D01*
X-2867500Y-11699533D02*
X-2912500Y-11744533D01*
D11*
X-2571786Y-11612509D02*
X-2552738Y-11612509D01*
X-2533690Y-11622033D01*
X-2524167Y-11631557D01*
X-2514643Y-11650605D01*
X-2505119Y-11688700D01*
X-2505119Y-11736319D01*
X-2514643Y-11774414D01*
X-2524167Y-11793462D01*
X-2533690Y-11802985D01*
X-2552738Y-11812509D01*
X-2571786Y-11812509D01*
X-2590833Y-11802985D01*
X-2600357Y-11793462D01*
X-2609881Y-11774414D01*
X-2619405Y-11736319D01*
X-2619405Y-11688700D01*
X-2609881Y-11650605D01*
X-2600357Y-11631557D01*
X-2590833Y-11622033D01*
X-2571786Y-11612509D01*
X-2419405Y-11793462D02*
X-2409881Y-11802985D01*
X-2419405Y-11812509D01*
X-2428929Y-11802985D01*
X-2419405Y-11793462D01*
X-2419405Y-11812509D01*
X-2238452Y-11679176D02*
X-2238452Y-11812509D01*
X-2286071Y-11602985D02*
X-2333690Y-11745843D01*
X-2209881Y-11745843D01*
X-2038452Y-11612509D02*
X-2133690Y-11612509D01*
X-2143214Y-11707747D01*
X-2133690Y-11698224D01*
X-2114643Y-11688700D01*
X-2067024Y-11688700D01*
X-2047976Y-11698224D01*
X-2038452Y-11707747D01*
X-2028928Y-11726795D01*
X-2028928Y-11774414D01*
X-2038452Y-11793462D01*
X-2047976Y-11802985D01*
X-2067024Y-11812509D01*
X-2114643Y-11812509D01*
X-2133690Y-11802985D01*
X-2143214Y-11793462D01*
X-1905119Y-11612509D02*
X-1886071Y-11612509D01*
X-1867024Y-11622033D01*
X-1857500Y-11631557D01*
X-1847976Y-11650605D01*
X-1838452Y-11688700D01*
X-1838452Y-11736319D01*
X-1847976Y-11774414D01*
X-1857500Y-11793462D01*
X-1867024Y-11802985D01*
X-1886071Y-11812509D01*
X-1905119Y-11812509D01*
X-1924167Y-11802985D01*
X-1933690Y-11793462D01*
X-1943214Y-11774414D01*
X-1952738Y-11736319D01*
X-1952738Y-11688700D01*
X-1943214Y-11650605D01*
X-1933690Y-11631557D01*
X-1924167Y-11622033D01*
X-1905119Y-11612509D01*
X-1752738Y-11812509D02*
X-1752738Y-11679176D01*
X-1752738Y-11698224D02*
X-1743214Y-11688700D01*
X-1724167Y-11679176D01*
X-1695595Y-11679176D01*
X-1676548Y-11688700D01*
X-1667024Y-11707747D01*
X-1667024Y-11812509D01*
X-1667024Y-11707747D02*
X-1657500Y-11688700D01*
X-1638452Y-11679176D01*
X-1609881Y-11679176D01*
X-1590833Y-11688700D01*
X-1581309Y-11707747D01*
X-1581309Y-11812509D01*
X-1486071Y-11812509D02*
X-1486071Y-11679176D01*
X-1486071Y-11698224D02*
X-1476548Y-11688700D01*
X-1457500Y-11679176D01*
X-1428928Y-11679176D01*
X-1409881Y-11688700D01*
X-1400357Y-11707747D01*
X-1400357Y-11812509D01*
X-1400357Y-11707747D02*
X-1390833Y-11688700D01*
X-1371786Y-11679176D01*
X-1343214Y-11679176D01*
X-1324167Y-11688700D01*
X-1314643Y-11707747D01*
X-1314643Y-11812509D01*
X-924167Y-11602985D02*
X-1095595Y-11860128D01*
X-667024Y-11612509D02*
X-647976Y-11612509D01*
X-628929Y-11622033D01*
X-619405Y-11631557D01*
X-609881Y-11650605D01*
X-600357Y-11688700D01*
X-600357Y-11736319D01*
X-609881Y-11774414D01*
X-619405Y-11793462D01*
X-628929Y-11802985D01*
X-647976Y-11812509D01*
X-667024Y-11812509D01*
X-686071Y-11802985D01*
X-695595Y-11793462D01*
X-705119Y-11774414D01*
X-714643Y-11736319D01*
X-714643Y-11688700D01*
X-705119Y-11650605D01*
X-695595Y-11631557D01*
X-686071Y-11622033D01*
X-667024Y-11612509D01*
X-514643Y-11793462D02*
X-505119Y-11802985D01*
X-514643Y-11812509D01*
X-524167Y-11802985D01*
X-514643Y-11793462D01*
X-514643Y-11812509D01*
X-381309Y-11612509D02*
X-362262Y-11612509D01*
X-343214Y-11622033D01*
X-333690Y-11631557D01*
X-324167Y-11650605D01*
X-314643Y-11688700D01*
X-314643Y-11736319D01*
X-324167Y-11774414D01*
X-333690Y-11793462D01*
X-343214Y-11802985D01*
X-362262Y-11812509D01*
X-381309Y-11812509D01*
X-400357Y-11802985D01*
X-409881Y-11793462D01*
X-419405Y-11774414D01*
X-428928Y-11736319D01*
X-428928Y-11688700D01*
X-419405Y-11650605D01*
X-409881Y-11631557D01*
X-400357Y-11622033D01*
X-381309Y-11612509D01*
X-124167Y-11812509D02*
X-238452Y-11812509D01*
X-181309Y-11812509D02*
X-181309Y-11612509D01*
X-200357Y-11641081D01*
X-219405Y-11660128D01*
X-238452Y-11669652D01*
X-57500Y-11612509D02*
X75833Y-11612509D01*
X-9881Y-11812509D01*
X132976Y-11612509D02*
X266310Y-11612509D01*
X180595Y-11812509D01*
X332976Y-11612509D02*
X332976Y-11650605D01*
X409167Y-11612509D02*
X409167Y-11650605D01*
X704405Y-11888700D02*
X694881Y-11879176D01*
X675833Y-11850605D01*
X666310Y-11831557D01*
X656786Y-11802985D01*
X647262Y-11755366D01*
X647262Y-11717271D01*
X656786Y-11669652D01*
X666310Y-11641081D01*
X675833Y-11622033D01*
X694881Y-11593462D01*
X704405Y-11583938D01*
X866309Y-11679176D02*
X866309Y-11812509D01*
X818690Y-11602985D02*
X771071Y-11745843D01*
X894881Y-11745843D01*
X1009167Y-11612509D02*
X1028214Y-11612509D01*
X1047262Y-11622033D01*
X1056786Y-11631557D01*
X1066310Y-11650605D01*
X1075833Y-11688700D01*
X1075833Y-11736319D01*
X1066310Y-11774414D01*
X1056786Y-11793462D01*
X1047262Y-11802985D01*
X1028214Y-11812509D01*
X1009167Y-11812509D01*
X990119Y-11802985D01*
X980595Y-11793462D01*
X971071Y-11774414D01*
X961548Y-11736319D01*
X961548Y-11688700D01*
X971071Y-11650605D01*
X980595Y-11631557D01*
X990119Y-11622033D01*
X1009167Y-11612509D01*
X1199643Y-11612509D02*
X1218690Y-11612509D01*
X1237738Y-11622033D01*
X1247262Y-11631557D01*
X1256786Y-11650605D01*
X1266310Y-11688700D01*
X1266310Y-11736319D01*
X1256786Y-11774414D01*
X1247262Y-11793462D01*
X1237738Y-11802985D01*
X1218690Y-11812509D01*
X1199643Y-11812509D01*
X1180595Y-11802985D01*
X1171071Y-11793462D01*
X1161548Y-11774414D01*
X1152024Y-11736319D01*
X1152024Y-11688700D01*
X1161548Y-11650605D01*
X1171071Y-11631557D01*
X1180595Y-11622033D01*
X1199643Y-11612509D01*
X1504405Y-11812509D02*
X1504405Y-11612509D01*
X1590119Y-11812509D02*
X1590119Y-11707747D01*
X1580595Y-11688700D01*
X1561548Y-11679176D01*
X1532976Y-11679176D01*
X1513928Y-11688700D01*
X1504405Y-11698224D01*
X1713928Y-11812509D02*
X1694881Y-11802985D01*
X1685357Y-11793462D01*
X1675833Y-11774414D01*
X1675833Y-11717271D01*
X1685357Y-11698224D01*
X1694881Y-11688700D01*
X1713928Y-11679176D01*
X1742500Y-11679176D01*
X1761548Y-11688700D01*
X1771071Y-11698224D01*
X1780595Y-11717271D01*
X1780595Y-11774414D01*
X1771071Y-11793462D01*
X1761548Y-11802985D01*
X1742500Y-11812509D01*
X1713928Y-11812509D01*
X1894881Y-11812509D02*
X1875833Y-11802985D01*
X1866309Y-11783938D01*
X1866309Y-11612509D01*
X2047262Y-11802985D02*
X2028214Y-11812509D01*
X1990119Y-11812509D01*
X1971071Y-11802985D01*
X1961548Y-11783938D01*
X1961548Y-11707747D01*
X1971071Y-11688700D01*
X1990119Y-11679176D01*
X2028214Y-11679176D01*
X2047262Y-11688700D01*
X2056786Y-11707747D01*
X2056786Y-11726795D01*
X1961548Y-11745843D01*
X2132976Y-11802985D02*
X2152024Y-11812509D01*
X2190119Y-11812509D01*
X2209167Y-11802985D01*
X2218690Y-11783938D01*
X2218690Y-11774414D01*
X2209167Y-11755366D01*
X2190119Y-11745843D01*
X2161548Y-11745843D01*
X2142500Y-11736319D01*
X2132976Y-11717271D01*
X2132976Y-11707747D01*
X2142500Y-11688700D01*
X2161548Y-11679176D01*
X2190119Y-11679176D01*
X2209167Y-11688700D01*
X2285357Y-11888700D02*
X2294881Y-11879176D01*
X2313929Y-11850605D01*
X2323452Y-11831557D01*
X2332976Y-11802985D01*
X2342500Y-11755366D01*
X2342500Y-11717271D01*
X2332976Y-11669652D01*
X2323452Y-11641081D01*
X2313929Y-11622033D01*
X2294881Y-11593462D01*
X2285357Y-11583938D01*
X2647262Y-11888700D02*
X2637738Y-11879176D01*
X2618690Y-11850605D01*
X2609167Y-11831557D01*
X2599643Y-11802985D01*
X2590119Y-11755366D01*
X2590119Y-11717271D01*
X2599643Y-11669652D01*
X2609167Y-11641081D01*
X2618690Y-11622033D01*
X2637738Y-11593462D01*
X2647262Y-11583938D01*
X2723452Y-11679176D02*
X2723452Y-11812509D01*
X2723452Y-11698224D02*
X2732976Y-11688700D01*
X2752024Y-11679176D01*
X2780595Y-11679176D01*
X2799643Y-11688700D01*
X2809167Y-11707747D01*
X2809167Y-11812509D01*
X2932976Y-11812509D02*
X2913928Y-11802985D01*
X2904405Y-11793462D01*
X2894881Y-11774414D01*
X2894881Y-11717271D01*
X2904405Y-11698224D01*
X2913928Y-11688700D01*
X2932976Y-11679176D01*
X2961548Y-11679176D01*
X2980595Y-11688700D01*
X2990119Y-11698224D01*
X2999643Y-11717271D01*
X2999643Y-11774414D01*
X2990119Y-11793462D01*
X2980595Y-11802985D01*
X2961548Y-11812509D01*
X2932976Y-11812509D01*
X3056786Y-11679176D02*
X3132976Y-11679176D01*
X3085357Y-11612509D02*
X3085357Y-11783938D01*
X3094881Y-11802985D01*
X3113928Y-11812509D01*
X3132976Y-11812509D01*
X3352024Y-11679176D02*
X3352024Y-11879176D01*
X3352024Y-11688700D02*
X3371071Y-11679176D01*
X3409167Y-11679176D01*
X3428214Y-11688700D01*
X3437738Y-11698224D01*
X3447262Y-11717271D01*
X3447262Y-11774414D01*
X3437738Y-11793462D01*
X3428214Y-11802985D01*
X3409167Y-11812509D01*
X3371071Y-11812509D01*
X3352024Y-11802985D01*
X3561548Y-11812509D02*
X3542500Y-11802985D01*
X3532976Y-11783938D01*
X3532976Y-11612509D01*
X3723452Y-11812509D02*
X3723452Y-11707747D01*
X3713928Y-11688700D01*
X3694881Y-11679176D01*
X3656786Y-11679176D01*
X3637738Y-11688700D01*
X3723452Y-11802985D02*
X3704405Y-11812509D01*
X3656786Y-11812509D01*
X3637738Y-11802985D01*
X3628214Y-11783938D01*
X3628214Y-11764890D01*
X3637738Y-11745843D01*
X3656786Y-11736319D01*
X3704405Y-11736319D01*
X3723452Y-11726795D01*
X3790119Y-11679176D02*
X3866309Y-11679176D01*
X3818690Y-11612509D02*
X3818690Y-11783938D01*
X3828214Y-11802985D01*
X3847262Y-11812509D01*
X3866309Y-11812509D01*
X4009167Y-11802985D02*
X3990119Y-11812509D01*
X3952024Y-11812509D01*
X3932976Y-11802985D01*
X3923452Y-11783938D01*
X3923452Y-11707747D01*
X3932976Y-11688700D01*
X3952024Y-11679176D01*
X3990119Y-11679176D01*
X4009167Y-11688700D01*
X4018690Y-11707747D01*
X4018690Y-11726795D01*
X3923452Y-11745843D01*
X4190119Y-11812509D02*
X4190119Y-11612509D01*
X4190119Y-11802985D02*
X4171071Y-11812509D01*
X4132976Y-11812509D01*
X4113928Y-11802985D01*
X4104405Y-11793462D01*
X4094881Y-11774414D01*
X4094881Y-11717271D01*
X4104405Y-11698224D01*
X4113928Y-11688700D01*
X4132976Y-11679176D01*
X4171071Y-11679176D01*
X4190119Y-11688700D01*
X4266310Y-11888700D02*
X4275833Y-11879176D01*
X4294881Y-11850605D01*
X4304405Y-11831557D01*
X4313929Y-11802985D01*
X4323452Y-11755366D01*
X4323452Y-11717271D01*
X4313929Y-11669652D01*
X4304405Y-11641081D01*
X4294881Y-11622033D01*
X4275833Y-11593462D01*
X4266310Y-11583938D01*
D13*
X-2867500Y-11986033D02*
G75*
G03*
X-2867500Y-11986033I-32500J0D01*
G01*
D11*
X-2571786Y-11876509D02*
X-2552738Y-11876509D01*
X-2533690Y-11886033D01*
X-2524167Y-11895557D01*
X-2514643Y-11914605D01*
X-2505119Y-11952700D01*
X-2505119Y-12000319D01*
X-2514643Y-12038414D01*
X-2524167Y-12057462D01*
X-2533690Y-12066985D01*
X-2552738Y-12076509D01*
X-2571786Y-12076509D01*
X-2590833Y-12066985D01*
X-2600357Y-12057462D01*
X-2609881Y-12038414D01*
X-2619405Y-12000319D01*
X-2619405Y-11952700D01*
X-2609881Y-11914605D01*
X-2600357Y-11895557D01*
X-2590833Y-11886033D01*
X-2571786Y-11876509D01*
X-2419405Y-12057462D02*
X-2409881Y-12066985D01*
X-2419405Y-12076509D01*
X-2428929Y-12066985D01*
X-2419405Y-12057462D01*
X-2419405Y-12076509D01*
X-2238452Y-11876509D02*
X-2276548Y-11876509D01*
X-2295595Y-11886033D01*
X-2305119Y-11895557D01*
X-2324167Y-11924128D01*
X-2333690Y-11962224D01*
X-2333690Y-12038414D01*
X-2324167Y-12057462D01*
X-2314643Y-12066985D01*
X-2295595Y-12076509D01*
X-2257500Y-12076509D01*
X-2238452Y-12066985D01*
X-2228929Y-12057462D01*
X-2219405Y-12038414D01*
X-2219405Y-11990795D01*
X-2228929Y-11971747D01*
X-2238452Y-11962224D01*
X-2257500Y-11952700D01*
X-2295595Y-11952700D01*
X-2314643Y-11962224D01*
X-2324167Y-11971747D01*
X-2333690Y-11990795D01*
X-2038452Y-11876509D02*
X-2133690Y-11876509D01*
X-2143214Y-11971747D01*
X-2133690Y-11962224D01*
X-2114643Y-11952700D01*
X-2067024Y-11952700D01*
X-2047976Y-11962224D01*
X-2038452Y-11971747D01*
X-2028928Y-11990795D01*
X-2028928Y-12038414D01*
X-2038452Y-12057462D01*
X-2047976Y-12066985D01*
X-2067024Y-12076509D01*
X-2114643Y-12076509D01*
X-2133690Y-12066985D01*
X-2143214Y-12057462D01*
X-1905119Y-11876509D02*
X-1886071Y-11876509D01*
X-1867024Y-11886033D01*
X-1857500Y-11895557D01*
X-1847976Y-11914605D01*
X-1838452Y-11952700D01*
X-1838452Y-12000319D01*
X-1847976Y-12038414D01*
X-1857500Y-12057462D01*
X-1867024Y-12066985D01*
X-1886071Y-12076509D01*
X-1905119Y-12076509D01*
X-1924167Y-12066985D01*
X-1933690Y-12057462D01*
X-1943214Y-12038414D01*
X-1952738Y-12000319D01*
X-1952738Y-11952700D01*
X-1943214Y-11914605D01*
X-1933690Y-11895557D01*
X-1924167Y-11886033D01*
X-1905119Y-11876509D01*
X-1752738Y-12076509D02*
X-1752738Y-11943176D01*
X-1752738Y-11962224D02*
X-1743214Y-11952700D01*
X-1724167Y-11943176D01*
X-1695595Y-11943176D01*
X-1676548Y-11952700D01*
X-1667024Y-11971747D01*
X-1667024Y-12076509D01*
X-1667024Y-11971747D02*
X-1657500Y-11952700D01*
X-1638452Y-11943176D01*
X-1609881Y-11943176D01*
X-1590833Y-11952700D01*
X-1581309Y-11971747D01*
X-1581309Y-12076509D01*
X-1486071Y-12076509D02*
X-1486071Y-11943176D01*
X-1486071Y-11962224D02*
X-1476548Y-11952700D01*
X-1457500Y-11943176D01*
X-1428928Y-11943176D01*
X-1409881Y-11952700D01*
X-1400357Y-11971747D01*
X-1400357Y-12076509D01*
X-1400357Y-11971747D02*
X-1390833Y-11952700D01*
X-1371786Y-11943176D01*
X-1343214Y-11943176D01*
X-1324167Y-11952700D01*
X-1314643Y-11971747D01*
X-1314643Y-12076509D01*
X-924167Y-11866985D02*
X-1095595Y-12124128D01*
X-667024Y-11876509D02*
X-647976Y-11876509D01*
X-628929Y-11886033D01*
X-619405Y-11895557D01*
X-609881Y-11914605D01*
X-600357Y-11952700D01*
X-600357Y-12000319D01*
X-609881Y-12038414D01*
X-619405Y-12057462D01*
X-628929Y-12066985D01*
X-647976Y-12076509D01*
X-667024Y-12076509D01*
X-686071Y-12066985D01*
X-695595Y-12057462D01*
X-705119Y-12038414D01*
X-714643Y-12000319D01*
X-714643Y-11952700D01*
X-705119Y-11914605D01*
X-695595Y-11895557D01*
X-686071Y-11886033D01*
X-667024Y-11876509D01*
X-514643Y-12057462D02*
X-505119Y-12066985D01*
X-514643Y-12076509D01*
X-524167Y-12066985D01*
X-514643Y-12057462D01*
X-514643Y-12076509D01*
X-381309Y-11876509D02*
X-362262Y-11876509D01*
X-343214Y-11886033D01*
X-333690Y-11895557D01*
X-324167Y-11914605D01*
X-314643Y-11952700D01*
X-314643Y-12000319D01*
X-324167Y-12038414D01*
X-333690Y-12057462D01*
X-343214Y-12066985D01*
X-362262Y-12076509D01*
X-381309Y-12076509D01*
X-400357Y-12066985D01*
X-409881Y-12057462D01*
X-419405Y-12038414D01*
X-428928Y-12000319D01*
X-428928Y-11952700D01*
X-419405Y-11914605D01*
X-409881Y-11895557D01*
X-400357Y-11886033D01*
X-381309Y-11876509D01*
X-238452Y-11895557D02*
X-228928Y-11886033D01*
X-209881Y-11876509D01*
X-162262Y-11876509D01*
X-143214Y-11886033D01*
X-133690Y-11895557D01*
X-124167Y-11914605D01*
X-124167Y-11933652D01*
X-133690Y-11962224D01*
X-247976Y-12076509D01*
X-124167Y-12076509D01*
X56786Y-11876509D02*
X-38452Y-11876509D01*
X-47976Y-11971747D01*
X-38452Y-11962224D01*
X-19405Y-11952700D01*
X28214Y-11952700D01*
X47262Y-11962224D01*
X56786Y-11971747D01*
X66310Y-11990795D01*
X66310Y-12038414D01*
X56786Y-12057462D01*
X47262Y-12066985D01*
X28214Y-12076509D01*
X-19405Y-12076509D01*
X-38452Y-12066985D01*
X-47976Y-12057462D01*
X237738Y-11876509D02*
X199643Y-11876509D01*
X180595Y-11886033D01*
X171071Y-11895557D01*
X152024Y-11924128D01*
X142500Y-11962224D01*
X142500Y-12038414D01*
X152024Y-12057462D01*
X161548Y-12066985D01*
X180595Y-12076509D01*
X218690Y-12076509D01*
X237738Y-12066985D01*
X247262Y-12057462D01*
X256786Y-12038414D01*
X256786Y-11990795D01*
X247262Y-11971747D01*
X237738Y-11962224D01*
X218690Y-11952700D01*
X180595Y-11952700D01*
X161548Y-11962224D01*
X152024Y-11971747D01*
X142500Y-11990795D01*
X332976Y-11876509D02*
X332976Y-11914605D01*
X409167Y-11876509D02*
X409167Y-11914605D01*
X704405Y-12152700D02*
X694881Y-12143176D01*
X675833Y-12114605D01*
X666310Y-12095557D01*
X656786Y-12066985D01*
X647262Y-12019366D01*
X647262Y-11981271D01*
X656786Y-11933652D01*
X666310Y-11905081D01*
X675833Y-11886033D01*
X694881Y-11857462D01*
X704405Y-11847938D01*
X771071Y-11895557D02*
X780595Y-11886033D01*
X799643Y-11876509D01*
X847262Y-11876509D01*
X866309Y-11886033D01*
X875833Y-11895557D01*
X885357Y-11914605D01*
X885357Y-11933652D01*
X875833Y-11962224D01*
X761548Y-12076509D01*
X885357Y-12076509D01*
X1123452Y-12076509D02*
X1123452Y-11876509D01*
X1209167Y-12076509D02*
X1209167Y-11971747D01*
X1199643Y-11952700D01*
X1180595Y-11943176D01*
X1152024Y-11943176D01*
X1132976Y-11952700D01*
X1123452Y-11962224D01*
X1332976Y-12076509D02*
X1313929Y-12066985D01*
X1304405Y-12057462D01*
X1294881Y-12038414D01*
X1294881Y-11981271D01*
X1304405Y-11962224D01*
X1313929Y-11952700D01*
X1332976Y-11943176D01*
X1361548Y-11943176D01*
X1380595Y-11952700D01*
X1390119Y-11962224D01*
X1399643Y-11981271D01*
X1399643Y-12038414D01*
X1390119Y-12057462D01*
X1380595Y-12066985D01*
X1361548Y-12076509D01*
X1332976Y-12076509D01*
X1513928Y-12076509D02*
X1494881Y-12066985D01*
X1485357Y-12047938D01*
X1485357Y-11876509D01*
X1666309Y-12066985D02*
X1647262Y-12076509D01*
X1609167Y-12076509D01*
X1590119Y-12066985D01*
X1580595Y-12047938D01*
X1580595Y-11971747D01*
X1590119Y-11952700D01*
X1609167Y-11943176D01*
X1647262Y-11943176D01*
X1666309Y-11952700D01*
X1675833Y-11971747D01*
X1675833Y-11990795D01*
X1580595Y-12009843D01*
X1752024Y-12066985D02*
X1771071Y-12076509D01*
X1809167Y-12076509D01*
X1828214Y-12066985D01*
X1837738Y-12047938D01*
X1837738Y-12038414D01*
X1828214Y-12019366D01*
X1809167Y-12009843D01*
X1780595Y-12009843D01*
X1761548Y-12000319D01*
X1752024Y-11981271D01*
X1752024Y-11971747D01*
X1761548Y-11952700D01*
X1780595Y-11943176D01*
X1809167Y-11943176D01*
X1828214Y-11952700D01*
X1904405Y-12152700D02*
X1913928Y-12143176D01*
X1932976Y-12114605D01*
X1942500Y-12095557D01*
X1952024Y-12066985D01*
X1961548Y-12019366D01*
X1961548Y-11981271D01*
X1952024Y-11933652D01*
X1942500Y-11905081D01*
X1932976Y-11886033D01*
X1913928Y-11857462D01*
X1904405Y-11847938D01*
X2266310Y-12152700D02*
X2256786Y-12143176D01*
X2237738Y-12114605D01*
X2228214Y-12095557D01*
X2218690Y-12066985D01*
X2209167Y-12019366D01*
X2209167Y-11981271D01*
X2218690Y-11933652D01*
X2228214Y-11905081D01*
X2237738Y-11886033D01*
X2256786Y-11857462D01*
X2266310Y-11847938D01*
X2342500Y-11943176D02*
X2342500Y-12076509D01*
X2342500Y-11962224D02*
X2352024Y-11952700D01*
X2371071Y-11943176D01*
X2399643Y-11943176D01*
X2418690Y-11952700D01*
X2428214Y-11971747D01*
X2428214Y-12076509D01*
X2552024Y-12076509D02*
X2532976Y-12066985D01*
X2523452Y-12057462D01*
X2513929Y-12038414D01*
X2513929Y-11981271D01*
X2523452Y-11962224D01*
X2532976Y-11952700D01*
X2552024Y-11943176D01*
X2580595Y-11943176D01*
X2599643Y-11952700D01*
X2609167Y-11962224D01*
X2618690Y-11981271D01*
X2618690Y-12038414D01*
X2609167Y-12057462D01*
X2599643Y-12066985D01*
X2580595Y-12076509D01*
X2552024Y-12076509D01*
X2675833Y-11943176D02*
X2752024Y-11943176D01*
X2704405Y-11876509D02*
X2704405Y-12047938D01*
X2713929Y-12066985D01*
X2732976Y-12076509D01*
X2752024Y-12076509D01*
X2971071Y-11943176D02*
X2971071Y-12143176D01*
X2971071Y-11952700D02*
X2990119Y-11943176D01*
X3028214Y-11943176D01*
X3047262Y-11952700D01*
X3056786Y-11962224D01*
X3066309Y-11981271D01*
X3066309Y-12038414D01*
X3056786Y-12057462D01*
X3047262Y-12066985D01*
X3028214Y-12076509D01*
X2990119Y-12076509D01*
X2971071Y-12066985D01*
X3180595Y-12076509D02*
X3161548Y-12066985D01*
X3152024Y-12047938D01*
X3152024Y-11876509D01*
X3342500Y-12076509D02*
X3342500Y-11971747D01*
X3332976Y-11952700D01*
X3313928Y-11943176D01*
X3275833Y-11943176D01*
X3256786Y-11952700D01*
X3342500Y-12066985D02*
X3323452Y-12076509D01*
X3275833Y-12076509D01*
X3256786Y-12066985D01*
X3247262Y-12047938D01*
X3247262Y-12028890D01*
X3256786Y-12009843D01*
X3275833Y-12000319D01*
X3323452Y-12000319D01*
X3342500Y-11990795D01*
X3409167Y-11943176D02*
X3485357Y-11943176D01*
X3437738Y-11876509D02*
X3437738Y-12047938D01*
X3447262Y-12066985D01*
X3466309Y-12076509D01*
X3485357Y-12076509D01*
X3628214Y-12066985D02*
X3609167Y-12076509D01*
X3571071Y-12076509D01*
X3552024Y-12066985D01*
X3542500Y-12047938D01*
X3542500Y-11971747D01*
X3552024Y-11952700D01*
X3571071Y-11943176D01*
X3609167Y-11943176D01*
X3628214Y-11952700D01*
X3637738Y-11971747D01*
X3637738Y-11990795D01*
X3542500Y-12009843D01*
X3809167Y-12076509D02*
X3809167Y-11876509D01*
X3809167Y-12066985D02*
X3790119Y-12076509D01*
X3752024Y-12076509D01*
X3732976Y-12066985D01*
X3723452Y-12057462D01*
X3713928Y-12038414D01*
X3713928Y-11981271D01*
X3723452Y-11962224D01*
X3732976Y-11952700D01*
X3752024Y-11943176D01*
X3790119Y-11943176D01*
X3809167Y-11952700D01*
X3885357Y-12152700D02*
X3894881Y-12143176D01*
X3913928Y-12114605D01*
X3923452Y-12095557D01*
X3932976Y-12066985D01*
X3942500Y-12019366D01*
X3942500Y-11981271D01*
X3932976Y-11933652D01*
X3923452Y-11905081D01*
X3913928Y-11886033D01*
X3894881Y-11857462D01*
X3885357Y-11847938D01*
D14*
X-2917030Y-12200503D02*
X-2917030Y-12299563D01*
X-2966560Y-12250033D02*
X-2867500Y-12250033D01*
D11*
X-2571786Y-12140509D02*
X-2552738Y-12140509D01*
X-2533690Y-12150033D01*
X-2524167Y-12159557D01*
X-2514643Y-12178605D01*
X-2505119Y-12216700D01*
X-2505119Y-12264319D01*
X-2514643Y-12302414D01*
X-2524167Y-12321462D01*
X-2533690Y-12330985D01*
X-2552738Y-12340509D01*
X-2571786Y-12340509D01*
X-2590833Y-12330985D01*
X-2600357Y-12321462D01*
X-2609881Y-12302414D01*
X-2619405Y-12264319D01*
X-2619405Y-12216700D01*
X-2609881Y-12178605D01*
X-2600357Y-12159557D01*
X-2590833Y-12150033D01*
X-2571786Y-12140509D01*
X-2419405Y-12321462D02*
X-2409881Y-12330985D01*
X-2419405Y-12340509D01*
X-2428929Y-12330985D01*
X-2419405Y-12321462D01*
X-2419405Y-12340509D01*
X-2314643Y-12340509D02*
X-2276548Y-12340509D01*
X-2257500Y-12330985D01*
X-2247976Y-12321462D01*
X-2228929Y-12292890D01*
X-2219405Y-12254795D01*
X-2219405Y-12178605D01*
X-2228929Y-12159557D01*
X-2238452Y-12150033D01*
X-2257500Y-12140509D01*
X-2295595Y-12140509D01*
X-2314643Y-12150033D01*
X-2324167Y-12159557D01*
X-2333690Y-12178605D01*
X-2333690Y-12226224D01*
X-2324167Y-12245271D01*
X-2314643Y-12254795D01*
X-2295595Y-12264319D01*
X-2257500Y-12264319D01*
X-2238452Y-12254795D01*
X-2228929Y-12245271D01*
X-2219405Y-12226224D01*
X-2124167Y-12340509D02*
X-2086071Y-12340509D01*
X-2067024Y-12330985D01*
X-2057500Y-12321462D01*
X-2038452Y-12292890D01*
X-2028928Y-12254795D01*
X-2028928Y-12178605D01*
X-2038452Y-12159557D01*
X-2047976Y-12150033D01*
X-2067024Y-12140509D01*
X-2105119Y-12140509D01*
X-2124167Y-12150033D01*
X-2133690Y-12159557D01*
X-2143214Y-12178605D01*
X-2143214Y-12226224D01*
X-2133690Y-12245271D01*
X-2124167Y-12254795D01*
X-2105119Y-12264319D01*
X-2067024Y-12264319D01*
X-2047976Y-12254795D01*
X-2038452Y-12245271D01*
X-2028928Y-12226224D01*
X-1838452Y-12340509D02*
X-1952738Y-12340509D01*
X-1895595Y-12340509D02*
X-1895595Y-12140509D01*
X-1914643Y-12169081D01*
X-1933690Y-12188128D01*
X-1952738Y-12197652D01*
X-1752738Y-12340509D02*
X-1752738Y-12207176D01*
X-1752738Y-12226224D02*
X-1743214Y-12216700D01*
X-1724167Y-12207176D01*
X-1695595Y-12207176D01*
X-1676548Y-12216700D01*
X-1667024Y-12235747D01*
X-1667024Y-12340509D01*
X-1667024Y-12235747D02*
X-1657500Y-12216700D01*
X-1638452Y-12207176D01*
X-1609881Y-12207176D01*
X-1590833Y-12216700D01*
X-1581309Y-12235747D01*
X-1581309Y-12340509D01*
X-1486071Y-12340509D02*
X-1486071Y-12207176D01*
X-1486071Y-12226224D02*
X-1476548Y-12216700D01*
X-1457500Y-12207176D01*
X-1428928Y-12207176D01*
X-1409881Y-12216700D01*
X-1400357Y-12235747D01*
X-1400357Y-12340509D01*
X-1400357Y-12235747D02*
X-1390833Y-12216700D01*
X-1371786Y-12207176D01*
X-1343214Y-12207176D01*
X-1324167Y-12216700D01*
X-1314643Y-12235747D01*
X-1314643Y-12340509D01*
X-924167Y-12130985D02*
X-1095595Y-12388128D01*
X-667024Y-12140509D02*
X-647976Y-12140509D01*
X-628929Y-12150033D01*
X-619405Y-12159557D01*
X-609881Y-12178605D01*
X-600357Y-12216700D01*
X-600357Y-12264319D01*
X-609881Y-12302414D01*
X-619405Y-12321462D01*
X-628929Y-12330985D01*
X-647976Y-12340509D01*
X-667024Y-12340509D01*
X-686071Y-12330985D01*
X-695595Y-12321462D01*
X-705119Y-12302414D01*
X-714643Y-12264319D01*
X-714643Y-12216700D01*
X-705119Y-12178605D01*
X-695595Y-12159557D01*
X-686071Y-12150033D01*
X-667024Y-12140509D01*
X-514643Y-12321462D02*
X-505119Y-12330985D01*
X-514643Y-12340509D01*
X-524167Y-12330985D01*
X-514643Y-12321462D01*
X-514643Y-12340509D01*
X-381309Y-12140509D02*
X-362262Y-12140509D01*
X-343214Y-12150033D01*
X-333690Y-12159557D01*
X-324167Y-12178605D01*
X-314643Y-12216700D01*
X-314643Y-12264319D01*
X-324167Y-12302414D01*
X-333690Y-12321462D01*
X-343214Y-12330985D01*
X-362262Y-12340509D01*
X-381309Y-12340509D01*
X-400357Y-12330985D01*
X-409881Y-12321462D01*
X-419405Y-12302414D01*
X-428928Y-12264319D01*
X-428928Y-12216700D01*
X-419405Y-12178605D01*
X-409881Y-12159557D01*
X-400357Y-12150033D01*
X-381309Y-12140509D01*
X-247976Y-12140509D02*
X-124167Y-12140509D01*
X-190833Y-12216700D01*
X-162262Y-12216700D01*
X-143214Y-12226224D01*
X-133690Y-12235747D01*
X-124167Y-12254795D01*
X-124167Y-12302414D01*
X-133690Y-12321462D01*
X-143214Y-12330985D01*
X-162262Y-12340509D01*
X-219405Y-12340509D01*
X-238452Y-12330985D01*
X-247976Y-12321462D01*
X-28928Y-12340509D02*
X9167Y-12340509D01*
X28214Y-12330985D01*
X37738Y-12321462D01*
X56786Y-12292890D01*
X66310Y-12254795D01*
X66310Y-12178605D01*
X56786Y-12159557D01*
X47262Y-12150033D01*
X28214Y-12140509D01*
X-9881Y-12140509D01*
X-28928Y-12150033D01*
X-38452Y-12159557D01*
X-47976Y-12178605D01*
X-47976Y-12226224D01*
X-38452Y-12245271D01*
X-28928Y-12254795D01*
X-9881Y-12264319D01*
X28214Y-12264319D01*
X47262Y-12254795D01*
X56786Y-12245271D01*
X66310Y-12226224D01*
X190119Y-12140509D02*
X209167Y-12140509D01*
X228214Y-12150033D01*
X237738Y-12159557D01*
X247262Y-12178605D01*
X256786Y-12216700D01*
X256786Y-12264319D01*
X247262Y-12302414D01*
X237738Y-12321462D01*
X228214Y-12330985D01*
X209167Y-12340509D01*
X190119Y-12340509D01*
X171071Y-12330985D01*
X161548Y-12321462D01*
X152024Y-12302414D01*
X142500Y-12264319D01*
X142500Y-12216700D01*
X152024Y-12178605D01*
X161548Y-12159557D01*
X171071Y-12150033D01*
X190119Y-12140509D01*
X332976Y-12140509D02*
X332976Y-12178605D01*
X409167Y-12140509D02*
X409167Y-12178605D01*
X704405Y-12416700D02*
X694881Y-12407176D01*
X675833Y-12378605D01*
X666310Y-12359557D01*
X656786Y-12330985D01*
X647262Y-12283366D01*
X647262Y-12245271D01*
X656786Y-12197652D01*
X666310Y-12169081D01*
X675833Y-12150033D01*
X694881Y-12121462D01*
X704405Y-12111938D01*
X761548Y-12140509D02*
X885357Y-12140509D01*
X818690Y-12216700D01*
X847262Y-12216700D01*
X866309Y-12226224D01*
X875833Y-12235747D01*
X885357Y-12254795D01*
X885357Y-12302414D01*
X875833Y-12321462D01*
X866309Y-12330985D01*
X847262Y-12340509D01*
X790119Y-12340509D01*
X771071Y-12330985D01*
X761548Y-12321462D01*
X1123452Y-12340509D02*
X1123452Y-12140509D01*
X1209167Y-12340509D02*
X1209167Y-12235747D01*
X1199643Y-12216700D01*
X1180595Y-12207176D01*
X1152024Y-12207176D01*
X1132976Y-12216700D01*
X1123452Y-12226224D01*
X1332976Y-12340509D02*
X1313929Y-12330985D01*
X1304405Y-12321462D01*
X1294881Y-12302414D01*
X1294881Y-12245271D01*
X1304405Y-12226224D01*
X1313929Y-12216700D01*
X1332976Y-12207176D01*
X1361548Y-12207176D01*
X1380595Y-12216700D01*
X1390119Y-12226224D01*
X1399643Y-12245271D01*
X1399643Y-12302414D01*
X1390119Y-12321462D01*
X1380595Y-12330985D01*
X1361548Y-12340509D01*
X1332976Y-12340509D01*
X1513928Y-12340509D02*
X1494881Y-12330985D01*
X1485357Y-12311938D01*
X1485357Y-12140509D01*
X1666309Y-12330985D02*
X1647262Y-12340509D01*
X1609167Y-12340509D01*
X1590119Y-12330985D01*
X1580595Y-12311938D01*
X1580595Y-12235747D01*
X1590119Y-12216700D01*
X1609167Y-12207176D01*
X1647262Y-12207176D01*
X1666309Y-12216700D01*
X1675833Y-12235747D01*
X1675833Y-12254795D01*
X1580595Y-12273843D01*
X1752024Y-12330985D02*
X1771071Y-12340509D01*
X1809167Y-12340509D01*
X1828214Y-12330985D01*
X1837738Y-12311938D01*
X1837738Y-12302414D01*
X1828214Y-12283366D01*
X1809167Y-12273843D01*
X1780595Y-12273843D01*
X1761548Y-12264319D01*
X1752024Y-12245271D01*
X1752024Y-12235747D01*
X1761548Y-12216700D01*
X1780595Y-12207176D01*
X1809167Y-12207176D01*
X1828214Y-12216700D01*
X1904405Y-12416700D02*
X1913928Y-12407176D01*
X1932976Y-12378605D01*
X1942500Y-12359557D01*
X1952024Y-12330985D01*
X1961548Y-12283366D01*
X1961548Y-12245271D01*
X1952024Y-12197652D01*
X1942500Y-12169081D01*
X1932976Y-12150033D01*
X1913928Y-12121462D01*
X1904405Y-12111938D01*
X2266310Y-12416700D02*
X2256786Y-12407176D01*
X2237738Y-12378605D01*
X2228214Y-12359557D01*
X2218690Y-12330985D01*
X2209167Y-12283366D01*
X2209167Y-12245271D01*
X2218690Y-12197652D01*
X2228214Y-12169081D01*
X2237738Y-12150033D01*
X2256786Y-12121462D01*
X2266310Y-12111938D01*
X2342500Y-12207176D02*
X2342500Y-12340509D01*
X2342500Y-12226224D02*
X2352024Y-12216700D01*
X2371071Y-12207176D01*
X2399643Y-12207176D01*
X2418690Y-12216700D01*
X2428214Y-12235747D01*
X2428214Y-12340509D01*
X2552024Y-12340509D02*
X2532976Y-12330985D01*
X2523452Y-12321462D01*
X2513929Y-12302414D01*
X2513929Y-12245271D01*
X2523452Y-12226224D01*
X2532976Y-12216700D01*
X2552024Y-12207176D01*
X2580595Y-12207176D01*
X2599643Y-12216700D01*
X2609167Y-12226224D01*
X2618690Y-12245271D01*
X2618690Y-12302414D01*
X2609167Y-12321462D01*
X2599643Y-12330985D01*
X2580595Y-12340509D01*
X2552024Y-12340509D01*
X2675833Y-12207176D02*
X2752024Y-12207176D01*
X2704405Y-12140509D02*
X2704405Y-12311938D01*
X2713929Y-12330985D01*
X2732976Y-12340509D01*
X2752024Y-12340509D01*
X2971071Y-12207176D02*
X2971071Y-12407176D01*
X2971071Y-12216700D02*
X2990119Y-12207176D01*
X3028214Y-12207176D01*
X3047262Y-12216700D01*
X3056786Y-12226224D01*
X3066309Y-12245271D01*
X3066309Y-12302414D01*
X3056786Y-12321462D01*
X3047262Y-12330985D01*
X3028214Y-12340509D01*
X2990119Y-12340509D01*
X2971071Y-12330985D01*
X3180595Y-12340509D02*
X3161548Y-12330985D01*
X3152024Y-12311938D01*
X3152024Y-12140509D01*
X3342500Y-12340509D02*
X3342500Y-12235747D01*
X3332976Y-12216700D01*
X3313928Y-12207176D01*
X3275833Y-12207176D01*
X3256786Y-12216700D01*
X3342500Y-12330985D02*
X3323452Y-12340509D01*
X3275833Y-12340509D01*
X3256786Y-12330985D01*
X3247262Y-12311938D01*
X3247262Y-12292890D01*
X3256786Y-12273843D01*
X3275833Y-12264319D01*
X3323452Y-12264319D01*
X3342500Y-12254795D01*
X3409167Y-12207176D02*
X3485357Y-12207176D01*
X3437738Y-12140509D02*
X3437738Y-12311938D01*
X3447262Y-12330985D01*
X3466309Y-12340509D01*
X3485357Y-12340509D01*
X3628214Y-12330985D02*
X3609167Y-12340509D01*
X3571071Y-12340509D01*
X3552024Y-12330985D01*
X3542500Y-12311938D01*
X3542500Y-12235747D01*
X3552024Y-12216700D01*
X3571071Y-12207176D01*
X3609167Y-12207176D01*
X3628214Y-12216700D01*
X3637738Y-12235747D01*
X3637738Y-12254795D01*
X3542500Y-12273843D01*
X3809167Y-12340509D02*
X3809167Y-12140509D01*
X3809167Y-12330985D02*
X3790119Y-12340509D01*
X3752024Y-12340509D01*
X3732976Y-12330985D01*
X3723452Y-12321462D01*
X3713928Y-12302414D01*
X3713928Y-12245271D01*
X3723452Y-12226224D01*
X3732976Y-12216700D01*
X3752024Y-12207176D01*
X3790119Y-12207176D01*
X3809167Y-12216700D01*
X3885357Y-12416700D02*
X3894881Y-12407176D01*
X3913928Y-12378605D01*
X3923452Y-12359557D01*
X3932976Y-12330985D01*
X3942500Y-12283366D01*
X3942500Y-12245271D01*
X3932976Y-12197652D01*
X3923452Y-12169081D01*
X3913928Y-12150033D01*
X3894881Y-12121462D01*
X3885357Y-12111938D01*
D15*
X-2893128Y-12575906D02*
X-2893128Y-12452161D01*
X-3016872Y-12452161D01*
X-3016872Y-12575906D01*
X-2893128Y-12575906D01*
D11*
X-2505119Y-12604509D02*
X-2619405Y-12604509D01*
X-2562262Y-12604509D02*
X-2562262Y-12404509D01*
X-2581310Y-12433081D01*
X-2600357Y-12452128D01*
X-2619405Y-12461652D01*
X-2419405Y-12585462D02*
X-2409881Y-12594985D01*
X-2419405Y-12604509D01*
X-2428929Y-12594985D01*
X-2419405Y-12585462D01*
X-2419405Y-12604509D01*
X-2343214Y-12404509D02*
X-2209881Y-12404509D01*
X-2295595Y-12604509D01*
X-2038452Y-12404509D02*
X-2133690Y-12404509D01*
X-2143214Y-12499747D01*
X-2133690Y-12490224D01*
X-2114643Y-12480700D01*
X-2067024Y-12480700D01*
X-2047976Y-12490224D01*
X-2038452Y-12499747D01*
X-2028928Y-12518795D01*
X-2028928Y-12566414D01*
X-2038452Y-12585462D01*
X-2047976Y-12594985D01*
X-2067024Y-12604509D01*
X-2114643Y-12604509D01*
X-2133690Y-12594985D01*
X-2143214Y-12585462D01*
X-1905119Y-12404509D02*
X-1886071Y-12404509D01*
X-1867024Y-12414033D01*
X-1857500Y-12423557D01*
X-1847976Y-12442605D01*
X-1838452Y-12480700D01*
X-1838452Y-12528319D01*
X-1847976Y-12566414D01*
X-1857500Y-12585462D01*
X-1867024Y-12594985D01*
X-1886071Y-12604509D01*
X-1905119Y-12604509D01*
X-1924167Y-12594985D01*
X-1933690Y-12585462D01*
X-1943214Y-12566414D01*
X-1952738Y-12528319D01*
X-1952738Y-12480700D01*
X-1943214Y-12442605D01*
X-1933690Y-12423557D01*
X-1924167Y-12414033D01*
X-1905119Y-12404509D01*
X-1752738Y-12604509D02*
X-1752738Y-12471176D01*
X-1752738Y-12490224D02*
X-1743214Y-12480700D01*
X-1724167Y-12471176D01*
X-1695595Y-12471176D01*
X-1676548Y-12480700D01*
X-1667024Y-12499747D01*
X-1667024Y-12604509D01*
X-1667024Y-12499747D02*
X-1657500Y-12480700D01*
X-1638452Y-12471176D01*
X-1609881Y-12471176D01*
X-1590833Y-12480700D01*
X-1581309Y-12499747D01*
X-1581309Y-12604509D01*
X-1486071Y-12604509D02*
X-1486071Y-12471176D01*
X-1486071Y-12490224D02*
X-1476548Y-12480700D01*
X-1457500Y-12471176D01*
X-1428928Y-12471176D01*
X-1409881Y-12480700D01*
X-1400357Y-12499747D01*
X-1400357Y-12604509D01*
X-1400357Y-12499747D02*
X-1390833Y-12480700D01*
X-1371786Y-12471176D01*
X-1343214Y-12471176D01*
X-1324167Y-12480700D01*
X-1314643Y-12499747D01*
X-1314643Y-12604509D01*
X-924167Y-12394985D02*
X-1095595Y-12652128D01*
X-667024Y-12404509D02*
X-647976Y-12404509D01*
X-628929Y-12414033D01*
X-619405Y-12423557D01*
X-609881Y-12442605D01*
X-600357Y-12480700D01*
X-600357Y-12528319D01*
X-609881Y-12566414D01*
X-619405Y-12585462D01*
X-628929Y-12594985D01*
X-647976Y-12604509D01*
X-667024Y-12604509D01*
X-686071Y-12594985D01*
X-695595Y-12585462D01*
X-705119Y-12566414D01*
X-714643Y-12528319D01*
X-714643Y-12480700D01*
X-705119Y-12442605D01*
X-695595Y-12423557D01*
X-686071Y-12414033D01*
X-667024Y-12404509D01*
X-514643Y-12585462D02*
X-505119Y-12594985D01*
X-514643Y-12604509D01*
X-524167Y-12594985D01*
X-514643Y-12585462D01*
X-514643Y-12604509D01*
X-381309Y-12404509D02*
X-362262Y-12404509D01*
X-343214Y-12414033D01*
X-333690Y-12423557D01*
X-324167Y-12442605D01*
X-314643Y-12480700D01*
X-314643Y-12528319D01*
X-324167Y-12566414D01*
X-333690Y-12585462D01*
X-343214Y-12594985D01*
X-362262Y-12604509D01*
X-381309Y-12604509D01*
X-400357Y-12594985D01*
X-409881Y-12585462D01*
X-419405Y-12566414D01*
X-428928Y-12528319D01*
X-428928Y-12480700D01*
X-419405Y-12442605D01*
X-409881Y-12423557D01*
X-400357Y-12414033D01*
X-381309Y-12404509D01*
X-143214Y-12404509D02*
X-181309Y-12404509D01*
X-200357Y-12414033D01*
X-209881Y-12423557D01*
X-228928Y-12452128D01*
X-238452Y-12490224D01*
X-238452Y-12566414D01*
X-228928Y-12585462D01*
X-219405Y-12594985D01*
X-200357Y-12604509D01*
X-162262Y-12604509D01*
X-143214Y-12594985D01*
X-133690Y-12585462D01*
X-124167Y-12566414D01*
X-124167Y-12518795D01*
X-133690Y-12499747D01*
X-143214Y-12490224D01*
X-162262Y-12480700D01*
X-200357Y-12480700D01*
X-219405Y-12490224D01*
X-228928Y-12499747D01*
X-238452Y-12518795D01*
X-9881Y-12490224D02*
X-28928Y-12480700D01*
X-38452Y-12471176D01*
X-47976Y-12452128D01*
X-47976Y-12442605D01*
X-38452Y-12423557D01*
X-28928Y-12414033D01*
X-9881Y-12404509D01*
X28214Y-12404509D01*
X47262Y-12414033D01*
X56786Y-12423557D01*
X66310Y-12442605D01*
X66310Y-12452128D01*
X56786Y-12471176D01*
X47262Y-12480700D01*
X28214Y-12490224D01*
X-9881Y-12490224D01*
X-28928Y-12499747D01*
X-38452Y-12509271D01*
X-47976Y-12528319D01*
X-47976Y-12566414D01*
X-38452Y-12585462D01*
X-28928Y-12594985D01*
X-9881Y-12604509D01*
X28214Y-12604509D01*
X47262Y-12594985D01*
X56786Y-12585462D01*
X66310Y-12566414D01*
X66310Y-12528319D01*
X56786Y-12509271D01*
X47262Y-12499747D01*
X28214Y-12490224D01*
X161548Y-12604509D02*
X199643Y-12604509D01*
X218690Y-12594985D01*
X228214Y-12585462D01*
X247262Y-12556890D01*
X256786Y-12518795D01*
X256786Y-12442605D01*
X247262Y-12423557D01*
X237738Y-12414033D01*
X218690Y-12404509D01*
X180595Y-12404509D01*
X161548Y-12414033D01*
X152024Y-12423557D01*
X142500Y-12442605D01*
X142500Y-12490224D01*
X152024Y-12509271D01*
X161548Y-12518795D01*
X180595Y-12528319D01*
X218690Y-12528319D01*
X237738Y-12518795D01*
X247262Y-12509271D01*
X256786Y-12490224D01*
X332976Y-12404509D02*
X332976Y-12442605D01*
X409167Y-12404509D02*
X409167Y-12442605D01*
X704405Y-12680700D02*
X694881Y-12671176D01*
X675833Y-12642605D01*
X666310Y-12623557D01*
X656786Y-12594985D01*
X647262Y-12547366D01*
X647262Y-12509271D01*
X656786Y-12461652D01*
X666310Y-12433081D01*
X675833Y-12414033D01*
X694881Y-12385462D01*
X704405Y-12375938D01*
X885357Y-12604509D02*
X771071Y-12604509D01*
X828214Y-12604509D02*
X828214Y-12404509D01*
X809167Y-12433081D01*
X790119Y-12452128D01*
X771071Y-12461652D01*
X952024Y-12404509D02*
X1085357Y-12404509D01*
X999643Y-12604509D01*
X1199643Y-12404509D02*
X1218690Y-12404509D01*
X1237738Y-12414033D01*
X1247262Y-12423557D01*
X1256786Y-12442605D01*
X1266310Y-12480700D01*
X1266310Y-12528319D01*
X1256786Y-12566414D01*
X1247262Y-12585462D01*
X1237738Y-12594985D01*
X1218690Y-12604509D01*
X1199643Y-12604509D01*
X1180595Y-12594985D01*
X1171071Y-12585462D01*
X1161548Y-12566414D01*
X1152024Y-12528319D01*
X1152024Y-12480700D01*
X1161548Y-12442605D01*
X1171071Y-12423557D01*
X1180595Y-12414033D01*
X1199643Y-12404509D01*
X1504405Y-12604509D02*
X1504405Y-12404509D01*
X1590119Y-12604509D02*
X1590119Y-12499747D01*
X1580595Y-12480700D01*
X1561548Y-12471176D01*
X1532976Y-12471176D01*
X1513928Y-12480700D01*
X1504405Y-12490224D01*
X1713928Y-12604509D02*
X1694881Y-12594985D01*
X1685357Y-12585462D01*
X1675833Y-12566414D01*
X1675833Y-12509271D01*
X1685357Y-12490224D01*
X1694881Y-12480700D01*
X1713928Y-12471176D01*
X1742500Y-12471176D01*
X1761548Y-12480700D01*
X1771071Y-12490224D01*
X1780595Y-12509271D01*
X1780595Y-12566414D01*
X1771071Y-12585462D01*
X1761548Y-12594985D01*
X1742500Y-12604509D01*
X1713928Y-12604509D01*
X1894881Y-12604509D02*
X1875833Y-12594985D01*
X1866309Y-12575938D01*
X1866309Y-12404509D01*
X2047262Y-12594985D02*
X2028214Y-12604509D01*
X1990119Y-12604509D01*
X1971071Y-12594985D01*
X1961548Y-12575938D01*
X1961548Y-12499747D01*
X1971071Y-12480700D01*
X1990119Y-12471176D01*
X2028214Y-12471176D01*
X2047262Y-12480700D01*
X2056786Y-12499747D01*
X2056786Y-12518795D01*
X1961548Y-12537843D01*
X2132976Y-12594985D02*
X2152024Y-12604509D01*
X2190119Y-12604509D01*
X2209167Y-12594985D01*
X2218690Y-12575938D01*
X2218690Y-12566414D01*
X2209167Y-12547366D01*
X2190119Y-12537843D01*
X2161548Y-12537843D01*
X2142500Y-12528319D01*
X2132976Y-12509271D01*
X2132976Y-12499747D01*
X2142500Y-12480700D01*
X2161548Y-12471176D01*
X2190119Y-12471176D01*
X2209167Y-12480700D01*
X2285357Y-12680700D02*
X2294881Y-12671176D01*
X2313929Y-12642605D01*
X2323452Y-12623557D01*
X2332976Y-12594985D01*
X2342500Y-12547366D01*
X2342500Y-12509271D01*
X2332976Y-12461652D01*
X2323452Y-12433081D01*
X2313929Y-12414033D01*
X2294881Y-12385462D01*
X2285357Y-12375938D01*
X2647262Y-12680700D02*
X2637738Y-12671176D01*
X2618690Y-12642605D01*
X2609167Y-12623557D01*
X2599643Y-12594985D01*
X2590119Y-12547366D01*
X2590119Y-12509271D01*
X2599643Y-12461652D01*
X2609167Y-12433081D01*
X2618690Y-12414033D01*
X2637738Y-12385462D01*
X2647262Y-12375938D01*
X2723452Y-12471176D02*
X2723452Y-12604509D01*
X2723452Y-12490224D02*
X2732976Y-12480700D01*
X2752024Y-12471176D01*
X2780595Y-12471176D01*
X2799643Y-12480700D01*
X2809167Y-12499747D01*
X2809167Y-12604509D01*
X2932976Y-12604509D02*
X2913928Y-12594985D01*
X2904405Y-12585462D01*
X2894881Y-12566414D01*
X2894881Y-12509271D01*
X2904405Y-12490224D01*
X2913928Y-12480700D01*
X2932976Y-12471176D01*
X2961548Y-12471176D01*
X2980595Y-12480700D01*
X2990119Y-12490224D01*
X2999643Y-12509271D01*
X2999643Y-12566414D01*
X2990119Y-12585462D01*
X2980595Y-12594985D01*
X2961548Y-12604509D01*
X2932976Y-12604509D01*
X3056786Y-12471176D02*
X3132976Y-12471176D01*
X3085357Y-12404509D02*
X3085357Y-12575938D01*
X3094881Y-12594985D01*
X3113928Y-12604509D01*
X3132976Y-12604509D01*
X3352024Y-12471176D02*
X3352024Y-12671176D01*
X3352024Y-12480700D02*
X3371071Y-12471176D01*
X3409167Y-12471176D01*
X3428214Y-12480700D01*
X3437738Y-12490224D01*
X3447262Y-12509271D01*
X3447262Y-12566414D01*
X3437738Y-12585462D01*
X3428214Y-12594985D01*
X3409167Y-12604509D01*
X3371071Y-12604509D01*
X3352024Y-12594985D01*
X3561548Y-12604509D02*
X3542500Y-12594985D01*
X3532976Y-12575938D01*
X3532976Y-12404509D01*
X3723452Y-12604509D02*
X3723452Y-12499747D01*
X3713928Y-12480700D01*
X3694881Y-12471176D01*
X3656786Y-12471176D01*
X3637738Y-12480700D01*
X3723452Y-12594985D02*
X3704405Y-12604509D01*
X3656786Y-12604509D01*
X3637738Y-12594985D01*
X3628214Y-12575938D01*
X3628214Y-12556890D01*
X3637738Y-12537843D01*
X3656786Y-12528319D01*
X3704405Y-12528319D01*
X3723452Y-12518795D01*
X3790119Y-12471176D02*
X3866309Y-12471176D01*
X3818690Y-12404509D02*
X3818690Y-12575938D01*
X3828214Y-12594985D01*
X3847262Y-12604509D01*
X3866309Y-12604509D01*
X4009167Y-12594985D02*
X3990119Y-12604509D01*
X3952024Y-12604509D01*
X3932976Y-12594985D01*
X3923452Y-12575938D01*
X3923452Y-12499747D01*
X3932976Y-12480700D01*
X3952024Y-12471176D01*
X3990119Y-12471176D01*
X4009167Y-12480700D01*
X4018690Y-12499747D01*
X4018690Y-12518795D01*
X3923452Y-12537843D01*
X4190119Y-12604509D02*
X4190119Y-12404509D01*
X4190119Y-12594985D02*
X4171071Y-12604509D01*
X4132976Y-12604509D01*
X4113928Y-12594985D01*
X4104405Y-12585462D01*
X4094881Y-12566414D01*
X4094881Y-12509271D01*
X4104405Y-12490224D01*
X4113928Y-12480700D01*
X4132976Y-12471176D01*
X4171071Y-12471176D01*
X4190119Y-12480700D01*
X4266310Y-12680700D02*
X4275833Y-12671176D01*
X4294881Y-12642605D01*
X4304405Y-12623557D01*
X4313929Y-12594985D01*
X4323452Y-12547366D01*
X4323452Y-12509271D01*
X4313929Y-12461652D01*
X4304405Y-12433081D01*
X4294881Y-12414033D01*
X4275833Y-12385462D01*
X4266310Y-12375938D01*
X-2967500Y-12909033D02*
X-2867500Y-12809033D01*
X-2967500Y-12709033D01*
X-3067500Y-12809033D01*
X-2967500Y-12909033D01*
X-2628929Y-12699509D02*
X-2505119Y-12699509D01*
X-2571786Y-12775700D01*
X-2543214Y-12775700D01*
X-2524167Y-12785224D01*
X-2514643Y-12794747D01*
X-2505119Y-12813795D01*
X-2505119Y-12861414D01*
X-2514643Y-12880462D01*
X-2524167Y-12889985D01*
X-2543214Y-12899509D01*
X-2600357Y-12899509D01*
X-2619405Y-12889985D01*
X-2628929Y-12880462D01*
X-2419405Y-12880462D02*
X-2409881Y-12889985D01*
X-2419405Y-12899509D01*
X-2428929Y-12889985D01*
X-2419405Y-12880462D01*
X-2419405Y-12899509D01*
X-2286071Y-12699509D02*
X-2267024Y-12699509D01*
X-2247976Y-12709033D01*
X-2238452Y-12718557D01*
X-2228929Y-12737605D01*
X-2219405Y-12775700D01*
X-2219405Y-12823319D01*
X-2228929Y-12861414D01*
X-2238452Y-12880462D01*
X-2247976Y-12889985D01*
X-2267024Y-12899509D01*
X-2286071Y-12899509D01*
X-2305119Y-12889985D01*
X-2314643Y-12880462D01*
X-2324167Y-12861414D01*
X-2333690Y-12823319D01*
X-2333690Y-12775700D01*
X-2324167Y-12737605D01*
X-2314643Y-12718557D01*
X-2305119Y-12709033D01*
X-2286071Y-12699509D01*
X-2095595Y-12699509D02*
X-2076548Y-12699509D01*
X-2057500Y-12709033D01*
X-2047976Y-12718557D01*
X-2038452Y-12737605D01*
X-2028928Y-12775700D01*
X-2028928Y-12823319D01*
X-2038452Y-12861414D01*
X-2047976Y-12880462D01*
X-2057500Y-12889985D01*
X-2076548Y-12899509D01*
X-2095595Y-12899509D01*
X-2114643Y-12889985D01*
X-2124167Y-12880462D01*
X-2133690Y-12861414D01*
X-2143214Y-12823319D01*
X-2143214Y-12775700D01*
X-2133690Y-12737605D01*
X-2124167Y-12718557D01*
X-2114643Y-12709033D01*
X-2095595Y-12699509D01*
X-1905119Y-12699509D02*
X-1886071Y-12699509D01*
X-1867024Y-12709033D01*
X-1857500Y-12718557D01*
X-1847976Y-12737605D01*
X-1838452Y-12775700D01*
X-1838452Y-12823319D01*
X-1847976Y-12861414D01*
X-1857500Y-12880462D01*
X-1867024Y-12889985D01*
X-1886071Y-12899509D01*
X-1905119Y-12899509D01*
X-1924167Y-12889985D01*
X-1933690Y-12880462D01*
X-1943214Y-12861414D01*
X-1952738Y-12823319D01*
X-1952738Y-12775700D01*
X-1943214Y-12737605D01*
X-1933690Y-12718557D01*
X-1924167Y-12709033D01*
X-1905119Y-12699509D01*
X-1752738Y-12899509D02*
X-1752738Y-12766176D01*
X-1752738Y-12785224D02*
X-1743214Y-12775700D01*
X-1724167Y-12766176D01*
X-1695595Y-12766176D01*
X-1676548Y-12775700D01*
X-1667024Y-12794747D01*
X-1667024Y-12899509D01*
X-1667024Y-12794747D02*
X-1657500Y-12775700D01*
X-1638452Y-12766176D01*
X-1609881Y-12766176D01*
X-1590833Y-12775700D01*
X-1581309Y-12794747D01*
X-1581309Y-12899509D01*
X-1486071Y-12899509D02*
X-1486071Y-12766176D01*
X-1486071Y-12785224D02*
X-1476548Y-12775700D01*
X-1457500Y-12766176D01*
X-1428928Y-12766176D01*
X-1409881Y-12775700D01*
X-1400357Y-12794747D01*
X-1400357Y-12899509D01*
X-1400357Y-12794747D02*
X-1390833Y-12775700D01*
X-1371786Y-12766176D01*
X-1343214Y-12766176D01*
X-1324167Y-12775700D01*
X-1314643Y-12794747D01*
X-1314643Y-12899509D01*
X-924167Y-12689985D02*
X-1095595Y-12947128D01*
X-667024Y-12699509D02*
X-647976Y-12699509D01*
X-628929Y-12709033D01*
X-619405Y-12718557D01*
X-609881Y-12737605D01*
X-600357Y-12775700D01*
X-600357Y-12823319D01*
X-609881Y-12861414D01*
X-619405Y-12880462D01*
X-628929Y-12889985D01*
X-647976Y-12899509D01*
X-667024Y-12899509D01*
X-686071Y-12889985D01*
X-695595Y-12880462D01*
X-705119Y-12861414D01*
X-714643Y-12823319D01*
X-714643Y-12775700D01*
X-705119Y-12737605D01*
X-695595Y-12718557D01*
X-686071Y-12709033D01*
X-667024Y-12699509D01*
X-514643Y-12880462D02*
X-505119Y-12889985D01*
X-514643Y-12899509D01*
X-524167Y-12889985D01*
X-514643Y-12880462D01*
X-514643Y-12899509D01*
X-314643Y-12899509D02*
X-428928Y-12899509D01*
X-371786Y-12899509D02*
X-371786Y-12699509D01*
X-390833Y-12728081D01*
X-409881Y-12747128D01*
X-428928Y-12756652D01*
X-124167Y-12899509D02*
X-238452Y-12899509D01*
X-181309Y-12899509D02*
X-181309Y-12699509D01*
X-200357Y-12728081D01*
X-219405Y-12747128D01*
X-238452Y-12756652D01*
X-9881Y-12785224D02*
X-28928Y-12775700D01*
X-38452Y-12766176D01*
X-47976Y-12747128D01*
X-47976Y-12737605D01*
X-38452Y-12718557D01*
X-28928Y-12709033D01*
X-9881Y-12699509D01*
X28214Y-12699509D01*
X47262Y-12709033D01*
X56786Y-12718557D01*
X66310Y-12737605D01*
X66310Y-12747128D01*
X56786Y-12766176D01*
X47262Y-12775700D01*
X28214Y-12785224D01*
X-9881Y-12785224D01*
X-28928Y-12794747D01*
X-38452Y-12804271D01*
X-47976Y-12823319D01*
X-47976Y-12861414D01*
X-38452Y-12880462D01*
X-28928Y-12889985D01*
X-9881Y-12899509D01*
X28214Y-12899509D01*
X47262Y-12889985D01*
X56786Y-12880462D01*
X66310Y-12861414D01*
X66310Y-12823319D01*
X56786Y-12804271D01*
X47262Y-12794747D01*
X28214Y-12785224D01*
X256786Y-12899509D02*
X142500Y-12899509D01*
X199643Y-12899509D02*
X199643Y-12699509D01*
X180595Y-12728081D01*
X161548Y-12747128D01*
X142500Y-12756652D01*
X332976Y-12699509D02*
X332976Y-12737605D01*
X409167Y-12699509D02*
X409167Y-12737605D01*
X704405Y-12975700D02*
X694881Y-12966176D01*
X675833Y-12937605D01*
X666310Y-12918557D01*
X656786Y-12889985D01*
X647262Y-12842366D01*
X647262Y-12804271D01*
X656786Y-12756652D01*
X666310Y-12728081D01*
X675833Y-12709033D01*
X694881Y-12680462D01*
X704405Y-12670938D01*
X885357Y-12899509D02*
X771071Y-12899509D01*
X828214Y-12899509D02*
X828214Y-12699509D01*
X809167Y-12728081D01*
X790119Y-12747128D01*
X771071Y-12756652D01*
X952024Y-12699509D02*
X1085357Y-12699509D01*
X999643Y-12899509D01*
X1199643Y-12699509D02*
X1218690Y-12699509D01*
X1237738Y-12709033D01*
X1247262Y-12718557D01*
X1256786Y-12737605D01*
X1266310Y-12775700D01*
X1266310Y-12823319D01*
X1256786Y-12861414D01*
X1247262Y-12880462D01*
X1237738Y-12889985D01*
X1218690Y-12899509D01*
X1199643Y-12899509D01*
X1180595Y-12889985D01*
X1171071Y-12880462D01*
X1161548Y-12861414D01*
X1152024Y-12823319D01*
X1152024Y-12775700D01*
X1161548Y-12737605D01*
X1171071Y-12718557D01*
X1180595Y-12709033D01*
X1199643Y-12699509D01*
X1504405Y-12899509D02*
X1504405Y-12699509D01*
X1590119Y-12899509D02*
X1590119Y-12794747D01*
X1580595Y-12775700D01*
X1561548Y-12766176D01*
X1532976Y-12766176D01*
X1513928Y-12775700D01*
X1504405Y-12785224D01*
X1713928Y-12899509D02*
X1694881Y-12889985D01*
X1685357Y-12880462D01*
X1675833Y-12861414D01*
X1675833Y-12804271D01*
X1685357Y-12785224D01*
X1694881Y-12775700D01*
X1713928Y-12766176D01*
X1742500Y-12766176D01*
X1761548Y-12775700D01*
X1771071Y-12785224D01*
X1780595Y-12804271D01*
X1780595Y-12861414D01*
X1771071Y-12880462D01*
X1761548Y-12889985D01*
X1742500Y-12899509D01*
X1713928Y-12899509D01*
X1894881Y-12899509D02*
X1875833Y-12889985D01*
X1866309Y-12870938D01*
X1866309Y-12699509D01*
X2047262Y-12889985D02*
X2028214Y-12899509D01*
X1990119Y-12899509D01*
X1971071Y-12889985D01*
X1961548Y-12870938D01*
X1961548Y-12794747D01*
X1971071Y-12775700D01*
X1990119Y-12766176D01*
X2028214Y-12766176D01*
X2047262Y-12775700D01*
X2056786Y-12794747D01*
X2056786Y-12813795D01*
X1961548Y-12832843D01*
X2132976Y-12889985D02*
X2152024Y-12899509D01*
X2190119Y-12899509D01*
X2209167Y-12889985D01*
X2218690Y-12870938D01*
X2218690Y-12861414D01*
X2209167Y-12842366D01*
X2190119Y-12832843D01*
X2161548Y-12832843D01*
X2142500Y-12823319D01*
X2132976Y-12804271D01*
X2132976Y-12794747D01*
X2142500Y-12775700D01*
X2161548Y-12766176D01*
X2190119Y-12766176D01*
X2209167Y-12775700D01*
X2285357Y-12975700D02*
X2294881Y-12966176D01*
X2313929Y-12937605D01*
X2323452Y-12918557D01*
X2332976Y-12889985D01*
X2342500Y-12842366D01*
X2342500Y-12804271D01*
X2332976Y-12756652D01*
X2323452Y-12728081D01*
X2313929Y-12709033D01*
X2294881Y-12680462D01*
X2285357Y-12670938D01*
X2647262Y-12975700D02*
X2637738Y-12966176D01*
X2618690Y-12937605D01*
X2609167Y-12918557D01*
X2599643Y-12889985D01*
X2590119Y-12842366D01*
X2590119Y-12804271D01*
X2599643Y-12756652D01*
X2609167Y-12728081D01*
X2618690Y-12709033D01*
X2637738Y-12680462D01*
X2647262Y-12670938D01*
X2723452Y-12766176D02*
X2723452Y-12899509D01*
X2723452Y-12785224D02*
X2732976Y-12775700D01*
X2752024Y-12766176D01*
X2780595Y-12766176D01*
X2799643Y-12775700D01*
X2809167Y-12794747D01*
X2809167Y-12899509D01*
X2932976Y-12899509D02*
X2913928Y-12889985D01*
X2904405Y-12880462D01*
X2894881Y-12861414D01*
X2894881Y-12804271D01*
X2904405Y-12785224D01*
X2913928Y-12775700D01*
X2932976Y-12766176D01*
X2961548Y-12766176D01*
X2980595Y-12775700D01*
X2990119Y-12785224D01*
X2999643Y-12804271D01*
X2999643Y-12861414D01*
X2990119Y-12880462D01*
X2980595Y-12889985D01*
X2961548Y-12899509D01*
X2932976Y-12899509D01*
X3056786Y-12766176D02*
X3132976Y-12766176D01*
X3085357Y-12699509D02*
X3085357Y-12870938D01*
X3094881Y-12889985D01*
X3113928Y-12899509D01*
X3132976Y-12899509D01*
X3352024Y-12766176D02*
X3352024Y-12966176D01*
X3352024Y-12775700D02*
X3371071Y-12766176D01*
X3409167Y-12766176D01*
X3428214Y-12775700D01*
X3437738Y-12785224D01*
X3447262Y-12804271D01*
X3447262Y-12861414D01*
X3437738Y-12880462D01*
X3428214Y-12889985D01*
X3409167Y-12899509D01*
X3371071Y-12899509D01*
X3352024Y-12889985D01*
X3561548Y-12899509D02*
X3542500Y-12889985D01*
X3532976Y-12870938D01*
X3532976Y-12699509D01*
X3723452Y-12899509D02*
X3723452Y-12794747D01*
X3713928Y-12775700D01*
X3694881Y-12766176D01*
X3656786Y-12766176D01*
X3637738Y-12775700D01*
X3723452Y-12889985D02*
X3704405Y-12899509D01*
X3656786Y-12899509D01*
X3637738Y-12889985D01*
X3628214Y-12870938D01*
X3628214Y-12851890D01*
X3637738Y-12832843D01*
X3656786Y-12823319D01*
X3704405Y-12823319D01*
X3723452Y-12813795D01*
X3790119Y-12766176D02*
X3866309Y-12766176D01*
X3818690Y-12699509D02*
X3818690Y-12870938D01*
X3828214Y-12889985D01*
X3847262Y-12899509D01*
X3866309Y-12899509D01*
X4009167Y-12889985D02*
X3990119Y-12899509D01*
X3952024Y-12899509D01*
X3932976Y-12889985D01*
X3923452Y-12870938D01*
X3923452Y-12794747D01*
X3932976Y-12775700D01*
X3952024Y-12766176D01*
X3990119Y-12766176D01*
X4009167Y-12775700D01*
X4018690Y-12794747D01*
X4018690Y-12813795D01*
X3923452Y-12832843D01*
X4190119Y-12899509D02*
X4190119Y-12699509D01*
X4190119Y-12889985D02*
X4171071Y-12899509D01*
X4132976Y-12899509D01*
X4113928Y-12889985D01*
X4104405Y-12880462D01*
X4094881Y-12861414D01*
X4094881Y-12804271D01*
X4104405Y-12785224D01*
X4113928Y-12775700D01*
X4132976Y-12766176D01*
X4171071Y-12766176D01*
X4190119Y-12775700D01*
X4266310Y-12975700D02*
X4275833Y-12966176D01*
X4294881Y-12937605D01*
X4304405Y-12918557D01*
X4313929Y-12889985D01*
X4323452Y-12842366D01*
X4323452Y-12804271D01*
X4313929Y-12756652D01*
X4304405Y-12728081D01*
X4294881Y-12709033D01*
X4275833Y-12680462D01*
X4266310Y-12670938D01*
X-3067500Y-13029033D02*
X-2867500Y-13229033D01*
X-2867500Y-13029033D02*
X-3067500Y-13229033D01*
X-2867500Y-13129033D02*
G75*
G03*
X-2867500Y-13129033I-100000J0D01*
G01*
X-2628929Y-13019509D02*
X-2505119Y-13019509D01*
X-2571786Y-13095700D01*
X-2543214Y-13095700D01*
X-2524167Y-13105224D01*
X-2514643Y-13114747D01*
X-2505119Y-13133795D01*
X-2505119Y-13181414D01*
X-2514643Y-13200462D01*
X-2524167Y-13209985D01*
X-2543214Y-13219509D01*
X-2600357Y-13219509D01*
X-2619405Y-13209985D01*
X-2628929Y-13200462D01*
X-2419405Y-13200462D02*
X-2409881Y-13209985D01*
X-2419405Y-13219509D01*
X-2428929Y-13209985D01*
X-2419405Y-13200462D01*
X-2419405Y-13219509D01*
X-2286071Y-13019509D02*
X-2267024Y-13019509D01*
X-2247976Y-13029033D01*
X-2238452Y-13038557D01*
X-2228929Y-13057605D01*
X-2219405Y-13095700D01*
X-2219405Y-13143319D01*
X-2228929Y-13181414D01*
X-2238452Y-13200462D01*
X-2247976Y-13209985D01*
X-2267024Y-13219509D01*
X-2286071Y-13219509D01*
X-2305119Y-13209985D01*
X-2314643Y-13200462D01*
X-2324167Y-13181414D01*
X-2333690Y-13143319D01*
X-2333690Y-13095700D01*
X-2324167Y-13057605D01*
X-2314643Y-13038557D01*
X-2305119Y-13029033D01*
X-2286071Y-13019509D01*
X-2047976Y-13086176D02*
X-2047976Y-13219509D01*
X-2095595Y-13009985D02*
X-2143214Y-13152843D01*
X-2019405Y-13152843D01*
X-1914643Y-13105224D02*
X-1933690Y-13095700D01*
X-1943214Y-13086176D01*
X-1952738Y-13067128D01*
X-1952738Y-13057605D01*
X-1943214Y-13038557D01*
X-1933690Y-13029033D01*
X-1914643Y-13019509D01*
X-1876548Y-13019509D01*
X-1857500Y-13029033D01*
X-1847976Y-13038557D01*
X-1838452Y-13057605D01*
X-1838452Y-13067128D01*
X-1847976Y-13086176D01*
X-1857500Y-13095700D01*
X-1876548Y-13105224D01*
X-1914643Y-13105224D01*
X-1933690Y-13114747D01*
X-1943214Y-13124271D01*
X-1952738Y-13143319D01*
X-1952738Y-13181414D01*
X-1943214Y-13200462D01*
X-1933690Y-13209985D01*
X-1914643Y-13219509D01*
X-1876548Y-13219509D01*
X-1857500Y-13209985D01*
X-1847976Y-13200462D01*
X-1838452Y-13181414D01*
X-1838452Y-13143319D01*
X-1847976Y-13124271D01*
X-1857500Y-13114747D01*
X-1876548Y-13105224D01*
X-1752738Y-13219509D02*
X-1752738Y-13086176D01*
X-1752738Y-13105224D02*
X-1743214Y-13095700D01*
X-1724167Y-13086176D01*
X-1695595Y-13086176D01*
X-1676548Y-13095700D01*
X-1667024Y-13114747D01*
X-1667024Y-13219509D01*
X-1667024Y-13114747D02*
X-1657500Y-13095700D01*
X-1638452Y-13086176D01*
X-1609881Y-13086176D01*
X-1590833Y-13095700D01*
X-1581309Y-13114747D01*
X-1581309Y-13219509D01*
X-1486071Y-13219509D02*
X-1486071Y-13086176D01*
X-1486071Y-13105224D02*
X-1476548Y-13095700D01*
X-1457500Y-13086176D01*
X-1428928Y-13086176D01*
X-1409881Y-13095700D01*
X-1400357Y-13114747D01*
X-1400357Y-13219509D01*
X-1400357Y-13114747D02*
X-1390833Y-13095700D01*
X-1371786Y-13086176D01*
X-1343214Y-13086176D01*
X-1324167Y-13095700D01*
X-1314643Y-13114747D01*
X-1314643Y-13219509D01*
X-924167Y-13009985D02*
X-1095595Y-13267128D01*
X-667024Y-13019509D02*
X-647976Y-13019509D01*
X-628929Y-13029033D01*
X-619405Y-13038557D01*
X-609881Y-13057605D01*
X-600357Y-13095700D01*
X-600357Y-13143319D01*
X-609881Y-13181414D01*
X-619405Y-13200462D01*
X-628929Y-13209985D01*
X-647976Y-13219509D01*
X-667024Y-13219509D01*
X-686071Y-13209985D01*
X-695595Y-13200462D01*
X-705119Y-13181414D01*
X-714643Y-13143319D01*
X-714643Y-13095700D01*
X-705119Y-13057605D01*
X-695595Y-13038557D01*
X-686071Y-13029033D01*
X-667024Y-13019509D01*
X-514643Y-13200462D02*
X-505119Y-13209985D01*
X-514643Y-13219509D01*
X-524167Y-13209985D01*
X-514643Y-13200462D01*
X-514643Y-13219509D01*
X-314643Y-13219509D02*
X-428928Y-13219509D01*
X-371786Y-13219509D02*
X-371786Y-13019509D01*
X-390833Y-13048081D01*
X-409881Y-13067128D01*
X-428928Y-13076652D01*
X-238452Y-13038557D02*
X-228928Y-13029033D01*
X-209881Y-13019509D01*
X-162262Y-13019509D01*
X-143214Y-13029033D01*
X-133690Y-13038557D01*
X-124167Y-13057605D01*
X-124167Y-13076652D01*
X-133690Y-13105224D01*
X-247976Y-13219509D01*
X-124167Y-13219509D01*
X-357Y-13019509D02*
X18690Y-13019509D01*
X37738Y-13029033D01*
X47262Y-13038557D01*
X56786Y-13057605D01*
X66310Y-13095700D01*
X66310Y-13143319D01*
X56786Y-13181414D01*
X47262Y-13200462D01*
X37738Y-13209985D01*
X18690Y-13219509D01*
X-357Y-13219509D01*
X-19405Y-13209985D01*
X-28928Y-13200462D01*
X-38452Y-13181414D01*
X-47976Y-13143319D01*
X-47976Y-13095700D01*
X-38452Y-13057605D01*
X-28928Y-13038557D01*
X-19405Y-13029033D01*
X-357Y-13019509D01*
X190119Y-13019509D02*
X209167Y-13019509D01*
X228214Y-13029033D01*
X237738Y-13038557D01*
X247262Y-13057605D01*
X256786Y-13095700D01*
X256786Y-13143319D01*
X247262Y-13181414D01*
X237738Y-13200462D01*
X228214Y-13209985D01*
X209167Y-13219509D01*
X190119Y-13219509D01*
X171071Y-13209985D01*
X161548Y-13200462D01*
X152024Y-13181414D01*
X142500Y-13143319D01*
X142500Y-13095700D01*
X152024Y-13057605D01*
X161548Y-13038557D01*
X171071Y-13029033D01*
X190119Y-13019509D01*
X332976Y-13019509D02*
X332976Y-13057605D01*
X409167Y-13019509D02*
X409167Y-13057605D01*
X704405Y-13295700D02*
X694881Y-13286176D01*
X675833Y-13257605D01*
X666310Y-13238557D01*
X656786Y-13209985D01*
X647262Y-13162366D01*
X647262Y-13124271D01*
X656786Y-13076652D01*
X666310Y-13048081D01*
X675833Y-13029033D01*
X694881Y-13000462D01*
X704405Y-12990938D01*
X885357Y-13219509D02*
X771071Y-13219509D01*
X828214Y-13219509D02*
X828214Y-13019509D01*
X809167Y-13048081D01*
X790119Y-13067128D01*
X771071Y-13076652D01*
X1009167Y-13019509D02*
X1028214Y-13019509D01*
X1047262Y-13029033D01*
X1056786Y-13038557D01*
X1066310Y-13057605D01*
X1075833Y-13095700D01*
X1075833Y-13143319D01*
X1066310Y-13181414D01*
X1056786Y-13200462D01*
X1047262Y-13209985D01*
X1028214Y-13219509D01*
X1009167Y-13219509D01*
X990119Y-13209985D01*
X980595Y-13200462D01*
X971071Y-13181414D01*
X961548Y-13143319D01*
X961548Y-13095700D01*
X971071Y-13057605D01*
X980595Y-13038557D01*
X990119Y-13029033D01*
X1009167Y-13019509D01*
X1313929Y-13219509D02*
X1313929Y-13019509D01*
X1399643Y-13219509D02*
X1399643Y-13114747D01*
X1390119Y-13095700D01*
X1371071Y-13086176D01*
X1342500Y-13086176D01*
X1323452Y-13095700D01*
X1313929Y-13105224D01*
X1523452Y-13219509D02*
X1504405Y-13209985D01*
X1494881Y-13200462D01*
X1485357Y-13181414D01*
X1485357Y-13124271D01*
X1494881Y-13105224D01*
X1504405Y-13095700D01*
X1523452Y-13086176D01*
X1552024Y-13086176D01*
X1571071Y-13095700D01*
X1580595Y-13105224D01*
X1590119Y-13124271D01*
X1590119Y-13181414D01*
X1580595Y-13200462D01*
X1571071Y-13209985D01*
X1552024Y-13219509D01*
X1523452Y-13219509D01*
X1704405Y-13219509D02*
X1685357Y-13209985D01*
X1675833Y-13190938D01*
X1675833Y-13019509D01*
X1856786Y-13209985D02*
X1837738Y-13219509D01*
X1799643Y-13219509D01*
X1780595Y-13209985D01*
X1771071Y-13190938D01*
X1771071Y-13114747D01*
X1780595Y-13095700D01*
X1799643Y-13086176D01*
X1837738Y-13086176D01*
X1856786Y-13095700D01*
X1866309Y-13114747D01*
X1866309Y-13133795D01*
X1771071Y-13152843D01*
X1942500Y-13209985D02*
X1961548Y-13219509D01*
X1999643Y-13219509D01*
X2018690Y-13209985D01*
X2028214Y-13190938D01*
X2028214Y-13181414D01*
X2018690Y-13162366D01*
X1999643Y-13152843D01*
X1971071Y-13152843D01*
X1952024Y-13143319D01*
X1942500Y-13124271D01*
X1942500Y-13114747D01*
X1952024Y-13095700D01*
X1971071Y-13086176D01*
X1999643Y-13086176D01*
X2018690Y-13095700D01*
X2094881Y-13295700D02*
X2104405Y-13286176D01*
X2123452Y-13257605D01*
X2132976Y-13238557D01*
X2142500Y-13209985D01*
X2152024Y-13162366D01*
X2152024Y-13124271D01*
X2142500Y-13076652D01*
X2132976Y-13048081D01*
X2123452Y-13029033D01*
X2104405Y-13000462D01*
X2094881Y-12990938D01*
X2456786Y-13295700D02*
X2447262Y-13286176D01*
X2428214Y-13257605D01*
X2418690Y-13238557D01*
X2409167Y-13209985D01*
X2399643Y-13162366D01*
X2399643Y-13124271D01*
X2409167Y-13076652D01*
X2418690Y-13048081D01*
X2428214Y-13029033D01*
X2447262Y-13000462D01*
X2456786Y-12990938D01*
X2532976Y-13086176D02*
X2532976Y-13219509D01*
X2532976Y-13105224D02*
X2542500Y-13095700D01*
X2561548Y-13086176D01*
X2590119Y-13086176D01*
X2609167Y-13095700D01*
X2618690Y-13114747D01*
X2618690Y-13219509D01*
X2742500Y-13219509D02*
X2723452Y-13209985D01*
X2713929Y-13200462D01*
X2704405Y-13181414D01*
X2704405Y-13124271D01*
X2713929Y-13105224D01*
X2723452Y-13095700D01*
X2742500Y-13086176D01*
X2771071Y-13086176D01*
X2790119Y-13095700D01*
X2799643Y-13105224D01*
X2809167Y-13124271D01*
X2809167Y-13181414D01*
X2799643Y-13200462D01*
X2790119Y-13209985D01*
X2771071Y-13219509D01*
X2742500Y-13219509D01*
X2866309Y-13086176D02*
X2942500Y-13086176D01*
X2894881Y-13019509D02*
X2894881Y-13190938D01*
X2904405Y-13209985D01*
X2923452Y-13219509D01*
X2942500Y-13219509D01*
X3161548Y-13086176D02*
X3161548Y-13286176D01*
X3161548Y-13095700D02*
X3180595Y-13086176D01*
X3218690Y-13086176D01*
X3237738Y-13095700D01*
X3247262Y-13105224D01*
X3256786Y-13124271D01*
X3256786Y-13181414D01*
X3247262Y-13200462D01*
X3237738Y-13209985D01*
X3218690Y-13219509D01*
X3180595Y-13219509D01*
X3161548Y-13209985D01*
X3371071Y-13219509D02*
X3352024Y-13209985D01*
X3342500Y-13190938D01*
X3342500Y-13019509D01*
X3532976Y-13219509D02*
X3532976Y-13114747D01*
X3523452Y-13095700D01*
X3504405Y-13086176D01*
X3466309Y-13086176D01*
X3447262Y-13095700D01*
X3532976Y-13209985D02*
X3513928Y-13219509D01*
X3466309Y-13219509D01*
X3447262Y-13209985D01*
X3437738Y-13190938D01*
X3437738Y-13171890D01*
X3447262Y-13152843D01*
X3466309Y-13143319D01*
X3513928Y-13143319D01*
X3532976Y-13133795D01*
X3599643Y-13086176D02*
X3675833Y-13086176D01*
X3628214Y-13019509D02*
X3628214Y-13190938D01*
X3637738Y-13209985D01*
X3656786Y-13219509D01*
X3675833Y-13219509D01*
X3818690Y-13209985D02*
X3799643Y-13219509D01*
X3761548Y-13219509D01*
X3742500Y-13209985D01*
X3732976Y-13190938D01*
X3732976Y-13114747D01*
X3742500Y-13095700D01*
X3761548Y-13086176D01*
X3799643Y-13086176D01*
X3818690Y-13095700D01*
X3828214Y-13114747D01*
X3828214Y-13133795D01*
X3732976Y-13152843D01*
X3999643Y-13219509D02*
X3999643Y-13019509D01*
X3999643Y-13209985D02*
X3980595Y-13219509D01*
X3942500Y-13219509D01*
X3923452Y-13209985D01*
X3913928Y-13200462D01*
X3904405Y-13181414D01*
X3904405Y-13124271D01*
X3913928Y-13105224D01*
X3923452Y-13095700D01*
X3942500Y-13086176D01*
X3980595Y-13086176D01*
X3999643Y-13095700D01*
X4075833Y-13295700D02*
X4085357Y-13286176D01*
X4104405Y-13257605D01*
X4113928Y-13238557D01*
X4123452Y-13209985D01*
X4132976Y-13162366D01*
X4132976Y-13124271D01*
X4123452Y-13076652D01*
X4113928Y-13048081D01*
X4104405Y-13029033D01*
X4085357Y-13000462D01*
X4075833Y-12990938D01*
X-3067500Y-13349033D02*
X-2867500Y-13549033D01*
X-2867500Y-13349033D02*
X-3067500Y-13549033D01*
X-2967500Y-13349033D02*
X-2967500Y-13549033D01*
X-3067500Y-13449033D02*
X-2867500Y-13449033D01*
X-2628929Y-13339509D02*
X-2505119Y-13339509D01*
X-2571786Y-13415700D01*
X-2543214Y-13415700D01*
X-2524167Y-13425224D01*
X-2514643Y-13434747D01*
X-2505119Y-13453795D01*
X-2505119Y-13501414D01*
X-2514643Y-13520462D01*
X-2524167Y-13529985D01*
X-2543214Y-13539509D01*
X-2600357Y-13539509D01*
X-2619405Y-13529985D01*
X-2628929Y-13520462D01*
X-2419405Y-13520462D02*
X-2409881Y-13529985D01*
X-2419405Y-13539509D01*
X-2428929Y-13529985D01*
X-2419405Y-13520462D01*
X-2419405Y-13539509D01*
X-2314643Y-13539509D02*
X-2276548Y-13539509D01*
X-2257500Y-13529985D01*
X-2247976Y-13520462D01*
X-2228929Y-13491890D01*
X-2219405Y-13453795D01*
X-2219405Y-13377605D01*
X-2228929Y-13358557D01*
X-2238452Y-13349033D01*
X-2257500Y-13339509D01*
X-2295595Y-13339509D01*
X-2314643Y-13349033D01*
X-2324167Y-13358557D01*
X-2333690Y-13377605D01*
X-2333690Y-13425224D01*
X-2324167Y-13444271D01*
X-2314643Y-13453795D01*
X-2295595Y-13463319D01*
X-2257500Y-13463319D01*
X-2238452Y-13453795D01*
X-2228929Y-13444271D01*
X-2219405Y-13425224D01*
X-2105119Y-13425224D02*
X-2124167Y-13415700D01*
X-2133690Y-13406176D01*
X-2143214Y-13387128D01*
X-2143214Y-13377605D01*
X-2133690Y-13358557D01*
X-2124167Y-13349033D01*
X-2105119Y-13339509D01*
X-2067024Y-13339509D01*
X-2047976Y-13349033D01*
X-2038452Y-13358557D01*
X-2028928Y-13377605D01*
X-2028928Y-13387128D01*
X-2038452Y-13406176D01*
X-2047976Y-13415700D01*
X-2067024Y-13425224D01*
X-2105119Y-13425224D01*
X-2124167Y-13434747D01*
X-2133690Y-13444271D01*
X-2143214Y-13463319D01*
X-2143214Y-13501414D01*
X-2133690Y-13520462D01*
X-2124167Y-13529985D01*
X-2105119Y-13539509D01*
X-2067024Y-13539509D01*
X-2047976Y-13529985D01*
X-2038452Y-13520462D01*
X-2028928Y-13501414D01*
X-2028928Y-13463319D01*
X-2038452Y-13444271D01*
X-2047976Y-13434747D01*
X-2067024Y-13425224D01*
X-1914643Y-13425224D02*
X-1933690Y-13415700D01*
X-1943214Y-13406176D01*
X-1952738Y-13387128D01*
X-1952738Y-13377605D01*
X-1943214Y-13358557D01*
X-1933690Y-13349033D01*
X-1914643Y-13339509D01*
X-1876548Y-13339509D01*
X-1857500Y-13349033D01*
X-1847976Y-13358557D01*
X-1838452Y-13377605D01*
X-1838452Y-13387128D01*
X-1847976Y-13406176D01*
X-1857500Y-13415700D01*
X-1876548Y-13425224D01*
X-1914643Y-13425224D01*
X-1933690Y-13434747D01*
X-1943214Y-13444271D01*
X-1952738Y-13463319D01*
X-1952738Y-13501414D01*
X-1943214Y-13520462D01*
X-1933690Y-13529985D01*
X-1914643Y-13539509D01*
X-1876548Y-13539509D01*
X-1857500Y-13529985D01*
X-1847976Y-13520462D01*
X-1838452Y-13501414D01*
X-1838452Y-13463319D01*
X-1847976Y-13444271D01*
X-1857500Y-13434747D01*
X-1876548Y-13425224D01*
X-1752738Y-13539509D02*
X-1752738Y-13406176D01*
X-1752738Y-13425224D02*
X-1743214Y-13415700D01*
X-1724167Y-13406176D01*
X-1695595Y-13406176D01*
X-1676548Y-13415700D01*
X-1667024Y-13434747D01*
X-1667024Y-13539509D01*
X-1667024Y-13434747D02*
X-1657500Y-13415700D01*
X-1638452Y-13406176D01*
X-1609881Y-13406176D01*
X-1590833Y-13415700D01*
X-1581309Y-13434747D01*
X-1581309Y-13539509D01*
X-1486071Y-13539509D02*
X-1486071Y-13406176D01*
X-1486071Y-13425224D02*
X-1476548Y-13415700D01*
X-1457500Y-13406176D01*
X-1428928Y-13406176D01*
X-1409881Y-13415700D01*
X-1400357Y-13434747D01*
X-1400357Y-13539509D01*
X-1400357Y-13434747D02*
X-1390833Y-13415700D01*
X-1371786Y-13406176D01*
X-1343214Y-13406176D01*
X-1324167Y-13415700D01*
X-1314643Y-13434747D01*
X-1314643Y-13539509D01*
X-924167Y-13329985D02*
X-1095595Y-13587128D01*
X-667024Y-13339509D02*
X-647976Y-13339509D01*
X-628929Y-13349033D01*
X-619405Y-13358557D01*
X-609881Y-13377605D01*
X-600357Y-13415700D01*
X-600357Y-13463319D01*
X-609881Y-13501414D01*
X-619405Y-13520462D01*
X-628929Y-13529985D01*
X-647976Y-13539509D01*
X-667024Y-13539509D01*
X-686071Y-13529985D01*
X-695595Y-13520462D01*
X-705119Y-13501414D01*
X-714643Y-13463319D01*
X-714643Y-13415700D01*
X-705119Y-13377605D01*
X-695595Y-13358557D01*
X-686071Y-13349033D01*
X-667024Y-13339509D01*
X-514643Y-13520462D02*
X-505119Y-13529985D01*
X-514643Y-13539509D01*
X-524167Y-13529985D01*
X-514643Y-13520462D01*
X-514643Y-13539509D01*
X-314643Y-13539509D02*
X-428928Y-13539509D01*
X-371786Y-13539509D02*
X-371786Y-13339509D01*
X-390833Y-13368081D01*
X-409881Y-13387128D01*
X-428928Y-13396652D01*
X-133690Y-13339509D02*
X-228928Y-13339509D01*
X-238452Y-13434747D01*
X-228928Y-13425224D01*
X-209881Y-13415700D01*
X-162262Y-13415700D01*
X-143214Y-13425224D01*
X-133690Y-13434747D01*
X-124167Y-13453795D01*
X-124167Y-13501414D01*
X-133690Y-13520462D01*
X-143214Y-13529985D01*
X-162262Y-13539509D01*
X-209881Y-13539509D01*
X-228928Y-13529985D01*
X-238452Y-13520462D01*
X-57500Y-13339509D02*
X75833Y-13339509D01*
X-9881Y-13539509D01*
X190119Y-13339509D02*
X209167Y-13339509D01*
X228214Y-13349033D01*
X237738Y-13358557D01*
X247262Y-13377605D01*
X256786Y-13415700D01*
X256786Y-13463319D01*
X247262Y-13501414D01*
X237738Y-13520462D01*
X228214Y-13529985D01*
X209167Y-13539509D01*
X190119Y-13539509D01*
X171071Y-13529985D01*
X161548Y-13520462D01*
X152024Y-13501414D01*
X142500Y-13463319D01*
X142500Y-13415700D01*
X152024Y-13377605D01*
X161548Y-13358557D01*
X171071Y-13349033D01*
X190119Y-13339509D01*
X332976Y-13339509D02*
X332976Y-13377605D01*
X409167Y-13339509D02*
X409167Y-13377605D01*
X704405Y-13615700D02*
X694881Y-13606176D01*
X675833Y-13577605D01*
X666310Y-13558557D01*
X656786Y-13529985D01*
X647262Y-13482366D01*
X647262Y-13444271D01*
X656786Y-13396652D01*
X666310Y-13368081D01*
X675833Y-13349033D01*
X694881Y-13320462D01*
X704405Y-13310938D01*
X790119Y-13539509D02*
X828214Y-13539509D01*
X847262Y-13529985D01*
X856786Y-13520462D01*
X875833Y-13491890D01*
X885357Y-13453795D01*
X885357Y-13377605D01*
X875833Y-13358557D01*
X866309Y-13349033D01*
X847262Y-13339509D01*
X809167Y-13339509D01*
X790119Y-13349033D01*
X780595Y-13358557D01*
X771071Y-13377605D01*
X771071Y-13425224D01*
X780595Y-13444271D01*
X790119Y-13453795D01*
X809167Y-13463319D01*
X847262Y-13463319D01*
X866309Y-13453795D01*
X875833Y-13444271D01*
X885357Y-13425224D01*
X1066310Y-13339509D02*
X971071Y-13339509D01*
X961548Y-13434747D01*
X971071Y-13425224D01*
X990119Y-13415700D01*
X1037738Y-13415700D01*
X1056786Y-13425224D01*
X1066310Y-13434747D01*
X1075833Y-13453795D01*
X1075833Y-13501414D01*
X1066310Y-13520462D01*
X1056786Y-13529985D01*
X1037738Y-13539509D01*
X990119Y-13539509D01*
X971071Y-13529985D01*
X961548Y-13520462D01*
X1313929Y-13539509D02*
X1313929Y-13339509D01*
X1399643Y-13539509D02*
X1399643Y-13434747D01*
X1390119Y-13415700D01*
X1371071Y-13406176D01*
X1342500Y-13406176D01*
X1323452Y-13415700D01*
X1313929Y-13425224D01*
X1523452Y-13539509D02*
X1504405Y-13529985D01*
X1494881Y-13520462D01*
X1485357Y-13501414D01*
X1485357Y-13444271D01*
X1494881Y-13425224D01*
X1504405Y-13415700D01*
X1523452Y-13406176D01*
X1552024Y-13406176D01*
X1571071Y-13415700D01*
X1580595Y-13425224D01*
X1590119Y-13444271D01*
X1590119Y-13501414D01*
X1580595Y-13520462D01*
X1571071Y-13529985D01*
X1552024Y-13539509D01*
X1523452Y-13539509D01*
X1704405Y-13539509D02*
X1685357Y-13529985D01*
X1675833Y-13510938D01*
X1675833Y-13339509D01*
X1856786Y-13529985D02*
X1837738Y-13539509D01*
X1799643Y-13539509D01*
X1780595Y-13529985D01*
X1771071Y-13510938D01*
X1771071Y-13434747D01*
X1780595Y-13415700D01*
X1799643Y-13406176D01*
X1837738Y-13406176D01*
X1856786Y-13415700D01*
X1866309Y-13434747D01*
X1866309Y-13453795D01*
X1771071Y-13472843D01*
X1942500Y-13529985D02*
X1961548Y-13539509D01*
X1999643Y-13539509D01*
X2018690Y-13529985D01*
X2028214Y-13510938D01*
X2028214Y-13501414D01*
X2018690Y-13482366D01*
X1999643Y-13472843D01*
X1971071Y-13472843D01*
X1952024Y-13463319D01*
X1942500Y-13444271D01*
X1942500Y-13434747D01*
X1952024Y-13415700D01*
X1971071Y-13406176D01*
X1999643Y-13406176D01*
X2018690Y-13415700D01*
X2094881Y-13615700D02*
X2104405Y-13606176D01*
X2123452Y-13577605D01*
X2132976Y-13558557D01*
X2142500Y-13529985D01*
X2152024Y-13482366D01*
X2152024Y-13444271D01*
X2142500Y-13396652D01*
X2132976Y-13368081D01*
X2123452Y-13349033D01*
X2104405Y-13320462D01*
X2094881Y-13310938D01*
X2456786Y-13615700D02*
X2447262Y-13606176D01*
X2428214Y-13577605D01*
X2418690Y-13558557D01*
X2409167Y-13529985D01*
X2399643Y-13482366D01*
X2399643Y-13444271D01*
X2409167Y-13396652D01*
X2418690Y-13368081D01*
X2428214Y-13349033D01*
X2447262Y-13320462D01*
X2456786Y-13310938D01*
X2532976Y-13406176D02*
X2532976Y-13539509D01*
X2532976Y-13425224D02*
X2542500Y-13415700D01*
X2561548Y-13406176D01*
X2590119Y-13406176D01*
X2609167Y-13415700D01*
X2618690Y-13434747D01*
X2618690Y-13539509D01*
X2742500Y-13539509D02*
X2723452Y-13529985D01*
X2713929Y-13520462D01*
X2704405Y-13501414D01*
X2704405Y-13444271D01*
X2713929Y-13425224D01*
X2723452Y-13415700D01*
X2742500Y-13406176D01*
X2771071Y-13406176D01*
X2790119Y-13415700D01*
X2799643Y-13425224D01*
X2809167Y-13444271D01*
X2809167Y-13501414D01*
X2799643Y-13520462D01*
X2790119Y-13529985D01*
X2771071Y-13539509D01*
X2742500Y-13539509D01*
X2866309Y-13406176D02*
X2942500Y-13406176D01*
X2894881Y-13339509D02*
X2894881Y-13510938D01*
X2904405Y-13529985D01*
X2923452Y-13539509D01*
X2942500Y-13539509D01*
X3161548Y-13406176D02*
X3161548Y-13606176D01*
X3161548Y-13415700D02*
X3180595Y-13406176D01*
X3218690Y-13406176D01*
X3237738Y-13415700D01*
X3247262Y-13425224D01*
X3256786Y-13444271D01*
X3256786Y-13501414D01*
X3247262Y-13520462D01*
X3237738Y-13529985D01*
X3218690Y-13539509D01*
X3180595Y-13539509D01*
X3161548Y-13529985D01*
X3371071Y-13539509D02*
X3352024Y-13529985D01*
X3342500Y-13510938D01*
X3342500Y-13339509D01*
X3532976Y-13539509D02*
X3532976Y-13434747D01*
X3523452Y-13415700D01*
X3504405Y-13406176D01*
X3466309Y-13406176D01*
X3447262Y-13415700D01*
X3532976Y-13529985D02*
X3513928Y-13539509D01*
X3466309Y-13539509D01*
X3447262Y-13529985D01*
X3437738Y-13510938D01*
X3437738Y-13491890D01*
X3447262Y-13472843D01*
X3466309Y-13463319D01*
X3513928Y-13463319D01*
X3532976Y-13453795D01*
X3599643Y-13406176D02*
X3675833Y-13406176D01*
X3628214Y-13339509D02*
X3628214Y-13510938D01*
X3637738Y-13529985D01*
X3656786Y-13539509D01*
X3675833Y-13539509D01*
X3818690Y-13529985D02*
X3799643Y-13539509D01*
X3761548Y-13539509D01*
X3742500Y-13529985D01*
X3732976Y-13510938D01*
X3732976Y-13434747D01*
X3742500Y-13415700D01*
X3761548Y-13406176D01*
X3799643Y-13406176D01*
X3818690Y-13415700D01*
X3828214Y-13434747D01*
X3828214Y-13453795D01*
X3732976Y-13472843D01*
X3999643Y-13539509D02*
X3999643Y-13339509D01*
X3999643Y-13529985D02*
X3980595Y-13539509D01*
X3942500Y-13539509D01*
X3923452Y-13529985D01*
X3913928Y-13520462D01*
X3904405Y-13501414D01*
X3904405Y-13444271D01*
X3913928Y-13425224D01*
X3923452Y-13415700D01*
X3942500Y-13406176D01*
X3980595Y-13406176D01*
X3999643Y-13415700D01*
X4075833Y-13615700D02*
X4085357Y-13606176D01*
X4104405Y-13577605D01*
X4113928Y-13558557D01*
X4123452Y-13529985D01*
X4132976Y-13482366D01*
X4132976Y-13444271D01*
X4123452Y-13396652D01*
X4113928Y-13368081D01*
X4104405Y-13349033D01*
X4085357Y-13320462D01*
X4075833Y-13310938D01*
M02*
