%TF.GenerationSoftware,KiCad,Pcbnew,(6.0.5-0)*%
%TF.CreationDate,2023-01-21T22:01:54+08:00*%
%TF.ProjectId,main,6d61696e-2e6b-4696-9361-645f70636258,Prototype-V1*%
%TF.SameCoordinates,Original*%
%TF.FileFunction,AssemblyDrawing,Top*%
%FSLAX46Y46*%
G04 Gerber Fmt 4.6, Leading zero omitted, Abs format (unit mm)*
G04 Created by KiCad (PCBNEW (6.0.5-0)) date 2023-01-21 22:01:54*
%MOMM*%
%LPD*%
G01*
G04 APERTURE LIST*
%ADD10C,0.150000*%
%ADD11C,0.200000*%
G04 APERTURE END LIST*
D10*
X229643990Y9972619D02*
X229643990Y10972619D01*
X229977323Y10258333D01*
X230310657Y10972619D01*
X230310657Y9972619D01*
X230739228Y10877380D02*
X230786847Y10925000D01*
X230882085Y10972619D01*
X231120180Y10972619D01*
X231215419Y10925000D01*
X231263038Y10877380D01*
X231310657Y10782142D01*
X231310657Y10686904D01*
X231263038Y10544047D01*
X230691609Y9972619D01*
X231310657Y9972619D01*
X231739228Y10067857D02*
X231786847Y10020238D01*
X231739228Y9972619D01*
X231691609Y10020238D01*
X231739228Y10067857D01*
X231739228Y9972619D01*
X232691609Y10972619D02*
X232215419Y10972619D01*
X232167800Y10496428D01*
X232215419Y10544047D01*
X232310657Y10591666D01*
X232548752Y10591666D01*
X232643990Y10544047D01*
X232691609Y10496428D01*
X232739228Y10401190D01*
X232739228Y10163095D01*
X232691609Y10067857D01*
X232643990Y10020238D01*
X232548752Y9972619D01*
X232310657Y9972619D01*
X232215419Y10020238D01*
X232167800Y10067857D01*
X230405895Y13672619D02*
X230405895Y14672619D01*
X230405895Y14196428D02*
X230977323Y14196428D01*
X230977323Y13672619D02*
X230977323Y14672619D01*
X231929704Y14672619D02*
X231453514Y14672619D01*
X231405895Y14196428D01*
X231453514Y14244047D01*
X231548752Y14291666D01*
X231786847Y14291666D01*
X231882085Y14244047D01*
X231929704Y14196428D01*
X231977323Y14101190D01*
X231977323Y13863095D01*
X231929704Y13767857D01*
X231882085Y13720238D01*
X231786847Y13672619D01*
X231548752Y13672619D01*
X231453514Y13720238D01*
X231405895Y13767857D01*
X229643990Y28772619D02*
X229643990Y29772619D01*
X229977323Y29058333D01*
X230310657Y29772619D01*
X230310657Y28772619D01*
X230739228Y29677380D02*
X230786847Y29725000D01*
X230882085Y29772619D01*
X231120180Y29772619D01*
X231215419Y29725000D01*
X231263038Y29677380D01*
X231310657Y29582142D01*
X231310657Y29486904D01*
X231263038Y29344047D01*
X230691609Y28772619D01*
X231310657Y28772619D01*
X231739228Y28867857D02*
X231786847Y28820238D01*
X231739228Y28772619D01*
X231691609Y28820238D01*
X231739228Y28867857D01*
X231739228Y28772619D01*
X232691609Y29772619D02*
X232215419Y29772619D01*
X232167800Y29296428D01*
X232215419Y29344047D01*
X232310657Y29391666D01*
X232548752Y29391666D01*
X232643990Y29344047D01*
X232691609Y29296428D01*
X232739228Y29201190D01*
X232739228Y28963095D01*
X232691609Y28867857D01*
X232643990Y28820238D01*
X232548752Y28772619D01*
X232310657Y28772619D01*
X232215419Y28820238D01*
X232167800Y28867857D01*
X230405895Y32472619D02*
X230405895Y33472619D01*
X230405895Y32996428D02*
X230977323Y32996428D01*
X230977323Y32472619D02*
X230977323Y33472619D01*
X231882085Y33139285D02*
X231882085Y32472619D01*
X231643990Y33520238D02*
X231405895Y32805952D01*
X232024942Y32805952D01*
X346351190Y9972619D02*
X346351190Y10972619D01*
X346684523Y10258333D01*
X347017857Y10972619D01*
X347017857Y9972619D01*
X347446428Y10877380D02*
X347494047Y10925000D01*
X347589285Y10972619D01*
X347827380Y10972619D01*
X347922619Y10925000D01*
X347970238Y10877380D01*
X348017857Y10782142D01*
X348017857Y10686904D01*
X347970238Y10544047D01*
X347398809Y9972619D01*
X348017857Y9972619D01*
X348446428Y10067857D02*
X348494047Y10020238D01*
X348446428Y9972619D01*
X348398809Y10020238D01*
X348446428Y10067857D01*
X348446428Y9972619D01*
X349398809Y10972619D02*
X348922619Y10972619D01*
X348875000Y10496428D01*
X348922619Y10544047D01*
X349017857Y10591666D01*
X349255952Y10591666D01*
X349351190Y10544047D01*
X349398809Y10496428D01*
X349446428Y10401190D01*
X349446428Y10163095D01*
X349398809Y10067857D01*
X349351190Y10020238D01*
X349255952Y9972619D01*
X349017857Y9972619D01*
X348922619Y10020238D01*
X348875000Y10067857D01*
X347113095Y13672619D02*
X347113095Y14672619D01*
X347113095Y14196428D02*
X347684523Y14196428D01*
X347684523Y13672619D02*
X347684523Y14672619D01*
X348113095Y14577380D02*
X348160714Y14625000D01*
X348255952Y14672619D01*
X348494047Y14672619D01*
X348589285Y14625000D01*
X348636904Y14577380D01*
X348684523Y14482142D01*
X348684523Y14386904D01*
X348636904Y14244047D01*
X348065476Y13672619D01*
X348684523Y13672619D01*
X316716190Y28772619D02*
X316716190Y29772619D01*
X317049523Y29058333D01*
X317382857Y29772619D01*
X317382857Y28772619D01*
X317811428Y29677380D02*
X317859047Y29725000D01*
X317954285Y29772619D01*
X318192380Y29772619D01*
X318287619Y29725000D01*
X318335238Y29677380D01*
X318382857Y29582142D01*
X318382857Y29486904D01*
X318335238Y29344047D01*
X317763809Y28772619D01*
X318382857Y28772619D01*
X318811428Y28867857D02*
X318859047Y28820238D01*
X318811428Y28772619D01*
X318763809Y28820238D01*
X318811428Y28867857D01*
X318811428Y28772619D01*
X319763809Y29772619D02*
X319287619Y29772619D01*
X319240000Y29296428D01*
X319287619Y29344047D01*
X319382857Y29391666D01*
X319620952Y29391666D01*
X319716190Y29344047D01*
X319763809Y29296428D01*
X319811428Y29201190D01*
X319811428Y28963095D01*
X319763809Y28867857D01*
X319716190Y28820238D01*
X319620952Y28772619D01*
X319382857Y28772619D01*
X319287619Y28820238D01*
X319240000Y28867857D01*
X317478095Y32472619D02*
X317478095Y33472619D01*
X317478095Y32996428D02*
X318049523Y32996428D01*
X318049523Y32472619D02*
X318049523Y33472619D01*
X318954285Y33472619D02*
X318763809Y33472619D01*
X318668571Y33425000D01*
X318620952Y33377380D01*
X318525714Y33234523D01*
X318478095Y33044047D01*
X318478095Y32663095D01*
X318525714Y32567857D01*
X318573333Y32520238D01*
X318668571Y32472619D01*
X318859047Y32472619D01*
X318954285Y32520238D01*
X319001904Y32567857D01*
X319049523Y32663095D01*
X319049523Y32901190D01*
X319001904Y32996428D01*
X318954285Y33044047D01*
X318859047Y33091666D01*
X318668571Y33091666D01*
X318573333Y33044047D01*
X318525714Y32996428D01*
X318478095Y32901190D01*
X316716190Y9972619D02*
X316716190Y10972619D01*
X317049523Y10258333D01*
X317382857Y10972619D01*
X317382857Y9972619D01*
X317811428Y10877380D02*
X317859047Y10925000D01*
X317954285Y10972619D01*
X318192380Y10972619D01*
X318287619Y10925000D01*
X318335238Y10877380D01*
X318382857Y10782142D01*
X318382857Y10686904D01*
X318335238Y10544047D01*
X317763809Y9972619D01*
X318382857Y9972619D01*
X318811428Y10067857D02*
X318859047Y10020238D01*
X318811428Y9972619D01*
X318763809Y10020238D01*
X318811428Y10067857D01*
X318811428Y9972619D01*
X319763809Y10972619D02*
X319287619Y10972619D01*
X319240000Y10496428D01*
X319287619Y10544047D01*
X319382857Y10591666D01*
X319620952Y10591666D01*
X319716190Y10544047D01*
X319763809Y10496428D01*
X319811428Y10401190D01*
X319811428Y10163095D01*
X319763809Y10067857D01*
X319716190Y10020238D01*
X319620952Y9972619D01*
X319382857Y9972619D01*
X319287619Y10020238D01*
X319240000Y10067857D01*
X317478095Y13672619D02*
X317478095Y14672619D01*
X317478095Y14196428D02*
X318049523Y14196428D01*
X318049523Y13672619D02*
X318049523Y14672619D01*
X318430476Y14672619D02*
X319097142Y14672619D01*
X318668571Y13672619D01*
X346351190Y28772619D02*
X346351190Y29772619D01*
X346684523Y29058333D01*
X347017857Y29772619D01*
X347017857Y28772619D01*
X347446428Y29677380D02*
X347494047Y29725000D01*
X347589285Y29772619D01*
X347827380Y29772619D01*
X347922619Y29725000D01*
X347970238Y29677380D01*
X348017857Y29582142D01*
X348017857Y29486904D01*
X347970238Y29344047D01*
X347398809Y28772619D01*
X348017857Y28772619D01*
X348446428Y28867857D02*
X348494047Y28820238D01*
X348446428Y28772619D01*
X348398809Y28820238D01*
X348446428Y28867857D01*
X348446428Y28772619D01*
X349398809Y29772619D02*
X348922619Y29772619D01*
X348875000Y29296428D01*
X348922619Y29344047D01*
X349017857Y29391666D01*
X349255952Y29391666D01*
X349351190Y29344047D01*
X349398809Y29296428D01*
X349446428Y29201190D01*
X349446428Y28963095D01*
X349398809Y28867857D01*
X349351190Y28820238D01*
X349255952Y28772619D01*
X349017857Y28772619D01*
X348922619Y28820238D01*
X348875000Y28867857D01*
X347113095Y32472619D02*
X347113095Y33472619D01*
X347113095Y32996428D02*
X347684523Y32996428D01*
X347684523Y32472619D02*
X347684523Y33472619D01*
X348065476Y33472619D02*
X348684523Y33472619D01*
X348351190Y33091666D01*
X348494047Y33091666D01*
X348589285Y33044047D01*
X348636904Y32996428D01*
X348684523Y32901190D01*
X348684523Y32663095D01*
X348636904Y32567857D01*
X348589285Y32520238D01*
X348494047Y32472619D01*
X348208333Y32472619D01*
X348113095Y32520238D01*
X348065476Y32567857D01*
D11*
X344757500Y34275000D02*
X344757500Y13975000D01*
X344757500Y13975000D02*
X321857500Y13975000D01*
X321857500Y13975000D02*
X321857500Y34275000D01*
X321857500Y34275000D02*
X344757500Y34275000D01*
M02*
