%TF.GenerationSoftware,KiCad,Pcbnew,(6.0.5-0)*%
%TF.CreationDate,2023-01-21T22:01:52+08:00*%
%TF.ProjectId,main,6d61696e-2e6b-4696-9361-645f70636258,Prototype-V1*%
%TF.SameCoordinates,Original*%
%TF.FileFunction,Legend,Top*%
%TF.FilePolarity,Positive*%
%FSLAX46Y46*%
G04 Gerber Fmt 4.6, Leading zero omitted, Abs format (unit mm)*
G04 Created by KiCad (PCBNEW (6.0.5-0)) date 2023-01-21 22:01:52*
%MOMM*%
%LPD*%
G01*
G04 APERTURE LIST*
G04 Aperture macros list*
%AMRoundRect*
0 Rectangle with rounded corners*
0 $1 Rounding radius*
0 $2 $3 $4 $5 $6 $7 $8 $9 X,Y pos of 4 corners*
0 Add a 4 corners polygon primitive as box body*
4,1,4,$2,$3,$4,$5,$6,$7,$8,$9,$2,$3,0*
0 Add four circle primitives for the rounded corners*
1,1,$1+$1,$2,$3*
1,1,$1+$1,$4,$5*
1,1,$1+$1,$6,$7*
1,1,$1+$1,$8,$9*
0 Add four rect primitives between the rounded corners*
20,1,$1+$1,$2,$3,$4,$5,0*
20,1,$1+$1,$4,$5,$6,$7,0*
20,1,$1+$1,$6,$7,$8,$9,0*
20,1,$1+$1,$8,$9,$2,$3,0*%
%AMFreePoly0*
4,1,13,0.118408,0.330091,0.133346,0.294029,0.133346,-0.574233,0.118408,-0.610295,0.082346,-0.625233,-0.081840,-0.625233,-0.117902,-0.610295,-0.132840,-0.574233,-0.132840,0.294029,-0.117902,0.330091,-0.081840,0.345029,0.082346,0.345029,0.118408,0.330091,0.118408,0.330091,$1*%
%AMFreePoly1*
4,1,109,0.837481,0.150091,0.852419,0.114029,0.852419,-0.014657,0.837481,-0.050719,0.801419,-0.065657,0.123197,-0.065657,0.123197,-0.179613,0.764440,-0.179613,0.800502,-0.194551,0.815440,-0.230613,0.815440,-0.359299,0.800502,-0.395361,0.764440,-0.410299,0.123326,-0.410299,0.123792,-0.573859,0.801471,-0.574552,0.837518,-0.589526,0.852419,-0.625552,0.852419,-0.754233,0.837481,-0.790295,
0.801419,-0.805233,0.355697,-0.805233,0.319569,-0.805230,0.319559,-0.805230,0.284197,-0.805220,0.284187,-0.805220,0.249706,-0.805204,0.249698,-0.805204,0.216210,-0.805183,0.216199,-0.805183,0.183821,-0.805156,0.183812,-0.805156,0.152656,-0.805124,0.152645,-0.805124,0.122828,-0.805087,0.122815,-0.805087,0.094449,-0.805045,0.094436,-0.805045,0.067637,-0.804998,0.067622,-0.804998,
0.042504,-0.804947,0.042490,-0.804947,0.019168,-0.804893,0.019145,-0.804893,-0.002268,-0.804834,-0.002290,-0.804834,-0.021679,-0.804772,-0.021708,-0.804772,-0.038958,-0.804707,-0.039001,-0.804706,-0.053999,-0.804637,-0.054051,-0.804637,-0.066680,-0.804566,-0.066765,-0.804566,-0.076913,-0.804492,-0.077054,-0.804490,-0.084606,-0.804414,-0.084904,-0.804411,-0.089745,-0.804334,-0.090956,-0.804300,
-0.092972,-0.804220,-0.103099,-0.802792,-0.103152,-0.802779,-0.134618,-0.779680,-0.141933,-0.755922,-0.142014,-0.754380,-0.142076,-0.752636,-0.142156,-0.748252,-0.142161,-0.747873,-0.142238,-0.740763,-0.142239,-0.740605,-0.142314,-0.730885,-0.142315,-0.730792,-0.142387,-0.718578,-0.142387,-0.718522,-0.142457,-0.703930,-0.142458,-0.703885,-0.142524,-0.687031,-0.142524,-0.687003,-0.142588,-0.668003,
-0.142588,-0.667974,-0.142647,-0.646945,-0.142647,-0.646926,-0.142703,-0.623983,-0.142703,-0.623966,-0.142755,-0.599225,-0.142755,-0.599209,-0.142802,-0.572787,-0.142802,-0.572773,-0.142844,-0.544786,-0.142844,-0.544775,-0.142882,-0.515338,-0.142882,-0.515325,-0.142914,-0.484555,-0.142914,-0.484545,-0.142941,-0.452558,-0.142941,-0.452549,-0.142963,-0.419460,-0.142963,-0.419448,-0.142978,-0.385375,
-0.142978,-0.385366,-0.142987,-0.350424,-0.142987,-0.350414,-0.142989,-0.319119,-0.142989,0.114029,-0.128051,0.150091,-0.091989,0.165029,0.801419,0.165029,0.837481,0.150091,0.837481,0.150091,$1*%
%AMFreePoly2*
4,1,69,0.120483,0.220091,0.135421,0.184029,0.135421,-0.684233,0.120483,-0.720295,0.084421,-0.735233,0.003254,-0.735233,-0.011964,-0.735215,-0.012082,-0.735215,-0.026406,-0.735165,-0.026538,-0.735164,-0.039695,-0.735084,-0.039846,-0.735083,-0.051564,-0.734977,-0.051760,-0.734975,-0.061769,-0.734846,-0.062059,-0.734841,-0.070085,-0.734692,-0.070595,-0.734680,-0.076367,-0.734515,-0.077717,-0.734459,
-0.080964,-0.734280,-0.087038,-0.733578,-0.087660,-0.733468,-0.120571,-0.712478,-0.129709,-0.685922,-0.129790,-0.684380,-0.129852,-0.682624,-0.129931,-0.678240,-0.129936,-0.677873,-0.130013,-0.670763,-0.130014,-0.670605,-0.130089,-0.660885,-0.130090,-0.660796,-0.130163,-0.648582,-0.130163,-0.648518,-0.130232,-0.633926,-0.130233,-0.633888,-0.130300,-0.617034,-0.130300,-0.617000,-0.130363,-0.598000,
-0.130363,-0.597977,-0.130423,-0.576948,-0.130423,-0.576924,-0.130478,-0.553981,-0.130478,-0.553966,-0.130530,-0.529225,-0.130530,-0.529209,-0.130577,-0.502787,-0.130577,-0.502774,-0.130620,-0.474787,-0.130620,-0.474773,-0.130657,-0.445336,-0.130657,-0.445327,-0.130690,-0.414557,-0.130690,-0.414545,-0.130717,-0.382558,-0.130717,-0.382547,-0.130738,-0.349458,-0.130738,-0.349448,-0.130753,-0.315375,
-0.130753,-0.315366,-0.130762,-0.280424,-0.130762,-0.280416,-0.130765,-0.249121,-0.130765,0.184029,-0.115827,0.220091,-0.079765,0.235029,0.084421,0.235029,0.120483,0.220091,0.120483,0.220091,$1*%
%AMFreePoly3*
4,1,288,0.324994,0.175007,0.325000,0.175007,0.368614,0.174999,0.368628,0.174999,0.410301,0.174980,0.410314,0.174980,0.449984,0.174952,0.450001,0.174952,0.487607,0.174913,0.487624,0.174913,0.523103,0.174864,0.523123,0.174864,0.556414,0.174805,0.556436,0.174805,0.587476,0.174737,0.587501,0.174737,0.616229,0.174660,0.616260,0.174660,0.642613,0.174573,0.642648,0.174573,
0.666566,0.174478,0.666611,0.174477,0.688031,0.174373,0.688086,0.174373,0.706946,0.174261,0.707023,0.174261,0.723261,0.174140,0.723366,0.174139,0.736921,0.174010,0.737078,0.174008,0.747888,0.173872,0.748170,0.173868,0.756171,0.173723,0.756747,0.173709,0.761880,0.173558,0.763020,0.173512,0.764351,0.173443,0.766230,0.173310,0.799024,0.170393,0.801599,0.170098,
0.831826,0.165852,0.834831,0.165338,0.862587,0.159731,0.866049,0.158905,0.891427,0.151905,0.895350,0.150651,0.918442,0.142224,0.922763,0.140417,0.943665,0.130531,0.948261,0.128063,0.967065,0.116686,0.971726,0.113500,0.988526,0.100599,0.992237,0.097457,1.002132,0.088234,1.005160,0.085162,1.016469,0.072675,1.019718,0.068704,1.029580,0.055327,1.032517,0.050874,
1.041077,0.036286,1.043440,0.031751,1.050841,0.015628,1.052550,0.011420,1.058935,-0.006558,1.060070,-0.010174,1.065582,-0.030332,1.066289,-0.033253,1.071071,-0.055913,1.071362,-0.057399,1.072489,-0.063653,1.072685,-0.064820,1.073026,-0.067001,1.073262,-0.068695,1.073573,-0.071241,1.073735,-0.072761,1.074016,-0.075821,1.074112,-0.077015,1.074366,-0.080739,1.074419,-0.081638,
1.074648,-0.086174,1.074677,-0.086836,1.074883,-0.092335,1.074899,-0.092817,1.075084,-0.099428,1.075093,-0.099780,1.075259,-0.107652,1.075264,-0.107914,1.075412,-0.117197,1.075414,-0.117380,1.075548,-0.128224,1.075550,-0.128366,1.075670,-0.140919,1.075671,-0.141018,1.075781,-0.155431,1.075781,-0.155509,1.075881,-0.171931,1.075881,-0.171984,1.075975,-0.190564,1.075976,-0.190607,
1.076064,-0.211495,1.076064,-0.211524,1.076149,-0.234869,1.076149,-0.234890,1.076233,-0.260842,1.076233,-0.260857,1.076349,-0.300337,1.076349,-0.300358,1.076433,-0.333610,1.076433,-0.333640,1.076492,-0.364017,1.076492,-0.364057,1.076524,-0.391642,1.076524,-0.391691,1.076529,-0.416566,1.076529,-0.416624,1.076508,-0.438874,1.076508,-0.438955,1.076458,-0.458662,1.076457,-0.458761,
1.076380,-0.476008,1.076380,-0.476144,1.076274,-0.491014,1.076272,-0.491193,1.076138,-0.503769,1.076135,-0.504033,1.075971,-0.514398,1.075963,-0.514786,1.075770,-0.523024,1.075751,-0.523664,1.075528,-0.529857,1.075470,-0.531066,1.075217,-0.535297,1.075117,-0.536662,1.075077,-0.537123,1.074865,-0.539113,1.071411,-0.566422,1.070730,-0.570482,1.065493,-0.595475,1.064268,-0.600187,
1.057169,-0.622971,1.055205,-0.628235,1.046163,-0.648911,1.043315,-0.654469,1.032253,-0.673143,1.028496,-0.678634,1.015332,-0.695410,1.010839,-0.700416,0.995495,-0.715398,0.990596,-0.719610,0.972992,-0.732901,0.968078,-0.736182,0.948134,-0.747888,0.943523,-0.750288,0.921159,-0.760512,0.917419,-0.762045,0.897531,-0.769294,0.894537,-0.770282,0.874646,-0.776168,0.871754,-0.776932,
0.850701,-0.781840,0.847993,-0.782395,0.825409,-0.786384,0.823005,-0.786749,0.798521,-0.789879,0.796477,-0.790099,0.769723,-0.792428,0.768325,-0.792530,0.749944,-0.793622,0.748622,-0.793684,0.744014,-0.793838,0.743312,-0.793856,0.735823,-0.794003,0.735516,-0.794008,0.725224,-0.794148,0.725047,-0.794150,0.712028,-0.794282,0.711918,-0.794283,0.696251,-0.794408,0.696171,-0.794409,
0.677932,-0.794526,0.677871,-0.794526,0.657138,-0.794634,0.657092,-0.794635,0.633943,-0.794735,0.633907,-0.794735,0.608418,-0.794827,0.608385,-0.794827,0.580634,-0.794909,0.580607,-0.794909,0.550672,-0.794982,0.550650,-0.794982,0.518607,-0.795046,0.518584,-0.795046,0.484512,-0.795099,0.484495,-0.795099,0.448471,-0.795143,0.448453,-0.795143,0.410553,-0.795176,0.410539,-0.795176,
0.370842,-0.795199,0.370827,-0.795199,0.329409,-0.795211,0.329397,-0.795211,0.313901,-0.795212,-0.089538,-0.795233,-0.125601,-0.780298,-0.140541,-0.744233,-0.140541,-0.055661,0.125645,-0.055661,0.125645,-0.564545,0.396718,-0.564534,0.435193,-0.564525,0.471733,-0.564502,0.506266,-0.564466,0.538719,-0.564417,0.569020,-0.564355,0.597095,-0.564280,0.622876,-0.564192,0.646334,-0.564093,
0.646334,-0.564094,0.667238,-0.563983,0.685756,-0.563861,0.701480,-0.563729,0.714581,-0.563587,0.724973,-0.563436,0.732236,-0.563282,0.735826,-0.563154,0.753878,-0.561431,0.768539,-0.559160,0.779788,-0.556505,0.787929,-0.553690,0.793467,-0.550962,0.797740,-0.548028,0.799166,-0.546745,0.801967,-0.543481,0.803718,-0.540571,0.805770,-0.535458,0.807999,-0.527148,0.809814,-0.518981,
0.809814,-0.104166,0.808087,-0.096374,0.804893,-0.085274,0.801986,-0.078896,0.798631,-0.074028,0.797510,-0.072831,0.793799,-0.069521,0.791623,-0.067955,0.789364,-0.066744,0.783899,-0.064548,0.780814,-0.063487,0.777736,-0.062442,0.777436,-0.062339,0.774732,-0.061402,0.772747,-0.060726,0.771363,-0.060284,0.770466,-0.060027,0.769637,-0.059825,0.768514,-0.059600,0.766856,-0.059335,
0.764311,-0.059016,0.760889,-0.058685,0.756351,-0.058349,0.750788,-0.058033,0.743956,-0.057739,0.735914,-0.057477,0.726348,-0.057241,0.715587,-0.057041,0.703077,-0.056866,0.688975,-0.056717,0.673259,-0.056594,0.655539,-0.056491,0.655539,-0.056492,0.635788,-0.056407,0.614019,-0.056337,0.590044,-0.056279,0.563748,-0.056230,0.535013,-0.056186,0.469768,-0.056104,0.433029,-0.056060,
0.433024,-0.056060,0.413674,-0.056035,0.125645,-0.055661,-0.140541,-0.055661,-0.140541,0.124029,-0.125603,0.160091,-0.089538,0.175029,0.324994,0.175007,0.324994,0.175007,$1*%
%AMFreePoly4*
4,1,265,0.930093,0.490441,0.945083,0.454326,0.945083,0.325546,0.930145,0.289484,0.894083,0.274546,0.502303,0.274545,0.465987,0.274540,0.432405,0.274531,0.401442,0.274515,0.372985,0.274491,0.346921,0.274457,0.323138,0.274412,0.301520,0.274354,0.281893,0.274282,0.281893,0.274283,0.264346,0.274195,0.248458,0.274089,0.234518,0.273967,0.221911,0.273821,0.211080,0.273659,
0.201620,0.273473,0.193234,0.273262,0.186369,0.273036,0.180518,0.272788,0.175695,0.272524,0.171800,0.272250,0.168887,0.271987,0.166617,0.271728,0.165022,0.271502,0.163686,0.271271,0.162395,0.271011,0.162114,0.270948,0.153967,0.268336,0.148250,0.265507,0.143984,0.262501,0.141469,0.259985,0.140803,0.259006,0.140614,0.257019,0.140324,0.252724,0.140048,0.247003,
0.139803,0.239845,0.139597,0.231234,0.139423,0.220844,0.139283,0.208646,0.139175,0.194753,0.139096,0.178985,0.139097,0.178985,0.139041,0.160921,0.139004,0.140723,0.138983,0.118170,0.138973,0.093122,0.138968,0.035007,0.138967,0.019299,0.138967,0.019294,0.138954,-0.067489,0.138960,-0.091093,0.138981,-0.112305,0.139019,-0.131222,0.139081,-0.148105,0.139168,-0.162714,
0.139290,-0.175699,0.139446,-0.186762,0.139639,-0.196136,0.139871,-0.203902,0.140143,-0.210289,0.140435,-0.215122,0.140729,-0.218574,0.140811,-0.219261,0.142941,-0.222343,0.144686,-0.223949,0.149108,-0.226654,0.157842,-0.230241,0.162420,-0.231634,0.169581,-0.233611,0.894138,-0.234396,0.930184,-0.249373,0.945083,-0.285396,0.945083,-0.414030,0.930145,-0.450092,0.894047,-0.465030,
0.526848,-0.464772,0.526845,-0.464772,0.494007,-0.464747,0.494000,-0.464747,0.461896,-0.464718,0.461891,-0.464718,0.430652,-0.464687,0.430646,-0.464687,0.400399,-0.464653,0.400391,-0.464653,0.371265,-0.464616,0.371259,-0.464616,0.343383,-0.464577,0.343375,-0.464577,0.316877,-0.464536,0.316868,-0.464536,0.291878,-0.464493,0.291870,-0.464493,0.268517,-0.464449,0.268507,-0.464449,
0.246918,-0.464404,0.246905,-0.464404,0.227209,-0.464358,0.227192,-0.464358,0.209520,-0.464311,0.209498,-0.464311,0.193976,-0.464263,0.193953,-0.464263,0.180711,-0.464216,0.180666,-0.464215,0.169833,-0.464167,0.169770,-0.464167,0.161474,-0.464120,0.161337,-0.464119,0.155707,-0.464072,0.155324,-0.464068,0.152489,-0.464023,0.151034,-0.463979,0.150764,-0.463967,0.147670,-0.463735,
0.116490,-0.460441,0.113029,-0.459955,0.084141,-0.454883,0.080235,-0.454038,0.053544,-0.447161,0.049236,-0.445845,0.024649,-0.437133,0.020054,-0.435249,-0.002525,-0.424676,-0.007077,-0.422257,-0.026371,-0.410716,-0.030712,-0.407807,-0.039874,-0.400963,-0.042900,-0.398518,-0.052601,-0.390046,-0.054855,-0.387954,-0.064339,-0.378606,-0.066483,-0.376360,-0.074992,-0.366885,-0.077537,-0.363817,
-0.084313,-0.354969,-0.086156,-0.352403,-0.086760,-0.351504,-0.088688,-0.348400,-0.099910,-0.328797,-0.102709,-0.323114,-0.111699,-0.301589,-0.113644,-0.296059,-0.120407,-0.272595,-0.121240,-0.269292,-0.122643,-0.262831,-0.122905,-0.261550,-0.123244,-0.259770,-0.123510,-0.258248,-0.123820,-0.256301,-0.124061,-0.254602,-0.124342,-0.252352,-0.124509,-0.250828,-0.124763,-0.248139,-0.124864,-0.246915,
-0.125093,-0.243653,-0.125151,-0.242696,-0.125355,-0.238723,-0.125386,-0.238034,-0.125568,-0.233217,-0.125585,-0.232698,-0.125745,-0.226899,-0.125754,-0.226524,-0.125894,-0.219609,-0.125898,-0.219333,-0.126019,-0.211166,-0.126022,-0.210965,-0.126126,-0.201409,-0.126127,-0.201255,-0.126214,-0.190177,-0.126215,-0.190068,-0.126288,-0.177330,-0.126289,-0.177245,-0.126348,-0.162713,-0.126348,-0.162655,
-0.126396,-0.146193,-0.126396,-0.146143,-0.126432,-0.127615,-0.126432,-0.127582,-0.126459,-0.106852,-0.126459,-0.106828,-0.126478,-0.083761,-0.126478,-0.083745,-0.126491,-0.058205,-0.126491,-0.058192,-0.126498,-0.030044,-0.126498,-0.030036,-0.126501,0.000856,-0.126501,0.278953,-0.125293,0.289988,-0.121981,0.304933,-0.121539,0.306766,-0.116112,0.327579,-0.114764,0.331940,-0.108138,0.350401,
-0.105990,0.355498,-0.097930,0.372052,-0.094939,0.377362,-0.085207,0.392456,-0.081649,0.397318,-0.070009,0.411396,-0.067123,0.414601,-0.059345,0.422535,-0.056191,0.425490,-0.040565,0.438936,-0.036040,0.442409,-0.018626,0.454288,-0.013981,0.457106,0.005364,0.467476,0.009859,0.469610,0.031279,0.478527,0.035415,0.480043,0.059054,0.487565,0.062718,0.488582,0.088721,0.494766,
0.091877,0.495412,0.120388,0.500315,0.122243,0.500599,0.132927,0.502034,0.135474,0.502311,0.137894,0.502513,0.139715,0.502633,0.143713,0.502823,0.144519,0.502854,0.150169,0.503033,0.150617,0.503046,0.158000,0.503215,0.158290,0.503220,0.167481,0.503378,0.167672,0.503381,0.178748,0.503530,0.178887,0.503532,0.191928,0.503672,0.192035,0.503673,0.207116,0.503803,
0.207191,0.503804,0.224390,0.503927,0.224455,0.503927,0.243850,0.504041,0.243898,0.504041,0.265566,0.504148,0.265604,0.504149,0.289622,0.504250,0.289655,0.504250,0.316101,0.504344,0.316129,0.504344,0.345080,0.504431,0.345099,0.504431,0.376633,0.504514,0.376652,0.504514,0.410846,0.504591,0.410862,0.504591,0.447793,0.504663,0.447803,0.504663,0.487548,0.504732,
0.487558,0.504732,0.523847,0.504788,0.523852,0.504788,0.894009,0.505326,0.930093,0.490441,0.930093,0.490441,$1*%
%AMFreePoly5*
4,1,42,1.110632,0.160091,1.125570,0.124029,1.125570,-0.744233,1.110632,-0.780295,1.074570,-0.795233,0.994882,-0.795233,0.964821,-0.785432,0.387243,-0.364007,0.233689,-0.251964,0.212388,-0.236426,0.191746,-0.221376,0.171861,-0.206884,0.152898,-0.193073,0.134939,-0.180000,0.120000,-0.169131,0.119988,-0.173753,0.119938,-0.195911,0.119893,-0.219720,0.119854,-0.245044,0.119820,-0.271759,
0.119792,-0.299726,0.119770,-0.328816,0.119756,-0.358895,0.119748,-0.389838,0.119747,-0.406989,0.119747,-0.744233,0.104809,-0.780295,0.068747,-0.795233,-0.074731,-0.795233,-0.110793,-0.780295,-0.125731,-0.744233,-0.125731,0.124029,-0.110793,0.160091,-0.074702,0.175029,0.068036,0.174947,0.098505,0.164823,0.879471,-0.417869,0.880099,0.124088,0.895078,0.160133,0.931099,0.175029,
1.074570,0.175029,1.110632,0.160091,1.110632,0.160091,$1*%
%AMFreePoly6*
4,1,327,0.125987,0.440091,0.140925,0.404033,0.140951,0.069375,0.140951,0.069372,0.140953,-0.035539,0.140959,-0.065123,0.140972,-0.092204,0.140995,-0.116898,0.141030,-0.139309,0.141082,-0.159562,0.141152,-0.177849,0.141242,-0.194011,0.141357,-0.208425,0.141499,-0.221239,0.141668,-0.232248,0.141869,-0.241837,0.142099,-0.249932,0.142355,-0.256606,0.142640,-0.262084,0.142928,-0.266181,
0.143148,-0.268488,0.145318,-0.271670,0.147207,-0.273447,0.151192,-0.275915,0.158332,-0.278799,0.169261,-0.281537,0.180985,-0.283221,0.181404,-0.283245,0.186581,-0.283394,0.194950,-0.283552,0.205787,-0.283700,0.219034,-0.283839,0.234279,-0.283965,0.251545,-0.284082,0.270429,-0.284186,0.290788,-0.284279,0.290788,-0.284278,0.312562,-0.284358,0.335442,-0.284427,0.359280,-0.284484,
0.383896,-0.284529,0.409108,-0.284562,0.434733,-0.284583,0.460582,-0.284592,0.486466,-0.284589,0.512236,-0.284574,0.537683,-0.284548,0.562635,-0.284509,0.586902,-0.284459,0.610300,-0.284397,0.632655,-0.284322,0.653819,-0.284236,0.653819,-0.284237,0.673473,-0.284139,0.691569,-0.284029,0.707963,-0.283907,0.722311,-0.283774,0.734282,-0.283632,0.744156,-0.283476,0.751054,-0.283320,
0.753597,-0.283224,0.767424,-0.281184,0.777644,-0.278465,0.784283,-0.275634,0.787935,-0.273246,0.789757,-0.271436,0.791043,-0.269442,0.792033,-0.266854,0.792147,-0.264427,0.792294,-0.260165,0.792429,-0.254896,0.792560,-0.248095,0.792678,-0.239967,0.792783,-0.230503,0.792876,-0.219498,0.792957,-0.206844,0.793028,-0.192496,0.793027,-0.192496,0.793088,-0.176170,0.793139,-0.157938,
0.793182,-0.137624,0.793216,-0.115126,0.793243,-0.090326,0.793263,-0.063114,0.793278,-0.033375,0.793287,-0.001004,0.793292,0.034119,0.793293,0.067096,0.793293,0.404029,0.808231,0.440091,0.844293,0.455029,1.010053,0.455029,1.046115,0.440091,1.061053,0.403956,1.060502,0.020516,1.060454,-0.015070,1.060454,-0.015072,1.060408,-0.047942,1.060408,-0.047948,1.060362,-0.078219,
1.060362,-0.078232,1.060313,-0.106023,1.060313,-0.106045,1.060257,-0.131475,1.060257,-0.131506,1.060192,-0.154695,1.060192,-0.154743,1.060113,-0.175810,1.060112,-0.175868,1.060019,-0.194933,1.060019,-0.195016,1.059907,-0.212199,1.059906,-0.212310,1.059772,-0.227730,1.059771,-0.227876,1.059612,-0.241652,1.059609,-0.241837,1.059423,-0.254089,1.059419,-0.254335,1.059202,-0.265183,
1.059195,-0.265496,1.058945,-0.275059,1.058932,-0.275468,1.058645,-0.283866,1.058625,-0.284390,1.058298,-0.291742,1.058264,-0.292408,1.057894,-0.298834,1.057839,-0.299667,1.057423,-0.305286,1.057338,-0.306299,1.056874,-0.311230,1.056745,-0.312441,1.056229,-0.316805,1.056048,-0.318175,1.055477,-0.322091,1.055245,-0.323538,1.054616,-0.327126,1.054350,-0.328527,1.053660,-0.331905,
1.053402,-0.333097,1.052648,-0.336385,1.052449,-0.337218,1.051629,-0.340537,1.051514,-0.340996,1.050623,-0.344464,1.050614,-0.344500,1.049651,-0.348237,1.048942,-0.351033,1.048086,-0.354027,1.041568,-0.374427,1.039030,-0.380839,1.030136,-0.399509,1.026565,-0.405808,1.015352,-0.422676,1.010811,-0.428534,0.997334,-0.443529,0.992026,-0.448639,0.976342,-0.461691,0.970554,-0.465859,
0.952717,-0.476896,0.949527,-0.478715,0.948151,-0.479435,0.946662,-0.480183,0.932311,-0.487105,0.929292,-0.488442,0.915061,-0.494203,0.911602,-0.495460,0.896998,-0.500178,0.893468,-0.501180,0.877994,-0.504975,0.874762,-0.505658,0.857922,-0.508648,0.855242,-0.509050,0.836541,-0.511354,0.834498,-0.511564,0.813441,-0.513301,0.812529,-0.513368,0.809116,-0.513588,0.807816,-0.513655,
0.803778,-0.513812,0.802896,-0.513839,0.796076,-0.513986,0.795713,-0.513993,0.786285,-0.514129,0.786095,-0.514131,0.774237,-0.514258,0.774114,-0.514259,0.760000,-0.514376,0.759914,-0.514377,0.743720,-0.514484,0.743656,-0.514484,0.725559,-0.514581,0.725510,-0.514582,0.705684,-0.514669,0.705646,-0.514669,0.684267,-0.514747,0.684231,-0.514747,0.661476,-0.514814,0.661449,-0.514814,
0.637492,-0.514872,0.637467,-0.514872,0.612485,-0.514920,0.612464,-0.514920,0.586633,-0.514959,0.586610,-0.514959,0.560104,-0.514987,0.560086,-0.514987,0.533082,-0.515006,0.533063,-0.515006,0.505736,-0.515015,0.478227,-0.515015,0.450782,-0.515005,0.450764,-0.515005,0.423524,-0.514985,0.423506,-0.514985,0.396646,-0.514956,0.396625,-0.514956,0.370321,-0.514917,0.370301,-0.514917,
0.344728,-0.514869,0.344704,-0.514869,0.320040,-0.514811,0.320015,-0.514811,0.296433,-0.514744,0.296402,-0.514744,0.274079,-0.514667,0.274045,-0.514667,0.253156,-0.514581,0.253112,-0.514580,0.233834,-0.514484,0.233782,-0.514484,0.216290,-0.514379,0.216218,-0.514379,0.200687,-0.514264,0.200593,-0.514263,0.187200,-0.514139,0.187060,-0.514137,0.175980,-0.514004,0.175749,-0.514001,
0.167158,-0.513859,0.166694,-0.513849,0.160767,-0.513697,0.159822,-0.513664,0.157514,-0.513562,0.155309,-0.513417,0.126277,-0.510870,0.123128,-0.510495,0.096381,-0.506461,0.092748,-0.505777,0.067974,-0.500180,0.063981,-0.499106,0.040865,-0.491872,0.036714,-0.490373,0.014942,-0.481427,0.012217,-0.480213,0.005365,-0.476917,0.003084,-0.475748,-0.013806,-0.466551,-0.017642,-0.464239,
-0.032210,-0.454559,-0.036398,-0.451456,-0.049283,-0.440849,-0.052249,-0.438208,-0.058213,-0.432464,-0.061358,-0.429150,-0.075440,-0.412917,-0.079507,-0.407550,-0.091312,-0.389627,-0.094598,-0.383852,-0.104168,-0.364145,-0.106549,-0.358366,-0.113929,-0.336780,-0.115458,-0.331339,-0.120690,-0.307782,-0.121296,-0.304572,-0.122398,-0.297496,-0.122635,-0.295781,-0.122882,-0.293742,-0.123055,-0.292086,
-0.123283,-0.289499,-0.123374,-0.288312,-0.123584,-0.285063,-0.123631,-0.284216,-0.123824,-0.280191,-0.123850,-0.279583,-0.124027,-0.274668,-0.124041,-0.274212,-0.124201,-0.268295,-0.124209,-0.267974,-0.124355,-0.260940,-0.124359,-0.260697,-0.124491,-0.252433,-0.124494,-0.252239,-0.124611,-0.242632,-0.124613,-0.242495,-0.124718,-0.231429,-0.124719,-0.231320,-0.124812,-0.218684,-0.124812,-0.218597,
-0.124893,-0.204275,-0.124894,-0.204212,-0.124965,-0.188092,-0.124965,-0.188037,-0.125025,-0.170005,-0.125025,-0.169965,-0.125076,-0.149908,-0.125076,-0.149877,-0.125119,-0.127679,-0.125119,-0.127651,-0.125153,-0.103201,-0.125153,-0.103183,-0.125181,-0.076366,-0.125181,-0.076350,-0.125202,-0.047053,-0.125202,-0.047040,-0.125217,-0.015148,-0.125217,-0.015139,-0.125227,0.019460,-0.125227,0.019468,
-0.125233,0.064927,-0.125233,0.064930,-0.125260,0.404025,-0.110325,0.440089,-0.074260,0.455029,0.089925,0.455029,0.125987,0.440091,0.125987,0.440091,$1*%
%AMFreePoly7*
4,1,25,0.849556,0.130091,0.864494,0.094029,0.864494,-0.034657,0.849556,-0.070719,0.813494,-0.085657,0.136751,-0.085657,0.136751,-0.236592,0.764682,-0.236592,0.800744,-0.251530,0.815682,-0.287592,0.815682,-0.416278,0.800744,-0.452340,0.764682,-0.467278,0.136656,-0.467278,0.136012,-0.773600,0.120999,-0.809631,0.085251,-0.824492,-0.078196,-0.825257,-0.114328,-0.810489,-0.129435,-0.774258,
-0.129435,0.094029,-0.114497,0.130091,-0.078435,0.145029,0.813494,0.145029,0.849556,0.130091,0.849556,0.130091,$1*%
%AMFreePoly8*
4,1,339,0.036836,0.445003,0.036872,0.445003,0.066947,0.444969,0.066995,0.444969,0.094338,0.444912,0.094392,0.444912,0.118977,0.444835,0.119049,0.444834,0.140849,0.444735,0.140939,0.444735,0.159929,0.444615,0.160052,0.444614,0.176204,0.444473,0.176381,0.444471,0.189670,0.444309,0.189945,0.444305,0.200344,0.444122,0.200830,0.444111,0.208312,0.443908,0.209114,0.443880,
0.212145,0.443750,0.213873,0.443647,0.245153,0.441240,0.247922,0.440950,0.276681,0.437149,0.279929,0.436613,0.306272,0.431384,0.310021,0.430491,0.334053,0.423800,0.338290,0.422419,0.360118,0.414229,0.364745,0.412226,0.384474,0.402504,0.389316,0.399781,0.407052,0.388492,0.411848,0.385033,0.427696,0.372143,0.430169,0.369995,0.431293,0.368954,0.434034,0.366215,
0.447537,0.351654,0.452174,0.345860,0.463444,0.329460,0.467110,0.323218,0.476173,0.304926,0.478758,0.298709,0.485643,0.278470,0.487243,0.272660,0.491976,0.250418,0.492480,0.247687,0.492618,0.246805,0.492923,0.244520,0.493635,0.238074,0.493834,0.235807,0.494415,0.226932,0.494480,0.225711,0.494928,0.214895,0.494955,0.214106,0.495273,0.201841,0.495285,0.201236,
0.495471,0.188009,0.495476,0.187497,0.495531,0.173798,0.495530,0.173313,0.495455,0.159632,0.495450,0.159122,0.495246,0.145948,0.495233,0.145335,0.494898,0.133158,0.494869,0.132350,0.494405,0.121657,0.494336,0.120412,0.493744,0.111695,0.493524,0.109295,0.492799,0.103023,0.491877,0.097617,0.487316,0.077473,0.485468,0.071206,0.478628,0.052518,0.475866,0.046293,
0.466890,0.029239,0.463151,0.023199,0.452179,0.007956,0.447438,0.002285,0.444618,-0.000630,0.455873,-0.010891,0.459221,-0.014241,0.468503,-0.024434,0.472108,-0.028868,0.479258,-0.038746,0.482996,-0.044746,0.488564,-0.055240,0.491240,-0.061167,0.495775,-0.073207,0.496839,-0.076336,0.498272,-0.081045,0.498693,-0.082506,0.500098,-0.087671,0.500591,-0.089640,0.501797,-0.094890,
0.502265,-0.097159,0.503284,-0.102747,0.503641,-0.104986,0.504486,-0.111165,0.504717,-0.113145,0.505399,-0.120167,0.505529,-0.121763,0.506061,-0.129883,0.506126,-0.131091,0.506521,-0.140560,0.506550,-0.141447,0.506819,-0.152518,0.506830,-0.153142,0.506986,-0.166069,0.506990,-0.166497,0.507045,-0.181531,0.507045,-0.181818,0.507011,-0.199214,0.507010,-0.199394,0.506900,-0.219404,
0.506900,-0.219486,0.506844,-0.227377,0.506843,-0.227406,0.506697,-0.246437,0.506697,-0.246511,0.506548,-0.262867,0.506546,-0.263059,0.506366,-0.277025,0.506360,-0.277383,0.506124,-0.289240,0.506108,-0.289846,0.505789,-0.299878,0.505751,-0.300818,0.505324,-0.309310,0.505235,-0.310692,0.504674,-0.317926,0.504492,-0.319818,0.503771,-0.326078,0.503442,-0.328449,0.502534,-0.334019,
0.502038,-0.336627,0.500918,-0.341789,0.500320,-0.344248,0.498962,-0.349286,0.498405,-0.351205,0.496783,-0.356403,0.496396,-0.357590,0.494483,-0.363231,0.494327,-0.363685,0.492527,-0.368833,0.491220,-0.372187,0.483106,-0.391012,0.479762,-0.397461,0.469166,-0.414762,0.464934,-0.420679,0.451838,-0.436473,0.447027,-0.441528,0.431412,-0.455831,0.426400,-0.459871,0.408246,-0.472702,
0.403361,-0.475756,0.382652,-0.487130,0.378117,-0.489336,0.354832,-0.499272,0.352706,-0.500123,0.352100,-0.500350,0.349891,-0.501121,0.329137,-0.507827,0.325242,-0.508917,0.302246,-0.514379,0.298874,-0.515060,0.273485,-0.519307,0.270628,-0.519702,0.242694,-0.522764,0.241219,-0.522904,0.235565,-0.523358,0.233867,-0.523466,0.229828,-0.523655,0.228752,-0.523694,0.221815,-0.523872,
0.221373,-0.523882,0.211598,-0.524048,0.211358,-0.524051,0.198805,-0.524205,0.198650,-0.524207,0.183379,-0.524348,0.183275,-0.524349,0.165346,-0.524478,0.165270,-0.524478,0.144744,-0.524595,0.144681,-0.524595,0.121618,-0.524698,0.121568,-0.524699,0.096027,-0.524788,0.095989,-0.524788,0.068031,-0.524865,0.067995,-0.524865,0.037679,-0.524927,0.037649,-0.524927,0.005037,-0.524974,
0.005013,-0.524974,-0.029836,-0.525008,-0.029861,-0.525008,-0.066886,-0.525026,-0.066904,-0.525026,-0.095048,-0.525030,-0.401699,-0.525030,-0.437761,-0.510092,-0.452698,-0.473723,-0.451927,-0.345776,-0.436772,-0.309804,-0.401051,-0.295083,0.205955,-0.293620,0.212837,-0.291722,0.224515,-0.287922,0.231180,-0.284860,0.234335,-0.282769,0.235344,-0.281779,0.236930,-0.279397,0.237537,-0.278165,
0.238221,-0.276628,0.238369,-0.276227,0.238455,-0.275915,0.238702,-0.274631,0.239077,-0.271656,0.239482,-0.266545,0.239837,-0.259248,0.240125,-0.249532,0.240350,-0.237502,0.240544,-0.222549,0.240659,-0.211953,0.240807,-0.193254,0.240838,-0.176912,0.240754,-0.163418,0.240563,-0.152791,0.240297,-0.145633,0.240162,-0.143836,0.239137,-0.139043,0.238635,-0.137857,0.238584,-0.137786,
0.237512,-0.136840,0.233432,-0.134434,0.224225,-0.130672,0.223626,-0.130470,0.220874,-0.129547,0.220701,-0.129489,0.218378,-0.128701,0.216884,-0.128212,0.216041,-0.127960,0.215503,-0.127822,0.214874,-0.127689,0.213656,-0.127486,0.211701,-0.127234,0.208716,-0.126944,0.204653,-0.126647,0.199460,-0.126364,0.192981,-0.126100,0.185126,-0.125863,0.176023,-0.125659,0.165192,-0.125479,
0.152994,-0.125330,0.138857,-0.125202,0.122859,-0.125094,0.105029,-0.125004,0.105029,-0.125005,0.084972,-0.124930,0.062752,-0.124865,0.038186,-0.124808,0.011142,-0.124755,-0.018505,-0.124702,-0.078947,-0.124598,-0.078950,-0.124598,-0.364811,-0.124087,-0.400847,-0.109085,-0.415719,-0.072780,-0.414949,0.055074,-0.399795,0.091046,-0.364086,0.105767,0.212056,0.107299,0.216700,0.108544,
0.225207,0.111259,0.227730,0.112444,0.227949,0.112903,0.228099,0.113272,0.228139,0.113460,0.228400,0.115472,0.228705,0.119716,0.228930,0.126325,0.229034,0.135545,0.229015,0.147395,0.228896,0.161973,0.228895,0.161973,0.228875,0.164011,0.228701,0.178980,0.228492,0.190742,0.228208,0.199957,0.227851,0.206405,0.227727,0.207671,0.226399,0.208362,0.221416,0.210079,
0.212738,0.212132,0.212095,0.212207,0.210696,0.212331,0.208444,0.212480,0.205164,0.212642,0.200901,0.212800,0.195400,0.212955,0.189019,0.213091,0.181122,0.213221,0.171914,0.213337,0.161054,0.213444,0.161054,0.213445,0.148803,0.213539,0.134663,0.213626,0.118813,0.213704,0.118813,0.213703,0.100900,0.213773,0.080948,0.213838,0.058796,0.213898,0.034319,0.213954,
0.007393,0.214008,-0.022101,0.214060,-0.054288,0.214112,-0.095946,0.214175,-0.401774,0.214627,-0.437815,0.229618,-0.452698,0.265935,-0.451927,0.393801,-0.436772,0.429772,-0.401004,0.444493,-0.110351,0.444927,-0.110339,0.444927,-0.069601,0.444978,-0.069577,0.444978,-0.031465,0.445008,-0.031438,0.445008,0.004021,0.445017,0.004056,0.445017,0.036836,0.445003,0.036836,0.445003,
$1*%
G04 Aperture macros list end*
%ADD10C,1.000000*%
%ADD11C,0.600000*%
%ADD12C,2.602000*%
%ADD13C,1.626000*%
%ADD14C,1.852000*%
%ADD15C,4.089800*%
%ADD16C,5.048000*%
%ADD17C,3.102000*%
%ADD18C,0.552000*%
%ADD19C,4.802000*%
%ADD20FreePoly0,0.000000*%
%ADD21FreePoly1,0.000000*%
%ADD22FreePoly2,0.000000*%
%ADD23FreePoly3,0.000000*%
%ADD24FreePoly4,0.000000*%
%ADD25FreePoly5,0.000000*%
%ADD26FreePoly6,0.000000*%
%ADD27FreePoly7,0.000000*%
%ADD28FreePoly8,0.000000*%
%ADD29C,3.602000*%
%ADD30C,1.092600*%
%ADD31RoundRect,0.051000X-0.850000X0.850000X-0.850000X-0.850000X0.850000X-0.850000X0.850000X0.850000X0*%
%ADD32O,1.802000X1.802000*%
%ADD33C,0.752000*%
%ADD34O,1.202000X2.302000*%
%ADD35O,1.402000X2.002000*%
G04 APERTURE END LIST*
%LPC*%
D10*
X349875000Y-52198345D02*
X349875000Y-68198345D01*
D11*
X244301952Y-88635364D02*
G75*
G03*
X240188687Y-90593019I-152J-5299736D01*
G01*
X272940452Y-68198372D02*
G75*
G03*
X268827187Y-70156032I-152J-5299728D01*
G01*
D10*
X-18525000Y7800000D02*
G75*
G03*
X-21025000Y5300000I0J-2500000D01*
G01*
D11*
X21748813Y-90593019D02*
G75*
G03*
X25939687Y-90593019I2095437J1702687D01*
G01*
X78774485Y-88635332D02*
G75*
G03*
X73625515Y-88635332I-2574485J-2794999D01*
G01*
X-3825000Y26125000D02*
G75*
G03*
X-5525000Y27825000I-1699998J2D01*
G01*
X249064452Y-68198372D02*
G75*
G03*
X244951187Y-70156032I-152J-5299728D01*
G01*
D10*
X-21025000Y-68198345D02*
X-21025000Y-52198345D01*
D11*
X234047169Y-72635316D02*
G75*
G03*
X236906399Y-71797932I-69J5300316D01*
G01*
X270354955Y-10958200D02*
G75*
G03*
X267995045Y-10958200I-1179955J-1856800D01*
G01*
D10*
X186453920Y-108985332D02*
X80246081Y-108985332D01*
D11*
X-21025000Y-11785000D02*
X241190919Y-11785000D01*
X269394545Y-72635332D02*
X349875000Y-72635332D01*
D10*
X349875000Y14125000D02*
X349875000Y32925000D01*
D11*
X-21225000Y26125000D02*
X-21225000Y13625000D01*
D10*
X-18525000Y7800000D02*
X347375000Y7800000D01*
X75121054Y-109854318D02*
G75*
G03*
X72153919Y-108985332I-2967154J-4631182D01*
G01*
X80246081Y-108985339D02*
G75*
G03*
X77278955Y-109854332I-81J-5499761D01*
G01*
X349875000Y-11785000D02*
X349875000Y-27785000D01*
D11*
X247694375Y-32413345D02*
X266655625Y-32413345D01*
X235997800Y-90593029D02*
G75*
G03*
X231884548Y-88635332I-4113400J-3342571D01*
G01*
D10*
X231167843Y12125000D02*
X347875000Y12125000D01*
X194546081Y-108985339D02*
G75*
G03*
X191578955Y-109854332I-81J-5499761D01*
G01*
D11*
X243141563Y-29742687D02*
G75*
G03*
X247332437Y-29742687I2095437J1702687D01*
G01*
D10*
X349875000Y5300000D02*
G75*
G03*
X347375000Y7800000I-2500000J0D01*
G01*
D11*
X-4077831Y-72635332D02*
G75*
G03*
X-1218601Y-71797932I-4J5300010D01*
G01*
D10*
X-21025000Y-27785000D02*
X-21025000Y-11785000D01*
D11*
X246423851Y-10947600D02*
G75*
G03*
X244050149Y-10947600I-1186851J-1852402D01*
G01*
X267017564Y-29742687D02*
G75*
G03*
X262904298Y-27785000I-4113264J-3342313D01*
G01*
X264636313Y-70156032D02*
G75*
G03*
X268827187Y-70156032I2095437J1702687D01*
G01*
X-6240452Y-88635332D02*
X-21025000Y-88635332D01*
X271570375Y-32413345D02*
X349875000Y-32413345D01*
X251445702Y-27785001D02*
G75*
G03*
X247332437Y-29742687I-2J-5299999D01*
G01*
X259873813Y-90593019D02*
G75*
G03*
X264064687Y-90593019I2095437J1702687D01*
G01*
X249283081Y-11785000D02*
X265152426Y-11785000D01*
D10*
X-21025000Y-106485332D02*
G75*
G03*
X-18525000Y-108985332I2500000J0D01*
G01*
D11*
X258008676Y-72635337D02*
G75*
G03*
X260851295Y-71808532I-76J5300237D01*
G01*
X193074485Y-88635332D02*
G75*
G03*
X187925515Y-88635332I-2574485J-2794999D01*
G01*
X25086205Y-71808532D02*
G75*
G03*
X22726295Y-71808532I-1179955J-1856800D01*
G01*
X240667735Y-93185332D02*
X259394765Y-93185332D01*
X26418735Y-93185332D02*
X69991298Y-93185332D01*
X243141564Y-29742687D02*
G75*
G03*
X239028298Y-27785000I-4113264J-3342313D01*
G01*
X-21025000Y-72635332D02*
X-4077831Y-72635332D01*
D10*
X229167843Y32925000D02*
X229167843Y14125000D01*
D11*
X239827879Y-72297247D02*
G75*
G03*
X236906399Y-71797932I-1734679J-1353153D01*
G01*
X239830022Y-72299779D02*
G75*
G03*
X245580190Y-72635332I3025778J2414579D01*
G01*
X273197574Y-11785000D02*
X349875000Y-11785000D01*
D10*
X-21025000Y-88635332D02*
X-21025000Y-72635332D01*
D11*
X-5525000Y11925000D02*
G75*
G03*
X-3825000Y13625000I2J1699998D01*
G01*
X267973719Y-51371522D02*
G75*
G03*
X270816324Y-52198345I2842581J4472922D01*
G01*
D10*
X231167843Y34925057D02*
G75*
G03*
X229167843Y32925000I57J-2000057D01*
G01*
D11*
X259873800Y-90593029D02*
G75*
G03*
X255760548Y-88635332I-4113400J-3342571D01*
G01*
D10*
X349875000Y-72635332D02*
X349875000Y-88635332D01*
D11*
X-5525000Y27825000D02*
X-19525000Y27825000D01*
X-21025000Y-52198345D02*
X238809669Y-52198345D01*
D10*
X72153920Y-108985332D02*
X-18525000Y-108985332D01*
D11*
X235518765Y-93185332D02*
G75*
G03*
X240667735Y-93185332I2574485J2794999D01*
G01*
D10*
X229167900Y14125000D02*
G75*
G03*
X231167843Y12125000I1999900J-100D01*
G01*
D11*
X27928824Y-72635332D02*
X234047169Y-72635332D01*
X240760313Y-70156032D02*
G75*
G03*
X244951187Y-70156032I2095437J1702687D01*
G01*
X244042601Y-51360945D02*
G75*
G03*
X241668899Y-51360945I-1186851J-1852402D01*
G01*
X275321702Y-27785001D02*
G75*
G03*
X271208437Y-29742687I-2J-5299999D01*
G01*
X2542735Y-93185332D02*
X21269765Y-93185332D01*
D10*
X189421045Y-109854332D02*
G75*
G03*
X191578955Y-109854332I1078955J1684000D01*
G01*
D11*
X19883676Y-72635337D02*
G75*
G03*
X22726295Y-71808532I-76J5300237D01*
G01*
X270816324Y-52198345D02*
X349875000Y-52198345D01*
X240760297Y-70156045D02*
G75*
G03*
X236647048Y-68198345I-4113397J-3342555D01*
G01*
X244042613Y-51360926D02*
G75*
G03*
X246901831Y-52198345I2859187J4462326D01*
G01*
X73625515Y-88635332D02*
X30052952Y-88635332D01*
D10*
X347875000Y12125000D02*
G75*
G03*
X349875000Y14125000I0J2000000D01*
G01*
X349875000Y-93185332D02*
X349875000Y-106485332D01*
D11*
X349875000Y-8000000D02*
X-21025000Y-8000000D01*
X1155101Y-71797932D02*
G75*
G03*
X-1218601Y-71797932I-1186851J-1852402D01*
G01*
D10*
X189421054Y-109854318D02*
G75*
G03*
X186453919Y-108985332I-2967154J-4631182D01*
G01*
D11*
X246423848Y-10947605D02*
G75*
G03*
X249283081Y-11785000I2859252J4462705D01*
G01*
X264543735Y-93185332D02*
X349875000Y-93185332D01*
X349875000Y-27785000D02*
X275321702Y-27785000D01*
D10*
X-21025000Y-8000000D02*
X-21025000Y5300000D01*
D11*
X236647048Y-68198345D02*
X-21025000Y-68198345D01*
X260523048Y-68198345D02*
X249064452Y-68198345D01*
X21748813Y-90593019D02*
G75*
G03*
X17635548Y-88635332I-4113263J-3342311D01*
G01*
X6176952Y-88635332D02*
G75*
G03*
X2063687Y-90593019I-2J-5299998D01*
G01*
X82408702Y-93185332D02*
X184291298Y-93185332D01*
X-3825000Y13625000D02*
X-3825000Y26125000D01*
D10*
X75121045Y-109854332D02*
G75*
G03*
X77278955Y-109854332I1078955J1684000D01*
G01*
D11*
X239028298Y-27785000D02*
X-21025000Y-27785000D01*
X268177952Y-88635364D02*
G75*
G03*
X264064687Y-90593019I-152J-5299736D01*
G01*
X196708702Y-93185332D02*
X235518765Y-93185332D01*
X349875000Y-68198345D02*
X272940452Y-68198345D01*
D10*
X349875000Y5300000D02*
X349875000Y-8000000D01*
D11*
X-21225000Y13625000D02*
G75*
G03*
X-19525000Y11925000I1699998J-2D01*
G01*
X21269765Y-93185332D02*
G75*
G03*
X26418735Y-93185332I2574485J2794999D01*
G01*
X255760548Y-88635332D02*
X244301952Y-88635332D01*
X-2606235Y-93185332D02*
G75*
G03*
X2542735Y-93185332I2574485J2794999D01*
G01*
X78295455Y-91227629D02*
G75*
G03*
X82408702Y-93185332I4113245J3342229D01*
G01*
X30052952Y-88635332D02*
G75*
G03*
X25939687Y-90593019I-2J-5299998D01*
G01*
X192595437Y-91227644D02*
G75*
G03*
X188404563Y-91227644I-2095437J-1702689D01*
G01*
D10*
X-21025000Y-106485332D02*
X-21025000Y-93185332D01*
D11*
X4014331Y-72635332D02*
X19883676Y-72635332D01*
D10*
X349875000Y32925000D02*
G75*
G03*
X347875000Y34925000I-2000000J0D01*
G01*
D11*
X1155102Y-71797930D02*
G75*
G03*
X4014331Y-72635332I2859228J4462580D01*
G01*
X-19525000Y27825000D02*
G75*
G03*
X-21225000Y26125000I-2J-1699998D01*
G01*
X349875000Y-48413345D02*
X-21025000Y-48413345D01*
X246901831Y-52198345D02*
X262771176Y-52198345D01*
X187925515Y-88635332D02*
X78774485Y-88635332D01*
X242779625Y-32413345D02*
G75*
G03*
X247694375Y-32413345I2457375J2795001D01*
G01*
X267973705Y-51371545D02*
G75*
G03*
X265613795Y-51371545I-1179955J-1856800D01*
G01*
X-19525000Y11925000D02*
X-5525000Y11925000D01*
X17635548Y-88635332D02*
X6176952Y-88635332D01*
X184291298Y-93185282D02*
G75*
G03*
X188404563Y-91227644I2J5300082D01*
G01*
X241190919Y-11784972D02*
G75*
G03*
X244050149Y-10947600I81J5299872D01*
G01*
X235997813Y-90593019D02*
G75*
G03*
X240188687Y-90593019I2095437J1702687D01*
G01*
X-2127187Y-90593019D02*
G75*
G03*
X-6240452Y-88635332I-4113265J-3342314D01*
G01*
X264636297Y-70156045D02*
G75*
G03*
X260523048Y-68198345I-4113397J-3342555D01*
G01*
X-2127187Y-90593019D02*
G75*
G03*
X2063687Y-90593019I2095437J1702687D01*
G01*
X-21025000Y-93185332D02*
X-2606235Y-93185332D01*
X349875000Y-88635332D02*
X268177952Y-88635332D01*
X69991298Y-93185282D02*
G75*
G03*
X74104563Y-91227644I2J5300082D01*
G01*
X267017563Y-29742687D02*
G75*
G03*
X271208437Y-29742687I2095437J1702687D01*
G01*
X263723048Y-72258923D02*
G75*
G03*
X260851295Y-71808532I-1691748J-1406277D01*
G01*
X-21025000Y-32413345D02*
X242779625Y-32413345D01*
X259394765Y-93185332D02*
G75*
G03*
X264543735Y-93185332I2574485J2794999D01*
G01*
X262904298Y-27785000D02*
X251445702Y-27785000D01*
X245580190Y-72635332D02*
X258008676Y-72635332D01*
X238809669Y-52198327D02*
G75*
G03*
X241668899Y-51360945I-69J5300327D01*
G01*
D10*
X349875000Y-32413345D02*
X349875000Y-48413345D01*
X347375000Y-108985332D02*
X194546081Y-108985332D01*
X347875000Y34925000D02*
X231167843Y34925000D01*
X347375000Y-108985400D02*
G75*
G03*
X349875000Y-106485332I-100J2500100D01*
G01*
X-21025000Y-48413345D02*
X-21025000Y-32413345D01*
D11*
X262771176Y-52198348D02*
G75*
G03*
X265613795Y-51371545I-76J5300248D01*
G01*
X265152426Y-11784992D02*
G75*
G03*
X267995045Y-10958200I74J5299792D01*
G01*
X231884548Y-88635332D02*
X193074485Y-88635332D01*
X25086212Y-71808521D02*
G75*
G03*
X27928824Y-72635332I2842588J4473021D01*
G01*
X266655625Y-32413345D02*
G75*
G03*
X271570375Y-32413345I2457375J2795001D01*
G01*
X263719682Y-72254764D02*
G75*
G03*
X269394545Y-72635332I3012118J2414564D01*
G01*
X270354946Y-10958214D02*
G75*
G03*
X273197574Y-11785000I2842654J4473414D01*
G01*
X192595455Y-91227629D02*
G75*
G03*
X196708702Y-93185332I4113245J3342229D01*
G01*
X78295437Y-91227644D02*
G75*
G03*
X74104563Y-91227644I-2095437J-1702689D01*
G01*
G36*
X-15008317Y22140059D02*
G01*
X-15008256Y22139872D01*
X-15008201Y22139778D01*
X-15007538Y22137872D01*
X-15005731Y22132412D01*
X-15002837Y22123576D01*
X-14998912Y22111541D01*
X-14994014Y22096483D01*
X-14988201Y22078579D01*
X-14981529Y22058005D01*
X-14974056Y22034939D01*
X-14965839Y22009556D01*
X-14956935Y21982035D01*
X-14947401Y21952550D01*
X-14937295Y21921280D01*
X-14926674Y21888401D01*
X-14915594Y21854090D01*
X-14904114Y21818523D01*
X-14892291Y21781876D01*
X-14886829Y21764944D01*
X-14874577Y21726957D01*
X-14862481Y21689455D01*
X-14850609Y21652653D01*
X-14839030Y21616763D01*
X-14827814Y21582000D01*
X-14817030Y21548577D01*
X-14806745Y21516708D01*
X-14797031Y21486607D01*
X-14787954Y21458487D01*
X-14779585Y21432563D01*
X-14771992Y21409048D01*
X-14765245Y21388155D01*
X-14759412Y21370099D01*
X-14754563Y21355093D01*
X-14750766Y21343351D01*
X-14748090Y21335087D01*
X-14747737Y21334000D01*
X-14729307Y21277181D01*
X-14275162Y21277843D01*
X-13821017Y21278506D01*
X-13828854Y21272802D01*
X-13831160Y21271131D01*
X-13836497Y21267270D01*
X-13844717Y21261324D01*
X-13855677Y21253399D01*
X-13869229Y21243598D01*
X-13885229Y21232029D01*
X-13903532Y21218796D01*
X-13923990Y21204004D01*
X-13946460Y21187758D01*
X-13970794Y21170165D01*
X-13996848Y21151329D01*
X-14024476Y21131355D01*
X-14053532Y21110349D01*
X-14083871Y21088416D01*
X-14115346Y21065662D01*
X-14147814Y21042191D01*
X-14181126Y21018109D01*
X-14195238Y21007908D01*
X-14228769Y20983667D01*
X-14261465Y20960027D01*
X-14293184Y20937092D01*
X-14323782Y20914964D01*
X-14353119Y20893746D01*
X-14381051Y20873542D01*
X-14407436Y20854453D01*
X-14432133Y20836583D01*
X-14454998Y20820036D01*
X-14475890Y20804914D01*
X-14494666Y20791319D01*
X-14511184Y20779356D01*
X-14525301Y20769127D01*
X-14536876Y20760734D01*
X-14545766Y20754282D01*
X-14551828Y20749873D01*
X-14554921Y20747609D01*
X-14555306Y20747318D01*
X-14554846Y20745353D01*
X-14553216Y20739830D01*
X-14550470Y20730913D01*
X-14546661Y20718766D01*
X-14541841Y20703555D01*
X-14536065Y20685444D01*
X-14529384Y20664596D01*
X-14521853Y20641178D01*
X-14513524Y20615352D01*
X-14504451Y20587285D01*
X-14494686Y20557140D01*
X-14484282Y20525081D01*
X-14473294Y20491274D01*
X-14461773Y20455883D01*
X-14449773Y20419072D01*
X-14437347Y20381007D01*
X-14424549Y20341850D01*
X-14415797Y20315104D01*
X-14402775Y20275319D01*
X-14390082Y20236523D01*
X-14377770Y20198879D01*
X-14365892Y20162551D01*
X-14354504Y20127704D01*
X-14343657Y20094502D01*
X-14333406Y20063108D01*
X-14323804Y20033686D01*
X-14314905Y20006402D01*
X-14306761Y19981418D01*
X-14299427Y19958900D01*
X-14292957Y19939010D01*
X-14287402Y19921913D01*
X-14282818Y19907774D01*
X-14279257Y19896756D01*
X-14276774Y19889023D01*
X-14275420Y19884739D01*
X-14275173Y19883881D01*
X-14276770Y19884981D01*
X-14281392Y19888291D01*
X-14288900Y19893709D01*
X-14299154Y19901133D01*
X-14312015Y19910463D01*
X-14327343Y19921595D01*
X-14344999Y19934430D01*
X-14364843Y19948864D01*
X-14386736Y19964798D01*
X-14410538Y19982129D01*
X-14436110Y20000756D01*
X-14463313Y20020577D01*
X-14492007Y20041491D01*
X-14522052Y20063396D01*
X-14553310Y20086191D01*
X-14585640Y20109774D01*
X-14618903Y20134043D01*
X-14641737Y20150707D01*
X-14675564Y20175383D01*
X-14708567Y20199433D01*
X-14740604Y20222756D01*
X-14771535Y20245251D01*
X-14801221Y20266816D01*
X-14829521Y20287349D01*
X-14856295Y20306751D01*
X-14881402Y20324919D01*
X-14904702Y20341752D01*
X-14926056Y20357149D01*
X-14945322Y20371009D01*
X-14962361Y20383231D01*
X-14977032Y20393712D01*
X-14989196Y20402353D01*
X-14998711Y20409052D01*
X-15005438Y20413707D01*
X-15009237Y20416217D01*
X-15010073Y20416649D01*
X-15011802Y20415411D01*
X-15016525Y20411989D01*
X-15024070Y20406507D01*
X-15034266Y20399091D01*
X-15046943Y20389865D01*
X-15061927Y20378954D01*
X-15079049Y20366483D01*
X-15098136Y20352578D01*
X-15119017Y20337363D01*
X-15141521Y20320963D01*
X-15165477Y20303503D01*
X-15190712Y20285109D01*
X-15217056Y20265905D01*
X-15244336Y20246017D01*
X-15272383Y20225569D01*
X-15301024Y20204686D01*
X-15330087Y20183494D01*
X-15359402Y20162117D01*
X-15388797Y20140680D01*
X-15418100Y20119308D01*
X-15447141Y20098127D01*
X-15475747Y20077262D01*
X-15503748Y20056837D01*
X-15530972Y20036977D01*
X-15557247Y20017807D01*
X-15582402Y19999453D01*
X-15606266Y19982040D01*
X-15628667Y19965691D01*
X-15649434Y19950533D01*
X-15668396Y19936691D01*
X-15685380Y19924289D01*
X-15700216Y19913452D01*
X-15712733Y19904306D01*
X-15722758Y19896976D01*
X-15730120Y19891585D01*
X-15734648Y19888261D01*
X-15735987Y19887269D01*
X-15742627Y19882280D01*
X-15741102Y19887128D01*
X-15740358Y19889417D01*
X-15738450Y19895263D01*
X-15735433Y19904500D01*
X-15731360Y19916959D01*
X-15726288Y19932473D01*
X-15720269Y19950877D01*
X-15713360Y19972001D01*
X-15705614Y19995680D01*
X-15697086Y20021747D01*
X-15687832Y20050033D01*
X-15677905Y20080372D01*
X-15667361Y20112597D01*
X-15656254Y20146541D01*
X-15644638Y20182037D01*
X-15632569Y20218917D01*
X-15620101Y20257014D01*
X-15607289Y20296162D01*
X-15599802Y20319038D01*
X-15586843Y20358656D01*
X-15574221Y20397292D01*
X-15561989Y20434781D01*
X-15550200Y20470958D01*
X-15538909Y20505657D01*
X-15528168Y20538714D01*
X-15518030Y20569963D01*
X-15508549Y20599239D01*
X-15499779Y20626376D01*
X-15491772Y20651210D01*
X-15484582Y20673575D01*
X-15478263Y20693306D01*
X-15472868Y20710238D01*
X-15468449Y20724206D01*
X-15465061Y20735044D01*
X-15462757Y20742588D01*
X-15461590Y20746671D01*
X-15461456Y20747391D01*
X-15463155Y20748642D01*
X-15467889Y20752086D01*
X-15475518Y20757621D01*
X-15485900Y20765145D01*
X-15498895Y20774556D01*
X-15514362Y20785752D01*
X-15532159Y20798632D01*
X-15552147Y20813093D01*
X-15574184Y20829033D01*
X-15598128Y20846350D01*
X-15623840Y20864943D01*
X-15651179Y20884710D01*
X-15680003Y20905549D01*
X-15710171Y20927357D01*
X-15741543Y20950033D01*
X-15773977Y20973475D01*
X-15807334Y20997581D01*
X-15828291Y21012725D01*
X-15862139Y21037185D01*
X-15895148Y21061039D01*
X-15927178Y21084188D01*
X-15958088Y21106528D01*
X-15987737Y21127960D01*
X-16015986Y21148379D01*
X-16042693Y21167686D01*
X-16067717Y21185778D01*
X-16063000Y21189000D01*
X-16063000Y21278057D01*
X-16057672Y21278073D01*
X-16028297Y21278080D01*
X-15996722Y21278079D01*
X-15963119Y21278069D01*
X-15927658Y21278052D01*
X-15890513Y21278025D01*
X-15851854Y21277991D01*
X-15811854Y21277947D01*
X-15770684Y21277895D01*
X-15741592Y21277854D01*
X-15287529Y21277181D01*
X-15281735Y21294814D01*
X-15280576Y21298377D01*
X-15278274Y21305487D01*
X-15274889Y21315963D01*
X-15270477Y21329624D01*
X-15265098Y21346289D01*
X-15258811Y21365774D01*
X-15251674Y21387899D01*
X-15243746Y21412481D01*
X-15235084Y21439340D01*
X-15225749Y21468293D01*
X-15215798Y21499159D01*
X-15205291Y21531756D01*
X-15194285Y21565902D01*
X-15182839Y21601415D01*
X-15171012Y21638114D01*
X-15158862Y21675817D01*
X-15148422Y21708221D01*
X-15133149Y21755623D01*
X-15119032Y21799436D01*
X-15106027Y21839801D01*
X-15094086Y21876858D01*
X-15083164Y21910749D01*
X-15073217Y21941613D01*
X-15064197Y21969592D01*
X-15056059Y21994826D01*
X-15048758Y22017456D01*
X-15042247Y22037622D01*
X-15036481Y22055466D01*
X-15031415Y22071128D01*
X-15027002Y22084748D01*
X-15023198Y22096468D01*
X-15019955Y22106428D01*
X-15017229Y22114768D01*
X-15014974Y22121630D01*
X-15013143Y22127153D01*
X-15011692Y22131480D01*
X-15010575Y22134750D01*
X-15009746Y22137104D01*
X-15009158Y22138682D01*
X-15008768Y22139627D01*
X-15008528Y22140077D01*
X-15008393Y22140174D01*
X-15008317Y22140059D01*
G37*
G36*
X-12518133Y23038877D02*
G01*
X-12516156Y23034443D01*
X-12513449Y23027387D01*
X-12510229Y23018269D01*
X-12507075Y23008780D01*
X-12505442Y23003720D01*
X-12502668Y22995119D01*
X-12498817Y22983169D01*
X-12493948Y22968059D01*
X-12488124Y22949980D01*
X-12481405Y22929121D01*
X-12473853Y22905673D01*
X-12465529Y22879826D01*
X-12456495Y22851771D01*
X-12446810Y22821696D01*
X-12436538Y22789793D01*
X-12425738Y22756251D01*
X-12414472Y22721261D01*
X-12402802Y22685013D01*
X-12390788Y22647696D01*
X-12378492Y22609502D01*
X-12368158Y22577400D01*
X-12239885Y22178930D01*
X-11785824Y22180268D01*
X-11743931Y22180389D01*
X-11703082Y22180501D01*
X-11663448Y22180604D01*
X-11625202Y22180697D01*
X-11588516Y22180782D01*
X-11553562Y22180856D01*
X-11520512Y22180921D01*
X-11489540Y22180975D01*
X-11460817Y22181019D01*
X-11434515Y22181052D01*
X-11410807Y22181075D01*
X-11389866Y22181086D01*
X-11371863Y22181086D01*
X-11356970Y22181074D01*
X-11345361Y22181050D01*
X-11337207Y22181014D01*
X-11332680Y22180965D01*
X-11331763Y22180924D01*
X-11333328Y22179730D01*
X-11337930Y22176343D01*
X-11345428Y22170865D01*
X-11355685Y22163396D01*
X-11368558Y22154039D01*
X-11383909Y22142893D01*
X-11401598Y22130062D01*
X-11421484Y22115645D01*
X-11443429Y22099744D01*
X-11467291Y22082462D01*
X-11492932Y22063898D01*
X-11520211Y22044154D01*
X-11548989Y22023332D01*
X-11579126Y22001532D01*
X-11610481Y21978857D01*
X-11642916Y21955408D01*
X-11676290Y21931285D01*
X-11699042Y21914842D01*
X-11732972Y21890316D01*
X-11766055Y21866385D01*
X-11798152Y21843151D01*
X-11829123Y21820716D01*
X-11858829Y21799182D01*
X-11887128Y21778651D01*
X-11913882Y21759224D01*
X-11938950Y21741003D01*
X-11962192Y21724090D01*
X-11983469Y21708588D01*
X-12002641Y21694597D01*
X-12019567Y21682220D01*
X-12034108Y21671559D01*
X-12046123Y21662715D01*
X-12055474Y21655791D01*
X-12062020Y21650887D01*
X-12065620Y21648107D01*
X-12066315Y21647483D01*
X-12065713Y21645466D01*
X-12063943Y21639890D01*
X-12061058Y21630922D01*
X-12057114Y21618726D01*
X-12052164Y21603467D01*
X-12046261Y21585311D01*
X-12039460Y21564423D01*
X-12031814Y21540968D01*
X-12023378Y21515111D01*
X-12014205Y21487017D01*
X-12004350Y21456851D01*
X-11993866Y21424780D01*
X-11982806Y21390966D01*
X-11971226Y21355577D01*
X-11959178Y21318777D01*
X-11946718Y21280732D01*
X-11933898Y21241605D01*
X-11925650Y21216444D01*
X-11912638Y21176739D01*
X-11899955Y21138021D01*
X-11887656Y21100454D01*
X-11875793Y21064202D01*
X-11864421Y21029430D01*
X-11853593Y20996302D01*
X-11843363Y20964982D01*
X-11833784Y20935636D01*
X-11824910Y20908428D01*
X-11816795Y20883522D01*
X-11809492Y20861083D01*
X-11803055Y20841275D01*
X-11797538Y20824263D01*
X-11792994Y20810211D01*
X-11789478Y20799284D01*
X-11787041Y20791646D01*
X-11785739Y20787463D01*
X-11785525Y20786674D01*
X-11787134Y20787748D01*
X-11791767Y20791033D01*
X-11799286Y20796426D01*
X-11809549Y20803825D01*
X-11822419Y20813131D01*
X-11837755Y20824240D01*
X-11855417Y20837052D01*
X-11875266Y20851465D01*
X-11897163Y20867378D01*
X-11920967Y20884688D01*
X-11946540Y20903296D01*
X-11973741Y20923098D01*
X-12002431Y20943995D01*
X-12032470Y20965883D01*
X-12063719Y20988662D01*
X-12096038Y21012231D01*
X-12129288Y21036487D01*
X-12151674Y21052823D01*
X-12185482Y21077485D01*
X-12218468Y21101523D01*
X-12250491Y21124836D01*
X-12281411Y21147322D01*
X-12311088Y21168881D01*
X-12339380Y21189409D01*
X-12366147Y21208806D01*
X-12391249Y21226971D01*
X-12414546Y21243802D01*
X-12435895Y21259197D01*
X-12455158Y21273055D01*
X-12472193Y21285274D01*
X-12486860Y21295754D01*
X-12499019Y21304392D01*
X-12508529Y21311087D01*
X-12515249Y21315738D01*
X-12519038Y21318243D01*
X-12519865Y21318672D01*
X-12521665Y21317441D01*
X-12526489Y21314002D01*
X-12534196Y21308458D01*
X-12544642Y21300911D01*
X-12557689Y21291465D01*
X-12573193Y21280222D01*
X-12591014Y21267285D01*
X-12611010Y21252756D01*
X-12633040Y21236739D01*
X-12656963Y21219337D01*
X-12682637Y21200651D01*
X-12709921Y21180786D01*
X-12738673Y21159842D01*
X-12768753Y21137925D01*
X-12800019Y21115135D01*
X-12832329Y21091577D01*
X-12865543Y21067352D01*
X-12884696Y21053379D01*
X-12918362Y21028818D01*
X-12951205Y21004859D01*
X-12983084Y20981607D01*
X-13013858Y20959164D01*
X-13043385Y20937633D01*
X-13071524Y20917118D01*
X-13098132Y20897721D01*
X-13123070Y20879546D01*
X-13146195Y20862694D01*
X-13167366Y20847271D01*
X-13186441Y20833378D01*
X-13203279Y20821119D01*
X-13217740Y20810596D01*
X-13229680Y20801913D01*
X-13238959Y20795173D01*
X-13245436Y20790478D01*
X-13248969Y20787933D01*
X-13249610Y20787484D01*
X-13251344Y20787064D01*
X-13251132Y20789502D01*
X-13250825Y20790546D01*
X-13250089Y20792819D01*
X-13248189Y20798648D01*
X-13245180Y20807866D01*
X-13241117Y20820307D01*
X-13236055Y20835802D01*
X-13230048Y20854184D01*
X-13223150Y20875287D01*
X-13215418Y20898941D01*
X-13206904Y20924981D01*
X-13197665Y20953239D01*
X-13187755Y20983546D01*
X-13177228Y21015737D01*
X-13166140Y21049643D01*
X-13154545Y21085096D01*
X-13142498Y21121931D01*
X-13130053Y21159978D01*
X-13117265Y21199072D01*
X-13110301Y21220362D01*
X-13097368Y21259902D01*
X-13084757Y21298462D01*
X-13072524Y21335877D01*
X-13060721Y21371980D01*
X-13049404Y21406606D01*
X-13038627Y21439589D01*
X-13028442Y21470763D01*
X-13018906Y21499962D01*
X-13010071Y21527021D01*
X-13001992Y21551774D01*
X-12994723Y21574054D01*
X-12988318Y21593696D01*
X-12982832Y21610534D01*
X-12978318Y21624403D01*
X-12974831Y21635135D01*
X-12972425Y21642567D01*
X-12971153Y21646531D01*
X-12970957Y21647173D01*
X-12972497Y21648458D01*
X-12977074Y21651935D01*
X-12984547Y21657503D01*
X-12994776Y21665058D01*
X-13007621Y21674501D01*
X-13022943Y21685727D01*
X-13040600Y21698635D01*
X-13060453Y21713124D01*
X-13082361Y21729091D01*
X-13106186Y21746433D01*
X-13131786Y21765050D01*
X-13159021Y21784838D01*
X-13187751Y21805696D01*
X-13217837Y21827522D01*
X-13249138Y21850213D01*
X-13281514Y21873668D01*
X-13314825Y21897785D01*
X-13335864Y21913009D01*
X-13369714Y21937500D01*
X-13402734Y21961397D01*
X-13434785Y21984597D01*
X-13465724Y22006998D01*
X-13495411Y22028496D01*
X-13523703Y22048991D01*
X-13550461Y22068379D01*
X-13575542Y22086557D01*
X-13598805Y22103424D01*
X-13620109Y22118877D01*
X-13639313Y22132814D01*
X-13656276Y22145131D01*
X-13670855Y22155727D01*
X-13682910Y22164499D01*
X-13692300Y22171345D01*
X-13698883Y22176162D01*
X-13702518Y22178848D01*
X-13703228Y22179396D01*
X-13702408Y22179651D01*
X-13699353Y22179880D01*
X-13693964Y22180084D01*
X-13686144Y22180263D01*
X-13675796Y22180417D01*
X-13662822Y22180547D01*
X-13647126Y22180652D01*
X-13628609Y22180733D01*
X-13607175Y22180790D01*
X-13582726Y22180823D01*
X-13555164Y22180832D01*
X-13524393Y22180818D01*
X-13490315Y22180780D01*
X-13452833Y22180719D01*
X-13411849Y22180634D01*
X-13367265Y22180527D01*
X-13318986Y22180398D01*
X-13266913Y22180245D01*
X-13251558Y22180198D01*
X-12797697Y22178799D01*
X-12790823Y22200175D01*
X-12777246Y22242390D01*
X-12763503Y22285095D01*
X-12749649Y22328130D01*
X-12735734Y22371332D01*
X-12721812Y22414541D01*
X-12707934Y22457594D01*
X-12694153Y22500332D01*
X-12680520Y22542591D01*
X-12667089Y22584211D01*
X-12653910Y22625031D01*
X-12641037Y22664888D01*
X-12628522Y22703622D01*
X-12616416Y22741072D01*
X-12604772Y22777075D01*
X-12593643Y22811470D01*
X-12583080Y22844096D01*
X-12573135Y22874792D01*
X-12563861Y22903396D01*
X-12555311Y22929747D01*
X-12547535Y22953683D01*
X-12540587Y22975043D01*
X-12534518Y22993665D01*
X-12529381Y23009389D01*
X-12525228Y23022053D01*
X-12522111Y23031494D01*
X-12520083Y23037553D01*
X-12519195Y23040067D01*
X-12519164Y23040129D01*
X-12518133Y23038877D01*
G37*
G36*
X-10029973Y22129053D02*
G01*
X-10028148Y22123587D01*
X-10025249Y22114788D01*
X-10021339Y22102853D01*
X-10016485Y22087982D01*
X-10010748Y22070372D01*
X-10004193Y22050222D01*
X-9996885Y22027729D01*
X-9988887Y22003091D01*
X-9980264Y21976508D01*
X-9971080Y21948176D01*
X-9961398Y21918295D01*
X-9951282Y21887062D01*
X-9940798Y21854675D01*
X-9930009Y21821333D01*
X-9918978Y21787234D01*
X-9907771Y21752576D01*
X-9896451Y21717557D01*
X-9885082Y21682375D01*
X-9873728Y21647228D01*
X-9862454Y21612315D01*
X-9851323Y21577834D01*
X-9840400Y21543983D01*
X-9829748Y21510960D01*
X-9819433Y21478963D01*
X-9809517Y21448190D01*
X-9800064Y21418840D01*
X-9791140Y21391110D01*
X-9782808Y21365200D01*
X-9775132Y21341306D01*
X-9768177Y21319627D01*
X-9762005Y21300362D01*
X-9758407Y21289110D01*
X-9752203Y21269690D01*
X-9298335Y21271066D01*
X-9248613Y21271217D01*
X-9202663Y21271354D01*
X-9160337Y21271476D01*
X-9121488Y21271585D01*
X-9085969Y21271677D01*
X-9053632Y21271753D01*
X-9024330Y21271812D01*
X-8997916Y21271853D01*
X-8974243Y21271876D01*
X-8973000Y21249000D01*
X-8973000Y21179000D01*
X-8987153Y21167794D01*
X-9013014Y21149061D01*
X-9040484Y21129171D01*
X-9069421Y21108227D01*
X-9099681Y21086333D01*
X-9131122Y21063591D01*
X-9163602Y21040105D01*
X-9196978Y21015980D01*
X-9216080Y21002175D01*
X-9579856Y20739304D01*
X-9569303Y20707494D01*
X-9564884Y20694146D01*
X-9559551Y20677982D01*
X-9553368Y20659203D01*
X-9546401Y20638009D01*
X-9538716Y20614604D01*
X-9530379Y20589187D01*
X-9521455Y20561960D01*
X-9512010Y20533125D01*
X-9502109Y20502883D01*
X-9491819Y20471435D01*
X-9481206Y20438983D01*
X-9470334Y20405728D01*
X-9459269Y20371871D01*
X-9448078Y20337613D01*
X-9436826Y20303157D01*
X-9425578Y20268703D01*
X-9414401Y20234453D01*
X-9403360Y20200608D01*
X-9392520Y20167369D01*
X-9381948Y20134938D01*
X-9371709Y20103516D01*
X-9361869Y20073305D01*
X-9352494Y20044505D01*
X-9343649Y20017319D01*
X-9335399Y19991947D01*
X-9327812Y19968591D01*
X-9320952Y19947452D01*
X-9314885Y19928732D01*
X-9309676Y19912631D01*
X-9305392Y19899352D01*
X-9302099Y19889095D01*
X-9299861Y19882063D01*
X-9298744Y19878455D01*
X-9298626Y19877999D01*
X-9300250Y19879074D01*
X-9304897Y19882358D01*
X-9312429Y19887751D01*
X-9322706Y19895151D01*
X-9335588Y19904456D01*
X-9350936Y19915565D01*
X-9368609Y19928376D01*
X-9388467Y19942788D01*
X-9410372Y19958699D01*
X-9434183Y19976007D01*
X-9459761Y19994612D01*
X-9486965Y20014411D01*
X-9515657Y20035303D01*
X-9545695Y20057186D01*
X-9576941Y20079960D01*
X-9609255Y20103521D01*
X-9642497Y20127769D01*
X-9664495Y20143821D01*
X-9698282Y20168470D01*
X-9731245Y20192498D01*
X-9763243Y20215804D01*
X-9794135Y20238287D01*
X-9823782Y20259844D01*
X-9852042Y20280375D01*
X-9878775Y20299776D01*
X-9903840Y20317948D01*
X-9927097Y20334787D01*
X-9948406Y20350192D01*
X-9967626Y20364061D01*
X-9984615Y20376294D01*
X-9999235Y20386787D01*
X-10011344Y20395440D01*
X-10020801Y20402150D01*
X-10027467Y20406817D01*
X-10031201Y20409337D01*
X-10031987Y20409777D01*
X-10033762Y20408587D01*
X-10038560Y20405187D01*
X-10046241Y20399680D01*
X-10056663Y20392168D01*
X-10069686Y20382755D01*
X-10085168Y20371541D01*
X-10102969Y20358631D01*
X-10122948Y20344125D01*
X-10144964Y20328127D01*
X-10168876Y20310739D01*
X-10194543Y20292063D01*
X-10221825Y20272201D01*
X-10250581Y20251256D01*
X-10280669Y20229331D01*
X-10311949Y20206528D01*
X-10344279Y20182949D01*
X-10377520Y20158696D01*
X-10398010Y20143742D01*
X-10431726Y20119135D01*
X-10464612Y20095138D01*
X-10496528Y20071856D01*
X-10527333Y20049389D01*
X-10556886Y20027840D01*
X-10585046Y20007312D01*
X-10611675Y19987907D01*
X-10636629Y19969727D01*
X-10659770Y19952875D01*
X-10680956Y19937453D01*
X-10700047Y19923564D01*
X-10716903Y19911309D01*
X-10731382Y19900791D01*
X-10743344Y19892113D01*
X-10752649Y19885377D01*
X-10759156Y19880684D01*
X-10762725Y19878139D01*
X-10763398Y19877684D01*
X-10763170Y19879353D01*
X-10761826Y19884357D01*
X-10759484Y19892314D01*
X-10756261Y19902842D01*
X-10752276Y19915556D01*
X-10747647Y19930073D01*
X-10742491Y19946012D01*
X-10739851Y19954096D01*
X-10717100Y20023540D01*
X-10695551Y20089326D01*
X-10675184Y20151516D01*
X-10655978Y20210175D01*
X-10637911Y20265367D01*
X-10620963Y20317155D01*
X-10605114Y20365603D01*
X-10590342Y20410775D01*
X-10576627Y20452734D01*
X-10563948Y20491545D01*
X-10552283Y20527272D01*
X-10541613Y20559978D01*
X-10531916Y20589726D01*
X-10523172Y20616582D01*
X-10515360Y20640608D01*
X-10508459Y20661869D01*
X-10502447Y20680428D01*
X-10497306Y20696349D01*
X-10493012Y20709695D01*
X-10489547Y20720532D01*
X-10486888Y20728922D01*
X-10485016Y20734929D01*
X-10483908Y20738618D01*
X-10483546Y20740051D01*
X-10483551Y20740074D01*
X-10485193Y20741273D01*
X-10489871Y20744666D01*
X-10497443Y20750150D01*
X-10507771Y20757624D01*
X-10520712Y20766986D01*
X-10536126Y20778135D01*
X-10553873Y20790970D01*
X-10573812Y20805387D01*
X-10595803Y20821286D01*
X-10619704Y20838566D01*
X-10645376Y20857123D01*
X-10672677Y20876858D01*
X-10701468Y20897668D01*
X-10731607Y20919451D01*
X-10762954Y20942106D01*
X-10795368Y20965531D01*
X-10828709Y20989625D01*
X-10849782Y21004853D01*
X-10883644Y21029324D01*
X-10916676Y21053197D01*
X-10948735Y21076372D01*
X-10979682Y21098744D01*
X-11009373Y21120213D01*
X-11037670Y21140676D01*
X-11064429Y21160031D01*
X-11089510Y21178175D01*
X-11112773Y21195007D01*
X-11134075Y21210425D01*
X-11153275Y21224325D01*
X-11170232Y21236607D01*
X-11184806Y21247167D01*
X-11196855Y21255904D01*
X-11206237Y21262716D01*
X-11212812Y21267500D01*
X-11216438Y21270155D01*
X-11217142Y21270685D01*
X-11215414Y21270869D01*
X-11209881Y21271034D01*
X-11200655Y21271180D01*
X-11187849Y21271305D01*
X-11171577Y21271411D01*
X-11151952Y21271496D01*
X-11129086Y21271562D01*
X-11103093Y21271607D01*
X-11074085Y21271632D01*
X-11042176Y21271637D01*
X-11007479Y21271621D01*
X-10970106Y21271584D01*
X-10930170Y21271527D01*
X-10887785Y21271449D01*
X-10843064Y21271349D01*
X-10796120Y21271229D01*
X-10764550Y21271140D01*
X-10310002Y21269807D01*
X-10171046Y21701159D01*
X-10158210Y21740978D01*
X-10145682Y21779792D01*
X-10133516Y21817438D01*
X-10121764Y21853751D01*
X-10110480Y21888569D01*
X-10099718Y21921729D01*
X-10089531Y21953066D01*
X-10079972Y21982417D01*
X-10071094Y22009618D01*
X-10062952Y22034507D01*
X-10055598Y22056920D01*
X-10049086Y22076693D01*
X-10043468Y22093663D01*
X-10038800Y22107666D01*
X-10035133Y22118539D01*
X-10032522Y22126119D01*
X-10031020Y22130241D01*
X-10030659Y22130987D01*
X-10029973Y22129053D01*
G37*
G36*
X-15878276Y17236590D02*
G01*
X-15876419Y17231057D01*
X-15873469Y17222125D01*
X-15869480Y17209960D01*
X-15864506Y17194728D01*
X-15858599Y17176594D01*
X-15851815Y17155725D01*
X-15844207Y17132285D01*
X-15835828Y17106441D01*
X-15826732Y17078358D01*
X-15816974Y17048203D01*
X-15806605Y17016140D01*
X-15795682Y16982335D01*
X-15784256Y16946955D01*
X-15772382Y16910165D01*
X-15760113Y16872130D01*
X-15747504Y16833017D01*
X-15740100Y16810041D01*
X-15727315Y16770366D01*
X-15714839Y16731665D01*
X-15702727Y16694105D01*
X-15691032Y16657852D01*
X-15679807Y16623072D01*
X-15669108Y16589932D01*
X-15658986Y16558597D01*
X-15649497Y16529235D01*
X-15640694Y16502011D01*
X-15632631Y16477091D01*
X-15625361Y16454642D01*
X-15618938Y16434831D01*
X-15613417Y16417823D01*
X-15608850Y16403785D01*
X-15605292Y16392883D01*
X-15602797Y16385284D01*
X-15601418Y16381153D01*
X-15601151Y16380413D01*
X-15600367Y16380130D01*
X-15598239Y16379868D01*
X-15594636Y16379626D01*
X-15589429Y16379403D01*
X-15582485Y16379200D01*
X-15573675Y16379015D01*
X-15562866Y16378847D01*
X-15549928Y16378695D01*
X-15534730Y16378560D01*
X-15517142Y16378440D01*
X-15497031Y16378334D01*
X-15474268Y16378242D01*
X-15448721Y16378164D01*
X-15420260Y16378098D01*
X-15388753Y16378043D01*
X-15354069Y16377999D01*
X-15316078Y16377966D01*
X-15274649Y16377942D01*
X-15229650Y16377927D01*
X-15180951Y16377920D01*
X-15146355Y16377919D01*
X-15094831Y16377917D01*
X-15047103Y16377906D01*
X-15003046Y16377887D01*
X-14962537Y16377858D01*
X-14925452Y16377818D01*
X-14891667Y16377768D01*
X-14861061Y16377707D01*
X-14833507Y16377633D01*
X-14808884Y16377547D01*
X-14787067Y16377447D01*
X-14767933Y16377333D01*
X-14751359Y16377204D01*
X-14737220Y16377060D01*
X-14725394Y16376900D01*
X-14715756Y16376723D01*
X-14708184Y16376528D01*
X-14702553Y16376316D01*
X-14698740Y16376084D01*
X-14696621Y16375834D01*
X-14696074Y16375563D01*
X-14696110Y16375528D01*
X-14697976Y16374171D01*
X-14702876Y16370622D01*
X-14710667Y16364982D01*
X-14721208Y16357354D01*
X-14734357Y16347842D01*
X-14749971Y16336547D01*
X-14767909Y16323573D01*
X-14788028Y16309021D01*
X-14810188Y16292995D01*
X-14834245Y16275598D01*
X-14860058Y16256932D01*
X-14887485Y16237099D01*
X-14916383Y16216203D01*
X-14946611Y16194346D01*
X-14978027Y16171631D01*
X-15010489Y16148160D01*
X-15043855Y16124037D01*
X-15063687Y16109698D01*
X-15428048Y15846273D01*
X-15420539Y15823644D01*
X-15415806Y15809350D01*
X-15410179Y15792296D01*
X-15403721Y15772684D01*
X-15396499Y15750712D01*
X-15388577Y15726580D01*
X-15380021Y15700490D01*
X-15370896Y15672639D01*
X-15361266Y15643229D01*
X-15351198Y15612460D01*
X-15340757Y15580530D01*
X-15330007Y15547641D01*
X-15319013Y15513992D01*
X-15307842Y15479782D01*
X-15296557Y15445213D01*
X-15285225Y15410483D01*
X-15273910Y15375793D01*
X-15262678Y15341342D01*
X-15251593Y15307331D01*
X-15240722Y15273959D01*
X-15230128Y15241426D01*
X-15219878Y15209933D01*
X-15210036Y15179679D01*
X-15200668Y15150863D01*
X-15191838Y15123687D01*
X-15183613Y15098350D01*
X-15176057Y15075051D01*
X-15169234Y15053990D01*
X-15163212Y15035369D01*
X-15158054Y15019386D01*
X-15153826Y15006241D01*
X-15150592Y14996134D01*
X-15148419Y14989266D01*
X-15147372Y14985835D01*
X-15147283Y14985467D01*
X-15148920Y14986528D01*
X-15153581Y14989799D01*
X-15161127Y14995179D01*
X-15171417Y15002567D01*
X-15184312Y15011861D01*
X-15199672Y15022959D01*
X-15217357Y15035761D01*
X-15237229Y15050164D01*
X-15259146Y15066068D01*
X-15282969Y15083371D01*
X-15308558Y15101971D01*
X-15335774Y15121767D01*
X-15364477Y15142657D01*
X-15394527Y15164541D01*
X-15425784Y15187316D01*
X-15458109Y15210882D01*
X-15491362Y15235136D01*
X-15513663Y15251409D01*
X-15879205Y15518188D01*
X-15885586Y15513678D01*
X-15887748Y15512115D01*
X-15892930Y15508346D01*
X-15900990Y15502477D01*
X-15911783Y15494613D01*
X-15925164Y15484859D01*
X-15940992Y15473321D01*
X-15959120Y15460102D01*
X-15979405Y15445308D01*
X-16001704Y15429044D01*
X-16025872Y15411416D01*
X-16051765Y15392527D01*
X-16079239Y15372484D01*
X-16108150Y15351391D01*
X-16138354Y15329353D01*
X-16169708Y15306475D01*
X-16202067Y15282863D01*
X-16235287Y15258621D01*
X-16251110Y15247074D01*
X-16284601Y15222636D01*
X-16317255Y15198814D01*
X-16348931Y15175710D01*
X-16379487Y15153429D01*
X-16408784Y15132072D01*
X-16436679Y15111742D01*
X-16463032Y15092541D01*
X-16487701Y15074573D01*
X-16510546Y15057940D01*
X-16531425Y15042745D01*
X-16550198Y15029091D01*
X-16566723Y15017079D01*
X-16580859Y15006814D01*
X-16592465Y14998397D01*
X-16601400Y14991932D01*
X-16607523Y14987520D01*
X-16610693Y14985266D01*
X-16611126Y14984979D01*
X-16612000Y14986421D01*
X-16612000Y14986435D01*
X-16611399Y14988406D01*
X-16609632Y14993935D01*
X-16606753Y15002859D01*
X-16602816Y15015011D01*
X-16597874Y15030227D01*
X-16591982Y15048342D01*
X-16585192Y15069190D01*
X-16577560Y15092608D01*
X-16569139Y15118429D01*
X-16559982Y15146489D01*
X-16550143Y15176623D01*
X-16539677Y15208665D01*
X-16528637Y15242451D01*
X-16517078Y15277816D01*
X-16505051Y15314595D01*
X-16492613Y15352622D01*
X-16479816Y15391734D01*
X-16471654Y15416672D01*
X-16456230Y15463797D01*
X-16441981Y15507341D01*
X-16428862Y15547446D01*
X-16416828Y15584256D01*
X-16405833Y15617912D01*
X-16395832Y15648559D01*
X-16386781Y15676337D01*
X-16378634Y15701391D01*
X-16371347Y15723863D01*
X-16364873Y15743894D01*
X-16359168Y15761629D01*
X-16354187Y15777210D01*
X-16349884Y15790780D01*
X-16346215Y15802480D01*
X-16343135Y15812455D01*
X-16340598Y15820846D01*
X-16338558Y15827796D01*
X-16336972Y15833448D01*
X-16335794Y15837945D01*
X-16334979Y15841430D01*
X-16334481Y15844044D01*
X-16334256Y15845931D01*
X-16334259Y15847233D01*
X-16334444Y15848094D01*
X-16334766Y15848655D01*
X-16334995Y15848897D01*
X-16336907Y15850351D01*
X-16341853Y15853995D01*
X-16349691Y15859726D01*
X-16360278Y15867439D01*
X-16373470Y15877032D01*
X-16389124Y15888400D01*
X-16407099Y15901441D01*
X-16427250Y15916051D01*
X-16449435Y15932126D01*
X-16473511Y15949562D01*
X-16499335Y15968257D01*
X-16526764Y15988106D01*
X-16555655Y16009006D01*
X-16585866Y16030854D01*
X-16617253Y16053546D01*
X-16649673Y16076978D01*
X-16682984Y16101047D01*
X-16700167Y16113460D01*
X-16733847Y16137791D01*
X-16766695Y16161523D01*
X-16798568Y16184555D01*
X-16829326Y16206784D01*
X-16858825Y16228107D01*
X-16886925Y16248421D01*
X-16913483Y16267624D01*
X-16938357Y16285613D01*
X-16961405Y16302285D01*
X-16982485Y16317538D01*
X-17001456Y16331268D01*
X-17018175Y16343374D01*
X-17032501Y16353753D01*
X-17044291Y16362301D01*
X-17053403Y16368917D01*
X-17059696Y16373497D01*
X-17063028Y16375939D01*
X-17063543Y16376330D01*
X-17061802Y16376507D01*
X-17056276Y16376678D01*
X-17047098Y16376839D01*
X-17034401Y16376993D01*
X-17018319Y16377136D01*
X-16998984Y16377271D01*
X-16976531Y16377395D01*
X-16951092Y16377508D01*
X-16922801Y16377610D01*
X-16891791Y16377701D01*
X-16858195Y16377779D01*
X-16822147Y16377845D01*
X-16783779Y16377897D01*
X-16743226Y16377937D01*
X-16700620Y16377962D01*
X-16656094Y16377972D01*
X-16611931Y16377968D01*
X-16158429Y16377858D01*
X-16019345Y16808906D01*
X-16006494Y16848709D01*
X-15993954Y16887509D01*
X-15981776Y16925140D01*
X-15970015Y16961441D01*
X-15958724Y16996248D01*
X-15947956Y17029396D01*
X-15937765Y17060722D01*
X-15928204Y17090063D01*
X-15919327Y17117256D01*
X-15911187Y17142136D01*
X-15903838Y17164541D01*
X-15897332Y17184306D01*
X-15891724Y17201268D01*
X-15887067Y17215264D01*
X-15883413Y17226129D01*
X-15880818Y17233702D01*
X-15879334Y17237817D01*
X-15878987Y17238558D01*
X-15878276Y17236590D01*
G37*
G36*
X-11203532Y15528121D02*
G01*
X-11201678Y15522587D01*
X-11198730Y15513652D01*
X-11194742Y15501483D01*
X-11189767Y15486245D01*
X-11183859Y15468103D01*
X-11177071Y15447221D01*
X-11169457Y15423765D01*
X-11161071Y15397901D01*
X-11151965Y15369793D01*
X-11142194Y15339606D01*
X-11131812Y15307506D01*
X-11120870Y15273657D01*
X-11109424Y15238226D01*
X-11097527Y15201377D01*
X-11085231Y15163275D01*
X-11072592Y15124085D01*
X-11064381Y15098617D01*
X-10925758Y14668557D01*
X-10471914Y14669162D01*
X-10424798Y14669217D01*
X-10379626Y14669255D01*
X-10336522Y14669276D01*
X-10295610Y14669281D01*
X-10257017Y14669269D01*
X-10220866Y14669241D01*
X-10187283Y14669197D01*
X-10156392Y14669138D01*
X-10128318Y14669064D01*
X-10103187Y14668975D01*
X-10081122Y14668872D01*
X-10062249Y14668755D01*
X-10046693Y14668624D01*
X-10034578Y14668479D01*
X-10026029Y14668321D01*
X-10021171Y14668151D01*
X-10020030Y14668002D01*
X-10021779Y14666705D01*
X-10026563Y14663217D01*
X-10034239Y14657640D01*
X-10044666Y14650076D01*
X-10057701Y14640628D01*
X-10073203Y14629400D01*
X-10091030Y14616493D01*
X-10111040Y14602011D01*
X-10133090Y14586056D01*
X-10157039Y14568731D01*
X-10182745Y14550139D01*
X-10210066Y14530382D01*
X-10238859Y14509563D01*
X-10268984Y14487784D01*
X-10300298Y14465150D01*
X-10332658Y14441761D01*
X-10365924Y14417721D01*
X-10383475Y14405039D01*
X-10417185Y14380681D01*
X-10450080Y14356909D01*
X-10482017Y14333828D01*
X-10512854Y14311541D01*
X-10542447Y14290151D01*
X-10570653Y14269761D01*
X-10597330Y14250476D01*
X-10622333Y14232398D01*
X-10645520Y14215632D01*
X-10666748Y14200279D01*
X-10685874Y14186445D01*
X-10702755Y14174233D01*
X-10717247Y14163745D01*
X-10729208Y14155086D01*
X-10738494Y14148359D01*
X-10744963Y14143667D01*
X-10748471Y14141114D01*
X-10749072Y14140669D01*
X-10749514Y14140293D01*
X-10749872Y14139790D01*
X-10750100Y14139020D01*
X-10750155Y14137840D01*
X-10749991Y14136106D01*
X-10749564Y14133677D01*
X-10748827Y14130410D01*
X-10747737Y14126163D01*
X-10746248Y14120792D01*
X-10744315Y14114156D01*
X-10741894Y14106111D01*
X-10738939Y14096516D01*
X-10735406Y14085227D01*
X-10731249Y14072103D01*
X-10726424Y14057001D01*
X-10720885Y14039777D01*
X-10714588Y14020291D01*
X-10707488Y13998398D01*
X-10699539Y13973957D01*
X-10690697Y13946825D01*
X-10680917Y13916860D01*
X-10670153Y13883918D01*
X-10658362Y13847859D01*
X-10645497Y13808537D01*
X-10631514Y13765813D01*
X-10616368Y13719542D01*
X-10612421Y13707486D01*
X-10599408Y13667724D01*
X-10586719Y13628944D01*
X-10574408Y13591310D01*
X-10562530Y13554986D01*
X-10551138Y13520137D01*
X-10540285Y13486928D01*
X-10530026Y13455524D01*
X-10520415Y13426089D01*
X-10511504Y13398788D01*
X-10503348Y13373786D01*
X-10496001Y13351248D01*
X-10489516Y13331338D01*
X-10483947Y13314220D01*
X-10479348Y13300061D01*
X-10475773Y13289023D01*
X-10473274Y13281273D01*
X-10471907Y13276975D01*
X-10471651Y13276110D01*
X-10473209Y13277122D01*
X-10477791Y13280345D01*
X-10485260Y13285677D01*
X-10495475Y13293018D01*
X-10508297Y13302266D01*
X-10523587Y13313321D01*
X-10541207Y13326082D01*
X-10561016Y13340447D01*
X-10582876Y13356315D01*
X-10606647Y13373586D01*
X-10632191Y13392158D01*
X-10659368Y13411930D01*
X-10688039Y13432802D01*
X-10718065Y13454671D01*
X-10749307Y13477438D01*
X-10781625Y13501001D01*
X-10814881Y13525259D01*
X-10838072Y13542182D01*
X-11204502Y13809618D01*
X-11210824Y13805143D01*
X-11212980Y13803582D01*
X-11218157Y13799817D01*
X-11226211Y13793951D01*
X-11236998Y13786091D01*
X-11250374Y13776341D01*
X-11266195Y13764806D01*
X-11284316Y13751592D01*
X-11304595Y13736803D01*
X-11326885Y13720544D01*
X-11351045Y13702921D01*
X-11376928Y13684039D01*
X-11404392Y13664003D01*
X-11433292Y13642918D01*
X-11463485Y13620889D01*
X-11494826Y13598020D01*
X-11527170Y13574418D01*
X-11560375Y13550188D01*
X-11575781Y13538945D01*
X-11609268Y13514508D01*
X-11641928Y13490676D01*
X-11673618Y13467554D01*
X-11704198Y13445245D01*
X-11733524Y13423852D01*
X-11761456Y13403478D01*
X-11787851Y13384227D01*
X-11812567Y13366203D01*
X-11835463Y13349508D01*
X-11856397Y13334247D01*
X-11875227Y13320522D01*
X-11891810Y13308438D01*
X-11906006Y13298097D01*
X-11917673Y13289603D01*
X-11926668Y13283059D01*
X-11932849Y13278569D01*
X-11936076Y13276236D01*
X-11936533Y13275913D01*
X-11936603Y13277273D01*
X-11935580Y13281823D01*
X-11933610Y13289035D01*
X-11930838Y13298383D01*
X-11927412Y13309339D01*
X-11926464Y13312286D01*
X-11924662Y13317836D01*
X-11921703Y13326916D01*
X-11917652Y13339332D01*
X-11912571Y13354889D01*
X-11906524Y13373395D01*
X-11899575Y13394653D01*
X-11891787Y13418472D01*
X-11883224Y13444656D01*
X-11873948Y13473011D01*
X-11864025Y13503344D01*
X-11853516Y13535461D01*
X-11842486Y13569166D01*
X-11830997Y13604267D01*
X-11819114Y13640570D01*
X-11806900Y13677879D01*
X-11794419Y13716002D01*
X-11785418Y13743489D01*
X-11770370Y13789458D01*
X-11756504Y13831843D01*
X-11743777Y13870782D01*
X-11732144Y13906414D01*
X-11721563Y13938875D01*
X-11711988Y13968304D01*
X-11703377Y13994838D01*
X-11695685Y14018616D01*
X-11688868Y14039775D01*
X-11682882Y14058452D01*
X-11677684Y14074787D01*
X-11673229Y14088917D01*
X-11669473Y14100980D01*
X-11666373Y14111112D01*
X-11663885Y14119454D01*
X-11661965Y14126141D01*
X-11660568Y14131313D01*
X-11659652Y14135106D01*
X-11659171Y14137659D01*
X-11659082Y14139110D01*
X-11659229Y14139543D01*
X-11661045Y14140911D01*
X-11665895Y14144471D01*
X-11673637Y14150119D01*
X-11684130Y14157754D01*
X-11697230Y14167270D01*
X-11712797Y14178567D01*
X-11730687Y14191540D01*
X-11750758Y14206087D01*
X-11772869Y14222105D01*
X-11796877Y14239490D01*
X-11822640Y14258141D01*
X-11850016Y14277953D01*
X-11878863Y14298824D01*
X-11909039Y14320652D01*
X-11940401Y14343332D01*
X-11972808Y14366763D01*
X-12006116Y14390841D01*
X-12024365Y14404030D01*
X-12058090Y14428405D01*
X-12090983Y14452183D01*
X-12122903Y14475261D01*
X-12153708Y14497538D01*
X-12183257Y14518909D01*
X-12211407Y14539274D01*
X-12238018Y14558528D01*
X-12262946Y14576570D01*
X-12286051Y14593296D01*
X-12307190Y14608605D01*
X-12326222Y14622393D01*
X-12343006Y14634558D01*
X-12357398Y14644997D01*
X-12369258Y14653607D01*
X-12378444Y14660287D01*
X-12384814Y14664933D01*
X-12388226Y14667442D01*
X-12388790Y14667873D01*
X-12387078Y14668095D01*
X-12381499Y14668301D01*
X-12372104Y14668490D01*
X-12358945Y14668663D01*
X-12342073Y14668820D01*
X-12321540Y14668959D01*
X-12297397Y14669081D01*
X-12269696Y14669187D01*
X-12238487Y14669274D01*
X-12203823Y14669344D01*
X-12165755Y14669397D01*
X-12124334Y14669431D01*
X-12079612Y14669448D01*
X-12031640Y14669446D01*
X-11980469Y14669426D01*
X-11937206Y14669396D01*
X-11483662Y14669031D01*
X-11344568Y15100268D01*
X-11331719Y15140080D01*
X-11319181Y15178889D01*
X-11307005Y15216529D01*
X-11295247Y15252839D01*
X-11283958Y15287654D01*
X-11273192Y15320811D01*
X-11263004Y15352147D01*
X-11253446Y15381497D01*
X-11244571Y15408699D01*
X-11236433Y15433588D01*
X-11229085Y15456002D01*
X-11222582Y15475777D01*
X-11216975Y15492749D01*
X-11212319Y15506755D01*
X-11208666Y15517632D01*
X-11206071Y15525215D01*
X-11204586Y15529342D01*
X-11204239Y15530091D01*
X-11203532Y15528121D01*
G37*
G36*
X-13852876Y15532222D02*
G01*
X-13851025Y15526942D01*
X-13848081Y15518259D01*
X-13844098Y15506336D01*
X-13839128Y15491337D01*
X-13833226Y15473425D01*
X-13826443Y15452764D01*
X-13818835Y15429517D01*
X-13810453Y15403848D01*
X-13801352Y15375920D01*
X-13791585Y15345896D01*
X-13781205Y15313941D01*
X-13770266Y15280218D01*
X-13758820Y15244891D01*
X-13746922Y15208122D01*
X-13734624Y15170075D01*
X-13721980Y15130915D01*
X-13713257Y15103875D01*
X-13574149Y14672476D01*
X-13121068Y14673237D01*
X-13079221Y14673303D01*
X-13038417Y14673358D01*
X-12998830Y14673403D01*
X-12960630Y14673438D01*
X-12923992Y14673462D01*
X-12889086Y14673476D01*
X-12856086Y14673480D01*
X-12825165Y14673474D01*
X-12796494Y14673459D01*
X-12770247Y14673434D01*
X-12746595Y14673399D01*
X-12725711Y14673355D01*
X-12707768Y14673302D01*
X-12692939Y14673239D01*
X-12681395Y14673167D01*
X-12673309Y14673087D01*
X-12668854Y14672998D01*
X-12667986Y14672933D01*
X-12669551Y14671703D01*
X-12674152Y14668280D01*
X-12681649Y14662765D01*
X-12691903Y14655260D01*
X-12704774Y14645868D01*
X-12720120Y14634688D01*
X-12737804Y14621824D01*
X-12757683Y14607376D01*
X-12779619Y14591447D01*
X-12803471Y14574138D01*
X-12829100Y14555550D01*
X-12856366Y14535786D01*
X-12885127Y14514946D01*
X-12915245Y14493133D01*
X-12946580Y14470448D01*
X-12978991Y14446993D01*
X-13012339Y14422869D01*
X-13034370Y14406937D01*
X-13068252Y14382430D01*
X-13101288Y14358521D01*
X-13133339Y14335311D01*
X-13164263Y14312904D01*
X-13193921Y14291401D01*
X-13222173Y14270903D01*
X-13248879Y14251512D01*
X-13273899Y14233331D01*
X-13297093Y14216462D01*
X-13318320Y14201005D01*
X-13337441Y14187063D01*
X-13354316Y14174739D01*
X-13368805Y14164133D01*
X-13380767Y14155347D01*
X-13390064Y14148485D01*
X-13396553Y14143646D01*
X-13400097Y14140934D01*
X-13400754Y14140360D01*
X-13400155Y14138405D01*
X-13398404Y14132929D01*
X-13395566Y14124136D01*
X-13391709Y14112230D01*
X-13386898Y14097415D01*
X-13381201Y14079894D01*
X-13374683Y14059871D01*
X-13367413Y14037549D01*
X-13359455Y14013132D01*
X-13350876Y13986824D01*
X-13341744Y13958828D01*
X-13332124Y13929348D01*
X-13322084Y13898587D01*
X-13311689Y13866750D01*
X-13301006Y13834039D01*
X-13290102Y13800659D01*
X-13279044Y13766813D01*
X-13267897Y13732705D01*
X-13256728Y13698538D01*
X-13245605Y13664516D01*
X-13234593Y13630843D01*
X-13223759Y13597722D01*
X-13213170Y13565356D01*
X-13202891Y13533950D01*
X-13192991Y13503708D01*
X-13183534Y13474832D01*
X-13174588Y13447526D01*
X-13166220Y13421994D01*
X-13158495Y13398440D01*
X-13151481Y13377067D01*
X-13145243Y13358079D01*
X-13139849Y13341680D01*
X-13135365Y13328073D01*
X-13131857Y13317461D01*
X-13131420Y13316142D01*
X-13127769Y13304873D01*
X-13124760Y13295079D01*
X-13122542Y13287282D01*
X-13121260Y13282006D01*
X-13121062Y13279775D01*
X-13121210Y13279760D01*
X-13122985Y13281025D01*
X-13127784Y13284498D01*
X-13135467Y13290076D01*
X-13145894Y13297657D01*
X-13158922Y13307137D01*
X-13174412Y13318414D01*
X-13192223Y13331386D01*
X-13212214Y13345951D01*
X-13234243Y13362004D01*
X-13258172Y13379445D01*
X-13283858Y13398170D01*
X-13311162Y13418077D01*
X-13339941Y13439064D01*
X-13370057Y13461027D01*
X-13401367Y13483864D01*
X-13433731Y13507473D01*
X-13467008Y13531751D01*
X-13488289Y13547277D01*
X-13853061Y13813433D01*
X-14198525Y13561292D01*
X-14231673Y13537099D01*
X-14264147Y13513397D01*
X-14295794Y13490299D01*
X-14326458Y13467919D01*
X-14355983Y13446369D01*
X-14384214Y13425764D01*
X-14410996Y13406216D01*
X-14436173Y13387840D01*
X-14459591Y13370748D01*
X-14481094Y13355053D01*
X-14500526Y13340869D01*
X-14517732Y13328310D01*
X-14532558Y13317489D01*
X-14544847Y13308518D01*
X-14554445Y13301513D01*
X-14561196Y13296584D01*
X-14564945Y13293847D01*
X-14565051Y13293770D01*
X-14572774Y13288235D01*
X-14579225Y13283813D01*
X-14583831Y13280881D01*
X-14586017Y13279817D01*
X-14586118Y13279890D01*
X-14585518Y13281865D01*
X-14583751Y13287399D01*
X-14580872Y13296327D01*
X-14576935Y13308483D01*
X-14571994Y13323703D01*
X-14566102Y13341821D01*
X-14559313Y13362673D01*
X-14551681Y13386093D01*
X-14543260Y13411916D01*
X-14534103Y13439978D01*
X-14524266Y13470113D01*
X-14513800Y13502156D01*
X-14502761Y13535942D01*
X-14491202Y13571306D01*
X-14479177Y13608083D01*
X-14466739Y13646108D01*
X-14453943Y13685216D01*
X-14445829Y13710007D01*
X-14432840Y13749714D01*
X-14420183Y13788449D01*
X-14407912Y13826046D01*
X-14396082Y13862340D01*
X-14384745Y13897164D01*
X-14373954Y13930354D01*
X-14363764Y13961744D01*
X-14354228Y13991168D01*
X-14345399Y14018461D01*
X-14337331Y14043457D01*
X-14330078Y14065991D01*
X-14323692Y14085898D01*
X-14318228Y14103011D01*
X-14313738Y14117166D01*
X-14310277Y14128197D01*
X-14307898Y14135938D01*
X-14306654Y14140224D01*
X-14306477Y14141073D01*
X-14308130Y14142433D01*
X-14312819Y14145985D01*
X-14320403Y14151624D01*
X-14330739Y14159249D01*
X-14343687Y14168757D01*
X-14359106Y14180043D01*
X-14376853Y14193007D01*
X-14396788Y14207544D01*
X-14418770Y14223551D01*
X-14442656Y14240927D01*
X-14468306Y14259568D01*
X-14495579Y14279371D01*
X-14524333Y14300233D01*
X-14554426Y14322052D01*
X-14585718Y14344724D01*
X-14618067Y14368147D01*
X-14651332Y14392218D01*
X-14669633Y14405453D01*
X-14703370Y14429851D01*
X-14736291Y14453661D01*
X-14768254Y14476781D01*
X-14799115Y14499107D01*
X-14828733Y14520535D01*
X-14856964Y14540962D01*
X-14883664Y14560286D01*
X-14908693Y14578402D01*
X-14931906Y14595206D01*
X-14953162Y14610597D01*
X-14972316Y14624470D01*
X-14989227Y14636722D01*
X-15003752Y14647250D01*
X-15015748Y14655950D01*
X-15025072Y14662719D01*
X-15031581Y14667454D01*
X-15035132Y14670050D01*
X-15035766Y14670524D01*
X-15035981Y14670869D01*
X-15035634Y14671187D01*
X-15034580Y14671479D01*
X-15032674Y14671745D01*
X-15029770Y14671987D01*
X-15025723Y14672205D01*
X-15020389Y14672399D01*
X-15013621Y14672572D01*
X-15005275Y14672722D01*
X-14995206Y14672852D01*
X-14983267Y14672961D01*
X-14969315Y14673051D01*
X-14953204Y14673122D01*
X-14934788Y14673176D01*
X-14913923Y14673212D01*
X-14890463Y14673232D01*
X-14864263Y14673237D01*
X-14835177Y14673227D01*
X-14803062Y14673202D01*
X-14767771Y14673165D01*
X-14729159Y14673114D01*
X-14687081Y14673053D01*
X-14641392Y14672980D01*
X-14591946Y14672897D01*
X-14585929Y14672886D01*
X-14132174Y14672106D01*
X-13993484Y15102351D01*
X-13980650Y15142155D01*
X-13968126Y15180977D01*
X-13955966Y15218650D01*
X-13944223Y15255010D01*
X-13932952Y15289892D01*
X-13922204Y15323131D01*
X-13912035Y15354561D01*
X-13902497Y15384019D01*
X-13893644Y15411337D01*
X-13885529Y15436353D01*
X-13878206Y15458899D01*
X-13871729Y15478812D01*
X-13866151Y15495927D01*
X-13861525Y15510077D01*
X-13857905Y15521098D01*
X-13855345Y15528826D01*
X-13853898Y15533095D01*
X-13853580Y15533935D01*
X-13852876Y15532222D01*
G37*
G36*
X-16335060Y19846042D02*
G01*
X-16333230Y19840637D01*
X-16330305Y19831831D01*
X-16326340Y19819787D01*
X-16321388Y19804670D01*
X-16315502Y19786644D01*
X-16308734Y19765873D01*
X-16301140Y19742521D01*
X-16292771Y19716753D01*
X-16283681Y19688732D01*
X-16273924Y19658623D01*
X-16263552Y19626590D01*
X-16252619Y19592797D01*
X-16241179Y19557409D01*
X-16229284Y19520589D01*
X-16216988Y19482502D01*
X-16204345Y19443312D01*
X-16195705Y19416518D01*
X-16056646Y18985165D01*
X-15602045Y18986415D01*
X-15550396Y18986553D01*
X-15502543Y18986672D01*
X-15458363Y18986773D01*
X-15417734Y18986854D01*
X-15380534Y18986916D01*
X-15346639Y18986958D01*
X-15315928Y18986980D01*
X-15288278Y18986982D01*
X-15263566Y18986962D01*
X-15241670Y18986922D01*
X-15222468Y18986860D01*
X-15205836Y18986776D01*
X-15191652Y18986670D01*
X-15179795Y18986542D01*
X-15170140Y18986392D01*
X-15162566Y18986218D01*
X-15156951Y18986021D01*
X-15153171Y18985801D01*
X-15151105Y18985557D01*
X-15150629Y18985288D01*
X-15150651Y18985269D01*
X-15152516Y18983914D01*
X-15157415Y18980366D01*
X-15165207Y18974728D01*
X-15175748Y18967103D01*
X-15188897Y18957592D01*
X-15204513Y18946300D01*
X-15222452Y18933328D01*
X-15242574Y18918780D01*
X-15264737Y18902757D01*
X-15288797Y18885362D01*
X-15314614Y18866698D01*
X-15342046Y18846868D01*
X-15370950Y18825974D01*
X-15401184Y18804120D01*
X-15432607Y18781406D01*
X-15465077Y18757937D01*
X-15498452Y18733815D01*
X-15518462Y18719352D01*
X-15552267Y18694909D01*
X-15585225Y18671061D01*
X-15617197Y18647908D01*
X-15648042Y18625554D01*
X-15677618Y18604100D01*
X-15705787Y18583649D01*
X-15732407Y18564304D01*
X-15757339Y18546166D01*
X-15780440Y18529339D01*
X-15801572Y18513923D01*
X-15820594Y18500023D01*
X-15837364Y18487739D01*
X-15851743Y18477175D01*
X-15863591Y18468433D01*
X-15872766Y18461615D01*
X-15879129Y18456823D01*
X-15882539Y18454160D01*
X-15883109Y18453627D01*
X-15882511Y18451586D01*
X-15880747Y18445988D01*
X-15877871Y18436996D01*
X-15873935Y18424778D01*
X-15868995Y18409499D01*
X-15863104Y18391323D01*
X-15856315Y18370418D01*
X-15848684Y18346947D01*
X-15840263Y18321078D01*
X-15831107Y18292975D01*
X-15821269Y18262803D01*
X-15810804Y18230730D01*
X-15799765Y18196919D01*
X-15788207Y18161537D01*
X-15776183Y18124749D01*
X-15763746Y18086721D01*
X-15750952Y18047618D01*
X-15743079Y18023567D01*
X-15730100Y17983907D01*
X-15717449Y17945227D01*
X-15705180Y17907693D01*
X-15693349Y17871470D01*
X-15682007Y17836723D01*
X-15671209Y17803617D01*
X-15661008Y17772318D01*
X-15651458Y17742990D01*
X-15642614Y17715799D01*
X-15634528Y17690909D01*
X-15627254Y17668487D01*
X-15620846Y17648696D01*
X-15615358Y17631704D01*
X-15610844Y17617673D01*
X-15607356Y17606771D01*
X-15604949Y17599161D01*
X-15603677Y17595009D01*
X-15603481Y17594246D01*
X-15605084Y17595248D01*
X-15609711Y17598462D01*
X-15617222Y17603785D01*
X-15627478Y17611117D01*
X-15640338Y17620357D01*
X-15655665Y17631402D01*
X-15673317Y17644153D01*
X-15693155Y17658508D01*
X-15715040Y17674365D01*
X-15738831Y17691623D01*
X-15764390Y17710182D01*
X-15791577Y17729939D01*
X-15820251Y17750795D01*
X-15850274Y17772646D01*
X-15881506Y17795394D01*
X-15913807Y17818935D01*
X-15947037Y17843169D01*
X-15969059Y17859237D01*
X-16002837Y17883884D01*
X-16035785Y17907915D01*
X-16067761Y17931229D01*
X-16098627Y17953723D01*
X-16128241Y17975296D01*
X-16156464Y17995846D01*
X-16183155Y18015270D01*
X-16208175Y18033468D01*
X-16231382Y18050337D01*
X-16252637Y18065775D01*
X-16271799Y18079680D01*
X-16288728Y18091951D01*
X-16303284Y18102486D01*
X-16315327Y18111182D01*
X-16324717Y18117937D01*
X-16331313Y18122651D01*
X-16334975Y18125220D01*
X-16335714Y18125692D01*
X-16337418Y18124554D01*
X-16342146Y18121206D01*
X-16349757Y18115750D01*
X-16360110Y18108290D01*
X-16373066Y18098928D01*
X-16388482Y18087764D01*
X-16406220Y18074902D01*
X-16426138Y18060443D01*
X-16448096Y18044490D01*
X-16471952Y18027145D01*
X-16497568Y18008511D01*
X-16524801Y17988688D01*
X-16553512Y17967779D01*
X-16583560Y17945888D01*
X-16614805Y17923114D01*
X-16647105Y17899562D01*
X-16680320Y17875332D01*
X-16700637Y17860507D01*
X-16734352Y17835903D01*
X-16767244Y17811902D01*
X-16799172Y17788607D01*
X-16829994Y17766122D01*
X-16859569Y17744548D01*
X-16887756Y17723989D01*
X-16914414Y17704548D01*
X-16939403Y17686327D01*
X-16962579Y17669430D01*
X-16983804Y17653960D01*
X-17002935Y17640018D01*
X-17019831Y17627708D01*
X-17034351Y17617134D01*
X-17046355Y17608397D01*
X-17055700Y17601601D01*
X-17062247Y17596849D01*
X-17065853Y17594243D01*
X-17066545Y17593754D01*
X-17068216Y17593456D01*
X-17068045Y17596173D01*
X-17067869Y17596886D01*
X-17067154Y17599163D01*
X-17065273Y17604996D01*
X-17062283Y17614217D01*
X-17058236Y17626660D01*
X-17053188Y17642158D01*
X-17047194Y17660542D01*
X-17040308Y17681645D01*
X-17032585Y17705300D01*
X-17024080Y17731339D01*
X-17014847Y17759596D01*
X-17004941Y17789902D01*
X-16994417Y17822089D01*
X-16983329Y17855992D01*
X-16971732Y17891442D01*
X-16959681Y17928271D01*
X-16947231Y17966313D01*
X-16934436Y18005400D01*
X-16927495Y18026600D01*
X-16914553Y18066136D01*
X-16901936Y18104697D01*
X-16889700Y18142115D01*
X-16877896Y18178225D01*
X-16866581Y18212862D01*
X-16855808Y18245858D01*
X-16845631Y18277047D01*
X-16836104Y18306265D01*
X-16827282Y18333343D01*
X-16819217Y18358118D01*
X-16811966Y18380422D01*
X-16805580Y18400089D01*
X-16800116Y18416954D01*
X-16795626Y18430849D01*
X-16792165Y18441610D01*
X-16789786Y18449070D01*
X-16788545Y18453064D01*
X-16788367Y18453721D01*
X-16789935Y18455048D01*
X-16794541Y18458565D01*
X-16802044Y18464171D01*
X-16812303Y18471762D01*
X-16825178Y18481237D01*
X-16840529Y18492493D01*
X-16858215Y18505428D01*
X-16878096Y18519940D01*
X-16900030Y18535926D01*
X-16923879Y18553284D01*
X-16949501Y18571911D01*
X-16976756Y18591706D01*
X-17005503Y18612566D01*
X-17035602Y18634388D01*
X-17066913Y18657071D01*
X-17099295Y18680512D01*
X-17132607Y18704609D01*
X-17153000Y18719352D01*
X-17186841Y18743811D01*
X-17219860Y18767677D01*
X-17251917Y18790848D01*
X-17282868Y18813221D01*
X-17312573Y18834693D01*
X-17340889Y18855161D01*
X-17367674Y18874524D01*
X-17392786Y18892678D01*
X-17416084Y18909521D01*
X-17437424Y18924950D01*
X-17456667Y18938862D01*
X-17473668Y18951155D01*
X-17488287Y18961727D01*
X-17500382Y18970474D01*
X-17509810Y18977294D01*
X-17516429Y18982085D01*
X-17520098Y18984743D01*
X-17520821Y18985269D01*
X-17520450Y18985539D01*
X-17518497Y18985785D01*
X-17514839Y18986007D01*
X-17509354Y18986206D01*
X-17501918Y18986381D01*
X-17492410Y18986533D01*
X-17480708Y18986663D01*
X-17466687Y18986770D01*
X-17450227Y18986855D01*
X-17431204Y18986918D01*
X-17409496Y18986960D01*
X-17384981Y18986981D01*
X-17357535Y18986981D01*
X-17327037Y18986960D01*
X-17293364Y18986920D01*
X-17256393Y18986859D01*
X-17216002Y18986779D01*
X-17172068Y18986680D01*
X-17124469Y18986562D01*
X-17073083Y18986425D01*
X-17069468Y18986415D01*
X-16614896Y18985165D01*
X-16475809Y19416528D01*
X-16462960Y19456365D01*
X-16450423Y19495209D01*
X-16438251Y19532895D01*
X-16426499Y19569261D01*
X-16415218Y19604140D01*
X-16404462Y19637370D01*
X-16394286Y19668785D01*
X-16384741Y19698222D01*
X-16375881Y19725517D01*
X-16367760Y19750506D01*
X-16360431Y19773023D01*
X-16353947Y19792906D01*
X-16348362Y19809990D01*
X-16343728Y19824110D01*
X-16340100Y19835104D01*
X-16337530Y19842805D01*
X-16336071Y19847051D01*
X-16335743Y19847880D01*
X-16335060Y19846042D01*
G37*
G36*
X-8710083Y19835202D02*
G01*
X-8708246Y19829958D01*
X-8705316Y19821311D01*
X-8701346Y19809423D01*
X-8696389Y19794460D01*
X-8690500Y19776583D01*
X-8683730Y19755956D01*
X-8676133Y19732744D01*
X-8667763Y19707109D01*
X-8658673Y19679214D01*
X-8648917Y19649224D01*
X-8638547Y19617301D01*
X-8627617Y19583609D01*
X-8616180Y19548312D01*
X-8604290Y19511573D01*
X-8592000Y19473555D01*
X-8579363Y19434422D01*
X-8570802Y19407887D01*
X-8557959Y19368072D01*
X-8545431Y19329245D01*
X-8533270Y19291569D01*
X-8521531Y19255211D01*
X-8510266Y19220334D01*
X-8499528Y19187103D01*
X-8489372Y19155683D01*
X-8479850Y19126239D01*
X-8471015Y19098935D01*
X-8462921Y19073935D01*
X-8455621Y19051405D01*
X-8449169Y19031509D01*
X-8443617Y19014411D01*
X-8439019Y19000277D01*
X-8435428Y18989271D01*
X-8432898Y18981557D01*
X-8431482Y18977300D01*
X-8431183Y18976465D01*
X-8429186Y18976400D01*
X-8423444Y18976338D01*
X-8414129Y18976278D01*
X-8401414Y18976221D01*
X-8385471Y18976168D01*
X-8366474Y18976118D01*
X-8344595Y18976071D01*
X-8320007Y18976028D01*
X-8292884Y18975990D01*
X-8263397Y18975956D01*
X-8231720Y18975926D01*
X-8198025Y18975901D01*
X-8162486Y18975882D01*
X-8125274Y18975867D01*
X-8086563Y18975858D01*
X-8046527Y18975855D01*
X-8005336Y18975857D01*
X-7977196Y18975862D01*
X-7927215Y18975872D01*
X-7881008Y18975877D01*
X-7838431Y18975876D01*
X-7799341Y18975867D01*
X-7763595Y18975851D01*
X-7731046Y18975826D01*
X-7701553Y18975791D01*
X-7674971Y18975746D01*
X-7651156Y18975689D01*
X-7629964Y18975619D01*
X-7611251Y18975536D01*
X-7594873Y18975439D01*
X-7580687Y18975326D01*
X-7568547Y18975197D01*
X-7558312Y18975051D01*
X-7549835Y18974886D01*
X-7542974Y18974703D01*
X-7537585Y18974499D01*
X-7533523Y18974275D01*
X-7530645Y18974029D01*
X-7528807Y18973760D01*
X-7527864Y18973468D01*
X-7527674Y18973151D01*
X-7527836Y18972966D01*
X-7529769Y18971553D01*
X-7534735Y18967947D01*
X-7542590Y18962252D01*
X-7553193Y18954571D01*
X-7566400Y18945007D01*
X-7582068Y18933663D01*
X-7600056Y18920644D01*
X-7620219Y18906052D01*
X-7642416Y18889990D01*
X-7666503Y18872563D01*
X-7692339Y18853872D01*
X-7719779Y18834022D01*
X-7748681Y18813116D01*
X-7778902Y18791256D01*
X-7810301Y18768547D01*
X-7842733Y18745092D01*
X-7876056Y18720994D01*
X-7893962Y18708046D01*
X-7927660Y18683671D01*
X-7960519Y18659890D01*
X-7992396Y18636805D01*
X-8023151Y18614520D01*
X-8052642Y18593137D01*
X-8080727Y18572759D01*
X-8107266Y18553489D01*
X-8132118Y18535429D01*
X-8155140Y18518683D01*
X-8176193Y18503353D01*
X-8195133Y18489542D01*
X-8211821Y18477353D01*
X-8226115Y18466888D01*
X-8237874Y18458251D01*
X-8246956Y18451544D01*
X-8253220Y18446869D01*
X-8256525Y18444331D01*
X-8257029Y18443884D01*
X-8256508Y18441840D01*
X-8254818Y18436238D01*
X-8252013Y18427244D01*
X-8248146Y18415023D01*
X-8243272Y18399740D01*
X-8237443Y18381562D01*
X-8230713Y18360653D01*
X-8223136Y18337179D01*
X-8214765Y18311304D01*
X-8205654Y18283196D01*
X-8195856Y18253018D01*
X-8185425Y18220937D01*
X-8174414Y18187117D01*
X-8162878Y18151725D01*
X-8150869Y18114925D01*
X-8138441Y18076883D01*
X-8125647Y18037765D01*
X-8117568Y18013082D01*
X-8104580Y17973398D01*
X-8091923Y17934699D01*
X-8079653Y17897150D01*
X-8067822Y17860914D01*
X-8056484Y17826158D01*
X-8045692Y17793045D01*
X-8035499Y17761741D01*
X-8025960Y17732410D01*
X-8017128Y17705216D01*
X-8009055Y17680325D01*
X-8001797Y17657902D01*
X-7995405Y17638110D01*
X-7989934Y17621115D01*
X-7985437Y17607082D01*
X-7981968Y17596175D01*
X-7979580Y17588559D01*
X-7978326Y17584399D01*
X-7978143Y17583626D01*
X-7979785Y17584682D01*
X-7984451Y17587948D01*
X-7992001Y17593324D01*
X-8002295Y17600707D01*
X-8015193Y17609997D01*
X-8030556Y17621092D01*
X-8048242Y17633890D01*
X-8068114Y17648290D01*
X-8090030Y17664190D01*
X-8113852Y17681490D01*
X-8139438Y17700087D01*
X-8166650Y17719879D01*
X-8195347Y17740767D01*
X-8225390Y17762647D01*
X-8256639Y17785419D01*
X-8288953Y17808980D01*
X-8322194Y17833230D01*
X-8344158Y17849262D01*
X-8377932Y17873910D01*
X-8410875Y17897939D01*
X-8442845Y17921247D01*
X-8473704Y17943732D01*
X-8503312Y17965293D01*
X-8531527Y17985829D01*
X-8558210Y18005236D01*
X-8583221Y18023414D01*
X-8606420Y18040261D01*
X-8627667Y18055674D01*
X-8646821Y18069554D01*
X-8663742Y18081796D01*
X-8678291Y18092301D01*
X-8690327Y18100966D01*
X-8699710Y18107690D01*
X-8706300Y18112370D01*
X-8709957Y18114905D01*
X-8710694Y18115355D01*
X-8712386Y18114175D01*
X-8717102Y18110787D01*
X-8724701Y18105292D01*
X-8735043Y18097793D01*
X-8747989Y18088392D01*
X-8763396Y18077192D01*
X-8781125Y18064294D01*
X-8801036Y18049801D01*
X-8822987Y18033815D01*
X-8846839Y18016439D01*
X-8872451Y17997775D01*
X-8899683Y17977925D01*
X-8928394Y17956991D01*
X-8958443Y17935076D01*
X-8989691Y17912282D01*
X-9021996Y17888711D01*
X-9055219Y17864466D01*
X-9075813Y17849435D01*
X-9109529Y17824826D01*
X-9142417Y17800828D01*
X-9174334Y17777543D01*
X-9205141Y17755073D01*
X-9234697Y17733521D01*
X-9262861Y17712990D01*
X-9289493Y17693580D01*
X-9314452Y17675396D01*
X-9337597Y17658539D01*
X-9358788Y17643112D01*
X-9377884Y17629217D01*
X-9394744Y17616957D01*
X-9409228Y17606434D01*
X-9421196Y17597750D01*
X-9430506Y17591008D01*
X-9437019Y17586310D01*
X-9440593Y17583759D01*
X-9441269Y17583300D01*
X-9442976Y17583627D01*
X-9443024Y17583901D01*
X-9442423Y17585852D01*
X-9440656Y17591363D01*
X-9437777Y17600267D01*
X-9433838Y17612400D01*
X-9428896Y17627597D01*
X-9423002Y17645692D01*
X-9416212Y17666521D01*
X-9408579Y17689919D01*
X-9400156Y17715721D01*
X-9390999Y17743761D01*
X-9381160Y17773875D01*
X-9370693Y17805897D01*
X-9359653Y17839663D01*
X-9348094Y17875008D01*
X-9336068Y17911766D01*
X-9323630Y17949773D01*
X-9310834Y17988864D01*
X-9302812Y18013366D01*
X-9289824Y18053053D01*
X-9277169Y18091767D01*
X-9264900Y18129342D01*
X-9253071Y18165612D01*
X-9241735Y18200412D01*
X-9230946Y18233577D01*
X-9220757Y18264941D01*
X-9211223Y18294338D01*
X-9202396Y18321604D01*
X-9194330Y18346571D01*
X-9187079Y18369076D01*
X-9180695Y18388951D01*
X-9175234Y18406033D01*
X-9170748Y18420155D01*
X-9167291Y18431152D01*
X-9164916Y18438858D01*
X-9163677Y18443107D01*
X-9163503Y18443932D01*
X-9165153Y18445282D01*
X-9169839Y18448823D01*
X-9177421Y18454453D01*
X-9187757Y18462068D01*
X-9200707Y18471566D01*
X-9216130Y18482844D01*
X-9233884Y18495801D01*
X-9253829Y18510333D01*
X-9275824Y18526338D01*
X-9299728Y18543714D01*
X-9325399Y18562357D01*
X-9352697Y18582166D01*
X-9381481Y18603037D01*
X-9411611Y18624869D01*
X-9442944Y18647559D01*
X-9475340Y18671004D01*
X-9508658Y18695101D01*
X-9528542Y18709475D01*
X-9562343Y18733907D01*
X-9595313Y18757742D01*
X-9627310Y18780876D01*
X-9658193Y18803207D01*
X-9687821Y18824634D01*
X-9716052Y18845053D01*
X-9742745Y18864363D01*
X-9767758Y18882461D01*
X-9790950Y18899245D01*
X-9812179Y18914612D01*
X-9831305Y18928460D01*
X-9848185Y18940687D01*
X-9862679Y18951190D01*
X-9874645Y18959868D01*
X-9883941Y18966617D01*
X-9890427Y18971335D01*
X-9893960Y18973921D01*
X-9894602Y18974404D01*
X-9892863Y18974578D01*
X-9887344Y18974744D01*
X-9878183Y18974902D01*
X-9865518Y18975051D01*
X-9849488Y18975190D01*
X-9830231Y18975320D01*
X-9807886Y18975439D01*
X-9782590Y18975547D01*
X-9754482Y18975643D01*
X-9723701Y18975728D01*
X-9690384Y18975801D01*
X-9654670Y18975860D01*
X-9616697Y18975907D01*
X-9576604Y18975940D01*
X-9534529Y18975958D01*
X-9490610Y18975962D01*
X-9444986Y18975950D01*
X-9443027Y18975950D01*
X-9393290Y18975929D01*
X-9347322Y18975913D01*
X-9304974Y18975902D01*
X-9266099Y18975897D01*
X-9230547Y18975899D01*
X-9198169Y18975910D01*
X-9168817Y18975930D01*
X-9142341Y18975961D01*
X-9118593Y18976004D01*
X-9097424Y18976059D01*
X-9078684Y18976129D01*
X-9062226Y18976213D01*
X-9047900Y18976313D01*
X-9035557Y18976431D01*
X-9025049Y18976567D01*
X-9016227Y18976723D01*
X-9008941Y18976899D01*
X-9003043Y18977097D01*
X-8998385Y18977317D01*
X-8994816Y18977561D01*
X-8992189Y18977831D01*
X-8990355Y18978126D01*
X-8989164Y18978448D01*
X-8988468Y18978799D01*
X-8988118Y18979179D01*
X-8988051Y18979315D01*
X-8987321Y18981487D01*
X-8985442Y18987221D01*
X-8982470Y18996351D01*
X-8978458Y19008710D01*
X-8973460Y19024131D01*
X-8967531Y19042446D01*
X-8960723Y19063489D01*
X-8953092Y19087092D01*
X-8944690Y19113090D01*
X-8935573Y19141314D01*
X-8925794Y19171597D01*
X-8915406Y19203773D01*
X-8904465Y19237675D01*
X-8893023Y19273136D01*
X-8881135Y19309988D01*
X-8868855Y19348065D01*
X-8856236Y19387199D01*
X-8849204Y19409015D01*
X-8836431Y19448632D01*
X-8823969Y19487268D01*
X-8811874Y19524757D01*
X-8800198Y19560934D01*
X-8788995Y19595632D01*
X-8778318Y19628685D01*
X-8768222Y19659927D01*
X-8758761Y19689193D01*
X-8749987Y19716315D01*
X-8741955Y19741128D01*
X-8734719Y19763466D01*
X-8728331Y19783163D01*
X-8722847Y19800053D01*
X-8718319Y19813969D01*
X-8714801Y19824746D01*
X-8712348Y19832218D01*
X-8711012Y19836218D01*
X-8710773Y19836879D01*
X-8710083Y19835202D01*
G37*
G36*
X-9172626Y17227734D02*
G01*
X-9170788Y17222234D01*
X-9167857Y17213334D01*
X-9163884Y17201200D01*
X-9158924Y17185995D01*
X-9153030Y17167886D01*
X-9146255Y17147037D01*
X-9138654Y17123614D01*
X-9130279Y17097781D01*
X-9121184Y17069703D01*
X-9111422Y17039545D01*
X-9101048Y17007473D01*
X-9090114Y16973651D01*
X-9078673Y16938244D01*
X-9066780Y16901418D01*
X-9054488Y16863337D01*
X-9041851Y16824167D01*
X-9033707Y16798915D01*
X-8895143Y16369205D01*
X-8441214Y16369563D01*
X-8399328Y16369593D01*
X-8358485Y16369617D01*
X-8318857Y16369633D01*
X-8280617Y16369644D01*
X-8243937Y16369648D01*
X-8208990Y16369646D01*
X-8175947Y16369639D01*
X-8144981Y16369625D01*
X-8116265Y16369606D01*
X-8089971Y16369581D01*
X-8066271Y16369550D01*
X-8045337Y16369514D01*
X-8027342Y16369474D01*
X-8012458Y16369428D01*
X-8000858Y16369377D01*
X-7992713Y16369321D01*
X-7988197Y16369261D01*
X-7987286Y16369217D01*
X-7988850Y16368020D01*
X-7993452Y16364632D01*
X-8000949Y16359152D01*
X-8011201Y16351684D01*
X-8024068Y16342329D01*
X-8039409Y16331189D01*
X-8057084Y16318365D01*
X-8076953Y16303959D01*
X-8098874Y16288074D01*
X-8122708Y16270811D01*
X-8148313Y16252271D01*
X-8175550Y16232556D01*
X-8204278Y16211769D01*
X-8234357Y16190012D01*
X-8265645Y16167384D01*
X-8298002Y16143990D01*
X-8331289Y16119930D01*
X-8351220Y16105526D01*
X-8385036Y16081087D01*
X-8418032Y16057235D01*
X-8450065Y16034073D01*
X-8480994Y16011704D01*
X-8510677Y15990230D01*
X-8538970Y15969756D01*
X-8565732Y15950383D01*
X-8590821Y15932216D01*
X-8614094Y15915357D01*
X-8635409Y15899908D01*
X-8654624Y15885975D01*
X-8671596Y15873658D01*
X-8686184Y15863062D01*
X-8698245Y15854289D01*
X-8707637Y15847442D01*
X-8714218Y15842625D01*
X-8717846Y15839941D01*
X-8718537Y15839404D01*
X-8718860Y15838910D01*
X-8719025Y15838048D01*
X-8718989Y15836677D01*
X-8718706Y15834655D01*
X-8718131Y15831841D01*
X-8717219Y15828094D01*
X-8715926Y15823270D01*
X-8714206Y15817230D01*
X-8712015Y15809831D01*
X-8709307Y15800932D01*
X-8706038Y15790391D01*
X-8702162Y15778066D01*
X-8697636Y15763816D01*
X-8692413Y15747499D01*
X-8686449Y15728973D01*
X-8679699Y15708098D01*
X-8672118Y15684731D01*
X-8663662Y15658730D01*
X-8654284Y15629955D01*
X-8643941Y15598262D01*
X-8632587Y15563512D01*
X-8620177Y15525562D01*
X-8606668Y15484270D01*
X-8592012Y15439495D01*
X-8581117Y15406215D01*
X-8568106Y15366464D01*
X-8555424Y15327699D01*
X-8543126Y15290084D01*
X-8531264Y15253784D01*
X-8519893Y15218964D01*
X-8509066Y15185787D01*
X-8498836Y15154418D01*
X-8489257Y15125022D01*
X-8480382Y15097762D01*
X-8472265Y15072803D01*
X-8464959Y15050310D01*
X-8458517Y15030446D01*
X-8452994Y15013376D01*
X-8448443Y14999265D01*
X-8444917Y14988277D01*
X-8442469Y14980575D01*
X-8441154Y14976325D01*
X-8440931Y14975491D01*
X-8442548Y14976567D01*
X-8447189Y14979853D01*
X-8454715Y14985247D01*
X-8464986Y14992649D01*
X-8477863Y15001956D01*
X-8493207Y15013067D01*
X-8510876Y15025881D01*
X-8530733Y15040296D01*
X-8552637Y15056211D01*
X-8576449Y15073524D01*
X-8602028Y15092134D01*
X-8629237Y15111940D01*
X-8657934Y15132839D01*
X-8687980Y15154730D01*
X-8719236Y15177513D01*
X-8751562Y15201085D01*
X-8784818Y15225345D01*
X-8807341Y15241780D01*
X-8848011Y15271457D01*
X-8885635Y15298902D01*
X-8920328Y15324197D01*
X-8952207Y15347426D01*
X-8981386Y15368671D01*
X-9007982Y15388015D01*
X-9032110Y15405540D01*
X-9053886Y15421331D01*
X-9073425Y15435469D01*
X-9090843Y15448037D01*
X-9106254Y15459119D01*
X-9119776Y15468797D01*
X-9131524Y15477154D01*
X-9141612Y15484273D01*
X-9150158Y15490236D01*
X-9157275Y15495127D01*
X-9163080Y15499029D01*
X-9167689Y15502023D01*
X-9171217Y15504194D01*
X-9173779Y15505623D01*
X-9175492Y15506395D01*
X-9176470Y15506591D01*
X-9176683Y15506526D01*
X-9178575Y15505180D01*
X-9183490Y15501626D01*
X-9191286Y15495969D01*
X-9201822Y15488312D01*
X-9214956Y15478757D01*
X-9230545Y15467408D01*
X-9248448Y15454369D01*
X-9268524Y15439743D01*
X-9290630Y15423633D01*
X-9314624Y15406143D01*
X-9340366Y15387376D01*
X-9367712Y15367435D01*
X-9396521Y15346424D01*
X-9426652Y15324445D01*
X-9457963Y15301603D01*
X-9490311Y15278001D01*
X-9523555Y15253742D01*
X-9542732Y15239747D01*
X-9576384Y15215190D01*
X-9609203Y15191249D01*
X-9641047Y15168027D01*
X-9671776Y15145625D01*
X-9701250Y15124145D01*
X-9729327Y15103690D01*
X-9755868Y15084362D01*
X-9780732Y15066264D01*
X-9803778Y15049497D01*
X-9824866Y15034164D01*
X-9843855Y15020367D01*
X-9860604Y15008208D01*
X-9874974Y14997790D01*
X-9886823Y14989215D01*
X-9896011Y14982585D01*
X-9902397Y14978002D01*
X-9905841Y14975569D01*
X-9906435Y14975183D01*
X-9906916Y14976698D01*
X-9906471Y14978612D01*
X-9905761Y14980768D01*
X-9903886Y14986481D01*
X-9900899Y14995586D01*
X-9896856Y15007915D01*
X-9891811Y15023303D01*
X-9885819Y15041582D01*
X-9878934Y15062588D01*
X-9871210Y15086153D01*
X-9862703Y15112110D01*
X-9853466Y15140295D01*
X-9843555Y15170540D01*
X-9833023Y15202679D01*
X-9821926Y15236545D01*
X-9810317Y15271973D01*
X-9798252Y15308796D01*
X-9785784Y15346847D01*
X-9772969Y15385961D01*
X-9765367Y15409162D01*
X-9749238Y15458409D01*
X-9734302Y15504050D01*
X-9720523Y15546198D01*
X-9707865Y15584967D01*
X-9696291Y15620470D01*
X-9685766Y15652821D01*
X-9676251Y15682134D01*
X-9667712Y15708523D01*
X-9660111Y15732101D01*
X-9653413Y15752982D01*
X-9647580Y15771280D01*
X-9642576Y15787108D01*
X-9638366Y15800581D01*
X-9634911Y15811811D01*
X-9632177Y15820914D01*
X-9630126Y15828001D01*
X-9628722Y15833188D01*
X-9627928Y15836588D01*
X-9627709Y15838314D01*
X-9627781Y15838569D01*
X-9629567Y15839915D01*
X-9634388Y15843451D01*
X-9642101Y15849077D01*
X-9652565Y15856688D01*
X-9665637Y15866183D01*
X-9681176Y15877458D01*
X-9699040Y15890410D01*
X-9719087Y15904937D01*
X-9741174Y15920936D01*
X-9765160Y15938304D01*
X-9790903Y15956938D01*
X-9818260Y15976735D01*
X-9847090Y15997592D01*
X-9877251Y16019408D01*
X-9908601Y16042078D01*
X-9940998Y16065500D01*
X-9974300Y16089571D01*
X-9992600Y16102797D01*
X-10026337Y16127180D01*
X-10059249Y16150972D01*
X-10091193Y16174069D01*
X-10122027Y16196370D01*
X-10151610Y16217770D01*
X-10179799Y16238167D01*
X-10206451Y16257458D01*
X-10231426Y16275540D01*
X-10254580Y16292309D01*
X-10275771Y16307664D01*
X-10294857Y16321500D01*
X-10311696Y16333715D01*
X-10326146Y16344206D01*
X-10338064Y16352870D01*
X-10347309Y16359604D01*
X-10353738Y16364305D01*
X-10357210Y16366870D01*
X-10357803Y16367330D01*
X-10357582Y16367620D01*
X-10356191Y16367887D01*
X-10353496Y16368132D01*
X-10349364Y16368357D01*
X-10343658Y16368560D01*
X-10336245Y16368744D01*
X-10326989Y16368909D01*
X-10315757Y16369056D01*
X-10302414Y16369184D01*
X-10286825Y16369296D01*
X-10268856Y16369391D01*
X-10248371Y16369470D01*
X-10225237Y16369534D01*
X-10199318Y16369583D01*
X-10170481Y16369619D01*
X-10138590Y16369642D01*
X-10103511Y16369652D01*
X-10065110Y16369650D01*
X-10023251Y16369637D01*
X-9977801Y16369614D01*
X-9928624Y16369581D01*
X-9906427Y16369564D01*
X-9452313Y16369205D01*
X-9326536Y16759100D01*
X-9314120Y16797587D01*
X-9301913Y16835428D01*
X-9289977Y16872426D01*
X-9278377Y16908382D01*
X-9267177Y16943100D01*
X-9256439Y16976381D01*
X-9246229Y17008029D01*
X-9236610Y17037845D01*
X-9227645Y17065632D01*
X-9219398Y17091192D01*
X-9211933Y17114327D01*
X-9205314Y17134841D01*
X-9199604Y17152536D01*
X-9194867Y17167213D01*
X-9191168Y17178676D01*
X-9188569Y17186726D01*
X-9187559Y17189854D01*
X-9183679Y17201681D01*
X-9180155Y17212069D01*
X-9177173Y17220504D01*
X-9174917Y17226467D01*
X-9173573Y17229442D01*
X-9173315Y17229669D01*
X-9172626Y17227734D01*
G37*
D12*
X324307500Y32125000D03*
X324307500Y16125000D03*
X342307500Y32125000D03*
X342307500Y16125000D03*
D13*
X341307500Y20315000D03*
X341307500Y27935000D03*
X324257500Y20625000D03*
X326257500Y21625000D03*
X324257500Y22625000D03*
X326257500Y23625000D03*
X324257500Y24625000D03*
X326257500Y25625000D03*
X324257500Y26625000D03*
X326257500Y27625000D03*
D14*
X262255000Y-19785000D03*
D15*
X257175000Y-19785000D03*
X269113000Y-28040000D03*
D16*
X245237000Y-12800000D03*
D17*
X253365000Y-17245000D03*
X259715000Y-14705000D03*
D15*
X245237000Y-28040000D03*
D16*
X269113000Y-12800000D03*
D14*
X252095000Y-19785000D03*
D15*
X219075000Y-40413300D03*
D14*
X213995000Y-40413300D03*
X224155000Y-40413300D03*
D17*
X221615000Y-35333300D03*
X215265000Y-37873300D03*
X45402500Y-75555300D03*
D14*
X37782500Y-80635300D03*
D15*
X42862500Y-80635300D03*
D14*
X47942500Y-80635300D03*
D17*
X39052500Y-78095300D03*
D18*
X288621400Y11425000D03*
X289221400Y11425000D03*
X290421400Y11425000D03*
X286821400Y11425000D03*
X291621400Y11425000D03*
X289821400Y11425000D03*
X291021400Y11425000D03*
X287421400Y11425000D03*
X292221400Y11425000D03*
X288021400Y11425000D03*
D17*
X7302500Y-35333300D03*
D14*
X9842500Y-40413300D03*
D17*
X952500Y-37873300D03*
D15*
X4762500Y-40413300D03*
D14*
X-317500Y-40413300D03*
X33655000Y-40413300D03*
D17*
X24765000Y-37873300D03*
D14*
X23495000Y-40413300D03*
D15*
X28575000Y-40413300D03*
D17*
X31115000Y-35333300D03*
D18*
X286714250Y-11285000D03*
X291514250Y-11285000D03*
X289714250Y-11285000D03*
X292114250Y-11285000D03*
X287314250Y-11285000D03*
X290314250Y-11285000D03*
X287914250Y-11285000D03*
X290914250Y-11285000D03*
X289114250Y-11285000D03*
X288514250Y-11285000D03*
D19*
X231167800Y14125000D03*
D18*
X-3325000Y20175000D03*
X-3325000Y18375000D03*
X-3325000Y19575000D03*
X-3325000Y17775000D03*
X-3325000Y20775000D03*
X-3325000Y22575000D03*
X-3325000Y17175000D03*
X-3325000Y21375000D03*
X-3325000Y21975000D03*
X-3325000Y18975000D03*
D17*
X258127500Y-98645300D03*
D14*
X267017500Y-101185300D03*
X256857500Y-101185300D03*
D17*
X264477500Y-96105300D03*
D15*
X261937500Y-101185300D03*
X76200000Y-19785000D03*
D14*
X81280000Y-19785000D03*
D17*
X78740000Y-14705000D03*
D14*
X71120000Y-19785000D03*
D17*
X72390000Y-17245000D03*
D15*
X147637500Y-60198300D03*
D14*
X142557500Y-60198300D03*
X152717500Y-60198300D03*
D17*
X143827500Y-57658300D03*
X150177500Y-55118300D03*
X220027500Y-57658300D03*
D15*
X223837500Y-60198300D03*
D14*
X228917500Y-60198300D03*
D17*
X226377500Y-55118300D03*
D14*
X218757500Y-60198300D03*
X267017500Y-40413300D03*
D15*
X261937500Y-40413300D03*
D17*
X258127500Y-37873300D03*
D14*
X256857500Y-40413300D03*
D17*
X264477500Y-35333300D03*
X331390000Y5080000D03*
D14*
X333930000Y0D03*
D15*
X328850000Y0D03*
D14*
X323770000Y0D03*
D17*
X325040000Y2540000D03*
D14*
X-317500Y-101185300D03*
D17*
X952500Y-98645300D03*
X7302500Y-96105300D03*
D15*
X4762500Y-101185300D03*
D14*
X9842500Y-101185300D03*
D18*
X-21725000Y-62898300D03*
X-21725000Y-59298300D03*
X-21725000Y-57498300D03*
X-21725000Y-58098300D03*
X-21725000Y-61098300D03*
X-21725000Y-58698300D03*
X-21725000Y-59898300D03*
X-21725000Y-61698300D03*
X-21725000Y-62298300D03*
X-21725000Y-60498300D03*
X350600000Y21500000D03*
X350600000Y23300000D03*
X350600000Y22700000D03*
X350600000Y24500000D03*
X350600000Y23900000D03*
X350600000Y22100000D03*
X350600000Y20900000D03*
X350600000Y26300000D03*
X350600000Y25100000D03*
X350600000Y25700000D03*
D14*
X75882500Y-80635300D03*
D17*
X77152500Y-78095300D03*
X83502500Y-75555300D03*
D15*
X80962500Y-80635300D03*
D14*
X86042500Y-80635300D03*
X12223750Y-60198300D03*
X2063750Y-60198300D03*
D15*
X7143750Y-60198300D03*
D17*
X4603750Y-65278300D03*
X10953750Y-62738300D03*
D14*
X304720000Y-40413300D03*
D15*
X309800000Y-40413300D03*
D17*
X305990000Y-37873300D03*
D14*
X314880000Y-40413300D03*
D17*
X312340000Y-35333300D03*
D14*
X295830000Y0D03*
D17*
X286940000Y2540000D03*
D15*
X290750000Y0D03*
D17*
X293290000Y5080000D03*
D14*
X285670000Y0D03*
D17*
X196215000Y-37873300D03*
D15*
X200025000Y-40413300D03*
D14*
X194945000Y-40413300D03*
X205105000Y-40413300D03*
D17*
X202565000Y-35333300D03*
X231140000Y5080000D03*
X224790000Y2540000D03*
D14*
X223520000Y0D03*
D15*
X228600000Y0D03*
D14*
X233680000Y0D03*
D17*
X72390000Y2540000D03*
D14*
X81280000Y0D03*
D17*
X78740000Y5080000D03*
D15*
X76200000Y0D03*
D14*
X71120000Y0D03*
D17*
X312340000Y5080000D03*
X305990000Y2540000D03*
D15*
X309800000Y0D03*
D14*
X304720000Y0D03*
X314880000Y0D03*
D18*
X288021400Y-72135300D03*
X291021400Y-72135300D03*
X287421400Y-72135300D03*
X289821400Y-72135300D03*
X292221400Y-72135300D03*
X289221400Y-72135300D03*
X288621400Y-72135300D03*
X286821400Y-72135300D03*
X290421400Y-72135300D03*
X291621400Y-72135300D03*
D17*
X159702500Y-75555300D03*
D15*
X157162500Y-80635300D03*
D14*
X152082500Y-80635300D03*
X162242500Y-80635300D03*
D17*
X153352500Y-78095300D03*
X243840000Y2540000D03*
X250190000Y5080000D03*
D15*
X247650000Y0D03*
D14*
X242570000Y0D03*
X252730000Y0D03*
D17*
X205740000Y2540000D03*
X212090000Y5080000D03*
D14*
X214630000Y0D03*
D15*
X209550000Y0D03*
D14*
X204470000Y0D03*
D17*
X-3810000Y2540000D03*
D15*
X0Y0D03*
D14*
X5080000Y0D03*
D17*
X2540000Y5080000D03*
D14*
X-5080000Y0D03*
D17*
X158115000Y2540000D03*
X164465000Y5080000D03*
D14*
X156845000Y0D03*
X167005000Y0D03*
D15*
X161925000Y0D03*
D14*
X157480000Y-19785000D03*
X147320000Y-19785000D03*
D17*
X148590000Y-17245000D03*
X154940000Y-14705000D03*
D15*
X152400000Y-19785000D03*
X114300000Y-19785000D03*
D17*
X110490000Y-17245000D03*
D14*
X109220000Y-19785000D03*
D17*
X116840000Y-14705000D03*
D14*
X119380000Y-19785000D03*
D17*
X325040000Y-98645300D03*
D14*
X323770000Y-101185300D03*
D17*
X331390000Y-96105300D03*
D15*
X328850000Y-101185300D03*
D14*
X333930000Y-101185300D03*
D18*
X228467800Y23825000D03*
X228467800Y25025000D03*
X228467800Y20825000D03*
X228467800Y22025000D03*
X228467800Y26225000D03*
X228467800Y22625000D03*
X228467800Y24425000D03*
X228467800Y23225000D03*
X228467800Y25625000D03*
X228467800Y21425000D03*
D14*
X176530000Y-19785000D03*
X166370000Y-19785000D03*
D17*
X173990000Y-14705000D03*
X167640000Y-17245000D03*
D15*
X171450000Y-19785000D03*
X-31750Y-88890300D03*
X11906250Y-80635300D03*
D14*
X6826250Y-80635300D03*
X16986250Y-80635300D03*
D16*
X23844250Y-73650300D03*
D15*
X23844250Y-88890300D03*
D16*
X-31750Y-73650300D03*
D17*
X14446250Y-75555300D03*
X8096250Y-78095300D03*
X257333750Y-55118300D03*
D14*
X259873750Y-60198300D03*
D15*
X254793750Y-60198300D03*
X266731750Y-68453300D03*
D14*
X249713750Y-60198300D03*
D15*
X242855750Y-68453300D03*
D16*
X242855750Y-53213300D03*
D17*
X250983750Y-57658300D03*
D16*
X266731750Y-53213300D03*
D14*
X323770000Y-40413300D03*
D17*
X331390000Y-35333300D03*
D15*
X328850000Y-40413300D03*
D17*
X325040000Y-37873300D03*
D14*
X333930000Y-40413300D03*
X181292500Y-80635300D03*
D15*
X176212500Y-80635300D03*
D14*
X171132500Y-80635300D03*
D17*
X178752500Y-75555300D03*
X172402500Y-78095300D03*
D14*
X57467500Y-60198300D03*
D15*
X52387500Y-60198300D03*
D17*
X48577500Y-57658300D03*
D14*
X47307500Y-60198300D03*
D17*
X54927500Y-55118300D03*
D14*
X7480000Y-60185800D03*
D17*
X4940000Y-55105800D03*
X-1410000Y-57645800D03*
D14*
X-2680000Y-60185800D03*
D15*
X2400000Y-60185800D03*
D18*
X-21725000Y-21285000D03*
X-21725000Y-19485000D03*
X-21725000Y-22485000D03*
X-21725000Y-17085000D03*
X-21725000Y-18885000D03*
X-21725000Y-20085000D03*
X-21725000Y-20685000D03*
X-21725000Y-18285000D03*
X-21725000Y-17685000D03*
X-21725000Y-21885000D03*
D14*
X114617500Y-60198300D03*
X104457500Y-60198300D03*
D17*
X112077500Y-55118300D03*
D15*
X109537500Y-60198300D03*
D17*
X105727500Y-57658300D03*
D18*
X98771400Y-68698300D03*
X96371400Y-68698300D03*
X101171400Y-68698300D03*
X99971400Y-68698300D03*
X101771400Y-68698300D03*
X100571400Y-68698300D03*
X98171400Y-68698300D03*
X96971400Y-68698300D03*
X99371400Y-68698300D03*
X97571400Y-68698300D03*
D14*
X156845000Y-40413300D03*
X167005000Y-40413300D03*
D15*
X161925000Y-40413300D03*
D17*
X158115000Y-37873300D03*
X164465000Y-35333300D03*
X97790000Y5080000D03*
D15*
X95250000Y0D03*
D17*
X91440000Y2540000D03*
D14*
X100330000Y0D03*
X90170000Y0D03*
X128270000Y-19785000D03*
D17*
X129540000Y-17245000D03*
X135890000Y-14705000D03*
D15*
X133350000Y-19785000D03*
D14*
X138430000Y-19785000D03*
D18*
X350575000Y-61098300D03*
X350575000Y-62898300D03*
X350575000Y-58098300D03*
X350575000Y-62298300D03*
X350575000Y-58698300D03*
X350575000Y-59298300D03*
X350575000Y-61698300D03*
X350575000Y-60498300D03*
X350575000Y-59898300D03*
X350575000Y-57498300D03*
D17*
X53340000Y-17245000D03*
D15*
X57150000Y-19785000D03*
D14*
X52070000Y-19785000D03*
X62230000Y-19785000D03*
D17*
X59690000Y-14705000D03*
D18*
X350575000Y-102085300D03*
X350575000Y-98485300D03*
X350575000Y-102685300D03*
X350575000Y-103285300D03*
X350575000Y-100885300D03*
X350575000Y-99085300D03*
X350575000Y-100285300D03*
X350575000Y-101485300D03*
X350575000Y-99685300D03*
X350575000Y-103885300D03*
D14*
X285670000Y-19785000D03*
X295830000Y-19785000D03*
D17*
X293290000Y-14705000D03*
D15*
X290750000Y-19785000D03*
D17*
X286940000Y-17245000D03*
D18*
X-21725000Y-37713300D03*
X-21725000Y-43113300D03*
X-21725000Y-38313300D03*
X-21725000Y-41913300D03*
X-21725000Y-41313300D03*
X-21725000Y-42513300D03*
X-21725000Y-40113300D03*
X-21725000Y-39513300D03*
X-21725000Y-40713300D03*
X-21725000Y-38913300D03*
X350575000Y-20085000D03*
X350575000Y-18285000D03*
X350575000Y-18885000D03*
X350575000Y-19485000D03*
X350575000Y-21285000D03*
X350575000Y-20685000D03*
X350575000Y-17685000D03*
X350575000Y-22485000D03*
X350575000Y-21885000D03*
X350575000Y-17085000D03*
D14*
X57467500Y-101185300D03*
D15*
X52387500Y-101185300D03*
D17*
X54927500Y-96105300D03*
D14*
X47307500Y-101185300D03*
D17*
X48577500Y-98645300D03*
D14*
X323770000Y-19785000D03*
D15*
X328850000Y-19785000D03*
D14*
X333930000Y-19785000D03*
D17*
X325040000Y-17245000D03*
X331390000Y-14705000D03*
D14*
X180657500Y-60198300D03*
X190817500Y-60198300D03*
D17*
X181927500Y-57658300D03*
D15*
X185737500Y-60198300D03*
D17*
X188277500Y-55118300D03*
D15*
X190500000Y-19785000D03*
D14*
X195580000Y-19785000D03*
D17*
X186690000Y-17245000D03*
D14*
X185420000Y-19785000D03*
D17*
X193040000Y-14705000D03*
X-3810000Y-17245000D03*
D14*
X-5080000Y-19785000D03*
X5080000Y-19785000D03*
D17*
X2540000Y-14705000D03*
D15*
X0Y-19785000D03*
D18*
X99371400Y-92685300D03*
X98171400Y-92685300D03*
X97571400Y-92685300D03*
X101171400Y-92685300D03*
X101771400Y-92685300D03*
X100571400Y-92685300D03*
X98771400Y-92685300D03*
X96371400Y-92685300D03*
X96971400Y-92685300D03*
X99971400Y-92685300D03*
D14*
X100330000Y-19785000D03*
D15*
X95250000Y-19785000D03*
D17*
X97790000Y-14705000D03*
X91440000Y-17245000D03*
D14*
X90170000Y-19785000D03*
D18*
X290421400Y-31913200D03*
X289821400Y-31913200D03*
X292221400Y-31913200D03*
X291621400Y-31913200D03*
X288621400Y-31913200D03*
X287421400Y-31913200D03*
X291021400Y-31913200D03*
X288021400Y-31913200D03*
X289221400Y-31913200D03*
X286821400Y-31913200D03*
D14*
X285670000Y-101185300D03*
D15*
X290750000Y-101185300D03*
D14*
X295830000Y-101185300D03*
D17*
X293290000Y-96105300D03*
X286940000Y-98645300D03*
X126365000Y-35333300D03*
D14*
X128905000Y-40413300D03*
X118745000Y-40413300D03*
D15*
X123825000Y-40413300D03*
D17*
X120015000Y-37873300D03*
D18*
X287421400Y-51698300D03*
X289221400Y-51698300D03*
X286821400Y-51698300D03*
X288021400Y-51698300D03*
X290421400Y-51698300D03*
X291021400Y-51698300D03*
X291621400Y-51698300D03*
X289821400Y-51698300D03*
X288621400Y-51698300D03*
X292221400Y-51698300D03*
D14*
X71755000Y-40413300D03*
D17*
X69215000Y-35333300D03*
D14*
X61595000Y-40413300D03*
D17*
X62865000Y-37873300D03*
D15*
X66675000Y-40413300D03*
D18*
X98258697Y-8500000D03*
X96458697Y-8500000D03*
X99458697Y-8500000D03*
X97058697Y-8500000D03*
X98858697Y-8500000D03*
X100658697Y-8500000D03*
X101258697Y-8500000D03*
X97658697Y-8500000D03*
X101858697Y-8500000D03*
X100058697Y-8500000D03*
D14*
X137795000Y0D03*
D17*
X139065000Y2540000D03*
D14*
X147955000Y0D03*
D15*
X142875000Y0D03*
D17*
X145415000Y5080000D03*
D14*
X304720000Y-19785000D03*
X314880000Y-19785000D03*
D15*
X309800000Y-19785000D03*
D17*
X305990000Y-17245000D03*
X312340000Y-14705000D03*
D15*
X266700000Y0D03*
D14*
X261620000Y0D03*
X271780000Y0D03*
D17*
X262890000Y2540000D03*
X269240000Y5080000D03*
D15*
X204787500Y-60198300D03*
D14*
X199707500Y-60198300D03*
D17*
X207327500Y-55118300D03*
D14*
X209867500Y-60198300D03*
D17*
X200977500Y-57658300D03*
X43815000Y-37873300D03*
D15*
X47625000Y-40413300D03*
D17*
X50165000Y-35333300D03*
D14*
X52705000Y-40413300D03*
X42545000Y-40413300D03*
D18*
X101771400Y-28285000D03*
X98771400Y-28285000D03*
X101171400Y-28285000D03*
X99371400Y-28285000D03*
X97571400Y-28285000D03*
X96971400Y-28285000D03*
X100571400Y-28285000D03*
X99971400Y-28285000D03*
X98171400Y-28285000D03*
X96371400Y-28285000D03*
D14*
X66992500Y-80635300D03*
D15*
X61912500Y-80635300D03*
D14*
X56832500Y-80635300D03*
D17*
X64452500Y-75555300D03*
X58102500Y-78095300D03*
D18*
X100571400Y8500000D03*
X96971400Y8500000D03*
X99971400Y8500000D03*
X96371400Y8500000D03*
X101171400Y8500000D03*
X98171400Y8500000D03*
X99371400Y8500000D03*
X98771400Y8500000D03*
X97571400Y8500000D03*
X101771400Y8500000D03*
X-21725000Y-80835300D03*
X-21725000Y-83235300D03*
X-21725000Y-81435300D03*
X-21725000Y-77835300D03*
X-21725000Y-82035300D03*
X-21725000Y-80235300D03*
X-21725000Y-79635300D03*
X-21725000Y-78435300D03*
X-21725000Y-82635300D03*
X-21725000Y-79035300D03*
D17*
X252571250Y-75555300D03*
D15*
X261969250Y-88890300D03*
D16*
X261969250Y-73650300D03*
D15*
X238093250Y-88890300D03*
D17*
X246221250Y-78095300D03*
D14*
X255111250Y-80635300D03*
D15*
X250031250Y-80635300D03*
D14*
X244951250Y-80635300D03*
D16*
X238093250Y-73650300D03*
D18*
X96971400Y-89135300D03*
X97571400Y-89135300D03*
X99371400Y-89135300D03*
X96371400Y-89135300D03*
X100571400Y-89135300D03*
X98771400Y-89135300D03*
X98171400Y-89135300D03*
X101771400Y-89135300D03*
X101171400Y-89135300D03*
X99971400Y-89135300D03*
X287412969Y-8500000D03*
X286812969Y-8500000D03*
X292212969Y-8500000D03*
X288012969Y-8500000D03*
X289212969Y-8500000D03*
X291012969Y-8500000D03*
X288612969Y-8500000D03*
X291612969Y-8500000D03*
X289812969Y-8500000D03*
X290412969Y-8500000D03*
D17*
X205740000Y-17245000D03*
D14*
X214630000Y-19785000D03*
D15*
X209550000Y-19785000D03*
D14*
X204470000Y-19785000D03*
D17*
X212090000Y-14705000D03*
D19*
X231167800Y32925000D03*
D14*
X38417500Y-60198300D03*
D15*
X33337500Y-60198300D03*
D17*
X29527500Y-57658300D03*
D14*
X28257500Y-60198300D03*
D17*
X35877500Y-55118300D03*
D15*
X71437500Y-60198300D03*
D14*
X66357500Y-60198300D03*
X76517500Y-60198300D03*
D17*
X67627500Y-57658300D03*
X73977500Y-55118300D03*
D18*
X350575000Y-43113300D03*
X350575000Y-40713300D03*
X350575000Y-39513300D03*
X350575000Y-38313300D03*
X350575000Y-42513300D03*
X350575000Y-40113300D03*
X350575000Y-41913300D03*
X350575000Y-37713300D03*
X350575000Y-38913300D03*
X350575000Y-41313300D03*
D14*
X186055000Y0D03*
X175895000Y0D03*
D17*
X177165000Y2540000D03*
D15*
X180975000Y0D03*
D17*
X183515000Y5080000D03*
D14*
X33020000Y0D03*
X43180000Y0D03*
D15*
X38100000Y0D03*
D17*
X40640000Y5080000D03*
X34290000Y2540000D03*
D18*
X101220758Y-72135300D03*
X96420758Y-72135300D03*
X100020758Y-72135300D03*
X97020758Y-72135300D03*
X99420758Y-72135300D03*
X98220758Y-72135300D03*
X98820758Y-72135300D03*
X100620758Y-72135300D03*
X97620758Y-72135300D03*
X101820758Y-72135300D03*
D20*
X-11743000Y26958000D03*
D21*
X-11403000Y27138000D03*
D22*
X-13063000Y27068000D03*
D23*
X-10373000Y27128000D03*
D24*
X-13423000Y25258000D03*
D25*
X-14383000Y27128000D03*
D26*
X-15623000Y26848000D03*
D27*
X-12733000Y27158000D03*
D28*
X-12003000Y25318000D03*
D18*
X350575000Y900000D03*
X350575000Y-1500000D03*
X350575000Y-2700000D03*
X350575000Y-2100000D03*
X350575000Y-300000D03*
X350575000Y-900000D03*
X350575000Y2100000D03*
X350575000Y1500000D03*
X350575000Y300000D03*
X350575000Y2700000D03*
D17*
X216852500Y-75555300D03*
X210502500Y-78095300D03*
D14*
X209232500Y-80635300D03*
D15*
X214312500Y-80635300D03*
D14*
X219392500Y-80635300D03*
D19*
X347875000Y14125000D03*
D14*
X118745000Y0D03*
X128905000Y0D03*
D17*
X120015000Y2540000D03*
X126365000Y5080000D03*
D15*
X123825000Y0D03*
D17*
X86677500Y-57658300D03*
X93027500Y-55118300D03*
D14*
X85407500Y-60198300D03*
X95567500Y-60198300D03*
D15*
X90487500Y-60198300D03*
X142875000Y-40413300D03*
D14*
X137795000Y-40413300D03*
D17*
X139065000Y-37873300D03*
X145415000Y-35333300D03*
D14*
X147955000Y-40413300D03*
D18*
X291021400Y-89135300D03*
X290421400Y-89135300D03*
X292221400Y-89135300D03*
X287421400Y-89135300D03*
X286821400Y-89135300D03*
X289821400Y-89135300D03*
X289221400Y-89135300D03*
X288621400Y-89135300D03*
X288021400Y-89135300D03*
X291621400Y-89135300D03*
D15*
X133350000Y-101185300D03*
D14*
X138430000Y-101185300D03*
D17*
X129540000Y-98645300D03*
D16*
X190500000Y-108170300D03*
D15*
X76200000Y-92930300D03*
D16*
X76200000Y-108170300D03*
D17*
X135890000Y-96105300D03*
D15*
X190500000Y-92930300D03*
D14*
X128270000Y-101185300D03*
D18*
X101156035Y-11285000D03*
X99956035Y-11285000D03*
X96356035Y-11285000D03*
X98756035Y-11285000D03*
X100556035Y-11285000D03*
X98156035Y-11285000D03*
X99356035Y-11285000D03*
X97556035Y-11285000D03*
X96956035Y-11285000D03*
X101756035Y-11285000D03*
D17*
X231140000Y-14705000D03*
D14*
X223520000Y-19785000D03*
X233680000Y-19785000D03*
D15*
X228600000Y-19785000D03*
D17*
X224790000Y-17245000D03*
D18*
X288021400Y-92685300D03*
X287421400Y-92685300D03*
X289221400Y-92685300D03*
X292221400Y-92685300D03*
X286821400Y-92685300D03*
X291621400Y-92685300D03*
X290421400Y-92685300D03*
X288621400Y-92685300D03*
X289821400Y-92685300D03*
X291021400Y-92685300D03*
D19*
X318240000Y32925000D03*
D18*
X288621400Y-28235300D03*
X290421400Y-28235300D03*
X289821400Y-28235300D03*
X287421400Y-28235300D03*
X291021400Y-28235300D03*
X292221400Y-28235300D03*
X288021400Y-28235300D03*
X291621400Y-28235300D03*
X289221400Y-28235300D03*
X286821400Y-28235300D03*
X99971400Y-48913300D03*
X101171400Y-48913300D03*
X99371400Y-48913300D03*
X97571400Y-48913300D03*
X98771400Y-48913300D03*
X96371400Y-48913300D03*
X98171400Y-48913300D03*
X100571400Y-48913300D03*
X96971400Y-48913300D03*
X101771400Y-48913300D03*
D17*
X216852500Y-96105300D03*
D15*
X214312500Y-101185300D03*
D17*
X210502500Y-98645300D03*
D14*
X209232500Y-101185300D03*
X219392500Y-101185300D03*
X124142500Y-80635300D03*
X113982500Y-80635300D03*
D15*
X119062500Y-80635300D03*
D17*
X115252500Y-78095300D03*
X121602500Y-75555300D03*
D15*
X19050000Y-19785000D03*
D14*
X13970000Y-19785000D03*
D17*
X15240000Y-17245000D03*
D14*
X24130000Y-19785000D03*
D17*
X21590000Y-14705000D03*
D18*
X289821400Y8500000D03*
X292221400Y8500000D03*
X289221400Y8500000D03*
X286821400Y8500000D03*
X291621400Y8500000D03*
X288021400Y8500000D03*
X290421400Y8500000D03*
X291021400Y8500000D03*
X288621400Y8500000D03*
X287421400Y8500000D03*
D14*
X133667500Y-60198300D03*
D17*
X124777500Y-57658300D03*
X131127500Y-55118300D03*
D14*
X123507500Y-60198300D03*
D15*
X128587500Y-60198300D03*
D19*
X318240000Y14125000D03*
D15*
X38100000Y-19785000D03*
D14*
X43180000Y-19785000D03*
D17*
X40640000Y-14705000D03*
X34290000Y-17245000D03*
D14*
X33020000Y-19785000D03*
D17*
X140652500Y-75555300D03*
D15*
X138112500Y-80635300D03*
D17*
X134302500Y-78095300D03*
D14*
X143192500Y-80635300D03*
X133032500Y-80635300D03*
D15*
X195262500Y-80635300D03*
D17*
X191452500Y-78095300D03*
X197802500Y-75555300D03*
D14*
X200342500Y-80635300D03*
X190182500Y-80635300D03*
X90805000Y-40413300D03*
D15*
X85725000Y-40413300D03*
D14*
X80645000Y-40413300D03*
D17*
X88265000Y-35333300D03*
X81915000Y-37873300D03*
D18*
X-21725000Y22575000D03*
X-21725000Y18375000D03*
X-21725000Y20175000D03*
X-21725000Y21975000D03*
X-21725000Y21375000D03*
X-21725000Y18975000D03*
X-21725000Y19575000D03*
X-21725000Y17775000D03*
X-21725000Y17175000D03*
X-21725000Y20775000D03*
X-21725000Y-99085300D03*
X-21725000Y-102085300D03*
X-21725000Y-100885300D03*
X-21725000Y-101485300D03*
X-21725000Y-100285300D03*
X-21725000Y-99685300D03*
X-21725000Y-102685300D03*
X-21725000Y-103885300D03*
X-21725000Y-98485300D03*
X-21725000Y-103285300D03*
X350575000Y-80835300D03*
X350575000Y-78435300D03*
X350575000Y-83235300D03*
X350575000Y-80235300D03*
X350575000Y-77835300D03*
X350575000Y-82035300D03*
X350575000Y-82635300D03*
X350575000Y-79635300D03*
X350575000Y-81435300D03*
X350575000Y-79035300D03*
X100571400Y-51698300D03*
X97571400Y-51698300D03*
X99371400Y-51698300D03*
X99971400Y-51698300D03*
X98171400Y-51698300D03*
X101771400Y-51698300D03*
X98771400Y-51698300D03*
X96371400Y-51698300D03*
X101171400Y-51698300D03*
X96971400Y-51698300D03*
X98771400Y-31912900D03*
X101171400Y-31912900D03*
X101771400Y-31912900D03*
X99971400Y-31912900D03*
X98171400Y-31912900D03*
X96371400Y-31912900D03*
X97571400Y-31912900D03*
X100571400Y-31912900D03*
X99371400Y-31912900D03*
X96971400Y-31912900D03*
D14*
X175895000Y-40413300D03*
D17*
X183515000Y-35333300D03*
X177165000Y-37873300D03*
D14*
X186055000Y-40413300D03*
D15*
X180975000Y-40413300D03*
D18*
X291621400Y-68698300D03*
X288621400Y-68698300D03*
X292221400Y-68698300D03*
X287421400Y-68698300D03*
X289221400Y-68698300D03*
X288021400Y-68698300D03*
X291021400Y-68698300D03*
X289821400Y-68698300D03*
X290421400Y-68698300D03*
X286821400Y-68698300D03*
D19*
X347875000Y32925000D03*
D18*
X291021400Y-48913300D03*
X291621400Y-48913300D03*
X289221400Y-48913300D03*
X287421400Y-48913300D03*
X286821400Y-48913300D03*
X289821400Y-48913300D03*
X292221400Y-48913300D03*
X288021400Y-48913300D03*
X290421400Y-48913300D03*
X288621400Y-48913300D03*
D14*
X62230000Y0D03*
D17*
X53340000Y2540000D03*
D14*
X52070000Y0D03*
D17*
X59690000Y5080000D03*
D15*
X57150000Y0D03*
X166687500Y-60198300D03*
D14*
X161607500Y-60198300D03*
X171767500Y-60198300D03*
D17*
X162877500Y-57658300D03*
X169227500Y-55118300D03*
X312340000Y-96105300D03*
X305990000Y-98645300D03*
D14*
X314880000Y-101185300D03*
X304720000Y-101185300D03*
D15*
X309800000Y-101185300D03*
X100012500Y-82268721D03*
D17*
X96202500Y-79728721D03*
X102552500Y-77188721D03*
D14*
X94932500Y-82268721D03*
X105092500Y-82268721D03*
X243205000Y-40413300D03*
X233045000Y-40413300D03*
D17*
X234315000Y-37873300D03*
D15*
X238125000Y-40413300D03*
D17*
X240665000Y-35333300D03*
D15*
X290750000Y-40413300D03*
D14*
X285670000Y-40413300D03*
D17*
X286940000Y-37873300D03*
X293290000Y-35333300D03*
D14*
X295830000Y-40413300D03*
D18*
X-21725000Y-300000D03*
X-21725000Y300000D03*
X-21725000Y-2100000D03*
X-21725000Y-900000D03*
X-21725000Y-2700000D03*
X-21725000Y2700000D03*
X-21725000Y2100000D03*
X-21725000Y-1500000D03*
X-21725000Y900000D03*
X-21725000Y1500000D03*
X98771400Y10100000D03*
X97571400Y10100000D03*
X96971400Y10100000D03*
X101771400Y10100000D03*
X99971400Y10100000D03*
X99371400Y10100000D03*
X100571400Y10100000D03*
X101171400Y10100000D03*
X98171400Y10100000D03*
X96371400Y10100000D03*
D14*
X304720000Y-80635300D03*
D15*
X309800000Y-80635300D03*
D17*
X312340000Y-75555300D03*
D14*
X314880000Y-80635300D03*
D17*
X305990000Y-78095300D03*
X107315000Y-35333300D03*
D14*
X99695000Y-40413300D03*
D17*
X100965000Y-37873300D03*
D14*
X109855000Y-40413300D03*
D15*
X104775000Y-40413300D03*
D29*
X-5525000Y13625000D03*
X-19525000Y13625000D03*
X-19525000Y26125000D03*
D30*
X310870000Y15320000D03*
X305790000Y16336000D03*
X305790000Y14304000D03*
D31*
X239950000Y32375000D03*
D32*
X242490000Y32375000D03*
D29*
X-5525000Y26125000D03*
D33*
X-9633000Y21876000D03*
X-15413000Y21876000D03*
D34*
X-8223000Y21325000D03*
D35*
X-8223000Y25525000D03*
X-16823000Y25525000D03*
D34*
X-16823000Y21325000D03*
M02*
