%TF.GenerationSoftware,KiCad,Pcbnew,(6.0.5-0)*%
%TF.CreationDate,2023-01-21T22:01:52+08:00*%
%TF.ProjectId,main,6d61696e-2e6b-4696-9361-645f70636258,Prototype-V1*%
%TF.SameCoordinates,Original*%
%TF.FileFunction,Paste,Bot*%
%TF.FilePolarity,Positive*%
%FSLAX46Y46*%
G04 Gerber Fmt 4.6, Leading zero omitted, Abs format (unit mm)*
G04 Created by KiCad (PCBNEW (6.0.5-0)) date 2023-01-21 22:01:52*
%MOMM*%
%LPD*%
G01*
G04 APERTURE LIST*
G04 Aperture macros list*
%AMRoundRect*
0 Rectangle with rounded corners*
0 $1 Rounding radius*
0 $2 $3 $4 $5 $6 $7 $8 $9 X,Y pos of 4 corners*
0 Add a 4 corners polygon primitive as box body*
4,1,4,$2,$3,$4,$5,$6,$7,$8,$9,$2,$3,0*
0 Add four circle primitives for the rounded corners*
1,1,$1+$1,$2,$3*
1,1,$1+$1,$4,$5*
1,1,$1+$1,$6,$7*
1,1,$1+$1,$8,$9*
0 Add four rect primitives between the rounded corners*
20,1,$1+$1,$2,$3,$4,$5,0*
20,1,$1+$1,$4,$5,$6,$7,0*
20,1,$1+$1,$6,$7,$8,$9,0*
20,1,$1+$1,$8,$9,$2,$3,0*%
%AMRotRect*
0 Rectangle, with rotation*
0 The origin of the aperture is its center*
0 $1 length*
0 $2 width*
0 $3 Rotation angle, in degrees counterclockwise*
0 Add horizontal line*
21,1,$1,$2,0,0,$3*%
G04 Aperture macros list end*
%ADD10R,2.550000X2.500000*%
%ADD11R,1.200000X0.900000*%
%ADD12R,0.300000X1.300000*%
%ADD13R,2.000000X3.000000*%
%ADD14RoundRect,0.250000X0.625000X-0.375000X0.625000X0.375000X-0.625000X0.375000X-0.625000X-0.375000X0*%
%ADD15RoundRect,0.140000X0.170000X-0.140000X0.170000X0.140000X-0.170000X0.140000X-0.170000X-0.140000X0*%
%ADD16RoundRect,0.250000X0.000000X0.413257X-0.413257X0.000000X0.000000X-0.413257X0.413257X0.000000X0*%
%ADD17RoundRect,0.062500X0.220971X0.309359X-0.309359X-0.220971X-0.220971X-0.309359X0.309359X0.220971X0*%
%ADD18RoundRect,0.062500X-0.220971X0.309359X-0.309359X0.220971X0.220971X-0.309359X0.309359X-0.220971X0*%
%ADD19RoundRect,0.225000X-0.225000X-0.250000X0.225000X-0.250000X0.225000X0.250000X-0.225000X0.250000X0*%
%ADD20R,0.900000X0.500000*%
%ADD21RoundRect,0.250000X-0.262500X-0.450000X0.262500X-0.450000X0.262500X0.450000X-0.262500X0.450000X0*%
%ADD22RoundRect,0.140000X-0.021213X0.219203X-0.219203X0.021213X0.021213X-0.219203X0.219203X-0.021213X0*%
%ADD23R,0.900000X1.200000*%
%ADD24R,0.600000X0.450000*%
%ADD25RoundRect,0.140000X-0.219203X-0.021213X-0.021213X-0.219203X0.219203X0.021213X0.021213X0.219203X0*%
%ADD26RoundRect,0.135000X0.135000X0.185000X-0.135000X0.185000X-0.135000X-0.185000X0.135000X-0.185000X0*%
%ADD27RoundRect,0.135000X-0.185000X0.135000X-0.185000X-0.135000X0.185000X-0.135000X0.185000X0.135000X0*%
%ADD28RoundRect,0.135000X-0.135000X-0.185000X0.135000X-0.185000X0.135000X0.185000X-0.135000X0.185000X0*%
%ADD29RotRect,1.400000X1.200000X315.000000*%
%ADD30RoundRect,0.147500X-0.172500X0.147500X-0.172500X-0.147500X0.172500X-0.147500X0.172500X0.147500X0*%
%ADD31RoundRect,0.135000X0.185000X-0.135000X0.185000X0.135000X-0.185000X0.135000X-0.185000X-0.135000X0*%
%ADD32RoundRect,0.140000X-0.170000X0.140000X-0.170000X-0.140000X0.170000X-0.140000X0.170000X0.140000X0*%
%ADD33RoundRect,0.150000X-0.512500X-0.150000X0.512500X-0.150000X0.512500X0.150000X-0.512500X0.150000X0*%
%ADD34RoundRect,0.250000X-0.375000X-1.075000X0.375000X-1.075000X0.375000X1.075000X-0.375000X1.075000X0*%
%ADD35RoundRect,0.250000X-0.625000X0.375000X-0.625000X-0.375000X0.625000X-0.375000X0.625000X0.375000X0*%
%ADD36RoundRect,0.140000X0.219203X0.021213X0.021213X0.219203X-0.219203X-0.021213X-0.021213X-0.219203X0*%
%ADD37RoundRect,0.225000X0.225000X0.250000X-0.225000X0.250000X-0.225000X-0.250000X0.225000X-0.250000X0*%
%ADD38RoundRect,0.150000X0.587500X0.150000X-0.587500X0.150000X-0.587500X-0.150000X0.587500X-0.150000X0*%
%ADD39RoundRect,0.150000X0.625000X-0.150000X0.625000X0.150000X-0.625000X0.150000X-0.625000X-0.150000X0*%
%ADD40RoundRect,0.250000X0.650000X-0.350000X0.650000X0.350000X-0.650000X0.350000X-0.650000X-0.350000X0*%
%ADD41R,2.500000X1.800000*%
%ADD42RoundRect,0.140000X0.021213X-0.219203X0.219203X-0.021213X-0.021213X0.219203X-0.219203X0.021213X0*%
%ADD43RoundRect,0.140000X-0.140000X-0.170000X0.140000X-0.170000X0.140000X0.170000X-0.140000X0.170000X0*%
%ADD44R,1.200000X1.800000*%
%ADD45R,0.600000X1.550000*%
%ADD46R,1.100000X1.800000*%
%ADD47RoundRect,0.250000X0.262500X0.450000X-0.262500X0.450000X-0.262500X-0.450000X0.262500X-0.450000X0*%
%ADD48RoundRect,0.250000X-0.250000X-0.350000X0.250000X-0.350000X0.250000X0.350000X-0.250000X0.350000X0*%
%ADD49RoundRect,0.125000X0.000000X0.150000X0.000000X0.150000X0.000000X-0.150000X0.000000X-0.150000X0*%
%ADD50R,0.250000X0.550000*%
%ADD51R,0.300000X0.550000*%
%ADD52RoundRect,0.150000X-0.150000X-0.575000X0.150000X-0.575000X0.150000X0.575000X-0.150000X0.575000X0*%
%ADD53RoundRect,0.075000X-0.075000X-0.650000X0.075000X-0.650000X0.075000X0.650000X-0.075000X0.650000X0*%
G04 APERTURE END LIST*
D10*
X250090000Y-17245000D03*
X263017000Y-14705000D03*
X211990000Y-37873300D03*
X224917000Y-35333300D03*
X35777500Y-78095300D03*
X48704500Y-75555300D03*
X-2322500Y-37873300D03*
X10604500Y-35333300D03*
X21490000Y-37873300D03*
X34417000Y-35333300D03*
X254852500Y-98645300D03*
X267779500Y-96105300D03*
X69115000Y-17245000D03*
X82042000Y-14705000D03*
X140552500Y-57658300D03*
X153479500Y-55118300D03*
X216752500Y-57658300D03*
X229679500Y-55118300D03*
X254852500Y-37873300D03*
X267779500Y-35333300D03*
X321765000Y2540000D03*
X334692000Y5080000D03*
X-2322500Y-98645300D03*
X10604500Y-96105300D03*
X73877500Y-78095300D03*
X86804500Y-75555300D03*
X14228750Y-62738300D03*
X1301750Y-65278300D03*
X302715000Y-37873300D03*
X315642000Y-35333300D03*
X283665000Y2540000D03*
X296592000Y5080000D03*
X192940000Y-37873300D03*
X205867000Y-35333300D03*
X221515000Y2540000D03*
X234442000Y5080000D03*
X69115000Y2540000D03*
X82042000Y5080000D03*
X302715000Y2540000D03*
X315642000Y5080000D03*
X150077500Y-78095300D03*
X163004500Y-75555300D03*
X240565000Y2540000D03*
X253492000Y5080000D03*
X202465000Y2540000D03*
X215392000Y5080000D03*
X-7085000Y2540000D03*
X5842000Y5080000D03*
X154840000Y2540000D03*
X167767000Y5080000D03*
X145315000Y-17245000D03*
X158242000Y-14705000D03*
X107215000Y-17245000D03*
X120142000Y-14705000D03*
X321765000Y-98645300D03*
X334692000Y-96105300D03*
X164365000Y-17245000D03*
X177292000Y-14705000D03*
X4821250Y-78095300D03*
X17748250Y-75555300D03*
X247708750Y-57658300D03*
X260635750Y-55118300D03*
X321765000Y-37873300D03*
X334692000Y-35333300D03*
X169127500Y-78095300D03*
X182054500Y-75555300D03*
X45302500Y-57658300D03*
X58229500Y-55118300D03*
X-4685000Y-57645800D03*
X8242000Y-55105800D03*
X102452500Y-57658300D03*
X115379500Y-55118300D03*
X154840000Y-37873300D03*
X167767000Y-35333300D03*
X88165000Y2540000D03*
X101092000Y5080000D03*
X126265000Y-17245000D03*
X139192000Y-14705000D03*
X50065000Y-17245000D03*
X62992000Y-14705000D03*
X283665000Y-17245000D03*
X296592000Y-14705000D03*
X45302500Y-98645300D03*
X58229500Y-96105300D03*
X321765000Y-17245000D03*
X334692000Y-14705000D03*
X178652500Y-57658300D03*
X191579500Y-55118300D03*
X183415000Y-17245000D03*
X196342000Y-14705000D03*
X-7085000Y-17245000D03*
X5842000Y-14705000D03*
X88165000Y-17245000D03*
X101092000Y-14705000D03*
X283665000Y-98645300D03*
X296592000Y-96105300D03*
X116740000Y-37873300D03*
X129667000Y-35333300D03*
X59590000Y-37873300D03*
X72517000Y-35333300D03*
X135790000Y2540000D03*
X148717000Y5080000D03*
X302715000Y-17245000D03*
X315642000Y-14705000D03*
X259615000Y2540000D03*
X272542000Y5080000D03*
X197702500Y-57658300D03*
X210629500Y-55118300D03*
X40540000Y-37873300D03*
X53467000Y-35333300D03*
X54827500Y-78095300D03*
X67754500Y-75555300D03*
X242946250Y-78095300D03*
X255873250Y-75555300D03*
X202465000Y-17245000D03*
X215392000Y-14705000D03*
X26252500Y-57658300D03*
X39179500Y-55118300D03*
X64352500Y-57658300D03*
X77279500Y-55118300D03*
X173890000Y2540000D03*
X186817000Y5080000D03*
X31015000Y2540000D03*
X43942000Y5080000D03*
X207227500Y-78095300D03*
X220154500Y-75555300D03*
X116740000Y2540000D03*
X129667000Y5080000D03*
X83402500Y-57658300D03*
X96329500Y-55118300D03*
X135790000Y-37873300D03*
X148717000Y-35333300D03*
X126265000Y-98645300D03*
X139192000Y-96105300D03*
X221515000Y-17245000D03*
X234442000Y-14705000D03*
X207227500Y-98645300D03*
X220154500Y-96105300D03*
X111977500Y-78095300D03*
X124904500Y-75555300D03*
X11965000Y-17245000D03*
X24892000Y-14705000D03*
X121502500Y-57658300D03*
X134429500Y-55118300D03*
X31015000Y-17245000D03*
X43942000Y-14705000D03*
X131027500Y-78095300D03*
X143954500Y-75555300D03*
X188177500Y-78095300D03*
X201104500Y-75555300D03*
X78640000Y-37873300D03*
X91567000Y-35333300D03*
X173890000Y-37873300D03*
X186817000Y-35333300D03*
X50065000Y2540000D03*
X62992000Y5080000D03*
X159602500Y-57658300D03*
X172529500Y-55118300D03*
X302715000Y-98645300D03*
X315642000Y-96105300D03*
X92927500Y-79728721D03*
X105854500Y-77188721D03*
X231040000Y-37873300D03*
X243967000Y-35333300D03*
X283665000Y-37873300D03*
X296592000Y-35333300D03*
X302715000Y-78095300D03*
X315642000Y-75555300D03*
X97690000Y-37873300D03*
X110617000Y-35333300D03*
D11*
X13262500Y-42063300D03*
X13262500Y-38763300D03*
X84700000Y-1650000D03*
X84700000Y1650000D03*
D12*
X341575000Y-79085300D03*
X342075000Y-79085300D03*
X342575000Y-79085300D03*
X343075000Y-79085300D03*
X343575000Y-79085300D03*
X344075000Y-79085300D03*
X344575000Y-79085300D03*
X345075000Y-79085300D03*
X345575000Y-79085300D03*
X346075000Y-79085300D03*
X346575000Y-79085300D03*
X347075000Y-79085300D03*
D13*
X339885000Y-76685300D03*
X348765000Y-76685300D03*
D11*
X236000000Y32450000D03*
X236000000Y29150000D03*
D12*
X-12725000Y-1550000D03*
X-13225000Y-1550000D03*
X-13725000Y-1550000D03*
X-14225000Y-1550000D03*
X-14725000Y-1550000D03*
X-15225000Y-1550000D03*
X-15725000Y-1550000D03*
X-16225000Y-1550000D03*
X-16725000Y-1550000D03*
X-17225000Y-1550000D03*
X-17725000Y-1550000D03*
X-18225000Y-1550000D03*
D13*
X-11035000Y-3950000D03*
X-19915000Y-3950000D03*
D12*
X-12725000Y-41963300D03*
X-13225000Y-41963300D03*
X-13725000Y-41963300D03*
X-14225000Y-41963300D03*
X-14725000Y-41963300D03*
X-15225000Y-41963300D03*
X-15725000Y-41963300D03*
X-16225000Y-41963300D03*
X-16725000Y-41963300D03*
X-17225000Y-41963300D03*
X-17725000Y-41963300D03*
X-18225000Y-41963300D03*
D13*
X-19915000Y-44363300D03*
X-11035000Y-44363300D03*
D14*
X-19508000Y17394000D03*
X-19508000Y20194000D03*
D11*
X199000000Y-21435000D03*
X199000000Y-18135000D03*
X46600000Y-21435000D03*
X46600000Y-18135000D03*
D15*
X307100000Y23140000D03*
X307100000Y24100000D03*
D16*
X256717690Y23525000D03*
X257619251Y22623439D03*
X258520812Y25328122D03*
X261225495Y24426561D03*
X259422373Y22623439D03*
X260323934Y23525000D03*
X261225495Y22623439D03*
X259422373Y20820317D03*
X260323934Y25328122D03*
X257619251Y24426561D03*
X262127056Y23525000D03*
X258520812Y21721878D03*
X259422373Y26229683D03*
X259422373Y24426561D03*
X258520812Y23525000D03*
X260323934Y21721878D03*
D17*
X259908509Y27900223D03*
X260262062Y27546670D03*
X260615616Y27193116D03*
X260969169Y26839563D03*
X261322722Y26486010D03*
X261676276Y26132456D03*
X262029829Y25778903D03*
X262383383Y25425349D03*
X262736936Y25071796D03*
X263090489Y24718243D03*
X263444043Y24364689D03*
X263797596Y24011136D03*
D18*
X263797596Y23038864D03*
X263444043Y22685311D03*
X263090489Y22331757D03*
X262736936Y21978204D03*
X262383383Y21624651D03*
X262029829Y21271097D03*
X261676276Y20917544D03*
X261322722Y20563990D03*
X260969169Y20210437D03*
X260615616Y19856884D03*
X260262062Y19503330D03*
X259908509Y19149777D03*
D17*
X258936237Y19149777D03*
X258582684Y19503330D03*
X258229130Y19856884D03*
X257875577Y20210437D03*
X257522024Y20563990D03*
X257168470Y20917544D03*
X256814917Y21271097D03*
X256461363Y21624651D03*
X256107810Y21978204D03*
X255754257Y22331757D03*
X255400703Y22685311D03*
X255047150Y23038864D03*
D18*
X255047150Y24011136D03*
X255400703Y24364689D03*
X255754257Y24718243D03*
X256107810Y25071796D03*
X256461363Y25425349D03*
X256814917Y25778903D03*
X257168470Y26132456D03*
X257522024Y26486010D03*
X257875577Y26839563D03*
X258229130Y27193116D03*
X258582684Y27546670D03*
X258936237Y27900223D03*
D11*
X336350000Y-24422500D03*
X336350000Y-21122500D03*
X13262500Y-102835300D03*
X13262500Y-99535300D03*
D19*
X330286700Y21190507D03*
X331836700Y21190507D03*
D12*
X-12725000Y-82185300D03*
X-13225000Y-82185300D03*
X-13725000Y-82185300D03*
X-14225000Y-82185300D03*
X-14725000Y-82185300D03*
X-15225000Y-82185300D03*
X-15725000Y-82185300D03*
X-16225000Y-82185300D03*
X-16725000Y-82185300D03*
X-17225000Y-82185300D03*
X-17725000Y-82185300D03*
X-18225000Y-82185300D03*
D13*
X-19915000Y-84585300D03*
X-11035000Y-84585300D03*
D11*
X141850000Y-21435000D03*
X141850000Y-18135000D03*
X346930000Y25900000D03*
X346930000Y22600000D03*
X256150000Y-1650000D03*
X256150000Y1650000D03*
D20*
X-9475000Y18289000D03*
X-9475000Y16789000D03*
D21*
X318997500Y23260000D03*
X320822500Y23260000D03*
D11*
X160900000Y-21435000D03*
X160900000Y-18135000D03*
X15430000Y-59365800D03*
X15430000Y-56065800D03*
X299250000Y-1650000D03*
X299250000Y1650000D03*
D22*
X264589411Y33812058D03*
X263910589Y33133236D03*
D23*
X334010000Y14710000D03*
X337310000Y14710000D03*
D11*
X84700000Y-21435000D03*
X84700000Y-18135000D03*
D24*
X329880000Y28680000D03*
X331980000Y28680000D03*
D11*
X46600000Y-1650000D03*
X46600000Y1650000D03*
X79937500Y-61848300D03*
X79937500Y-58548300D03*
D25*
X262521178Y17478822D03*
X263200000Y16800000D03*
D11*
X113275000Y-42063300D03*
X113275000Y-38763300D03*
X189475000Y-1650000D03*
X189475000Y1650000D03*
D26*
X334900000Y27160000D03*
X333880000Y27160000D03*
D27*
X305520000Y24140000D03*
X305520000Y23120000D03*
D28*
X272290000Y16800000D03*
X273310000Y16800000D03*
D11*
X194237500Y-61848300D03*
X194237500Y-58548300D03*
D29*
X266277235Y32845733D03*
X267832870Y31290098D03*
X266630789Y30088017D03*
X265075154Y31643652D03*
D11*
X103750000Y-1650000D03*
X103750000Y1650000D03*
D12*
X341575000Y-58648300D03*
X342075000Y-58648300D03*
X342575000Y-58648300D03*
X343075000Y-58648300D03*
X343575000Y-58648300D03*
X344075000Y-58648300D03*
X344575000Y-58648300D03*
X345075000Y-58648300D03*
X345575000Y-58648300D03*
X346075000Y-58648300D03*
X346575000Y-58648300D03*
X347075000Y-58648300D03*
D13*
X339885000Y-56248300D03*
X348765000Y-56248300D03*
D26*
X306740000Y25480000D03*
X305720000Y25480000D03*
D12*
X341575000Y-99635300D03*
X342075000Y-99635300D03*
X342575000Y-99635300D03*
X343075000Y-99635300D03*
X343575000Y-99635300D03*
X344075000Y-99635300D03*
X344575000Y-99635300D03*
X345075000Y-99635300D03*
X345575000Y-99635300D03*
X346075000Y-99635300D03*
X346575000Y-99635300D03*
X347075000Y-99635300D03*
D13*
X339885000Y-97235300D03*
X348765000Y-97235300D03*
D11*
X146612500Y-82285300D03*
X146612500Y-78985300D03*
D27*
X346030000Y20540000D03*
X346030000Y19520000D03*
D30*
X241582500Y21662000D03*
X241582500Y20692000D03*
D31*
X307150000Y20690000D03*
X307150000Y21710000D03*
D12*
X-12725000Y-21335000D03*
X-13225000Y-21335000D03*
X-13725000Y-21335000D03*
X-14225000Y-21335000D03*
X-14725000Y-21335000D03*
X-15225000Y-21335000D03*
X-15725000Y-21335000D03*
X-16225000Y-21335000D03*
X-16725000Y-21335000D03*
X-17225000Y-21335000D03*
X-17725000Y-21335000D03*
X-18225000Y-21335000D03*
D13*
X-11035000Y-23735000D03*
X-19915000Y-23735000D03*
D32*
X347370000Y20500000D03*
X347370000Y19540000D03*
D11*
X232490000Y-60405800D03*
X232490000Y-57105800D03*
X70412500Y-82285300D03*
X70412500Y-78985300D03*
X299250000Y-42063300D03*
X299250000Y-38763300D03*
X213180000Y-60765800D03*
X213180000Y-57465800D03*
X222812500Y-82285300D03*
X222812500Y-78985300D03*
D12*
X341575000Y-38863300D03*
X342075000Y-38863300D03*
X342575000Y-38863300D03*
X343075000Y-38863300D03*
X343575000Y-38863300D03*
X344075000Y-38863300D03*
X344575000Y-38863300D03*
X345075000Y-38863300D03*
X345575000Y-38863300D03*
X346075000Y-38863300D03*
X346575000Y-38863300D03*
X347075000Y-38863300D03*
D13*
X339885000Y-36463300D03*
X348765000Y-36463300D03*
D11*
X318300000Y-1650000D03*
X318300000Y1650000D03*
D33*
X331612500Y23700000D03*
X331612500Y24650000D03*
X331612500Y25600000D03*
X333887500Y25600000D03*
X333887500Y24650000D03*
X333887500Y23700000D03*
D12*
X347075000Y-41963300D03*
X346575000Y-41963300D03*
X346075000Y-41963300D03*
X345575000Y-41963300D03*
X345075000Y-41963300D03*
X344575000Y-41963300D03*
X344075000Y-41963300D03*
X343575000Y-41963300D03*
X343075000Y-41963300D03*
X342575000Y-41963300D03*
X342075000Y-41963300D03*
X341575000Y-41963300D03*
D13*
X348765000Y-44363300D03*
X339885000Y-44363300D03*
D34*
X334080000Y30280000D03*
X336880000Y30280000D03*
D35*
X-5411000Y22861000D03*
X-5411000Y20061000D03*
D11*
X8500000Y-1650000D03*
X8500000Y1650000D03*
D15*
X305570000Y20750000D03*
X305570000Y21710000D03*
D12*
X-18225000Y-58648300D03*
X-17725000Y-58648300D03*
X-17225000Y-58648300D03*
X-16725000Y-58648300D03*
X-16225000Y-58648300D03*
X-15725000Y-58648300D03*
X-15225000Y-58648300D03*
X-14725000Y-58648300D03*
X-14225000Y-58648300D03*
X-13725000Y-58648300D03*
X-13225000Y-58648300D03*
X-12725000Y-58648300D03*
D13*
X-11035000Y-56248300D03*
X-19915000Y-56248300D03*
D22*
X252739411Y23539411D03*
X252060589Y22860589D03*
D11*
X8500000Y-21435000D03*
X8500000Y-18135000D03*
X227575000Y-42063300D03*
X227575000Y-38763300D03*
X56125000Y-42063300D03*
X56125000Y-38763300D03*
X318300000Y-21435000D03*
X318300000Y-18135000D03*
D15*
X236800000Y13920000D03*
X236800000Y14880000D03*
D20*
X-15444000Y18289000D03*
X-15444000Y16789000D03*
D36*
X265430181Y27407535D03*
X264751359Y28086357D03*
D11*
X318300000Y-82285300D03*
X318300000Y-78985300D03*
X60887500Y-61848300D03*
X60887500Y-58548300D03*
D15*
X235600000Y13920000D03*
X235600000Y14880000D03*
D37*
X318400000Y26800000D03*
X316850000Y26800000D03*
D11*
X318300000Y-42063300D03*
X318300000Y-38763300D03*
D22*
X252006904Y24339411D03*
X251328082Y23660589D03*
D11*
X237100000Y-21435000D03*
X237100000Y-18135000D03*
X136820000Y-64065800D03*
X136820000Y-60765800D03*
X258531250Y-82285300D03*
X258531250Y-78985300D03*
D23*
X333550000Y-43600000D03*
X336850000Y-43600000D03*
D21*
X336897500Y22710000D03*
X338722500Y22710000D03*
D11*
X275200000Y-1650000D03*
X275200000Y1650000D03*
D38*
X301967500Y30410000D03*
X301967500Y28510000D03*
X300092500Y29460000D03*
D11*
X51362500Y-82285300D03*
X51362500Y-78985300D03*
X337350000Y-102835300D03*
X337350000Y-99535300D03*
D15*
X328000000Y30320000D03*
X328000000Y31280000D03*
D39*
X233947800Y22025000D03*
X233947800Y23025000D03*
X233947800Y24025000D03*
X233947800Y25025000D03*
D40*
X230072800Y26325000D03*
X230072800Y20725000D03*
D41*
X236982500Y18247000D03*
X240982500Y18247000D03*
D11*
X132325000Y-1650000D03*
X132325000Y1650000D03*
D42*
X259660589Y14860589D03*
X260339411Y15539411D03*
D11*
X189475000Y-42063300D03*
X189475000Y-38763300D03*
D12*
X-18225000Y-99635300D03*
X-17725000Y-99635300D03*
X-17225000Y-99635300D03*
X-16725000Y-99635300D03*
X-16225000Y-99635300D03*
X-15725000Y-99635300D03*
X-15225000Y-99635300D03*
X-14725000Y-99635300D03*
X-14225000Y-99635300D03*
X-13725000Y-99635300D03*
X-13225000Y-99635300D03*
X-12725000Y-99635300D03*
D13*
X-11035000Y-97235300D03*
X-19915000Y-97235300D03*
D11*
X208525000Y-42063300D03*
X208525000Y-38763300D03*
X98987500Y-61848300D03*
X98987500Y-58548300D03*
X179950000Y-21435000D03*
X179950000Y-18135000D03*
X155630000Y-63905800D03*
X155630000Y-60605800D03*
X237100000Y-1650000D03*
X237100000Y1650000D03*
D37*
X335455000Y20560000D03*
X333905000Y20560000D03*
D42*
X258860589Y15660589D03*
X259539411Y16339411D03*
D43*
X239764982Y28991855D03*
X240724982Y28991855D03*
D38*
X239737500Y27117913D03*
X239737500Y25217913D03*
X237862500Y26167913D03*
D11*
X218050000Y-1650000D03*
X218050000Y1650000D03*
D12*
X279313900Y-62998300D03*
X279813900Y-62998300D03*
X280313900Y-62998300D03*
X280813900Y-62998300D03*
X281313900Y-62998300D03*
X281813900Y-62998300D03*
X282313900Y-62998300D03*
X282813900Y-62998300D03*
X283313900Y-62998300D03*
X283813900Y-62998300D03*
X284313900Y-62998300D03*
X284813900Y-62998300D03*
X285313900Y-62998300D03*
X285813900Y-62998300D03*
X286313900Y-62998300D03*
X286813900Y-62998300D03*
X287313900Y-62998300D03*
X287813900Y-62998300D03*
X288313900Y-62998300D03*
X288813900Y-62998300D03*
X289313900Y-62998300D03*
X289813900Y-62998300D03*
X290313900Y-62998300D03*
X290813900Y-62998300D03*
D13*
X277623900Y-60598300D03*
X292503900Y-60598300D03*
D44*
X-15325000Y12775000D03*
X-9725000Y12775000D03*
D45*
X-11025000Y16650000D03*
X-12025000Y16650000D03*
X-13025000Y16650000D03*
X-14025000Y16650000D03*
D27*
X242400000Y28110000D03*
X242400000Y27090000D03*
D37*
X335445000Y18730000D03*
X333895000Y18730000D03*
D12*
X-12725000Y-61748300D03*
X-13225000Y-61748300D03*
X-13725000Y-61748300D03*
X-14225000Y-61748300D03*
X-14725000Y-61748300D03*
X-15225000Y-61748300D03*
X-15725000Y-61748300D03*
X-16225000Y-61748300D03*
X-16725000Y-61748300D03*
X-17225000Y-61748300D03*
X-17725000Y-61748300D03*
X-18225000Y-61748300D03*
D13*
X-11035000Y-64148300D03*
X-19915000Y-64148300D03*
D46*
X299820000Y26240000D03*
X299820000Y20040000D03*
X303520000Y20040000D03*
X303520000Y26240000D03*
D11*
X165662500Y-82285300D03*
X165662500Y-78985300D03*
X246625000Y-42063300D03*
X246625000Y-38763300D03*
D38*
X241337500Y15350000D03*
X241337500Y13450000D03*
X239462500Y14400000D03*
D11*
X299250000Y-21435000D03*
X299250000Y-18135000D03*
X41837500Y-61848300D03*
X41837500Y-58548300D03*
X122800000Y-21435000D03*
X122800000Y-18135000D03*
X60887500Y-102835300D03*
X60887500Y-99535300D03*
D15*
X243200000Y13920000D03*
X243200000Y14880000D03*
D36*
X266247971Y28123495D03*
X265569149Y28802317D03*
D47*
X332137500Y19000000D03*
X330312500Y19000000D03*
D11*
X170425000Y-1650000D03*
X170425000Y1650000D03*
X270437500Y-42063300D03*
X270437500Y-38763300D03*
D48*
X-7823000Y17778000D03*
X-4523000Y17778000D03*
D15*
X240502500Y20697000D03*
X240502500Y21657000D03*
D12*
X347075000Y-1550000D03*
X346575000Y-1550000D03*
X346075000Y-1550000D03*
X345575000Y-1550000D03*
X345075000Y-1550000D03*
X344575000Y-1550000D03*
X344075000Y-1550000D03*
X343575000Y-1550000D03*
X343075000Y-1550000D03*
X342575000Y-1550000D03*
X342075000Y-1550000D03*
X341575000Y-1550000D03*
D13*
X339885000Y-3950000D03*
X348765000Y-3950000D03*
D31*
X242430455Y24842055D03*
X242430455Y25862055D03*
D12*
X341575000Y-18235000D03*
X342075000Y-18235000D03*
X342575000Y-18235000D03*
X343075000Y-18235000D03*
X343575000Y-18235000D03*
X344075000Y-18235000D03*
X344575000Y-18235000D03*
X345075000Y-18235000D03*
X345575000Y-18235000D03*
X346075000Y-18235000D03*
X346575000Y-18235000D03*
X347075000Y-18235000D03*
D13*
X348765000Y-15835000D03*
X339885000Y-15835000D03*
D11*
X170425000Y-42063300D03*
X170425000Y-38763300D03*
X127562500Y-82285300D03*
X127562500Y-78985300D03*
X27550000Y-21435000D03*
X27550000Y-18135000D03*
D12*
X295271400Y18375000D03*
X294771400Y18375000D03*
X294271400Y18375000D03*
X293771400Y18375000D03*
X293271400Y18375000D03*
X292771400Y18375000D03*
X292271400Y18375000D03*
X291771400Y18375000D03*
X291271400Y18375000D03*
X290771400Y18375000D03*
X290271400Y18375000D03*
X289771400Y18375000D03*
X289271400Y18375000D03*
X288771400Y18375000D03*
X288271400Y18375000D03*
X287771400Y18375000D03*
X287271400Y18375000D03*
X286771400Y18375000D03*
X286271400Y18375000D03*
X285771400Y18375000D03*
X285271400Y18375000D03*
X284771400Y18375000D03*
X284271400Y18375000D03*
X283771400Y18375000D03*
D13*
X296961400Y15975000D03*
X282081400Y15975000D03*
D11*
X222812500Y-102835300D03*
X222812500Y-99535300D03*
D49*
X-11523000Y18256600D03*
D50*
X-12023000Y18256600D03*
D51*
X-12523000Y18256600D03*
D50*
X-13023000Y18256600D03*
X-13523000Y18256600D03*
X-13523000Y19026600D03*
X-13023000Y19026600D03*
D51*
X-12523000Y19026600D03*
D50*
X-12023000Y19026600D03*
X-11523000Y19026600D03*
D22*
X268928822Y29851469D03*
X268250000Y29172647D03*
X259174248Y31814945D03*
X258495426Y31136123D03*
D11*
X270437500Y-102835300D03*
X270437500Y-99535300D03*
X117890000Y-63145800D03*
X117890000Y-59845800D03*
X108512500Y-82285300D03*
X108512500Y-78985300D03*
X184712500Y-82285300D03*
X184712500Y-78985300D03*
X218050000Y-21435000D03*
X218050000Y-18135000D03*
X318300000Y-102835300D03*
X318300000Y-99535300D03*
D12*
X-18225000Y-38863300D03*
X-17725000Y-38863300D03*
X-17225000Y-38863300D03*
X-16725000Y-38863300D03*
X-16225000Y-38863300D03*
X-15725000Y-38863300D03*
X-15225000Y-38863300D03*
X-14725000Y-38863300D03*
X-14225000Y-38863300D03*
X-13725000Y-38863300D03*
X-13225000Y-38863300D03*
X-12725000Y-38863300D03*
D13*
X-19915000Y-36463300D03*
X-11035000Y-36463300D03*
D12*
X347075000Y-82185300D03*
X346575000Y-82185300D03*
X346075000Y-82185300D03*
X345575000Y-82185300D03*
X345075000Y-82185300D03*
X344575000Y-82185300D03*
X344075000Y-82185300D03*
X343575000Y-82185300D03*
X343075000Y-82185300D03*
X342575000Y-82185300D03*
X342075000Y-82185300D03*
X341575000Y-82185300D03*
D13*
X348765000Y-84585300D03*
X339885000Y-84585300D03*
D11*
X65650000Y-1650000D03*
X65650000Y1650000D03*
X203762500Y-82285300D03*
X203762500Y-78985300D03*
D12*
X347075000Y-21335000D03*
X346575000Y-21335000D03*
X346075000Y-21335000D03*
X345575000Y-21335000D03*
X345075000Y-21335000D03*
X344575000Y-21335000D03*
X344075000Y-21335000D03*
X343575000Y-21335000D03*
X343075000Y-21335000D03*
X342575000Y-21335000D03*
X342075000Y-21335000D03*
X341575000Y-21335000D03*
D13*
X339885000Y-23735000D03*
X348765000Y-23735000D03*
D12*
X-18225000Y-79085300D03*
X-17725000Y-79085300D03*
X-17225000Y-79085300D03*
X-16725000Y-79085300D03*
X-16225000Y-79085300D03*
X-15725000Y-79085300D03*
X-15225000Y-79085300D03*
X-14725000Y-79085300D03*
X-14225000Y-79085300D03*
X-13725000Y-79085300D03*
X-13225000Y-79085300D03*
X-12725000Y-79085300D03*
D13*
X-19915000Y-76685300D03*
X-11035000Y-76685300D03*
D11*
X20406250Y-82285300D03*
X20406250Y-78985300D03*
D23*
X267570000Y-57985800D03*
X264270000Y-57985800D03*
D11*
X265675000Y-21435000D03*
X265675000Y-18135000D03*
D23*
X170800000Y-63345800D03*
X174100000Y-63345800D03*
D11*
X103750000Y-21435000D03*
X103750000Y-18135000D03*
X132325000Y-42063300D03*
X132325000Y-38763300D03*
X65650000Y-21435000D03*
X65650000Y-18135000D03*
X337900000Y2180000D03*
X337900000Y5480000D03*
D52*
X-15773000Y20550000D03*
X-14973000Y20550000D03*
D53*
X-13773000Y20550000D03*
X-12777000Y20550000D03*
X-12273000Y20550000D03*
X-11273000Y20550000D03*
D52*
X-9273000Y20550000D03*
X-10073000Y20550000D03*
D53*
X-10773000Y20550000D03*
X-11773000Y20550000D03*
X-13273000Y20550000D03*
X-14273000Y20550000D03*
D12*
X-18225000Y-18235000D03*
X-17725000Y-18235000D03*
X-17225000Y-18235000D03*
X-16725000Y-18235000D03*
X-16225000Y-18235000D03*
X-15725000Y-18235000D03*
X-15225000Y-18235000D03*
X-14725000Y-18235000D03*
X-14225000Y-18235000D03*
X-13725000Y-18235000D03*
X-13225000Y-18235000D03*
X-12725000Y-18235000D03*
D13*
X-19915000Y-15835000D03*
X-11035000Y-15835000D03*
D11*
X151375000Y-1650000D03*
X151375000Y1650000D03*
X94225000Y-42063300D03*
X94225000Y-38763300D03*
X75175000Y-42063300D03*
X75175000Y-38763300D03*
X299250000Y-102835300D03*
X299250000Y-99535300D03*
D12*
X347075000Y-61748300D03*
X346575000Y-61748300D03*
X346075000Y-61748300D03*
X345575000Y-61748300D03*
X345075000Y-61748300D03*
X344575000Y-61748300D03*
X344075000Y-61748300D03*
X343575000Y-61748300D03*
X343075000Y-61748300D03*
X342575000Y-61748300D03*
X342075000Y-61748300D03*
X341575000Y-61748300D03*
D13*
X339885000Y-64148300D03*
X348765000Y-64148300D03*
D22*
X260061564Y30954517D03*
X259382742Y30275695D03*
D11*
X37075000Y-42063300D03*
X37075000Y-38763300D03*
D43*
X238452500Y20697000D03*
X239412500Y20697000D03*
D11*
X141850000Y-102835300D03*
X141850000Y-99535300D03*
X89462500Y-82285300D03*
X89462500Y-78985300D03*
X151375000Y-42063300D03*
X151375000Y-38763300D03*
M02*
