%TF.GenerationSoftware,KiCad,Pcbnew,(6.0.5-0)*%
%TF.CreationDate,2023-01-21T22:01:54+08:00*%
%TF.ProjectId,main,6d61696e-2e6b-4696-9361-645f70636258,Prototype-V1*%
%TF.SameCoordinates,Original*%
%TF.FileFunction,Other,User*%
%FSLAX46Y46*%
G04 Gerber Fmt 4.6, Leading zero omitted, Abs format (unit mm)*
G04 Created by KiCad (PCBNEW (6.0.5-0)) date 2023-01-21 22:01:54*
%MOMM*%
%LPD*%
G01*
G04 APERTURE LIST*
%ADD10C,0.050000*%
%ADD11C,0.127000*%
%ADD12C,0.150000*%
G04 APERTURE END LIST*
D10*
X-14525000Y17625000D02*
X-10525000Y17625000D01*
X-9525000Y16125000D02*
X-9525000Y12125000D01*
X-10525000Y17625000D02*
X-10525000Y16125000D01*
X-9525000Y12125000D02*
X-15525000Y12125000D01*
X-15525000Y12125000D02*
X-15525000Y16125000D01*
X-14525000Y16125000D02*
X-14525000Y17625000D01*
X-15525000Y16125000D02*
X-9525000Y16125000D01*
D11*
X262475000Y-12785000D02*
X262475000Y-17185000D01*
D12*
X261747000Y-15975000D02*
X261747000Y-13435000D01*
X251333000Y-18515000D02*
X248793000Y-18515000D01*
X248793000Y-15975000D02*
X251333000Y-15975000D01*
D11*
X250675000Y-15285000D02*
X250675000Y-19185000D01*
D12*
X264287000Y-13435000D02*
X264287000Y-15975000D01*
D11*
X250675000Y-19185000D02*
X254775000Y-19185000D01*
D12*
X264287000Y-15975000D02*
X261747000Y-15975000D01*
D11*
X262475000Y-12785000D02*
X253175000Y-12785000D01*
D12*
X248793000Y-18515000D02*
X248793000Y-15975000D01*
D11*
X256775000Y-17185000D02*
X262475000Y-17185000D01*
D12*
X251333000Y-15975000D02*
X251333000Y-18515000D01*
X261747000Y-13435000D02*
X264287000Y-13435000D01*
D11*
X253175000Y-12785000D02*
G75*
G03*
X250675000Y-15285000I0J-2500000D01*
G01*
X256775000Y-17185000D02*
G75*
G03*
X254775000Y-19185000I-1J-1999999D01*
G01*
D12*
X261239000Y-14705000D02*
G75*
G03*
X261239000Y-14705000I-1524000J0D01*
G01*
X254889000Y-17245000D02*
G75*
G03*
X254889000Y-17245000I-1524000J0D01*
G01*
X210693000Y-39143300D02*
X213233000Y-39143300D01*
X226187000Y-34063300D02*
X226187000Y-36603300D01*
D11*
X224375000Y-33413300D02*
X215075000Y-33413300D01*
X212575000Y-39813300D02*
X216675000Y-39813300D01*
X212575000Y-35913300D02*
X212575000Y-39813300D01*
D12*
X223647000Y-34063300D02*
X226187000Y-34063300D01*
X223647000Y-36603300D02*
X223647000Y-34063300D01*
X213233000Y-36603300D02*
X210693000Y-36603300D01*
X210693000Y-36603300D02*
X210693000Y-39143300D01*
D11*
X218675000Y-37813300D02*
X224375000Y-37813300D01*
D12*
X213233000Y-39143300D02*
X213233000Y-36603300D01*
D11*
X224375000Y-33413300D02*
X224375000Y-37813300D01*
D12*
X226187000Y-36603300D02*
X223647000Y-36603300D01*
D11*
X218675000Y-37813300D02*
G75*
G03*
X216675000Y-39813300I-1J-1999999D01*
G01*
X215075000Y-33413300D02*
G75*
G03*
X212575000Y-35913300I0J-2500000D01*
G01*
D12*
X216789000Y-37873300D02*
G75*
G03*
X216789000Y-37873300I-1524000J0D01*
G01*
X223139000Y-35333300D02*
G75*
G03*
X223139000Y-35333300I-1524000J0D01*
G01*
D11*
X48162500Y-73635300D02*
X38862500Y-73635300D01*
D12*
X37020500Y-79365300D02*
X37020500Y-76825300D01*
D11*
X36362500Y-80035300D02*
X40462500Y-80035300D01*
D12*
X49974500Y-74285300D02*
X49974500Y-76825300D01*
D11*
X48162500Y-73635300D02*
X48162500Y-78035300D01*
D12*
X47434500Y-76825300D02*
X47434500Y-74285300D01*
X37020500Y-76825300D02*
X34480500Y-76825300D01*
D11*
X42462500Y-78035300D02*
X48162500Y-78035300D01*
X36362500Y-76135300D02*
X36362500Y-80035300D01*
D12*
X49974500Y-76825300D02*
X47434500Y-76825300D01*
X34480500Y-79365300D02*
X37020500Y-79365300D01*
X47434500Y-74285300D02*
X49974500Y-74285300D01*
X34480500Y-76825300D02*
X34480500Y-79365300D01*
D11*
X42462500Y-78035300D02*
G75*
G03*
X40462500Y-80035300I-1J-1999999D01*
G01*
X38862500Y-73635300D02*
G75*
G03*
X36362500Y-76135300I0J-2500000D01*
G01*
D12*
X46926500Y-75555300D02*
G75*
G03*
X46926500Y-75555300I-1524000J0D01*
G01*
X40576500Y-78095300D02*
G75*
G03*
X40576500Y-78095300I-1524000J0D01*
G01*
X288505400Y11625000D02*
X287997400Y11625000D01*
X290537400Y11625000D02*
X291045400Y11625000D01*
X287235400Y11625000D02*
X286727400Y11625000D01*
X291807400Y11625000D02*
X292315400Y11625000D01*
X289267400Y11625000D02*
X289775400Y11625000D01*
D11*
X-1737500Y-39813300D02*
X2362500Y-39813300D01*
D12*
X-3619500Y-36603300D02*
X-1079500Y-36603300D01*
D11*
X-1737500Y-35913300D02*
X-1737500Y-39813300D01*
D12*
X11874500Y-34063300D02*
X11874500Y-36603300D01*
X9334500Y-34063300D02*
X11874500Y-34063300D01*
X-1079500Y-36603300D02*
X-1079500Y-39143300D01*
X9334500Y-36603300D02*
X9334500Y-34063300D01*
D11*
X10062500Y-33413300D02*
X762500Y-33413300D01*
X10062500Y-33413300D02*
X10062500Y-37813300D01*
D12*
X11874500Y-36603300D02*
X9334500Y-36603300D01*
X-3619500Y-39143300D02*
X-3619500Y-36603300D01*
D11*
X4362500Y-37813300D02*
X10062500Y-37813300D01*
D12*
X-1079500Y-39143300D02*
X-3619500Y-39143300D01*
D11*
X762500Y-33413300D02*
G75*
G03*
X-1737500Y-35913300I0J-2500000D01*
G01*
X4362500Y-37813300D02*
G75*
G03*
X2362500Y-39813300I-1J-1999999D01*
G01*
D12*
X2476500Y-37873300D02*
G75*
G03*
X2476500Y-37873300I-1524000J0D01*
G01*
X8826500Y-35333300D02*
G75*
G03*
X8826500Y-35333300I-1524000J0D01*
G01*
X22733000Y-39143300D02*
X22733000Y-36603300D01*
X35687000Y-34063300D02*
X35687000Y-36603300D01*
X33147000Y-36603300D02*
X33147000Y-34063300D01*
D11*
X22075000Y-35913300D02*
X22075000Y-39813300D01*
D12*
X20193000Y-36603300D02*
X20193000Y-39143300D01*
D11*
X28175000Y-37813300D02*
X33875000Y-37813300D01*
D12*
X20193000Y-39143300D02*
X22733000Y-39143300D01*
D11*
X22075000Y-39813300D02*
X26175000Y-39813300D01*
D12*
X35687000Y-36603300D02*
X33147000Y-36603300D01*
D11*
X33875000Y-33413300D02*
X24575000Y-33413300D01*
D12*
X22733000Y-36603300D02*
X20193000Y-36603300D01*
X33147000Y-34063300D02*
X35687000Y-34063300D01*
D11*
X33875000Y-33413300D02*
X33875000Y-37813300D01*
X28175000Y-37813300D02*
G75*
G03*
X26175000Y-39813300I-1J-1999999D01*
G01*
X24575000Y-33413300D02*
G75*
G03*
X22075000Y-35913300I0J-2500000D01*
G01*
D12*
X32639000Y-35333300D02*
G75*
G03*
X32639000Y-35333300I-1524000J0D01*
G01*
X26289000Y-37873300D02*
G75*
G03*
X26289000Y-37873300I-1524000J0D01*
G01*
X290430250Y-11485000D02*
X290938250Y-11485000D01*
X289668250Y-11485000D02*
X289160250Y-11485000D01*
X287128250Y-11485000D02*
X286620250Y-11485000D01*
X288398250Y-11485000D02*
X287890250Y-11485000D01*
X291700250Y-11485000D02*
X292208250Y-11485000D01*
X-3525000Y18859000D02*
X-3525000Y18351000D01*
X-3525000Y17589000D02*
X-3525000Y17081000D01*
X-3525000Y20891000D02*
X-3525000Y21399000D01*
X-3525000Y22161000D02*
X-3525000Y22669000D01*
X-3525000Y19621000D02*
X-3525000Y20129000D01*
D11*
X267237500Y-94185300D02*
X267237500Y-98585300D01*
X255437500Y-100585300D02*
X259537500Y-100585300D01*
D12*
X266509500Y-94835300D02*
X269049500Y-94835300D01*
X253555500Y-97375300D02*
X256095500Y-97375300D01*
D11*
X261537500Y-98585300D02*
X267237500Y-98585300D01*
D12*
X256095500Y-97375300D02*
X256095500Y-99915300D01*
X266509500Y-97375300D02*
X266509500Y-94835300D01*
X253555500Y-99915300D02*
X253555500Y-97375300D01*
X269049500Y-94835300D02*
X269049500Y-97375300D01*
X269049500Y-97375300D02*
X266509500Y-97375300D01*
D11*
X255437500Y-96685300D02*
X255437500Y-100585300D01*
X267237500Y-94185300D02*
X257937500Y-94185300D01*
D12*
X256095500Y-99915300D02*
X253555500Y-99915300D01*
D11*
X261537500Y-98585300D02*
G75*
G03*
X259537500Y-100585300I-1J-1999999D01*
G01*
X257937500Y-94185300D02*
G75*
G03*
X255437500Y-96685300I0J-2500000D01*
G01*
D12*
X266001500Y-96105300D02*
G75*
G03*
X266001500Y-96105300I-1524000J0D01*
G01*
X259651500Y-98645300D02*
G75*
G03*
X259651500Y-98645300I-1524000J0D01*
G01*
X83312000Y-15975000D02*
X80772000Y-15975000D01*
D11*
X69700000Y-19185000D02*
X73800000Y-19185000D01*
X81500000Y-12785000D02*
X81500000Y-17185000D01*
D12*
X83312000Y-13435000D02*
X83312000Y-15975000D01*
X70358000Y-18515000D02*
X70358000Y-15975000D01*
D11*
X69700000Y-15285000D02*
X69700000Y-19185000D01*
D12*
X80772000Y-15975000D02*
X80772000Y-13435000D01*
D11*
X75800000Y-17185000D02*
X81500000Y-17185000D01*
D12*
X70358000Y-15975000D02*
X67818000Y-15975000D01*
X67818000Y-18515000D02*
X70358000Y-18515000D01*
X80772000Y-13435000D02*
X83312000Y-13435000D01*
D11*
X81500000Y-12785000D02*
X72200000Y-12785000D01*
D12*
X67818000Y-15975000D02*
X67818000Y-18515000D01*
D11*
X75800000Y-17185000D02*
G75*
G03*
X73800000Y-19185000I-1J-1999999D01*
G01*
X72200000Y-12785000D02*
G75*
G03*
X69700000Y-15285000I0J-2500000D01*
G01*
D12*
X80264000Y-14705000D02*
G75*
G03*
X80264000Y-14705000I-1524000J0D01*
G01*
X73914000Y-17245000D02*
G75*
G03*
X73914000Y-17245000I-1524000J0D01*
G01*
X152209500Y-53848300D02*
X154749500Y-53848300D01*
D11*
X141137500Y-59598300D02*
X145237500Y-59598300D01*
D12*
X139255500Y-56388300D02*
X139255500Y-58928300D01*
D11*
X141137500Y-55698300D02*
X141137500Y-59598300D01*
D12*
X139255500Y-58928300D02*
X141795500Y-58928300D01*
X154749500Y-53848300D02*
X154749500Y-56388300D01*
X154749500Y-56388300D02*
X152209500Y-56388300D01*
X152209500Y-56388300D02*
X152209500Y-53848300D01*
X141795500Y-58928300D02*
X141795500Y-56388300D01*
D11*
X152937500Y-53198300D02*
X152937500Y-57598300D01*
X152937500Y-53198300D02*
X143637500Y-53198300D01*
D12*
X141795500Y-56388300D02*
X139255500Y-56388300D01*
D11*
X147237500Y-57598300D02*
X152937500Y-57598300D01*
X147237500Y-57598300D02*
G75*
G03*
X145237500Y-59598300I-1J-1999999D01*
G01*
X143637500Y-53198300D02*
G75*
G03*
X141137500Y-55698300I0J-2500000D01*
G01*
D12*
X151701500Y-55118300D02*
G75*
G03*
X151701500Y-55118300I-1524000J0D01*
G01*
X145351500Y-57658300D02*
G75*
G03*
X145351500Y-57658300I-1524000J0D01*
G01*
D11*
X217337500Y-59598300D02*
X221437500Y-59598300D01*
X229137500Y-53198300D02*
X219837500Y-53198300D01*
D12*
X215455500Y-56388300D02*
X215455500Y-58928300D01*
X217995500Y-56388300D02*
X215455500Y-56388300D01*
X230949500Y-56388300D02*
X228409500Y-56388300D01*
X228409500Y-53848300D02*
X230949500Y-53848300D01*
X215455500Y-58928300D02*
X217995500Y-58928300D01*
D11*
X229137500Y-53198300D02*
X229137500Y-57598300D01*
X223437500Y-57598300D02*
X229137500Y-57598300D01*
X217337500Y-55698300D02*
X217337500Y-59598300D01*
D12*
X217995500Y-58928300D02*
X217995500Y-56388300D01*
X228409500Y-56388300D02*
X228409500Y-53848300D01*
X230949500Y-53848300D02*
X230949500Y-56388300D01*
D11*
X223437500Y-57598300D02*
G75*
G03*
X221437500Y-59598300I-1J-1999999D01*
G01*
X219837500Y-53198300D02*
G75*
G03*
X217337500Y-55698300I0J-2500000D01*
G01*
D12*
X227901500Y-55118300D02*
G75*
G03*
X227901500Y-55118300I-1524000J0D01*
G01*
X221551500Y-57658300D02*
G75*
G03*
X221551500Y-57658300I-1524000J0D01*
G01*
X269049500Y-36603300D02*
X266509500Y-36603300D01*
X266509500Y-36603300D02*
X266509500Y-34063300D01*
D11*
X255437500Y-39813300D02*
X259537500Y-39813300D01*
X267237500Y-33413300D02*
X257937500Y-33413300D01*
X261537500Y-37813300D02*
X267237500Y-37813300D01*
D12*
X253555500Y-39143300D02*
X253555500Y-36603300D01*
X256095500Y-36603300D02*
X256095500Y-39143300D01*
D11*
X267237500Y-33413300D02*
X267237500Y-37813300D01*
X255437500Y-35913300D02*
X255437500Y-39813300D01*
D12*
X269049500Y-34063300D02*
X269049500Y-36603300D01*
X253555500Y-36603300D02*
X256095500Y-36603300D01*
X266509500Y-34063300D02*
X269049500Y-34063300D01*
X256095500Y-39143300D02*
X253555500Y-39143300D01*
D11*
X257937500Y-33413300D02*
G75*
G03*
X255437500Y-35913300I0J-2500000D01*
G01*
X261537500Y-37813300D02*
G75*
G03*
X259537500Y-39813300I-1J-1999999D01*
G01*
D12*
X259651500Y-37873300D02*
G75*
G03*
X259651500Y-37873300I-1524000J0D01*
G01*
X266001500Y-35333300D02*
G75*
G03*
X266001500Y-35333300I-1524000J0D01*
G01*
X333422000Y3810000D02*
X333422000Y6350000D01*
D11*
X322350000Y4500000D02*
X322350000Y600000D01*
D12*
X335962000Y6350000D02*
X335962000Y3810000D01*
D11*
X334150000Y7000000D02*
X324850000Y7000000D01*
D12*
X335962000Y3810000D02*
X333422000Y3810000D01*
D11*
X334150000Y7000000D02*
X334150000Y2600000D01*
D12*
X323008000Y1270000D02*
X323008000Y3810000D01*
D11*
X322350000Y600000D02*
X326450000Y600000D01*
D12*
X320468000Y3810000D02*
X320468000Y1270000D01*
X323008000Y3810000D02*
X320468000Y3810000D01*
D11*
X328450000Y2600000D02*
X334150000Y2600000D01*
D12*
X333422000Y6350000D02*
X335962000Y6350000D01*
X320468000Y1270000D02*
X323008000Y1270000D01*
D11*
X324850000Y7000000D02*
G75*
G03*
X322350000Y4500000I0J-2500000D01*
G01*
X328450000Y2600000D02*
G75*
G03*
X326450000Y600000I-1J-1999999D01*
G01*
D12*
X326564000Y2540000D02*
G75*
G03*
X326564000Y2540000I-1524000J0D01*
G01*
X332914000Y5080000D02*
G75*
G03*
X332914000Y5080000I-1524000J0D01*
G01*
X-1079500Y-99915300D02*
X-3619500Y-99915300D01*
X-1079500Y-97375300D02*
X-1079500Y-99915300D01*
D11*
X-1737500Y-100585300D02*
X2362500Y-100585300D01*
X4362500Y-98585300D02*
X10062500Y-98585300D01*
D12*
X-3619500Y-97375300D02*
X-1079500Y-97375300D01*
X9334500Y-97375300D02*
X9334500Y-94835300D01*
X11874500Y-94835300D02*
X11874500Y-97375300D01*
D11*
X10062500Y-94185300D02*
X10062500Y-98585300D01*
D12*
X11874500Y-97375300D02*
X9334500Y-97375300D01*
D11*
X-1737500Y-96685300D02*
X-1737500Y-100585300D01*
D12*
X9334500Y-94835300D02*
X11874500Y-94835300D01*
X-3619500Y-99915300D02*
X-3619500Y-97375300D01*
D11*
X10062500Y-94185300D02*
X762500Y-94185300D01*
X762500Y-94185300D02*
G75*
G03*
X-1737500Y-96685300I0J-2500000D01*
G01*
X4362500Y-98585300D02*
G75*
G03*
X2362500Y-100585300I-1J-1999999D01*
G01*
D12*
X2476500Y-98645300D02*
G75*
G03*
X2476500Y-98645300I-1524000J0D01*
G01*
X8826500Y-96105300D02*
G75*
G03*
X8826500Y-96105300I-1524000J0D01*
G01*
X-21525000Y-62484300D02*
X-21525000Y-62992300D01*
X-21525000Y-61214300D02*
X-21525000Y-61722300D01*
X-21525000Y-57912300D02*
X-21525000Y-57404300D01*
X-21525000Y-59944300D02*
X-21525000Y-60452300D01*
X-21525000Y-59182300D02*
X-21525000Y-58674300D01*
X350400000Y23346000D02*
X350400000Y23854000D01*
X350400000Y21314000D02*
X350400000Y20806000D01*
X350400000Y24616000D02*
X350400000Y25124000D01*
X350400000Y25886000D02*
X350400000Y26394000D01*
X350400000Y22584000D02*
X350400000Y22076000D01*
D11*
X86262500Y-73635300D02*
X76962500Y-73635300D01*
D12*
X85534500Y-76825300D02*
X85534500Y-74285300D01*
X88074500Y-74285300D02*
X88074500Y-76825300D01*
D11*
X74462500Y-76135300D02*
X74462500Y-80035300D01*
D12*
X72580500Y-79365300D02*
X75120500Y-79365300D01*
X88074500Y-76825300D02*
X85534500Y-76825300D01*
X72580500Y-76825300D02*
X72580500Y-79365300D01*
D11*
X86262500Y-73635300D02*
X86262500Y-78035300D01*
D12*
X85534500Y-74285300D02*
X88074500Y-74285300D01*
D11*
X80562500Y-78035300D02*
X86262500Y-78035300D01*
D12*
X75120500Y-79365300D02*
X75120500Y-76825300D01*
X75120500Y-76825300D02*
X72580500Y-76825300D01*
D11*
X74462500Y-80035300D02*
X78562500Y-80035300D01*
X76962500Y-73635300D02*
G75*
G03*
X74462500Y-76135300I0J-2500000D01*
G01*
X80562500Y-78035300D02*
G75*
G03*
X78562500Y-80035300I-1J-1999999D01*
G01*
D12*
X78676500Y-78095300D02*
G75*
G03*
X78676500Y-78095300I-1524000J0D01*
G01*
X85026500Y-75555300D02*
G75*
G03*
X85026500Y-75555300I-1524000J0D01*
G01*
X31750Y-66548300D02*
X31750Y-64008300D01*
D11*
X7543750Y-62798300D02*
X1843750Y-62798300D01*
D12*
X12985750Y-61468300D02*
X15525750Y-61468300D01*
D11*
X1843750Y-67198300D02*
X1843750Y-62798300D01*
D12*
X12985750Y-64008300D02*
X12985750Y-61468300D01*
D11*
X1843750Y-67198300D02*
X11143750Y-67198300D01*
D12*
X31750Y-64008300D02*
X2571750Y-64008300D01*
X15525750Y-64008300D02*
X12985750Y-64008300D01*
X2571750Y-64008300D02*
X2571750Y-66548300D01*
D11*
X13643750Y-64698300D02*
X13643750Y-60798300D01*
D12*
X15525750Y-61468300D02*
X15525750Y-64008300D01*
D11*
X13643750Y-60798300D02*
X9543750Y-60798300D01*
D12*
X2571750Y-66548300D02*
X31750Y-66548300D01*
D11*
X7543750Y-62798300D02*
G75*
G03*
X9543750Y-60798300I1J1999999D01*
G01*
X11143750Y-67198300D02*
G75*
G03*
X13643750Y-64698300I0J2500000D01*
G01*
D12*
X6127750Y-65278300D02*
G75*
G03*
X6127750Y-65278300I-1524000J0D01*
G01*
X12477750Y-62738300D02*
G75*
G03*
X12477750Y-62738300I-1524000J0D01*
G01*
X316912000Y-36603300D02*
X314372000Y-36603300D01*
D11*
X309400000Y-37813300D02*
X315100000Y-37813300D01*
D12*
X316912000Y-34063300D02*
X316912000Y-36603300D01*
X301418000Y-36603300D02*
X301418000Y-39143300D01*
X303958000Y-36603300D02*
X301418000Y-36603300D01*
X314372000Y-36603300D02*
X314372000Y-34063300D01*
X301418000Y-39143300D02*
X303958000Y-39143300D01*
D11*
X315100000Y-33413300D02*
X305800000Y-33413300D01*
X315100000Y-33413300D02*
X315100000Y-37813300D01*
D12*
X303958000Y-39143300D02*
X303958000Y-36603300D01*
X314372000Y-34063300D02*
X316912000Y-34063300D01*
D11*
X303300000Y-39813300D02*
X307400000Y-39813300D01*
X303300000Y-35913300D02*
X303300000Y-39813300D01*
X305800000Y-33413300D02*
G75*
G03*
X303300000Y-35913300I0J-2500000D01*
G01*
X309400000Y-37813300D02*
G75*
G03*
X307400000Y-39813300I-1J-1999999D01*
G01*
D12*
X307514000Y-37873300D02*
G75*
G03*
X307514000Y-37873300I-1524000J0D01*
G01*
X313864000Y-35333300D02*
G75*
G03*
X313864000Y-35333300I-1524000J0D01*
G01*
X284908000Y3810000D02*
X282368000Y3810000D01*
D11*
X284250000Y4500000D02*
X284250000Y600000D01*
D12*
X297862000Y3810000D02*
X295322000Y3810000D01*
X282368000Y1270000D02*
X284908000Y1270000D01*
X284908000Y1270000D02*
X284908000Y3810000D01*
D11*
X296050000Y7000000D02*
X296050000Y2600000D01*
D12*
X297862000Y6350000D02*
X297862000Y3810000D01*
X295322000Y6350000D02*
X297862000Y6350000D01*
D11*
X290350000Y2600000D02*
X296050000Y2600000D01*
X284250000Y600000D02*
X288350000Y600000D01*
D12*
X295322000Y3810000D02*
X295322000Y6350000D01*
X282368000Y3810000D02*
X282368000Y1270000D01*
D11*
X296050000Y7000000D02*
X286750000Y7000000D01*
X290350000Y2600000D02*
G75*
G03*
X288350000Y600000I-1J-1999999D01*
G01*
X286750000Y7000000D02*
G75*
G03*
X284250000Y4500000I0J-2500000D01*
G01*
D12*
X288464000Y2540000D02*
G75*
G03*
X288464000Y2540000I-1524000J0D01*
G01*
X294814000Y5080000D02*
G75*
G03*
X294814000Y5080000I-1524000J0D01*
G01*
X194183000Y-36603300D02*
X191643000Y-36603300D01*
X207137000Y-34063300D02*
X207137000Y-36603300D01*
X191643000Y-39143300D02*
X194183000Y-39143300D01*
D11*
X205325000Y-33413300D02*
X205325000Y-37813300D01*
D12*
X194183000Y-39143300D02*
X194183000Y-36603300D01*
D11*
X193525000Y-39813300D02*
X197625000Y-39813300D01*
D12*
X207137000Y-36603300D02*
X204597000Y-36603300D01*
X191643000Y-36603300D02*
X191643000Y-39143300D01*
D11*
X199625000Y-37813300D02*
X205325000Y-37813300D01*
D12*
X204597000Y-34063300D02*
X207137000Y-34063300D01*
D11*
X193525000Y-35913300D02*
X193525000Y-39813300D01*
X205325000Y-33413300D02*
X196025000Y-33413300D01*
D12*
X204597000Y-36603300D02*
X204597000Y-34063300D01*
D11*
X196025000Y-33413300D02*
G75*
G03*
X193525000Y-35913300I0J-2500000D01*
G01*
X199625000Y-37813300D02*
G75*
G03*
X197625000Y-39813300I-1J-1999999D01*
G01*
D12*
X204089000Y-35333300D02*
G75*
G03*
X204089000Y-35333300I-1524000J0D01*
G01*
X197739000Y-37873300D02*
G75*
G03*
X197739000Y-37873300I-1524000J0D01*
G01*
D11*
X222100000Y600000D02*
X226200000Y600000D01*
X228200000Y2600000D02*
X233900000Y2600000D01*
D12*
X235712000Y3810000D02*
X233172000Y3810000D01*
X235712000Y6350000D02*
X235712000Y3810000D01*
X220218000Y3810000D02*
X220218000Y1270000D01*
X220218000Y1270000D02*
X222758000Y1270000D01*
D11*
X233900000Y7000000D02*
X233900000Y2600000D01*
X222100000Y4500000D02*
X222100000Y600000D01*
X233900000Y7000000D02*
X224600000Y7000000D01*
D12*
X233172000Y6350000D02*
X235712000Y6350000D01*
X233172000Y3810000D02*
X233172000Y6350000D01*
X222758000Y3810000D02*
X220218000Y3810000D01*
X222758000Y1270000D02*
X222758000Y3810000D01*
D11*
X228200000Y2600000D02*
G75*
G03*
X226200000Y600000I-1J-1999999D01*
G01*
X224600000Y7000000D02*
G75*
G03*
X222100000Y4500000I0J-2500000D01*
G01*
D12*
X232664000Y5080000D02*
G75*
G03*
X232664000Y5080000I-1524000J0D01*
G01*
X226314000Y2540000D02*
G75*
G03*
X226314000Y2540000I-1524000J0D01*
G01*
X70358000Y1270000D02*
X70358000Y3810000D01*
D11*
X75800000Y2600000D02*
X81500000Y2600000D01*
D12*
X83312000Y6350000D02*
X83312000Y3810000D01*
D11*
X69700000Y4500000D02*
X69700000Y600000D01*
X81500000Y7000000D02*
X81500000Y2600000D01*
D12*
X80772000Y3810000D02*
X80772000Y6350000D01*
X70358000Y3810000D02*
X67818000Y3810000D01*
D11*
X69700000Y600000D02*
X73800000Y600000D01*
D12*
X67818000Y3810000D02*
X67818000Y1270000D01*
D11*
X81500000Y7000000D02*
X72200000Y7000000D01*
D12*
X83312000Y3810000D02*
X80772000Y3810000D01*
X80772000Y6350000D02*
X83312000Y6350000D01*
X67818000Y1270000D02*
X70358000Y1270000D01*
D11*
X75800000Y2600000D02*
G75*
G03*
X73800000Y600000I-1J-1999999D01*
G01*
X72200000Y7000000D02*
G75*
G03*
X69700000Y4500000I0J-2500000D01*
G01*
D12*
X73914000Y2540000D02*
G75*
G03*
X73914000Y2540000I-1524000J0D01*
G01*
X80264000Y5080000D02*
G75*
G03*
X80264000Y5080000I-1524000J0D01*
G01*
X301418000Y3810000D02*
X301418000Y1270000D01*
X303958000Y3810000D02*
X301418000Y3810000D01*
X316912000Y6350000D02*
X316912000Y3810000D01*
D11*
X309400000Y2600000D02*
X315100000Y2600000D01*
D12*
X303958000Y1270000D02*
X303958000Y3810000D01*
D11*
X315100000Y7000000D02*
X315100000Y2600000D01*
D12*
X316912000Y3810000D02*
X314372000Y3810000D01*
D11*
X303300000Y4500000D02*
X303300000Y600000D01*
X303300000Y600000D02*
X307400000Y600000D01*
X315100000Y7000000D02*
X305800000Y7000000D01*
D12*
X314372000Y3810000D02*
X314372000Y6350000D01*
X314372000Y6350000D02*
X316912000Y6350000D01*
X301418000Y1270000D02*
X303958000Y1270000D01*
D11*
X305800000Y7000000D02*
G75*
G03*
X303300000Y4500000I0J-2500000D01*
G01*
X309400000Y2600000D02*
G75*
G03*
X307400000Y600000I-1J-1999999D01*
G01*
D12*
X307514000Y2540000D02*
G75*
G03*
X307514000Y2540000I-1524000J0D01*
G01*
X313864000Y5080000D02*
G75*
G03*
X313864000Y5080000I-1524000J0D01*
G01*
X288505400Y-72335300D02*
X287997400Y-72335300D01*
X291807400Y-72335300D02*
X292315400Y-72335300D01*
X287235400Y-72335300D02*
X286727400Y-72335300D01*
X290537400Y-72335300D02*
X291045400Y-72335300D01*
X289775400Y-72335300D02*
X289267400Y-72335300D01*
X164274500Y-76825300D02*
X161734500Y-76825300D01*
X148780500Y-76825300D02*
X148780500Y-79365300D01*
X161734500Y-76825300D02*
X161734500Y-74285300D01*
D11*
X162462500Y-73635300D02*
X153162500Y-73635300D01*
D12*
X161734500Y-74285300D02*
X164274500Y-74285300D01*
D11*
X150662500Y-76135300D02*
X150662500Y-80035300D01*
D12*
X148780500Y-79365300D02*
X151320500Y-79365300D01*
D11*
X162462500Y-73635300D02*
X162462500Y-78035300D01*
D12*
X151320500Y-79365300D02*
X151320500Y-76825300D01*
X151320500Y-76825300D02*
X148780500Y-76825300D01*
D11*
X156762500Y-78035300D02*
X162462500Y-78035300D01*
X150662500Y-80035300D02*
X154762500Y-80035300D01*
D12*
X164274500Y-74285300D02*
X164274500Y-76825300D01*
D11*
X156762500Y-78035300D02*
G75*
G03*
X154762500Y-80035300I-1J-1999999D01*
G01*
X153162500Y-73635300D02*
G75*
G03*
X150662500Y-76135300I0J-2500000D01*
G01*
D12*
X161226500Y-75555300D02*
G75*
G03*
X161226500Y-75555300I-1524000J0D01*
G01*
X154876500Y-78095300D02*
G75*
G03*
X154876500Y-78095300I-1524000J0D01*
G01*
D11*
X247250000Y2600000D02*
X252950000Y2600000D01*
X252950000Y7000000D02*
X243650000Y7000000D01*
X241150000Y600000D02*
X245250000Y600000D01*
D12*
X239268000Y3810000D02*
X239268000Y1270000D01*
D11*
X241150000Y4500000D02*
X241150000Y600000D01*
D12*
X239268000Y1270000D02*
X241808000Y1270000D01*
X254762000Y6350000D02*
X254762000Y3810000D01*
X252222000Y3810000D02*
X252222000Y6350000D01*
X241808000Y3810000D02*
X239268000Y3810000D01*
X241808000Y1270000D02*
X241808000Y3810000D01*
X254762000Y3810000D02*
X252222000Y3810000D01*
X252222000Y6350000D02*
X254762000Y6350000D01*
D11*
X252950000Y7000000D02*
X252950000Y2600000D01*
X243650000Y7000000D02*
G75*
G03*
X241150000Y4500000I0J-2500000D01*
G01*
X247250000Y2600000D02*
G75*
G03*
X245250000Y600000I-1J-1999999D01*
G01*
D12*
X245364000Y2540000D02*
G75*
G03*
X245364000Y2540000I-1524000J0D01*
G01*
X251714000Y5080000D02*
G75*
G03*
X251714000Y5080000I-1524000J0D01*
G01*
D11*
X203050000Y600000D02*
X207150000Y600000D01*
X214850000Y7000000D02*
X205550000Y7000000D01*
D12*
X201168000Y3810000D02*
X201168000Y1270000D01*
X216662000Y3810000D02*
X214122000Y3810000D01*
X203708000Y1270000D02*
X203708000Y3810000D01*
D11*
X203050000Y4500000D02*
X203050000Y600000D01*
D12*
X214122000Y6350000D02*
X216662000Y6350000D01*
X203708000Y3810000D02*
X201168000Y3810000D01*
D11*
X209150000Y2600000D02*
X214850000Y2600000D01*
X214850000Y7000000D02*
X214850000Y2600000D01*
D12*
X216662000Y6350000D02*
X216662000Y3810000D01*
X214122000Y3810000D02*
X214122000Y6350000D01*
X201168000Y1270000D02*
X203708000Y1270000D01*
D11*
X205550000Y7000000D02*
G75*
G03*
X203050000Y4500000I0J-2500000D01*
G01*
X209150000Y2600000D02*
G75*
G03*
X207150000Y600000I-1J-1999999D01*
G01*
D12*
X213614000Y5080000D02*
G75*
G03*
X213614000Y5080000I-1524000J0D01*
G01*
X207264000Y2540000D02*
G75*
G03*
X207264000Y2540000I-1524000J0D01*
G01*
D11*
X-6500000Y4500000D02*
X-6500000Y600000D01*
D12*
X7112000Y3810000D02*
X4572000Y3810000D01*
D11*
X-400000Y2600000D02*
X5300000Y2600000D01*
D12*
X-5842000Y3810000D02*
X-8382000Y3810000D01*
X7112000Y6350000D02*
X7112000Y3810000D01*
X-5842000Y1270000D02*
X-5842000Y3810000D01*
D11*
X5300000Y7000000D02*
X5300000Y2600000D01*
D12*
X-8382000Y1270000D02*
X-5842000Y1270000D01*
X-8382000Y3810000D02*
X-8382000Y1270000D01*
X4572000Y6350000D02*
X7112000Y6350000D01*
D11*
X5300000Y7000000D02*
X-4000000Y7000000D01*
X-6500000Y600000D02*
X-2400000Y600000D01*
D12*
X4572000Y3810000D02*
X4572000Y6350000D01*
D11*
X-400000Y2600000D02*
G75*
G03*
X-2400000Y600000I-1J-1999999D01*
G01*
X-4000000Y7000000D02*
G75*
G03*
X-6500000Y4500000I0J-2500000D01*
G01*
D12*
X-2286000Y2540000D02*
G75*
G03*
X-2286000Y2540000I-1524000J0D01*
G01*
X4064000Y5080000D02*
G75*
G03*
X4064000Y5080000I-1524000J0D01*
G01*
D11*
X155425000Y600000D02*
X159525000Y600000D01*
D12*
X169037000Y3810000D02*
X166497000Y3810000D01*
X169037000Y6350000D02*
X169037000Y3810000D01*
X156083000Y3810000D02*
X153543000Y3810000D01*
X156083000Y1270000D02*
X156083000Y3810000D01*
D11*
X167225000Y7000000D02*
X157925000Y7000000D01*
X161525000Y2600000D02*
X167225000Y2600000D01*
D12*
X166497000Y3810000D02*
X166497000Y6350000D01*
D11*
X155425000Y4500000D02*
X155425000Y600000D01*
D12*
X153543000Y3810000D02*
X153543000Y1270000D01*
X166497000Y6350000D02*
X169037000Y6350000D01*
D11*
X167225000Y7000000D02*
X167225000Y2600000D01*
D12*
X153543000Y1270000D02*
X156083000Y1270000D01*
D11*
X157925000Y7000000D02*
G75*
G03*
X155425000Y4500000I0J-2500000D01*
G01*
X161525000Y2600000D02*
G75*
G03*
X159525000Y600000I-1J-1999999D01*
G01*
D12*
X159639000Y2540000D02*
G75*
G03*
X159639000Y2540000I-1524000J0D01*
G01*
X165989000Y5080000D02*
G75*
G03*
X165989000Y5080000I-1524000J0D01*
G01*
X159512000Y-15975000D02*
X156972000Y-15975000D01*
X156972000Y-15975000D02*
X156972000Y-13435000D01*
D11*
X152000000Y-17185000D02*
X157700000Y-17185000D01*
X157700000Y-12785000D02*
X157700000Y-17185000D01*
D12*
X146558000Y-18515000D02*
X146558000Y-15975000D01*
X146558000Y-15975000D02*
X144018000Y-15975000D01*
D11*
X157700000Y-12785000D02*
X148400000Y-12785000D01*
D12*
X144018000Y-15975000D02*
X144018000Y-18515000D01*
X156972000Y-13435000D02*
X159512000Y-13435000D01*
X144018000Y-18515000D02*
X146558000Y-18515000D01*
D11*
X145900000Y-15285000D02*
X145900000Y-19185000D01*
X145900000Y-19185000D02*
X150000000Y-19185000D01*
D12*
X159512000Y-13435000D02*
X159512000Y-15975000D01*
D11*
X148400000Y-12785000D02*
G75*
G03*
X145900000Y-15285000I0J-2500000D01*
G01*
X152000000Y-17185000D02*
G75*
G03*
X150000000Y-19185000I-1J-1999999D01*
G01*
D12*
X156464000Y-14705000D02*
G75*
G03*
X156464000Y-14705000I-1524000J0D01*
G01*
X150114000Y-17245000D02*
G75*
G03*
X150114000Y-17245000I-1524000J0D01*
G01*
X118872000Y-13435000D02*
X121412000Y-13435000D01*
D11*
X119600000Y-12785000D02*
X119600000Y-17185000D01*
X107800000Y-19185000D02*
X111900000Y-19185000D01*
D12*
X105918000Y-18515000D02*
X108458000Y-18515000D01*
X105918000Y-15975000D02*
X105918000Y-18515000D01*
X108458000Y-18515000D02*
X108458000Y-15975000D01*
X121412000Y-13435000D02*
X121412000Y-15975000D01*
X121412000Y-15975000D02*
X118872000Y-15975000D01*
X108458000Y-15975000D02*
X105918000Y-15975000D01*
D11*
X119600000Y-12785000D02*
X110300000Y-12785000D01*
X113900000Y-17185000D02*
X119600000Y-17185000D01*
X107800000Y-15285000D02*
X107800000Y-19185000D01*
D12*
X118872000Y-15975000D02*
X118872000Y-13435000D01*
D11*
X110300000Y-12785000D02*
G75*
G03*
X107800000Y-15285000I0J-2500000D01*
G01*
X113900000Y-17185000D02*
G75*
G03*
X111900000Y-19185000I-1J-1999999D01*
G01*
D12*
X112014000Y-17245000D02*
G75*
G03*
X112014000Y-17245000I-1524000J0D01*
G01*
X118364000Y-14705000D02*
G75*
G03*
X118364000Y-14705000I-1524000J0D01*
G01*
X335962000Y-94835300D02*
X335962000Y-97375300D01*
D11*
X328450000Y-98585300D02*
X334150000Y-98585300D01*
X322350000Y-96685300D02*
X322350000Y-100585300D01*
D12*
X320468000Y-99915300D02*
X323008000Y-99915300D01*
X323008000Y-97375300D02*
X320468000Y-97375300D01*
X320468000Y-97375300D02*
X320468000Y-99915300D01*
X335962000Y-97375300D02*
X333422000Y-97375300D01*
D11*
X334150000Y-94185300D02*
X334150000Y-98585300D01*
X322350000Y-100585300D02*
X326450000Y-100585300D01*
D12*
X333422000Y-97375300D02*
X333422000Y-94835300D01*
D11*
X334150000Y-94185300D02*
X324850000Y-94185300D01*
D12*
X333422000Y-94835300D02*
X335962000Y-94835300D01*
X323008000Y-99915300D02*
X323008000Y-97375300D01*
D11*
X328450000Y-98585300D02*
G75*
G03*
X326450000Y-100585300I-1J-1999999D01*
G01*
X324850000Y-94185300D02*
G75*
G03*
X322350000Y-96685300I0J-2500000D01*
G01*
D12*
X332914000Y-96105300D02*
G75*
G03*
X332914000Y-96105300I-1524000J0D01*
G01*
X326564000Y-98645300D02*
G75*
G03*
X326564000Y-98645300I-1524000J0D01*
G01*
X228667800Y22509000D02*
X228667800Y22001000D01*
X228667800Y24541000D02*
X228667800Y25049000D01*
X228667800Y23779000D02*
X228667800Y23271000D01*
X228667800Y25811000D02*
X228667800Y26319000D01*
X228667800Y21239000D02*
X228667800Y20731000D01*
X178562000Y-15975000D02*
X176022000Y-15975000D01*
X176022000Y-15975000D02*
X176022000Y-13435000D01*
D11*
X171050000Y-17185000D02*
X176750000Y-17185000D01*
X176750000Y-12785000D02*
X167450000Y-12785000D01*
D12*
X165608000Y-15975000D02*
X163068000Y-15975000D01*
X163068000Y-18515000D02*
X165608000Y-18515000D01*
D11*
X164950000Y-15285000D02*
X164950000Y-19185000D01*
X164950000Y-19185000D02*
X169050000Y-19185000D01*
D12*
X176022000Y-13435000D02*
X178562000Y-13435000D01*
D11*
X176750000Y-12785000D02*
X176750000Y-17185000D01*
D12*
X163068000Y-15975000D02*
X163068000Y-18515000D01*
X165608000Y-18515000D02*
X165608000Y-15975000D01*
X178562000Y-13435000D02*
X178562000Y-15975000D01*
D11*
X167450000Y-12785000D02*
G75*
G03*
X164950000Y-15285000I0J-2500000D01*
G01*
X171050000Y-17185000D02*
G75*
G03*
X169050000Y-19185000I-1J-1999999D01*
G01*
D12*
X169164000Y-17245000D02*
G75*
G03*
X169164000Y-17245000I-1524000J0D01*
G01*
X175514000Y-14705000D02*
G75*
G03*
X175514000Y-14705000I-1524000J0D01*
G01*
X19018250Y-74285300D02*
X19018250Y-76825300D01*
X6064250Y-76825300D02*
X6064250Y-79365300D01*
D11*
X17206250Y-73635300D02*
X7906250Y-73635300D01*
X5406250Y-80035300D02*
X9506250Y-80035300D01*
X11506250Y-78035300D02*
X17206250Y-78035300D01*
X5406250Y-76135300D02*
X5406250Y-80035300D01*
D12*
X19018250Y-76825300D02*
X16478250Y-76825300D01*
X16478250Y-76825300D02*
X16478250Y-74285300D01*
D11*
X17206250Y-73635300D02*
X17206250Y-78035300D01*
D12*
X3524250Y-76825300D02*
X6064250Y-76825300D01*
X3524250Y-79365300D02*
X3524250Y-76825300D01*
X16478250Y-74285300D02*
X19018250Y-74285300D01*
X6064250Y-79365300D02*
X3524250Y-79365300D01*
D11*
X11506250Y-78035300D02*
G75*
G03*
X9506250Y-80035300I-1J-1999999D01*
G01*
X7906250Y-73635300D02*
G75*
G03*
X5406250Y-76135300I0J-2500000D01*
G01*
D12*
X9620250Y-78095300D02*
G75*
G03*
X9620250Y-78095300I-1524000J0D01*
G01*
X15970250Y-75555300D02*
G75*
G03*
X15970250Y-75555300I-1524000J0D01*
G01*
D11*
X254393750Y-57598300D02*
X260093750Y-57598300D01*
X248293750Y-59598300D02*
X252393750Y-59598300D01*
X260093750Y-53198300D02*
X250793750Y-53198300D01*
D12*
X259365750Y-56388300D02*
X259365750Y-53848300D01*
X261905750Y-53848300D02*
X261905750Y-56388300D01*
X246411750Y-58928300D02*
X246411750Y-56388300D01*
X259365750Y-53848300D02*
X261905750Y-53848300D01*
D11*
X260093750Y-53198300D02*
X260093750Y-57598300D01*
D12*
X261905750Y-56388300D02*
X259365750Y-56388300D01*
X248951750Y-56388300D02*
X248951750Y-58928300D01*
X248951750Y-58928300D02*
X246411750Y-58928300D01*
X246411750Y-56388300D02*
X248951750Y-56388300D01*
D11*
X248293750Y-55698300D02*
X248293750Y-59598300D01*
X254393750Y-57598300D02*
G75*
G03*
X252393750Y-59598300I-1J-1999999D01*
G01*
X250793750Y-53198300D02*
G75*
G03*
X248293750Y-55698300I0J-2500000D01*
G01*
D12*
X252507750Y-57658300D02*
G75*
G03*
X252507750Y-57658300I-1524000J0D01*
G01*
X258857750Y-55118300D02*
G75*
G03*
X258857750Y-55118300I-1524000J0D01*
G01*
D11*
X334150000Y-33413300D02*
X334150000Y-37813300D01*
X322350000Y-35913300D02*
X322350000Y-39813300D01*
X322350000Y-39813300D02*
X326450000Y-39813300D01*
D12*
X323008000Y-36603300D02*
X320468000Y-36603300D01*
D11*
X334150000Y-33413300D02*
X324850000Y-33413300D01*
D12*
X333422000Y-36603300D02*
X333422000Y-34063300D01*
X333422000Y-34063300D02*
X335962000Y-34063300D01*
X323008000Y-39143300D02*
X323008000Y-36603300D01*
X335962000Y-34063300D02*
X335962000Y-36603300D01*
X335962000Y-36603300D02*
X333422000Y-36603300D01*
X320468000Y-39143300D02*
X323008000Y-39143300D01*
D11*
X328450000Y-37813300D02*
X334150000Y-37813300D01*
D12*
X320468000Y-36603300D02*
X320468000Y-39143300D01*
D11*
X324850000Y-33413300D02*
G75*
G03*
X322350000Y-35913300I0J-2500000D01*
G01*
X328450000Y-37813300D02*
G75*
G03*
X326450000Y-39813300I-1J-1999999D01*
G01*
D12*
X326564000Y-37873300D02*
G75*
G03*
X326564000Y-37873300I-1524000J0D01*
G01*
X332914000Y-35333300D02*
G75*
G03*
X332914000Y-35333300I-1524000J0D01*
G01*
X183324500Y-74285300D02*
X183324500Y-76825300D01*
X170370500Y-79365300D02*
X170370500Y-76825300D01*
X167830500Y-76825300D02*
X167830500Y-79365300D01*
D11*
X175812500Y-78035300D02*
X181512500Y-78035300D01*
X169712500Y-80035300D02*
X173812500Y-80035300D01*
D12*
X180784500Y-74285300D02*
X183324500Y-74285300D01*
D11*
X181512500Y-73635300D02*
X181512500Y-78035300D01*
D12*
X183324500Y-76825300D02*
X180784500Y-76825300D01*
X180784500Y-76825300D02*
X180784500Y-74285300D01*
X170370500Y-76825300D02*
X167830500Y-76825300D01*
D11*
X181512500Y-73635300D02*
X172212500Y-73635300D01*
X169712500Y-76135300D02*
X169712500Y-80035300D01*
D12*
X167830500Y-79365300D02*
X170370500Y-79365300D01*
D11*
X175812500Y-78035300D02*
G75*
G03*
X173812500Y-80035300I-1J-1999999D01*
G01*
X172212500Y-73635300D02*
G75*
G03*
X169712500Y-76135300I0J-2500000D01*
G01*
D12*
X173926500Y-78095300D02*
G75*
G03*
X173926500Y-78095300I-1524000J0D01*
G01*
X180276500Y-75555300D02*
G75*
G03*
X180276500Y-75555300I-1524000J0D01*
G01*
X59499500Y-53848300D02*
X59499500Y-56388300D01*
D11*
X51987500Y-57598300D02*
X57687500Y-57598300D01*
X57687500Y-53198300D02*
X57687500Y-57598300D01*
D12*
X46545500Y-58928300D02*
X46545500Y-56388300D01*
D11*
X57687500Y-53198300D02*
X48387500Y-53198300D01*
D12*
X56959500Y-53848300D02*
X59499500Y-53848300D01*
D11*
X45887500Y-59598300D02*
X49987500Y-59598300D01*
D12*
X44005500Y-58928300D02*
X46545500Y-58928300D01*
X44005500Y-56388300D02*
X44005500Y-58928300D01*
X59499500Y-56388300D02*
X56959500Y-56388300D01*
D11*
X45887500Y-55698300D02*
X45887500Y-59598300D01*
D12*
X56959500Y-56388300D02*
X56959500Y-53848300D01*
X46545500Y-56388300D02*
X44005500Y-56388300D01*
D11*
X51987500Y-57598300D02*
G75*
G03*
X49987500Y-59598300I-1J-1999999D01*
G01*
X48387500Y-53198300D02*
G75*
G03*
X45887500Y-55698300I0J-2500000D01*
G01*
D12*
X56451500Y-55118300D02*
G75*
G03*
X56451500Y-55118300I-1524000J0D01*
G01*
X50101500Y-57658300D02*
G75*
G03*
X50101500Y-57658300I-1524000J0D01*
G01*
D11*
X-4100000Y-55685800D02*
X-4100000Y-59585800D01*
D12*
X-3442000Y-58915800D02*
X-5982000Y-58915800D01*
D11*
X7700000Y-53185800D02*
X-1600000Y-53185800D01*
D12*
X-3442000Y-56375800D02*
X-3442000Y-58915800D01*
X-5982000Y-56375800D02*
X-3442000Y-56375800D01*
D11*
X2000000Y-57585800D02*
X7700000Y-57585800D01*
D12*
X-5982000Y-58915800D02*
X-5982000Y-56375800D01*
X9512000Y-53835800D02*
X9512000Y-56375800D01*
X6972000Y-56375800D02*
X6972000Y-53835800D01*
X6972000Y-53835800D02*
X9512000Y-53835800D01*
D11*
X-4100000Y-59585800D02*
X0Y-59585800D01*
X7700000Y-53185800D02*
X7700000Y-57585800D01*
D12*
X9512000Y-56375800D02*
X6972000Y-56375800D01*
D11*
X-1600000Y-53185800D02*
G75*
G03*
X-4100000Y-55685800I0J-2500000D01*
G01*
X2000000Y-57585800D02*
G75*
G03*
X0Y-59585800I-1J-1999999D01*
G01*
D12*
X6464000Y-55105800D02*
G75*
G03*
X6464000Y-55105800I-1524000J0D01*
G01*
X114000Y-57645800D02*
G75*
G03*
X114000Y-57645800I-1524000J0D01*
G01*
X-21525000Y-18769000D02*
X-21525000Y-18261000D01*
X-21525000Y-20801000D02*
X-21525000Y-21309000D01*
X-21525000Y-19531000D02*
X-21525000Y-20039000D01*
X-21525000Y-17499000D02*
X-21525000Y-16991000D01*
X-21525000Y-22071000D02*
X-21525000Y-22579000D01*
D11*
X103037500Y-59598300D02*
X107137500Y-59598300D01*
D12*
X103695500Y-56388300D02*
X101155500Y-56388300D01*
D11*
X103037500Y-55698300D02*
X103037500Y-59598300D01*
D12*
X116649500Y-53848300D02*
X116649500Y-56388300D01*
X114109500Y-56388300D02*
X114109500Y-53848300D01*
D11*
X114837500Y-53198300D02*
X114837500Y-57598300D01*
D12*
X114109500Y-53848300D02*
X116649500Y-53848300D01*
X116649500Y-56388300D02*
X114109500Y-56388300D01*
D11*
X114837500Y-53198300D02*
X105537500Y-53198300D01*
D12*
X103695500Y-58928300D02*
X103695500Y-56388300D01*
X101155500Y-58928300D02*
X103695500Y-58928300D01*
X101155500Y-56388300D02*
X101155500Y-58928300D01*
D11*
X109137500Y-57598300D02*
X114837500Y-57598300D01*
X105537500Y-53198300D02*
G75*
G03*
X103037500Y-55698300I0J-2500000D01*
G01*
X109137500Y-57598300D02*
G75*
G03*
X107137500Y-59598300I-1J-1999999D01*
G01*
D12*
X107251500Y-57658300D02*
G75*
G03*
X107251500Y-57658300I-1524000J0D01*
G01*
X113601500Y-55118300D02*
G75*
G03*
X113601500Y-55118300I-1524000J0D01*
G01*
X100087400Y-68498300D02*
X100595400Y-68498300D01*
X96785400Y-68498300D02*
X96277400Y-68498300D01*
X101357400Y-68498300D02*
X101865400Y-68498300D01*
X98055400Y-68498300D02*
X97547400Y-68498300D01*
X98817400Y-68498300D02*
X99325400Y-68498300D01*
D11*
X155425000Y-35913300D02*
X155425000Y-39813300D01*
D12*
X166497000Y-36603300D02*
X166497000Y-34063300D01*
X156083000Y-39143300D02*
X156083000Y-36603300D01*
X169037000Y-36603300D02*
X166497000Y-36603300D01*
X166497000Y-34063300D02*
X169037000Y-34063300D01*
X156083000Y-36603300D02*
X153543000Y-36603300D01*
D11*
X167225000Y-33413300D02*
X157925000Y-33413300D01*
D12*
X153543000Y-36603300D02*
X153543000Y-39143300D01*
X153543000Y-39143300D02*
X156083000Y-39143300D01*
D11*
X155425000Y-39813300D02*
X159525000Y-39813300D01*
X167225000Y-33413300D02*
X167225000Y-37813300D01*
X161525000Y-37813300D02*
X167225000Y-37813300D01*
D12*
X169037000Y-34063300D02*
X169037000Y-36603300D01*
D11*
X157925000Y-33413300D02*
G75*
G03*
X155425000Y-35913300I0J-2500000D01*
G01*
X161525000Y-37813300D02*
G75*
G03*
X159525000Y-39813300I-1J-1999999D01*
G01*
D12*
X165989000Y-35333300D02*
G75*
G03*
X165989000Y-35333300I-1524000J0D01*
G01*
X159639000Y-37873300D02*
G75*
G03*
X159639000Y-37873300I-1524000J0D01*
G01*
D11*
X94850000Y2600000D02*
X100550000Y2600000D01*
X100550000Y7000000D02*
X91250000Y7000000D01*
D12*
X99822000Y3810000D02*
X99822000Y6350000D01*
D11*
X88750000Y4500000D02*
X88750000Y600000D01*
D12*
X89408000Y3810000D02*
X86868000Y3810000D01*
X102362000Y6350000D02*
X102362000Y3810000D01*
D11*
X88750000Y600000D02*
X92850000Y600000D01*
D12*
X86868000Y1270000D02*
X89408000Y1270000D01*
X99822000Y6350000D02*
X102362000Y6350000D01*
X86868000Y3810000D02*
X86868000Y1270000D01*
X89408000Y1270000D02*
X89408000Y3810000D01*
D11*
X100550000Y7000000D02*
X100550000Y2600000D01*
D12*
X102362000Y3810000D02*
X99822000Y3810000D01*
D11*
X94850000Y2600000D02*
G75*
G03*
X92850000Y600000I-1J-1999999D01*
G01*
X91250000Y7000000D02*
G75*
G03*
X88750000Y4500000I0J-2500000D01*
G01*
D12*
X92964000Y2540000D02*
G75*
G03*
X92964000Y2540000I-1524000J0D01*
G01*
X99314000Y5080000D02*
G75*
G03*
X99314000Y5080000I-1524000J0D01*
G01*
X127508000Y-18515000D02*
X127508000Y-15975000D01*
X137922000Y-13435000D02*
X140462000Y-13435000D01*
D11*
X126850000Y-19185000D02*
X130950000Y-19185000D01*
D12*
X124968000Y-15975000D02*
X124968000Y-18515000D01*
X124968000Y-18515000D02*
X127508000Y-18515000D01*
D11*
X138650000Y-12785000D02*
X129350000Y-12785000D01*
D12*
X137922000Y-15975000D02*
X137922000Y-13435000D01*
X140462000Y-13435000D02*
X140462000Y-15975000D01*
X127508000Y-15975000D02*
X124968000Y-15975000D01*
D11*
X126850000Y-15285000D02*
X126850000Y-19185000D01*
X132950000Y-17185000D02*
X138650000Y-17185000D01*
D12*
X140462000Y-15975000D02*
X137922000Y-15975000D01*
D11*
X138650000Y-12785000D02*
X138650000Y-17185000D01*
X129350000Y-12785000D02*
G75*
G03*
X126850000Y-15285000I0J-2500000D01*
G01*
X132950000Y-17185000D02*
G75*
G03*
X130950000Y-19185000I-1J-1999999D01*
G01*
D12*
X137414000Y-14705000D02*
G75*
G03*
X137414000Y-14705000I-1524000J0D01*
G01*
X131064000Y-17245000D02*
G75*
G03*
X131064000Y-17245000I-1524000J0D01*
G01*
X350375000Y-62484300D02*
X350375000Y-62992300D01*
X350375000Y-57912300D02*
X350375000Y-57404300D01*
X350375000Y-60452300D02*
X350375000Y-59944300D01*
X350375000Y-61214300D02*
X350375000Y-61722300D01*
X350375000Y-59182300D02*
X350375000Y-58674300D01*
X51308000Y-15975000D02*
X48768000Y-15975000D01*
X51308000Y-18515000D02*
X51308000Y-15975000D01*
X64262000Y-13435000D02*
X64262000Y-15975000D01*
X48768000Y-15975000D02*
X48768000Y-18515000D01*
X61722000Y-13435000D02*
X64262000Y-13435000D01*
D11*
X62450000Y-12785000D02*
X62450000Y-17185000D01*
D12*
X48768000Y-18515000D02*
X51308000Y-18515000D01*
D11*
X62450000Y-12785000D02*
X53150000Y-12785000D01*
X50650000Y-15285000D02*
X50650000Y-19185000D01*
X56750000Y-17185000D02*
X62450000Y-17185000D01*
X50650000Y-19185000D02*
X54750000Y-19185000D01*
D12*
X64262000Y-15975000D02*
X61722000Y-15975000D01*
X61722000Y-15975000D02*
X61722000Y-13435000D01*
D11*
X56750000Y-17185000D02*
G75*
G03*
X54750000Y-19185000I-1J-1999999D01*
G01*
X53150000Y-12785000D02*
G75*
G03*
X50650000Y-15285000I0J-2500000D01*
G01*
D12*
X54864000Y-17245000D02*
G75*
G03*
X54864000Y-17245000I-1524000J0D01*
G01*
X61214000Y-14705000D02*
G75*
G03*
X61214000Y-14705000I-1524000J0D01*
G01*
X350375000Y-103471300D02*
X350375000Y-103979300D01*
X350375000Y-100169300D02*
X350375000Y-99661300D01*
X350375000Y-98899300D02*
X350375000Y-98391300D01*
X350375000Y-101439300D02*
X350375000Y-100931300D01*
X350375000Y-102201300D02*
X350375000Y-102709300D01*
X284908000Y-18515000D02*
X284908000Y-15975000D01*
D11*
X290350000Y-17185000D02*
X296050000Y-17185000D01*
X296050000Y-12785000D02*
X296050000Y-17185000D01*
D12*
X297862000Y-13435000D02*
X297862000Y-15975000D01*
X295322000Y-15975000D02*
X295322000Y-13435000D01*
X295322000Y-13435000D02*
X297862000Y-13435000D01*
X297862000Y-15975000D02*
X295322000Y-15975000D01*
D11*
X284250000Y-19185000D02*
X288350000Y-19185000D01*
D12*
X282368000Y-15975000D02*
X282368000Y-18515000D01*
X282368000Y-18515000D02*
X284908000Y-18515000D01*
D11*
X296050000Y-12785000D02*
X286750000Y-12785000D01*
D12*
X284908000Y-15975000D02*
X282368000Y-15975000D01*
D11*
X284250000Y-15285000D02*
X284250000Y-19185000D01*
X290350000Y-17185000D02*
G75*
G03*
X288350000Y-19185000I-1J-1999999D01*
G01*
X286750000Y-12785000D02*
G75*
G03*
X284250000Y-15285000I0J-2500000D01*
G01*
D12*
X288464000Y-17245000D02*
G75*
G03*
X288464000Y-17245000I-1524000J0D01*
G01*
X294814000Y-14705000D02*
G75*
G03*
X294814000Y-14705000I-1524000J0D01*
G01*
X-21525000Y-40159300D02*
X-21525000Y-40667300D01*
X-21525000Y-39397300D02*
X-21525000Y-38889300D01*
X-21525000Y-42699300D02*
X-21525000Y-43207300D01*
X-21525000Y-38127300D02*
X-21525000Y-37619300D01*
X-21525000Y-41429300D02*
X-21525000Y-41937300D01*
X350375000Y-20039000D02*
X350375000Y-19531000D01*
X350375000Y-18769000D02*
X350375000Y-18261000D01*
X350375000Y-17499000D02*
X350375000Y-16991000D01*
X350375000Y-22071000D02*
X350375000Y-22579000D01*
X350375000Y-20801000D02*
X350375000Y-21309000D01*
D11*
X45887500Y-100585300D02*
X49987500Y-100585300D01*
D12*
X46545500Y-97375300D02*
X46545500Y-99915300D01*
X59499500Y-97375300D02*
X56959500Y-97375300D01*
D11*
X51987500Y-98585300D02*
X57687500Y-98585300D01*
X57687500Y-94185300D02*
X57687500Y-98585300D01*
D12*
X44005500Y-99915300D02*
X44005500Y-97375300D01*
X56959500Y-97375300D02*
X56959500Y-94835300D01*
D11*
X57687500Y-94185300D02*
X48387500Y-94185300D01*
X45887500Y-96685300D02*
X45887500Y-100585300D01*
D12*
X46545500Y-99915300D02*
X44005500Y-99915300D01*
X44005500Y-97375300D02*
X46545500Y-97375300D01*
X56959500Y-94835300D02*
X59499500Y-94835300D01*
X59499500Y-94835300D02*
X59499500Y-97375300D01*
D11*
X48387500Y-94185300D02*
G75*
G03*
X45887500Y-96685300I0J-2500000D01*
G01*
X51987500Y-98585300D02*
G75*
G03*
X49987500Y-100585300I-1J-1999999D01*
G01*
D12*
X50101500Y-98645300D02*
G75*
G03*
X50101500Y-98645300I-1524000J0D01*
G01*
X56451500Y-96105300D02*
G75*
G03*
X56451500Y-96105300I-1524000J0D01*
G01*
X323008000Y-15975000D02*
X320468000Y-15975000D01*
X335962000Y-13435000D02*
X335962000Y-15975000D01*
D11*
X334150000Y-12785000D02*
X324850000Y-12785000D01*
D12*
X323008000Y-18515000D02*
X323008000Y-15975000D01*
X335962000Y-15975000D02*
X333422000Y-15975000D01*
D11*
X328450000Y-17185000D02*
X334150000Y-17185000D01*
D12*
X333422000Y-13435000D02*
X335962000Y-13435000D01*
X320468000Y-15975000D02*
X320468000Y-18515000D01*
X333422000Y-15975000D02*
X333422000Y-13435000D01*
D11*
X334150000Y-12785000D02*
X334150000Y-17185000D01*
D12*
X320468000Y-18515000D02*
X323008000Y-18515000D01*
D11*
X322350000Y-15285000D02*
X322350000Y-19185000D01*
X322350000Y-19185000D02*
X326450000Y-19185000D01*
X324850000Y-12785000D02*
G75*
G03*
X322350000Y-15285000I0J-2500000D01*
G01*
X328450000Y-17185000D02*
G75*
G03*
X326450000Y-19185000I-1J-1999999D01*
G01*
D12*
X332914000Y-14705000D02*
G75*
G03*
X332914000Y-14705000I-1524000J0D01*
G01*
X326564000Y-17245000D02*
G75*
G03*
X326564000Y-17245000I-1524000J0D01*
G01*
D11*
X179237500Y-55698300D02*
X179237500Y-59598300D01*
D12*
X192849500Y-53848300D02*
X192849500Y-56388300D01*
X190309500Y-56388300D02*
X190309500Y-53848300D01*
D11*
X179237500Y-59598300D02*
X183337500Y-59598300D01*
D12*
X190309500Y-53848300D02*
X192849500Y-53848300D01*
X177355500Y-56388300D02*
X177355500Y-58928300D01*
D11*
X191037500Y-53198300D02*
X181737500Y-53198300D01*
X191037500Y-53198300D02*
X191037500Y-57598300D01*
D12*
X179895500Y-58928300D02*
X179895500Y-56388300D01*
D11*
X185337500Y-57598300D02*
X191037500Y-57598300D01*
D12*
X192849500Y-56388300D02*
X190309500Y-56388300D01*
X179895500Y-56388300D02*
X177355500Y-56388300D01*
X177355500Y-58928300D02*
X179895500Y-58928300D01*
D11*
X185337500Y-57598300D02*
G75*
G03*
X183337500Y-59598300I-1J-1999999D01*
G01*
X181737500Y-53198300D02*
G75*
G03*
X179237500Y-55698300I0J-2500000D01*
G01*
D12*
X183451500Y-57658300D02*
G75*
G03*
X183451500Y-57658300I-1524000J0D01*
G01*
X189801500Y-55118300D02*
G75*
G03*
X189801500Y-55118300I-1524000J0D01*
G01*
X182118000Y-18515000D02*
X184658000Y-18515000D01*
X184658000Y-15975000D02*
X182118000Y-15975000D01*
X184658000Y-18515000D02*
X184658000Y-15975000D01*
D11*
X190100000Y-17185000D02*
X195800000Y-17185000D01*
D12*
X197612000Y-15975000D02*
X195072000Y-15975000D01*
D11*
X195800000Y-12785000D02*
X195800000Y-17185000D01*
X195800000Y-12785000D02*
X186500000Y-12785000D01*
X184000000Y-15285000D02*
X184000000Y-19185000D01*
D12*
X195072000Y-15975000D02*
X195072000Y-13435000D01*
X197612000Y-13435000D02*
X197612000Y-15975000D01*
D11*
X184000000Y-19185000D02*
X188100000Y-19185000D01*
D12*
X182118000Y-15975000D02*
X182118000Y-18515000D01*
X195072000Y-13435000D02*
X197612000Y-13435000D01*
D11*
X190100000Y-17185000D02*
G75*
G03*
X188100000Y-19185000I-1J-1999999D01*
G01*
X186500000Y-12785000D02*
G75*
G03*
X184000000Y-15285000I0J-2500000D01*
G01*
D12*
X194564000Y-14705000D02*
G75*
G03*
X194564000Y-14705000I-1524000J0D01*
G01*
X188214000Y-17245000D02*
G75*
G03*
X188214000Y-17245000I-1524000J0D01*
G01*
X-8382000Y-15975000D02*
X-8382000Y-18515000D01*
X4572000Y-13435000D02*
X7112000Y-13435000D01*
X7112000Y-13435000D02*
X7112000Y-15975000D01*
D11*
X-6500000Y-19185000D02*
X-2400000Y-19185000D01*
D12*
X-5842000Y-15975000D02*
X-8382000Y-15975000D01*
D11*
X5300000Y-12785000D02*
X5300000Y-17185000D01*
D12*
X4572000Y-15975000D02*
X4572000Y-13435000D01*
X-5842000Y-18515000D02*
X-5842000Y-15975000D01*
D11*
X5300000Y-12785000D02*
X-4000000Y-12785000D01*
D12*
X-8382000Y-18515000D02*
X-5842000Y-18515000D01*
D11*
X-6500000Y-15285000D02*
X-6500000Y-19185000D01*
X-400000Y-17185000D02*
X5300000Y-17185000D01*
D12*
X7112000Y-15975000D02*
X4572000Y-15975000D01*
D11*
X-4000000Y-12785000D02*
G75*
G03*
X-6500000Y-15285000I0J-2500000D01*
G01*
X-400000Y-17185000D02*
G75*
G03*
X-2400000Y-19185000I-1J-1999999D01*
G01*
D12*
X4064000Y-14705000D02*
G75*
G03*
X4064000Y-14705000I-1524000J0D01*
G01*
X-2286000Y-17245000D02*
G75*
G03*
X-2286000Y-17245000I-1524000J0D01*
G01*
X96785400Y-92885300D02*
X96277400Y-92885300D01*
X99325400Y-92885300D02*
X98817400Y-92885300D01*
X100087400Y-92885300D02*
X100595400Y-92885300D01*
X98055400Y-92885300D02*
X97547400Y-92885300D01*
X101357400Y-92885300D02*
X101865400Y-92885300D01*
D11*
X94850000Y-17185000D02*
X100550000Y-17185000D01*
D12*
X86868000Y-18515000D02*
X89408000Y-18515000D01*
X102362000Y-13435000D02*
X102362000Y-15975000D01*
D11*
X100550000Y-12785000D02*
X100550000Y-17185000D01*
D12*
X86868000Y-15975000D02*
X86868000Y-18515000D01*
D11*
X88750000Y-15285000D02*
X88750000Y-19185000D01*
D12*
X99822000Y-15975000D02*
X99822000Y-13435000D01*
X89408000Y-15975000D02*
X86868000Y-15975000D01*
D11*
X100550000Y-12785000D02*
X91250000Y-12785000D01*
D12*
X89408000Y-18515000D02*
X89408000Y-15975000D01*
X102362000Y-15975000D02*
X99822000Y-15975000D01*
X99822000Y-13435000D02*
X102362000Y-13435000D01*
D11*
X88750000Y-19185000D02*
X92850000Y-19185000D01*
X94850000Y-17185000D02*
G75*
G03*
X92850000Y-19185000I-1J-1999999D01*
G01*
X91250000Y-12785000D02*
G75*
G03*
X88750000Y-15285000I0J-2500000D01*
G01*
D12*
X99314000Y-14705000D02*
G75*
G03*
X99314000Y-14705000I-1524000J0D01*
G01*
X92964000Y-17245000D02*
G75*
G03*
X92964000Y-17245000I-1524000J0D01*
G01*
X289775400Y-32113200D02*
X289267400Y-32113200D01*
X288505400Y-32113200D02*
X287997400Y-32113200D01*
X291807400Y-32113200D02*
X292315400Y-32113200D01*
X287235400Y-32113200D02*
X286727400Y-32113200D01*
X290537400Y-32113200D02*
X291045400Y-32113200D01*
X284908000Y-99915300D02*
X284908000Y-97375300D01*
D11*
X296050000Y-94185300D02*
X296050000Y-98585300D01*
D12*
X297862000Y-97375300D02*
X295322000Y-97375300D01*
X297862000Y-94835300D02*
X297862000Y-97375300D01*
X295322000Y-97375300D02*
X295322000Y-94835300D01*
D11*
X296050000Y-94185300D02*
X286750000Y-94185300D01*
X284250000Y-100585300D02*
X288350000Y-100585300D01*
X284250000Y-96685300D02*
X284250000Y-100585300D01*
X290350000Y-98585300D02*
X296050000Y-98585300D01*
D12*
X282368000Y-99915300D02*
X284908000Y-99915300D01*
X282368000Y-97375300D02*
X282368000Y-99915300D01*
X295322000Y-94835300D02*
X297862000Y-94835300D01*
X284908000Y-97375300D02*
X282368000Y-97375300D01*
D11*
X290350000Y-98585300D02*
G75*
G03*
X288350000Y-100585300I-1J-1999999D01*
G01*
X286750000Y-94185300D02*
G75*
G03*
X284250000Y-96685300I0J-2500000D01*
G01*
D12*
X294814000Y-96105300D02*
G75*
G03*
X294814000Y-96105300I-1524000J0D01*
G01*
X288464000Y-98645300D02*
G75*
G03*
X288464000Y-98645300I-1524000J0D01*
G01*
D11*
X129125000Y-33413300D02*
X119825000Y-33413300D01*
D12*
X128397000Y-34063300D02*
X130937000Y-34063300D01*
X130937000Y-34063300D02*
X130937000Y-36603300D01*
X117983000Y-39143300D02*
X117983000Y-36603300D01*
X117983000Y-36603300D02*
X115443000Y-36603300D01*
D11*
X123425000Y-37813300D02*
X129125000Y-37813300D01*
X129125000Y-33413300D02*
X129125000Y-37813300D01*
D12*
X130937000Y-36603300D02*
X128397000Y-36603300D01*
D11*
X117325000Y-35913300D02*
X117325000Y-39813300D01*
D12*
X115443000Y-39143300D02*
X117983000Y-39143300D01*
X115443000Y-36603300D02*
X115443000Y-39143300D01*
D11*
X117325000Y-39813300D02*
X121425000Y-39813300D01*
D12*
X128397000Y-36603300D02*
X128397000Y-34063300D01*
D11*
X123425000Y-37813300D02*
G75*
G03*
X121425000Y-39813300I-1J-1999999D01*
G01*
X119825000Y-33413300D02*
G75*
G03*
X117325000Y-35913300I0J-2500000D01*
G01*
D12*
X121539000Y-37873300D02*
G75*
G03*
X121539000Y-37873300I-1524000J0D01*
G01*
X127889000Y-35333300D02*
G75*
G03*
X127889000Y-35333300I-1524000J0D01*
G01*
X289775400Y-51898300D02*
X289267400Y-51898300D01*
X287235400Y-51898300D02*
X286727400Y-51898300D01*
X291807400Y-51898300D02*
X292315400Y-51898300D01*
X288505400Y-51898300D02*
X287997400Y-51898300D01*
X290537400Y-51898300D02*
X291045400Y-51898300D01*
D11*
X71975000Y-33413300D02*
X71975000Y-37813300D01*
D12*
X60833000Y-36603300D02*
X58293000Y-36603300D01*
D11*
X66275000Y-37813300D02*
X71975000Y-37813300D01*
D12*
X71247000Y-36603300D02*
X71247000Y-34063300D01*
D11*
X60175000Y-39813300D02*
X64275000Y-39813300D01*
D12*
X73787000Y-36603300D02*
X71247000Y-36603300D01*
X58293000Y-36603300D02*
X58293000Y-39143300D01*
X58293000Y-39143300D02*
X60833000Y-39143300D01*
X60833000Y-39143300D02*
X60833000Y-36603300D01*
X73787000Y-34063300D02*
X73787000Y-36603300D01*
D11*
X60175000Y-35913300D02*
X60175000Y-39813300D01*
D12*
X71247000Y-34063300D02*
X73787000Y-34063300D01*
D11*
X71975000Y-33413300D02*
X62675000Y-33413300D01*
X62675000Y-33413300D02*
G75*
G03*
X60175000Y-35913300I0J-2500000D01*
G01*
X66275000Y-37813300D02*
G75*
G03*
X64275000Y-39813300I-1J-1999999D01*
G01*
D12*
X70739000Y-35333300D02*
G75*
G03*
X70739000Y-35333300I-1524000J0D01*
G01*
X64389000Y-37873300D02*
G75*
G03*
X64389000Y-37873300I-1524000J0D01*
G01*
X96872697Y-8300000D02*
X96364697Y-8300000D01*
X101444697Y-8300000D02*
X101952697Y-8300000D01*
X98904697Y-8300000D02*
X99412697Y-8300000D01*
X100174697Y-8300000D02*
X100682697Y-8300000D01*
X98142697Y-8300000D02*
X97634697Y-8300000D01*
D11*
X136375000Y4500000D02*
X136375000Y600000D01*
D12*
X137033000Y1270000D02*
X137033000Y3810000D01*
D11*
X148175000Y7000000D02*
X148175000Y2600000D01*
D12*
X134493000Y1270000D02*
X137033000Y1270000D01*
X137033000Y3810000D02*
X134493000Y3810000D01*
X149987000Y6350000D02*
X149987000Y3810000D01*
D11*
X136375000Y600000D02*
X140475000Y600000D01*
D12*
X134493000Y3810000D02*
X134493000Y1270000D01*
X147447000Y3810000D02*
X147447000Y6350000D01*
X147447000Y6350000D02*
X149987000Y6350000D01*
D11*
X142475000Y2600000D02*
X148175000Y2600000D01*
X148175000Y7000000D02*
X138875000Y7000000D01*
D12*
X149987000Y3810000D02*
X147447000Y3810000D01*
D11*
X138875000Y7000000D02*
G75*
G03*
X136375000Y4500000I0J-2500000D01*
G01*
X142475000Y2600000D02*
G75*
G03*
X140475000Y600000I-1J-1999999D01*
G01*
D12*
X140589000Y2540000D02*
G75*
G03*
X140589000Y2540000I-1524000J0D01*
G01*
X146939000Y5080000D02*
G75*
G03*
X146939000Y5080000I-1524000J0D01*
G01*
X301418000Y-18515000D02*
X303958000Y-18515000D01*
X303958000Y-18515000D02*
X303958000Y-15975000D01*
D11*
X303300000Y-15285000D02*
X303300000Y-19185000D01*
D12*
X314372000Y-13435000D02*
X316912000Y-13435000D01*
X301418000Y-15975000D02*
X301418000Y-18515000D01*
D11*
X309400000Y-17185000D02*
X315100000Y-17185000D01*
D12*
X316912000Y-15975000D02*
X314372000Y-15975000D01*
X303958000Y-15975000D02*
X301418000Y-15975000D01*
X316912000Y-13435000D02*
X316912000Y-15975000D01*
D11*
X303300000Y-19185000D02*
X307400000Y-19185000D01*
D12*
X314372000Y-15975000D02*
X314372000Y-13435000D01*
D11*
X315100000Y-12785000D02*
X305800000Y-12785000D01*
X315100000Y-12785000D02*
X315100000Y-17185000D01*
X309400000Y-17185000D02*
G75*
G03*
X307400000Y-19185000I-1J-1999999D01*
G01*
X305800000Y-12785000D02*
G75*
G03*
X303300000Y-15285000I0J-2500000D01*
G01*
D12*
X307514000Y-17245000D02*
G75*
G03*
X307514000Y-17245000I-1524000J0D01*
G01*
X313864000Y-14705000D02*
G75*
G03*
X313864000Y-14705000I-1524000J0D01*
G01*
D11*
X266300000Y2600000D02*
X272000000Y2600000D01*
D12*
X260858000Y1270000D02*
X260858000Y3810000D01*
X273812000Y6350000D02*
X273812000Y3810000D01*
X258318000Y1270000D02*
X260858000Y1270000D01*
X273812000Y3810000D02*
X271272000Y3810000D01*
D11*
X260200000Y4500000D02*
X260200000Y600000D01*
D12*
X258318000Y3810000D02*
X258318000Y1270000D01*
D11*
X272000000Y7000000D02*
X262700000Y7000000D01*
D12*
X271272000Y6350000D02*
X273812000Y6350000D01*
D11*
X260200000Y600000D02*
X264300000Y600000D01*
X272000000Y7000000D02*
X272000000Y2600000D01*
D12*
X271272000Y3810000D02*
X271272000Y6350000D01*
X260858000Y3810000D02*
X258318000Y3810000D01*
D11*
X266300000Y2600000D02*
G75*
G03*
X264300000Y600000I-1J-1999999D01*
G01*
X262700000Y7000000D02*
G75*
G03*
X260200000Y4500000I0J-2500000D01*
G01*
D12*
X264414000Y2540000D02*
G75*
G03*
X264414000Y2540000I-1524000J0D01*
G01*
X270764000Y5080000D02*
G75*
G03*
X270764000Y5080000I-1524000J0D01*
G01*
X196405500Y-58928300D02*
X198945500Y-58928300D01*
X209359500Y-56388300D02*
X209359500Y-53848300D01*
D11*
X198287500Y-59598300D02*
X202387500Y-59598300D01*
D12*
X198945500Y-58928300D02*
X198945500Y-56388300D01*
X209359500Y-53848300D02*
X211899500Y-53848300D01*
X211899500Y-56388300D02*
X209359500Y-56388300D01*
D11*
X198287500Y-55698300D02*
X198287500Y-59598300D01*
X204387500Y-57598300D02*
X210087500Y-57598300D01*
D12*
X211899500Y-53848300D02*
X211899500Y-56388300D01*
D11*
X210087500Y-53198300D02*
X200787500Y-53198300D01*
D12*
X198945500Y-56388300D02*
X196405500Y-56388300D01*
X196405500Y-56388300D02*
X196405500Y-58928300D01*
D11*
X210087500Y-53198300D02*
X210087500Y-57598300D01*
X204387500Y-57598300D02*
G75*
G03*
X202387500Y-59598300I-1J-1999999D01*
G01*
X200787500Y-53198300D02*
G75*
G03*
X198287500Y-55698300I0J-2500000D01*
G01*
D12*
X202501500Y-57658300D02*
G75*
G03*
X202501500Y-57658300I-1524000J0D01*
G01*
X208851500Y-55118300D02*
G75*
G03*
X208851500Y-55118300I-1524000J0D01*
G01*
X52197000Y-34063300D02*
X54737000Y-34063300D01*
D11*
X41125000Y-39813300D02*
X45225000Y-39813300D01*
D12*
X54737000Y-36603300D02*
X52197000Y-36603300D01*
X39243000Y-39143300D02*
X41783000Y-39143300D01*
X41783000Y-36603300D02*
X39243000Y-36603300D01*
D11*
X41125000Y-35913300D02*
X41125000Y-39813300D01*
X52925000Y-33413300D02*
X52925000Y-37813300D01*
D12*
X39243000Y-36603300D02*
X39243000Y-39143300D01*
X54737000Y-34063300D02*
X54737000Y-36603300D01*
D11*
X52925000Y-33413300D02*
X43625000Y-33413300D01*
D12*
X52197000Y-36603300D02*
X52197000Y-34063300D01*
X41783000Y-39143300D02*
X41783000Y-36603300D01*
D11*
X47225000Y-37813300D02*
X52925000Y-37813300D01*
X47225000Y-37813300D02*
G75*
G03*
X45225000Y-39813300I-1J-1999999D01*
G01*
X43625000Y-33413300D02*
G75*
G03*
X41125000Y-35913300I0J-2500000D01*
G01*
D12*
X51689000Y-35333300D02*
G75*
G03*
X51689000Y-35333300I-1524000J0D01*
G01*
X45339000Y-37873300D02*
G75*
G03*
X45339000Y-37873300I-1524000J0D01*
G01*
X100087400Y-28085000D02*
X100595400Y-28085000D01*
X98817400Y-28085000D02*
X99325400Y-28085000D01*
X98055400Y-28085000D02*
X97547400Y-28085000D01*
X96785400Y-28085000D02*
X96277400Y-28085000D01*
X101357400Y-28085000D02*
X101865400Y-28085000D01*
D11*
X67212500Y-73635300D02*
X67212500Y-78035300D01*
X55412500Y-76135300D02*
X55412500Y-80035300D01*
D12*
X69024500Y-76825300D02*
X66484500Y-76825300D01*
X56070500Y-79365300D02*
X56070500Y-76825300D01*
X66484500Y-76825300D02*
X66484500Y-74285300D01*
D11*
X55412500Y-80035300D02*
X59512500Y-80035300D01*
X67212500Y-73635300D02*
X57912500Y-73635300D01*
D12*
X69024500Y-74285300D02*
X69024500Y-76825300D01*
X53530500Y-79365300D02*
X56070500Y-79365300D01*
X66484500Y-74285300D02*
X69024500Y-74285300D01*
D11*
X61512500Y-78035300D02*
X67212500Y-78035300D01*
D12*
X53530500Y-76825300D02*
X53530500Y-79365300D01*
X56070500Y-76825300D02*
X53530500Y-76825300D01*
D11*
X57912500Y-73635300D02*
G75*
G03*
X55412500Y-76135300I0J-2500000D01*
G01*
X61512500Y-78035300D02*
G75*
G03*
X59512500Y-80035300I-1J-1999999D01*
G01*
D12*
X59626500Y-78095300D02*
G75*
G03*
X59626500Y-78095300I-1524000J0D01*
G01*
X65976500Y-75555300D02*
G75*
G03*
X65976500Y-75555300I-1524000J0D01*
G01*
X100087400Y8300000D02*
X100595400Y8300000D01*
X101357400Y8300000D02*
X101865400Y8300000D01*
X99325400Y8300000D02*
X98817400Y8300000D01*
X96785400Y8300000D02*
X96277400Y8300000D01*
X98055400Y8300000D02*
X97547400Y8300000D01*
X-21525000Y-78249300D02*
X-21525000Y-77741300D01*
X-21525000Y-82821300D02*
X-21525000Y-83329300D01*
X-21525000Y-81551300D02*
X-21525000Y-82059300D01*
X-21525000Y-79519300D02*
X-21525000Y-79011300D01*
X-21525000Y-80281300D02*
X-21525000Y-80789300D01*
D11*
X255331250Y-73635300D02*
X255331250Y-78035300D01*
D12*
X254603250Y-76825300D02*
X254603250Y-74285300D01*
X241649250Y-76825300D02*
X244189250Y-76825300D01*
D11*
X255331250Y-73635300D02*
X246031250Y-73635300D01*
D12*
X257143250Y-76825300D02*
X254603250Y-76825300D01*
X257143250Y-74285300D02*
X257143250Y-76825300D01*
X244189250Y-79365300D02*
X241649250Y-79365300D01*
D11*
X243531250Y-76135300D02*
X243531250Y-80035300D01*
X243531250Y-80035300D02*
X247631250Y-80035300D01*
D12*
X241649250Y-79365300D02*
X241649250Y-76825300D01*
X244189250Y-76825300D02*
X244189250Y-79365300D01*
D11*
X249631250Y-78035300D02*
X255331250Y-78035300D01*
D12*
X254603250Y-74285300D02*
X257143250Y-74285300D01*
D11*
X246031250Y-73635300D02*
G75*
G03*
X243531250Y-76135300I0J-2500000D01*
G01*
X249631250Y-78035300D02*
G75*
G03*
X247631250Y-80035300I-1J-1999999D01*
G01*
D12*
X254095250Y-75555300D02*
G75*
G03*
X254095250Y-75555300I-1524000J0D01*
G01*
X247745250Y-78095300D02*
G75*
G03*
X247745250Y-78095300I-1524000J0D01*
G01*
X98817400Y-88935300D02*
X99325400Y-88935300D01*
X101357400Y-88935300D02*
X101865400Y-88935300D01*
X96785400Y-88935300D02*
X96277400Y-88935300D01*
X98055400Y-88935300D02*
X97547400Y-88935300D01*
X100087400Y-88935300D02*
X100595400Y-88935300D01*
X288496969Y-8300000D02*
X287988969Y-8300000D01*
X287226969Y-8300000D02*
X286718969Y-8300000D01*
X291798969Y-8300000D02*
X292306969Y-8300000D01*
X290528969Y-8300000D02*
X291036969Y-8300000D01*
X289258969Y-8300000D02*
X289766969Y-8300000D01*
D11*
X214850000Y-12785000D02*
X205550000Y-12785000D01*
X203050000Y-19185000D02*
X207150000Y-19185000D01*
X214850000Y-12785000D02*
X214850000Y-17185000D01*
D12*
X201168000Y-15975000D02*
X201168000Y-18515000D01*
X214122000Y-15975000D02*
X214122000Y-13435000D01*
D11*
X203050000Y-15285000D02*
X203050000Y-19185000D01*
D12*
X203708000Y-18515000D02*
X203708000Y-15975000D01*
X214122000Y-13435000D02*
X216662000Y-13435000D01*
X216662000Y-15975000D02*
X214122000Y-15975000D01*
X201168000Y-18515000D02*
X203708000Y-18515000D01*
X216662000Y-13435000D02*
X216662000Y-15975000D01*
D11*
X209150000Y-17185000D02*
X214850000Y-17185000D01*
D12*
X203708000Y-15975000D02*
X201168000Y-15975000D01*
D11*
X205550000Y-12785000D02*
G75*
G03*
X203050000Y-15285000I0J-2500000D01*
G01*
X209150000Y-17185000D02*
G75*
G03*
X207150000Y-19185000I-1J-1999999D01*
G01*
D12*
X213614000Y-14705000D02*
G75*
G03*
X213614000Y-14705000I-1524000J0D01*
G01*
X207264000Y-17245000D02*
G75*
G03*
X207264000Y-17245000I-1524000J0D01*
G01*
D11*
X26837500Y-55698300D02*
X26837500Y-59598300D01*
X38637500Y-53198300D02*
X29337500Y-53198300D01*
D12*
X24955500Y-58928300D02*
X27495500Y-58928300D01*
X40449500Y-56388300D02*
X37909500Y-56388300D01*
X37909500Y-53848300D02*
X40449500Y-53848300D01*
D11*
X32937500Y-57598300D02*
X38637500Y-57598300D01*
D12*
X24955500Y-56388300D02*
X24955500Y-58928300D01*
D11*
X38637500Y-53198300D02*
X38637500Y-57598300D01*
D12*
X37909500Y-56388300D02*
X37909500Y-53848300D01*
X27495500Y-58928300D02*
X27495500Y-56388300D01*
X40449500Y-53848300D02*
X40449500Y-56388300D01*
D11*
X26837500Y-59598300D02*
X30937500Y-59598300D01*
D12*
X27495500Y-56388300D02*
X24955500Y-56388300D01*
D11*
X29337500Y-53198300D02*
G75*
G03*
X26837500Y-55698300I0J-2500000D01*
G01*
X32937500Y-57598300D02*
G75*
G03*
X30937500Y-59598300I-1J-1999999D01*
G01*
D12*
X37401500Y-55118300D02*
G75*
G03*
X37401500Y-55118300I-1524000J0D01*
G01*
X31051500Y-57658300D02*
G75*
G03*
X31051500Y-57658300I-1524000J0D01*
G01*
X78549500Y-56388300D02*
X76009500Y-56388300D01*
D11*
X76737500Y-53198300D02*
X76737500Y-57598300D01*
D12*
X65595500Y-56388300D02*
X63055500Y-56388300D01*
D11*
X76737500Y-53198300D02*
X67437500Y-53198300D01*
D12*
X76009500Y-53848300D02*
X78549500Y-53848300D01*
D11*
X71037500Y-57598300D02*
X76737500Y-57598300D01*
D12*
X63055500Y-58928300D02*
X65595500Y-58928300D01*
X78549500Y-53848300D02*
X78549500Y-56388300D01*
X65595500Y-58928300D02*
X65595500Y-56388300D01*
X76009500Y-56388300D02*
X76009500Y-53848300D01*
D11*
X64937500Y-55698300D02*
X64937500Y-59598300D01*
X64937500Y-59598300D02*
X69037500Y-59598300D01*
D12*
X63055500Y-56388300D02*
X63055500Y-58928300D01*
D11*
X71037500Y-57598300D02*
G75*
G03*
X69037500Y-59598300I-1J-1999999D01*
G01*
X67437500Y-53198300D02*
G75*
G03*
X64937500Y-55698300I0J-2500000D01*
G01*
D12*
X69151500Y-57658300D02*
G75*
G03*
X69151500Y-57658300I-1524000J0D01*
G01*
X75501500Y-55118300D02*
G75*
G03*
X75501500Y-55118300I-1524000J0D01*
G01*
X350375000Y-42699300D02*
X350375000Y-43207300D01*
X350375000Y-40667300D02*
X350375000Y-40159300D01*
X350375000Y-39397300D02*
X350375000Y-38889300D01*
X350375000Y-38127300D02*
X350375000Y-37619300D01*
X350375000Y-41429300D02*
X350375000Y-41937300D01*
X175133000Y1270000D02*
X175133000Y3810000D01*
D11*
X174475000Y4500000D02*
X174475000Y600000D01*
X186275000Y7000000D02*
X176975000Y7000000D01*
D12*
X188087000Y6350000D02*
X188087000Y3810000D01*
X175133000Y3810000D02*
X172593000Y3810000D01*
D11*
X174475000Y600000D02*
X178575000Y600000D01*
D12*
X185547000Y3810000D02*
X185547000Y6350000D01*
X185547000Y6350000D02*
X188087000Y6350000D01*
X188087000Y3810000D02*
X185547000Y3810000D01*
X172593000Y1270000D02*
X175133000Y1270000D01*
D11*
X186275000Y7000000D02*
X186275000Y2600000D01*
D12*
X172593000Y3810000D02*
X172593000Y1270000D01*
D11*
X180575000Y2600000D02*
X186275000Y2600000D01*
X176975000Y7000000D02*
G75*
G03*
X174475000Y4500000I0J-2500000D01*
G01*
X180575000Y2600000D02*
G75*
G03*
X178575000Y600000I-1J-1999999D01*
G01*
D12*
X185039000Y5080000D02*
G75*
G03*
X185039000Y5080000I-1524000J0D01*
G01*
X178689000Y2540000D02*
G75*
G03*
X178689000Y2540000I-1524000J0D01*
G01*
X29718000Y3810000D02*
X29718000Y1270000D01*
X32258000Y1270000D02*
X32258000Y3810000D01*
D11*
X43400000Y7000000D02*
X43400000Y2600000D01*
D12*
X45212000Y3810000D02*
X42672000Y3810000D01*
X45212000Y6350000D02*
X45212000Y3810000D01*
D11*
X31600000Y600000D02*
X35700000Y600000D01*
D12*
X32258000Y3810000D02*
X29718000Y3810000D01*
X42672000Y6350000D02*
X45212000Y6350000D01*
X42672000Y3810000D02*
X42672000Y6350000D01*
D11*
X37700000Y2600000D02*
X43400000Y2600000D01*
D12*
X29718000Y1270000D02*
X32258000Y1270000D01*
D11*
X43400000Y7000000D02*
X34100000Y7000000D01*
X31600000Y4500000D02*
X31600000Y600000D01*
X34100000Y7000000D02*
G75*
G03*
X31600000Y4500000I0J-2500000D01*
G01*
X37700000Y2600000D02*
G75*
G03*
X35700000Y600000I-1J-1999999D01*
G01*
D12*
X35814000Y2540000D02*
G75*
G03*
X35814000Y2540000I-1524000J0D01*
G01*
X42164000Y5080000D02*
G75*
G03*
X42164000Y5080000I-1524000J0D01*
G01*
X101406758Y-72335300D02*
X101914758Y-72335300D01*
X99374758Y-72335300D02*
X98866758Y-72335300D01*
X96834758Y-72335300D02*
X96326758Y-72335300D01*
X100136758Y-72335300D02*
X100644758Y-72335300D01*
X98104758Y-72335300D02*
X97596758Y-72335300D01*
X350375000Y1016000D02*
X350375000Y1524000D01*
X350375000Y-1016000D02*
X350375000Y-1524000D01*
X350375000Y2286000D02*
X350375000Y2794000D01*
X350375000Y-2286000D02*
X350375000Y-2794000D01*
X350375000Y-254000D02*
X350375000Y254000D01*
X205930500Y-76825300D02*
X205930500Y-79365300D01*
D11*
X219612500Y-73635300D02*
X219612500Y-78035300D01*
D12*
X221424500Y-76825300D02*
X218884500Y-76825300D01*
X218884500Y-76825300D02*
X218884500Y-74285300D01*
D11*
X207812500Y-80035300D02*
X211912500Y-80035300D01*
X213912500Y-78035300D02*
X219612500Y-78035300D01*
D12*
X205930500Y-79365300D02*
X208470500Y-79365300D01*
D11*
X207812500Y-76135300D02*
X207812500Y-80035300D01*
D12*
X208470500Y-76825300D02*
X205930500Y-76825300D01*
D11*
X219612500Y-73635300D02*
X210312500Y-73635300D01*
D12*
X218884500Y-74285300D02*
X221424500Y-74285300D01*
X221424500Y-74285300D02*
X221424500Y-76825300D01*
X208470500Y-79365300D02*
X208470500Y-76825300D01*
D11*
X213912500Y-78035300D02*
G75*
G03*
X211912500Y-80035300I-1J-1999999D01*
G01*
X210312500Y-73635300D02*
G75*
G03*
X207812500Y-76135300I0J-2500000D01*
G01*
D12*
X212026500Y-78095300D02*
G75*
G03*
X212026500Y-78095300I-1524000J0D01*
G01*
X218376500Y-75555300D02*
G75*
G03*
X218376500Y-75555300I-1524000J0D01*
G01*
X128397000Y6350000D02*
X130937000Y6350000D01*
X115443000Y3810000D02*
X115443000Y1270000D01*
D11*
X117325000Y600000D02*
X121425000Y600000D01*
X129125000Y7000000D02*
X119825000Y7000000D01*
D12*
X130937000Y6350000D02*
X130937000Y3810000D01*
X115443000Y1270000D02*
X117983000Y1270000D01*
X117983000Y1270000D02*
X117983000Y3810000D01*
D11*
X123425000Y2600000D02*
X129125000Y2600000D01*
D12*
X117983000Y3810000D02*
X115443000Y3810000D01*
X128397000Y3810000D02*
X128397000Y6350000D01*
D11*
X117325000Y4500000D02*
X117325000Y600000D01*
X129125000Y7000000D02*
X129125000Y2600000D01*
D12*
X130937000Y3810000D02*
X128397000Y3810000D01*
D11*
X119825000Y7000000D02*
G75*
G03*
X117325000Y4500000I0J-2500000D01*
G01*
X123425000Y2600000D02*
G75*
G03*
X121425000Y600000I-1J-1999999D01*
G01*
D12*
X127889000Y5080000D02*
G75*
G03*
X127889000Y5080000I-1524000J0D01*
G01*
X121539000Y2540000D02*
G75*
G03*
X121539000Y2540000I-1524000J0D01*
G01*
D11*
X90087500Y-57598300D02*
X95787500Y-57598300D01*
D12*
X84645500Y-56388300D02*
X82105500Y-56388300D01*
D11*
X95787500Y-53198300D02*
X86487500Y-53198300D01*
X95787500Y-53198300D02*
X95787500Y-57598300D01*
D12*
X97599500Y-53848300D02*
X97599500Y-56388300D01*
X82105500Y-56388300D02*
X82105500Y-58928300D01*
X95059500Y-56388300D02*
X95059500Y-53848300D01*
X97599500Y-56388300D02*
X95059500Y-56388300D01*
D11*
X83987500Y-55698300D02*
X83987500Y-59598300D01*
X83987500Y-59598300D02*
X88087500Y-59598300D01*
D12*
X82105500Y-58928300D02*
X84645500Y-58928300D01*
X95059500Y-53848300D02*
X97599500Y-53848300D01*
X84645500Y-58928300D02*
X84645500Y-56388300D01*
D11*
X90087500Y-57598300D02*
G75*
G03*
X88087500Y-59598300I-1J-1999999D01*
G01*
X86487500Y-53198300D02*
G75*
G03*
X83987500Y-55698300I0J-2500000D01*
G01*
D12*
X94551500Y-55118300D02*
G75*
G03*
X94551500Y-55118300I-1524000J0D01*
G01*
X88201500Y-57658300D02*
G75*
G03*
X88201500Y-57658300I-1524000J0D01*
G01*
X137033000Y-36603300D02*
X134493000Y-36603300D01*
X147447000Y-36603300D02*
X147447000Y-34063300D01*
X134493000Y-36603300D02*
X134493000Y-39143300D01*
X147447000Y-34063300D02*
X149987000Y-34063300D01*
D11*
X136375000Y-39813300D02*
X140475000Y-39813300D01*
X142475000Y-37813300D02*
X148175000Y-37813300D01*
D12*
X134493000Y-39143300D02*
X137033000Y-39143300D01*
D11*
X148175000Y-33413300D02*
X138875000Y-33413300D01*
D12*
X149987000Y-34063300D02*
X149987000Y-36603300D01*
X149987000Y-36603300D02*
X147447000Y-36603300D01*
D11*
X148175000Y-33413300D02*
X148175000Y-37813300D01*
X136375000Y-35913300D02*
X136375000Y-39813300D01*
D12*
X137033000Y-39143300D02*
X137033000Y-36603300D01*
D11*
X142475000Y-37813300D02*
G75*
G03*
X140475000Y-39813300I-1J-1999999D01*
G01*
X138875000Y-33413300D02*
G75*
G03*
X136375000Y-35913300I0J-2500000D01*
G01*
D12*
X140589000Y-37873300D02*
G75*
G03*
X140589000Y-37873300I-1524000J0D01*
G01*
X146939000Y-35333300D02*
G75*
G03*
X146939000Y-35333300I-1524000J0D01*
G01*
X288505400Y-88935300D02*
X287997400Y-88935300D01*
X287235400Y-88935300D02*
X286727400Y-88935300D01*
X290537400Y-88935300D02*
X291045400Y-88935300D01*
X291807400Y-88935300D02*
X292315400Y-88935300D01*
X289267400Y-88935300D02*
X289775400Y-88935300D01*
X124968000Y-97375300D02*
X127508000Y-97375300D01*
X127508000Y-97375300D02*
X127508000Y-99915300D01*
X127508000Y-99915300D02*
X124968000Y-99915300D01*
D11*
X132950000Y-98585300D02*
X138650000Y-98585300D01*
X138650000Y-94185300D02*
X129350000Y-94185300D01*
D12*
X124968000Y-99915300D02*
X124968000Y-97375300D01*
X140462000Y-94835300D02*
X140462000Y-97375300D01*
X140462000Y-97375300D02*
X137922000Y-97375300D01*
X137922000Y-97375300D02*
X137922000Y-94835300D01*
D11*
X138650000Y-94185300D02*
X138650000Y-98585300D01*
X126850000Y-100585300D02*
X130950000Y-100585300D01*
X126850000Y-96685300D02*
X126850000Y-100585300D01*
D12*
X137922000Y-94835300D02*
X140462000Y-94835300D01*
D11*
X129350000Y-94185300D02*
G75*
G03*
X126850000Y-96685300I0J-2500000D01*
G01*
X132950000Y-98585300D02*
G75*
G03*
X130950000Y-100585300I-1J-1999999D01*
G01*
D12*
X131064000Y-98645300D02*
G75*
G03*
X131064000Y-98645300I-1524000J0D01*
G01*
X137414000Y-96105300D02*
G75*
G03*
X137414000Y-96105300I-1524000J0D01*
G01*
X96770035Y-11485000D02*
X96262035Y-11485000D01*
X100072035Y-11485000D02*
X100580035Y-11485000D01*
X99310035Y-11485000D02*
X98802035Y-11485000D01*
X101342035Y-11485000D02*
X101850035Y-11485000D01*
X98040035Y-11485000D02*
X97532035Y-11485000D01*
X220218000Y-18515000D02*
X222758000Y-18515000D01*
X220218000Y-15975000D02*
X220218000Y-18515000D01*
D11*
X233900000Y-12785000D02*
X224600000Y-12785000D01*
D12*
X235712000Y-15975000D02*
X233172000Y-15975000D01*
D11*
X228200000Y-17185000D02*
X233900000Y-17185000D01*
D12*
X222758000Y-15975000D02*
X220218000Y-15975000D01*
X222758000Y-18515000D02*
X222758000Y-15975000D01*
X233172000Y-13435000D02*
X235712000Y-13435000D01*
X235712000Y-13435000D02*
X235712000Y-15975000D01*
D11*
X222100000Y-19185000D02*
X226200000Y-19185000D01*
D12*
X233172000Y-15975000D02*
X233172000Y-13435000D01*
D11*
X233900000Y-12785000D02*
X233900000Y-17185000D01*
X222100000Y-15285000D02*
X222100000Y-19185000D01*
X228200000Y-17185000D02*
G75*
G03*
X226200000Y-19185000I-1J-1999999D01*
G01*
X224600000Y-12785000D02*
G75*
G03*
X222100000Y-15285000I0J-2500000D01*
G01*
D12*
X226314000Y-17245000D02*
G75*
G03*
X226314000Y-17245000I-1524000J0D01*
G01*
X232664000Y-14705000D02*
G75*
G03*
X232664000Y-14705000I-1524000J0D01*
G01*
X289775400Y-92885300D02*
X289267400Y-92885300D01*
X290537400Y-92885300D02*
X291045400Y-92885300D01*
X288505400Y-92885300D02*
X287997400Y-92885300D01*
X287235400Y-92885300D02*
X286727400Y-92885300D01*
X291807400Y-92885300D02*
X292315400Y-92885300D01*
X288505400Y-28035300D02*
X287997400Y-28035300D01*
X290537400Y-28035300D02*
X291045400Y-28035300D01*
X289267400Y-28035300D02*
X289775400Y-28035300D01*
X291807400Y-28035300D02*
X292315400Y-28035300D01*
X287235400Y-28035300D02*
X286727400Y-28035300D01*
X100087400Y-48713300D02*
X100595400Y-48713300D01*
X98817400Y-48713300D02*
X99325400Y-48713300D01*
X101357400Y-48713300D02*
X101865400Y-48713300D01*
X98055400Y-48713300D02*
X97547400Y-48713300D01*
X96785400Y-48713300D02*
X96277400Y-48713300D01*
X221424500Y-97375300D02*
X218884500Y-97375300D01*
D11*
X219612500Y-94185300D02*
X210312500Y-94185300D01*
D12*
X218884500Y-97375300D02*
X218884500Y-94835300D01*
X208470500Y-99915300D02*
X205930500Y-99915300D01*
X208470500Y-97375300D02*
X208470500Y-99915300D01*
X205930500Y-99915300D02*
X205930500Y-97375300D01*
D11*
X207812500Y-96685300D02*
X207812500Y-100585300D01*
X207812500Y-100585300D02*
X211912500Y-100585300D01*
X213912500Y-98585300D02*
X219612500Y-98585300D01*
X219612500Y-94185300D02*
X219612500Y-98585300D01*
D12*
X205930500Y-97375300D02*
X208470500Y-97375300D01*
X221424500Y-94835300D02*
X221424500Y-97375300D01*
X218884500Y-94835300D02*
X221424500Y-94835300D01*
D11*
X213912500Y-98585300D02*
G75*
G03*
X211912500Y-100585300I-1J-1999999D01*
G01*
X210312500Y-94185300D02*
G75*
G03*
X207812500Y-96685300I0J-2500000D01*
G01*
D12*
X212026500Y-98645300D02*
G75*
G03*
X212026500Y-98645300I-1524000J0D01*
G01*
X218376500Y-96105300D02*
G75*
G03*
X218376500Y-96105300I-1524000J0D01*
G01*
X113220500Y-79365300D02*
X113220500Y-76825300D01*
X113220500Y-76825300D02*
X110680500Y-76825300D01*
X123634500Y-76825300D02*
X123634500Y-74285300D01*
D11*
X124362500Y-73635300D02*
X115062500Y-73635300D01*
X124362500Y-73635300D02*
X124362500Y-78035300D01*
X118662500Y-78035300D02*
X124362500Y-78035300D01*
D12*
X110680500Y-76825300D02*
X110680500Y-79365300D01*
X126174500Y-74285300D02*
X126174500Y-76825300D01*
X110680500Y-79365300D02*
X113220500Y-79365300D01*
D11*
X112562500Y-76135300D02*
X112562500Y-80035300D01*
D12*
X126174500Y-76825300D02*
X123634500Y-76825300D01*
X123634500Y-74285300D02*
X126174500Y-74285300D01*
D11*
X112562500Y-80035300D02*
X116662500Y-80035300D01*
X118662500Y-78035300D02*
G75*
G03*
X116662500Y-80035300I-1J-1999999D01*
G01*
X115062500Y-73635300D02*
G75*
G03*
X112562500Y-76135300I0J-2500000D01*
G01*
D12*
X123126500Y-75555300D02*
G75*
G03*
X123126500Y-75555300I-1524000J0D01*
G01*
X116776500Y-78095300D02*
G75*
G03*
X116776500Y-78095300I-1524000J0D01*
G01*
D11*
X12550000Y-15285000D02*
X12550000Y-19185000D01*
D12*
X13208000Y-15975000D02*
X10668000Y-15975000D01*
X13208000Y-18515000D02*
X13208000Y-15975000D01*
X10668000Y-18515000D02*
X13208000Y-18515000D01*
X26162000Y-13435000D02*
X26162000Y-15975000D01*
D11*
X24350000Y-12785000D02*
X15050000Y-12785000D01*
X24350000Y-12785000D02*
X24350000Y-17185000D01*
X18650000Y-17185000D02*
X24350000Y-17185000D01*
D12*
X23622000Y-15975000D02*
X23622000Y-13435000D01*
X10668000Y-15975000D02*
X10668000Y-18515000D01*
X23622000Y-13435000D02*
X26162000Y-13435000D01*
X26162000Y-15975000D02*
X23622000Y-15975000D01*
D11*
X12550000Y-19185000D02*
X16650000Y-19185000D01*
X15050000Y-12785000D02*
G75*
G03*
X12550000Y-15285000I0J-2500000D01*
G01*
X18650000Y-17185000D02*
G75*
G03*
X16650000Y-19185000I-1J-1999999D01*
G01*
D12*
X16764000Y-17245000D02*
G75*
G03*
X16764000Y-17245000I-1524000J0D01*
G01*
X23114000Y-14705000D02*
G75*
G03*
X23114000Y-14705000I-1524000J0D01*
G01*
X287235400Y8300000D02*
X286727400Y8300000D01*
X291807400Y8300000D02*
X292315400Y8300000D01*
X290537400Y8300000D02*
X291045400Y8300000D01*
X289775400Y8300000D02*
X289267400Y8300000D01*
X288505400Y8300000D02*
X287997400Y8300000D01*
X122745500Y-58928300D02*
X122745500Y-56388300D01*
X135699500Y-53848300D02*
X135699500Y-56388300D01*
X120205500Y-56388300D02*
X120205500Y-58928300D01*
D11*
X122087500Y-59598300D02*
X126187500Y-59598300D01*
X128187500Y-57598300D02*
X133887500Y-57598300D01*
X133887500Y-53198300D02*
X133887500Y-57598300D01*
X122087500Y-55698300D02*
X122087500Y-59598300D01*
X133887500Y-53198300D02*
X124587500Y-53198300D01*
D12*
X122745500Y-56388300D02*
X120205500Y-56388300D01*
X120205500Y-58928300D02*
X122745500Y-58928300D01*
X133159500Y-53848300D02*
X135699500Y-53848300D01*
X135699500Y-56388300D02*
X133159500Y-56388300D01*
X133159500Y-56388300D02*
X133159500Y-53848300D01*
D11*
X128187500Y-57598300D02*
G75*
G03*
X126187500Y-59598300I-1J-1999999D01*
G01*
X124587500Y-53198300D02*
G75*
G03*
X122087500Y-55698300I0J-2500000D01*
G01*
D12*
X126301500Y-57658300D02*
G75*
G03*
X126301500Y-57658300I-1524000J0D01*
G01*
X132651500Y-55118300D02*
G75*
G03*
X132651500Y-55118300I-1524000J0D01*
G01*
X42672000Y-13435000D02*
X45212000Y-13435000D01*
X42672000Y-15975000D02*
X42672000Y-13435000D01*
X29718000Y-18515000D02*
X32258000Y-18515000D01*
D11*
X43400000Y-12785000D02*
X43400000Y-17185000D01*
X43400000Y-12785000D02*
X34100000Y-12785000D01*
X31600000Y-15285000D02*
X31600000Y-19185000D01*
D12*
X32258000Y-15975000D02*
X29718000Y-15975000D01*
X29718000Y-15975000D02*
X29718000Y-18515000D01*
D11*
X37700000Y-17185000D02*
X43400000Y-17185000D01*
D12*
X45212000Y-15975000D02*
X42672000Y-15975000D01*
X32258000Y-18515000D02*
X32258000Y-15975000D01*
D11*
X31600000Y-19185000D02*
X35700000Y-19185000D01*
D12*
X45212000Y-13435000D02*
X45212000Y-15975000D01*
D11*
X37700000Y-17185000D02*
G75*
G03*
X35700000Y-19185000I-1J-1999999D01*
G01*
X34100000Y-12785000D02*
G75*
G03*
X31600000Y-15285000I0J-2500000D01*
G01*
D12*
X42164000Y-14705000D02*
G75*
G03*
X42164000Y-14705000I-1524000J0D01*
G01*
X35814000Y-17245000D02*
G75*
G03*
X35814000Y-17245000I-1524000J0D01*
G01*
D11*
X143412500Y-73635300D02*
X143412500Y-78035300D01*
D12*
X142684500Y-76825300D02*
X142684500Y-74285300D01*
D11*
X137712500Y-78035300D02*
X143412500Y-78035300D01*
X131612500Y-80035300D02*
X135712500Y-80035300D01*
D12*
X145224500Y-74285300D02*
X145224500Y-76825300D01*
X129730500Y-79365300D02*
X132270500Y-79365300D01*
X142684500Y-74285300D02*
X145224500Y-74285300D01*
D11*
X143412500Y-73635300D02*
X134112500Y-73635300D01*
D12*
X132270500Y-79365300D02*
X132270500Y-76825300D01*
D11*
X131612500Y-76135300D02*
X131612500Y-80035300D01*
D12*
X145224500Y-76825300D02*
X142684500Y-76825300D01*
X132270500Y-76825300D02*
X129730500Y-76825300D01*
X129730500Y-76825300D02*
X129730500Y-79365300D01*
D11*
X134112500Y-73635300D02*
G75*
G03*
X131612500Y-76135300I0J-2500000D01*
G01*
X137712500Y-78035300D02*
G75*
G03*
X135712500Y-80035300I-1J-1999999D01*
G01*
D12*
X135826500Y-78095300D02*
G75*
G03*
X135826500Y-78095300I-1524000J0D01*
G01*
X142176500Y-75555300D02*
G75*
G03*
X142176500Y-75555300I-1524000J0D01*
G01*
D11*
X200562500Y-73635300D02*
X200562500Y-78035300D01*
D12*
X202374500Y-74285300D02*
X202374500Y-76825300D01*
D11*
X200562500Y-73635300D02*
X191262500Y-73635300D01*
X194862500Y-78035300D02*
X200562500Y-78035300D01*
D12*
X186880500Y-79365300D02*
X189420500Y-79365300D01*
X202374500Y-76825300D02*
X199834500Y-76825300D01*
D11*
X188762500Y-80035300D02*
X192862500Y-80035300D01*
D12*
X199834500Y-76825300D02*
X199834500Y-74285300D01*
X199834500Y-74285300D02*
X202374500Y-74285300D01*
D11*
X188762500Y-76135300D02*
X188762500Y-80035300D01*
D12*
X189420500Y-79365300D02*
X189420500Y-76825300D01*
X186880500Y-76825300D02*
X186880500Y-79365300D01*
X189420500Y-76825300D02*
X186880500Y-76825300D01*
D11*
X191262500Y-73635300D02*
G75*
G03*
X188762500Y-76135300I0J-2500000D01*
G01*
X194862500Y-78035300D02*
G75*
G03*
X192862500Y-80035300I-1J-1999999D01*
G01*
D12*
X192976500Y-78095300D02*
G75*
G03*
X192976500Y-78095300I-1524000J0D01*
G01*
X199326500Y-75555300D02*
G75*
G03*
X199326500Y-75555300I-1524000J0D01*
G01*
X77343000Y-39143300D02*
X79883000Y-39143300D01*
D11*
X79225000Y-35913300D02*
X79225000Y-39813300D01*
D12*
X90297000Y-36603300D02*
X90297000Y-34063300D01*
X92837000Y-34063300D02*
X92837000Y-36603300D01*
D11*
X85325000Y-37813300D02*
X91025000Y-37813300D01*
D12*
X77343000Y-36603300D02*
X77343000Y-39143300D01*
X79883000Y-36603300D02*
X77343000Y-36603300D01*
D11*
X91025000Y-33413300D02*
X81725000Y-33413300D01*
D12*
X79883000Y-39143300D02*
X79883000Y-36603300D01*
X92837000Y-36603300D02*
X90297000Y-36603300D01*
X90297000Y-34063300D02*
X92837000Y-34063300D01*
D11*
X79225000Y-39813300D02*
X83325000Y-39813300D01*
X91025000Y-33413300D02*
X91025000Y-37813300D01*
X81725000Y-33413300D02*
G75*
G03*
X79225000Y-35913300I0J-2500000D01*
G01*
X85325000Y-37813300D02*
G75*
G03*
X83325000Y-39813300I-1J-1999999D01*
G01*
D12*
X89789000Y-35333300D02*
G75*
G03*
X89789000Y-35333300I-1524000J0D01*
G01*
X83439000Y-37873300D02*
G75*
G03*
X83439000Y-37873300I-1524000J0D01*
G01*
X-21525000Y17589000D02*
X-21525000Y17081000D01*
X-21525000Y20891000D02*
X-21525000Y21399000D01*
X-21525000Y20129000D02*
X-21525000Y19621000D01*
X-21525000Y22161000D02*
X-21525000Y22669000D01*
X-21525000Y18859000D02*
X-21525000Y18351000D01*
X-21525000Y-103471300D02*
X-21525000Y-103979300D01*
X-21525000Y-102201300D02*
X-21525000Y-102709300D01*
X-21525000Y-100169300D02*
X-21525000Y-99661300D01*
X-21525000Y-100931300D02*
X-21525000Y-101439300D01*
X-21525000Y-98899300D02*
X-21525000Y-98391300D01*
X350375000Y-81551300D02*
X350375000Y-82059300D01*
X350375000Y-82821300D02*
X350375000Y-83329300D01*
X350375000Y-78249300D02*
X350375000Y-77741300D01*
X350375000Y-80789300D02*
X350375000Y-80281300D01*
X350375000Y-79519300D02*
X350375000Y-79011300D01*
X96785400Y-51898300D02*
X96277400Y-51898300D01*
X98055400Y-51898300D02*
X97547400Y-51898300D01*
X100087400Y-51898300D02*
X100595400Y-51898300D01*
X99325400Y-51898300D02*
X98817400Y-51898300D01*
X101357400Y-51898300D02*
X101865400Y-51898300D01*
X96785400Y-32112900D02*
X96277400Y-32112900D01*
X98055400Y-32112900D02*
X97547400Y-32112900D01*
X99325400Y-32112900D02*
X98817400Y-32112900D01*
X100087400Y-32112900D02*
X100595400Y-32112900D01*
X101357400Y-32112900D02*
X101865400Y-32112900D01*
X175133000Y-36603300D02*
X172593000Y-36603300D01*
D11*
X174475000Y-35913300D02*
X174475000Y-39813300D01*
D12*
X185547000Y-34063300D02*
X188087000Y-34063300D01*
X185547000Y-36603300D02*
X185547000Y-34063300D01*
X175133000Y-39143300D02*
X175133000Y-36603300D01*
X188087000Y-34063300D02*
X188087000Y-36603300D01*
D11*
X186275000Y-33413300D02*
X176975000Y-33413300D01*
X174475000Y-39813300D02*
X178575000Y-39813300D01*
D12*
X188087000Y-36603300D02*
X185547000Y-36603300D01*
X172593000Y-36603300D02*
X172593000Y-39143300D01*
D11*
X180575000Y-37813300D02*
X186275000Y-37813300D01*
D12*
X172593000Y-39143300D02*
X175133000Y-39143300D01*
D11*
X186275000Y-33413300D02*
X186275000Y-37813300D01*
X180575000Y-37813300D02*
G75*
G03*
X178575000Y-39813300I-1J-1999999D01*
G01*
X176975000Y-33413300D02*
G75*
G03*
X174475000Y-35913300I0J-2500000D01*
G01*
D12*
X178689000Y-37873300D02*
G75*
G03*
X178689000Y-37873300I-1524000J0D01*
G01*
X185039000Y-35333300D02*
G75*
G03*
X185039000Y-35333300I-1524000J0D01*
G01*
X287235400Y-68498300D02*
X286727400Y-68498300D01*
X289267400Y-68498300D02*
X289775400Y-68498300D01*
X291807400Y-68498300D02*
X292315400Y-68498300D01*
X290537400Y-68498300D02*
X291045400Y-68498300D01*
X288505400Y-68498300D02*
X287997400Y-68498300D01*
X288505400Y-48713300D02*
X287997400Y-48713300D01*
X290537400Y-48713300D02*
X291045400Y-48713300D01*
X291807400Y-48713300D02*
X292315400Y-48713300D01*
X287235400Y-48713300D02*
X286727400Y-48713300D01*
X289267400Y-48713300D02*
X289775400Y-48713300D01*
X64262000Y3810000D02*
X61722000Y3810000D01*
X64262000Y6350000D02*
X64262000Y3810000D01*
D11*
X50650000Y600000D02*
X54750000Y600000D01*
X62450000Y7000000D02*
X62450000Y2600000D01*
D12*
X48768000Y3810000D02*
X48768000Y1270000D01*
X61722000Y6350000D02*
X64262000Y6350000D01*
D11*
X56750000Y2600000D02*
X62450000Y2600000D01*
D12*
X51308000Y3810000D02*
X48768000Y3810000D01*
D11*
X50650000Y4500000D02*
X50650000Y600000D01*
D12*
X48768000Y1270000D02*
X51308000Y1270000D01*
X61722000Y3810000D02*
X61722000Y6350000D01*
D11*
X62450000Y7000000D02*
X53150000Y7000000D01*
D12*
X51308000Y1270000D02*
X51308000Y3810000D01*
D11*
X56750000Y2600000D02*
G75*
G03*
X54750000Y600000I-1J-1999999D01*
G01*
X53150000Y7000000D02*
G75*
G03*
X50650000Y4500000I0J-2500000D01*
G01*
D12*
X54864000Y2540000D02*
G75*
G03*
X54864000Y2540000I-1524000J0D01*
G01*
X61214000Y5080000D02*
G75*
G03*
X61214000Y5080000I-1524000J0D01*
G01*
X171259500Y-53848300D02*
X173799500Y-53848300D01*
X173799500Y-56388300D02*
X171259500Y-56388300D01*
D11*
X171987500Y-53198300D02*
X162687500Y-53198300D01*
D12*
X158305500Y-58928300D02*
X160845500Y-58928300D01*
D11*
X160187500Y-59598300D02*
X164287500Y-59598300D01*
D12*
X173799500Y-53848300D02*
X173799500Y-56388300D01*
D11*
X160187500Y-55698300D02*
X160187500Y-59598300D01*
D12*
X171259500Y-56388300D02*
X171259500Y-53848300D01*
X158305500Y-56388300D02*
X158305500Y-58928300D01*
D11*
X171987500Y-53198300D02*
X171987500Y-57598300D01*
D12*
X160845500Y-56388300D02*
X158305500Y-56388300D01*
D11*
X166287500Y-57598300D02*
X171987500Y-57598300D01*
D12*
X160845500Y-58928300D02*
X160845500Y-56388300D01*
D11*
X162687500Y-53198300D02*
G75*
G03*
X160187500Y-55698300I0J-2500000D01*
G01*
X166287500Y-57598300D02*
G75*
G03*
X164287500Y-59598300I-1J-1999999D01*
G01*
D12*
X164401500Y-57658300D02*
G75*
G03*
X164401500Y-57658300I-1524000J0D01*
G01*
X170751500Y-55118300D02*
G75*
G03*
X170751500Y-55118300I-1524000J0D01*
G01*
X303958000Y-99915300D02*
X303958000Y-97375300D01*
X314372000Y-97375300D02*
X314372000Y-94835300D01*
D11*
X315100000Y-94185300D02*
X305800000Y-94185300D01*
X315100000Y-94185300D02*
X315100000Y-98585300D01*
X309400000Y-98585300D02*
X315100000Y-98585300D01*
D12*
X301418000Y-97375300D02*
X301418000Y-99915300D01*
X301418000Y-99915300D02*
X303958000Y-99915300D01*
X314372000Y-94835300D02*
X316912000Y-94835300D01*
D11*
X303300000Y-100585300D02*
X307400000Y-100585300D01*
X303300000Y-96685300D02*
X303300000Y-100585300D01*
D12*
X316912000Y-94835300D02*
X316912000Y-97375300D01*
X303958000Y-97375300D02*
X301418000Y-97375300D01*
X316912000Y-97375300D02*
X314372000Y-97375300D01*
D11*
X309400000Y-98585300D02*
G75*
G03*
X307400000Y-100585300I-1J-1999999D01*
G01*
X305800000Y-94185300D02*
G75*
G03*
X303300000Y-96685300I0J-2500000D01*
G01*
D12*
X307514000Y-98645300D02*
G75*
G03*
X307514000Y-98645300I-1524000J0D01*
G01*
X313864000Y-96105300D02*
G75*
G03*
X313864000Y-96105300I-1524000J0D01*
G01*
X94170500Y-80998721D02*
X94170500Y-78458721D01*
D11*
X105312500Y-75268721D02*
X105312500Y-79668721D01*
D12*
X91630500Y-78458721D02*
X91630500Y-80998721D01*
D11*
X105312500Y-75268721D02*
X96012500Y-75268721D01*
X93512500Y-81668721D02*
X97612500Y-81668721D01*
D12*
X91630500Y-80998721D02*
X94170500Y-80998721D01*
X94170500Y-78458721D02*
X91630500Y-78458721D01*
X104584500Y-75918721D02*
X107124500Y-75918721D01*
D11*
X93512500Y-77768721D02*
X93512500Y-81668721D01*
D12*
X104584500Y-78458721D02*
X104584500Y-75918721D01*
X107124500Y-75918721D02*
X107124500Y-78458721D01*
X107124500Y-78458721D02*
X104584500Y-78458721D01*
D11*
X99612500Y-79668721D02*
X105312500Y-79668721D01*
X99612500Y-79668721D02*
G75*
G03*
X97612500Y-81668721I-1J-1999999D01*
G01*
X96012500Y-75268721D02*
G75*
G03*
X93512500Y-77768721I0J-2500000D01*
G01*
D12*
X97726500Y-79728721D02*
G75*
G03*
X97726500Y-79728721I-1524000J0D01*
G01*
X104076500Y-77188721D02*
G75*
G03*
X104076500Y-77188721I-1524000J0D01*
G01*
D11*
X231625000Y-35913300D02*
X231625000Y-39813300D01*
D12*
X242697000Y-36603300D02*
X242697000Y-34063300D01*
D11*
X237725000Y-37813300D02*
X243425000Y-37813300D01*
D12*
X229743000Y-39143300D02*
X232283000Y-39143300D01*
X232283000Y-39143300D02*
X232283000Y-36603300D01*
X245237000Y-36603300D02*
X242697000Y-36603300D01*
D11*
X243425000Y-33413300D02*
X243425000Y-37813300D01*
D12*
X232283000Y-36603300D02*
X229743000Y-36603300D01*
X245237000Y-34063300D02*
X245237000Y-36603300D01*
X242697000Y-34063300D02*
X245237000Y-34063300D01*
X229743000Y-36603300D02*
X229743000Y-39143300D01*
D11*
X243425000Y-33413300D02*
X234125000Y-33413300D01*
X231625000Y-39813300D02*
X235725000Y-39813300D01*
X237725000Y-37813300D02*
G75*
G03*
X235725000Y-39813300I-1J-1999999D01*
G01*
X234125000Y-33413300D02*
G75*
G03*
X231625000Y-35913300I0J-2500000D01*
G01*
D12*
X235839000Y-37873300D02*
G75*
G03*
X235839000Y-37873300I-1524000J0D01*
G01*
X242189000Y-35333300D02*
G75*
G03*
X242189000Y-35333300I-1524000J0D01*
G01*
D11*
X296050000Y-33413300D02*
X296050000Y-37813300D01*
X290350000Y-37813300D02*
X296050000Y-37813300D01*
D12*
X295322000Y-34063300D02*
X297862000Y-34063300D01*
D11*
X284250000Y-39813300D02*
X288350000Y-39813300D01*
D12*
X282368000Y-36603300D02*
X282368000Y-39143300D01*
X297862000Y-36603300D02*
X295322000Y-36603300D01*
D11*
X284250000Y-35913300D02*
X284250000Y-39813300D01*
D12*
X295322000Y-36603300D02*
X295322000Y-34063300D01*
X282368000Y-39143300D02*
X284908000Y-39143300D01*
X297862000Y-34063300D02*
X297862000Y-36603300D01*
X284908000Y-39143300D02*
X284908000Y-36603300D01*
D11*
X296050000Y-33413300D02*
X286750000Y-33413300D01*
D12*
X284908000Y-36603300D02*
X282368000Y-36603300D01*
D11*
X286750000Y-33413300D02*
G75*
G03*
X284250000Y-35913300I0J-2500000D01*
G01*
X290350000Y-37813300D02*
G75*
G03*
X288350000Y-39813300I-1J-1999999D01*
G01*
D12*
X294814000Y-35333300D02*
G75*
G03*
X294814000Y-35333300I-1524000J0D01*
G01*
X288464000Y-37873300D02*
G75*
G03*
X288464000Y-37873300I-1524000J0D01*
G01*
X-21525000Y1016000D02*
X-21525000Y1524000D01*
X-21525000Y-1016000D02*
X-21525000Y-1524000D01*
X-21525000Y-2286000D02*
X-21525000Y-2794000D01*
X-21525000Y2286000D02*
X-21525000Y2794000D01*
X-21525000Y254000D02*
X-21525000Y-254000D01*
X98055400Y10300000D02*
X97547400Y10300000D01*
X98817400Y10300000D02*
X99325400Y10300000D01*
X101357400Y10300000D02*
X101865400Y10300000D01*
X100087400Y10300000D02*
X100595400Y10300000D01*
X96785400Y10300000D02*
X96277400Y10300000D01*
X316912000Y-76825300D02*
X314372000Y-76825300D01*
X314372000Y-74285300D02*
X316912000Y-74285300D01*
D11*
X309400000Y-78035300D02*
X315100000Y-78035300D01*
D12*
X316912000Y-74285300D02*
X316912000Y-76825300D01*
D11*
X303300000Y-76135300D02*
X303300000Y-80035300D01*
D12*
X301418000Y-76825300D02*
X301418000Y-79365300D01*
D11*
X303300000Y-80035300D02*
X307400000Y-80035300D01*
D12*
X303958000Y-79365300D02*
X303958000Y-76825300D01*
D11*
X315100000Y-73635300D02*
X315100000Y-78035300D01*
D12*
X314372000Y-76825300D02*
X314372000Y-74285300D01*
D11*
X315100000Y-73635300D02*
X305800000Y-73635300D01*
D12*
X301418000Y-79365300D02*
X303958000Y-79365300D01*
X303958000Y-76825300D02*
X301418000Y-76825300D01*
D11*
X305800000Y-73635300D02*
G75*
G03*
X303300000Y-76135300I0J-2500000D01*
G01*
X309400000Y-78035300D02*
G75*
G03*
X307400000Y-80035300I-1J-1999999D01*
G01*
D12*
X313864000Y-75555300D02*
G75*
G03*
X313864000Y-75555300I-1524000J0D01*
G01*
X307514000Y-78095300D02*
G75*
G03*
X307514000Y-78095300I-1524000J0D01*
G01*
X96393000Y-39143300D02*
X98933000Y-39143300D01*
X98933000Y-36603300D02*
X96393000Y-36603300D01*
D11*
X110075000Y-33413300D02*
X100775000Y-33413300D01*
D12*
X111887000Y-36603300D02*
X109347000Y-36603300D01*
X98933000Y-39143300D02*
X98933000Y-36603300D01*
X109347000Y-36603300D02*
X109347000Y-34063300D01*
X111887000Y-34063300D02*
X111887000Y-36603300D01*
X96393000Y-36603300D02*
X96393000Y-39143300D01*
D11*
X98275000Y-35913300D02*
X98275000Y-39813300D01*
D12*
X109347000Y-34063300D02*
X111887000Y-34063300D01*
D11*
X104375000Y-37813300D02*
X110075000Y-37813300D01*
X110075000Y-33413300D02*
X110075000Y-37813300D01*
X98275000Y-39813300D02*
X102375000Y-39813300D01*
X100775000Y-33413300D02*
G75*
G03*
X98275000Y-35913300I0J-2500000D01*
G01*
X104375000Y-37813300D02*
G75*
G03*
X102375000Y-39813300I-1J-1999999D01*
G01*
D12*
X108839000Y-35333300D02*
G75*
G03*
X108839000Y-35333300I-1524000J0D01*
G01*
X102489000Y-37873300D02*
G75*
G03*
X102489000Y-37873300I-1524000J0D01*
G01*
D10*
X14412500Y-42763300D02*
X14412500Y-38063300D01*
X14412500Y-38063300D02*
X12112500Y-38063300D01*
X14412500Y-42763300D02*
X12112500Y-42763300D01*
X12112500Y-38063300D02*
X12112500Y-42763300D01*
X85850000Y-2350000D02*
X83550000Y-2350000D01*
X85850000Y-2350000D02*
X85850000Y2350000D01*
X83550000Y2350000D02*
X83550000Y-2350000D01*
X85850000Y2350000D02*
X83550000Y2350000D01*
X350375000Y-80235300D02*
X338275000Y-80235300D01*
X338275000Y-72335300D02*
X350375000Y-72335300D01*
X338275000Y-80235300D02*
X338275000Y-72335300D01*
X350375000Y-72335300D02*
X350375000Y-80235300D01*
X234850000Y33150000D02*
X234850000Y28450000D01*
X234850000Y28450000D02*
X237150000Y28450000D01*
X234850000Y33150000D02*
X237150000Y33150000D01*
X237150000Y28450000D02*
X237150000Y33150000D01*
X-9425000Y-400000D02*
X-9425000Y-8300000D01*
X-9425000Y-8300000D02*
X-21525000Y-8300000D01*
X-21525000Y-8300000D02*
X-21525000Y-400000D01*
X-21525000Y-400000D02*
X-9425000Y-400000D01*
X-9425000Y-40813300D02*
X-9425000Y-48713300D01*
X-21525000Y-48713300D02*
X-21525000Y-40813300D01*
X-9425000Y-48713300D02*
X-21525000Y-48713300D01*
X-21525000Y-40813300D02*
X-9425000Y-40813300D01*
X-20628000Y16514000D02*
X-18388000Y16514000D01*
X-18388000Y16514000D02*
X-18388000Y21074000D01*
X-18388000Y21074000D02*
X-20628000Y21074000D01*
X-20628000Y21074000D02*
X-20628000Y16514000D01*
X200150000Y-22135000D02*
X197850000Y-22135000D01*
X200150000Y-17435000D02*
X197850000Y-17435000D01*
X197850000Y-17435000D02*
X197850000Y-22135000D01*
X200150000Y-22135000D02*
X200150000Y-17435000D01*
X47750000Y-17435000D02*
X45450000Y-17435000D01*
X47750000Y-22135000D02*
X45450000Y-22135000D01*
X45450000Y-17435000D02*
X45450000Y-22135000D01*
X47750000Y-22135000D02*
X47750000Y-17435000D01*
X306640000Y24530000D02*
X306640000Y22710000D01*
X306640000Y22710000D02*
X307560000Y22710000D01*
X307560000Y22710000D02*
X307560000Y24530000D01*
X307560000Y24530000D02*
X306640000Y24530000D01*
X265248933Y23525000D02*
X259422373Y17698440D01*
X259422373Y29351560D02*
X265248933Y23525000D01*
X253595813Y23525000D02*
X259422373Y29351560D01*
X259422373Y17698440D02*
X253595813Y23525000D01*
X337500000Y-25122500D02*
X337500000Y-20422500D01*
X337500000Y-25122500D02*
X335200000Y-25122500D01*
X337500000Y-20422500D02*
X335200000Y-20422500D01*
X335200000Y-20422500D02*
X335200000Y-25122500D01*
X14412500Y-98835300D02*
X12112500Y-98835300D01*
X14412500Y-103535300D02*
X14412500Y-98835300D01*
X12112500Y-98835300D02*
X12112500Y-103535300D01*
X14412500Y-103535300D02*
X12112500Y-103535300D01*
X329581700Y21920507D02*
X329581700Y20460507D01*
X332541700Y21920507D02*
X329581700Y21920507D01*
X329581700Y20460507D02*
X332541700Y20460507D01*
X332541700Y20460507D02*
X332541700Y21920507D01*
X-9425000Y-81035300D02*
X-9425000Y-88935300D01*
X-21525000Y-88935300D02*
X-21525000Y-81035300D01*
X-21525000Y-81035300D02*
X-9425000Y-81035300D01*
X-9425000Y-88935300D02*
X-21525000Y-88935300D01*
X143000000Y-22135000D02*
X140700000Y-22135000D01*
X143000000Y-17435000D02*
X140700000Y-17435000D01*
X143000000Y-22135000D02*
X143000000Y-17435000D01*
X140700000Y-17435000D02*
X140700000Y-22135000D01*
X348080000Y21900000D02*
X348080000Y26600000D01*
X345780000Y21900000D02*
X348080000Y21900000D01*
X345780000Y26600000D02*
X345780000Y21900000D01*
X345780000Y26600000D02*
X348080000Y26600000D01*
X257300000Y2350000D02*
X255000000Y2350000D01*
X257300000Y-2350000D02*
X257300000Y2350000D01*
X257300000Y-2350000D02*
X255000000Y-2350000D01*
X255000000Y2350000D02*
X255000000Y-2350000D01*
X-8775000Y16289000D02*
X-10175000Y16289000D01*
X-10175000Y18789000D02*
X-8775000Y18789000D01*
X-10175000Y18789000D02*
X-10175000Y16289000D01*
X-8775000Y16289000D02*
X-8775000Y18789000D01*
X321590000Y22310000D02*
X321590000Y24210000D01*
X318230000Y22310000D02*
X321590000Y22310000D01*
X321590000Y24210000D02*
X318230000Y24210000D01*
X318230000Y24210000D02*
X318230000Y22310000D01*
X159750000Y-17435000D02*
X159750000Y-22135000D01*
X162050000Y-22135000D02*
X159750000Y-22135000D01*
X162050000Y-22135000D02*
X162050000Y-17435000D01*
X162050000Y-17435000D02*
X159750000Y-17435000D01*
X16580000Y-60065800D02*
X14280000Y-60065800D01*
X14280000Y-55365800D02*
X14280000Y-60065800D01*
X16580000Y-55365800D02*
X14280000Y-55365800D01*
X16580000Y-60065800D02*
X16580000Y-55365800D01*
X300400000Y-2350000D02*
X298100000Y-2350000D01*
X300400000Y-2350000D02*
X300400000Y2350000D01*
X298100000Y2350000D02*
X298100000Y-2350000D01*
X300400000Y2350000D02*
X298100000Y2350000D01*
X264568198Y34441383D02*
X263281264Y33154449D01*
X263931802Y32503911D02*
X265218736Y33790845D01*
X265218736Y33790845D02*
X264568198Y34441383D01*
X263281264Y33154449D02*
X263931802Y32503911D01*
X333310000Y13560000D02*
X338010000Y13560000D01*
X338010000Y15860000D02*
X333310000Y15860000D01*
X333310000Y13560000D02*
X333310000Y15860000D01*
X338010000Y13560000D02*
X338010000Y15860000D01*
X83550000Y-17435000D02*
X83550000Y-22135000D01*
X85850000Y-22135000D02*
X83550000Y-22135000D01*
X85850000Y-22135000D02*
X85850000Y-17435000D01*
X85850000Y-17435000D02*
X83550000Y-17435000D01*
X329330000Y29630000D02*
X332530000Y29630000D01*
X332530000Y27730000D02*
X332530000Y29630000D01*
X329330000Y27730000D02*
X332530000Y27730000D01*
X329330000Y27730000D02*
X329330000Y29630000D01*
X45450000Y2350000D02*
X45450000Y-2350000D01*
X47750000Y-2350000D02*
X47750000Y2350000D01*
X47750000Y2350000D02*
X45450000Y2350000D01*
X47750000Y-2350000D02*
X45450000Y-2350000D01*
X78787500Y-57848300D02*
X78787500Y-62548300D01*
X81087500Y-62548300D02*
X81087500Y-57848300D01*
X81087500Y-62548300D02*
X78787500Y-62548300D01*
X81087500Y-57848300D02*
X78787500Y-57848300D01*
X263829325Y16821213D02*
X262542391Y18108147D01*
X263178787Y16170675D02*
X263829325Y16821213D01*
X261891853Y17457609D02*
X263178787Y16170675D01*
X262542391Y18108147D02*
X261891853Y17457609D01*
X114425000Y-38063300D02*
X112125000Y-38063300D01*
X112125000Y-38063300D02*
X112125000Y-42763300D01*
X114425000Y-42763300D02*
X114425000Y-38063300D01*
X114425000Y-42763300D02*
X112125000Y-42763300D01*
X190625000Y2350000D02*
X188325000Y2350000D01*
X190625000Y-2350000D02*
X190625000Y2350000D01*
X190625000Y-2350000D02*
X188325000Y-2350000D01*
X188325000Y2350000D02*
X188325000Y-2350000D01*
X333460000Y27630000D02*
X333460000Y26690000D01*
X335320000Y26690000D02*
X335320000Y27630000D01*
X333460000Y26690000D02*
X335320000Y26690000D01*
X335320000Y27630000D02*
X333460000Y27630000D01*
X305990000Y22700000D02*
X305990000Y24560000D01*
X305050000Y22700000D02*
X305990000Y22700000D01*
X305990000Y24560000D02*
X305050000Y24560000D01*
X305050000Y24560000D02*
X305050000Y22700000D01*
X273730000Y16330000D02*
X273730000Y17270000D01*
X273730000Y17270000D02*
X271870000Y17270000D01*
X271870000Y16330000D02*
X273730000Y16330000D01*
X271870000Y17270000D02*
X271870000Y16330000D01*
X195387500Y-57848300D02*
X193087500Y-57848300D01*
X195387500Y-62548300D02*
X193087500Y-62548300D01*
X195387500Y-62548300D02*
X195387500Y-57848300D01*
X193087500Y-57848300D02*
X193087500Y-62548300D01*
X266171169Y34153881D02*
X269141018Y31184032D01*
X269141018Y31184032D02*
X266736855Y28779869D01*
X263767006Y31749718D02*
X266171169Y34153881D01*
X266736855Y28779869D02*
X263767006Y31749718D01*
X102600000Y2350000D02*
X102600000Y-2350000D01*
X104900000Y-2350000D02*
X104900000Y2350000D01*
X104900000Y2350000D02*
X102600000Y2350000D01*
X104900000Y-2350000D02*
X102600000Y-2350000D01*
X338275000Y-51898300D02*
X350375000Y-51898300D01*
X350375000Y-59798300D02*
X338275000Y-59798300D01*
X338275000Y-59798300D02*
X338275000Y-51898300D01*
X350375000Y-51898300D02*
X350375000Y-59798300D01*
X305300000Y25010000D02*
X307160000Y25010000D01*
X305300000Y25950000D02*
X305300000Y25010000D01*
X307160000Y25950000D02*
X305300000Y25950000D01*
X307160000Y25010000D02*
X307160000Y25950000D01*
X350375000Y-92885300D02*
X350375000Y-100785300D01*
X350375000Y-100785300D02*
X338275000Y-100785300D01*
X338275000Y-92885300D02*
X350375000Y-92885300D01*
X338275000Y-100785300D02*
X338275000Y-92885300D01*
X147762500Y-82985300D02*
X147762500Y-78285300D01*
X145462500Y-78285300D02*
X145462500Y-82985300D01*
X147762500Y-82985300D02*
X145462500Y-82985300D01*
X147762500Y-78285300D02*
X145462500Y-78285300D01*
X346500000Y19100000D02*
X346500000Y20960000D01*
X346500000Y20960000D02*
X345560000Y20960000D01*
X345560000Y20960000D02*
X345560000Y19100000D01*
X345560000Y19100000D02*
X346500000Y19100000D01*
X242052500Y22107000D02*
X241112500Y22107000D01*
X241112500Y22107000D02*
X241112500Y20247000D01*
X242052500Y20247000D02*
X242052500Y22107000D01*
X241112500Y20247000D02*
X242052500Y20247000D01*
X306680000Y20270000D02*
X307620000Y20270000D01*
X307620000Y20270000D02*
X307620000Y22130000D01*
X306680000Y22130000D02*
X306680000Y20270000D01*
X307620000Y22130000D02*
X306680000Y22130000D01*
X-21525000Y-28085000D02*
X-21525000Y-20185000D01*
X-21525000Y-20185000D02*
X-9425000Y-20185000D01*
X-9425000Y-20185000D02*
X-9425000Y-28085000D01*
X-9425000Y-28085000D02*
X-21525000Y-28085000D01*
X347830000Y20930000D02*
X346910000Y20930000D01*
X346910000Y20930000D02*
X346910000Y19110000D01*
X346910000Y19110000D02*
X347830000Y19110000D01*
X347830000Y19110000D02*
X347830000Y20930000D01*
X233640000Y-61105800D02*
X233640000Y-56405800D01*
X233640000Y-61105800D02*
X231340000Y-61105800D01*
X231340000Y-56405800D02*
X231340000Y-61105800D01*
X233640000Y-56405800D02*
X231340000Y-56405800D01*
X71562500Y-82985300D02*
X69262500Y-82985300D01*
X69262500Y-78285300D02*
X69262500Y-82985300D01*
X71562500Y-78285300D02*
X69262500Y-78285300D01*
X71562500Y-82985300D02*
X71562500Y-78285300D01*
X300400000Y-38063300D02*
X298100000Y-38063300D01*
X300400000Y-42763300D02*
X300400000Y-38063300D01*
X300400000Y-42763300D02*
X298100000Y-42763300D01*
X298100000Y-38063300D02*
X298100000Y-42763300D01*
X214330000Y-61465800D02*
X212030000Y-61465800D01*
X214330000Y-56765800D02*
X212030000Y-56765800D01*
X214330000Y-61465800D02*
X214330000Y-56765800D01*
X212030000Y-56765800D02*
X212030000Y-61465800D01*
X223962500Y-82985300D02*
X223962500Y-78285300D01*
X223962500Y-78285300D02*
X221662500Y-78285300D01*
X221662500Y-78285300D02*
X221662500Y-82985300D01*
X223962500Y-82985300D02*
X221662500Y-82985300D01*
X338275000Y-40013300D02*
X338275000Y-32113300D01*
X350375000Y-40013300D02*
X338275000Y-40013300D01*
X338275000Y-32113300D02*
X350375000Y-32113300D01*
X350375000Y-32113300D02*
X350375000Y-40013300D01*
X319450000Y2350000D02*
X317150000Y2350000D01*
X317150000Y2350000D02*
X317150000Y-2350000D01*
X319450000Y-2350000D02*
X317150000Y-2350000D01*
X319450000Y-2350000D02*
X319450000Y2350000D01*
X334800000Y22950000D02*
X330700000Y22950000D01*
X330700000Y22950000D02*
X330700000Y26350000D01*
X330700000Y26350000D02*
X334800000Y26350000D01*
X334800000Y26350000D02*
X334800000Y22950000D01*
X338275000Y-40813300D02*
X350375000Y-40813300D01*
X338275000Y-48713300D02*
X338275000Y-40813300D01*
X350375000Y-40813300D02*
X350375000Y-48713300D01*
X350375000Y-48713300D02*
X338275000Y-48713300D01*
X304830000Y17320000D02*
X304830000Y13320000D01*
X304830000Y13320000D02*
X311830000Y13320000D01*
X311830000Y13320000D02*
X311830000Y17320000D01*
X311830000Y17320000D02*
X304830000Y17320000D01*
X337760000Y31860000D02*
X333200000Y31860000D01*
X333200000Y28700000D02*
X337760000Y28700000D01*
X333200000Y31860000D02*
X333200000Y28700000D01*
X337760000Y28700000D02*
X337760000Y31860000D01*
X-6531000Y23741000D02*
X-6531000Y19181000D01*
X-4291000Y19181000D02*
X-4291000Y23741000D01*
X-6531000Y19181000D02*
X-4291000Y19181000D01*
X-4291000Y23741000D02*
X-6531000Y23741000D01*
X9650000Y2350000D02*
X7350000Y2350000D01*
X7350000Y2350000D02*
X7350000Y-2350000D01*
X9650000Y-2350000D02*
X9650000Y2350000D01*
X9650000Y-2350000D02*
X7350000Y-2350000D01*
X306030000Y20320000D02*
X306030000Y22140000D01*
X306030000Y22140000D02*
X305110000Y22140000D01*
X305110000Y22140000D02*
X305110000Y20320000D01*
X305110000Y20320000D02*
X306030000Y20320000D01*
X-9425000Y-51898300D02*
X-9425000Y-59798300D01*
X-21525000Y-51898300D02*
X-9425000Y-51898300D01*
X-21525000Y-59798300D02*
X-21525000Y-51898300D01*
X-9425000Y-59798300D02*
X-21525000Y-59798300D01*
X251431264Y22881802D02*
X252081802Y22231264D01*
X252081802Y22231264D02*
X253368736Y23518198D01*
X253368736Y23518198D02*
X252718198Y24168736D01*
X252718198Y24168736D02*
X251431264Y22881802D01*
X7350000Y-17435000D02*
X7350000Y-22135000D01*
X9650000Y-22135000D02*
X9650000Y-17435000D01*
X9650000Y-22135000D02*
X7350000Y-22135000D01*
X9650000Y-17435000D02*
X7350000Y-17435000D01*
X228725000Y-42763300D02*
X226425000Y-42763300D01*
X226425000Y-38063300D02*
X226425000Y-42763300D01*
X228725000Y-42763300D02*
X228725000Y-38063300D01*
X228725000Y-38063300D02*
X226425000Y-38063300D01*
X54975000Y-38063300D02*
X54975000Y-42763300D01*
X57275000Y-42763300D02*
X57275000Y-38063300D01*
X57275000Y-38063300D02*
X54975000Y-38063300D01*
X57275000Y-42763300D02*
X54975000Y-42763300D01*
X317150000Y-17435000D02*
X317150000Y-22135000D01*
X319450000Y-22135000D02*
X319450000Y-17435000D01*
X319450000Y-22135000D02*
X317150000Y-22135000D01*
X319450000Y-17435000D02*
X317150000Y-17435000D01*
X236340000Y13490000D02*
X237260000Y13490000D01*
X237260000Y13490000D02*
X237260000Y15310000D01*
X236340000Y15310000D02*
X236340000Y13490000D01*
X237260000Y15310000D02*
X236340000Y15310000D01*
X-14744000Y16289000D02*
X-14744000Y18789000D01*
X-14744000Y16289000D02*
X-16144000Y16289000D01*
X-16144000Y18789000D02*
X-16144000Y16289000D01*
X-16144000Y18789000D02*
X-14744000Y18789000D01*
X266059506Y27428748D02*
X264772572Y28715682D01*
X264772572Y28715682D02*
X264122034Y28065144D01*
X265408968Y26778210D02*
X266059506Y27428748D01*
X264122034Y28065144D02*
X265408968Y26778210D01*
X319450000Y-78285300D02*
X317150000Y-78285300D01*
X319450000Y-82985300D02*
X317150000Y-82985300D01*
X317150000Y-78285300D02*
X317150000Y-82985300D01*
X319450000Y-82985300D02*
X319450000Y-78285300D01*
X62037500Y-62548300D02*
X62037500Y-57848300D01*
X59737500Y-57848300D02*
X59737500Y-62548300D01*
X62037500Y-57848300D02*
X59737500Y-57848300D01*
X62037500Y-62548300D02*
X59737500Y-62548300D01*
X235140000Y13490000D02*
X236060000Y13490000D01*
X235140000Y15310000D02*
X235140000Y13490000D01*
X236060000Y13490000D02*
X236060000Y15310000D01*
X236060000Y15310000D02*
X235140000Y15310000D01*
X319105000Y27530000D02*
X316145000Y27530000D01*
X316145000Y26070000D02*
X319105000Y26070000D01*
X316145000Y27530000D02*
X316145000Y26070000D01*
X319105000Y26070000D02*
X319105000Y27530000D01*
X319450000Y-42763300D02*
X317150000Y-42763300D01*
X317150000Y-38063300D02*
X317150000Y-42763300D01*
X319450000Y-42763300D02*
X319450000Y-38063300D01*
X319450000Y-38063300D02*
X317150000Y-38063300D01*
X250698757Y23681802D02*
X251349295Y23031264D01*
X252636229Y24318198D02*
X251985691Y24968736D01*
X251349295Y23031264D02*
X252636229Y24318198D01*
X251985691Y24968736D02*
X250698757Y23681802D01*
X238250000Y-17435000D02*
X235950000Y-17435000D01*
X238250000Y-22135000D02*
X235950000Y-22135000D01*
X235950000Y-17435000D02*
X235950000Y-22135000D01*
X238250000Y-22135000D02*
X238250000Y-17435000D01*
X137970000Y-64765800D02*
X135670000Y-64765800D01*
X135670000Y-60065800D02*
X135670000Y-64765800D01*
X137970000Y-60065800D02*
X135670000Y-60065800D01*
X137970000Y-64765800D02*
X137970000Y-60065800D01*
X259681250Y-82985300D02*
X259681250Y-78285300D01*
X257381250Y-78285300D02*
X257381250Y-82985300D01*
X259681250Y-78285300D02*
X257381250Y-78285300D01*
X259681250Y-82985300D02*
X257381250Y-82985300D01*
X337550000Y-42450000D02*
X332850000Y-42450000D01*
X332850000Y-44750000D02*
X332850000Y-42450000D01*
X337550000Y-44750000D02*
X337550000Y-42450000D01*
X332850000Y-44750000D02*
X337550000Y-44750000D01*
X336130000Y23660000D02*
X336130000Y21760000D01*
X339490000Y21760000D02*
X339490000Y23660000D01*
X339490000Y23660000D02*
X336130000Y23660000D01*
X336130000Y21760000D02*
X339490000Y21760000D01*
X276350000Y-2350000D02*
X276350000Y2350000D01*
X274050000Y2350000D02*
X274050000Y-2350000D01*
X276350000Y2350000D02*
X274050000Y2350000D01*
X276350000Y-2350000D02*
X274050000Y-2350000D01*
X299110000Y31160000D02*
X302950000Y31160000D01*
X302950000Y27760000D02*
X299110000Y27760000D01*
X299110000Y27760000D02*
X299110000Y31160000D01*
X302950000Y31160000D02*
X302950000Y27760000D01*
X52512500Y-78285300D02*
X50212500Y-78285300D01*
X52512500Y-82985300D02*
X50212500Y-82985300D01*
X50212500Y-78285300D02*
X50212500Y-82985300D01*
X52512500Y-82985300D02*
X52512500Y-78285300D01*
X338500000Y-103535300D02*
X336200000Y-103535300D01*
X338500000Y-103535300D02*
X338500000Y-98835300D01*
X338500000Y-98835300D02*
X336200000Y-98835300D01*
X336200000Y-98835300D02*
X336200000Y-103535300D01*
X328460000Y29890000D02*
X328460000Y31710000D01*
X327540000Y31710000D02*
X327540000Y29890000D01*
X327540000Y29890000D02*
X328460000Y29890000D01*
X328460000Y31710000D02*
X327540000Y31710000D01*
X235227800Y27425000D02*
X235227800Y19625000D01*
X228667800Y27425000D02*
X235227800Y27425000D01*
X235227800Y19625000D02*
X228667800Y19625000D01*
X228667800Y19625000D02*
X228667800Y27425000D01*
X242482500Y19997000D02*
X235482500Y19997000D01*
X242482500Y16497000D02*
X242482500Y19997000D01*
X235482500Y19997000D02*
X235482500Y16497000D01*
X235482500Y16497000D02*
X242482500Y16497000D01*
X133475000Y-2350000D02*
X131175000Y-2350000D01*
X131175000Y2350000D02*
X131175000Y-2350000D01*
X133475000Y-2350000D02*
X133475000Y2350000D01*
X133475000Y2350000D02*
X131175000Y2350000D01*
X260318198Y16168736D02*
X259031264Y14881802D01*
X259681802Y14231264D02*
X260968736Y15518198D01*
X260968736Y15518198D02*
X260318198Y16168736D01*
X259031264Y14881802D02*
X259681802Y14231264D01*
X190625000Y-42763300D02*
X188325000Y-42763300D01*
X188325000Y-38063300D02*
X188325000Y-42763300D01*
X190625000Y-38063300D02*
X188325000Y-38063300D01*
X190625000Y-42763300D02*
X190625000Y-38063300D01*
X-21525000Y-92885300D02*
X-9425000Y-92885300D01*
X-9425000Y-100785300D02*
X-21525000Y-100785300D01*
X-21525000Y-100785300D02*
X-21525000Y-92885300D01*
X-9425000Y-92885300D02*
X-9425000Y-100785300D01*
X209675000Y-42763300D02*
X209675000Y-38063300D01*
X207375000Y-38063300D02*
X207375000Y-42763300D01*
X209675000Y-38063300D02*
X207375000Y-38063300D01*
X209675000Y-42763300D02*
X207375000Y-42763300D01*
X97837500Y-57848300D02*
X97837500Y-62548300D01*
X100137500Y-62548300D02*
X100137500Y-57848300D01*
X100137500Y-57848300D02*
X97837500Y-57848300D01*
X100137500Y-62548300D02*
X97837500Y-62548300D01*
X181100000Y-17435000D02*
X178800000Y-17435000D01*
X181100000Y-22135000D02*
X181100000Y-17435000D01*
X178800000Y-17435000D02*
X178800000Y-22135000D01*
X181100000Y-22135000D02*
X178800000Y-22135000D01*
X156780000Y-64605800D02*
X154480000Y-64605800D01*
X156780000Y-64605800D02*
X156780000Y-59905800D01*
X156780000Y-59905800D02*
X154480000Y-59905800D01*
X154480000Y-59905800D02*
X154480000Y-64605800D01*
X235950000Y2350000D02*
X235950000Y-2350000D01*
X238250000Y-2350000D02*
X238250000Y2350000D01*
X238250000Y2350000D02*
X235950000Y2350000D01*
X238250000Y-2350000D02*
X235950000Y-2350000D01*
X333200000Y21290000D02*
X333200000Y19830000D01*
X336160000Y21290000D02*
X333200000Y21290000D01*
X333200000Y19830000D02*
X336160000Y19830000D01*
X336160000Y19830000D02*
X336160000Y21290000D01*
X260168736Y16318198D02*
X259518198Y16968736D01*
X259518198Y16968736D02*
X258231264Y15681802D01*
X258231264Y15681802D02*
X258881802Y15031264D01*
X258881802Y15031264D02*
X260168736Y16318198D01*
X239334982Y28531855D02*
X241154982Y28531855D01*
X241154982Y29451855D02*
X239334982Y29451855D01*
X239334982Y29451855D02*
X239334982Y28531855D01*
X241154982Y28531855D02*
X241154982Y29451855D01*
X236880000Y24467913D02*
X236880000Y27867913D01*
X240720000Y27867913D02*
X240720000Y24467913D01*
X236880000Y27867913D02*
X240720000Y27867913D01*
X240720000Y24467913D02*
X236880000Y24467913D01*
X216900000Y2350000D02*
X216900000Y-2350000D01*
X219200000Y-2350000D02*
X219200000Y2350000D01*
X219200000Y2350000D02*
X216900000Y2350000D01*
X219200000Y-2350000D02*
X216900000Y-2350000D01*
X238150000Y34175000D02*
X238150000Y30625000D01*
X244250000Y34175000D02*
X238150000Y34175000D01*
X238150000Y30625000D02*
X244250000Y30625000D01*
X244250000Y30625000D02*
X244250000Y34175000D01*
X356125000Y-106985300D02*
G75*
G03*
X356125000Y-106985300I-1250000J0D01*
G01*
X276013900Y-56248300D02*
X294113900Y-56248300D01*
X294113900Y-56248300D02*
X294113900Y-64148300D01*
X276013900Y-64148300D02*
X276013900Y-56248300D01*
X294113900Y-64148300D02*
X276013900Y-64148300D01*
X241930000Y26670000D02*
X242870000Y26670000D01*
X241930000Y28530000D02*
X241930000Y26670000D01*
X242870000Y26670000D02*
X242870000Y28530000D01*
X242870000Y28530000D02*
X241930000Y28530000D01*
X333190000Y18000000D02*
X336150000Y18000000D01*
X333190000Y19460000D02*
X333190000Y18000000D01*
X336150000Y19460000D02*
X333190000Y19460000D01*
X336150000Y18000000D02*
X336150000Y19460000D01*
X-21525000Y-68498300D02*
X-21525000Y-60598300D01*
X-9425000Y-60598300D02*
X-9425000Y-68498300D01*
X-21525000Y-60598300D02*
X-9425000Y-60598300D01*
X-9425000Y-68498300D02*
X-21525000Y-68498300D01*
X304520000Y18890000D02*
X298820000Y18890000D01*
X304520000Y27390000D02*
X304520000Y18890000D01*
X298820000Y27390000D02*
X304520000Y27390000D01*
X298820000Y18890000D02*
X298820000Y27390000D01*
X166812500Y-82985300D02*
X164512500Y-82985300D01*
X166812500Y-82985300D02*
X166812500Y-78285300D01*
X164512500Y-78285300D02*
X164512500Y-82985300D01*
X166812500Y-78285300D02*
X164512500Y-78285300D01*
X245475000Y-38063300D02*
X245475000Y-42763300D01*
X247775000Y-42763300D02*
X245475000Y-42763300D01*
X247775000Y-38063300D02*
X245475000Y-38063300D01*
X247775000Y-42763300D02*
X247775000Y-38063300D01*
X242320000Y12700000D02*
X238480000Y12700000D01*
X242320000Y16100000D02*
X242320000Y12700000D01*
X238480000Y16100000D02*
X242320000Y16100000D01*
X238480000Y12700000D02*
X238480000Y16100000D01*
X298100000Y-17435000D02*
X298100000Y-22135000D01*
X300400000Y-22135000D02*
X298100000Y-22135000D01*
X300400000Y-17435000D02*
X298100000Y-17435000D01*
X300400000Y-22135000D02*
X300400000Y-17435000D01*
X40687500Y-57848300D02*
X40687500Y-62548300D01*
X42987500Y-57848300D02*
X40687500Y-57848300D01*
X42987500Y-62548300D02*
X40687500Y-62548300D01*
X42987500Y-62548300D02*
X42987500Y-57848300D01*
X123950000Y-22135000D02*
X123950000Y-17435000D01*
X121650000Y-17435000D02*
X121650000Y-22135000D01*
X123950000Y-22135000D02*
X121650000Y-22135000D01*
X123950000Y-17435000D02*
X121650000Y-17435000D01*
X62037500Y-98835300D02*
X59737500Y-98835300D01*
X62037500Y-103535300D02*
X62037500Y-98835300D01*
X59737500Y-98835300D02*
X59737500Y-103535300D01*
X62037500Y-103535300D02*
X59737500Y-103535300D01*
X242740000Y15310000D02*
X242740000Y13490000D01*
X243660000Y15310000D02*
X242740000Y15310000D01*
X243660000Y13490000D02*
X243660000Y15310000D01*
X242740000Y13490000D02*
X243660000Y13490000D01*
X356125000Y32925000D02*
G75*
G03*
X356125000Y32925000I-1250000J0D01*
G01*
X266877296Y28144708D02*
X265590362Y29431642D01*
X266226758Y27494170D02*
X266877296Y28144708D01*
X264939824Y28781104D02*
X266226758Y27494170D01*
X265590362Y29431642D02*
X264939824Y28781104D01*
X332905000Y19950000D02*
X329545000Y19950000D01*
X332905000Y18050000D02*
X332905000Y19950000D01*
X329545000Y19950000D02*
X329545000Y18050000D01*
X329545000Y18050000D02*
X332905000Y18050000D01*
X171575000Y-2350000D02*
X171575000Y2350000D01*
X171575000Y2350000D02*
X169275000Y2350000D01*
X169275000Y2350000D02*
X169275000Y-2350000D01*
X171575000Y-2350000D02*
X169275000Y-2350000D01*
X271587500Y-42763300D02*
X269287500Y-42763300D01*
X271587500Y-42763300D02*
X271587500Y-38063300D01*
X269287500Y-38063300D02*
X269287500Y-42763300D01*
X271587500Y-38063300D02*
X269287500Y-38063300D01*
X-8523000Y16628000D02*
X-3823000Y16628000D01*
X-8523000Y16628000D02*
X-8523000Y18928000D01*
X-3823000Y16628000D02*
X-3823000Y18928000D01*
X-3823000Y18928000D02*
X-8523000Y18928000D01*
X240042500Y20267000D02*
X240962500Y20267000D01*
X240962500Y20267000D02*
X240962500Y22087000D01*
X240042500Y22087000D02*
X240042500Y20267000D01*
X240962500Y22087000D02*
X240042500Y22087000D01*
X350375000Y-400000D02*
X350375000Y-8300000D01*
X338275000Y-8300000D02*
X338275000Y-400000D01*
X350375000Y-8300000D02*
X338275000Y-8300000D01*
X338275000Y-400000D02*
X350375000Y-400000D01*
X241960455Y24422055D02*
X242900455Y24422055D01*
X242900455Y26282055D02*
X241960455Y26282055D01*
X241960455Y26282055D02*
X241960455Y24422055D01*
X242900455Y24422055D02*
X242900455Y26282055D01*
X338275000Y-11485000D02*
X350375000Y-11485000D01*
X338275000Y-19385000D02*
X338275000Y-11485000D01*
X350375000Y-19385000D02*
X338275000Y-19385000D01*
X350375000Y-11485000D02*
X350375000Y-19385000D01*
X171575000Y-42763300D02*
X171575000Y-38063300D01*
X169275000Y-38063300D02*
X169275000Y-42763300D01*
X171575000Y-38063300D02*
X169275000Y-38063300D01*
X171575000Y-42763300D02*
X169275000Y-42763300D01*
X126412500Y-78285300D02*
X126412500Y-82985300D01*
X128712500Y-82985300D02*
X128712500Y-78285300D01*
X128712500Y-78285300D02*
X126412500Y-78285300D01*
X128712500Y-82985300D02*
X126412500Y-82985300D01*
X28700000Y-22135000D02*
X28700000Y-17435000D01*
X26400000Y-17435000D02*
X26400000Y-22135000D01*
X28700000Y-17435000D02*
X26400000Y-17435000D01*
X28700000Y-22135000D02*
X26400000Y-22135000D01*
X280471400Y11625000D02*
X280471400Y19525000D01*
X298571400Y11625000D02*
X280471400Y11625000D01*
X298571400Y19525000D02*
X298571400Y11625000D01*
X280471400Y19525000D02*
X298571400Y19525000D01*
X223962500Y-98835300D02*
X221662500Y-98835300D01*
X221662500Y-98835300D02*
X221662500Y-103535300D01*
X223962500Y-103535300D02*
X221662500Y-103535300D01*
X223962500Y-103535300D02*
X223962500Y-98835300D01*
X-14023000Y17731600D02*
X-11023000Y17731600D01*
X-11023000Y17731600D02*
X-11023000Y19551600D01*
X-11023000Y19551600D02*
X-14023000Y19551600D01*
X-14023000Y19551600D02*
X-14023000Y17731600D01*
X268907609Y30480794D02*
X267620675Y29193860D01*
X269558147Y29830256D02*
X268907609Y30480794D01*
X268271213Y28543322D02*
X269558147Y29830256D01*
X267620675Y29193860D02*
X268271213Y28543322D01*
X258516639Y30506798D02*
X259803573Y31793732D01*
X257866101Y31157336D02*
X258516639Y30506798D01*
X259153035Y32444270D02*
X257866101Y31157336D01*
X259803573Y31793732D02*
X259153035Y32444270D01*
X271587500Y-103535300D02*
X271587500Y-98835300D01*
X271587500Y-98835300D02*
X269287500Y-98835300D01*
X269287500Y-98835300D02*
X269287500Y-103535300D01*
X271587500Y-103535300D02*
X269287500Y-103535300D01*
X119040000Y-63845800D02*
X119040000Y-59145800D01*
X119040000Y-59145800D02*
X116740000Y-59145800D01*
X119040000Y-63845800D02*
X116740000Y-63845800D01*
X116740000Y-59145800D02*
X116740000Y-63845800D01*
X109662500Y-78285300D02*
X107362500Y-78285300D01*
X109662500Y-82985300D02*
X109662500Y-78285300D01*
X107362500Y-78285300D02*
X107362500Y-82985300D01*
X109662500Y-82985300D02*
X107362500Y-82985300D01*
X185862500Y-82985300D02*
X183562500Y-82985300D01*
X183562500Y-78285300D02*
X183562500Y-82985300D01*
X185862500Y-78285300D02*
X183562500Y-78285300D01*
X185862500Y-82985300D02*
X185862500Y-78285300D01*
X216900000Y-17435000D02*
X216900000Y-22135000D01*
X219200000Y-17435000D02*
X216900000Y-17435000D01*
X219200000Y-22135000D02*
X216900000Y-22135000D01*
X219200000Y-22135000D02*
X219200000Y-17435000D01*
X-24750000Y33000000D02*
G75*
G03*
X-24750000Y33000000I-1250000J0D01*
G01*
X319450000Y-103535300D02*
X319450000Y-98835300D01*
X319450000Y-103535300D02*
X317150000Y-103535300D01*
X319450000Y-98835300D02*
X317150000Y-98835300D01*
X317150000Y-98835300D02*
X317150000Y-103535300D01*
X-21525000Y-32113300D02*
X-9425000Y-32113300D01*
X-9425000Y-40013300D02*
X-21525000Y-40013300D01*
X-21525000Y-40013300D02*
X-21525000Y-32113300D01*
X-9425000Y-32113300D02*
X-9425000Y-40013300D01*
X350375000Y-81035300D02*
X350375000Y-88935300D01*
X338275000Y-88935300D02*
X338275000Y-81035300D01*
X338275000Y-81035300D02*
X350375000Y-81035300D01*
X350375000Y-88935300D02*
X338275000Y-88935300D01*
X66800000Y2350000D02*
X64500000Y2350000D01*
X66800000Y-2350000D02*
X64500000Y-2350000D01*
X64500000Y2350000D02*
X64500000Y-2350000D01*
X66800000Y-2350000D02*
X66800000Y2350000D01*
X204912500Y-82985300D02*
X204912500Y-78285300D01*
X204912500Y-82985300D02*
X202612500Y-82985300D01*
X202612500Y-78285300D02*
X202612500Y-82985300D01*
X204912500Y-78285300D02*
X202612500Y-78285300D01*
X338275000Y-28085000D02*
X338275000Y-20185000D01*
X338275000Y-20185000D02*
X350375000Y-20185000D01*
X350375000Y-20185000D02*
X350375000Y-28085000D01*
X350375000Y-28085000D02*
X338275000Y-28085000D01*
X-21525000Y-80235300D02*
X-21525000Y-72335300D01*
X-9425000Y-72335300D02*
X-9425000Y-80235300D01*
X-21525000Y-72335300D02*
X-9425000Y-72335300D01*
X-9425000Y-80235300D02*
X-21525000Y-80235300D01*
X21556250Y-82985300D02*
X21556250Y-78285300D01*
X19256250Y-78285300D02*
X19256250Y-82985300D01*
X21556250Y-78285300D02*
X19256250Y-78285300D01*
X21556250Y-82985300D02*
X19256250Y-82985300D01*
X263570000Y-59135800D02*
X268270000Y-59135800D01*
X263570000Y-56835800D02*
X263570000Y-59135800D01*
X268270000Y-56835800D02*
X263570000Y-56835800D01*
X268270000Y-56835800D02*
X268270000Y-59135800D01*
X-24775000Y-106985300D02*
G75*
G03*
X-24775000Y-106985300I-1250000J0D01*
G01*
X264525000Y-17435000D02*
X264525000Y-22135000D01*
X266825000Y-22135000D02*
X264525000Y-22135000D01*
X266825000Y-17435000D02*
X264525000Y-17435000D01*
X266825000Y-22135000D02*
X266825000Y-17435000D01*
X170100000Y-64495800D02*
X174800000Y-64495800D01*
X174800000Y-64495800D02*
X174800000Y-62195800D01*
X170100000Y-64495800D02*
X170100000Y-62195800D01*
X174800000Y-62195800D02*
X170100000Y-62195800D01*
X104900000Y-17435000D02*
X102600000Y-17435000D01*
X104900000Y-22135000D02*
X104900000Y-17435000D01*
X104900000Y-22135000D02*
X102600000Y-22135000D01*
X102600000Y-17435000D02*
X102600000Y-22135000D01*
X133475000Y-38063300D02*
X131175000Y-38063300D01*
X131175000Y-38063300D02*
X131175000Y-42763300D01*
X133475000Y-42763300D02*
X133475000Y-38063300D01*
X133475000Y-42763300D02*
X131175000Y-42763300D01*
X66800000Y-22135000D02*
X64500000Y-22135000D01*
X66800000Y-17435000D02*
X64500000Y-17435000D01*
X64500000Y-17435000D02*
X64500000Y-22135000D01*
X66800000Y-22135000D02*
X66800000Y-17435000D01*
X339050000Y1480000D02*
X336750000Y1480000D01*
X336750000Y6180000D02*
X336750000Y1480000D01*
X339050000Y1480000D02*
X339050000Y6180000D01*
X339050000Y6180000D02*
X336750000Y6180000D01*
X-21525000Y-11485000D02*
X-9425000Y-11485000D01*
X-9425000Y-19385000D02*
X-21525000Y-19385000D01*
X-21525000Y-19385000D02*
X-21525000Y-11485000D01*
X-9425000Y-11485000D02*
X-9425000Y-19385000D01*
X152525000Y2350000D02*
X150225000Y2350000D01*
X152525000Y-2350000D02*
X152525000Y2350000D01*
X150225000Y2350000D02*
X150225000Y-2350000D01*
X152525000Y-2350000D02*
X150225000Y-2350000D01*
X93075000Y-38063300D02*
X93075000Y-42763300D01*
X95375000Y-38063300D02*
X93075000Y-38063300D01*
X95375000Y-42763300D02*
X95375000Y-38063300D01*
X95375000Y-42763300D02*
X93075000Y-42763300D01*
X76325000Y-42763300D02*
X76325000Y-38063300D01*
X76325000Y-42763300D02*
X74025000Y-42763300D01*
X76325000Y-38063300D02*
X74025000Y-38063300D01*
X74025000Y-38063300D02*
X74025000Y-42763300D01*
X298100000Y-98835300D02*
X298100000Y-103535300D01*
X300400000Y-103535300D02*
X298100000Y-103535300D01*
X300400000Y-98835300D02*
X298100000Y-98835300D01*
X300400000Y-103535300D02*
X300400000Y-98835300D01*
X350375000Y-68498300D02*
X338275000Y-68498300D01*
X338275000Y-60598300D02*
X350375000Y-60598300D01*
X338275000Y-68498300D02*
X338275000Y-60598300D01*
X350375000Y-60598300D02*
X350375000Y-68498300D01*
X258753417Y30296908D02*
X259403955Y29646370D01*
X260040351Y31583842D02*
X258753417Y30296908D01*
X260690889Y30933304D02*
X260040351Y31583842D01*
X259403955Y29646370D02*
X260690889Y30933304D01*
X38225000Y-38063300D02*
X35925000Y-38063300D01*
X38225000Y-42763300D02*
X38225000Y-38063300D01*
X35925000Y-38063300D02*
X35925000Y-42763300D01*
X38225000Y-42763300D02*
X35925000Y-42763300D01*
X239842500Y21157000D02*
X238022500Y21157000D01*
X238022500Y21157000D02*
X238022500Y20237000D01*
X239842500Y20237000D02*
X239842500Y21157000D01*
X238022500Y20237000D02*
X239842500Y20237000D01*
X143000000Y-98835300D02*
X140700000Y-98835300D01*
X143000000Y-103535300D02*
X140700000Y-103535300D01*
X140700000Y-98835300D02*
X140700000Y-103535300D01*
X143000000Y-103535300D02*
X143000000Y-98835300D01*
X90612500Y-82985300D02*
X88312500Y-82985300D01*
X90612500Y-78285300D02*
X88312500Y-78285300D01*
X88312500Y-78285300D02*
X88312500Y-82985300D01*
X90612500Y-82985300D02*
X90612500Y-78285300D01*
X152525000Y-38063300D02*
X150225000Y-38063300D01*
X152525000Y-42763300D02*
X150225000Y-42763300D01*
X150225000Y-38063300D02*
X150225000Y-42763300D01*
X152525000Y-42763300D02*
X152525000Y-38063300D01*
M02*
