%TF.GenerationSoftware,KiCad,Pcbnew,(6.0.5-0)*%
%TF.CreationDate,2023-01-21T22:01:54+08:00*%
%TF.ProjectId,main,6d61696e-2e6b-4696-9361-645f70636258,Prototype-V1*%
%TF.SameCoordinates,Original*%
%TF.FileFunction,Profile,NP*%
%FSLAX46Y46*%
G04 Gerber Fmt 4.6, Leading zero omitted, Abs format (unit mm)*
G04 Created by KiCad (PCBNEW (6.0.5-0)) date 2023-01-21 22:01:54*
%MOMM*%
%LPD*%
G01*
G04 APERTURE LIST*
%TA.AperFunction,Profile*%
%ADD10C,0.300000*%
%TD*%
G04 APERTURE END LIST*
D10*
X96277421Y-28085000D02*
X-21525000Y-28085000D01*
X-21025000Y30125000D02*
G75*
G03*
X-23525000Y27625000I0J-2500000D01*
G01*
X287727455Y-69498345D02*
G75*
G03*
X286727421Y-68498345I-1000055J-55D01*
G01*
X228667843Y32925000D02*
X228667843Y26319000D01*
X270515849Y-10705015D02*
G75*
G03*
X273197574Y-11485000I2681751J4220215D01*
G01*
X101865421Y-8300021D02*
G75*
G03*
X100865421Y-9300000I-21J-999979D01*
G01*
X352375000Y-98391338D02*
X352375000Y-83429332D01*
X100865421Y-89935332D02*
X100865421Y-91885332D01*
X-21525000Y-8300000D02*
X-21525000Y-2794000D01*
X235638668Y-92885332D02*
G75*
G03*
X240547832Y-92885332I2454582J2494999D01*
G01*
X-21525000Y-103979336D02*
G75*
G03*
X-23525000Y-103979337I-1000000J0D01*
G01*
X101865421Y-48713321D02*
G75*
G03*
X100865421Y-49713345I-21J-999979D01*
G01*
X-21525000Y-77841317D02*
X-21525000Y-72335332D01*
X260523048Y-68498345D02*
X249064452Y-68498345D01*
X-2486332Y-92885332D02*
G75*
G03*
X2422832Y-92885332I2454582J2494999D01*
G01*
X184291298Y-92885282D02*
G75*
G03*
X188171737Y-91038457I2J5000082D01*
G01*
X-26025000Y-109485332D02*
X-23525000Y-109485332D01*
X96277421Y-68498345D02*
X-21525000Y-68498345D01*
X-23525000Y22669000D02*
G75*
G03*
X-21525000Y22669000I1000000J0D01*
G01*
X350375000Y-92885332D02*
X350375000Y-98391349D01*
X101865421Y-32113345D02*
X242895483Y-32113345D01*
X264403487Y-70345220D02*
G75*
G03*
X269060013Y-70345220I2328263J1891875D01*
G01*
X97277421Y-69498345D02*
X97277421Y-71335332D01*
X245453815Y-72335332D02*
X258008676Y-72335332D01*
X-3525000Y22669000D02*
X-3525000Y26125000D01*
X350375000Y5300000D02*
G75*
G03*
X347375000Y8300000I-3000000J0D01*
G01*
X291315400Y-10485000D02*
G75*
G03*
X292315421Y-11485000I1000000J0D01*
G01*
X-3525000Y22669000D02*
G75*
G03*
X-1525000Y22669000I1000000J0D01*
G01*
X286727421Y-72335321D02*
G75*
G03*
X287727421Y-71335332I-21J1000021D01*
G01*
X101865421Y-72335332D02*
X234047169Y-72335332D01*
X69991298Y-92885282D02*
G75*
G03*
X73871737Y-91038457I2J5000082D01*
G01*
X25247115Y-71555321D02*
G75*
G03*
X27928824Y-72335332I2681685J4219821D01*
G01*
X100865455Y-31113345D02*
G75*
G03*
X101865421Y-32113345I999945J-55D01*
G01*
X-23525000Y-16991001D02*
G75*
G03*
X-21525000Y-16991000I1000000J3D01*
G01*
X352375000Y-37619340D02*
X352375000Y-22578999D01*
X242908738Y-29931874D02*
G75*
G03*
X239028298Y-28085000I-3880438J-3153126D01*
G01*
X263953743Y-72067143D02*
G75*
G03*
X260690392Y-71555332I-1922443J-1598057D01*
G01*
X-19525000Y11625000D02*
X-5525000Y11625000D01*
X196708702Y-92885332D02*
X235638668Y-92885332D01*
X96277421Y-48713345D02*
X-21525000Y-48713345D01*
X-21525000Y-83429332D02*
G75*
G03*
X-23525000Y-83429332I-1000000J0D01*
G01*
X97277421Y-89935332D02*
X97277421Y-91885332D01*
X287727421Y-89935332D02*
X287727421Y-91885332D01*
X189151306Y-110275332D02*
G75*
G03*
X191848694Y-110275332I1348694J2105001D01*
G01*
X231884548Y-88935332D02*
X192954582Y-88935332D01*
X268134614Y-51118335D02*
G75*
G03*
X270816324Y-51898345I2681686J4219835D01*
G01*
X291315421Y-31113288D02*
X291315421Y-29085000D01*
X-21525000Y-37619338D02*
X-21525000Y-32113345D01*
X352375000Y-83429332D02*
G75*
G03*
X350375000Y-83429332I-1000000J0D01*
G01*
X287727455Y-49713345D02*
G75*
G03*
X286727421Y-48713345I-1000055J-55D01*
G01*
X350375000Y-48713345D02*
X292315421Y-48713345D01*
X292315421Y-68498321D02*
G75*
G03*
X291315421Y-69498345I-21J-999979D01*
G01*
X-5525000Y28125000D02*
X-19525000Y28125000D01*
X241190919Y-11484972D02*
G75*
G03*
X243888306Y-10695000I81J4999872D01*
G01*
X-21525000Y26125000D02*
X-21525000Y22669000D01*
X352375000Y-22578999D02*
G75*
G03*
X350375000Y-22578999I-1000000J1D01*
G01*
X357375000Y32925000D02*
G75*
G03*
X354875000Y35425000I-2500000J0D01*
G01*
X350375000Y-43207342D02*
X350375000Y-48713345D01*
X292315421Y-92885332D02*
X350375000Y-92885332D01*
X1316944Y-71545332D02*
G75*
G03*
X-1380444Y-71545332I-1348694J-2105001D01*
G01*
X350375000Y-106485332D02*
X350375000Y-103979337D01*
X263953660Y-72067210D02*
G75*
G03*
X269271681Y-72335332I2778040J2226810D01*
G01*
X-3525000Y13625000D02*
X-3525000Y17081000D01*
X264423832Y-92885332D02*
X286727421Y-92885332D01*
X97277421Y-29085000D02*
X97277421Y-31113345D01*
X-23525000Y2794000D02*
X-23525000Y17081000D01*
X347875000Y35425000D02*
X231167843Y35425000D01*
X-21525000Y-103979336D02*
X-21525000Y-106485332D01*
X350375000Y26319000D02*
G75*
G03*
X352375000Y26318997I1000000J0D01*
G01*
X244301952Y-88935364D02*
G75*
G03*
X240421513Y-90782207I-152J-4999736D01*
G01*
X350375000Y2794005D02*
G75*
G03*
X352375000Y2793999I1000000J-5D01*
G01*
X239028298Y-28085000D02*
X101865421Y-28085000D01*
X228667843Y20731000D02*
G75*
G03*
X226667843Y20731000I-1000000J0D01*
G01*
X-1525000Y27625000D02*
G75*
G03*
X-4025000Y30125000I-2500000J0D01*
G01*
X265152426Y-11484992D02*
G75*
G03*
X267834142Y-10705000I74J4999792D01*
G01*
X26298832Y-92885332D02*
X69991298Y-92885332D01*
X287727421Y-9300000D02*
X287727421Y-10485000D01*
X287727421Y-29085000D02*
X287727421Y-31113097D01*
X259514668Y-92885332D02*
G75*
G03*
X264423832Y-92885332I2454582J2494999D01*
G01*
X-23525000Y22669000D02*
X-23525000Y27625000D01*
X350375000Y32925000D02*
G75*
G03*
X347875000Y35425000I-2500000J0D01*
G01*
X352375000Y-109485332D02*
X354875000Y-109485332D01*
X96277421Y-51898321D02*
G75*
G03*
X97277421Y-50898345I-21J1000021D01*
G01*
X-21025000Y30125000D02*
X-4025000Y30125000D01*
X286727421Y-48713345D02*
X101865421Y-48713345D01*
X292315421Y11625000D02*
X347875000Y11625000D01*
X80246081Y-109485332D02*
X186453919Y-109485332D01*
X352375000Y-103979341D02*
G75*
G03*
X350375000Y-103979337I-1000000J41D01*
G01*
X238809669Y-51898327D02*
G75*
G03*
X241507056Y-51108345I-69J5000327D01*
G01*
X292315421Y-11485000D02*
X350375000Y-11485000D01*
X354875000Y35425000D02*
X352375000Y35425000D01*
X-21525000Y-2794000D02*
G75*
G03*
X-23525000Y-2794000I-1000000J0D01*
G01*
X-21525000Y-43207332D02*
G75*
G03*
X-23525000Y-43207342I-1000000J-4D01*
G01*
X287727468Y-89935332D02*
G75*
G03*
X286727421Y-88935332I-1000068J-68D01*
G01*
X100865421Y-29085000D02*
X100865421Y-31113345D01*
X-21525000Y-106485332D02*
G75*
G03*
X-18525000Y-109485332I3000001J1D01*
G01*
X-1525000Y17081000D02*
X-1525000Y10300000D01*
X-21525000Y-68498345D02*
X-21525000Y-62992340D01*
X96277421Y8300001D02*
G75*
G03*
X96277421Y10299999I-21J999999D01*
G01*
X286727438Y-32113121D02*
G75*
G03*
X287727421Y-31113097I-38J1000021D01*
G01*
X244204457Y-51108325D02*
G75*
G03*
X246901831Y-51898345I2697343J4209725D01*
G01*
X291315421Y-69498345D02*
X291315421Y-71335332D01*
X352375000Y-62992340D02*
G75*
G03*
X350375000Y-62992333I-1000000J40D01*
G01*
X-19525000Y28125000D02*
G75*
G03*
X-21525000Y26125000I-1J-1999999D01*
G01*
X-23525000Y-109485332D02*
X-23525000Y-103979337D01*
X-23525000Y-37619343D02*
G75*
G03*
X-21525000Y-37619338I1000000J4D01*
G01*
X354875000Y-109485400D02*
G75*
G03*
X357375000Y-106985332I-100J2500100D01*
G01*
X291315412Y-31113288D02*
G75*
G03*
X292315420Y-32113288I999988J-12D01*
G01*
X101865421Y-11485000D02*
X241190919Y-11485000D01*
X-21525000Y-88935332D02*
X-21525000Y-83429332D01*
X352375000Y20731000D02*
X352375000Y2793999D01*
X242895483Y-32113345D02*
G75*
G03*
X247578517Y-32113345I2341517J2495002D01*
G01*
X352375000Y-57404358D02*
X352375000Y-43207332D01*
X100865421Y-49713345D02*
X100865421Y-50898345D01*
X-21525000Y-98391340D02*
X-21525000Y-92885332D01*
X352375000Y-77841315D02*
X352375000Y-62992340D01*
X240064518Y-72112658D02*
G75*
G03*
X245453815Y-72335332I2791282J2227458D01*
G01*
X350375000Y-2794001D02*
X350375000Y-8300000D01*
X251445702Y-28085001D02*
G75*
G03*
X247565263Y-29931875I-2J-4999999D01*
G01*
X194546081Y-109485332D02*
X347375000Y-109485332D01*
X350375000Y-11485000D02*
X350375000Y-16991001D01*
X235764974Y-90782217D02*
G75*
G03*
X231884548Y-88935332I-3880574J-3153383D01*
G01*
X287727400Y-9300000D02*
G75*
G03*
X286727421Y-8300000I-1000000J0D01*
G01*
X100865421Y-9300000D02*
X100865421Y-10485000D01*
X-21525000Y17081000D02*
X-21525000Y13625000D01*
X242908737Y-29931875D02*
G75*
G03*
X247565263Y-29931875I2328263J1891875D01*
G01*
X231167843Y11625000D02*
X286727421Y11625000D01*
X287727421Y10625000D02*
X287727421Y9300000D01*
X-5525000Y11625000D02*
G75*
G03*
X-3525000Y13625000I1J1999999D01*
G01*
X-1525000Y10300000D02*
X96277421Y10299999D01*
X270515858Y-10705000D02*
G75*
G03*
X267834142Y-10705000I-1340858J-2110000D01*
G01*
X350375000Y-16991001D02*
G75*
G03*
X352375000Y-16990999I1000000J1D01*
G01*
X350375000Y-98391349D02*
G75*
G03*
X352375000Y-98391338I1000000J49D01*
G01*
X270816324Y-51898345D02*
X286727421Y-51898345D01*
X292315421Y-72335332D02*
X350375000Y-72335332D01*
X-21525000Y-62992340D02*
G75*
G03*
X-23525000Y-62992341I-1000000J0D01*
G01*
X292315421Y-51898345D02*
X350375000Y-51898345D01*
X19883676Y-72335337D02*
G75*
G03*
X22565392Y-71555332I-76J5000237D01*
G01*
X-18525000Y-109485332D02*
X72153919Y-109485332D01*
X246585691Y-10695005D02*
G75*
G03*
X249283081Y-11485000I2697409J4210105D01*
G01*
X291315468Y-91885332D02*
G75*
G03*
X292315421Y-92885332I999932J-68D01*
G01*
X100865421Y-69498345D02*
X100865421Y-71335332D01*
X97277455Y-49713345D02*
G75*
G03*
X96277421Y-48713345I-1000055J-55D01*
G01*
X-1525000Y27625000D02*
X-1525000Y22669000D01*
X286727421Y8299979D02*
G75*
G03*
X287727421Y9300000I-21J1000021D01*
G01*
X350375000Y-77841333D02*
G75*
G03*
X352375000Y-77841315I1000000J33D01*
G01*
X352375000Y-43207332D02*
G75*
G03*
X350375000Y-43207342I-1000000J32D01*
G01*
X235764987Y-90782207D02*
G75*
G03*
X240421513Y-90782207I2328263J1891875D01*
G01*
X291315421Y-49713345D02*
X291315421Y-50898345D01*
X30052952Y-88935332D02*
G75*
G03*
X26172513Y-90782207I-2J-4999998D01*
G01*
X21515987Y-90782207D02*
G75*
G03*
X17635548Y-88935332I-3880437J-3153123D01*
G01*
X4014331Y-72335332D02*
X19883676Y-72335332D01*
X275321702Y-28085001D02*
G75*
G03*
X271441263Y-29931875I-2J-4999999D01*
G01*
X352375000Y-16990999D02*
X352375000Y-2794001D01*
X286727421Y-8300000D02*
X101865421Y-8300000D01*
X101865421Y10300000D02*
X226667843Y10300000D01*
X192828282Y-91038442D02*
G75*
G03*
X196708702Y-92885332I3880418J3153042D01*
G01*
X100865455Y-50898345D02*
G75*
G03*
X101865421Y-51898345I999945J-55D01*
G01*
X73745418Y-88935332D02*
X30052952Y-88935332D01*
X350375000Y-68498345D02*
X292315421Y-68498345D01*
X97277421Y-9300000D02*
X97277421Y-10485000D01*
X262904298Y-28085000D02*
X251445702Y-28085000D01*
X74851315Y-110275318D02*
G75*
G03*
X72153919Y-109485332I-2697415J-4210182D01*
G01*
X-23525000Y2794000D02*
G75*
G03*
X-21525000Y2793999I1000000J0D01*
G01*
X-23525000Y-43207342D02*
X-23525000Y-57404350D01*
X262771176Y-51898348D02*
G75*
G03*
X265452892Y-51118345I-76J5000248D01*
G01*
X352375000Y-103979341D02*
X352375000Y-109485332D01*
X268134608Y-51118345D02*
G75*
G03*
X265452892Y-51118345I-1340858J-2110000D01*
G01*
X-28525000Y-106985332D02*
G75*
G03*
X-26025000Y-109485332I2500000J0D01*
G01*
X-21525000Y13625000D02*
G75*
G03*
X-19525000Y11625000I1999999J-1D01*
G01*
X287727400Y-29085000D02*
G75*
G03*
X286727421Y-28085000I-1000000J0D01*
G01*
X-21525000Y-72335332D02*
X-4077831Y-72335332D01*
X286727421Y-11485021D02*
G75*
G03*
X287727421Y-10485000I-21J1000021D01*
G01*
X101865421Y-92885332D02*
X184291298Y-92885332D01*
X-3525000Y26125000D02*
G75*
G03*
X-5525000Y28125000I-1999999J1D01*
G01*
X350375000Y26319000D02*
X350375000Y32925000D01*
X97277455Y-69498345D02*
G75*
G03*
X96277421Y-68498345I-1000055J-55D01*
G01*
X228667900Y14125000D02*
G75*
G03*
X231167843Y11625000I2499900J-100D01*
G01*
X292315421Y-28085021D02*
G75*
G03*
X291315421Y-29085000I-21J-999979D01*
G01*
X350375000Y-72335332D02*
X350375000Y-77841333D01*
X286727421Y-51898321D02*
G75*
G03*
X287727421Y-50898345I-21J1000021D01*
G01*
X80246081Y-109485339D02*
G75*
G03*
X77548694Y-110275332I-81J-4999761D01*
G01*
X272940452Y-68498372D02*
G75*
G03*
X269060013Y-70345220I-152J-4999728D01*
G01*
X27928824Y-72335332D02*
X96277421Y-72335332D01*
X247578517Y-32113345D02*
X266771483Y-32113345D01*
X101865421Y-68498321D02*
G75*
G03*
X100865421Y-69498345I-21J-999979D01*
G01*
X192954582Y-88935332D02*
G75*
G03*
X188045418Y-88935332I-2454582J-2494999D01*
G01*
X246585694Y-10695000D02*
G75*
G03*
X243888306Y-10695000I-1348694J-2105001D01*
G01*
X97277468Y-89935332D02*
G75*
G03*
X96277421Y-88935332I-1000068J-68D01*
G01*
X97277400Y-9300000D02*
G75*
G03*
X96277421Y-8300000I-1000000J0D01*
G01*
X82408702Y-92885332D02*
X96277421Y-92885332D01*
X350375000Y14125000D02*
X350375000Y20731000D01*
X287727421Y-50898345D02*
X287727421Y-49713345D01*
X286727421Y8300000D02*
X101865422Y8299999D01*
X226667843Y26318996D02*
X226667843Y32925000D01*
X347875000Y11625000D02*
G75*
G03*
X350375000Y14125000I0J2500000D01*
G01*
X78528282Y-91038442D02*
G75*
G03*
X82408702Y-92885332I3880418J3153042D01*
G01*
X273197574Y-11485000D02*
X286727421Y-11485000D01*
X291315400Y9300000D02*
G75*
G03*
X292315421Y8300000I1000000J0D01*
G01*
X226667900Y32925000D02*
G75*
G03*
X224167843Y35425000I-2500100J-100D01*
G01*
X226667757Y26318996D02*
G75*
G03*
X228667843Y26319000I1000043J4D01*
G01*
X286727421Y-88935332D02*
X268177952Y-88935332D01*
X96277421Y8300000D02*
X-18525000Y8300000D01*
X292315421Y-8300021D02*
G75*
G03*
X291315421Y-9300000I-21J-999979D01*
G01*
X-23525000Y-62992341D02*
X-23525000Y-77841333D01*
X268177952Y-88935364D02*
G75*
G03*
X264297513Y-90782207I-152J-4999736D01*
G01*
X21515987Y-90782207D02*
G75*
G03*
X26172513Y-90782207I2328263J1891875D01*
G01*
X350375000Y-88935332D02*
X292315421Y-88935332D01*
X-23525000Y-2794000D02*
X-23525000Y-16991001D01*
X-21525000Y-32113345D02*
X96277421Y-32113345D01*
X100865468Y-71335332D02*
G75*
G03*
X101865421Y-72335332I999932J-68D01*
G01*
X-6240452Y-88935332D02*
X-21525000Y-88935332D01*
X-2360013Y-90782207D02*
G75*
G03*
X-6240452Y-88935332I-3880437J-3153122D01*
G01*
X244204444Y-51108345D02*
G75*
G03*
X241507056Y-51108345I-1348694J-2105001D01*
G01*
X352375000Y20731000D02*
G75*
G03*
X350375000Y20731000I-1000000J0D01*
G01*
X350375000Y-83429332D02*
X350375000Y-88935332D01*
X292315421Y-88935321D02*
G75*
G03*
X291315421Y-89935332I-21J-999979D01*
G01*
X96277421Y-8300000D02*
X-21525000Y-8300000D01*
X224167843Y35425000D02*
X-26025000Y35425000D01*
X-23525000Y-83429332D02*
X-23525000Y-98391349D01*
X101865421Y-28085021D02*
G75*
G03*
X100865421Y-29085000I-21J-999979D01*
G01*
X287727400Y10625000D02*
G75*
G03*
X286727421Y11625000I-1000000J0D01*
G01*
X96277421Y-88935332D02*
X78654582Y-88935332D01*
X269271681Y-72335332D02*
X286727421Y-72335332D01*
X350375000Y-57404350D02*
G75*
G03*
X352375000Y-57404358I1000000J-50D01*
G01*
X74851306Y-110275332D02*
G75*
G03*
X77548694Y-110275332I1348694J2105001D01*
G01*
X292315421Y-48713321D02*
G75*
G03*
X291315421Y-49713345I-21J-999979D01*
G01*
X350375000Y-8300000D02*
X292315421Y-8300000D01*
X350375000Y-51898345D02*
X350375000Y-57404350D01*
X-26025000Y35425000D02*
G75*
G03*
X-28525000Y32925000I0J-2500000D01*
G01*
X271454517Y-32113345D02*
X286727438Y-32113097D01*
X-21525000Y5300000D02*
X-21525000Y2793999D01*
X350375000Y-37619343D02*
G75*
G03*
X352375000Y-37619340I1000000J43D01*
G01*
X-21525000Y-16991000D02*
X-21525000Y-11485000D01*
X291315421Y-9300000D02*
X291315421Y-10485000D01*
X189151315Y-110275318D02*
G75*
G03*
X186453919Y-109485332I-2697415J-4210182D01*
G01*
X96277421Y-32113321D02*
G75*
G03*
X97277421Y-31113345I-21J1000021D01*
G01*
X6176952Y-88935332D02*
G75*
G03*
X2296513Y-90782207I-2J-4999998D01*
G01*
X96277421Y-72335321D02*
G75*
G03*
X97277421Y-71335332I-21J1000021D01*
G01*
X-28525000Y32925000D02*
X-28525000Y-106985332D01*
X259640974Y-90782217D02*
G75*
G03*
X255760548Y-88935332I-3880574J-3153383D01*
G01*
X226667843Y10300000D02*
X226667843Y20731000D01*
X291315455Y-50898345D02*
G75*
G03*
X292315421Y-51898345I999945J-55D01*
G01*
X97277400Y-29085000D02*
G75*
G03*
X96277421Y-28085000I-1000000J0D01*
G01*
X96277421Y-92885321D02*
G75*
G03*
X97277421Y-91885332I-21J1000021D01*
G01*
X286727421Y-68498345D02*
X272940452Y-68498345D01*
X-23525000Y-98391349D02*
G75*
G03*
X-21525000Y-98391340I1000000J5D01*
G01*
X-1525000Y17081000D02*
G75*
G03*
X-3525000Y17081000I-1000000J0D01*
G01*
X266771483Y-32113345D02*
G75*
G03*
X271454517Y-32113345I2341517J2495002D01*
G01*
X240064494Y-72112678D02*
G75*
G03*
X236744556Y-71545332I-1971194J-1537522D01*
G01*
X-18525000Y8300000D02*
G75*
G03*
X-21525000Y5300000I1J-3000001D01*
G01*
X21389668Y-92885332D02*
G75*
G03*
X26298832Y-92885332I2454582J2494999D01*
G01*
X240527471Y-70345233D02*
G75*
G03*
X236647048Y-68498345I-3880571J-3153367D01*
G01*
X291315421Y-91885332D02*
X291315421Y-89935332D01*
X-21525000Y-48713345D02*
X-21525000Y-43207332D01*
X2422832Y-92885332D02*
X21389668Y-92885332D01*
X350375000Y-28085000D02*
X292315421Y-28085000D01*
X-21525000Y-28085000D02*
X-21525000Y-22578990D01*
X236647048Y-68498345D02*
X101865421Y-68498345D01*
X255760548Y-88935332D02*
X244301952Y-88935332D01*
X-23525000Y-22578991D02*
X-23525000Y-37619343D01*
X194546081Y-109485339D02*
G75*
G03*
X191848694Y-110275332I-81J-4999761D01*
G01*
X357375000Y-106985332D02*
X357375000Y32925000D01*
X350375000Y-32113345D02*
X350375000Y-37619343D01*
X350375000Y-22578999D02*
X350375000Y-28085000D01*
X286727421Y-92885321D02*
G75*
G03*
X287727421Y-91885332I-21J1000021D01*
G01*
X292315420Y-32113288D02*
X350375000Y-32113345D01*
X240527487Y-70345220D02*
G75*
G03*
X245184013Y-70345220I2328263J1891875D01*
G01*
X100865400Y-10485000D02*
G75*
G03*
X101865421Y-11485000I1000000J0D01*
G01*
X264403471Y-70345233D02*
G75*
G03*
X260523048Y-68498345I-3880571J-3153367D01*
G01*
X291315468Y-71335332D02*
G75*
G03*
X292315421Y-72335332I999932J-68D01*
G01*
X246901831Y-51898345D02*
X262771176Y-51898345D01*
X-23525000Y-77841333D02*
G75*
G03*
X-21525000Y-77841317I1000000J8D01*
G01*
X78528263Y-91038457D02*
G75*
G03*
X73871737Y-91038457I-2328263J-1891875D01*
G01*
X1316945Y-71545330D02*
G75*
G03*
X4014331Y-72335332I2697385J4209980D01*
G01*
X-21525000Y-92885332D02*
X-2486332Y-92885332D01*
X25247108Y-71555332D02*
G75*
G03*
X22565392Y-71555332I-1340858J-2110000D01*
G01*
X-23525000Y-57404350D02*
G75*
G03*
X-21525000Y-57404351I1000000J-1D01*
G01*
X-21525000Y-11485000D02*
X96277421Y-11485000D01*
X258008676Y-72335337D02*
G75*
G03*
X260690392Y-71555332I-76J5000237D01*
G01*
X101865421Y10300001D02*
G75*
G03*
X101865422Y8299999I-21J-1000001D01*
G01*
X97277421Y-49713345D02*
X97277421Y-50898345D01*
X287727421Y-69498345D02*
X287727421Y-71335332D01*
X78654582Y-88935332D02*
G75*
G03*
X73745418Y-88935332I-2454582J-2494999D01*
G01*
X188045418Y-88935332D02*
X101865421Y-88935332D01*
X249283081Y-11485000D02*
X265152426Y-11485000D01*
X100865468Y-91885332D02*
G75*
G03*
X101865421Y-92885332I999932J-68D01*
G01*
X96277421Y-11485021D02*
G75*
G03*
X97277421Y-10485000I-21J1000021D01*
G01*
X-21525000Y-22578999D02*
G75*
G03*
X-23525000Y-22578991I-1000000J6D01*
G01*
X347375000Y-109485400D02*
G75*
G03*
X350375000Y-106485332I-100J3000100D01*
G01*
X-21525000Y17081000D02*
G75*
G03*
X-23525000Y17081000I-1000000J0D01*
G01*
X266784738Y-29931874D02*
G75*
G03*
X262904298Y-28085000I-3880438J-3153126D01*
G01*
X-21525000Y-57404351D02*
X-21525000Y-51898345D01*
X192828263Y-91038457D02*
G75*
G03*
X188171737Y-91038457I-2328263J-1891875D01*
G01*
X292315421Y11624979D02*
G75*
G03*
X291315421Y10625000I-21J-999979D01*
G01*
X259640987Y-90782207D02*
G75*
G03*
X264297513Y-90782207I2328263J1891875D01*
G01*
X350375000Y2794005D02*
X350375000Y5300000D01*
X286727421Y-28085000D02*
X275321702Y-28085000D01*
X-2360013Y-90782207D02*
G75*
G03*
X2296513Y-90782207I2328263J1891875D01*
G01*
X234047169Y-72335316D02*
G75*
G03*
X236744556Y-71545332I-69J5000316D01*
G01*
X101865421Y-88935321D02*
G75*
G03*
X100865421Y-89935332I-21J-999979D01*
G01*
X-21525000Y-51898345D02*
X96277421Y-51898345D01*
X101865421Y-51898345D02*
X238809669Y-51898345D01*
X240547832Y-92885332D02*
X259514668Y-92885332D01*
X231167843Y35425057D02*
G75*
G03*
X228667843Y32925000I57J-2500057D01*
G01*
X352375000Y35425000D02*
X352375000Y26318997D01*
X352375000Y-2794001D02*
G75*
G03*
X350375000Y-2794001I-1000000J0D01*
G01*
X347375000Y8300000D02*
X292315421Y8300000D01*
X-4077831Y-72335332D02*
G75*
G03*
X-1380444Y-71545332I-1J5000001D01*
G01*
X228667843Y20731000D02*
X228667843Y14125000D01*
X350375000Y-62992333D02*
X350375000Y-68498345D01*
X249064452Y-68498372D02*
G75*
G03*
X245184013Y-70345220I-152J-4999728D01*
G01*
X266784737Y-29931875D02*
G75*
G03*
X271441263Y-29931875I2328263J1891875D01*
G01*
X17635548Y-88935332D02*
X6176952Y-88935332D01*
X291315421Y10625000D02*
X291315421Y9300000D01*
M02*
