  0
SECTION
  2
HEADER
  9
$ACADVER
  1
AC1009
  9
$DWGCODEPAGE
  3
ANSI_1252
  9
$INSBASE
 10
0.0
 20
0.0
 30
0.0
  9
$EXTMIN
 10
1e+20
 20
1e+20
 30
1e+20
  9
$EXTMAX
 10
-1e+20
 20
-1e+20
 30
-1e+20
  9
$LIMMIN
 10
0.0
 20
0.0
  9
$LIMMAX
 10
420.0
 20
297.0
  9
$ORTHOMODE
 70
0
  9
$REGENMODE
 70
1
  9
$FILLMODE
 70
1
  9
$DRAGMODE
 70
2
  9
$QTEXTMODE
 70
0
  9
$MIRRTEXT
 70
1
  9
$OSMODE
 70
20583
  9
$LTSCALE
 40
1.0
  9
$ATTMODE
 70
1
  9
$TEXTSIZE
 40
2.5
  9
$TRACEWID
 40
1.0
  9
$TEXTSTYLE
  7
Standard
  9
$CLAYER
  8
0
  9
$CELTYPE
  6
ByLayer
  9
$CECOLOR
 62
256
  9
$DIMSCALE
 40
1.0
  9
$DIMASZ
 40
2.5
  9
$DIMEXO
 40
0.625
  9
$DIMDLI
 40
3.75
  9
$DIMRND
 40
0.0
  9
$DIMDLE
 40
0.0
  9
$DIMEXE
 40
1.25
  9
$DIMTP
 40
0.0
  9
$DIMTM
 40
0.0
  9
$DIMTXT
 40
2.5
  9
$DIMCEN
 40
2.5
  9
$DIMTSZ
 40
0.0
  9
$DIMTOL
 70
0
  9
$DIMLIM
 70
0
  9
$DIMTIH
 70
0
  9
$DIMTOH
 70
0
  9
$DIMSE1
 70
0
  9
$DIMSE2
 70
0
  9
$DIMTAD
 70
1
  9
$DIMZIN
 70
8
  9
$DIMBLK
  1

  9
$DIMASO
 70
1
  9
$DIMSHO
 70
1
  9
$DIMPOST
  1

  9
$DIMAPOST
  1

  9
$DIMALT
 70
0
  9
$DIMALTD
 70
3
  9
$DIMALTF
 40
0.03937007874
  9
$DIMLFAC
 40
1.0
  9
$DIMTOFL
 70
1
  9
$DIMTVP
 40
0.0
  9
$DIMTIX
 70
0
  9
$DIMSOXD
 70
0
  9
$DIMSAH
 70
0
  9
$DIMBLK1
  1

  9
$DIMBLK2
  1

  9
$DIMSTYLE
  2
ISO-25
  9
$DIMCLRD
 70
0
  9
$DIMCLRE
 70
0
  9
$DIMCLRT
 70
0
  9
$DIMTFAC
 40
1.0
  9
$DIMGAP
 40
0.625
  9
$COORDS
 70
1
  9
$ATTDIA
 70
0
  9
$ATTREQ
 70
1
  9
$HANDLING
 70
1
  9
$LUNITS
 70
2
  9
$LUPREC
 70
4
  9
$SKETCHINC
 40
1.0
  9
$FILLETRAD
 40
10.0
  9
$AUNITS
 70
0
  9
$AUPREC
 70
2
  9
$MENU
  1
.
  9
$ELEVATION
 40
0.0
  9
$PELEVATION
 40
0.0
  9
$THICKNESS
 40
0.0
  9
$LIMCHECK
 70
0
  9
$CHAMFERA
 40
0.0
  9
$CHAMFERB
 40
0.0
  9
$SKPOLY
 70
0
  9
$TDCREATE
 40
2460023.5464351852
  9
$TDUPDATE
 40
2460023.5464351852
  9
$TDINDWG
 40
0.0
  9
$TDUSRTIMER
 40
0.0
  9
$USRTIMER
 70
1
  9
$ANGBASE
 50
0.0
  9
$ANGDIR
 70
0
  9
$PDMODE
 70
0
  9
$PDSIZE
 40
0.0
  9
$PLINEWID
 40
0.0
  9
$SPLFRAME
 70
0
  9
$SPLINETYPE
 70
6
  9
$SPLINESEGS
 70
8
  9
$HANDSEED
  5
17E
  9
$SURFTAB1
 70
6
  9
$SURFTAB2
 70
6
  9
$SURFTYPE
 70
6
  9
$SURFU
 70
6
  9
$SURFV
 70
6
  9
$UCSNAME
  2

  9
$UCSORG
 10
0.0
 20
0.0
 30
0.0
  9
$UCSXDIR
 10
1.0
 20
0.0
 30
0.0
  9
$UCSYDIR
 10
0.0
 20
1.0
 30
0.0
  9
$PUCSNAME
  2

  9
$PUCSORG
 10
0.0
 20
0.0
 30
0.0
  9
$PUCSXDIR
 10
1.0
 20
0.0
 30
0.0
  9
$PUCSYDIR
 10
0.0
 20
1.0
 30
0.0
  9
$USERI1
 70
0
  9
$USERI2
 70
0
  9
$USERI3
 70
0
  9
$USERI4
 70
0
  9
$USERI5
 70
0
  9
$USERR1
 40
0.0
  9
$USERR2
 40
0.0
  9
$USERR3
 40
0.0
  9
$USERR4
 40
0.0
  9
$USERR5
 40
0.0
  9
$WORLDVIEW
 70
1
  9
$SHADEDGE
 70
3
  9
$SHADEDIF
 70
70
  9
$TILEMODE
 70
1
  9
$MAXACTVP
 70
64
  9
$PLIMCHECK
 70
0
  9
$PEXTMIN
 10
1e+20
 20
1e+20
 30
1e+20
  9
$PEXTMAX
 10
-1e+20
 20
-1e+20
 30
-1e+20
  9
$PLIMMIN
 10
0.0
 20
0.0
  9
$PLIMMAX
 10
420.0
 20
297.0
  9
$UNITMODE
 70
0
  9
$VISRETAIN
 70
1
  9
$PLINEGEN
 70
0
  9
$PSLTSCALE
 70
1
  0
ENDSEC
  0
SECTION
  2
TABLES
  0
TABLE
  2
VPORT
 70
1
  0
VPORT
  5
23
  2
*Active
 70
0
 10
0.0
 20
0.0
 11
1.0
 21
1.0
 12
0.0
 22
0.0
 13
0.0
 23
0.0
 14
0.5
 24
0.5
 15
0.5
 25
0.5
 16
0.0
 26
0.0
 36
1.0
 17
0.0
 27
0.0
 37
0.0
 40
1000.0
 41
1.34
 42
50.0
 43
0.0
 44
0.0
 50
0.0
 51
0.0
 71
0
 72
1000
 73
1
 74
3
 75
0
 76
0
 77
0
 78
0
  0
ENDTAB
  0
TABLE
  2
LTYPE
 70
3
  0
LTYPE
  5
24
  2
ByBlock
 70
0
  3

 72
65
 73
0
 40
0.0
  0
LTYPE
  5
25
  2
ByLayer
 70
0
  3

 72
65
 73
0
 40
0.0
  0
LTYPE
  5
26
  2
Continuous
 70
0
  3

 72
65
 73
0
 40
0.0
  0
ENDTAB
  0
TABLE
  2
LAYER
 70
2
  0
LAYER
  5
27
  2
0
 70
0
 62
7
  6
Continuous
  0
LAYER
  5
28
  2
Defpoints
 70
0
 62
7
  6
Continuous
  0
ENDTAB
  0
TABLE
  2
STYLE
 70
1
  0
STYLE
  5
29
  2
Standard
 70
0
 40
0.0
 41
1.0
 50
0.0
 71
0
 42
2.5
  3
txt
  4

  0
ENDTAB
  0
TABLE
  2
VIEW
 70
0
  0
ENDTAB
  0
TABLE
  2
UCS
 70
0
  0
ENDTAB
  0
TABLE
  2
APPID
 70
3
  0
APPID
  5
2A
  2
ACAD
 70
0
  0
APPID
  5
17C
  2
HATCHBACKGROUNDCOLOR
 70
0
  0
APPID
  5
17D
  2
EZDXF
 70
0
  0
ENDTAB
  0
TABLE
  2
DIMSTYLE
 70
1
  0
DIMSTYLE
105
2B
  2
Standard
 70
0
  3

  4

  5

  6

  7

 40
1.0
 41
2.5
 42
0.625
 43
3.75
 44
1.25
 45
0.0
 46
0.0
 47
0.0
 48
0.0
140
2.5
141
2.5
142
0.0
143
0.03937007874
144
1.0
145
0.0
146
1.0
147
0.625
 71
0
 72
0
 73
0
 74
0
 75
0
 76
0
 77
1
 78
8
170
0
171
3
172
1
173
0
174
0
175
0
176
0
177
0
178
0
  0
ENDTAB
  0
ENDSEC
  0
SECTION
  2
BLOCKS
  0
BLOCK
  5
18
  8
0
  2
$Model_Space
 70
0
 10
0.0
 20
0.0
 30
0.0
  3
$Model_Space
  1

1001
EZDXF
1000
CREATED_BY_EZDXF
1000
0.18.1 @ 2023-03-19T05:06:52.908135+00:00
1000
WRITTEN_BY_EZDXF
1000
0.18.1 @ 2023-03-19T05:06:52.937007+00:00
  0
ENDBLK
  5
19
  8
0
  0
BLOCK
  5
1C
  8
0
  2
$Paper_Space
 70
0
 10
0.0
 20
0.0
 30
0.0
  3
$Paper_Space
  1

  0
ENDBLK
  5
1D
  8
0
  0
ENDSEC
  0
SECTION
  2
ENTITIES
  0
LINE
  5
2D
  8
panel-edge-moved
  6
ByLayer
 10
-4.024999999999999
 20
30.12500000000001
 30
0.0
 11
-21.02499999999999
 21
30.12500000000001
 31
0.0
  0
ARC
  5
2E
  8
panel-edge-moved
  6
ByLayer
 10
-21.02499999999999
 20
27.62500000000001
 30
0.0
 40
2.500000000000003
 50
90.00000000000007
 51
179.9999999999999
  0
LINE
  5
2F
  8
panel-edge-moved
  6
ByLayer
 10
-23.52499999999999
 20
27.62500000000001
 30
0.0
 11
-23.52499999999999
 21
22.66900000000003
 31
0.0
  0
ARC
  5
30
  8
panel-edge-moved
  6
ByLayer
 10
-22.52499999999999
 20
22.66900000000003
 30
0.0
 40
1.0
 50
180.0
 51
0.0
  0
LINE
  5
31
  8
panel-edge-moved
  6
ByLayer
 10
-21.52499999999999
 20
22.66900000000003
 30
0.0
 11
-21.525
 21
26.12500000000001
 31
0.0
  0
ARC
  5
32
  8
panel-edge-moved
  6
ByLayer
 10
-19.525
 20
26.12500000000001
 30
0.0
 40
2.0
 50
90.0
 51
180.0
  0
LINE
  5
33
  8
panel-edge-moved
  6
ByLayer
 10
-19.525
 20
28.12500000000001
 30
0.0
 11
-5.524999999999999
 21
28.12500000000001
 31
0.0
  0
ARC
  5
34
  8
panel-edge-moved
  6
ByLayer
 10
-5.524999999999999
 20
26.12500000000001
 30
0.0
 40
2.0
 50
0.0
 51
90.0
  0
LINE
  5
35
  8
panel-edge-moved
  6
ByLayer
 10
-3.524999999999999
 20
26.12500000000001
 30
0.0
 11
-3.524999999999999
 21
22.66900018061735
 31
0.0
  0
ARC
  5
36
  8
panel-edge-moved
  6
ByLayer
 10
-2.524999999999999
 20
22.66900009030869
 30
0.0
 40
1.000000000000004
 50
179.9999948256949
 51
359.9999948256949
  0
LINE
  5
37
  8
panel-edge-moved
  6
ByLayer
 10
-1.524999999999999
 20
22.66900000000003
 30
0.0
 11
-1.524999999999999
 21
27.62500000000001
 31
0.0
  0
ARC
  5
38
  8
panel-edge-moved
  6
ByLayer
 10
-4.024999999999999
 20
27.62500000000001
 30
0.0
 40
2.5
 50
0.0
 51
90.0
  0
ARC
  5
39
  8
panel-edge-moved
  6
ByLayer
 10
96.2774213218619
 20
-10.48499999999931
 30
0.0
 40
1.0
 50
-90.00000000000081
 51
0.0
  0
LINE
  5
3A
  8
panel-edge-moved
  6
ByLayer
 10
97.2774213218619
 20
-10.48499999999931
 30
0.0
 11
97.27742132186191
 21
-9.30000000000001
 31
0.0
  0
ARC
  5
3B
  8
panel-edge-moved
  6
ByLayer
 10
96.27742132186191
 20
-9.30000000000001
 30
0.0
 40
1.0
 50
0.0
 51
90.0
  0
LINE
  5
3C
  8
panel-edge-moved
  6
ByLayer
 10
96.27742132186191
 20
-8.30000000000001
 30
0.0
 11
-21.525
 21
-8.300000000000002
 31
0.0
  0
LINE
  5
3D
  8
panel-edge-moved
  6
ByLayer
 10
-21.525
 20
-8.300000000000002
 30
0.0
 11
-21.525
 21
-2.793999999999989
 31
0.0
  0
ARC
  5
3E
  8
panel-edge-moved
  6
ByLayer
 10
-22.525
 20
-2.7939999998372627
 30
0.0
 40
1.0000000000000009
 50
-9.323528882117057e-09
 51
-179.9999859285279
  0
LINE
  5
3F
  8
panel-edge-moved
  6
ByLayer
 10
-23.52499999999997
 20
-2.794000245430781
 30
0.0
 11
-23.52499999999419
 21
-16.99100050679078
 31
0.0
  0
ARC
  5
40
  8
panel-edge-moved
  6
ByLayer
 10
-22.524999999997615
 20
-16.990997857661714
 30
0.0
 40
1.0000000000000828
 50
-179.99984821608516
 51
-0.00012723161167471145
  0
LINE
  5
41
  8
panel-edge-moved
  6
ByLayer
 10
-21.525
 20
-16.99100007827225
 30
0.0
 11
-21.525
 21
-11.48499999999941
 31
0.0
  0
LINE
  5
42
  8
panel-edge-moved
  6
ByLayer
 10
-21.525
 20
-11.48499999999941
 30
0.0
 11
96.27742132186188
 21
-11.48499999999931
 31
0.0
  0
LINE
  5
43
  8
panel-edge-moved
  6
ByLayer
 10
350.3750000000001
 20
-8.300000000000002
 30
0.0
 11
292.3154213218619
 21
-8.300000000000882
 31
0.0
  0
ARC
  5
44
  8
panel-edge-moved
  6
ByLayer
 10
292.3154213218619
 20
-9.300000000000882
 30
0.0
 40
1.0
 50
90.0
 51
180.0
  0
LINE
  5
45
  8
panel-edge-moved
  6
ByLayer
 10
291.3154213218619
 20
-9.300000000000882
 30
0.0
 11
291.3154213218619
 21
-10.48499999999821
 31
0.0
  0
ARC
  5
46
  8
panel-edge-moved
  6
ByLayer
 10
292.3154213218619
 20
-10.48499999999821
 30
0.0
 40
1.0
 50
180.0
 51
-90.0
  0
LINE
  5
47
  8
panel-edge-moved
  6
ByLayer
 10
292.3154213218619
 20
-11.48499999999821
 30
0.0
 11
350.3750000000001
 21
-11.48499999999941
 31
0.0
  0
LINE
  5
48
  8
panel-edge-moved
  6
ByLayer
 10
350.3750000000001
 20
-11.48499999999941
 30
0.0
 11
350.3750000000041
 21
-16.99100050679078
 31
0.0
  0
ARC
  5
49
  8
panel-edge-moved
  6
ByLayer
 10
351.3750000000009
 20
-16.99099755738325
 30
0.0
 40
1.000000000001164
 50
-179.99983101139642
 51
-0.00011002692293970344
  0
LINE
  5
4A
  8
panel-edge-moved
  6
ByLayer
 10
352.3750000000002
 20
-16.99099947771532
 30
0.0
 11
352.3750000000002
 21
-2.794000506791364
 31
0.0
  0
ARC
  5
4B
  8
panel-edge-moved
  6
ByLayer
 10
351.3750000000002
 20
-2.7940005066286373
 30
0.0
 40
0.9999999999999867
 50
-9.323554326554508e-09
 51
-179.99998592852785
  0
LINE
  5
4C
  8
panel-edge-moved
  6
ByLayer
 10
350.3750000000003
 20
-2.794000752222157
 30
0.0
 11
350.3750000000001
 21
-8.300000000000002
 31
0.0
  0
LINE
  5
4D
  8
panel-edge-moved
  6
ByLayer
 10
286.7274199574233
 20
-8.300000000000011
 30
0.0
 11
101.8654213218619
 21
-8.300000000000027
 31
0.0
  0
ARC
  5
4E
  8
panel-edge-moved
  6
ByLayer
 10
101.8654213218619
 20
-9.300000000000027
 30
0.0
 40
1.0
 50
90.0
 51
180.0
  0
LINE
  5
4F
  8
panel-edge-moved
  6
ByLayer
 10
100.8654213218619
 20
-9.300000000000027
 30
0.0
 11
100.8654213218619
 21
-10.48499999999936
 31
0.0
  0
ARC
  5
50
  8
panel-edge-moved
  6
ByLayer
 10
101.8654213218619
 20
-10.48499999999936
 30
0.0
 40
1.0
 50
180.0
 51
-90.0
  0
LINE
  5
51
  8
panel-edge-moved
  6
ByLayer
 10
101.8654213218619
 20
-11.48499999999936
 30
0.0
 11
241.190918562362
 21
-11.48499999999936
 31
0.0
  0
ARC
  5
52
  8
panel-edge-moved
  6
ByLayer
 10
241.1909185623619
 20
-6.484999999999507
 30
0.0
 40
4.999999999999853
 50
-89.99999999999902
 51
-57.351921208849895
  0
ARC
  5
53
  8
panel-edge-moved
  6
ByLayer
 10
245.23699999999886
 20
-12.799999999999411
 30
0.0
 40
2.499999999999418
 50
57.35192120884701
 51
122.64807879112882
  0
ARC
  5
54
  8
panel-edge-moved
  6
ByLayer
 10
249.2830814376356
 20
-6.484999999998992
 30
0.0
 40
5.000000000000178
 50
-122.64807879113263
 51
-89.99999999999413
  0
LINE
  5
55
  8
panel-edge-moved
  6
ByLayer
 10
249.2830814376361
 20
-11.48499999999917
 30
0.0
 11
265.1524261970784
 21
-11.48499999999757
 31
0.0
  0
ARC
  5
56
  8
panel-edge-moved
  6
ByLayer
 10
265.1524261970755
 20
-6.484999999998242
 30
0.0
 40
4.999999999999328
 50
-89.99999999996678
 51
-57.56495192513483
  0
ARC
  5
57
  8
panel-edge-moved
  6
ByLayer
 10
269.1750000000001
 20
-12.814999999999497
 30
0.0
 40
2.500000000000107
 50
57.564951925145174
 51
122.4350480748393
  0
ARC
  5
58
  8
panel-edge-moved
  6
ByLayer
 10
273.1975738029249
 20
-6.484999999997691
 30
0.0
 40
4.999999999999879
 50
-122.43504807485569
 51
-90.0000000000013
  0
LINE
  5
59
  8
panel-edge-moved
  6
ByLayer
 10
273.1975738029248
 20
-11.48499999999757
 30
0.0
 11
286.7274213218625
 21
-11.48499999999057
 31
0.0
  0
ARC
  5
5A
  8
panel-edge-moved
  6
ByLayer
 10
286.72742132186204
 20
-10.484999999990624
 30
0.0
 40
0.9999999999999467
 50
-89.99999999997395
 51
3.0533324942051496e-12
  0
LINE
  5
5B
  8
panel-edge-moved
  6
ByLayer
 10
287.727421321862
 20
-10.48499999999057
 30
0.0
 11
287.727421321862
 21
-9.300000000000203
 31
0.0
  0
ARC
  5
5C
  8
panel-edge-moved
  6
ByLayer
 10
286.72742063964256
 20
-9.300000682219434
 30
0.0
 40
1.000000682219655
 50
3.908825594017057e-05
 51
90.00003908825717
  0
LINE
  5
5D
  8
panel-edge-moved
  6
ByLayer
 10
242.8954833440692
 20
-32.11334466230158
 30
0.0
 11
101.8654213218619
 21
-32.11334466230171
 31
0.0
  0
ARC
  5
5E
  8
panel-edge-moved
  6
ByLayer
 10
101.8654213218619
 20
-31.113344662301706
 30
0.0
 40
1.0
 50
-179.9999999999998
 51
-90.0
  0
LINE
  5
5F
  8
panel-edge-moved
  6
ByLayer
 10
100.8654213218619
 20
-31.11334466230171
 30
0.0
 11
100.8654213218619
 21
-29.08499999999941
 31
0.0
  0
ARC
  5
60
  8
panel-edge-moved
  6
ByLayer
 10
101.8654213218619
 20
-29.08499999999941
 30
0.0
 40
1.0
 50
90.0
 51
180.0
  0
LINE
  5
61
  8
panel-edge-moved
  6
ByLayer
 10
101.8654213218619
 20
-28.08499999999941
 30
0.0
 11
239.0282984449222
 21
-28.08499999999942
 31
0.0
  0
ARC
  5
62
  8
panel-edge-moved
  6
ByLayer
 10
239.02829844492226
 20
-33.08499999999946
 30
0.0
 40
5.000000000000041
 50
39.09624896923071
 51
90.00000000000065
  0
ARC
  5
63
  8
panel-edge-moved
  6
ByLayer
 10
245.23699999999903
 20
-28.039999999999406
 30
0.0
 40
3.0000000000008034
 50
-140.90375103075766
 51
-39.09624896922279
  0
ARC
  5
64
  8
panel-edge-moved
  6
ByLayer
 10
251.4457015550759
 20
-33.08499999999953
 30
0.0
 40
5.000000000000152
 50
89.99999999999315
 51
140.90375103075775
  0
LINE
  5
65
  8
panel-edge-moved
  6
ByLayer
 10
251.4457015550765
 20
-28.08499999999938
 30
0.0
 11
262.9042984449218
 21
-28.08499999999938
 31
0.0
  0
ARC
  5
66
  8
panel-edge-moved
  6
ByLayer
 10
262.9042984449217
 20
-33.08499999999932
 30
0.0
 40
4.99999999999994
 50
39.096248969227545
 51
89.99999999999935
  0
ARC
  5
67
  8
panel-edge-moved
  6
ByLayer
 10
269.11299999999875
 20
-28.03999999999943
 30
0.0
 40
3.0000000000009597
 50
-140.90375103075795
 51
-39.09624896922437
  0
ARC
  5
68
  8
panel-edge-moved
  6
ByLayer
 10
275.3217015550758
 20
-33.084999999999475
 30
0.0
 40
5.000000000000075
 50
90.0
 51
140.90375103076045
  0
LINE
  5
69
  8
panel-edge-moved
  6
ByLayer
 10
275.3217015550758
 20
-28.0849999999994
 30
0.0
 11
286.727421321862
 21
-28.08499999999956
 31
0.0
  0
ARC
  5
6A
  8
panel-edge-moved
  6
ByLayer
 10
286.727421321862
 20
-29.08499999999956
 30
0.0
 40
1.0
 50
0.0
 51
90.0
  0
LINE
  5
6B
  8
panel-edge-moved
  6
ByLayer
 10
287.727421321862
 20
-29.08499999999956
 30
0.0
 11
287.727421321862
 21
-31.11309690513245
 31
0.0
  0
ARC
  5
6C
  8
panel-edge-moved
  6
ByLayer
 10
286.727421321862
 20
-31.113096905132455
 30
0.0
 40
1.000000000000001
 50
-89.99907054794942
 51
2.0355549961366507e-13
  0
LINE
  5
6D
  8
panel-edge-moved
  6
ByLayer
 10
286.7274375438605
 20
-32.11309690500088
 30
0.0
 11
271.4545166559311
 21
-32.11334466230126
 31
0.0
  0
ARC
  5
6E
  8
panel-edge-moved
  6
ByLayer
 10
269.113
 20
-29.61834466230177
 30
0.0
 40
3.421655337698448
 50
-133.18237003501858
 51
-46.817629964981414
  0
LINE
  5
6F
  8
panel-edge-moved
  6
ByLayer
 10
266.7714833440689
 20
-32.11334466230126
 30
0.0
 11
247.5785166559309
 21
-32.11334466230179
 31
0.0
  0
ARC
  5
70
  8
panel-edge-moved
  6
ByLayer
 10
245.23700000000017
 20
-29.618344662301762
 30
0.0
 40
3.42165533769859
 50
-133.18237003501312
 51
-46.817629964992115
  0
ARC
  5
71
  8
panel-edge-moved
  6
ByLayer
 10
286.72742132186204
 20
-69.4983446623061
 30
0.0
 40
0.999999999999943
 50
-3.256887993818826e-12
 51
89.99999999998371
  0
LINE
  5
72
  8
panel-edge-moved
  6
ByLayer
 10
286.7274213218623
 20
-68.49834466230615
 30
0.0
 11
272.940451555076
 21
-68.49834466230185
 31
0.0
  0
ARC
  5
73
  8
panel-edge-moved
  6
ByLayer
 10
272.94045155507575
 20
-73.49834466230188
 30
0.0
 40
5.000000000000022
 50
89.99999999999739
 51
140.9037510307592
  0
ARC
  5
74
  8
panel-edge-moved
  6
ByLayer
 10
266.73174999999947
 20
-68.4533446623017
 30
0.0
 40
3.000000000000517
 50
-140.90375103075993
 51
-39.09624896923311
  0
ARC
  5
75
  8
panel-edge-moved
  6
ByLayer
 10
260.52304844492323
 20
-73.49834466230168
 30
0.0
 40
4.999999999999844
 50
39.09624896923526
 51
89.99999999999935
  0
LINE
  5
76
  8
panel-edge-moved
  6
ByLayer
 10
260.5230484449233
 20
-68.49834466230183
 30
0.0
 11
249.0644515550767
 21
-68.49834466230185
 31
0.0
  0
ARC
  5
77
  8
panel-edge-moved
  6
ByLayer
 10
249.06445155507592
 20
-73.49834466230216
 30
0.0
 40
5.000000000000306
 50
89.9999999999912
 51
140.90375103075607
  0
ARC
  5
78
  8
panel-edge-moved
  6
ByLayer
 10
242.85575000000037
 20
-68.4533446623018
 30
0.0
 40
2.9999999999997673
 50
-140.9037510307622
 51
-39.09624896923953
  0
ARC
  5
79
  8
panel-edge-moved
  6
ByLayer
 10
236.64704844492493
 20
-73.49834466230182
 30
0.0
 40
5.00000000000001
 50
39.096248969242744
 51
89.99999999999935
  0
LINE
  5
7A
  8
panel-edge-moved
  6
ByLayer
 10
236.647048444925
 20
-68.4983446623018
 30
0.0
 11
101.8654213218619
 21
-68.4983446623018
 31
0.0
  0
ARC
  5
7B
  8
panel-edge-moved
  6
ByLayer
 10
101.8654213218619
 20
-69.4983446623018
 30
0.0
 40
1.0
 50
90.0
 51
180.0
  0
LINE
  5
7C
  8
panel-edge-moved
  6
ByLayer
 10
100.8654213218619
 20
-69.4983446623018
 30
0.0
 11
100.8654213218619
 21
-71.33533169519083
 31
0.0
  0
ARC
  5
7D
  8
panel-edge-moved
  6
ByLayer
 10
101.8654213218619
 20
-71.33533169519083
 30
0.0
 40
1.0
 50
180.0
 51
-90.0
  0
LINE
  5
7E
  8
panel-edge-moved
  6
ByLayer
 10
101.8654213218619
 20
-72.33533169519083
 30
0.0
 11
234.0471685623606
 21
-72.33533169519087
 31
0.0
  0
ARC
  5
7F
  8
panel-edge-moved
  6
ByLayer
 10
234.04716856236158
 20
-67.33533169519066
 30
0.0
 40
5.000000000000206
 50
-90.00000000001107
 51
-57.35192120885216
  0
ARC
  5
80
  8
panel-edge-moved
  6
ByLayer
 10
238.09324999999995
 20
-73.65033169519069
 30
0.0
 40
2.4999999999999383
 50
37.95574747840169
 51
122.64807879115925
  0
ARC
  5
81
  8
panel-edge-moved
  6
ByLayer
 10
242.855750000002
 20
-69.88533169519079
 30
0.0
 40
3.5710560404782403
 50
-141.4110991582557
 51
-43.319937899217514
  0
LINE
  5
82
  8
panel-edge-moved
  6
ByLayer
 10
245.4538149037794
 20
-72.33533169519002
 30
0.0
 11
258.0086761970714
 21
-72.33533169519069
 31
0.0
  0
ARC
  5
83
  8
panel-edge-moved
  6
ByLayer
 10
258.00867619707236
 20
-67.33533169519052
 30
0.0
 40
5.000000000000176
 50
-90.00000000001107
 51
-57.56495192512263
  0
ARC
  5
84
  8
panel-edge-moved
  6
ByLayer
 10
262.03124999999994
 20
-73.6653316951907
 30
0.0
 40
2.499999999999927
 50
39.73710429722956
 51
122.43504807488524
  0
ARC
  5
85
  8
panel-edge-moved
  6
ByLayer
 10
266.7317500000005
 20
-69.84033169519073
 30
0.0
 40
3.5603759565322695
 50
-141.28481723462394
 51
-44.48870880022485
  0
LINE
  5
86
  8
panel-edge-moved
  6
ByLayer
 10
269.2716814856605
 20
-72.33533169519191
 30
0.0
 11
286.7274213218622
 21
-72.33533169518925
 31
0.0
  0
ARC
  5
87
  8
panel-edge-moved
  6
ByLayer
 10
286.727421321862
 20
-71.33533169518925
 30
0.0
 40
1.0000000000000069
 50
-89.99999999998697
 51
0.0
  0
LINE
  5
88
  8
panel-edge-moved
  6
ByLayer
 10
287.727421321862
 20
-71.33533169518925
 30
0.0
 11
287.727421321862
 21
-69.49834466230615
 31
0.0
  0
ARC
  5
89
  8
panel-edge-moved
  6
ByLayer
 10
101.86542132186189
 20
-49.71334466230174
 30
0.0
 40
0.9999999999999858
 50
89.99999999999919
 51
-179.99999999999918
  0
LINE
  5
8A
  8
panel-edge-moved
  6
ByLayer
 10
100.8654213218619
 20
-49.71334466230176
 30
0.0
 11
100.8654213218619
 21
-50.89834466230094
 31
0.0
  0
ARC
  5
8B
  8
panel-edge-moved
  6
ByLayer
 10
101.8654213218619
 20
-50.89834466230094
 30
0.0
 40
1.0
 50
180.0
 51
-90.0
  0
LINE
  5
8C
  8
panel-edge-moved
  6
ByLayer
 10
101.8654213218619
 20
-51.89834466230094
 30
0.0
 11
238.8096685623641
 21
-51.89834466230003
 31
0.0
  0
ARC
  5
8D
  8
panel-edge-moved
  6
ByLayer
 10
238.8096685623646
 20
-46.898344662300026
 30
0.0
 40
5.000000000000006
 50
-90.00000000000587
 51
-57.351921208876995
  0
ARC
  5
8E
  8
panel-edge-moved
  6
ByLayer
 10
242.8557500000002
 20
-53.213344662301765
 30
0.0
 40
2.500000000000065
 50
57.35192120887125
 51
122.64807879113401
  0
ARC
  5
8F
  8
panel-edge-moved
  6
ByLayer
 10
246.9018314376364
 20
-46.898344662300275
 30
0.0
 40
5.0000000000001386
 50
-122.64807879113292
 51
-90.00000000000455
  0
LINE
  5
90
  8
panel-edge-moved
  6
ByLayer
 10
246.901831437636
 20
-51.89834466230042
 30
0.0
 11
262.771176197075
 21
-51.89834466230161
 31
0.0
  0
ARC
  5
91
  8
panel-edge-moved
  6
ByLayer
 10
262.77117619707286
 20
-46.89834466230238
 30
0.0
 40
4.999999999999229
 50
-89.99999999997524
 51
-57.56495192511035
  0
ARC
  5
92
  8
panel-edge-moved
  6
ByLayer
 10
266.79374999999953
 20
-53.22834466230182
 30
0.0
 40
2.4999999999997486
 50
57.564951925109064
 51
122.43504807485219
  0
ARC
  5
93
  8
panel-edge-moved
  6
ByLayer
 10
270.81632380292734
 20
-46.89834466230221
 30
0.0
 40
5.0
 50
-122.43504807488023
 51
-89.99999999999804
  0
LINE
  5
94
  8
panel-edge-moved
  6
ByLayer
 10
270.8163238029275
 20
-51.89834466230221
 30
0.0
 11
286.727421321862
 21
-51.8983446623021
 31
0.0
  0
ARC
  5
95
  8
panel-edge-moved
  6
ByLayer
 10
286.727421321862
 20
-50.8983446623021
 30
0.0
 40
1.0
 50
-90.0
 51
0.0
  0
LINE
  5
96
  8
panel-edge-moved
  6
ByLayer
 10
287.727421321862
 20
-50.8983446623021
 30
0.0
 11
287.727421321862
 21
-49.71334466230292
 31
0.0
  0
ARC
  5
97
  8
panel-edge-moved
  6
ByLayer
 10
286.727421321862
 20
-49.71334466230292
 30
0.0
 40
1.0
 50
0.0
 51
90.0
  0
LINE
  5
98
  8
panel-edge-moved
  6
ByLayer
 10
286.727421321862
 20
-48.71334466230292
 30
0.0
 11
101.8654213218619
 21
-48.71334466230176
 31
0.0
  0
LINE
  5
99
  8
panel-edge-moved
  6
ByLayer
 10
82.40870155507531
 20
-92.88533169518959
 30
0.0
 11
96.2774213218619
 21
-92.88533169518959
 31
0.0
  0
ARC
  5
9A
  8
panel-edge-moved
  6
ByLayer
 10
96.2774213218619
 20
-91.88533169518959
 30
0.0
 40
1.0
 50
-90.0
 51
0.0
  0
LINE
  5
9B
  8
panel-edge-moved
  6
ByLayer
 10
97.2774213218619
 20
-91.88533169518959
 30
0.0
 11
97.2774213218619
 21
-89.93533169519017
 31
0.0
  0
ARC
  5
9C
  8
panel-edge-moved
  6
ByLayer
 10
96.2774213218619
 20
-89.93533169519017
 30
0.0
 40
1.0
 50
0.0
 51
90.0
  0
LINE
  5
9D
  8
panel-edge-moved
  6
ByLayer
 10
96.2774213218619
 20
-88.93533169519017
 30
0.0
 11
78.65458244921564
 21
-88.93533169519026
 31
0.0
  0
ARC
  5
9E
  8
panel-edge-moved
  6
ByLayer
 10
76.20000000000019
 20
-91.43033169519074
 30
0.0
 40
3.4999999999998535
 50
45.467858376273085
 51
134.53214162373237
  0
LINE
  5
9F
  8
panel-edge-moved
  6
ByLayer
 10
73.7454175507845
 20
-88.93533169519048
 30
0.0
 11
30.05295155507535
 21
-88.93533169519073
 31
0.0
  0
ARC
  5
A0
  8
panel-edge-moved
  6
ByLayer
 10
30.052951555075694
 20
-93.93533169519057
 30
0.0
 40
4.999999999999841
 50
90.00000000000394
 51
140.90375103076286
  0
ARC
  5
A1
  8
panel-edge-moved
  6
ByLayer
 10
23.84425000000007
 20
-88.89033169519078
 30
0.0
 40
2.9999999999999276
 50
-140.9037510307609
 51
-39.09624896924151
  0
ARC
  5
A2
  8
panel-edge-moved
  6
ByLayer
 10
17.635548444924396
 20
-93.93533169519078
 30
0.0
 40
5.000000000000018
 50
39.09624896924012
 51
89.99999999999972
  0
LINE
  5
A3
  8
panel-edge-moved
  6
ByLayer
 10
17.63554844492442
 20
-88.93533169519077
 30
0.0
 11
6.176951555075474
 21
-88.93533169519077
 31
0.0
  0
ARC
  5
A4
  8
panel-edge-moved
  6
ByLayer
 10
6.176951555075674
 20
-93.9353316951907
 30
0.0
 40
4.9999999999999325
 50
90.00000000000229
 51
140.90375103076158
  0
ARC
  5
A5
  8
panel-edge-moved
  6
ByLayer
 10
-0.0317500000001214
 20
-88.89033169519072
 30
0.0
 40
3.0000000000000915
 50
-140.90375103075962
 51
-39.096248969240044
  0
ARC
  5
A6
  8
panel-edge-moved
  6
ByLayer
 10
-6.24045155507595
 20
-93.93533169519077
 30
0.0
 40
4.999999999999999
 50
39.0962489692386
 51
89.99999999999987
  0
LINE
  5
A7
  8
panel-edge-moved
  6
ByLayer
 10
-6.240451555075938
 20
-88.93533169519077
 30
0.0
 11
-21.525
 21
-88.93533169519075
 31
0.0
  0
LINE
  5
A8
  8
panel-edge-moved
  6
ByLayer
 10
-21.525
 20
-88.93533169519075
 30
0.0
 11
-21.52499999999991
 21
-83.42933220198213
 31
0.0
  0
ARC
  5
A9
  8
panel-edge-moved
  6
ByLayer
 10
-22.524999999990463
 20
-83.42933194858645
 30
0.0
 40
0.9999999999905872
 50
-1.4518503188773677e-05
 51
179.999985481496
  0
LINE
  5
AA
  8
panel-edge-moved
  6
ByLayer
 10
-23.52499999998102
 20
-83.42933169519075
 30
0.0
 11
-23.52499999998921
 21
-98.39134901713489
 31
0.0
  0
ARC
  5
AB
  8
panel-edge-moved
  6
ByLayer
 10
-22.52499999999793
 20
-98.39134440459097
 30
0.0
 40
1.0000000000019176
 50
-179.99973572070067
 51
0.00026427929934175117
  0
LINE
  5
AC
  8
panel-edge-moved
  6
ByLayer
 10
-21.52500000000665
 20
-98.39133979204705
 30
0.0
 11
-21.52500000000048
 21
-92.88533169518959
 31
0.0
  0
LINE
  5
AD
  8
panel-edge-moved
  6
ByLayer
 10
-21.52500000000048
 20
-92.88533169518959
 30
0.0
 11
-2.486332449216907
 21
-92.88533169518934
 31
0.0
  0
ARC
  5
AE
  8
panel-edge-moved
  6
ByLayer
 10
-0.03175000000047756
 20
-90.3903316951896
 30
0.0
 40
3.4999999999999996
 50
-134.532141623747
 51
-45.46785837625337
  0
LINE
  5
AF
  8
panel-edge-moved
  6
ByLayer
 10
2.422832449215936
 20
-92.88533169518935
 30
0.0
 11
21.38966755078319
 21
-92.88533169518944
 31
0.0
  0
ARC
  5
B0
  8
panel-edge-moved
  6
ByLayer
 10
23.844249999999306
 20
-90.3903316951896
 30
0.0
 40
3.4999999999998517
 50
-134.53214162374218
 51
-45.46785837626177
  0
LINE
  5
B1
  8
panel-edge-moved
  6
ByLayer
 10
26.29883244921525
 20
-92.8853316951896
 30
0.0
 11
69.99129844492411
 21
-92.88533169518962
 31
0.0
  0
ARC
  5
B2
  8
panel-edge-moved
  6
ByLayer
 10
69.99129844492381
 20
-87.88533169518972
 30
0.0
 40
4.999999999999899
 50
-89.99999999999658
 51
-39.09624896923787
  0
ARC
  5
B3
  8
panel-edge-moved
  6
ByLayer
 10
76.19999999999956
 20
-92.93033169518961
 30
0.0
 40
3.000000000000033
 50
39.09624896924026
 51
140.90375103075974
  0
ARC
  5
B4
  8
panel-edge-moved
  6
ByLayer
 10
82.40870155507535
 20
-87.88533169518958
 30
0.0
 40
5.000000000000018
 50
-140.90375103076116
 51
-90.00000000000048
  0
ARC
  5
B5
  8
panel-edge-moved
  6
ByLayer
 10
96.2774213218619
 20
-69.4983446623018
 30
0.0
 40
1.0
 50
0.0
 51
90.0
  0
LINE
  5
B6
  8
panel-edge-moved
  6
ByLayer
 10
96.2774213218619
 20
-68.4983446623018
 30
0.0
 11
-21.525
 21
-68.4983446623018
 31
0.0
  0
LINE
  5
B7
  8
panel-edge-moved
  6
ByLayer
 10
-21.525
 20
-68.4983446623018
 30
0.0
 11
-21.5250000000012
 21
-62.99233975162423
 31
0.0
  0
ARC
  5
B8
  8
panel-edge-moved
  6
ByLayer
 10
-22.524999999996353
 20
-62.99234023735788
 30
0.0
 40
0.9999999999952738
 50
2.783048814898624e-05
 51
-179.99997216951144
  0
LINE
  5
B9
  8
panel-edge-moved
  6
ByLayer
 10
-23.52499999999151
 20
-62.99234072309154
 30
0.0
 11
-23.52499999997586
 21
-77.84133279254735
 31
0.0
  0
ARC
  5
BA
  8
panel-edge-moved
  6
ByLayer
 10
-22.52500000000225
 20
-77.84132495278342
 30
0.0
 40
1.0000000000043414
 50
-179.99955081461476
 51
0.0004491853852420509
  0
LINE
  5
BB
  8
panel-edge-moved
  6
ByLayer
 10
-21.52500000002864
 20
-77.8413171130195
 30
0.0
 11
-21.525
 21
-72.33533169519075
 31
0.0
  0
LINE
  5
BC
  8
panel-edge-moved
  6
ByLayer
 10
-21.525
 20
-72.33533169519075
 30
0.0
 11
-4.077831437637937
 21
-72.33533169519067
 31
0.0
  0
ARC
  5
BD
  8
panel-edge-moved
  6
ByLayer
 10
-4.077831437637988
 20
-67.33533169519067
 30
0.0
 40
5.000000000000003
 50
-89.99999999999942
 51
-57.351921208851095
  0
ARC
  5
BE
  8
panel-edge-moved
  6
ByLayer
 10
-0.03174999999993733
 20
-73.65033169519077
 30
0.0
 40
2.500000000000027
 50
57.35192120885127
 51
122.64807879114991
  0
ARC
  5
BF
  8
panel-edge-moved
  6
ByLayer
 10
4.014331437638161
 20
-67.3353316951907
 30
0.0
 40
5.000000000000004
 50
-122.64807879115014
 51
-89.99999999999993
  0
LINE
  5
C0
  8
panel-edge-moved
  6
ByLayer
 10
4.014331437638168
 20
-72.3353316951907
 30
0.0
 11
19.88367619707253
 21
-72.33533169519067
 31
0.0
  0
ARC
  5
C1
  8
panel-edge-moved
  6
ByLayer
 10
19.88367619707248
 20
-67.33533169519067
 30
0.0
 40
5.000000000000006
 50
-89.99999999999943
 51
-57.56495192511985
  0
ARC
  5
C2
  8
panel-edge-moved
  6
ByLayer
 10
23.906250000000057
 20
-73.66533169519077
 30
0.0
 40
2.5000000000000338
 50
57.564951925118095
 51
122.43504807488067
  0
ARC
  5
C3
  8
panel-edge-moved
  6
ByLayer
 10
27.92882380292786
 20
-67.33533169519082
 30
0.0
 40
4.999999999999997
 50
-122.43504807488257
 51
-89.99999999999943
  0
LINE
  5
C4
  8
panel-edge-moved
  6
ByLayer
 10
27.92882380292791
 20
-72.33533169519082
 30
0.0
 11
96.27742132186191
 21
-72.33533169519032
 31
0.0
  0
ARC
  5
C5
  8
panel-edge-moved
  6
ByLayer
 10
96.27742132186191
 20
-71.33533169519033
 30
0.0
 40
0.9999999999999857
 50
-90.0
 51
8.142219984546719e-13
  0
LINE
  5
C6
  8
panel-edge-moved
  6
ByLayer
 10
97.2774213218619
 20
-71.33533169519032
 30
0.0
 11
97.2774213218619
 21
-69.4983446623018
 31
0.0
  0
LINE
  5
C7
  8
panel-edge-moved
  6
ByLayer
 10
100.8654213218619
 20
-91.88533169518811
 30
0.0
 11
100.8654213218619
 21
-89.93533169519014
 31
0.0
  0
ARC
  5
C8
  8
panel-edge-moved
  6
ByLayer
 10
101.8654213218619
 20
-89.93533169519014
 30
0.0
 40
1.0
 50
90.0
 51
180.0
  0
LINE
  5
C9
  8
panel-edge-moved
  6
ByLayer
 10
101.8654213218619
 20
-88.93533169519014
 30
0.0
 11
188.0454175507849
 21
-88.93533169518975
 31
0.0
  0
ARC
  5
CA
  8
panel-edge-moved
  6
ByLayer
 10
190.5
 20
-91.43033169519079
 30
0.0
 40
3.500000000000006
 50
45.46785837628343
 51
134.5321416237166
  0
LINE
  5
CB
  8
panel-edge-moved
  6
ByLayer
 10
192.9545824492151
 20
-88.93533169518975
 30
0.0
 11
231.8845484449234
 21
-88.93533169519068
 31
0.0
  0
ARC
  5
CC
  8
panel-edge-moved
  6
ByLayer
 10
231.88454844492335
 20
-93.93533169519078
 30
0.0
 40
5.000000000000106
 50
39.09624896923547
 51
89.99999999999935
  0
ARC
  5
CD
  8
panel-edge-moved
  6
ByLayer
 10
238.09324999999964
 20
-88.89033169519078
 30
0.0
 40
3.000000000000303
 50
-140.90375103076056
 51
-39.0962489692261
  0
ARC
  5
CE
  8
panel-edge-moved
  6
ByLayer
 10
244.30195155507613
 20
-93.93533169519145
 30
0.0
 40
5.0000000000006946
 50
89.99999999998306
 51
140.90375103075203
  0
LINE
  5
CF
  8
panel-edge-moved
  6
ByLayer
 10
244.3019515550776
 20
-88.93533169519075
 30
0.0
 11
255.7605484449234
 21
-88.9353316951908
 31
0.0
  0
ARC
  5
D0
  8
panel-edge-moved
  6
ByLayer
 10
255.76054844492353
 20
-93.9353316951908
 30
0.0
 40
5.000000000000003
 50
39.096248969237536
 51
90.00000000000163
  0
ARC
  5
D1
  8
panel-edge-moved
  6
ByLayer
 10
261.9692499999997
 20
-88.89033169519067
 30
0.0
 40
3.0000000000003912
 50
-140.90375103076073
 51
-39.096248969241906
  0
ARC
  5
D2
  8
panel-edge-moved
  6
ByLayer
 10
268.1779515550756
 20
-93.93533169519024
 30
0.0
 40
4.999999999999465
 50
90.00000000001238
 51
140.90375103076693
  0
LINE
  5
D3
  8
panel-edge-moved
  6
ByLayer
 10
268.1779515550745
 20
-88.93533169519078
 30
0.0
 11
286.727421321862
 21
-88.93533169519074
 31
0.0
  0
ARC
  5
D4
  8
panel-edge-moved
  6
ByLayer
 10
286.727421321862
 20
-89.93533169519074
 30
0.0
 40
1.0
 50
0.0
 51
90.0
  0
LINE
  5
D5
  8
panel-edge-moved
  6
ByLayer
 10
287.727421321862
 20
-89.93533169519074
 30
0.0
 11
287.7274213218619
 21
-91.88533169519049
 31
0.0
  0
ARC
  5
D6
  8
panel-edge-moved
  6
ByLayer
 10
286.7274213218619
 20
-91.8853316951905
 30
0.0
 40
1.0
 50
-90.0
 51
8.142219984546603e-13
  0
LINE
  5
D7
  8
panel-edge-moved
  6
ByLayer
 10
286.7274213218619
 20
-92.8853316951905
 30
0.0
 11
264.4238324492163
 21
-92.88533169518895
 31
0.0
  0
ARC
  5
D8
  8
panel-edge-moved
  6
ByLayer
 10
261.96924999999953
 20
-90.39033169518954
 30
0.0
 40
3.500000000000026
 50
-134.5321416237559
 51
-45.4678583762451
  0
LINE
  5
D9
  8
panel-edge-moved
  6
ByLayer
 10
259.5146675507827
 20
-92.88533169518892
 30
0.0
 11
240.5478324492197
 21
-92.88533169518955
 31
0.0
  0
ARC
  5
DA
  8
panel-edge-moved
  6
ByLayer
 10
238.0932500000015
 20
-90.39033169518986
 30
0.0
 40
3.5000000000012146
 50
-134.53214162382054
 51
-45.467858376231774
  0
LINE
  5
DB
  8
panel-edge-moved
  6
ByLayer
 10
235.638667550781
 20
-92.8853316951873
 30
0.0
 11
196.7087015550748
 21
-92.88533169518954
 31
0.0
  0
ARC
  5
DC
  8
panel-edge-moved
  6
ByLayer
 10
196.7087015550748
 20
-87.88533169518955
 30
0.0
 40
4.99999999999999
 50
-140.90375103075843
 51
-90.0
  0
ARC
  5
DD
  8
panel-edge-moved
  6
ByLayer
 10
190.49999999999935
 20
-92.93033169518957
 30
0.0
 40
2.999999999999796
 50
39.096248969239404
 51
140.90375103075712
  0
ARC
  5
DE
  8
panel-edge-moved
  6
ByLayer
 10
184.29129844492385
 20
-87.88533169518956
 30
0.0
 40
5.0000000000000036
 50
-89.99999999999837
 51
-39.09624896923916
  0
LINE
  5
DF
  8
panel-edge-moved
  6
ByLayer
 10
184.291298444924
 20
-92.88533169518956
 30
0.0
 11
101.8654213218619
 21
-92.88533169518811
 31
0.0
  0
ARC
  5
E0
  8
panel-edge-moved
  6
ByLayer
 10
101.8654213218619
 20
-91.88533169518811
 30
0.0
 40
1.0
 50
180.0
 51
-90.0
  0
LINE
  5
E1
  8
panel-edge-moved
  6
ByLayer
 10
97.2774213218619
 20
-31.11334466230171
 30
0.0
 11
97.2774213218619
 21
-29.0849999999994
 31
0.0
  0
ARC
  5
E2
  8
panel-edge-moved
  6
ByLayer
 10
96.2774213218619
 20
-29.0849999999994
 30
0.0
 40
1.0
 50
0.0
 51
90.0
  0
LINE
  5
E3
  8
panel-edge-moved
  6
ByLayer
 10
96.2774213218619
 20
-28.0849999999994
 30
0.0
 11
-21.525
 21
-28.0849999999994
 31
0.0
  0
LINE
  5
E4
  8
panel-edge-moved
  6
ByLayer
 10
-21.525
 20
-28.0849999999994
 30
0.0
 11
-21.5250000000078
 21
-22.57899856478133
 31
0.0
  0
ARC
  5
E5
  8
panel-edge-moved
  6
ByLayer
 10
-22.52499999999868
 20
-22.578993362810937
 30
0.0
 40
1.00000000000441
 50
-0.0002980509486263211
 51
179.9998568754489
  0
LINE
  5
E6
  8
panel-edge-moved
  6
ByLayer
 10
-23.52499999999997
 20
-22.57899086481628
 30
0.0
 11
-23.52499999999944
 21
-37.61934257838752
 31
0.0
  0
ARC
  5
E7
  8
panel-edge-moved
  6
ByLayer
 10
-22.52500000000215
 20
-37.61933930818895
 30
0.0
 40
1.0000000000026374
 50
-179.99981263142382
 51
5.64764155579096e-05
  0
LINE
  5
E8
  8
panel-edge-moved
  6
ByLayer
 10
-21.525
 20
-37.61933832248955
 30
0.0
 11
-21.525
 21
-32.11334466230181
 31
0.0
  0
LINE
  5
E9
  8
panel-edge-moved
  6
ByLayer
 10
-21.525
 20
-32.11334466230181
 30
0.0
 11
96.27742132186188
 21
-32.11334466230171
 31
0.0
  0
ARC
  5
EA
  8
panel-edge-moved
  6
ByLayer
 10
96.27742132186188
 20
-31.113344662301692
 30
0.0
 40
1.0000000000000144
 50
-90.0
 51
-1.0177774980683108e-12
  0
LINE
  5
EB
  8
panel-edge-moved
  6
ByLayer
 10
96.2774213218619
 20
-48.71334466230205
 30
0.0
 11
-21.525
 21
-48.71334466230181
 31
0.0
  0
LINE
  5
EC
  8
panel-edge-moved
  6
ByLayer
 10
-21.525
 20
-48.71334466230181
 30
0.0
 11
-21.52499999999936
 21
-43.20733212045342
 31
0.0
  0
ARC
  5
ED
  8
panel-edge-moved
  6
ByLayer
 10
-22.52499999999793
 20
-43.20733635080337
 30
0.0
 40
1.0000000000075189
 50
0.00024238119766056273
 51
-179.9996605736153
  0
LINE
  5
EE
  8
panel-edge-moved
  6
ByLayer
 10
-23.5249999999879
 20
-43.20734227491135
 30
0.0
 11
-23.52499999999146
 21
-57.40435009464914
 31
0.0
  0
ARC
  5
EF
  8
panel-edge-moved
  6
ByLayer
 10
-22.524999999995728
 20
-57.404350699920585
 30
0.0
 40
0.9999999999959146
 50
179.9999653205007
 51
-3.467949887472645e-05
  0
LINE
  5
F0
  8
panel-edge-moved
  6
ByLayer
 10
-21.525
 20
-57.40435130519202
 30
0.0
 11
-21.525
 21
-51.8983446623018
 31
0.0
  0
LINE
  5
F1
  8
panel-edge-moved
  6
ByLayer
 10
-21.525
 20
-51.8983446623018
 30
0.0
 11
96.27742132186188
 21
-51.89834466230099
 31
0.0
  0
ARC
  5
F2
  8
panel-edge-moved
  6
ByLayer
 10
96.2774213218619
 20
-50.89834466230099
 30
0.0
 40
1.0
 50
-90.00000000000081
 51
0.0
  0
LINE
  5
F3
  8
panel-edge-moved
  6
ByLayer
 10
97.2774213218619
 20
-50.89834466230099
 30
0.0
 11
97.2774213218619
 21
-49.71334466230205
 31
0.0
  0
ARC
  5
F4
  8
panel-edge-moved
  6
ByLayer
 10
96.2774213218619
 20
-49.71334466230205
 30
0.0
 40
1.0
 50
0.0
 51
90.0
  0
LINE
  5
F5
  8
panel-edge-moved
  6
ByLayer
 10
291.3154213218619
 20
-29.08500000000028
 30
0.0
 11
291.3154213218619
 21
-31.11328809967487
 31
0.0
  0
ARC
  5
F6
  8
panel-edge-moved
  6
ByLayer
 10
292.31542132186183
 20
-31.113288099674925
 30
0.0
 40
0.9999999999999424
 50
179.99999999999696
 51
-90.00005581852011
  0
LINE
  5
F7
  8
panel-edge-moved
  6
ByLayer
 10
292.3154203476449
 20
-32.11328809967439
 30
0.0
 11
350.3750000000001
 21
-32.11334466230181
 31
0.0
  0
LINE
  5
F8
  8
panel-edge-moved
  6
ByLayer
 10
350.3750000000001
 20
-32.11334466230181
 30
0.0
 11
350.3749999999986
 21
-37.61934257838751
 31
0.0
  0
ARC
  5
F9
  8
panel-edge-moved
  6
ByLayer
 10
351.3749999999981
 20
-37.619340294014954
 30
0.0
 40
1.0000000000021287
 50
-179.9998691150937
 51
-7.253496673218086e-09
  0
LINE
  5
FA
  8
panel-edge-moved
  6
ByLayer
 10
352.3750000000002
 20
-37.61934029414155
 30
0.0
 11
352.3749999999903
 21
-22.57899856478133
 31
0.0
  0
ARC
  5
FB
  8
panel-edge-moved
  6
ByLayer
 10
351.3749999999957
 20
-22.578997553706042
 30
0.0
 40
0.999999999995117
 50
-5.793034674365661e-05
 51
-179.99990300394924
  0
LINE
  5
FC
  8
panel-edge-moved
  6
ByLayer
 10
350.375000000002
 20
-22.57899924660649
 30
0.0
 11
350.3750000000001
 21
-28.0849999999994
 31
0.0
  0
LINE
  5
FD
  8
panel-edge-moved
  6
ByLayer
 10
350.3750000000001
 20
-28.0849999999994
 30
0.0
 11
292.3154213218619
 21
-28.08500000000028
 31
0.0
  0
ARC
  5
FE
  8
panel-edge-moved
  6
ByLayer
 10
292.3154213218619
 20
-29.08500000000028
 30
0.0
 40
1.0
 50
90.0
 51
180.0
  0
ARC
  5
FF
  8
panel-edge-moved
  6
ByLayer
 10
292.3154213218619
 20
-49.71334466230306
 30
0.0
 40
1.0
 50
90.0
 51
180.0
  0
LINE
  5
100
  8
panel-edge-moved
  6
ByLayer
 10
291.3154213218619
 20
-49.71334466230306
 30
0.0
 11
291.3154213218619
 21
-50.89834466230214
 31
0.0
  0
ARC
  5
101
  8
panel-edge-moved
  6
ByLayer
 10
292.3154213218619
 20
-50.89834466230214
 30
0.0
 40
1.0
 50
180.0
 51
-90.0
  0
LINE
  5
102
  8
panel-edge-moved
  6
ByLayer
 10
292.3154213218619
 20
-51.89834466230214
 30
0.0
 11
350.3750000000001
 21
-51.8983446623018
 31
0.0
  0
LINE
  5
103
  8
panel-edge-moved
  6
ByLayer
 10
350.3750000000001
 20
-51.8983446623018
 30
0.0
 11
350.3750000000068
 21
-57.40435009464914
 31
0.0
  0
ARC
  5
104
  8
panel-edge-moved
  6
ByLayer
 10
351.3750000000002
 20
-57.404354214769114
 30
0.0
 40
1.0000000000018654
 50
179.99976393451433
 51
-0.00023606548524649347
  0
LINE
  5
105
  8
panel-edge-moved
  6
ByLayer
 10
352.3749999999936
 20
-57.40435833488908
 30
0.0
 11
352.3749999999987
 21
-43.20733212045342
 31
0.0
  0
ARC
  5
106
  8
panel-edge-moved
  6
ByLayer
 10
351.3749999999951
 20
-43.20733635080337
 30
0.0
 40
1.000000000012537
 50
0.0002423811976593486
 51
-179.9996605736153
  0
LINE
  5
107
  8
panel-edge-moved
  6
ByLayer
 10
350.3750000000001
 20
-43.20734227491135
 30
0.0
 11
350.3750000000001
 21
-48.71334466230181
 31
0.0
  0
LINE
  5
108
  8
panel-edge-moved
  6
ByLayer
 10
350.3750000000001
 20
-48.71334466230181
 30
0.0
 11
292.3154213218619
 21
-48.71334466230306
 31
0.0
  0
LINE
  5
109
  8
panel-edge-moved
  6
ByLayer
 10
291.3154213218619
 20
-69.49834466230362
 30
0.0
 11
291.3154213218619
 21
-71.33533169519472
 31
0.0
  0
ARC
  5
10A
  8
panel-edge-moved
  6
ByLayer
 10
292.31542132186183
 20
-71.33533169519478
 30
0.0
 40
0.9999999999999433
 50
179.99999999999673
 51
-89.99999999999675
  0
LINE
  5
10B
  8
panel-edge-moved
  6
ByLayer
 10
292.3154213218619
 20
-72.33533169519472
 30
0.0
 11
350.3750000000001
 21
-72.33533169519075
 31
0.0
  0
LINE
  5
10C
  8
panel-edge-moved
  6
ByLayer
 10
350.3750000000001
 20
-72.33533169519075
 30
0.0
 11
350.3750000000223
 21
-77.84133279254735
 31
0.0
  0
ARC
  5
10D
  8
panel-edge-moved
  6
ByLayer
 10
351.3750000000102
 20
-77.84132387086031
 30
0.0
 40
1.000000000027719
 50
-179.99948882498646
 51
0.000511175013561107
  0
LINE
  5
10E
  8
panel-edge-moved
  6
ByLayer
 10
352.3749999999981
 20
-77.84131494917327
 30
0.0
 11
352.3749999999969
 21
-62.99233975162422
 31
0.0
  0
ARC
  5
10F
  8
panel-edge-moved
  6
ByLayer
 10
351.3750000000002
 20
-62.992336537232674
 30
0.0
 40
1.0000000000018123
 50
-0.0001841710693800618
 51
179.99981582893022
  0
LINE
  5
110
  8
panel-edge-moved
  6
ByLayer
 10
350.3750000000036
 20
-62.99233332284112
 30
0.0
 11
350.3750000000001
 21
-68.4983446623018
 31
0.0
  0
LINE
  5
111
  8
panel-edge-moved
  6
ByLayer
 10
350.3750000000001
 20
-68.4983446623018
 30
0.0
 11
292.3154213218619
 21
-68.49834466230362
 31
0.0
  0
ARC
  5
112
  8
panel-edge-moved
  6
ByLayer
 10
292.3154213218619
 20
-69.49834466230362
 30
0.0
 40
1.0
 50
90.0
 51
180.0
  0
LINE
  5
113
  8
panel-edge-moved
  6
ByLayer
 10
291.3154213218619
 20
-89.93533169519121
 30
0.0
 11
291.3154213218619
 21
-91.88533169519063
 31
0.0
  0
ARC
  5
114
  8
panel-edge-moved
  6
ByLayer
 10
292.3154213218619
 20
-91.88533169519062
 30
0.0
 40
1.0
 50
-179.99999999999918
 51
-90.0
  0
LINE
  5
115
  8
panel-edge-moved
  6
ByLayer
 10
292.3154213218619
 20
-92.88533169519062
 30
0.0
 11
350.3749999999997
 21
-92.88533169518959
 31
0.0
  0
LINE
  5
116
  8
panel-edge-moved
  6
ByLayer
 10
350.3749999999997
 20
-92.88533169518959
 30
0.0
 11
350.3750000000089
 21
-98.39134901713489
 31
0.0
  0
ARC
  5
117
  8
panel-edge-moved
  6
ByLayer
 10
351.37500000000364
 20
-98.39134339757746
 30
0.0
 40
1.0000000000105316
 50
-179.99967802307668
 51
0.00032197692413360354
  0
LINE
  5
118
  8
panel-edge-moved
  6
ByLayer
 10
352.3749999999984
 20
-98.39133777802002
 30
0.0
 11
352.3750000000003
 21
-83.42933220198213
 31
0.0
  0
ARC
  5
119
  8
panel-edge-moved
  6
ByLayer
 10
351.3750000000003
 20
-83.42933194858642
 30
0.0
 40
1.0000000000000604
 50
-1.4518504817080525e-05
 51
179.99998548149517
  0
LINE
  5
11A
  8
panel-edge-moved
  6
ByLayer
 10
350.3750000000002
 20
-83.42933169519071
 30
0.0
 11
350.3750000000001
 21
-88.93533169519075
 31
0.0
  0
LINE
  5
11B
  8
panel-edge-moved
  6
ByLayer
 10
350.3750000000001
 20
-88.93533169519075
 30
0.0
 11
292.3154213218619
 21
-88.93533169519121
 31
0.0
  0
ARC
  5
11C
  8
panel-edge-moved
  6
ByLayer
 10
292.3154213218619
 20
-89.93533169519121
 30
0.0
 40
1.0
 50
90.0
 51
180.0
  0
ARC
  5
11D
  8
panel-edge-moved
  6
ByLayer
 10
231.16784264372367
 20
32.925
 30
0.0
 40
2.499999999999972
 50
90.00000000000196
 51
-179.99999999999935
  0
LINE
  5
11E
  8
panel-edge-moved
  6
ByLayer
 10
228.6678426437237
 20
32.92499999999997
 30
0.0
 11
228.6678426437237
 21
26.31899999999998
 31
0.0
  0
ARC
  5
11F
  8
panel-edge-moved
  6
ByLayer
 10
227.66784264372004
 20
26.319000000057162
 30
0.0
 40
1.0000000000036786
 50
-179.99978021334962
 51
-3.2762257662699274e-09
  0
LINE
  5
120
  8
panel-edge-moved
  6
ByLayer
 10
226.6678426437237
 20
26.31899616405646
 30
0.0
 11
226.6678426437237
 21
32.92499999999997
 31
0.0
  0
ARC
  5
121
  8
panel-edge-moved
  6
ByLayer
 10
224.1678426437237
 20
32.92499999999997
 30
0.0
 40
2.5
 50
0.0
 51
90.0
  0
LINE
  5
122
  8
panel-edge-moved
  6
ByLayer
 10
224.1678426437237
 20
35.42499999999997
 30
0.0
 11
-26.02500000000001
 21
35.42499999999997
 31
0.0
  0
ARC
  5
123
  8
panel-edge-moved
  6
ByLayer
 10
-26.02499999999999
 20
32.92499999999997
 30
0.0
 40
2.5
 50
90.00000000000041
 51
180.0
  0
LINE
  5
124
  8
panel-edge-moved
  6
ByLayer
 10
-28.52499999999999
 20
32.92499999999997
 30
0.0
 11
-28.52499999999999
 21
-106.9853316951896
 31
0.0
  0
ARC
  5
125
  8
panel-edge-moved
  6
ByLayer
 10
-26.025000000000006
 20
-106.98533169518961
 30
0.0
 40
2.499999999999986
 50
179.99999999999966
 51
-89.99999999999967
  0
LINE
  5
126
  8
panel-edge-moved
  6
ByLayer
 10
-26.02499999999999
 20
-109.4853316951896
 30
0.0
 11
-23.525
 21
-109.4853316951896
 31
0.0
  0
LINE
  5
127
  8
panel-edge-moved
  6
ByLayer
 10
-23.525
 20
-109.4853316951896
 30
0.0
 11
-23.52499999999537
 21
-103.9793366038502
 31
0.0
  0
ARC
  5
128
  8
panel-edge-moved
  6
ByLayer
 10
-22.52499999999888
 20
-103.9793360894608
 30
0.0
 40
0.9999999999966221
 50
2.9472341567956287e-05
 51
-179.99997052765843
  0
LINE
  5
129
  8
panel-edge-moved
  6
ByLayer
 10
-21.52500000000239
 20
-103.9793355750714
 30
0.0
 11
-21.52500000000048
 21
-106.4853316951896
 31
0.0
  0
ARC
  5
12A
  8
panel-edge-moved
  6
ByLayer
 10
-18.525000000000485
 20
-106.4853316951896
 30
0.0
 40
2.999999999999997
 50
180.0
 51
-90.00000000000067
  0
LINE
  5
12B
  8
panel-edge-moved
  6
ByLayer
 10
-18.52500000000052
 20
-109.4853316951896
 30
0.0
 11
72.15391856236148
 21
-109.4853316951895
 31
0.0
  0
ARC
  5
12C
  8
panel-edge-moved
  6
ByLayer
 10
72.15391856236148
 20
-114.48533169518947
 30
0.0
 40
4.999999999999971
 50
57.351921208849824
 51
90.0
  0
ARC
  5
12D
  8
panel-edge-moved
  6
ByLayer
 10
76.19999999999958
 20
-108.17033169518956
 30
0.0
 40
2.4999999999999223
 50
-122.64807879115047
 51
-57.35192120885422
  0
ARC
  5
12E
  8
panel-edge-moved
  6
ByLayer
 10
80.24608143763746
 20
-114.48533169518937
 30
0.0
 40
4.999999999999766
 50
90.00000000000342
 51
122.64807879115111
  0
LINE
  5
12F
  8
panel-edge-moved
  6
ByLayer
 10
80.24608143763716
 20
-109.4853316951896
 30
0.0
 11
186.4539185623641
 21
-109.4853316951907
 31
0.0
  0
ARC
  5
130
  8
panel-edge-moved
  6
ByLayer
 10
186.45391856236412
 20
-114.48533169519064
 30
0.0
 40
4.999999999999946
 50
57.35192120887263
 51
90.00000000000033
  0
ARC
  5
131
  8
panel-edge-moved
  6
ByLayer
 10
190.50000000000003
 20
-108.17033169518953
 30
0.0
 40
2.4999999999997797
 50
-122.64807879113913
 51
-57.35192120888636
  0
ARC
  5
132
  8
panel-edge-moved
  6
ByLayer
 10
194.54608143763585
 20
-114.4853316951904
 30
0.0
 40
4.9999999999996945
 50
90.00000000001661
 51
122.64807879114078
  0
LINE
  5
133
  8
panel-edge-moved
  6
ByLayer
 10
194.5460814376344
 20
-109.4853316951907
 30
0.0
 11
347.3749999999997
 21
-109.4853316951896
 31
0.0
  0
ARC
  5
134
  8
panel-edge-moved
  6
ByLayer
 10
347.3749999999997
 20
-106.4853316951896
 30
0.0
 40
2.999999999999999
 50
-90.0
 51
0.0
  0
LINE
  5
135
  8
panel-edge-moved
  6
ByLayer
 10
350.3749999999997
 20
-106.4853316951896
 30
0.0
 11
350.3750000000027
 21
-103.9793366038502
 31
0.0
  0
ARC
  5
136
  8
panel-edge-moved
  6
ByLayer
 10
351.3750000000002
 20
-103.97933885567059
 30
0.0
 40
1.0000000000000626
 50
-0.00012901980541706151
 51
179.9998709801954
  0
LINE
  5
137
  8
panel-edge-moved
  6
ByLayer
 10
352.3749999999977
 20
-103.979341107491
 30
0.0
 11
352.3750000000002
 21
-109.4853316951896
 31
0.0
  0
LINE
  5
138
  8
panel-edge-moved
  6
ByLayer
 10
352.3750000000002
 20
-109.4853316951896
 30
0.0
 11
354.8750000000002
 21
-109.4853316951896
 31
0.0
  0
ARC
  5
139
  8
panel-edge-moved
  6
ByLayer
 10
354.8750000000002
 20
-106.9853316951896
 30
0.0
 40
2.5
 50
-90.0
 51
0.0
  0
LINE
  5
13A
  8
panel-edge-moved
  6
ByLayer
 10
357.3750000000002
 20
-106.9853316951896
 30
0.0
 11
357.3750000000002
 21
32.92499999999997
 31
0.0
  0
ARC
  5
13B
  8
panel-edge-moved
  6
ByLayer
 10
354.8750000000002
 20
32.92499999999997
 30
0.0
 40
2.5
 50
0.0
 51
90.0
  0
LINE
  5
13C
  8
panel-edge-moved
  6
ByLayer
 10
354.8750000000002
 20
35.42499999999997
 30
0.0
 11
352.3750000000002
 21
35.42499999999997
 31
0.0
  0
LINE
  5
13D
  8
panel-edge-moved
  6
ByLayer
 10
352.3750000000002
 20
35.42499999999997
 30
0.0
 11
352.3749999999964
 21
26.31899723697816
 31
0.0
  0
ARC
  5
13E
  8
panel-edge-moved
  6
ByLayer
 10
351.3750000000002
 20
26.31899999996415
 30
0.0
 40
1.0000000000000042
 50
179.99999999794653
 51
-0.00015830743604288648
  0
LINE
  5
13F
  8
panel-edge-moved
  6
ByLayer
 10
350.3750000000002
 20
26.31899999999999
 30
0.0
 11
350.3750000000002
 21
32.92499999999997
 31
0.0
  0
ARC
  5
140
  8
panel-edge-moved
  6
ByLayer
 10
347.8750000000002
 20
32.92499999999997
 30
0.0
 40
2.5
 50
0.0
 51
90.0
  0
LINE
  5
141
  8
panel-edge-moved
  6
ByLayer
 10
347.8750000000002
 20
35.42499999999997
 30
0.0
 11
231.1678426437236
 21
35.42499999999997
 31
0.0
  0
ARC
  5
142
  8
panel-edge-moved
  6
ByLayer
 10
347.8750000000002
 20
14.12500000000001
 30
0.0
 40
2.5
 50
-90.0
 51
0.0
  0
LINE
  5
143
  8
panel-edge-moved
  6
ByLayer
 10
350.3750000000002
 20
14.12500000000001
 30
0.0
 11
350.3750000000002
 21
20.73099999999999
 31
0.0
  0
ARC
  5
144
  8
panel-edge-moved
  6
ByLayer
 10
351.3750000000002
 20
20.73099999999999
 30
0.0
 40
1.0
 50
0.0
 51
180.0
  0
LINE
  5
145
  8
panel-edge-moved
  6
ByLayer
 10
352.3750000000002
 20
20.73099999999999
 30
0.0
 11
352.3750000000002
 21
2.793999493208641
 31
0.0
  0
ARC
  5
146
  8
panel-edge-moved
  6
ByLayer
 10
351.3750000000002
 20
2.7940042765165867
 30
0.0
 40
1.00000000001144
 50
179.99972593664262
 51
-0.00027406335739978377
  0
LINE
  5
147
  8
panel-edge-moved
  6
ByLayer
 10
350.3750000000002
 20
2.794009059824532
 30
0.0
 11
350.3750000000001
 21
5.300000000000001
 31
0.0
  0
ARC
  5
148
  8
panel-edge-moved
  6
ByLayer
 10
347.3750000000001
 20
5.2999999999999865
 30
0.0
 40
2.9999999999999947
 50
2.7140733281822006e-13
 51
89.99999999999783
  0
LINE
  5
149
  8
panel-edge-moved
  6
ByLayer
 10
347.3750000000002
 20
8.299999999999981
 30
0.0
 11
345.0199501014963
 21
8.300000000000011
 31
0.0
  0
ARC
  5
14A
  8
panel-edge-moved
  6
ByLayer
 10
345.0199501014971
 20
6.300000000000489
 30
0.0
 40
1.9999999999995226
 50
90.0000000000228
 51
151.52063592143415
  0
ARC
  5
14B
  8
panel-edge-moved
  6
ByLayer
 10
341.06450000003997
 20
8.445789946585974
 30
0.0
 40
2.4999999999987987
 50
-151.52063592141562
 51
-28.47936407860481
  0
ARC
  5
14C
  8
panel-edge-moved
  6
ByLayer
 10
337.1090498985825
 20
6.299999999999967
 30
0.0
 40
2.000000000000016
 50
28.479364078599875
 51
90.0
  0
LINE
  5
14D
  8
panel-edge-moved
  6
ByLayer
 10
337.1090498985825
 20
8.299999999999983
 30
0.0
 11
292.3154213218619
 21
8.300000000000011
 31
0.0
  0
ARC
  5
14E
  8
panel-edge-moved
  6
ByLayer
 10
292.3154213218619
 20
9.300000000000011
 30
0.0
 40
1.0
 50
180.0
 51
-90.0
  0
LINE
  5
14F
  8
panel-edge-moved
  6
ByLayer
 10
291.3154213218619
 20
9.300000000000011
 30
0.0
 11
291.3154213218619
 21
10.62499999999256
 31
0.0
  0
ARC
  5
150
  8
panel-edge-moved
  6
ByLayer
 10
292.3154213218619
 20
10.62499999999256
 30
0.0
 40
1.0
 50
90.00000000000651
 51
180.0
  0
LINE
  5
151
  8
panel-edge-moved
  6
ByLayer
 10
292.3154213218618
 20
11.62499999999256
 30
0.0
 11
347.8750000000002
 21
11.62500000000001
 31
0.0
  0
LINE
  5
152
  8
panel-edge-moved
  6
ByLayer
 10
287.727421321862
 20
10.62499999999477
 30
0.0
 11
287.727421321862
 21
9.299999994549262
 31
0.0
  0
ARC
  5
153
  8
panel-edge-moved
  6
ByLayer
 10
286.727421324594
 20
9.299999997267964
 30
0.0
 40
0.9999999972679835
 50
-90.00000000038432
 51
-1.5577013406067388e-07
  0
LINE
  5
154
  8
panel-edge-moved
  6
ByLayer
 10
286.7274213245873
 20
8.299999999999981
 30
0.0
 11
282.5622552204673
 21
8.30000000000004
 31
0.0
  0
ARC
  5
155
  8
panel-edge-moved
  6
ByLayer
 10
282.56225522046776
 20
6.300000000000343
 30
0.0
 40
1.999999999999697
 50
90.00000000001303
 51
151.52130664182758
  0
ARC
  5
156
  8
panel-edge-moved
  6
ByLayer
 10
278.606780000065
 20
8.445743642835184
 30
0.0
 40
2.499999999998813
 50
-151.52130664181632
 51
-28.47869335820172
  0
ARC
  5
157
  8
panel-edge-moved
  6
ByLayer
 10
274.651304779662
 20
6.30000000000007
 30
0.0
 40
1.9999999999999984
 50
28.47869335819874
 51
90.0
  0
LINE
  5
158
  8
panel-edge-moved
  6
ByLayer
 10
274.651304779662
 20
8.300000000000068
 30
0.0
 11
199.1122301014395
 21
8.30000000000004
 31
0.0
  0
ARC
  5
159
  8
panel-edge-moved
  6
ByLayer
 10
199.11223010143848
 20
6.29999999999945
 30
0.0
 40
2.00000000000059
 50
89.99999999997068
 51
151.52063592139703
  0
ARC
  5
15A
  8
panel-edge-moved
  6
ByLayer
 10
195.15677999997993
 20
8.44578994658598
 30
0.0
 40
2.4999999999994453
 50
-151.52063592141607
 51
-28.479364078580666
  0
ARC
  5
15B
  8
panel-edge-moved
  6
ByLayer
 10
191.20132989852172
 20
6.2999999999999305
 30
0.0
 40
2.000000000000051
 50
28.47936407859142
 51
90.00000000000081
  0
LINE
  5
15C
  8
panel-edge-moved
  6
ByLayer
 10
191.2013298985217
 20
8.299999999999981
 30
0.0
 11
113.3822301013798
 21
8.300000000000054
 31
0.0
  0
ARC
  5
15D
  8
panel-edge-moved
  6
ByLayer
 10
113.38223010138027
 20
6.300000000000374
 30
0.0
 40
1.9999999999996803
 50
90.00000000001343
 51
151.5206359214277
  0
ARC
  5
15E
  8
panel-edge-moved
  6
ByLayer
 10
109.42677999992175
 20
8.44578994658601
 30
0.0
 40
2.4999999999999036
 50
-151.52063592141755
 51
-28.479364078587466
  0
ARC
  5
15F
  8
panel-edge-moved
  6
ByLayer
 10
105.47132989846307
 20
6.300000000000096
 30
0.0
 40
1.9999999999999496
 50
28.47936407858346
 51
89.99999999999919
  0
LINE
  5
160
  8
panel-edge-moved
  6
ByLayer
 10
105.4713298984631
 20
8.300000000000045
 30
0.0
 11
101.8654215672927
 21
8.29999949320866
 31
0.0
  0
ARC
  5
161
  8
panel-edge-moved
  6
ByLayer
 10
101.86542132169917
 20
9.299999746604314
 30
0.0
 40
1.0000002533956858
 50
89.99999999067634
 51
-89.99998592853106
  0
LINE
  5
162
  8
panel-edge-moved
  6
ByLayer
 10
101.8654213218619
 20
10.3
 30
0.0
 11
226.6678426437237
 21
10.3
 31
0.0
  0
LINE
  5
163
  8
panel-edge-moved
  6
ByLayer
 10
226.6678426437237
 20
10.3
 30
0.0
 11
226.6678426437237
 21
20.73099999999999
 31
0.0
  0
ARC
  5
164
  8
panel-edge-moved
  6
ByLayer
 10
227.6678426437237
 20
20.731
 30
0.0
 40
1.0
 50
4.0711099922733015e-13
 51
-179.99999999999937
  0
LINE
  5
165
  8
panel-edge-moved
  6
ByLayer
 10
228.6678426437237
 20
20.73100000000001
 30
0.0
 11
228.6678426437237
 21
14.12500000000001
 31
0.0
  0
ARC
  5
166
  8
panel-edge-moved
  6
ByLayer
 10
231.1678426437237
 20
14.12500000000001
 30
0.0
 40
2.5
 50
180.0
 51
-90.0
  0
LINE
  5
167
  8
panel-edge-moved
  6
ByLayer
 10
231.1678426437237
 20
11.62500000000001
 30
0.0
 11
286.7274213218621
 21
11.62499999999477
 31
0.0
  0
ARC
  5
168
  8
panel-edge-moved
  6
ByLayer
 10
286.727421321862
 20
10.62499999999477
 30
0.0
 40
1.0
 50
0.0
 51
89.99999999999349
  0
ARC
  5
169
  8
panel-edge-moved
  6
ByLayer
 10
-22.52499999999895
 20
2.793999946640604
 30
0.0
 40
1.0000000000011118
 50
179.99997402026213
 51
-2.5979737959344613e-05
  0
LINE
  5
16A
  8
panel-edge-moved
  6
ByLayer
 10
-23.52499999999996
 20
2.794000400072569
 30
0.0
 11
-23.52499999999996
 21
17.08099975456923
 31
0.0
  0
ARC
  5
16B
  8
panel-edge-moved
  6
ByLayer
 10
-22.524999999999995
 20
17.08100000016275
 30
0.0
 40
0.9999999999999956
 50
-9.323656104304348e-09
 51
-179.9999859285279
  0
LINE
  5
16C
  8
panel-edge-moved
  6
ByLayer
 10
-21.525
 20
17.08100000000002
 30
0.0
 11
-21.525
 21
13.62500000000001
 31
0.0
  0
ARC
  5
16D
  8
panel-edge-moved
  6
ByLayer
 10
-19.525
 20
13.62500000000001
 30
0.0
 40
2.0
 50
180.0
 51
-90.0
  0
LINE
  5
16E
  8
panel-edge-moved
  6
ByLayer
 10
-19.525
 20
11.62500000000001
 30
0.0
 11
-5.524999999999999
 21
11.62500000000001
 31
0.0
  0
ARC
  5
16F
  8
panel-edge-moved
  6
ByLayer
 10
-5.524999999999999
 20
13.62500000000001
 30
0.0
 40
1.9999999999999998
 50
-90.0
 51
0.0
  0
LINE
  5
170
  8
panel-edge-moved
  6
ByLayer
 10
-3.524999999999999
 20
13.62500000000001
 30
0.0
 11
-3.524999999999961
 21
17.08099975456923
 31
0.0
  0
ARC
  5
171
  8
panel-edge-moved
  6
ByLayer
 10
-2.524999999999995
 20
17.08100000016275
 30
0.0
 40
0.999999999999996
 50
-9.323656104304353e-09
 51
-179.9999859285279
  0
LINE
  5
172
  8
panel-edge-moved
  6
ByLayer
 10
-1.524999999999999
 20
17.08100000000002
 30
0.0
 11
-1.524999999999998
 21
10.3
 31
0.0
  0
LINE
  5
173
  8
panel-edge-moved
  6
ByLayer
 10
-1.524999999999998
 20
10.3
 30
0.0
 11
96.27742132186188
 21
10.29999949320861
 31
0.0
  0
ARC
  5
174
  8
panel-edge-moved
  6
ByLayer
 10
96.27742223006013
 20
9.299999746604305
 30
0.0
 40
0.9999997466047168
 50
-89.9999479640604
 51
90.00005203593962
  0
LINE
  5
175
  8
panel-edge-moved
  6
ByLayer
 10
96.27742313825837
 20
8.3
 30
0.0
 11
-8.280049898583798
 21
8.3
 31
0.0
  0
ARC
  5
176
  8
panel-edge-moved
  6
ByLayer
 10
-8.280049898583798
 20
6.300000000000001
 30
0.0
 40
1.9999999999999996
 50
90.0
 51
151.52063592141715
  0
ARC
  5
177
  8
panel-edge-moved
  6
ByLayer
 10
-12.23550000004261
 20
8.44578994658599
 30
0.0
 40
2.5000000000000036
 50
-151.5206359214171
 51
-28.479364078583
  0
ARC
  5
178
  8
panel-edge-moved
  6
ByLayer
 10
-16.190950101501446
 20
6.29999999999996
 30
0.0
 40
2.0000000000000417
 50
28.479364078583664
 51
90.00000000000071
  0
LINE
  5
179
  8
panel-edge-moved
  6
ByLayer
 10
-16.19095010150147
 20
8.3
 30
0.0
 11
-18.525
 21
8.3
 31
0.0
  0
ARC
  5
17A
  8
panel-edge-moved
  6
ByLayer
 10
-18.525
 20
5.300000000000002
 30
0.0
 40
2.999999999999999
 50
90.0
 51
-179.99999999999997
  0
LINE
  5
17B
  8
panel-edge-moved
  6
ByLayer
 10
-21.525
 20
5.300000000000001
 30
0.0
 11
-21.52499999999794
 21
2.793999493208638
 31
0.0
  0
ENDSEC
  0
EOF
